<svg xmlns="http://www.w3.org/2000/svg" width="103" height="102" viewBox="0 0 103 102"><defs><style>.a{fill:#fff;stroke:#191919;}.b,.c{fill:#191919;}.b{font-size:14px;font-family:Roboto-Bold, Roboto;font-weight:700;}.d{fill:#010101;}.e{stroke:none;}.f{fill:none;}</style></defs><g transform="translate(-257 -837)"><g class="a" transform="translate(257 837)"><rect class="e" width="103" height="102" rx="9"/><rect class="f" x="0.5" y="0.5" width="102" height="101" rx="8.5"/></g><text class="b" transform="translate(309 921.609)"><tspan x="-21.8" y="0">Beauty</tspan></text><path class="c" d="M24.064,42.74c-.174,0-.522.174-.7.174a3.116,3.116,0,0,1-3.3-2.261,11.982,11.982,0,0,0-.522-1.391c-.174-.7-.348-1.217-.522-1.913-.174-.87-.348-1.739-.522-2.435-.174-.522-.174-.87-.348-1.391s-.174-1.043-.348-1.565a36.6,36.6,0,0,0-1.043-4.174c-.522-1.391-.87-2.782-1.391-4-.522-1.739-1.043-3.13-1.391-4.522-.174-.348-.348-.522-.522-.87-1.913-1.217-3.478-2.261-5.043-3.13a10.494,10.494,0,0,0-1.391-1.391l-.348-.348c-1.043-.87-2.261-1.913-3.3-2.956A2.14,2.14,0,0,1,2.5,8.828a1.865,1.865,0,0,1,.348-1.043,4.015,4.015,0,0,0,.87-1.217A1.568,1.568,0,0,1,4.761,5.524,16.315,16.315,0,0,0,6.848,3.959c.522-.522,1.217-.87,1.739-1.391.174-.174.522-.348.7-.522h.7c.348-.174.522-.348.87-.348h.174a3.8,3.8,0,0,0,.87-.522,1.164,1.164,0,0,1,1.217-.7A6.524,6.524,0,0,0,14.847.307c.174,0,.348-.174.522-.174h.174a3.711,3.711,0,0,1,1.391,0h.348a10.178,10.178,0,0,1,2.261.348c.174,0,.522.174.7.174l1.565.522c.348,0,.522.348.7.522l.174.174c.174.174.348.348.522.348.348.174.522.522.87.7a2.228,2.228,0,0,1,.7,2.435,3.277,3.277,0,0,1-.7,1.565,28.132,28.132,0,0,0-4,7.13v.174l-.174.348a3.927,3.927,0,0,0-.348,3.652v.174c.522,2.261,1.217,4.522,1.913,6.782a9.8,9.8,0,0,0,.7,2.087c.174.522.348,1.217.522,1.913.522,1.913,1.043,3.478,1.391,5.043l1.043,4.7v.174c0,.348.174.7.174,1.217a1.944,1.944,0,0,1-1.217,2.435ZM17.63,26.219a.639.639,0,0,0,.174.522,7.532,7.532,0,0,0,.174.87c.174.7.348,1.217.522,1.913.174,1.217.522,2.261.7,3.478a20.221,20.221,0,0,0,.7,3.13,22.737,22.737,0,0,0,1.565,4.522A1.746,1.746,0,0,0,23.195,41.7c.348,0,.522-.174.87-.348a1.8,1.8,0,0,0,.348-2.087l-.174-.348c-.348-1.217-.522-2.609-.87-3.826-.522-1.739-.87-3.3-1.391-5.043-.174-.522-.174-.87-.348-1.391-.174-.87-.522-1.565-.7-2.261,0-.174-.174-.348-.174-.522a2.938,2.938,0,0,1-.87.348,2.572,2.572,0,0,1-2.261,0Zm-2.087-8c-.174,0-.348.174-.174.7a3.224,3.224,0,0,0,.348,1.217c0,.174.174.348.174.522a11.082,11.082,0,0,1,.348,1.217c.174.87.522,1.739.7,2.609.174.7.522.87,1.217.87a3.829,3.829,0,0,0,1.391-.174c.348-.174.522-.174.7-.348v-.87c-.522-1.739-1.043-3.478-1.391-5.217,0-.348-.174-.522-.174-.87,0-.174,0-.174-.174-.348a5.34,5.34,0,0,1-2.609.7h-.348ZM9.63,9.7l.522.522a3.053,3.053,0,0,1,.87.7L12.587,13c.87,1.043,1.739,2.261,2.609,3.478l.174.174c0,.348,0,.348.174.174q.261,0,0-.522v-.348a2.513,2.513,0,0,1-.348-1.217,4.093,4.093,0,0,1-.348-1.391L13.8,9.176,13.63,8.133v-.7l.348.348a2.4,2.4,0,0,1,.522.7c.174.87.522,1.565.7,2.435l1.043,3.652c.174.7.348,1.217.522,1.913v.174a.539.539,0,0,0,.174.348,5.145,5.145,0,0,0,.348-1.739c-.174-3.3,0-6.087,0-8.174v-.7H17.8V7.611a29.477,29.477,0,0,1-.174,4v4.348l.174-.174c0-.348.174-.522.174-.87v-.348l.174-1.043c.348-1.217.522-2.609.87-3.826,0-.174.174-.348.174-.522A.17.17,0,0,1,19.369,9l.7-1.565-.174,1.739a8.729,8.729,0,0,1-.348,2.087c-.174.7-.174,1.217-.348,1.913l.522-1.043.174-.348A18.431,18.431,0,0,1,21.8,8.133,18.33,18.33,0,0,0,23.021,6.22a1.755,1.755,0,0,0,.174-1.565,7.932,7.932,0,0,0-2.087-2.087,2.1,2.1,0,0,1-1.739-.522h-.348a.859.859,0,0,1-.522-.174A2.579,2.579,0,0,0,17.282,1.7h-.348a4.728,4.728,0,0,0-1.565,0c-.174,0-.348.174-.522.174C15.021,1.524,14.5,1.7,13.8,1.7h-.522a.461.461,0,0,0-.522.522c-.174.348-.348.522-.7.522H10.674a.859.859,0,0,0-.522.174l-.522.522A6.069,6.069,0,0,1,8.065,4.48c-.348,0-.348.174-.522.348a1.374,1.374,0,0,1-.87,1.043A2.775,2.775,0,0,0,5.109,7.089c-.174.348-.348.522-.522.87l-.174.174c-.522.87-.7,1.217.174,2.087.7.7,1.565,1.391,2.261,2.087.174.174.348.348.522.348a7.068,7.068,0,0,0,1.739,1.565c1.043.7,2.261,1.391,3.478,2.087a8.478,8.478,0,0,0,1.217.522c.174,0,.174.174.348.174,0-.174,0-.174-.174-.348-.87-1.217-1.565-2.261-2.435-3.478-.174-.348-.522-.7-.7-1.043,0-.174-.174-.174-.174-.348a3.787,3.787,0,0,1-.87-1.391L9.63,9.7Z" transform="translate(313.627 850.857)"/><g transform="translate(289 867.075)"><path class="d" d="M16.036,1.388a.5.5,0,0,1,.583-.452c.327.059.645.162.967.246A36.456,36.456,0,0,1,23.447,3.4a22.984,22.984,0,0,1,4.459,2.752,11.564,11.564,0,0,1,3.479,4.332,1.834,1.834,0,0,1,.054.732c-.005.953,0,1.906,0,2.86a2.734,2.734,0,0,1,1.52.379,2.633,2.633,0,0,1,1.237,1.981V30.811a1.584,1.584,0,0,1-.889,1.286,28.121,28.121,0,0,1-7.974,2.3,54.516,54.516,0,0,1-9.237.588,51.631,51.631,0,0,1-9.026-.933A27.293,27.293,0,0,1,.881,32.112,1.582,1.582,0,0,1,0,30.892V16.45a2.626,2.626,0,0,1,1.155-1.943,2.73,2.73,0,0,1,1.6-.431q0-1.365,0-2.731a2.523,2.523,0,0,1,.11-1.135,2.738,2.738,0,0,1,1.26-1.14A13.979,13.979,0,0,1,7.494,7.976a43.24,43.24,0,0,1,6.2-.764,5.643,5.643,0,0,0,.7-.049,3.073,3.073,0,0,0,.509-.615,7.147,7.147,0,0,0,1.166-4.08c.011-.361-.041-.719-.035-1.08m1.063.736a8.283,8.283,0,0,1-1.219,4.8,8.518,8.518,0,0,1-4.033,3.18A18.727,18.727,0,0,1,4.28,11.289,10.832,10.832,0,0,0,7.112,12.31a38.917,38.917,0,0,0,6.652.871,65.576,65.576,0,0,0,6.6,0,39.585,39.585,0,0,0,6.615-.851,13,13,0,0,0,2.458-.8,2.09,2.09,0,0,0,.959-.725,11.728,11.728,0,0,0-4.28-4.683A32.4,32.4,0,0,0,17.1,2.124M6.945,9.158a9.525,9.525,0,0,0-2.836,1.1,22.066,22.066,0,0,0,3.564-.152A12.768,12.768,0,0,0,13.14,8.28a36.6,36.6,0,0,0-6.194.878M3.792,12.165c.005.641,0,1.284,0,1.925,0,.165.119.3.144.457s-.09.318-.141.474c.013.206.193.347.343.465a6.1,6.1,0,0,0,1.5.7,24.291,24.291,0,0,0,4.322.942,54.505,54.505,0,0,0,7.54.435c1.748-.009,3.5-.089,5.239-.258a30.564,30.564,0,0,0,5.143-.907,8.25,8.25,0,0,0,2.1-.859c.179-.128.395-.281.42-.517-.05-.154-.161-.295-.143-.464s.146-.3.146-.472c0-.641,0-1.283,0-1.925a12.523,12.523,0,0,1-3.793,1.294,44.937,44.937,0,0,1-6.233.752,57.478,57.478,0,0,1-9.414-.236A33.421,33.421,0,0,1,6.6,13.232a10.359,10.359,0,0,1-2.8-1.068m-1.879,3.1a1.547,1.547,0,0,0-.877,1.422q0,6.98,0,13.959a.519.519,0,0,0,.3.534A25.394,25.394,0,0,0,6.547,32.89a50.173,50.173,0,0,0,10.546,1.083,50.457,50.457,0,0,0,9.749-.885,24.868,24.868,0,0,0,6-1.915.535.535,0,0,0,.311-.52q0-6.983,0-13.964a1.547,1.547,0,0,0-.629-1.271,1.686,1.686,0,0,0-1.087-.3,1.637,1.637,0,0,1-.409.817,4.688,4.688,0,0,1-1.7,1.046,17.945,17.945,0,0,1-2.989.828,49.862,49.862,0,0,1-8.182.785A52.157,52.157,0,0,1,7.807,17.8a14.261,14.261,0,0,1-3.732-1.177A2.256,2.256,0,0,1,2.75,15.113,1.83,1.83,0,0,0,1.913,15.267Z" transform="translate(0 0)"/><path class="d" d="M234.337,116.852a.539.539,0,0,1,.7.393,2.531,2.531,0,0,1-.238.862,6.131,6.131,0,0,1-3.162,2.992c-.366.162-.754-.27-.638-.628.073-.319.425-.4.669-.546a4.515,4.515,0,0,0,2.354-2.756A.49.49,0,0,1,234.337,116.852Z" transform="translate(-215.553 -108.155)"/><path class="d" d="M317.957,119.8a.519.519,0,0,1,.725.5,3.486,3.486,0,0,1-.793,2.026,5.437,5.437,0,0,1-1.517,1.28.516.516,0,0,1-.726-.532c.028-.321.36-.441.586-.6a3.014,3.014,0,0,0,1.434-2.244A.509.509,0,0,1,317.957,119.8Z" transform="translate(-294.557 -110.891)"/><path class="d" d="M81.507,272.183a.618.618,0,0,1,.433.033,21.744,21.744,0,0,0,4.361,1.111,44.684,44.684,0,0,0,9.874.379,32.394,32.394,0,0,0,5.33-.788,15.787,15.787,0,0,0,2.118-.671.744.744,0,0,1,.489-.076.537.537,0,0,1,.378.566c0,3.009,0,6.02,0,9.028.009.283-.242.458-.475.555a18.12,18.12,0,0,1-4.579,1.5,35.107,35.107,0,0,1-9.6.484,28.4,28.4,0,0,1-5.94-1.093,15.842,15.842,0,0,1-2.43-.966.544.544,0,0,1-.3-.55q0-4.476,0-8.952a.539.539,0,0,1,.351-.557m.709,1.274v8.014a22.577,22.577,0,0,0,7.211,1.777,34.207,34.207,0,0,0,9.955-.445,17.271,17.271,0,0,0,4.081-1.33q0-4.007,0-8.015a25.287,25.287,0,0,1-4.876,1.067,47.09,47.09,0,0,1-11.373,0A27.145,27.145,0,0,1,82.215,273.457Z" transform="translate(-75.734 -253.113)"/></g></g></svg>