<svg xmlns="http://www.w3.org/2000/svg" width="184" height="196.251" viewBox="0 0 184 196.251"><defs><style>.a{fill:#707070;}</style></defs><g transform="translate(-15.986)"><path class="a" d="M24.175,0h167.6a4.448,4.448,0,0,1,1.878,2.055,10.609,10.609,0,0,1,.2,2.537c-.027,7.915,0,15.83-.015,23.746,1.671,1.023,3.442,1.9,5.025,3.059a3.4,3.4,0,0,1,1.115,3.074q-.023,69.966-.008,139.933a21.549,21.549,0,0,1-7.689,16.831,22.977,22.977,0,0,1-11.729,5.017H35.421a22.857,22.857,0,0,1-11.948-5.182A21.48,21.48,0,0,1,15.991,174.4q-.006-70.162,0-140.32a3.053,3.053,0,0,1,1.1-2.7c1.583-1.161,3.365-2.009,5.029-3.043q.017-10.913,0-21.825a28.9,28.9,0,0,1,.107-4.155C22.4,1.28,23.362.613,24.175,0M38.449,6.183c4.224,2.269,8.617,4.224,12.883,6.416a3.039,3.039,0,0,1,1.483,3.457A3.828,3.828,0,0,1,50.765,18.3C44.59,21.944,38.476,25.689,32.3,29.334c-.675.4-1.338.828-1.97,1.3,14.9.077,29.794,0,44.689.034,36.87-.034,73.74.05,110.61-.038-6.9-4.462-14.075-8.494-21.024-12.875a3.012,3.012,0,0,1,.13-5.063c4.2-2.273,8.6-4.186,12.783-6.5-8.23-.123-16.459-.011-24.689-.054-38.127.042-76.258-.065-114.382.05M55.855,57.507a9.188,9.188,0,0,0,3,15.5,55.293,55.293,0,0,0,1.725,12.71,49.108,49.108,0,0,0,35.045,34.789,48.989,48.989,0,0,0,55.87-24.83,50.671,50.671,0,0,0,5.627-22.669,9.216,9.216,0,1,0-6.256.008,41.63,41.63,0,0,1-3.342,16.731,42.928,42.928,0,0,1-72.383,10.924A42.4,42.4,0,0,1,65.1,73.019a9.2,9.2,0,1,0-9.245-15.512Z" transform="translate(0)"/><path class="a" d="M130.07,160.12a3.068,3.068,0,1,1-.958,5.247A3.083,3.083,0,0,1,130.07,160.12Z" transform="translate(-69.094 -98.623)"/><path class="a" d="M370.07,160.114a3.068,3.068,0,1,1-.958,5.251A3.084,3.084,0,0,1,370.07,160.114Z" transform="translate(-217.101 -98.621)"/></g></svg>