<svg xmlns="http://www.w3.org/2000/svg" width="128.758" height="97.426" viewBox="0 0 128.758 97.426"><defs><style>.a{fill:#fff;}.b{fill:silver;opacity:0.22;}</style></defs><g transform="translate(-0.225 -0.34)"><g transform="translate(0.225 0.34)"><path class="a" d="M59.724,1.124A1.756,1.756,0,0,1,60.05.34a1.2,1.2,0,0,1,.587.777c.158-.12.3-.3.512-.317.175.023.3.171.444.26.095-.222.123-.583.428-.611.23.059.5.238.458.512,0,.188-.195.277-.307.392.182.118.5.279.33.54a.508.508,0,0,1,.554.593c-.066.186.116.292.2.425-.034.3-.435.364-.481.648.038.2.257.286.389.42.208-.155.371-.455.673-.413a1.046,1.046,0,0,1,.832-.646.743.743,0,0,1-.134-.847,3.047,3.047,0,0,1-.083-.6c.293-.1.538.176.833.112.256.011.713-.083.716.3a.626.626,0,0,1,.929.186c.228-.263.514-.544.895-.4.135.212.373.483.214.744-.1.167-.483.123-.441.355a3.991,3.991,0,0,0,.582.176c.106-.131.194-.3.365-.359.214-.124.437.047.619.152a.969.969,0,0,1,.933-.077c.27.1.29.407.331.644a.84.84,0,0,1,.4.259,4.944,4.944,0,0,0-.467.835c-.174.185-.43.059-.626,0a.882.882,0,0,0,.4.514c.157-.175.318-.466.6-.384.157,0,.217.17.32.258a1.88,1.88,0,0,1,.764-.11c.2.029.158.223.162.369.307.254.038.665-.266.773a4.587,4.587,0,0,0,.771.55A1.477,1.477,0,0,1,72.8,5.257a2.424,2.424,0,0,1,.553.047c0-.348.134-.806.579-.713a.862.862,0,0,1,.39-.366,1,1,0,0,1,.616.177.522.522,0,0,1,.656-.134c-.074-.277-.172-.634.066-.859a.651.651,0,0,1,.924.32,3.836,3.836,0,0,1,1.046.057c.041-.222.06-.523.318-.6a.429.429,0,0,1,.586.36l.393-.012a1.392,1.392,0,0,1-.13-.58l.181-.152c-.023-.29-.12-.649.108-.884.13-.148.34-.064.511-.079a.91.91,0,0,1,.613-.182c.228.125.259.4.3.628.291-.186.733-.335.96.026.186.022.374.037.563.05a1,1,0,0,1,.187-.89c.195-.177.587-.3.776-.059a1.28,1.28,0,0,1-.06.772,1.665,1.665,0,0,1,.847-.15c.21.221-.034.562-.224.71-.01-.012-.273-.014-.132.033a.848.848,0,0,1,.745.279c.231-.025.653-.171.7.179-.016.089-.05.268-.067.356.114.127.317.22.321.414.019.235-.251.344-.287.561a2.817,2.817,0,0,1-.259.8,1.4,1.4,0,0,1,.9.221.742.742,0,0,1,.169.838c.42-.088.946.142.875.644a1.092,1.092,0,0,1,.659.182c.2.148.186.42.23.641.1-.182.241-.5.5-.42a.92.92,0,0,1,.366.833,4.581,4.581,0,0,1,.509-.288c-.062-.263-.17-.586.023-.819a.577.577,0,0,1,.8.174c.115.193,0,.4-.058.587.38.168.349.631.213.956-.127.294-.262.685-.639.707q.14.054.281.111a1.324,1.324,0,0,1-.317.7,2.7,2.7,0,0,1,1.214-.063,1.01,1.01,0,0,1,.484.537,1.03,1.03,0,0,1,.732-.318,1.062,1.062,0,0,1-.337-.556,1.342,1.342,0,0,1-.93-.072.562.562,0,0,1,.017-.681c-.028-.185-.182-.4-.054-.578.261-.213.587.054.721.287.112-.191.14-.664.462-.518.113.136.024.345.059.506.2-.085.4-.168.6-.245-.185-.265-.565-.748-.126-.96.054-.336-.014-.827.345-1.01a.513.513,0,0,1,.5.726,1.063,1.063,0,0,1,.751.159c.183-.214.477-.541.779-.327.208.106.13.354.122.538a.834.834,0,0,1,.57.181c.111.153.005.342-.019.505.185.2.439.386.451.684a.667.667,0,0,1-.219.378,1.418,1.418,0,0,1,.345.553.561.561,0,0,1,.726-.256c-.052-.311-.076-.7.239-.881a.677.677,0,0,1,.258.505c.156.01.353-.025.444.147q.247-.129.5-.236c.139.089.348.243.246.435-.067.266-.359.32-.591.318-.015.145-.156.478.118.46.185.034.374.059.557.11a.68.68,0,0,1-.869.486.572.572,0,0,1,0,.467.948.948,0,0,1,.637.355c.083-.4.38-.816.843-.711a3.678,3.678,0,0,1,.286-.951c.209.211.145.543.188.813A.916.916,0,0,1,99.542,11c.112-.242.183-.581.481-.658a.477.477,0,0,1,.464.409c-.024.248-.253.365-.447.465a1,1,0,0,1,.2.541.445.445,0,0,1,.359.322.776.776,0,0,1,.979-.233,1.01,1.01,0,0,1,.5-.306.443.443,0,0,1,.486.411c-.04.168-.209.241-.332.336a.747.747,0,0,1,.585,1.066c-.235.191-.5-.069-.705-.179a1.1,1.1,0,0,1,.164.929.686.686,0,0,1-.861.159c.072.142.191.329.072.479a.87.87,0,0,1-.849.217c-.206-.1-.315.109-.437.23.186.151.315.372.035.54.322.22.673.552.524.987a.767.767,0,0,1,.411.2c0-.05-.013-.151-.016-.2a.743.743,0,0,1,.983-.25,1.059,1.059,0,0,1,.024-.528c.132-.009.263-.014.4-.02.184-.306.427-.651.824-.663-.22-.123-.486-.23-.581-.483.01-.3.4-.4.621-.254-.049-.392.015-1.057.567-.976.137-.188.259-.428.5-.507.186-.045.228.191.234.323.024.2-.135.349-.241.5.292.013.778.081.7.491a.308.308,0,0,1-.532.22.817.817,0,0,1-.491.981c.084.1.169.194.256.292a1.455,1.455,0,0,1,.814-.381c.29-.138.533-.449.893-.361a.97.97,0,0,1-.184,1.019.61.61,0,0,1,.47.506c.056.207-.15.308-.283.415a1.355,1.355,0,0,1,.558.2.563.563,0,0,1-.037.668c-.231.11-.391-.131-.563-.233a1.06,1.06,0,0,0-.219.465c.1.123.281.245.212.431a.677.677,0,0,1-1.021.061.55.55,0,0,0,.174.721c.246-.066.455-.279.728-.165a1.174,1.174,0,0,1,.8-.331,1.007,1.007,0,0,1,.5.281c.1-.157.186-.353.377-.422a.346.346,0,0,1,.277.486c.194-.046.486-.079.583.15.125.16-.038.343-.085.5a1.671,1.671,0,0,1,.5.038c.074-.257.249-.6.575-.515.393.052.425.528.336.834a.807.807,0,0,1,.383.149c.136-.139.262-.316.474-.343a.623.623,0,0,1,.385.848c.237,0,.65.008.664.333.048.174-.17.2-.278.254a.672.672,0,0,1,.3.389c.026.212-.183.309-.308.433-.258-.244-.36-.6-.628-.835a.6.6,0,0,1-.746.1,1.01,1.01,0,0,1-.77.327.413.413,0,0,1-.66.148,6.161,6.161,0,0,1-.7.2c.169.111.354.281.288.508-.015.256-.3.292-.492.348.036.135.066.271.1.408l-.1.222c-.184-.008-.367-.019-.548-.034.036.176.079.431.328.366a5.883,5.883,0,0,1,1.522-.3c.12.126.241.251.363.378a1.563,1.563,0,0,1,.83-.408c.421.093.459.593.494.944.163-.034.39-.157.516.016.2.219.078.516.019.765.324-.019.539-.291.821-.417.269-.067.427.2.519.4a1.7,1.7,0,0,1,.685-.331c.216-.032.32.185.388.348.217-.012.525-.025.6.236.114.261-.116.483-.283.65a.97.97,0,0,0,.161.527,5.482,5.482,0,0,1,.577-.288c.221.005.34.21.456.368.243-.108.538-.3.8-.14.159.106.087.3.09.46a1.115,1.115,0,0,1,.527.216c.154.165.053.389,0,.573a1.24,1.24,0,0,0,.745-.3c.2-.2.438-.48.759-.4.023.223-.157.388-.256.568.234.066.573.081.664.357a1.166,1.166,0,0,1-.093.676l-.285.014a2.022,2.022,0,0,0,.656.73c-.1.3-.347.68-.718.591-.249-.034-.28-.324-.441-.465-.18-.106-.433-.01-.582-.173-.143-.093-.067-.286-.094-.425-.134.034-.269.064-.4.093-.057.239-.1.671-.447.606-.433-.1-.533-.629-.612-1a.917.917,0,0,1-.457.013c0,.221-.04.573-.343.548-.292-.042-.351-.377-.429-.606a.854.854,0,0,1-.446.247c-.242-.115-.322-.388-.422-.613a1.7,1.7,0,0,1-1.168.257c.05.36-.337.784-.7.578-.195-.065-.4.025-.6-.027a1.85,1.85,0,0,1-1.454.176c-.144.445-.631.425-.984.6-.23.04-.366-.167-.52-.292a1.7,1.7,0,0,0-.638-.32.72.72,0,0,1-.942.736,1.748,1.748,0,0,0,.113.557c.457,0,.763-.505,1.239-.409a.351.351,0,0,1,.251.316c-.066.225-.283.339-.46.464a.846.846,0,0,1,.665.345c.193-.224.479-.484.8-.309a.866.866,0,0,1,.242-.491c.28.13.453.465.2.712a5.55,5.55,0,0,1,.566.136c.16-.25.341-.551.672-.577a.618.618,0,0,1,.618.825.757.757,0,0,1,.636.308,1.011,1.011,0,0,1,.909-.352c.2.093.244.319.306.506.189-.034.4-.119.58-.005a.62.62,0,0,1-.084.834c.085.081.169.163.255.246.175-.223.488-.567.779-.3.265.318.06.763-.076,1.093.37.059.84.249.773.713l.312-.066c.226-.029.255.232.33.381.2,0,.456-.142.622.02.024.074.072.221.1.3a.683.683,0,0,1,.769.5c.233-.037.614-.151.718.152.066.245-.014.716-.36.631-.347-.041-.775.095-1.015-.241a.72.72,0,0,1-.441.658,1.024,1.024,0,0,1-1.062-.406c-.262.125-.823.341-.762-.161a1.3,1.3,0,0,1-.642.323c-.3-.013-.455-.307-.53-.555-.107.089-.16.294-.327.282-.232.03-.364-.211-.517-.339-.223.3-.583.121-.892.153-.192.056-.306.232-.445.36a1.752,1.752,0,0,1-.969-.379.613.613,0,0,1-.452.807,1.027,1.027,0,0,0,.2.93.654.654,0,0,1,.812-.347.362.362,0,0,1,.59-.127.523.523,0,0,1,.705.157,1.044,1.044,0,0,1,.431-.275c.061.116.123.234.184.353.261.032.686.008.707.371-.016.332-.385.348-.634.346a.518.518,0,0,1,.082.769.3.3,0,0,1-.513-.087.976.976,0,0,1-.374.369c-.023.177.005.4-.168.516a.839.839,0,0,1-1.2-.26,1.523,1.523,0,0,1-.487.46.845.845,0,0,1,.2.554,1.338,1.338,0,0,1,1.192-.127c.244.143.116.467.119.69a.861.861,0,0,1,.766-.145c.23.1.223.38.261.589.283-.084.624-.263.906-.078.16.153.008.329-.145.383.286.054.677.143.74.481.086.224-.2.257-.339.319a1.046,1.046,0,0,1,.7.726c.294-.084.751-.2.913.15.106.125-.014.278-.053.406a1.17,1.17,0,0,1,.884.12c.267-.114.674-.187.766.181a1.166,1.166,0,0,1,.714.371,1.066,1.066,0,0,1,.1.8c-.307.125-.471-.283-.627-.474-.072.182-.087.411-.261.528-.28.074-.491-.135-.68-.3-.179.333-.535.713-.95.537a.5.5,0,0,1-.384-.49.989.989,0,0,1-.788.441.666.666,0,0,1,.245-.581.9.9,0,0,1-.7.09.667.667,0,0,1-.246-.753c-.133-.113-.235-.279-.409-.327-.164-.019-.278.14-.431.165a1.084,1.084,0,0,1-.5-.363c.143.5-.427.713-.819.579a.657.657,0,0,1-1.2-.05l-.262.021a1.05,1.05,0,0,1,.487.862.985.985,0,0,1,.348.755.458.458,0,0,1,.552.626,1.389,1.389,0,0,1,.957-.091.527.527,0,0,1,.137.752c.116.146.222.325.415.385.272-.04.581-.17.835.012.168.088.089.281.049.421.353.33.955.216,1.253.638.254.269-.293.971-.457.452-.079.331-.267.779-.689.689a1.238,1.238,0,0,1,.173-.537,2.4,2.4,0,0,0-.785.164c-.251.174-.452.508-.8.464-.286-.155-.15-.523,0-.727-.49.208-.814-.315-.789-.744a.7.7,0,0,1-.724-.138,2.064,2.064,0,0,1-.681.183c-.225.025-.432-.17-.653-.088-.254.024-.352.276-.521.423a.422.422,0,0,1-.413-.4c.007-.207.188-.339.3-.492a1.5,1.5,0,0,1-.6-.565c-.223.514-.834,1.146-1.426.773-.3.275-1.011.5-1.153-.04-.187.168-.336.5-.637.432-.2-.077-.09-.3-.1-.451a1.451,1.451,0,0,1-1.013-.373.807.807,0,0,1-.628.4c-.242-.04-.112-.315-.13-.47a2.183,2.183,0,0,0-.4.167c.189.269.366.723-.014.918a.788.788,0,0,1-.514-.72,1.467,1.467,0,0,1-.476.389c-.308-.208-.384-.779.075-.845a.941.941,0,0,0-.529-.3c-1.09-.171-2.182-.337-3.251-.61a13.7,13.7,0,0,0-4.475-.825,27.671,27.671,0,0,0-3.847.1,8.366,8.366,0,0,0-2.5.834,14.829,14.829,0,0,1-3.466,1.175,7.689,7.689,0,0,0-3,1.387,16.779,16.779,0,0,0-3.275,3.045,7.171,7.171,0,0,0-1.313,3.586,3.606,3.606,0,0,0,.343,2.029,3.007,3.007,0,0,1,.407,1.241c.06.535.585.831,1.008,1.071a16.206,16.206,0,0,1,3.55,2.083c1.107.888,2.632.718,3.879,1.268a4.56,4.56,0,0,0,2.994.86,52.911,52.911,0,0,1,6.433.533c9.141.057,18.283.07,27.423.172,1.306,0,2.61.046,3.917.027,1.132.07,2.268-.02,3.4.06a9.826,9.826,0,0,0,1.228.066,13.541,13.541,0,0,1-1.8.009c-9.541.123-19.083.165-28.625.219-4.793-.017-9.584.047-14.377.027-2.612-.019-5.221.045-7.833.027-2.757.014-5.515-.032-8.271.028-4.179-.073-8.361.011-12.54-.046-4.2-.036-8.407.027-12.609-.037-5.808.023-11.612-.049-17.419-.059-1.706-.065-3.415.022-5.121-.048-3.445-.007-6.89-.079-10.335-.085-1.088-.064-2.177.012-3.264-.051-.59-.029-1.178.032-1.767.035,1.234-.165,2.482-.046,3.722-.114,3.486-.012,6.97-.079,10.457-.089,1.374-.066,2.751.016,4.125-.046,7.949-.023,15.9-.106,23.848-.086a18.99,18.99,0,0,0,2.735-.514,9.369,9.369,0,0,0,2.871-.568,11.345,11.345,0,0,1,2.334-.9,5.017,5.017,0,0,0,1.188-.293c.951-.464,1.783-1.15,2.778-1.528.5-.206,1.053-.239,1.548-.464a6,6,0,0,0,2.3-1.71c.209-.28.479-.626.32-.992a11.685,11.685,0,0,1-.176-2.341,13.825,13.825,0,0,0-1.207-2.828,3.36,3.36,0,0,0-.438-.956c-.453-.539-1.123-.914-1.375-1.6a2.024,2.024,0,0,0-1.673-1.083,4.733,4.733,0,0,1-2.548-1.425c-.192-.2-.5-.094-.727-.22-.607-.284-1.139-.705-1.724-1.03-1.383-.777-2.669-1.828-4.258-2.152a3.112,3.112,0,0,0-2.56.769c-.486.327-.924.909-1.576.811-.582-.152-1.017-.672-1.629-.744a1.163,1.163,0,0,0-1.138.9c-.063.142-.052.39-.25.417a1.777,1.777,0,0,0-.846.041c-.026.269.014.581-.185.8-.177.213-.435.441-.737.349-.225-.135-.192-.488-.445-.585-.41.042-.573.543-.972.583-.244-.069-.376-.3-.512-.494-.081.2-.115.475-.345.558-.186.01-.36-.107-.543-.066-.233.112-.356.432-.655.4-.477.06-.835-.324-1.094-.672-.111.135-.233.3-.431.293-.1-.073-.192-.15-.282-.232-.488.11-.793-.358-.988-.725-.128.247-.286.533-.591.58-.508.066-1.048-.3-1.53,0a.726.726,0,0,1-.92-.073,1.156,1.156,0,0,1-.688.312c-.466.02-.825.4-1.3.386a1.213,1.213,0,0,1-1.116.65c-.262.038-.536-.137-.465-.428-.2.1-.5.261-.69.044a.767.767,0,0,1,.063-.729c-.235-.07-.519-.076-.7-.263-.086-.355.4-.409.644-.457-.286-.214-.686-.4-.727-.8.146-.177.39-.11.589-.112.31-.028.271.411.54.463.17.019.286-.111.391-.221a1.311,1.311,0,0,1-.112-.658.847.847,0,0,0,.441-.588.834.834,0,0,0-.857-.183c0-.089,0-.266,0-.354.128-.287.521-.188.763-.314a2.062,2.062,0,0,1,.386-1.061.769.769,0,0,1,1.106.169c.2-.118.386-.247.591-.351a4.921,4.921,0,0,1,.739-.008,1.034,1.034,0,0,0-.456-.2,2.962,2.962,0,0,1-1.214-.851,1.337,1.337,0,0,1-1.01-.152.373.373,0,0,0-.5.121c-.279.232.036.716-.3.9a2,2,0,0,0-1.292.56c.136.189.348.531.07.7-.185.157-.39-.013-.543-.121a2.22,2.22,0,0,1-.619.831c-.354-.069-.115-.52-.074-.747a1.431,1.431,0,0,1-.814.293l-.065-.277a4.63,4.63,0,0,1-.877-.008c-.363-.082-.451-.752-.013-.776.2-.02.3-.228.458-.321.164-.13.365-.026.533.033a.524.524,0,0,0,.087-.681,3.5,3.5,0,0,1-.97.1c-.218-.127-.209-.407-.176-.624.155-.136.4-.088.582-.2a1.7,1.7,0,0,1-.361-.616c.167-.364.644-.118.746.175.237-.09.569.051.742-.168,0-.373-.324-.687-.243-1.064a.626.626,0,0,1-.644-.876c.078-.184.278-.1.425-.082l.112-.3a1.567,1.567,0,0,1,.877.3c.2-.069.342-.3.567-.256a5.221,5.221,0,0,1,.426.334,1.616,1.616,0,0,1,.363-.63c.3-.082.416.385.733.294.22-.142.323-.406.544-.548a1.044,1.044,0,0,1,.515-.009,1.562,1.562,0,0,1,.327-.607c-.28.024-.644.143-.875-.074-.013-.082-.039-.246-.053-.329-.355-.067-.537.5-.9.372a1.76,1.76,0,0,1,0-.454,1.857,1.857,0,0,1-.83.065.542.542,0,0,1,.16-.929c-.248-.076-.535-.153-.649-.414a1.8,1.8,0,0,0,.465-.664c-.36.181-.875.322-1.185-.021-.184-.324.26-.537.5-.634.611-.266,1.258-.938,1.956-.517.058-.212.061-.54.382-.4-.17-.208-.407-.427-.368-.722a.439.439,0,0,1,.427-.248c.414-.073.64.562,1.068.308a1.288,1.288,0,0,1,1.122-.692.7.7,0,0,1,.315-.426,1.723,1.723,0,0,1-1.065-.814,1.293,1.293,0,0,1-.975.268c-.246-.167-.468-.365-.708-.539-.156.116-.286.332-.508.3-.221-.123-.07-.408-.052-.6a2.346,2.346,0,0,1-.844.33c-.322-.048-.1-.432-.084-.623-.334.167-1.006.233-.986-.309.23-.243.667-.033.856-.379-.284-.162-.662-.346-.647-.73a.986.986,0,0,1,.858.235,1.039,1.039,0,0,1,.661-.447c-.144-.209-.3-.447-.17-.7-.084-.209-.251-.451-.109-.673.148-.131.365-.059.543-.085,0-.32-.111-.754.171-.986.337.067.714.508.437.841l.342.041c.381-.014.266-.536.555-.678a2.3,2.3,0,0,1,1.146.046,2.278,2.278,0,0,1,1.458-.736c.064-.345.3-.643.688-.579.109-.333.469-.272.716-.14.352-.371.951-.683,1.395-.268.1-.2.185-.527.471-.49a.89.89,0,0,1,.38.99c.374-.186.86-.413,1.255-.157.191.11.17.353.234.535.262.131.815.007.825.431-.064.352-.458.386-.742.306a2.182,2.182,0,0,0,.145.832c.282.027.6.049.664.388a.529.529,0,0,1,.486-.256c-.151-.192-.331-.5-.045-.666-.01-.408-.007-1.094.577-1.041.182-.167.487-.531.726-.262a.769.769,0,0,0,.716.219c.425-.066.368-.6.626-.851a.493.493,0,0,1,.616-.125.887.887,0,0,1,.243-.981,1.623,1.623,0,0,1-1.509-1.22c-.622.016-1.478-.114-1.629-.841a.524.524,0,0,1-.742.222c-.661.248-1.6.3-2.005-.393-.307.18-.757.452-1.055.112-.03-.31-.261-.576-.231-.892.086-.243.385-.231.6-.221-.027-.244-.1-.591.182-.716a.547.547,0,0,1,.724.392,1.362,1.362,0,0,1,.686-.606.447.447,0,0,1,.471.508.8.8,0,0,0,.593-.187,1.1,1.1,0,0,1-.206-.641c-.219-.03-.5-.024-.621-.245a.826.826,0,0,1,.2-.876,1.559,1.559,0,0,1,.409-.014.793.793,0,0,1,.809-.527c.3,0,.477.288.752.331.347-.212.47-.851.979-.757a.711.711,0,0,1-.064.742,5.3,5.3,0,0,1,.777-.05A.947.947,0,0,1,42,17.4a.878.878,0,0,1,.96.207c.132-.026.284-.168.413-.062a.787.787,0,0,1,.1.491.6.6,0,0,1,.752.039,1.67,1.67,0,0,1,1.337,0,1.815,1.815,0,0,1-.1-.585c-.4-.223-.934-.409-1.031-.914-.529-.017-1.305.111-1.578-.467-.486-.056-.661.494-1.089.548a.759.759,0,0,1,.509-1.036c-.042-.216-.286-.521-.032-.69.315-.066.573.2.771.4a.742.742,0,0,1,.249-.6c.087-.256.1-.554.351-.722-.065-.189-.278-.419-.064-.588.192-.1.488-.149.63.056a2.742,2.742,0,0,1,.107.431.754.754,0,0,1,.781-.281.568.568,0,0,1,.282-.417,1.7,1.7,0,0,1-.2-.942c-.262.1-.605.257-.835.008-.22-.325.079-.654.337-.833-.194-.282-.46-.724-.16-1.022.285-.235.419-.789.892-.658a6.743,6.743,0,0,0,.884.212,1.246,1.246,0,0,1-.162.478,3.033,3.033,0,0,1,.217.3,1.12,1.12,0,0,1,.421-.587,2.377,2.377,0,0,1-.2-.935.886.886,0,0,1,.668.744,1.513,1.513,0,0,1,.672-.6.646.646,0,0,1,.856.467c.164-.228.349-.538.669-.526a.494.494,0,0,1,.226.666.781.781,0,0,1,.959.513c.136-.079.272-.157.41-.233-.1-.183-.286-.355-.267-.578.007-.157.174-.214.274-.3-.149-.337-.532-.975.008-1.155.028-.259.111-.63.443-.625.476.02,1.225.294.97.913a1.888,1.888,0,0,1,.622-.285c-.221-.192-.491-.415-.474-.739-.008-.228.229-.329.4-.421a.473.473,0,0,1-.257-.483,1.017,1.017,0,0,1-.493-.392.421.421,0,0,1,.229-.548c.279-.056.432.223.6.391a.744.744,0,0,1,.723-.3,1.41,1.41,0,0,1,.233-.828c.329-.239.987.192.548.545.321-.079,1.04-.09.815.442.226-.047.5-.136.7.036a.973.973,0,0,1,.1.739,1.135,1.135,0,0,1,1.33.472.719.719,0,0,1,.971-.53l.283-.177c-.026-.086-.076-.258-.1-.344a.674.674,0,0,1-.784-.742,3.5,3.5,0,0,1-.466,0c0-.078,0-.234.007-.312-.171-.106-.484-.214-.381-.477a2.743,2.743,0,0,1,.257-.246c-.066-.269.093-.524.389-.479.112-.207.29-.462.1-.681-.2.071-.463.275-.667.116a.985.985,0,0,1-.167-.646c.115-.029.233-.058.351-.085-.18-.211-.355-.567-.036-.747a1.746,1.746,0,0,1,.121-1c.26-.194.558.095.781.231s.078.385-.013.55c.137,0,.275,0,.414,0-.014.1-.044.292-.059.39.182-.013.365-.021.549-.028.088-.351.267-.782.688-.8M66.606,3.48a4.361,4.361,0,0,0-.469-.368c-.136.142-.29.382-.07.527a1.554,1.554,0,0,0,.532.2c-.1.124-.2.249-.287.377-.051-.1-.1-.206-.155-.308-.3.1-.265.42-.233.671-.1-.11-.253-.347-.4-.135-.111.176.089.333.165.48-.089.131-.284.282-.163.455.172.132.323-.086.463-.164a.534.534,0,0,0,.457.4A3.487,3.487,0,0,0,66.4,5.1l.308-.16L66.7,5.4a1.185,1.185,0,0,0,.479-.33.567.567,0,0,0,.267.487l.177-.363a.478.478,0,0,0,.709-.126,2.957,2.957,0,0,0-.343-.214c.065-.086.132-.172.2-.259.093.088.208.457.369.243.083-.29-.267-.463-.453-.625.271-.1.3-.374.23-.629-.111.077-.219.158-.322.242q-.23-.116-.457-.233a1.528,1.528,0,0,0,.27-.526,1.625,1.625,0,0,0-.664.231c.038-.139.074-.28.109-.421-.223-.063-.364.135-.512.255-.108-.114-.217-.228-.327-.337-.128.245.1.463.182.684m2.8,2.838c-.024-.066-.071-.2-.095-.265a.65.65,0,0,0-.594.051L68.6,5.95q-.2.176-.383.358a2.122,2.122,0,0,0-.949-.23,6.512,6.512,0,0,0,.13.646c-.275-.09-.542-.2-.819-.287-.358.221.01.609.211.8-.007.025-.021.074-.027.1a2.744,2.744,0,0,0-1.074.168,2.359,2.359,0,0,0,.578.66c-.268.115-.631.2-.716.525a.381.381,0,0,0,.28.331,1.462,1.462,0,0,0,.727-.378A.553.553,0,0,0,67.4,8.7c.2.193.433.1.6-.084,0,.13.009.388.012.516.3-.187.441-.638.872-.551.032.162.028.4.223.456.232.115.469-.046.68-.135.086.235.081.613.372.695.224-.041.152-.3.145-.454.145,0,.29-.008.437-.009-.122.358-.409.627-.557.974a1.49,1.49,0,0,0-.666-.8,2.945,2.945,0,0,0,.128,1.162c-.174-.31-.7-.684-.958-.287a2.239,2.239,0,0,0,.523.469c-.183.153-.371.3-.562.443a.739.739,0,0,0-.447-.736c-.26.062-.147.389-.152.579-.15-.142-.3-.283-.444-.428-.024-.277-.052-.646-.342-.774-.237.1-.322.367-.444.572a2.176,2.176,0,0,0-.575-.653l-.193.134c-.235.28.066.58.231.8-.278.015-.556.029-.834.036a3.465,3.465,0,0,0,.254-.446l-.209-.189c-.385.038-.6.439-.845.695.013-.18.179-.422-.008-.566-.143-.122-.349-.012-.453.106a1.066,1.066,0,0,0-.038.844.518.518,0,0,0-.724-.3,1.171,1.171,0,0,0,.455.727c-.27.122-.539.247-.8.38A1.758,1.758,0,0,0,63,11.383c-.164.052-.358.083-.454.245-.132.255.045.513.125.752-.281-.13-.541-.406-.869-.359-.233.139.061.425.128.591-.132.256-.31.544-.155.833a1.317,1.317,0,0,0,.509-.5.886.886,0,0,0,.7.555,2.473,2.473,0,0,0-.058-.544,2.032,2.032,0,0,0,.849.421,2.339,2.339,0,0,0-.381-.619,7.543,7.543,0,0,0,.895-.144c-.086.209-.225.454-.01.636.231-.024.327-.262.459-.42.073.283.188.605.517.663a1.867,1.867,0,0,0-.011-.6c.211.029.423.062.637.09a1,1,0,0,0-.241.771,2.442,2.442,0,0,0,.765-.739,1.105,1.105,0,0,0,.515.718,2.239,2.239,0,0,0,0-.888,1.165,1.165,0,0,0,.323.353c.206.111.383-.067.556-.157a1.621,1.621,0,0,0-.447-.422,1.019,1.019,0,0,0,.4-.535c.161.223.342.523.654.517a.888.888,0,0,0,.284-.677c.082.224.212.5.5.5.268.051.374-.233.419-.441a1.537,1.537,0,0,0,.333.635,1.71,1.71,0,0,0,.5-.48.792.792,0,0,0,.189.574,1.607,1.607,0,0,1,.757-.666,2.581,2.581,0,0,0,.015.587c.359-.309.6-.781,1.1-.913.009.209.027.471.282.52.28-.161.175-.546.194-.814a.732.732,0,0,0,.826.527c-.013-.366-.318-.607-.55-.851.1.037.2.072.3.108.241-.391-.225-.687-.452-.948.222-.135.442-.277.656-.425a.832.832,0,0,0,.232.7c.2-.2.32-.474.556-.638a.836.836,0,0,0,.3.847,1.86,1.86,0,0,0,.268-.551.529.529,0,0,0,.628.477,1.039,1.039,0,0,0-.177-.467c.271-.086.542-.174.806-.284-.1.18-.15.382.036.531.327-.011.364-.451.441-.7.051.431.563.4.86.254l-.193-.187.269-.136a1.067,1.067,0,0,0-1.274-.75.678.678,0,0,0-.248-.81c-.355.077-.4.523-.543.8-.071-.218-.149-.507-.429-.52-.158.04-.388.083-.39.292a1.477,1.477,0,0,0,.5.539c-.314-.005-.625.019-.936.034.083-.176.34-.352.2-.567-.073-.3-.4-.054-.587-.026L74,8.484a1.219,1.219,0,0,0-.561,0c.038-.343-.425-.263-.63-.386.015.093.048.277.063.368a2.765,2.765,0,0,0-.835-.263c.154-.053.369-.024.467-.176-.034-.41-.569-.4-.872-.465.27-.028.545-.183.543-.492-.168-.343-.6-.113-.879-.054.315-.22.668-.652.315-1.007-.134.087-.263.175-.392.268-.071-.13-.121-.318-.294-.336-.562-.115-.945.563-1.514.376m10.778.327a5.732,5.732,0,0,0-.349,1.495c-.023.152.035.494.261.322A5.18,5.18,0,0,0,81.315,7.2a1.537,1.537,0,0,1-.588.1c.047-.349-.391-.408-.541-.663m-1.622.235a.774.774,0,0,1-.433.443c.372,0,.36.391.248.644.332.071.206.439.045.615.364.007.232.428.126.635-.206.406-.589.852-.354,1.329a3.139,3.139,0,0,0,.963-2.189,5.6,5.6,0,0,1,.174-1.533.978.978,0,0,1-.77.056m-18.679.685c-.277-.075-.676.144-.451.454a1.81,1.81,0,0,0,.421-.128c.082.119.13.318.309.319a.705.705,0,0,0,.381-.517c.046-.355-.6-.5-.661-.127M80.1,9.123a2.294,2.294,0,0,0-.881,1.188c-.057.172-.195.458.082.52.331-.147.254-.646.614-.767A14.781,14.781,0,0,0,81.48,9.4a2.4,2.4,0,0,1-.256-.372c.3-.163.646-.47.519-.847a5.094,5.094,0,0,0-1.641.938m13.153.3a1.032,1.032,0,0,0-.148.767c-.109-.281-.551-.391-.709-.1a1.155,1.155,0,0,0,.292.542c-.164-.074-.328-.238-.519-.172a.407.407,0,0,0-.284.416c.193.009.389.013.585.01a.6.6,0,0,0-.186.953,2.345,2.345,0,0,0,.3-.371l.062-.044a.862.862,0,0,0,.085.7c.271-.069.272-.433.368-.652a1.794,1.794,0,0,0,.3.8c-.29-.162-.894-.262-.9.211,0,.411-.606.137-.687.494s-.354.728-.081,1.068c-.285.014-.66-.045-.858.211-.236.232.14.281.3.241-.127.09-.251.185-.37.284a.978.978,0,0,1-.551-.31c.137-.144.376-.228.434-.43-.091-.275-.32-.12-.494-.035.164-.184.316-.379.471-.572a1.682,1.682,0,0,0,.481.11.681.681,0,0,0-.374-.477c.137-.069.5-.137.374-.354-.076-.286-.441-.133-.609-.046.041-.2.23-.413.135-.615-.212-.164-.441.049-.588.2-.023-.186.014-.453-.2-.539a.458.458,0,0,0-.515.294c-.1-.381-.648-.808-.912-.332q-.229-.181-.456-.364c.238,0,.738.059.684-.317-.124-.258-.4-.124-.6-.049a1.3,1.3,0,0,0,.145-.7.626.626,0,0,0-.656.308.959.959,0,0,0-.508-.365.535.535,0,0,0-.127.666,1.264,1.264,0,0,0-.827.108.858.858,0,0,0,.589.27c-.075.142-.281.29-.172.466a1.434,1.434,0,0,0,.588.088c-.134.132-.188.324-.015.452.195.1.354-.1.516-.18a1.6,1.6,0,0,1,.1.55c-.278.165-.593-.014-.879.054-.247.244.206.315.365.329-.184.081-.469.12-.457.38.057.324.417.251.64.164.088.177.144.526.419.456.217,0,.333-.2.46-.339.12.171.291.352.229.581-.095.181-.228.337-.334.511a.607.607,0,0,0,.8-.151.915.915,0,0,0,.028.711,1.141,1.141,0,0,0-.628.347c.223.384.7.186,1,.029-.126.146-.251.3-.369.447a.553.553,0,0,0,.786-.091,1.316,1.316,0,0,0,.539.431,1.452,1.452,0,0,0,.219-.613c.169.131.335.262.507.39-.217.085-.59.182-.512.494.016.3.351.116.512.054-.029.174-.035.378-.195.489a2.18,2.18,0,0,0-.679.393c.17.327.588.049.821-.058a2.167,2.167,0,0,0-.279.441c.007.195.261.213.381.32l-.23.163a1.289,1.289,0,0,0,.537.8c.224-.13.445-.325.373-.615.142.2.4.381.332.661-.177.1-.382.145-.563.241.184.433.669.257.959.059a2.1,2.1,0,0,0-.332.5.719.719,0,0,0,.863-.266c0,.221-.022.666.315.629.277-.132.324-.453.4-.716a5.528,5.528,0,0,0,1.282-.244c-.045-.13-.086-.259-.126-.389a1.4,1.4,0,0,1,.729-.039c-.04.216-.273.59.027.7.31.137.466-.246.487-.489.062.181.048.482.277.537.182-.05.344-.155.529-.2.163.125.311.345.548.307.122-.074.1-.247.172-.361a1.248,1.248,0,0,1,.6-.107,1.171,1.171,0,0,0,1.5.809.577.577,0,0,0,.113.49,1.5,1.5,0,0,0,.587-.455c.127.272.145.643.412.823.4,0,.377-.578.239-.835.17-.057.337-.115.506-.179a.838.838,0,0,0-.441-.277,2.048,2.048,0,0,0,.654-.37c.183-.3-.271-.39-.452-.493.156-.185.56-.355.43-.634-.231-.094-.634-.106-.6.245-.152-.161-.308-.318-.463-.475a5.177,5.177,0,0,0,.7-.044.649.649,0,0,0-.609-.307c.047-.216.184-.553-.082-.68-.288.064-.459.337-.651.54a2.705,2.705,0,0,0-1-.59.448.448,0,0,0-.5.2c-.1-.148-.216-.292-.325-.434.257.012.662.2.806-.112,0-.249-.3-.233-.466-.279a1.817,1.817,0,0,0,.746-.286,1.054,1.054,0,0,0-.751-.173.687.687,0,0,0-.39-.709l-.192.347c-.05-.4-.389-.594-.656-.84.13-.163.307-.346.2-.573-.078-.244-.376-.228-.561-.127a2.586,2.586,0,0,0,.032-.527.578.578,0,0,0-.664.17,3.621,3.621,0,0,0-.212-.3.429.429,0,0,0-.536.3c-.148-.025-.293-.051-.44-.074a.376.376,0,0,0,.046-.582,2.944,2.944,0,0,1,.122-.414c.015.206.135.471.379.456.209-.122.154-.418.191-.625.151.308.7.079.553-.226a2.73,2.73,0,0,0-.766-.418,2.072,2.072,0,0,0,1.039-.04c-.036-.343-.419-.225-.652-.226a3.375,3.375,0,0,0-.331-.216c-.209.189-.6.231-.6.581l-.382-.121a2.055,2.055,0,0,0,.263-.739c-.355.087-.57-.291-.806-.479.131-.1.268-.192.4-.3a1.766,1.766,0,0,0-.8-.411.729.729,0,0,0-.605-.508m-9.912.428a1.2,1.2,0,0,0-.1.808c.294-.088.8-.045.887-.407a1.5,1.5,0,0,0-.784-.4M80.1,12.068c-.149-.168-.407-.459-.61-.191-.16.294.247.506.406.712a.294.294,0,0,0-.459.132c0,.325.278.557.452.808a4.514,4.514,0,0,1-.79.11c.172-.181.5-.489.119-.651-.408.138-.552.6-.715.95a.613.613,0,0,0-.609-.5,1.447,1.447,0,0,0,.064.858A2.573,2.573,0,0,0,77.7,14.1c-.16.01-.385.17-.293.351a1.9,1.9,0,0,0,.637.506q-.266.069-.529.148a.586.586,0,0,0-.474-.457,2.766,2.766,0,0,0-.148.821,1.561,1.561,0,0,0-.532-.432.809.809,0,0,0-.159.566l-.072-.011c.174.259.041.55-.016.821.11.331.562.1.791.042-.054.18-.245.542.034.618a2.25,2.25,0,0,0,.8-.811.9.9,0,0,0,.268.477,2.505,2.505,0,0,0,.381-.869,1.151,1.151,0,0,0,.285.561c.451-.153.281-.668.2-1.01l.228-.074a2.092,2.092,0,0,0,.288-.683c.186.183.348.394.235.672a2.5,2.5,0,0,0,.643.107.946.946,0,0,0-.327.683c.341.1.576-.192.793-.4.169.225.3.64.646.593a1.757,1.757,0,0,0,.245-.913c.143.18.255.446.505.492.355-.226.035-.684-.173-.9a3.8,3.8,0,0,1,1.274.034.46.46,0,0,0-.316.705c.278.187.542-.151.757-.3.023.258-.077.629.211.773.369-.062.3-.527.314-.8q.291-.274.568-.564c.2.14.4.356.664.32.156-.054.335-.2.316-.381-.094-.235-.344-.331-.55-.442a.437.437,0,0,0,.341-.748,1.785,1.785,0,0,0-.544.193.823.823,0,0,0-.133-1.039,1.3,1.3,0,0,0-.312.374.9.9,0,0,0-.7-.388,1.622,1.622,0,0,0,.368.73c-.341.049-.681.091-1.022.132.135-.1.341-.152.384-.336.054-.143-.029-.4-.213-.38a1.7,1.7,0,0,0-.64.293.435.435,0,0,0-.03-.671c-.409.13-.532.579-.723.914a2.113,2.113,0,0,1-.8-.482c.245.032.676-.126.55-.44-.29-.268-.728-.075-1.073-.035a.484.484,0,0,0-.021-.818,1.217,1.217,0,0,0-.533.428m-17.77,3.969c-.188-.165-.488-.341-.707-.12-.225.185-.072.472.062.661-.09.12-.226.222-.245.381a.746.746,0,0,0,.771.283q-.229.243-.435.506a1.025,1.025,0,0,0-.518-.3c-.2.02-.268.2-.282.378a1.391,1.391,0,0,0-.452-.52c-.249,0-.332.274-.435.451-.051-.251-.079-.583-.363-.686-.253-.04-.346.266-.456.433-.217-.3-.4-.68-.767-.8a1.29,1.29,0,0,0,.195,1,1.367,1.367,0,0,0-.834-.278.564.564,0,0,0-.44.4c-.082.183.142.356.311.273-.024.156-.04.311-.049.469l.259.064a.884.884,0,0,1-.287.722c.058.114.131.223.2.335a3.318,3.318,0,0,1-.639-.365c.169-.083.47-.325.193-.48-.327-.029-.578.263-.8.465a.722.722,0,0,0-.226-.727,2.477,2.477,0,0,0-.22.775c-.075-.128-.147-.363-.339-.3-.172.113-.219.324-.3.5l-.237-.106q-.109.237-.206.48c-.143.036-.284.072-.425.109-.016-.209-.056-.583-.339-.56a2.847,2.847,0,0,0-.2.451c-.153-.025-.307-.048-.46-.07l.095-.3a1.148,1.148,0,0,0-.42-.378.851.851,0,0,0-.386.4c-.094-.07-.187-.139-.281-.207-.033.163-.061.327-.084.492-.078-.066-.135-.172-.244-.186-.182-.059-.228.17-.3.28-.075-.219-.2-.452-.466-.455a2.672,2.672,0,0,0,.1.662l-.318-.032c-.18.243.183.321.336.41-.165.12-.315.453-.016.514a3.822,3.822,0,0,0,.372-.33c-.04.219-.255.609.079.7.219-.047.207-.278.229-.447a2.244,2.244,0,0,0,.492.152c-.116.151-.352.3-.221.518.212.1.376-.151.545-.245,0,.176-.063.445.162.519.206-.078.214-.3.246-.488.1.109.216.334.4.223a.9.9,0,0,0-.147-.431l.167-.253c.089.061.182.118.277.172.212-.045.243-.271.291-.442a1.354,1.354,0,0,0,.374.617c.1-.1.194-.2.287-.3.011.189-.058.474.176.555.183.056.222-.2.322-.3.123.063.247.124.372.185-.106.112-.311.2-.277.385.078.159.3.1.441.151a1.268,1.268,0,0,0,.426.509c.263.136.265-.157.262-.333l.464,0-.071.2c.1.345.44.175.652.053q.149.2.316.392l.342-.144a1,1,0,0,0-.165-.539c.2-.1.4-.2.607-.3,0,.085,0,.255,0,.34.135.265.565.059.572-.2a1.389,1.389,0,0,0-.238-.574.652.652,0,0,0,.888-.434l-.472.124c.134-.224.331-.553.05-.757a3.545,3.545,0,0,0-.581.6q-.17-.268-.341-.532a.469.469,0,0,0,.518-.164.594.594,0,0,0-.447-.41c-.019-.147-.037-.293-.054-.44a.95.95,0,0,1,.917.391,2.364,2.364,0,0,0,0-.607.549.549,0,0,0,.7-.118,1.8,1.8,0,0,0-.5-.354c.316-.037.631-.071.948-.106a3.19,3.19,0,0,0-.192.75c.14.466.718.016.591-.336.1.217.159.486.383.607.162,0,.223-.187.332-.279a2.566,2.566,0,0,0-.251-.523c.273.137.656.433.936.174.175-.211-.106-.348-.284-.379a9.374,9.374,0,0,1,1.076.1c-.292.179-.646.642-.193.864a1.63,1.63,0,0,0,.41-.327.606.606,0,0,0,.243.542c.275-.167.254-.49.212-.769.186.138.382.4.642.32.184-.177-.047-.361-.13-.518a4.313,4.313,0,0,1,.988-.2,1.813,1.813,0,0,0-.34.379c.359.251.679-.088.877-.364.065.216.046.628.346.642a1.069,1.069,0,0,0,.253-.807,1.445,1.445,0,0,0,.625.509.55.55,0,0,0-.066-.795,5.443,5.443,0,0,0,.96-.015c-.071.146-.138.292-.2.44l.15.193-.3-.047c-.073.128-.14.259-.2.393-.2.111-.636.23-.45.55a2.719,2.719,0,0,0,.988-.521,2.151,2.151,0,0,0-.515.839c.078.324.695.241.623-.126a1.232,1.232,0,0,0,.539.533.487.487,0,0,0,.049-.656c.287.2.554.508.932.519.341-.207.04-.483-.194-.6a1.312,1.312,0,0,1,.7-.054c.332.1.221.549.464.753.53-.133.459-.76.317-1.16.162.122.325.389.56.291a5.065,5.065,0,0,0,.6-.451c-.066.3.258.5.517.512a2.73,2.73,0,0,0-.079-.615q.188-.088.376-.18a1.547,1.547,0,0,0,.023.57,2.34,2.34,0,0,0,.594-.465c-.137.256.051.49.257.629a3.651,3.651,0,0,0,.217-.427c.186.072.408.216.6.078.106-.069.274-.209.15-.344l-.315-.138c.087-.108.177-.216.266-.324.076.2.3.6.457.219-.063-.325-.366-.5-.607-.691.345-.042.358-.4.318-.671a.58.58,0,0,0-.41.23c-.189-.094-.377-.186-.565-.278a.9.9,0,0,0,.317-.648,2.04,2.04,0,0,0-.747.3,1.339,1.339,0,0,0,.051-.564,1.619,1.619,0,0,0-.557.345,1.958,1.958,0,0,0-.428-.377c-.073.306.147.554.279.806a3.842,3.842,0,0,0-.44-.37c-.232-.1-.365.2-.355.381.125.309.494.351.777.416q-.188.217-.367.441c-.065-.107-.074-.361-.26-.3-.206.057-.2.292-.22.46a1.038,1.038,0,0,0-.579.256c-.074-.169-.1-.394-.294-.468a.9.9,0,0,0-.725.478,1.743,1.743,0,0,0-.352-.965c-.111-.1-.3-.181-.429-.059a.718.718,0,0,0-.077.564c-.245-.017-.512-.1-.717.076l-.212-.226a1.755,1.755,0,0,0,.4-.943.667.667,0,0,0-.729.5c-.162-.22-.292-.493-.555-.607a.345.345,0,0,0-.29.447q-.454-.007-.907,0c.183-.186.573-.52.228-.742-.238-.177-.459.008-.528.248a1.2,1.2,0,0,0-.454-.658,2.139,2.139,0,0,0-.374.119c.032.059.1.174.127.233a3.234,3.234,0,0,0-1.486-.576.6.6,0,0,0,.316.669c-.388.026-.775.03-1.163.057.149-.213.41-.42.364-.709-.24-.329-.6.016-.705.274a1.114,1.114,0,0,0-.442-.709.842.842,0,0,0-.462.7m25.054-.449a6.173,6.173,0,0,0-.41,1.974c.581-.064.814-.736,1.314-.978a.334.334,0,0,0,.222-.428c-.416-.079-.911-.148-1.126-.568m-1.344.452c-.046.123-.076.261-.2.327-.206.127-.288.4-.557.429a.984.984,0,0,1,.587,1.131,7.534,7.534,0,0,1-.983,1.527c.5-.211,1.093-.428,1.289-.985a10.989,10.989,0,0,0,.3-2.542,1.731,1.731,0,0,1-.433.113m1.306,2.285a3.631,3.631,0,0,0-.6.956,4.494,4.494,0,0,1-1.484.932,1.918,1.918,0,0,0,.93-.029c.613-.2,1.074-.7,1.687-.9.046-.156-.052-.441.142-.5a3.4,3.4,0,0,0,.873.025c.038-.2-.016-.535.236-.6a1.552,1.552,0,0,0,.907-.236,1.706,1.706,0,0,1-.749-.109l.135-.379a2.44,2.44,0,0,1-.241-.407,3.919,3.919,0,0,0-1.841,1.245m1.46,2.132c-.158.2-.007.44.082.635-.258-.207-.668-.364-.928-.073-.2.13.023.307.094.437-.4-.064-.921-.294-1.27,0-.2.346.372.261.568.261-.323.393-.744.821-1.306.711-.036-.3.2-.688-.1-.9-.26.012-.317.349-.431.532-.223-.251-.555-.765-.931-.48-.228.219.056.452.195.622a3.577,3.577,0,0,0-.885-.1c-.15.01-.409.1-.331.3.009.319.382.278.6.236-.2.1-.39.207-.581.316l-.123-.183a.566.566,0,0,1-.727.041,6.317,6.317,0,0,0,.008-.773.919.919,0,0,0-.566.261c.2-.253.5-.636.177-.923a5.372,5.372,0,0,0-.324.443l-.409-.2c.112-.179.4-.432.1-.587-.26.008-.422.239-.584.413.019-.2.023-.408-.188-.506-.228.159-.2.472-.248.715-.074-.113-.138-.259-.292-.277-.188-.04-.292.172-.417.267a3.949,3.949,0,0,0,.319.344c-.262.015-.524.037-.783.072.193-.185.545-.548.144-.72a2.167,2.167,0,0,0-.621.712c-.03-.191-.123-.471-.371-.4-.161.209-.073.493-.075.734a1.637,1.637,0,0,0-.5-.063c.015.278.318.37.519.492a3.05,3.05,0,0,0-.446.449.724.724,0,0,0-.27-.467c-.17.191-.139.466-.23.693-.169-.207-.323-.535-.639-.507a.875.875,0,0,0-.335.3,2.38,2.38,0,0,0-.457-.393c-.327-.13-.5.255-.676.457a1.3,1.3,0,0,1,.066-1.053c-.612-.136-1.158.716-.674,1.175a2.559,2.559,0,0,0-.982-.4c-.175-.057-.3.065-.4.188a3.69,3.69,0,0,0,.39.358,2.041,2.041,0,0,0-.852.545,1.086,1.086,0,0,0,.981-.013c-.026.191-.233.437-.014.585a2.362,2.362,0,0,0,.825-.25c-.059.161-.206.332-.132.512.38.168.773-.142,1.126-.271.168.081.339.16.511.235-.093.139-.333.279-.221.471.24.25.461-.1.57-.3a2.011,2.011,0,0,0,.4.573c.286-.065.312-.368.233-.6a1.585,1.585,0,0,0,.4.336c.226-.171.446-.351.655-.543-.083.219-.242.477-.008.664.083-.1.17-.2.253-.306a.941.941,0,0,0,.1.516c.254.1.347-.189.3-.388a.99.99,0,0,1,.622.593c-.157.058-.358.074-.446.239a.29.29,0,0,0,.223.282,1,1,0,0,0-.366.517.51.51,0,0,0,.614-.224,2.026,2.026,0,0,0-.137.687.473.473,0,0,0,.484-.262,1.656,1.656,0,0,0,.415.353,1.89,1.89,0,0,0,.039-.429c.174,0,.348.007.525.005-.146.172-.443.33-.308.592.212.095.345-.127.491-.241a.9.9,0,0,0-.1.494c.232-.041.33-.242.408-.439.119.072.224.187.374.189.187-.222-.049-.455-.2-.607.074-.136.151-.27.226-.4l.339.212a1.766,1.766,0,0,0-.03-.849q.158.163.327.32c.12-.274.187-.651.516-.753A1.191,1.191,0,0,1,84,25.588c-.056.251-.48.309-.4.65a.364.364,0,0,0-.521.311c-.053.2.212.22.341.272a1.284,1.284,0,0,0-.707.25,1.13,1.13,0,0,0,.309.487c.079-.049.16-.1.243-.146-.033.184-.072.437.183.466.194-.065.244-.282.329-.443.115.127.23.255.347.381a1.5,1.5,0,0,0-.537.376c.231.3.593.194.86.014l-.2.267.05.134a1.039,1.039,0,0,0,.789-.261,1.274,1.274,0,0,0,.17.678.746.746,0,0,0,.367-.7l.428.1c-.1.308-.21.689.067.946a1.17,1.17,0,0,0,.155-.456,2.049,2.049,0,0,0,.364.987.73.73,0,0,0,.163-.621c.119.1.282.164.365.3.07.169.028.365.118.526a.3.3,0,0,0,.351-.179,4.386,4.386,0,0,0-.149-.588c.154.208.263.527.553.567.282-.034.312-.352.207-.563l.365-.216a.813.813,0,0,0,.274.419.8.8,0,0,0,.342-.716c.161.1.324.194.489.288-.1.175-.4.425-.212.627.316.195.467-.254.525-.484a1.584,1.584,0,0,0,.393.339.371.371,0,0,0,.027-.621c.26.005.716-.02.7-.384-.1-.242-.392-.235-.61-.269a2.46,2.46,0,0,1,.808-.324c.088.086.118.312.287.256.316-.005.4-.331.335-.591a1,1,0,0,0,.6.351.582.582,0,0,0-.146-.512c.3.07.606.112.913.152-.085.1-.244.212-.158.367.112.091.261.2.416.132a1.463,1.463,0,0,0,.352-.545c.005.256-.06.556.164.746a.7.7,0,0,0,.366-.632,1.457,1.457,0,0,0,.757.348c.214-.23-.077-.437-.255-.555.348-.051.788-.071.981.293a.532.532,0,0,0-.167-.728c.2-.151.43-.3.681-.168a1.076,1.076,0,0,0-.268-.444q-.25.008-.493.029a1.623,1.623,0,0,0,.646-.557.674.674,0,0,0-.774.014,2.711,2.711,0,0,1,.843-.865,1.087,1.087,0,0,0-1.008.111,1.066,1.066,0,0,0,.124-.738.519.519,0,0,0-.673-.219c-.125.193.07.386.132.564A2.874,2.874,0,0,0,94.025,24c-.18-.034-.293.125-.394.239l.169.21c-.149.182-.3.365-.445.548.009-.371-.134-.836-.551-.918-.263.014-.139.334-.148.5-.175-.246-.366-.479-.553-.714.246-.316.641-.293,1-.3.291-.1.162-.414-.052-.512.268-.037.721.113.843-.2-.2-.406-.721-.33-1.083-.263.3-.172.709-.261.844-.614a.509.509,0,0,0-.886-.16,1.85,1.85,0,0,0-.492-.617c-.1-.074-.294-.136-.364.012a1.662,1.662,0,0,0,.047.629c-.357-.245-.839-.65-1.277-.37-.152.158.1.291.183.409-.384.06-.767.119-1.148.2.279-.307.6-.858.187-1.192a2.123,2.123,0,0,0-.438.65,2.628,2.628,0,0,0-.2-1.114c-.1-.207-.355-.095-.463.037M104.4,21.5a2.328,2.328,0,0,0,.575.513.633.633,0,0,1-.853,0c-.27.056-.662.409-.343.655.309.328.754.05,1.131.094a.435.435,0,0,0,.513-.246c.1-.262-.083-.505-.173-.739.237-.076.57-.223.5-.532l-.168-.069a2.913,2.913,0,0,0-1.179.323m-2.965,2.566a1.079,1.079,0,0,0-1.021.089,2.083,2.083,0,0,0-.863-.357.687.687,0,0,0,.216.561c-.246-.069-.57-.169-.721.113-.069.221.165.266.311.348a5.649,5.649,0,0,1-.677.158c-.094-.221.054-.727-.278-.712a.443.443,0,0,0-.148.613,2.52,2.52,0,0,0-.5.1,2.473,2.473,0,0,0,.169.489c-.2.091-.432.134-.564.321a.593.593,0,0,0,.588.536c-.164.251-.467.475-.468.789.182.138.331-.108.475-.187a1.382,1.382,0,0,0,.1.816c.3.226.639-.078.9-.236.286.167.3.476.31.771.38.192.762-.124,1.156-.081.038.2-.049.489.18.59a.7.7,0,0,0,.879-.386l.36.047a1.276,1.276,0,0,0,.455.667c.1-.091.263-.147.308-.292a1.012,1.012,0,0,0-.2-.5.548.548,0,0,1,.593.159.548.548,0,0,0,.646.035c-.05-.118-.1-.233-.151-.348a.391.391,0,0,1,.61-.056c.108.249-.18.428-.283.623a.343.343,0,0,0,.648.038c.1.113.142.385.346.336a.457.457,0,0,0,.133-.7c.239.107.668.308.823-.029.032-.213-.224-.174-.351-.232.244-.251.581-.565.953-.335a.585.585,0,0,0-.11-.68,5.721,5.721,0,0,0,.747.1c-.16.167-.026.324.078.475a1.883,1.883,0,0,0,.5-.386,3.865,3.865,0,0,0-.241.761l.2.184c.306.012.431-.319.548-.546a.867.867,0,0,0,.291.566c.187-.173.366-.4.255-.672a1.765,1.765,0,0,0,.517.138,2.017,2.017,0,0,0,.619-.435l-.259-.23c.342-.182.721.2,1.029-.044.071-.211-.158-.314-.3-.4.179-.042.54,0,.435-.291-.19-.317-.6-.249-.9-.177a4.4,4.4,0,0,0-.171-.441,3.724,3.724,0,0,0-.733.158c-.029-.266-.02-.685-.377-.71-.222.044-.161.257-.157.422-.327-.039-.505-.4-.81-.509-.255,0-.3.234-.16.409-.262-.047-.519-.1-.776-.164a1.824,1.824,0,0,0,.377-.711c-.316-.052-.752-.02-.8.383a2.863,2.863,0,0,0-.643-1,.582.582,0,0,0-.281.359c-.2-.124-.543-.374-.723-.1-.158.184-.012.381.062.564a1.482,1.482,0,0,1-.754-.1,2.057,2.057,0,0,0,.431-.7c-.217-.384-.632.065-.7.345-.036-.288-.01-.631-.251-.838a1.006,1.006,0,0,0-.3.565,1.568,1.568,0,0,0-.665-.274c-.106.128-.207.258-.3.393a1.189,1.189,0,0,0-.41-.765c-.2.137-.406.381-.191.612M43.339,25.793c-.072.114-.232.467.048.422.346-.03.8.3,1.051-.078a1.437,1.437,0,0,0,.273.744.759.759,0,0,0,.3-1.077,1.381,1.381,0,0,0,1-.219c-.285-.425-.852-.268-1.26-.158-.062-.263-.247-.652-.585-.5a2.183,2.183,0,0,0-.826.861m25.708-.378a1.053,1.053,0,0,0-.389-.3c-.332.357,0,.763.3.992-.267-.04-.632-.25-.848,0-.081.345.26.531.539.606a.912.912,0,0,0-.872.244c-.192.26.209.265.367.283a4.758,4.758,0,0,0-.788.319c.016-.133.034-.265.051-.4-.214.1-.586.045-.635.342-.176-.008-.352-.013-.527-.015l-.116.214c-.176-.056-.358-.2-.545-.114-.081.257.232.336.408.392-.179.152-.5.4-.3.656.137.219.4.056.535-.082a.791.791,0,0,0,.542.41c.168.154.31.467.583.381.078-.214-.134-.37-.236-.528l.523,0a2.086,2.086,0,0,0-.039.435c.019.112.142.324.258.163a.8.8,0,0,0,.172-.576.756.756,0,0,0,.509.109c.18-.077.219-.29.3-.446a3.713,3.713,0,0,0,.483.275,1.563,1.563,0,0,0,.2-.537l.365.038a.389.389,0,0,0,.172.5,1.368,1.368,0,0,0,.356-.726c.216.09.454.278.693.151.173-.078.179-.292.232-.45.415-.042.554.366.831.58a1.179,1.179,0,0,0,0-.5c.188.14.42.273.636.1a.65.65,0,0,0,.861,0c.248.093.37.327.518.527a4.192,4.192,0,0,0,.406-.342,3.067,3.067,0,0,0,.513.612.39.39,0,0,0,.318-.34l-.254-.271a.974.974,0,0,1,.7.193c.3.218-.164.762.273.863.475-.027.558-.6.588-.971.1.219.2.57.508.517.3-.078.31-.432.159-.653a1.467,1.467,0,0,0,.818.157c.233-.118.18-.469.007-.616-.213-.17-.5-.073-.746-.078-.016-.163.087-.373-.069-.494a.773.773,0,0,0-.876.155c.1-.381.25-.889-.074-1.2-.3-.25-.468.21-.549.433a3.6,3.6,0,0,0-.488-.247c-.15.019-.231.152-.322.254-.072-.175-.265-.435-.467-.246a1.975,1.975,0,0,0,.37.718c-.144.069-.287.135-.433.195-.013-.084-.037-.251-.05-.335a4.508,4.508,0,0,0-1.117-.222c.207-.208.556-.471.383-.8-.3-.1-.616.164-.922.208a6.207,6.207,0,0,0,.161-.641,1.625,1.625,0,0,0-.922.213c-.137-.115-.266-.238-.4-.359-.161.189-.366,0-.56.005-.173.023-.232.2-.318.328-.507.1-.833-.4-1.311-.451-.243-.057-.388.177-.477.364M51.7,27.5a1.313,1.313,0,0,0-.812-.321,1.976,1.976,0,0,0,.475.772c-.208-.158-.634-.265-.627.125a1.667,1.667,0,0,0,.71.468c-.2.059-.4.119-.6.185.042-.239-.165-.409-.353-.508-.308-.022-.519.224-.723.413-.126-.136-.482-.346-.542-.041a2.222,2.222,0,0,0,.279.574,1.065,1.065,0,0,0-.77-.195c.091.275.373.4.586.563-.248.048-.5.1-.741.157.287-.318-.16-.635-.468-.619-.186.27,0,.594.064.876a2.263,2.263,0,0,1-.619-.03,2.862,2.862,0,0,0-.585.251c-.086-.152-.072-.432-.3-.449a.766.766,0,0,0-.711.481c-.073-.4-.137-.985-.61-1.1-.33,0-.265.406-.279.624-.3-.07-.737-.1-.732.327a.439.439,0,0,0-.551-.123,1.794,1.794,0,0,0,.639.609c-.1.1-.191.207-.286.31-.176-.32-.555-.2-.851-.21-.14.126-.146.371-.348.43-.172.085-.524.244-.281.463a2.318,2.318,0,0,0,.958-.5,2.578,2.578,0,0,0-.542.888.432.432,0,0,0,.628.02,2.568,2.568,0,0,0-.041-.3,1.543,1.543,0,0,0,.6.643.624.624,0,0,0,.116-.634,1.9,1.9,0,0,0,.86.529l.2-.315a1.485,1.485,0,0,0-.4-.287.909.909,0,0,1,.886.016c.112.2.077.635.389.613.46-.194.319-.784.2-1.152.179.192.393.429.685.31q.062-.178.127-.356l.4.057q.222-.139.457-.258a3.094,3.094,0,0,1,.108.465.9.9,0,0,0,.492-.152l-.122.246c.34.163.651-.1.948-.229.27.046.415.3.543.517-.062.13-.192.27-.1.421a.627.627,0,0,0,.653.035c.226.164.292.456.5.635a2.023,2.023,0,0,0,.483-.365c-.116.259-.17.7.195.777.333.033.38-.411.46-.643.31.025.486.3.666.513-.113.095-.431.161-.306.372.229.272.63.113.924.054a.874.874,0,0,0-.021,1.078,1.221,1.221,0,0,0,.6-.5c.039.339.233.855.668.744a2.193,2.193,0,0,0-.037-.631c.143.236.258.528.528.646a.432.432,0,0,0,.434-.163c-.133-.192-.447-.381-.3-.648a1.243,1.243,0,0,1,.734-.237l-.235.194c.022.211-.007.5.229.606a1.83,1.83,0,0,0,1.042-.484c-.126.249-.219.661.16.725.374.079.315-.458.284-.7.158.275.328.678.707.659.091-.348-.218-.6-.337-.893a.722.722,0,0,1,.16-.585c.088.153.24.532.465.331.33-.217.077-.609-.091-.841l.738-.047c-.1.208-.3.455-.176.695.207.2.516.017.757-.023a.69.69,0,0,0,.53.651c.249-.136.083-.464.076-.683a1.963,1.963,0,0,0,.489.591c.145.126.438.108.487-.108a1.342,1.342,0,0,0-.343-.579,2,2,0,0,0,.512-.714.784.784,0,0,0,.529.741c.185-.212.1-.5.119-.748.078-.258.374-.32.6-.4a1.011,1.011,0,0,0,.3.721.912.912,0,0,0,.615-.28c.139.165.273.433.535.39.1-.078.266-.157.261-.31-.011-.2-.2-.317-.319-.454.2.049.553.3.647,0-.072-.359-.66-.267-.728-.642-.081-.258.217-.394.385-.516.085.176.119.413.315.507a.349.349,0,0,0,.358-.431,1.5,1.5,0,0,0,.61.292c.2-.119.123-.4.145-.594.21.162.49.315.733.111a2.091,2.091,0,0,0-.7-.585c.242-.142.456-.458.262-.724-.213-.144-.464-.032-.687.013a.539.539,0,0,0-.388-.69,1.63,1.63,0,0,0-.352.679c-.12-.175-.344-.5-.576-.283-.282.3.2.538.385.725-.217.016-.433.03-.648.063.013-.151.054-.341-.114-.422-.291-.21-.642-.046-.916.107a.586.586,0,0,0-.3-.616c-.262-.046-.4.23-.55.4a.7.7,0,0,0-.415-.634,1.462,1.462,0,0,0-.285.728,1.716,1.716,0,0,0-.29-.365c-.127-.149-.31.013-.446.052a.958.958,0,0,0,.253.533.72.72,0,0,0-.685.23,2.354,2.354,0,0,0,.518.193c.009.267.026.532.041.8-.077-.111-.125-.356-.308-.287-.388.071-.052.535-.072.778a2.606,2.606,0,0,1-.669-.075q-.083-.269-.169-.537l.173.137c.15.21.342-.106.265-.255a1.42,1.42,0,0,0-.724-.691l.33-.145a1.17,1.17,0,0,0-.659-.391c-.293-.066-.459-.331-.64-.544.262.185.735.079.748-.274a2.363,2.363,0,0,0-1.092-.577c.165-.057.328-.122.488-.193-.066-.171-.161-.388-.38-.383a.9.9,0,0,0-.516.512c-.015-.2.09-.573-.228-.544-.219.125-.2.4-.212.623-.125-.138-.3-.43-.506-.246a.431.431,0,0,0-.116.533c-.148-.077-.3-.147-.442-.231,0-.256-.037-.605-.349-.656-.1.041-.3.124-.394.164a.732.732,0,0,0-.4-.621.805.805,0,0,0-.414.508c-.127-.125-.243-.308-.446-.291s-.317.206-.391.372c-.071-.174-.09-.4-.279-.5-.364-.236-.79.024-1.058.284.051-.1.1-.207.15-.309-.229-.434-.72-.063-.906.216M75.12,29.8a2.732,2.732,0,0,0,.15.434.689.689,0,0,0-.917-.088c-.176.172.025.319.131.457-.419-.065-.941-.3-1.315,0-.149.335.381.256.567.267a1.333,1.333,0,0,1-1.3.689c-.028-.287.189-.679-.084-.888-.256.01-.323.346-.438.528-.228-.228-.483-.679-.861-.526-.306.174-.056.5.119.67-.388-.038-.926-.269-1.217.09-.064.384.356.439.627.325a5.869,5.869,0,0,1-.449.865c-.189-.179-.32-.481-.612-.5-.189.017-.3.171-.392.316A1.078,1.078,0,0,0,68.543,32c-.275.02-.389.307-.535.5a1.391,1.391,0,0,1,.044-1.073c-.612-.107-1.174.772-.63,1.19a3.169,3.169,0,0,0-1.05-.413c-.16-.047-.266.091-.364.185.12.127.243.253.366.379a2.933,2.933,0,0,0-.771.449c.087.394.661.137.932.076a1.208,1.208,0,0,0-.107.569,1.812,1.812,0,0,0,.914-.249c-.049.176-.258.381-.106.558a1.633,1.633,0,0,0,1.048-.306c.18.072.357.148.538.22-.066.15-.36.351-.163.5.222.222.407-.161.543-.3.11.2.2.45.435.525.3-.032.232-.393.212-.6a1.989,1.989,0,0,1,.6.588,2.7,2.7,0,0,0-.661.466c.247.159.5.312.749.469a4.24,4.24,0,0,1-1.117.317c-.123.027-.345.112-.267.28a1.546,1.546,0,0,0,.267.374l.265-.152c-.061.164-.078.44.16.46.222-.016.255-.292.34-.452.111.137.226.272.342.407a1.664,1.664,0,0,0-.538.348.566.566,0,0,0,.787.1.687.687,0,0,0-.115.344,1.048,1.048,0,0,0,.847-.3c.03.213-.064.567.172.668a.627.627,0,0,0,.339-.656c.142.03.283.063.427.1-.081.317-.21.733.119.95a3.475,3.475,0,0,0,.1-.455,2.9,2.9,0,0,0,.346.986.622.622,0,0,0,.181-.627,1.432,1.432,0,0,1,.36.3c.1.156.038.364.137.523.169.084.275-.089.376-.189-.067-.193-.136-.383-.194-.577.177.208.3.614.641.562.24-.091.2-.349.13-.543.124-.077.25-.155.377-.231a.747.747,0,0,0,.259.439.888.888,0,0,0,.361-.722q.237.147.478.292a1.473,1.473,0,0,0-.312.565c.126.044.3.187.415.04a1.332,1.332,0,0,0,.2-.453c.143.112.333.419.527.209.169-.151-.012-.364-.1-.507.247,0,.583.005.7-.265.044-.333-.353-.352-.581-.394.279-.138.759-.511.954-.079.363.121.579-.306.437-.6.17.138.346.439.6.333.152-.167-.071-.328-.143-.468a8.368,8.368,0,0,0,.93.157.689.689,0,0,0-.2.3,1.447,1.447,0,0,0,.335.263,1.009,1.009,0,0,0,.47-.617,2.158,2.158,0,0,0,.066.727.515.515,0,0,0,.447-.619,2.011,2.011,0,0,0,.783.392c.185-.266-.065-.443-.256-.6a3.688,3.688,0,0,1,.666.032c.14.048.213.216.37.232a.623.623,0,0,0-.228-.691c.2-.132.431-.3.681-.158a.525.525,0,0,0-.745-.416c.234-.156.535-.3.6-.6a.716.716,0,0,0-.713.05,2.5,2.5,0,0,1,.806-.864,1.054,1.054,0,0,0-.992.12c.078-.257.242-.576.064-.826-.173-.175-.512-.294-.685-.058a4.751,4.751,0,0,0,.171.475,2.23,2.23,0,0,0-.963-.8c-.171-.057-.261.143-.373.228l.168.226a3.851,3.851,0,0,0-.4.529c-.082-.27-.1-.594-.336-.783-.13-.1-.38-.217-.43.03.007.086.021.258.027.345q-.273-.358-.556-.705a.772.772,0,0,1,.59-.3c.17-.016.4.074.525-.094.157-.167-.04-.328-.157-.434.255-.037.71.128.825-.191-.193-.406-.728-.337-1.092-.267.3-.16.667-.255.849-.562a.479.479,0,0,0-.861-.214c-.209-.268-.41-.71-.806-.686-.184.2-.054.479-.02.71-.367-.24-.836-.641-1.286-.377-.135.167.1.294.185.419-.381.064-.762.123-1.141.195.279-.306.593-.869.177-1.194a2.79,2.79,0,0,0-.454.652,1.926,1.926,0,0,0-.233-1.179c-.208-.156-.464.094-.493.3m24.027.918a.955.955,0,0,0-1.028.237c-.128.14-.44.444-.1.527-.033.088-.063.176-.094.266.3.111.7.157.832-.206a3.364,3.364,0,0,0,.149.58,4.281,4.281,0,0,0-.444.261c-.2-.268-.661-.648-.914-.225.034.069.1.206.136.275a1.042,1.042,0,0,0-.948-.293c-.249.072-.316.343-.378.562A.558.558,0,0,0,96,32.315c-.213-.029-.357.159-.467.311-.088-.2-.16-.469-.416-.5a.617.617,0,0,0-.4.581l-.267-.119c-.337-.115-.542.332-.442.605-.157.082-.315.161-.469.245a.435.435,0,0,0-.184-.578c-.212-.073-.316.177-.439.3-.012-.21.011-.621-.288-.611-.26.017-.119.349-.137.515a1.2,1.2,0,0,0-.431-.462c-.2-.11-.384.087-.464.253.059.2.307.216.474.283a2.246,2.246,0,0,0-1.091.585c0,.348.458.417.724.3a1.258,1.258,0,0,1-.625.514,1.04,1.04,0,0,0-.646.4l.3.137c-.3.207-.795.476-.679.908.121.232.285-.022.412-.1q-.08.268-.159.536a2.353,2.353,0,0,1-.674.082c-.019-.266.314-.693-.075-.806a.371.371,0,0,0-.292.334c0-.274.017-.548.033-.821a1.336,1.336,0,0,0,.508-.221c-.2-.14-.432-.309-.681-.18a1.193,1.193,0,0,0,.257-.531c-.292-.327-.612.007-.736.3a1.447,1.447,0,0,0-.276-.736.693.693,0,0,0-.427.626c-.119-.163-.232-.356-.443-.4a.5.5,0,0,0-.383.641.849.849,0,0,0-.935-.128c-.165.072-.114.273-.132.415-.211-.02-.421-.039-.631-.053a1.393,1.393,0,0,0,.519-.578,1.225,1.225,0,0,0-.283-.237c-.207.034-.3.233-.423.378-.1-.23-.135-.512-.343-.672a.493.493,0,0,0-.378.688c-.226-.056-.5-.167-.711-.019a.521.521,0,0,0,.271.716,2.106,2.106,0,0,0-.7.582c.233.214.521.046.736-.1.008.195-.073.538.191.592a2.47,2.47,0,0,0,.55-.293.362.362,0,0,0,.273.423c.272.028.3-.315.4-.491.179.121.468.246.4.516-.1.361-.649.27-.738.628.1.3.39.082.582.021a5.16,5.16,0,0,0-.285.435c.091.094.133.279.285.3.254.072.408-.2.539-.366.183.1.368.341.6.238.268-.119.29-.445.32-.7.214.1.517.148.594.41.013.249-.056.525.113.74.282-.142.579-.37.537-.723a1.619,1.619,0,0,0,.524.679,1.447,1.447,0,0,0-.364.621.324.324,0,0,0,.484.1,2.393,2.393,0,0,0,.53-.646c-.04.224-.2.565.033.72a.653.653,0,0,0,.539-.655c.243.05.53.226.763.056.114-.254-.077-.5-.171-.727.243.028.489.044.735.062-.186.231-.421.634-.084.846.221.181.371-.206.46-.347a.709.709,0,0,1,.115.659c-.143.271-.377.527-.307.859a.738.738,0,0,0,.459-.271c.115-.119.144-.349.323-.389-.238.2-.063.873.31.634.268-.115.165-.432.107-.643a1.525,1.525,0,0,0,1.108.407c.12-.26.2-.606-.095-.778.259.054.626.047.75.333,0,.253-.262.4-.336.63.108.045.219.084.334.119.333-.066.458-.411.615-.669a1.015,1.015,0,0,0,.036.688.815.815,0,0,0,.6-.81c.171.179.363.562.659.417.274-.27.074-.689-.054-.98.285.054.652.2.9-.041.148-.224-.165-.3-.292-.384.169-.224.348-.5.662-.511.074.241.133.662.467.639.347-.116.306-.524.189-.794a2.346,2.346,0,0,0,.47.376c.216-.151.272-.429.457-.605.238.01.5.112.711-.058.083-.16-.061-.322-.094-.477.154-.183.28-.477.565-.454.286.133.579.354.913.237l-.1-.269a.884.884,0,0,0,.484.157,1.87,1.87,0,0,1,.07-.411c.181-.052.32.1.456.193a1.8,1.8,0,0,0,.676-.156l-.221-.244c.039-.131.079-.262.111-.4-.073-.179-.3-.03-.408-.138a1.032,1.032,0,0,0-.556-.222,3.96,3.96,0,0,0,.159-.71c-.127-.027-.255-.052-.38-.076a1.106,1.106,0,0,0-.323.376l.18.2c-.267-.051-.531-.106-.8-.157a3.263,3.263,0,0,0,.615-.505c-.27-.187-.553.007-.794.137a1.171,1.171,0,0,0,.265-.714.643.643,0,0,0-.535.177,1.034,1.034,0,0,0-.688-.411c-.207.083-.433.271-.361.519-.2-.071-.41-.134-.616-.193.245-.128.552-.208.7-.459.049-.4-.42-.29-.613-.127a2.608,2.608,0,0,0,.521-.876c-.052-.088-.1-.174-.151-.26.274.122.554.234.834.345-.065.146-.332.345-.1.478.291.058.449-.218.568-.431a.9.9,0,0,0,.249.544.854.854,0,0,0,.309-.806c.261.125.317.454.509.654a.747.747,0,0,0,.283-.69q.315.256.647.5c-.272.213-.722.491-.526.9l.27-.06a2.882,2.882,0,0,0-.558.615c-.034.23.25.192.394.269.136-.194.314-.352.463-.535-.039.246-.156.777.214.784.176-.1.2-.31.262-.483a2.539,2.539,0,0,1,.946,1,.915.915,0,0,0,.1-.593,1.462,1.462,0,0,1,.673.678c.26-.028.261-.379.242-.58.134.2.253.519.524.529a1.226,1.226,0,0,0,.352-.563c.037.179.049.441.281.47.323.095.544-.209.622-.481.026.267.014.686.355.744a1.35,1.35,0,0,0,.58-.494.816.816,0,0,0,.4.568,1.09,1.09,0,0,0-.5.4c.126.067.237.206.4.2.217.028.34-.182.47-.315a2.663,2.663,0,0,0-.065.84c.314-.063.443-.374.563-.634.251.25.407.6.744.759a1.315,1.315,0,0,0-.185-.787c.209-.009.42-.026.631-.042a4.336,4.336,0,0,0-.091.569c.364.047.527-.335.594-.625.126.163.211.562.482.438.152-.173.044-.392-.021-.575.294.067.588.135.885.2a1.556,1.556,0,0,0-.4.591,2.15,2.15,0,0,0,.864-.38c-.053.177-.262.61.095.551a1.378,1.378,0,0,0,.531-.472c.142.156.351.643.568.34a1.4,1.4,0,0,0-.189-.666c.085-.172.4-.428.155-.588-.317-.071-.59.2-.875.3a1.325,1.325,0,0,0,.207-.57.4.4,0,0,0-.462-.4c-.116.116-.071.3-.1.444-.258-.152-.518-.3-.783-.438a1.5,1.5,0,0,0,.52-.674.492.492,0,0,0-.745.222c.09-.318.2-.9-.231-1-.37-.1-.314.367-.251.585a2.1,2.1,0,0,0-.721-.761c-.4.007-.233.457-.083.648-.274-.038-.549-.07-.823-.1.226-.222.546-.613.206-.887-.348-.036-.526.34-.708.572-.127-.212-.206-.681-.529-.573a1.078,1.078,0,0,0-.26.7c-.168.134-.335.268-.5.407.005-.193.16-.516-.116-.6a.771.771,0,0,0-.491.711c-.174-.168-.352-.33-.53-.491.221-.143.481-.269.581-.533a.755.755,0,0,0-1,.336A3.031,3.031,0,0,0,106.1,31.6a1.345,1.345,0,0,0-.721.777,2.2,2.2,0,0,0-.641-1c-.276-.179-.575.124-.564.4-.2-.343-.384-.767-.783-.921-.327-.041-.512.272-.613.53a1.312,1.312,0,0,0-.481-.707,2.83,2.83,0,0,0-.524.558c-.064-.352-.329-.812-.758-.636-.186.2.076.423.173.594-.32-.049-.642-.082-.965-.1a1.766,1.766,0,0,0,.515-.446c.113-.193-.148-.347-.309-.36-.319-.069-.425.3-.507.527a2.189,2.189,0,0,0-.354-.9c-.4.027-.491.479-.427.8M61.785,35.333c-.193.3-.535.032-.75-.091a15.893,15.893,0,0,0,1.482,2.016,1.019,1.019,0,0,0,.815.384,1.217,1.217,0,0,0,.581-.531,6.961,6.961,0,0,0,.924-1.806,2.311,2.311,0,0,1-.849.132c-.169-.29-.427-.627-.811-.546.02.218.1.481-.077.658-.133.074-.314.159-.457.062-.17-.18-.121-.446-.111-.669a1.3,1.3,0,0,0-.747.393m4.437,2.18a6.749,6.749,0,0,0-.392,1.425,4.043,4.043,0,0,0,.725,3.106c.128.2.324.418.589.366a6.2,6.2,0,0,0,1.156-.747,5.36,5.36,0,0,0,1.982-1.753c-.244.116-.463.42-.751.349-.138-.208-.008-.458.046-.671a1.593,1.593,0,0,1-.7.2.574.574,0,0,1-.266-.723c-.288.183-.537.419-.826.6-.307-.012-.326-.4-.3-.625.009-.286.292-.413.5-.545-.285-.059-.813-.022-.836-.408a4.742,4.742,0,0,1,.52-.76,1.079,1.079,0,0,1-.981-.441,3.656,3.656,0,0,0-.469.626m-7.283.871c-.219.126-.419.417-.7.324l.022-.422a1.344,1.344,0,0,1-.962.388c.251.469.822.588,1.143.988.565.649.9,1.516,1.661,1.977a9.433,9.433,0,0,1,1.5,1.312c.194.14.39.418.651.364a3.4,3.4,0,0,0-.008-1.765,4.58,4.58,0,0,0-1.131-1.467c-.578-.7-.755-1.747-1.636-2.162a.4.4,0,0,1-.539.464m43.615-.438c-.118.11-.237.218-.357.323a1.991,1.991,0,0,0-.92-.277,3.155,3.155,0,0,0,.115.65c-.286-.088-.553-.232-.843-.307-.356.283.1.626.23.9a3.208,3.208,0,0,0-1.134.137,2.76,2.76,0,0,0,.542.679,1.38,1.38,0,0,0-.654.371.3.3,0,0,0,.244.466,1.65,1.65,0,0,0,.7-.344.569.569,0,0,0,.841.1.411.411,0,0,0,.636-.151,2.97,2.97,0,0,0-.035.59,2.149,2.149,0,0,0,.5-.484l.36-.052c.052.148.047.34.182.445.228.2.5,0,.74-.076.073.236.06.616.351.7.207-.057.172-.284.176-.447l.359-.009c.046.172.011.438.208.529a1.518,1.518,0,0,0,.445-.234c.073.183.114.422.332.492a.6.6,0,0,0,.449-.113c.005.239,0,.6.284.68a.752.752,0,0,0,.128-.652c.17.009.342.02.515.033-.11.156-.419.345-.2.545.233-.025.373-.237.537-.383a.732.732,0,0,0,.557-.371c.146.091.316.314.493.146.287-.213-.034-.517-.171-.717.2-.048.409-.14.41-.389a2.6,2.6,0,0,0-.56.073c-.13-.247-.414-.234-.646-.17.036-.337-.42-.288-.624-.428.011.1.034.3.046.4-.267-.138-.539-.262-.814-.378a.763.763,0,0,0,.457-.048c.019-.446-.562-.493-.895-.505.266-.044.589-.168.6-.487-.134-.372-.607-.128-.89-.124.359-.164.725-.637.345-.982-.127.091-.247.187-.366.287-.07-.158-.14-.347-.331-.38-.539-.094-.918.506-1.462.344a.435.435,0,0,0-.679-.266l-.2-.1m-17.879.906a.673.673,0,0,0-.3.3.435.435,0,0,0,.808.079c.148-.3-.257-.544-.5-.381m-6.47.53a.449.449,0,0,0,.364.467c.2,0,.347-.156.5-.26.214.066.7.064.558-.291a.929.929,0,0,0-1.424.084m-26.754.339c-.165-.021-.346-.07-.49.048-.084.125-.152.353.047.417a2.514,2.514,0,0,0,.609-.258c.045.167.123.487.37.368.293-.044.191-.386.145-.576l.182.151c.266-.2.874-.127.788-.6-.279-.1-.614.046-.85-.187-.285.187-.64.308-.8.635m3.148.192c-.3-.017-.275.355-.258.555.151.118.385.185.281.427.169.036.367.019.506.142.556.48,1.292.7,1.811,1.231.267.257.417.637.762.807a2.057,2.057,0,0,0-.632-2.121c-.439-.459-1.02-.761-1.428-1.249a4.115,4.115,0,0,1-1.042.208m32.719.185a8.227,8.227,0,0,1,.947.455c.078-.138.15-.28.216-.426a.863.863,0,0,0-1.163-.029m-6.835.36c.106.262.384.382.6.543.095-.095.188-.191.282-.287-.164-.261-.708-.752-.879-.256m1.853.14c.222.268.6.145.9.18a2.934,2.934,0,0,0,.229.5c.23-.153.557-.442.369-.741a1.416,1.416,0,0,0-1.5.064m2.912-.1a2.269,2.269,0,0,1-.071.39c-.155.1-.344.026-.512.028a.8.8,0,0,0-.344.433.533.533,0,0,0,.444.379c.259-.04.4-.282.55-.471.163.152.287.435.544.42.171-.246.035-.536-.072-.774.145.1.31.263.491.123.128-.156.219-.425.032-.573a.824.824,0,0,0-1.062.045m-37.836.586a1.135,1.135,0,0,0-.378-.019,1.462,1.462,0,0,0-.126.34c-.239.176-.63.262-.69.6.2.146.408-.026.6-.106l.311.26a1.528,1.528,0,0,0,.235-.464.525.525,0,0,0,.819-.144c-.09-.1-.182-.193-.274-.287.064-.034.192-.1.255-.136l.383.015c-.143-.516-.819-.27-1.132-.058m-13.116.36c-.023.3.293.359.514.417.028.066.084.2.111.267a1.154,1.154,0,0,0,.544-.258,1.239,1.239,0,0,0,.4.263,3.6,3.6,0,0,0,.278-.683.861.861,0,0,1-.679-.294c-.382.09-.941-.136-1.167.287m16.006.066a.9.9,0,0,0-.557.251c.07.23.293.274.5.291.022.069.067.206.089.274.171-.035.237-.188.3-.334.149-.051.344-.046.431-.2a.481.481,0,0,0-.314-.261q.1-.17.2-.343a.512.512,0,0,0-.648.327m2.485.235A3.661,3.661,0,0,0,54.52,42a1.664,1.664,0,0,0-.775-.742c-.374.015-.617.366-.957.489m37.836.669a1.844,1.844,0,0,1-.93.193,1.161,1.161,0,0,0,1.044.294,1.693,1.693,0,0,0,.355.649.87.87,0,0,0,.454-.641c.208.06.539.3.69.032.095-.316-.149-.573-.341-.786a2.831,2.831,0,0,0,.3-.407.7.7,0,0,0-.69-.183c-.37.2-.544.615-.884.85M33.1,42c.108.374.29.888.737.943l-.013.153.082.071a4.622,4.622,0,0,0,.664-.689c-.207-.18-.478-.045-.72-.041-.029-.167-.058-.332-.088-.5a.834.834,0,0,1-.355-.258c-.159.045-.34.109-.307.319m45.059.139a1.471,1.471,0,0,1-.126.552l-.3-.123a.635.635,0,0,1-.846.1,3.18,3.18,0,0,0,.169,1.148.3.3,0,0,0,.4.172c.4-.213.651-.626,1.041-.863.341-.272.8-.476.937-.923-.256.024-.373-.152-.328-.38-.016-.143-.224-.172-.33-.22-.274.071-.43.34-.615.532M82.233,43.3c.041.177-.026.486.234.507a3.908,3.908,0,0,0,.936-.574c.27-.182.611-.558.314-.867a1.9,1.9,0,0,1-.621.44l-.158-.16c-.131-.052-.3-.052-.392-.163.022-.319-.27-.5-.385-.774a6.966,6.966,0,0,0,.072,1.59m20.36-.913a1.481,1.481,0,0,0-1.1.044c.015.347.335.439.623.489a4.394,4.394,0,0,1-.82.431c-.183-.337-.324-.753-.705-.916a.425.425,0,0,0-.033.678,3.552,3.552,0,0,0-.68-.327c-.385.219-.142.689.234.72a7.332,7.332,0,0,1-1.058-.1,1.741,1.741,0,0,0,.367-.726.765.765,0,0,0-.7.422,4.1,4.1,0,0,0-.241-.414c-.417.184-.38.7-.206,1.04-.181-.077-.481-.309-.616-.058a.409.409,0,0,0,.383.613c-.192.123-.438.216-.521.447a.408.408,0,0,0,.411.382,1.454,1.454,0,0,0,.575-.324,4.616,4.616,0,0,0,.567.553c-.007.277-.05.843.369.787.2-.2.144-.511.133-.766.213.158.462.466.756.339a.476.476,0,0,0-.274-.745,4.333,4.333,0,0,1,1.25-.017c-.233.246-.506.677-.151.947a2.065,2.065,0,0,0,.493-.531c.056.3-.005.766.31.93.3-.069.416-.392.579-.615.188.193.586.663.8.266a1.491,1.491,0,0,0-.344-.551,1.855,1.855,0,0,0,.631-.108.576.576,0,0,1,.259-.664c.064.308.158.655.49.774-.04.3-.218.722.1.935.292.068.333-.3.4-.492.118.281.14.665.435.824a.953.953,0,0,0,.2-.439,2.828,2.828,0,0,0,.79.8c.3-.034.12-.426.062-.613a1.339,1.339,0,0,0,.7.1c.21-.2-.073-.456-.008-.691a1.165,1.165,0,0,0-.1-.757c-.258-.121-.415.217-.587.355a2.087,2.087,0,0,0-.174-.835c-.2.082-.414.22-.421.462-.189-.045-.379-.09-.566-.133a2.177,2.177,0,0,0,.66-.509.275.275,0,0,0-.53-.143,2.115,2.115,0,0,0,.03-.882.666.666,0,0,0-.607.48,2.533,2.533,0,0,0-.482-.795.245.245,0,0,0-.427.051,1.194,1.194,0,0,0,.3.483,4.416,4.416,0,0,1-.774-.127,1.582,1.582,0,0,0,.452-.8c-.074-.237-.291-.2-.48-.151.188-.175.582-.4.428-.7-.218-.26-.462.035-.621.195a1.011,1.011,0,0,0-.543-.425.5.5,0,0,0-.034.8M58.7,41.905A3.3,3.3,0,0,0,58.942,43a2.941,2.941,0,0,0,.8,1.378c.562.573.439,1.494.976,2.078a2.194,2.194,0,0,0,1.4.773c.321-.112.1-.472.028-.685a5.317,5.317,0,0,0-1.28-1.976c-.6-.443-.83-1.19-1.361-1.693-.279-.314-.44-.737-.806-.968m-26.8.209a.784.784,0,0,1-.609.2c.365.269.793.615,1.276.5.128-.18-.023-.432-.032-.632a1.227,1.227,0,0,1-.636-.069M80.726,43.7l-.285-.05c-.057.146-.112.294-.17.44-.3-.1-.251-.446-.221-.691-.686.8-1.452,1.536-2.077,2.39a3.619,3.619,0,0,0-.668,3c.152.457.715.312,1.047.161a7.562,7.562,0,0,0,1.956-1.725A7.477,7.477,0,0,0,81.3,45.5c.208-.383-.008-.824.11-1.227a3.831,3.831,0,0,0-.167-1.86,1.925,1.925,0,0,1-.513,1.29M43.611,43.31A6.989,6.989,0,0,0,44,43.9a.563.563,0,0,0-.48.262c.169.2.423.481.691.241.258.088.543.275.811.111.177-.147.155-.384.173-.588a.455.455,0,0,0,.5-.613c-.225-.148-.472,0-.7.054a4.389,4.389,0,0,0,.044-.493.942.942,0,0,1-.661-.136.845.845,0,0,0-.761.574m8.51.163c.2.235.492-.082.707.077a2.981,2.981,0,0,0,.762.877,7.011,7.011,0,0,0,1.626.685,2.644,2.644,0,0,1,1.153.459,6.261,6.261,0,0,0,.748.8,3.146,3.146,0,0,0,.663.269,9.126,9.126,0,0,1,1.423.8,3.16,3.16,0,0,1-.292-1.319.781.781,0,0,0-.369-.689c-.5-.37-1.052-.676-1.527-1.082a3.468,3.468,0,0,0-1.523-1.336,14.549,14.549,0,0,0-2.508.15c-.423.123-.66-.48-1.076-.333-.308.168.026.516.213.638M70.447,44.78a1.3,1.3,0,0,0-.143.827,7.821,7.821,0,0,0,.631,2.06A2.812,2.812,0,0,0,72.8,49.307a2.374,2.374,0,0,0,1.593-.579,3.825,3.825,0,0,0,1.254-1.257c.249-.422.168-.936.34-1.385a5.728,5.728,0,0,0,.286-2.524,1.978,1.978,0,0,1-.47.7.668.668,0,0,1-.983-.52.457.457,0,0,1-.579.239c-.109.249-.257.568-.573.577-.281.016-.465-.221-.615-.419-.235.066-.6.246-.748-.056-.074-.273.119-.49.268-.69-.3.121-.592.267-.889.4a2.413,2.413,0,0,1,.1-.826,5.834,5.834,0,0,0-1.341,1.814m12.4.49c-.065.381-.286.7-.379,1.076a1.771,1.771,0,0,0,.665.1,10.617,10.617,0,0,0,4.508-1.467c.267-.164.413-.458.658-.646.2-.107.53-.109.574-.388.066-.263-.245-.607-.5-.418a1.21,1.21,0,0,1-1.225.108c-.095-.144-.165-.3-.251-.446-.365.163-.543.652-.944.7-.255-.234.052-.546.2-.745a1.237,1.237,0,0,0-.727.1c-.153.172-.015.386.014.577a1.273,1.273,0,0,1-.9-.676A8.165,8.165,0,0,0,82.85,45.27M95.455,43.7a1.194,1.194,0,0,0,.958-.056A.733.733,0,0,1,95.753,43c-.2.144-.516.457-.3.7m-48.886.148a1.19,1.19,0,0,0,.536.468c.009.136.02.273.032.41.39-.079.307-.554.081-.767.07-.1.268-.159.2-.31a1.119,1.119,0,0,0-.847.2m-4.5.677a.459.459,0,0,0,.505-.367c.189-.025.228-.184.053-.274-.333-.015-.516.356-.558.641m34.983,6.806.28.09a3.883,3.883,0,0,0-1.217.974c-.333.418-.811.8-.855,1.369a15.665,15.665,0,0,1-.458,1.743,10.615,10.615,0,0,0,.03,1.663,4.792,4.792,0,0,1-.385-.778,22.56,22.56,0,0,0,.125,2.5,3.767,3.767,0,0,0,1.379,2.468c.158-.009-.067-.119-.1-.146a10.916,10.916,0,0,1-.569-1.234,3.382,3.382,0,0,1-.239-1.8,4.657,4.657,0,0,1,.71,1.551,3.051,3.051,0,0,0,.439,1.08c.167.238.476.306.669.516.209.2.345.484.609.631a8.876,8.876,0,0,0,1.074.519,3.435,3.435,0,0,1-.554-.512c.553-.18,1.054.3,1.541.506a9.838,9.838,0,0,0-2.453-1.558,2.012,2.012,0,0,1-.843-1c-.167-.383-.072-.824-.253-1.2a4.843,4.843,0,0,1-.57-1.027,5.94,5.94,0,0,1-.056-2.166,14.451,14.451,0,0,1,.9-2.651,7.589,7.589,0,0,1,1.1-1.447l-.306-.081M74.563,52.9a3.139,3.139,0,0,0-.5,1.8.939.939,0,0,0,.24-.421,7.336,7.336,0,0,1,.879-2.031,2.269,2.269,0,0,0-.616.649m-1.09,8.124c.358.913,1.278,1.389,2.03,1.937a1.327,1.327,0,0,0-.806-1.08A2.009,2.009,0,0,1,73.824,61a4.584,4.584,0,0,1-.665-1.7A5.1,5.1,0,0,0,73.473,61.025Z" transform="translate(-6.084 -0.34)"/><path class="a" d="M575.039,166.32a3.445,3.445,0,0,1,.326.328c-.084.087-.161.175-.242.263a.7.7,0,0,0-.323-.249C574.882,166.549,574.96,166.434,575.039,166.32Z" transform="translate(-512.251 -148.251)"/><path class="a" d="M377.08,278.846C377.392,278.687,377.086,279.207,377.08,278.846Z" transform="translate(-336.055 -248.499)"/><path class="a" d="M433.48,508c.437,0,.872,0,1.309,0v.327h-.925c0,.281,0,.563,0,.845q.434,0,.871,0c0,.082,0,.246,0,.328h-.87v.952c.322,0,.645,0,.969-.006,0,.084.012.25.016.333h-1.366C433.48,509.847,433.484,508.923,433.48,508Z" transform="translate(-386.315 -452.731)"/><path class="a" d="M452.818,507.916a1.048,1.048,0,0,1,1.121-.163c.007.088.017.266.024.354-.227-.051-.482-.182-.707-.058a.374.374,0,0,0-.094.6c.235.212.554.317.758.567a.8.8,0,0,1-.329,1.236,1.067,1.067,0,0,1-.914-.106c0-.09-.013-.27-.017-.359.219.073.438.237.679.174a.436.436,0,0,0,.284-.663c-.254-.326-.752-.411-.918-.814A.81.81,0,0,1,452.818,507.916Z" transform="translate(-403.408 -452.439)"/><path class="a" d="M471.24,508c.544,0,1.09,0,1.634,0v.327c-.209,0-.418,0-.626,0v2.449h-.381v-2.449h-.627Z" transform="translate(-419.965 -452.733)"/><path class="a" d="M671.62,508.541c.188-.183.385-.358.575-.541h.338c-.005.929.011,1.857-.01,2.786l-.345-.015c0-.775.005-1.551,0-2.326q-.17.188-.333.381C671.766,508.73,671.692,508.636,671.62,508.541Z" transform="translate(-598.531 -452.736)"/><path class="a" d="M692.161,509.454a.953.953,0,0,1,.013-1.768.8.8,0,0,1,.774.22,1.917,1.917,0,0,1,.251,1.216,1.494,1.494,0,0,1-.466,1.226,1.311,1.311,0,0,1-1.033.091c0-.091.005-.275.008-.367a.784.784,0,0,0,.768.016c.283-.189.321-.557.394-.859a.857.857,0,0,1-.708.224m.024-1.416c-.375.272-.308,1.055.2,1.127C693.039,509.065,692.863,507.733,692.185,508.038Z" transform="translate(-616.31 -452.44)"/><path class="a" d="M712.579,508.127a.772.772,0,0,1,1.414-.033,2.754,2.754,0,0,1-.035,1.868.974.974,0,0,1-1.179.488c-.215,0-.131-.254-.159-.39.249.081.554.187.788.005.318-.2.276-.627.443-.922-.21.11-.361.348-.632.311-.643-.015-.86-.823-.64-1.328m.53-.111a.691.691,0,0,0,.1,1.112C713.962,509.222,713.848,507.693,713.109,508.016Z" transform="translate(-634.957 -452.421)"/><path class="a" d="M733.637,507.768a1.461,1.461,0,0,1,1.133.043.708.708,0,0,1-.15,1.2.783.783,0,0,1,.041,1.38,1.6,1.6,0,0,1-1.111.029c.007-.1.021-.285.028-.38a1.024,1.024,0,0,0,.734.112.512.512,0,0,0,.236-.8c-.176-.184-.453-.134-.678-.15,0-.077,0-.232,0-.309.243-.014.555.011.71-.223a.43.43,0,0,0-.226-.654.979.979,0,0,0-.7.134Q733.644,507.958,733.637,507.768Z" transform="translate(-653.72 -452.446)"/><path class="a" d="M488.99,528.99q.2,0,.411,0c0,.161,0,.323,0,.487l-.4,0C488.991,529.319,488.99,529.153,488.99,528.99Z" transform="translate(-435.783 -471.441)"/><path class="a" d="M2.93,643.627a5.307,5.307,0,0,1,3.527.183c.005.4,0,.8,0,1.2a4.283,4.283,0,0,0-2.764-.5,2.789,2.789,0,0,0-1.962,1.784,5.418,5.418,0,0,0-.162,2.827,3.33,3.33,0,0,0,1.19,2.137,2.893,2.893,0,0,0,2.741.251c.009-.955,0-1.91,0-2.865H3.984v-1.034h2.64v4.684a5.732,5.732,0,0,1-3.638.281,3.612,3.612,0,0,1-2.3-2.094,6.431,6.431,0,0,1-.213-4.187A3.893,3.893,0,0,1,2.93,643.627Z" transform="translate(-0.225 -573.402)"/><path class="a" d="M86.46,644.247c.785-.012,1.57,0,2.355-.006a2.8,2.8,0,0,1,1.874.573,2.55,2.55,0,0,1,.606,2.678,2.154,2.154,0,0,1-1.646,1.342,1.132,1.132,0,0,1,.907.724c.468,1.279.9,2.571,1.359,3.856-.427,0-.853,0-1.28,0-.367-1.064-.718-2.133-1.088-3.2a1.329,1.329,0,0,0-.675-.824,3.158,3.158,0,0,0-1.242-.111c.013,1.377,0,2.753.005,4.13h-1.17c0-3.056.005-6.11,0-9.166m1.175.974c0,1.027-.007,2.052.005,3.079a4.46,4.46,0,0,0,1.708-.163,1.589,1.589,0,0,0,.26-2.65A3.763,3.763,0,0,0,87.635,645.221Z" transform="translate(-77.072 -574.145)"/><path class="a" d="M158,644.24h4.272v1.035h-3.1v2.883q1.483,0,2.965,0,0,.5,0,1.008c-.99,0-1.978,0-2.967,0q0,1.6,0,3.209,1.633,0,3.267,0,0,.514,0,1.032c-1.478,0-2.958,0-4.437,0Q158,648.826,158,644.24Z" transform="translate(-140.822 -574.144)"/><path class="a" d="M222.5,644.24q2.149,0,4.3,0,0,.518,0,1.036c-1.033,0-2.066,0-3.1,0q0,1.442,0,2.885c.98,0,1.96-.006,2.94,0,0,.334,0,.669,0,1q-1.47,0-2.939,0v3.211h3.266v1.034H222.5Q222.5,648.826,222.5,644.24Z" transform="translate(-198.3 -574.144)"/><path class="a" d="M287.24,644.243c.488,0,.975,0,1.463,0,1.008,2.223,2.028,4.44,3.038,6.662a4.262,4.262,0,0,0,.382.753c.035-2.471.005-4.944.015-7.417q.572,0,1.143,0c0,3.058.005,6.116,0,9.174-.488-.005-.974,0-1.461-.005-1.147-2.46-2.246-4.945-3.42-7.391-.036,2.466,0,4.932-.02,7.4q-.567-.01-1.132,0C287.233,650.36,287.244,647.3,287.24,644.243Z" transform="translate(-255.995 -574.147)"/><path class="a" d="M394.243,644.246q2.681,0,5.361,0v1.034c-.7,0-1.4-.006-2.1.005.01,2.711,0,5.421,0,8.132h-1.17q0-4.068,0-8.138h-2.1Q394.242,644.762,394.243,644.246Z" transform="translate(-351.349 -574.149)"/><path class="a" d="M463.75,644.241h2.313a2.926,2.926,0,0,1,1.791.48,2.511,2.511,0,0,1,.7,2.854,2.167,2.167,0,0,1-1.621,1.258,1.376,1.376,0,0,1,1.078,1.176c.39,1.138.8,2.268,1.188,3.406-.427,0-.854,0-1.28,0-.342-1.013-.682-2.028-1.03-3.04a1.58,1.58,0,0,0-.614-.923,2.855,2.855,0,0,0-1.354-.173q0,2.069,0,4.137h-1.17v-9.172m1.165.989c.013,1.021,0,2.043.005,3.065a4.054,4.054,0,0,0,1.772-.187,1.622,1.622,0,0,0,.37-2.5A3.106,3.106,0,0,0,464.915,645.23Z" transform="translate(-413.29 -574.144)"/><path class="a" d="M535.206,644.235c1.426,0,2.852-.011,4.278.008-.008.343,0,.687-.009,1.031-1.033-.009-2.066,0-3.1,0v2.885h2.966c0,.334,0,.669,0,1-.989.006-1.978,0-2.967,0v3.211h3.266v1.034c-1.48,0-2.961.007-4.441-.005C535.212,650.347,535.2,647.291,535.206,644.235Z" transform="translate(-476.962 -574.139)"/><path class="a" d="M600,644.24h4.272v1.035h-3.1v2.885c.989,0,1.977,0,2.966,0,0,.335,0,.672,0,1.008-.99,0-1.978,0-2.966,0q0,1.6,0,3.21,1.633,0,3.266,0c0,.346,0,.693-.01,1.041-1.475-.017-2.951,0-4.426-.008Q600,648.826,600,644.24Z" transform="translate(-534.706 -574.144)"/><path class="a" d="M702.5,644.2c.481,0,.962,0,1.444,0,1.161,2.5,2.273,5.021,3.451,7.512.012-2.5-.009-5.01.01-7.515.369.009.739.006,1.109.006,0,3.059.009,6.118-.006,9.177-.476-.008-.952-.01-1.427,0-1.175-2.48-2.276-5-3.464-7.471q0,3.733,0,7.466H702.5Q702.495,648.783,702.5,644.2Z" transform="translate(-626.046 -574.1)"/><path class="a" d="M785.236,644.241h1.169q0,3.037,0,6.072a2.664,2.664,0,0,0,.566,1.724,1.538,1.538,0,0,0,2.151.118,2.6,2.6,0,0,0,.686-1.952q-.005-2.98,0-5.961h1.169q0,3.145,0,6.291a3.1,3.1,0,0,1-.838,2.214,2.777,2.777,0,0,1-2.105.752,2.676,2.676,0,0,1-2.236-1.065,3.4,3.4,0,0,1-.564-2.01Q785.238,647.331,785.236,644.241Z" transform="translate(-699.778 -574.144)"/><path class="a" d="M865.5,644.24c.817,0,1.634,0,2.452,0a2.681,2.681,0,0,1,1.716.532,2.528,2.528,0,0,1,.67,2.685,2.118,2.118,0,0,1-1.659,1.367,1.292,1.292,0,0,1,.7.378,3.144,3.144,0,0,1,.406.9c.383,1.1.772,2.2,1.155,3.307-.427-.005-.853,0-1.277,0-.358-1.029-.7-2.064-1.05-3.095a1.5,1.5,0,0,0-.652-.9,2.918,2.918,0,0,0-1.3-.137c.013,1.377,0,2.753.005,4.13h-1.17q0-4.587,0-9.172m1.169.981c0,1.024,0,2.048,0,3.072a4.24,4.24,0,0,0,1.721-.16,1.584,1.584,0,0,0,.231-2.653A3.728,3.728,0,0,0,866.664,645.221Z" transform="translate(-771.299 -574.144)"/><path class="a" d="M933.92,643.8a3.913,3.913,0,0,1,3.155-.061c0,.383-.005.769,0,1.153a2.757,2.757,0,0,0-2.169-.322,1.313,1.313,0,0,0-.563,2c.688.769,1.754,1.051,2.453,1.813a2.649,2.649,0,0,1-.675,4.164,4.331,4.331,0,0,1-3.21-.14c-.01-.415-.005-.828-.005-1.242a2.786,2.786,0,0,0,2.593.418,1.482,1.482,0,0,0,.4-2.314c-.661-.674-1.584-1-2.27-1.646A2.428,2.428,0,0,1,933.92,643.8Z" transform="translate(-831.311 -573.431)"/><path class="a" d="M999.24,644.241h4.273c0,.344,0,.687,0,1.031-1.035.01-2.071,0-3.106,0v2.885h2.965c0,.335,0,.671,0,1.007-.989,0-1.979,0-2.967,0v3.211h3.293q0,.516,0,1.034c-1.486,0-2.972,0-4.458,0C999.233,650.358,999.244,647.3,999.24,644.241Z" transform="translate(-890.485 -574.144)"/><path class="a" d="M1064,644.24c.8,0,1.6,0,2.4,0a2.88,2.88,0,0,1,1.674.449,2.5,2.5,0,0,1,.693,2.975,2.19,2.19,0,0,1-1.592,1.175,1.138,1.138,0,0,1,.969.83c.438,1.247.881,2.493,1.309,3.743-.426,0-.853,0-1.277,0-.358-1.058-.714-2.116-1.077-3.173a1.343,1.343,0,0,0-.614-.813,2.956,2.956,0,0,0-1.316-.151c0,1.379.005,2.759,0,4.139-.39-.005-.778,0-1.167,0q0-4.587,0-9.172m1.17.981q0,1.536,0,3.074a4.219,4.219,0,0,0,1.764-.175,1.606,1.606,0,0,0,.3-2.573A3.437,3.437,0,0,0,1065.168,645.221Z" transform="translate(-948.193 -574.144)"/><path class="a" d="M1121.37,644.114h1.347c.672,1.337,1.338,2.677,2.008,4.014.617-1.2,1.215-2.406,1.822-3.609.1-.146.095-.439.331-.418.4-.01.8.013,1.2.009v.039l-.094.119c-.9,1.72-1.8,3.439-2.665,5.175-.042,1.279,0,2.563-.018,3.844h-1.17c-.014-1.273.027-2.547-.02-3.818C1123.229,647.669,1122.278,645.9,1121.37,644.114Z" transform="translate(-999.321 -574.017)"/><path class="a" d="M653.63,788.743a.694.694,0,1,1-.083,1.257A.709.709,0,0,1,653.63,788.743Z" transform="translate(-582.12 -702.872)"/><path class="a" d="M910.686,788.746a.7.7,0,1,1-.014,1.284A.7.7,0,0,1,910.686,788.746Z" transform="translate(-811.197 -702.873)"/><path class="a" d="M729,797.47c.381-.033.762-.069,1.144-.09-.014,2.633-.009,5.267,0,7.9-.383.008-.765.005-1.147.005C729,802.681,728.982,800.075,729,797.47Z" transform="translate(-649.656 -710.613)"/><path class="a" d="M200.992,797.448c.37-.027.739-.063,1.108-.088-.005,2.635,0,5.272,0,7.908-.372,0-.744,0-1.116,0C200.989,802.661,200.969,800.054,200.992,797.448Z" transform="translate(-179.126 -710.596)"/><path class="a" d="M238.762,797.377c.381-.038.763-.066,1.144-.107,0,2.329,0,4.657,0,6.985-.317.317-.658.609-.967.933-6.109,0-12.22-.008-18.33.005a2.545,2.545,0,0,1-.615,1.933,3.019,3.019,0,0,1-2.019.786c-.3-.365-.605-.718-.893-1.086a3.27,3.27,0,0,0,1.907-.484,1.231,1.231,0,0,0,.533-1.05q0-2.742,0-5.484c.361-.035.724-.072,1.086-.1.008,1.464,0,2.928,0,4.393.39,0,.779,0,1.17,0,0-1.43,0-2.862,0-4.292.383-.04.766-.071,1.148-.113,0,.569-.009,1.14,0,1.71a4.4,4.4,0,0,1,1.992-1.513,3.545,3.545,0,0,1,3.227.512,4.108,4.108,0,0,1,1.574,3.694c1.556.007,3.111,0,4.668,0a14.554,14.554,0,0,1-3.567-3.785c.292-.27.59-.532.89-.791a12.294,12.294,0,0,0,4.97,4.563c.691.033,1.386,0,2.079.013q0-3.36,0-6.722M222.915,804.1c1.889,0,3.779,0,5.668,0a3.709,3.709,0,0,0-.91-2.534,2.344,2.344,0,0,0-2.1-.637A3.23,3.23,0,0,0,222.915,804.1Z" transform="translate(-193.473 -710.515)"/><path class="a" d="M434.447,797.393c.38-.038.762-.065,1.143-.1v7.915c-.383,0-.767,0-1.15-.009C434.455,802.595,434.442,799.994,434.447,797.393Z" transform="translate(-387.171 -710.533)"/><path class="a" d="M539.947,797.448c.369-.028.738-.063,1.108-.088,0,2.318-.006,4.637,0,6.956a8.758,8.758,0,0,1-1,.945c-5.829.02-11.66-.005-17.49.012a2.529,2.529,0,0,1-.682,2,3.112,3.112,0,0,1-1.953.719c-.3-.363-.606-.717-.9-1.085a3.332,3.332,0,0,0,1.91-.484,1.228,1.228,0,0,0,.532-1.044q.005-2.747,0-5.491c.361-.036.724-.073,1.086-.1.008,1.464,0,2.928,0,4.393q2.352,0,4.7,0a14.727,14.727,0,0,1-3.579-3.785c.3-.265.6-.525.891-.792a12.262,12.262,0,0,0,5,4.571c.5.021,1.005,0,1.508.007,0-1.286,0-2.57,0-3.856.381-.031.762-.067,1.144-.1q0,1.976,0,3.952h1.524c0-1.359,0-2.717,0-4.076.378-.03.755-.061,1.133-.1.028,1.391,0,2.785.012,4.177h1.579c0-1.431,0-2.861,0-4.291.374-.038.747-.077,1.121-.108-.008,1.466,0,2.933,0,4.4h2.34C539.943,801.935,539.924,799.692,539.947,797.448Z" transform="translate(-462.561 -710.596)"/><path class="a" d="M778.767,797.4c.381-.04.762-.071,1.144-.106v6.827H781.9c0-1.432,0-2.862,0-4.292.381-.036.762-.074,1.144-.109q0,2.2,0,4.4h2.313c0-1.289-.011-2.578.008-3.866.369-.022.738-.055,1.108-.087q0,1.976,0,3.952h1.551q0-2.038,0-4.075c.368-.033.736-.062,1.1-.1.032,1.392,0,2.785.013,4.178h1.578c0-1.43,0-2.862,0-4.292.374-.038.747-.073,1.121-.107-.008,1.466,0,2.933,0,4.4.523-.012,1.046.022,1.568-.015.355-.07.5-.45.614-.75a12.2,12.2,0,0,1,1.1-2.866,2,2,0,0,1,1.781-.918,2.086,2.086,0,0,1,1.752.931,4.726,4.726,0,0,1,.59,3.787c-.366.324-.714.669-1.083.99-1.28-.19-2.549-.491-3.825-.726a1.263,1.263,0,0,1-1.133.656H779.911c0,.459,0,.919,0,1.378-.323.312-.628.644-.971.936-1.381,0-2.763,0-4.143,0a1.751,1.751,0,0,1-1.57-.848,2.851,2.851,0,0,1-.283-1.572q0-1,0-2.009.545-.054,1.09-.113,0,1.169,0,2.339a1.085,1.085,0,0,0,.321.856,1.254,1.254,0,0,0,.878.259q1.767,0,3.535,0,0-4.517,0-9.034m17.107,3.765a5.85,5.85,0,0,0-.927,2.25c1.139.234,2.279.457,3.418.686a3.675,3.675,0,0,0-.36-2.645,1.7,1.7,0,0,0-1.01-.835A1.216,1.216,0,0,0,795.873,801.161Z" transform="translate(-688.819 -710.533)"/><path class="a" d="M290.43,800.734a.7.7,0,1,1,.083,1.264A.7.7,0,0,1,290.43,800.734Z" transform="translate(-258.523 -713.531)"/><path class="a" d="M345.1,800.472a.694.694,0,1,1,.039,1.263A.708.708,0,0,1,345.1,800.472Z" transform="translate(-307.225 -713.301)"/><path class="a" d="M646.784,800.507a.691.691,0,0,1,1.064.6.683.683,0,0,1-1.083.553A.7.7,0,0,1,646.784,800.507Z" transform="translate(-576.121 -713.298)"/><path class="a" d="M660.215,800.484a.7.7,0,1,1,.023,1.244A.7.7,0,0,1,660.215,800.484Z" transform="translate(-588.05 -713.308)"/><path class="a" d="M847.5,800.493a.7.7,0,1,1,.008,1.227A.714.714,0,0,1,847.5,800.493Z" transform="translate(-754.958 -713.31)"/><path class="a" d="M860.739,800.491a.7.7,0,1,1,.012,1.214A.718.718,0,0,1,860.739,800.491Z" transform="translate(-766.769 -713.299)"/><path class="a" d="M903.947,800.475a.683.683,0,0,1,.978.543.692.692,0,0,1-1.041.682A.7.7,0,0,1,903.947,800.475Z" transform="translate(-805.218 -713.31)"/><path class="a" d="M917.264,800.472a.7.7,0,0,1,1.018.632.69.69,0,0,1-1.053.58A.711.711,0,0,1,917.264,800.472Z" transform="translate(-817.116 -713.297)"/><path class="a" d="M480.828,819.756a3.5,3.5,0,0,1,2.934-.449q0,2.232,0,4.463c-.315.31-.627.625-.94.937a3.563,3.563,0,0,1-2.038-.371,2.366,2.366,0,0,1-1.261-1.926,3.054,3.054,0,0,1,1.3-2.655m.163,3.326a1.775,1.775,0,0,0,1.681.575c0-1.155,0-2.31,0-3.465C481.192,819.913,480.127,821.936,480.991,823.082Z" transform="translate(-427.342 -730.036)"/><path class="a" d="M146.93,822.5a4.523,4.523,0,0,1,2.96-1.048,11.316,11.316,0,0,1,.034,1.169,3.71,3.71,0,0,0-2.351.624.9.9,0,0,0,.046,1.285,3.93,3.93,0,0,0,3.245,1q-.124.563-.267,1.122c-1.633.039-3.265.12-4.9.184.119-.342.232-.684.343-1.027.44-.056.883-.089,1.324-.14a2.668,2.668,0,0,1-.956-1.43A1.816,1.816,0,0,1,146.93,822.5Z" transform="translate(-129.863 -732.063)"/><path class="a" d="M579.412,882.491a.7.7,0,1,1,.009,1.221A.7.7,0,0,1,579.412,882.491Z" transform="translate(-516.05 -786.379)"/></g><g transform="translate(52.597 18.835)"><path class="b" d="M605.21,170.24Z" transform="translate(-591.722 -170.24)"/><path class="b" d="M481.31,173.21Z" transform="translate(-481.31 -172.887)"/></g></g></svg>