<?xml version="1.0" encoding="utf-8"?>
<!-- Generator: Adobe Illustrator 25.0.0, SVG Export Plug-In . SVG Version: 6.00 Build 0)  -->
<svg version="1.1" id="Layer_1" xmlns="http://www.w3.org/2000/svg" xmlns:xlink="http://www.w3.org/1999/xlink" x="0px" y="0px"
	 viewBox="0 0 115.6 45.9" style="enable-background:new 0 0 115.6 45.9;" xml:space="preserve">
<style type="text/css">
	.st0{fill:#235B28;}
	.st1{fill:#47291A;}
</style>
<path class="st0" d="M7.7,44.3H6.9c-0.6,0-1.1-0.1-1.6-0.4c-0.5,0.3-1,0.4-1.6,0.4H2.3c-1.5,0-2.3-0.7-2.3-2.1v-1.1h0.8v1.1
	c0,0.4,0.1,0.8,0.4,1c0.3,0.2,0.7,0.3,1,0.2h1.4c0.2,0,0.5,0,0.7-0.1c-0.2-0.2-0.4-0.4-0.5-0.7c-0.1-0.2-0.2-0.5-0.2-0.8
	c0-0.2,0-0.3,0.1-0.5c0.2-0.7,0.9-1.1,1.6-1.1c0.4,0,0.7,0.1,1,0.3c0.3,0.2,0.5,0.5,0.6,0.8C7,41.7,7,41.8,7,42
	c0,0.6-0.3,1.1-0.7,1.5c0.2,0.1,0.4,0.1,0.7,0.1h0.8L7.7,44.3z M5.7,42.9c0.3-0.2,0.5-0.6,0.5-0.9c0-0.5-0.4-0.9-0.9-0.9
	c-0.5,0-0.9,0.4-0.9,0.9l0,0c0,0.4,0.2,0.7,0.5,0.9C5,43,5.1,43.1,5.3,43.1C5.4,43.1,5.6,43,5.7,42.9 M5.7,39.8H4.9V39h0.8L5.7,39.8
	z"/>
<path class="st0" d="M13.3,44.3H7.5v-0.8h4.2c0-0.4-0.1-0.8-0.4-1.2C11,42,10.5,41.8,10,41.8c-0.2,0-0.4,0.1-0.6,0.1
	C9.2,42,9,42.2,8.8,42.4c-0.1-0.2-0.2-0.4-0.4-0.6c0.2-0.2,0.5-0.4,0.8-0.5c0.3-0.1,0.6-0.2,1-0.2c1.3-0.1,2.4,0.9,2.4,2.2
	c0,0.1,0,0.2,0,0.2h0.8V44.3z"/>
<path class="st0" d="M13.9,40.4h-0.8v-0.8h0.8V40.4z M16.5,44.3h-3.4v-0.8h0.8c0.2,0,0.4-0.1,0.5-0.2c0.1-0.2,0.1-0.4,0.1-0.6V41
	h0.8v1.6c0,0.3,0,0.6-0.2,0.8h1.4L16.5,44.3z M15.2,40.4h-0.8v-0.8h0.8V40.4z"/>
<path class="st0" d="M18.3,43c0,0.9-0.4,1.3-1.2,1.3h-0.9v-0.8h0.7c0.2,0,0.4-0.1,0.5-0.2c0-0.2,0.1-0.3,0.1-0.5v-3.1h0.8L18.3,43z"
	/>
<rect x="19.1" y="39.6" class="st0" width="0.8" height="4.7"/>
<path class="st0" d="M23.7,44.2c0,0.9-0.5,1.3-1.6,1.3v-0.6c0.5,0,0.8-0.4,0.8-0.9c-0.2,0.3-0.5,0.4-0.8,0.4c-0.9,0-1.7-0.7-1.7-1.6
	S21,41.1,22,41c0.9,0,1.7,0.7,1.7,1.6c0,0,0,0.1,0,0.1L23.7,44.2z M22.9,42.7c0-0.6-0.3-0.9-0.8-0.9c-0.4,0-0.7,0.4-0.7,0.9
	c-0.1,0.5,0.3,0.9,0.7,0.9c0,0,0,0,0,0C22.6,43.6,22.9,43.2,22.9,42.7C22.9,42.7,22.9,42.7,22.9,42.7"/>
<path class="st0" d="M31.7,44.3h-1.5c-0.2,0.4-0.5,0.7-0.8,0.9c-0.3,0.2-0.7,0.3-1.2,0.3c-0.6,0-1.2-0.3-1.6-0.7
	c-0.5-0.5-0.7-1.1-0.7-1.8v-2h0.8V43c0,0.4,0.1,0.9,0.4,1.2c0.4,0.6,1.3,0.8,1.9,0.3c0.1-0.1,0.2-0.2,0.3-0.3
	c0.2-0.4,0.4-0.8,0.4-1.2V41h0.8v2c0,0.2,0,0.3,0,0.5h1.2L31.7,44.3z M28.6,40.4h-0.8v-0.8h0.8V40.4z"/>
<path class="st0" d="M32.2,45.9h-0.8v-0.8h0.8V45.9z M34.7,44.3h-3.4v-0.8h0.8c0.2,0,0.4-0.1,0.5-0.2c0.1-0.2,0.1-0.4,0.1-0.6V41
	h0.8v1.6c0,0.3,0,0.6-0.2,0.8h1.4V44.3z M33.5,45.9h-0.8v-0.8h0.8V45.9z"/>
<path class="st0" d="M39.4,43.8v0.5h-4.9v-0.8h4c0-0.4-0.1-0.8-0.4-1.2c-0.3-0.4-0.8-0.6-1.3-0.6h-1.7l1.4-2.2h1l-1,1.4H37
	c0.5,0,1,0.1,1.4,0.4C39.1,42,39.5,42.9,39.4,43.8"/>
<path class="st0" d="M42.3,44.3h-1c-0.3,0-0.7-0.1-0.9-0.4c-0.2-0.3-0.3-0.6-0.3-0.9v-3.4H41v3c0,0.3,0.1,0.5,0.2,0.7
	c0.2,0.1,0.4,0.1,0.6,0.1h0.5L42.3,44.3z"/>
<path class="st0" d="M47.8,44.3h-5.7v-0.8h4c0-0.4-0.1-0.8-0.4-1.2c-0.3-0.4-0.8-0.6-1.3-0.6h-1.7l1.4-2.2h1l-1,1.4h0.4
	c0.5,0,0.9,0.1,1.3,0.4c0.7,0.5,1.1,1.3,1.1,2.1h0.9L47.8,44.3z"/>
<path class="st0" d="M47.5,44.3v-0.8h0.7c0.4,0,0.6-0.3,0.6-0.9V41h0.8v1.6c0,0.3,0,0.6-0.1,0.8v0h0.8c0.4,0,0.6-0.3,0.6-0.8V41h0.8
	v1.6c0,0.3,0,0.6-0.2,0.9h0.8c0.4,0,0.6-0.3,0.6-0.8V41h0.8v1.6c0,0.3-0.1,0.6-0.2,0.9h1.2v0.8L47.5,44.3z"/>
<path class="st0" d="M58,44.3h-3.3v-0.8h0.8c0.2,0,0.4-0.1,0.5-0.2c0.1-0.2,0.1-0.4,0.1-0.6v-3.1h0.8v3c0,0.3,0,0.6-0.2,0.8H58
	L58,44.3z"/>
<path class="st0" d="M59.9,43c0,0.9-0.4,1.3-1.2,1.3h-0.9v-0.8h0.7c0.2,0,0.4-0.1,0.5-0.2c0-0.2,0.1-0.3,0.1-0.5v-3.1h0.8L59.9,43z"
	/>
<g transform="translate(0 0)">
	<path class="st1" d="M28.4,32.5H7.7c-0.5,3.4-3.4,5.2-7.7,5.2v-3c2.9,0,4.4-1.4,4.4-4.5v-12h3.5v10.7h20.5L28.4,32.5z M7.9,15.3
		H4.4v-3.5h3.5L7.9,15.3z"/>
	<rect x="28.8" y="34" class="st1" width="3.5" height="3.5"/>
	<path class="st1" d="M47.5,32.5H27.7v-3.6h3.4c0.9,0.1,1.7-0.3,2.1-1.1c0.3-0.8,0.4-1.6,0.4-2.4v-7.2h3.5v7c0,1.9-0.3,3-0.8,3.6
		h11.2L47.5,32.5z"/>
	<rect x="33.5" y="34" class="st1" width="3.5" height="3.5"/>
	<path class="st1" d="M68.8,32.5h-3.5c-2.5,0.1-4.9-0.5-7-1.7c-1.6,1.2-4,1.7-6.9,1.7h-3.9v-3.6h3.7c1,0.1,2,0,2.9-0.3
		c-1-0.8-1.8-1.7-2.3-2.9c-0.5-1-0.7-2.1-0.7-3.3c0-0.7,0.1-1.5,0.4-2.2c1-2.9,3.8-4.9,6.9-4.8c3.5,0,7.3,2.4,7.3,6.9
		c0,1.2-0.3,2.3-0.8,3.3c-0.5,1.2-1.3,2.2-2.3,3c0.9,0.3,1.9,0.4,2.9,0.3h3.3L68.8,32.5z M60.3,26.1c1.3-0.9,2.1-2.4,2.1-4
		c0-2.2-1.7-4-3.9-4.1c-2.2,0-4,1.7-4.1,3.9c0,0.1,0,0.1,0,0.2c0,1.6,0.7,3.1,2.1,4c0.6,0.4,1.3,0.8,1.9,1.2
		C59,26.9,59.7,26.5,60.3,26.1 M59.9,12.9h-3.5V9.4h3.5V12.9z"/>
	<path class="st1" d="M99.2,32.5H68.8v-3.6h23.3c0.1-1.8-0.5-3.6-1.6-5c-1.3-1.6-3.3-2.5-5.4-2.4c-0.9,0-1.8,0.2-2.6,0.6
		c-1.1,0.4-2,1.1-2.8,2c-0.3-0.7-0.9-1.6-1.7-2.8c1-0.9,2.1-1.7,3.4-2.2c1.3-0.6,2.7-0.9,4.1-0.9c2,0,4,0.5,5.7,1.5
		c2.9,1.8,4.4,4.8,4.7,9.2h3.3L99.2,32.5z"/>
	<path class="st1" d="M107.2,26.8c0,3.8-1.8,5.7-5.3,5.7h-3.7v-3.6h3c0.9,0.1,1.8-0.3,2.2-1c0.2-0.7,0.3-1.5,0.3-2.3V6.8h3.5
		L107.2,26.8z"/>
	<path class="st1" d="M114.9,4.3v11.3c-0.7-0.7-1.6-1-2.6-0.8c-0.3,0-0.6,0.2-0.9,0.4c0-0.9-0.3-1.8-0.7-2.6c0-2.6,0.1-5.2,0.4-7.8
		c0.4-2,1.3-3,2.6-4.8c0.1,0.3,0.2,0.8,0.3,1.3c-1.6,1.6-2.4,3.8-2.4,6c0.2-1.9,1.2-3.8,2.6-5.1C114.4,3,114.6,3.6,114.9,4.3"/>
	<path class="st1" d="M114.4,15.9c-0.3-0.3-0.7-0.4-1-0.5c-0.9-0.3-1.9,0.2-2.3,1c-0.5,1-0.4,2.2,0.1,3.2c0.3,0.8,0.3,1.6,0,2.4
		c-0.3,1.2,0.3,2.3,0.3,3.4c0,0.8-0.3,1.6-0.4,2.4c-0.1,0.8,0.3,1.6,0.3,2.4c0,0.6-1,0.9-0.8,1.3c0.2,0.5,0.5,1.1,0.7,1.6
		c0.2,0.6,2,0.2,2.4,0c0.8-0.4,1.4-1.2,1.4-2.1l0.3-12.3C115.6,17.7,115.2,16.7,114.4,15.9 M112.8,32.3c-0.3,0-0.6-0.3-0.6-0.6
		c0-0.3,0.3-0.6,0.6-0.6c0.3,0,0.6,0.3,0.6,0.6c0,0,0,0,0,0C113.4,32,113.1,32.3,112.8,32.3C112.8,32.3,112.8,32.3,112.8,32.3
		 M112.8,17.7c-0.3,0-0.6-0.3-0.6-0.6s0.3-0.6,0.6-0.6c0.3,0,0.6,0.3,0.6,0.6c0,0,0,0,0,0C113.4,17.5,113.1,17.7,112.8,17.7
		C112.8,17.7,112.8,17.7,112.8,17.7"/>
</g>
</svg>
