<?xml version="1.0" encoding="utf-8"?>
<!-- Generator: Adobe Illustrator 25.0.0, SVG Export Plug-In . SVG Version: 6.00 Build 0)  -->
<svg version="1.1" id="Layer_1" xmlns="http://www.w3.org/2000/svg" xmlns:xlink="http://www.w3.org/1999/xlink" x="0px" y="0px"
	 viewBox="0 0 160.4 45.9" style="enable-background:new 0 0 160.4 45.9;" xml:space="preserve">
<style type="text/css">
	.st0{fill:#235B28;}
	.st1{fill:#47291A;}
</style>
<path class="st0" d="M103.8,38.8h1.2v3.5l3.3-3.5h1.5l-2.9,3l3.1,4h-1.5l-2.4-3.2l-1.1,1.1v2h-1.2L103.8,38.8z"/>
<path class="st0" d="M110.6,40.5h1.2v0.8c0.4-0.6,1-0.9,1.7-0.9c1,0,1.9,0.7,1.9,1.7c0,0.1,0,0.2,0,0.3v3.4h-1.2v-3
	c0-0.8-0.4-1.3-1.1-1.3c-0.7,0-1.2,0.5-1.2,1.2c0,0.1,0,0.1,0,0.2v3h-1.2L110.6,40.5z"/>
<path class="st0" d="M116.4,38.5h1.3v1.2h-1.3V38.5z M116.4,40.5h1.2v5.3h-1.2V40.5z"/>
<path class="st0" d="M118.3,40.5h1.3l1.4,3.9l1.4-3.9h1.3l-2.2,5.3h-1.1L118.3,40.5z"/>
<path class="st0" d="M123.8,43.2L123.8,43.2c-0.1-1.5,1-2.7,2.5-2.8c0,0,0.1,0,0.1,0c1.4,0,2.6,1.2,2.6,2.6c0,0.1,0,0.2,0,0.3
	c0,0.1,0,0.2,0,0.3H125c0.1,0.8,0.7,1.4,1.5,1.3c0.5,0,1.1-0.2,1.4-0.6l0.7,0.6c-0.5,0.7-1.3,1-2.2,1c-1.5,0-2.7-1.1-2.7-2.6
	C123.8,43.3,123.8,43.2,123.8,43.2 M127.7,42.8c0-0.8-0.6-1.4-1.3-1.4c-0.8,0-1.4,0.6-1.4,1.4H127.7z"/>
<path class="st0" d="M129.3,45.1l0.5-0.8c0.5,0.4,1.1,0.6,1.7,0.7c0.5,0,0.8-0.2,0.8-0.6v0c0-0.4-0.6-0.6-1.2-0.7
	c-0.8-0.2-1.7-0.5-1.7-1.6v0c0-0.9,0.8-1.7,1.8-1.6c0,0,0.1,0,0.1,0c0.7,0,1.4,0.2,1.9,0.6l-0.5,0.9c-0.4-0.3-1-0.5-1.5-0.5
	c-0.5,0-0.7,0.2-0.7,0.5v0c0,0.4,0.6,0.6,1.2,0.8c0.8,0.2,1.6,0.6,1.6,1.5v0c0,1.1-0.9,1.7-2,1.7C130.8,45.9,130,45.6,129.3,45.1"/>
<path class="st0" d="M141.1,45c-0.6,0.6-1.3,0.9-2.2,0.9c-1.1,0.1-2.2-0.7-2.3-1.8c0-0.1,0-0.1,0-0.2v0c0-0.9,0.6-1.7,1.5-2
	c-0.4-0.4-0.6-0.9-0.6-1.5v0c0-1,0.9-1.8,1.9-1.8c0,0,0.1,0,0.1,0c1-0.1,1.8,0.6,1.9,1.6c0,0,0,0.1,0,0.1v0c0,0.9-0.6,1.5-1.5,1.8
	l1.2,1.2c0.3-0.4,0.5-0.9,0.8-1.4l0.9,0.5c-0.3,0.6-0.6,1.1-1,1.6l1.1,1.1l-0.9,0.7L141.1,45z M140.4,44.3l-1.6-1.6
	c-0.5,0.2-0.9,0.6-0.9,1.2v0c0,0.6,0.5,1.1,1.1,1c0,0,0,0,0.1,0C139.6,44.8,140,44.6,140.4,44.3 M140.3,40.4L140.3,40.4
	c0-0.4-0.3-0.8-0.7-0.8c0,0,0,0-0.1,0c-0.4,0-0.8,0.3-0.8,0.8c0,0,0,0.1,0,0.1v0c0,0.4,0.2,0.8,0.5,1
	C140,41.3,140.3,40.9,140.3,40.4"/>
<path class="st0" d="M148.8,38.7h1.1l3.1,7.1h-1.3l-0.7-1.7h-3.3l-0.7,1.7h-1.3L148.8,38.7z M150.6,43l-1.2-2.8l-1.2,2.8H150.6z"/>
<path class="st0" d="M153.7,40.5h1.2v1.2c0.3-0.8,1-1.3,1.9-1.3v1.3h-0.1c-1.1,0-1.8,0.7-1.8,2.1v2h-1.2V40.5z"/>
<path class="st0" d="M157.7,44.3v-2.8H157v-1h0.7V39h1.2v1.5h1.4v1h-1.4v2.6c0,0.3,0.2,0.6,0.5,0.7c0.1,0,0.1,0,0.2,0
	c0.3,0,0.5-0.1,0.8-0.2v1c-0.3,0.2-0.7,0.3-1.1,0.3c-0.7,0.1-1.4-0.4-1.5-1.2C157.7,44.6,157.7,44.5,157.7,44.3"/>
<path class="st1" d="M4.6,4.7V17c-0.7-0.7-1.8-1.1-2.8-0.9c-0.3,0.1-0.7,0.2-0.9,0.4c0-1-0.3-2-0.8-2.8c0-2.8,0.1-5.7,0.4-8.5
	C1,3,1.9,1.9,3.4,0c0.1,0.4,0.2,0.9,0.4,1.5C2,3.2,1.1,5.6,1.1,8C1.3,5.9,2.4,3.9,4,2.5C4.1,3.3,4.3,4,4.6,4.7"/>
<path class="st1" d="M4.1,17.4c-0.3-0.3-0.7-0.5-1.1-0.5c-1-0.3-2,0.2-2.5,1.1c-0.7,1.2-0.2,2.5,0.2,3.5c0.3,0.9,0.3,1.8,0,2.6
	C0.4,25.5,1,26.6,1,27.9c0,0.9-0.4,1.7-0.4,2.6c-0.1,0.9,0.4,1.7,0.4,2.7c0,0.6-1.1,0.9-0.9,1.4c0.2,0.5,0.6,1.2,0.8,1.7
	c0.3,0.6,2.2,0.2,2.7,0C4.4,35.9,5,35,5,34l0.4-13.5C5.4,19.3,5,18.2,4.1,17.4 M2.4,35.2c-0.3,0-0.6-0.3-0.6-0.6S2.1,34,2.4,34
	C2.7,34,3,34.3,3,34.6c0,0,0,0,0,0C3,35,2.7,35.3,2.4,35.2C2.4,35.3,2.4,35.3,2.4,35.2 M2.4,19.4c-0.3,0-0.6-0.3-0.6-0.6
	s0.3-0.6,0.6-0.6c0.3,0,0.6,0.3,0.6,0.6c0,0,0,0,0,0C3,19.1,2.7,19.4,2.4,19.4C2.4,19.4,2.4,19.4,2.4,19.4"/>
<path class="st1" d="M26.8,13.2h-3.3v22.3h15.4v-3H26.8V13.2z"/>
<path class="st1" d="M44.9,13.2h-3.3v22.3h3.3v-9.7h11.7v9.7H60V13.2h-3.3v9.6H44.9V13.2z"/>
<path class="st1" d="M88,26.1h11.6v-3H88v-7h13.1v-3H84.7v22.3H88L88,26.1z"/>
<path class="st1" d="M107.1,25.7h11.5v-2.9h-11.5v-6.7h13v-2.9h-16.4v22.3h16.5v-2.9h-13.2L107.1,25.7z"/>
<path class="st1" d="M126.3,25.7h11.5v-2.9h-11.5v-6.7h13v-2.9H123v22.3h16.5v-2.9h-13.2V25.7z"/>
<path class="st1" d="M142.6,16.1h13.6l-14,16.9v2.5h18.2v-2.9h-14l14-16.9v-2.5h-17.7V16.1z"/>
<path class="st1" d="M72.3,12.4c-5.4,0-9.7,4.3-9.7,9.7v13.4H66v-9.7h12.8v9.7H82V22.1C82,16.8,77.7,12.4,72.3,12.4 M78.7,22.8H66
	v-0.7c0-3.5,2.9-6.4,6.4-6.4c3.5,0,6.4,2.9,6.4,6.4L78.7,22.8z"/>
<path class="st1" d="M8.8,7C8,7,7.3,7.1,6.5,7.2v3.4c0.8-0.2,1.5-0.3,2.3-0.3c4.8,0,8.7,3.9,8.7,8.7v3.8h-11v3h11v9.6h3.3V19
	C20.8,12.4,15.4,7,8.8,7"/>
</svg>
