<svg xmlns="http://www.w3.org/2000/svg" width="160.361" height="45.933" viewBox="0 0 160.361 45.933"><defs><style>.a{fill:#f7f7f7;}</style></defs><g transform="translate(0 0)"><path class="a" d="M440.016,340.818h1.236v3.536l3.346-3.536h1.527l-2.935,3.025,3.065,4.009h-1.507l-2.4-3.164-1.1,1.126v2.038h-1.236Z" transform="translate(-336.206 -302.057)"/><path class="a" d="M452.335,343.884h1.215v.813a1.921,1.921,0,0,1,1.658-.925A1.819,1.819,0,0,1,457.1,345.8v3.386h-1.215v-3.015c0-.824-.412-1.3-1.138-1.3a1.181,1.181,0,0,0-1.194,1.317v2.994h-1.215Z" transform="translate(-341.781 -303.394)"/><path class="a" d="M463,340.377h1.306v1.156H463Zm.05,1.97h1.217v5.305h-1.217Z" transform="translate(-346.609 -301.858)"/><path class="a" d="M466.559,343.976h1.305l1.428,3.9,1.437-3.9h1.276l-2.171,5.345h-1.1Z" transform="translate(-348.219 -303.486)"/><path class="a" d="M476.568,346.555v-.02a2.633,2.633,0,0,1,2.591-2.763,2.567,2.567,0,0,1,2.544,2.855c0,.109-.011.221-.021.341h-3.9a1.483,1.483,0,0,0,1.528,1.347,1.93,1.93,0,0,0,1.437-.633l.713.633a2.684,2.684,0,0,1-2.171.994,2.646,2.646,0,0,1-2.722-2.753m3.929-.391a1.377,1.377,0,0,0-1.345-1.4,1.435,1.435,0,0,0-1.378,1.4Z" transform="translate(-352.749 -303.394)"/><path class="a" d="M486.649,348.512l.543-.824a3,3,0,0,0,1.738.654c.523,0,.824-.221.824-.572v-.02c0-.412-.563-.554-1.186-.745-.785-.221-1.659-.542-1.659-1.555v-.02a1.694,1.694,0,0,1,1.891-1.619,3.685,3.685,0,0,1,1.949.6l-.484.864a3.089,3.089,0,0,0-1.5-.5c-.471,0-.743.221-.743.521v.021c0,.391.573.554,1.2.754.773.241,1.648.592,1.648,1.545v.02c0,1.116-.865,1.671-1.97,1.671a3.721,3.721,0,0,1-2.251-.8" transform="translate(-357.311 -303.411)"/><path class="a" d="M504.428,346.937a3.1,3.1,0,0,1-2.151.915,2.079,2.079,0,0,1-2.3-2.01v-.021a2.108,2.108,0,0,1,1.5-1.97,2.275,2.275,0,0,1-.582-1.466v-.021a1.842,1.842,0,0,1,2.019-1.769,1.737,1.737,0,0,1,1.871,1.7v.02c0,.925-.614,1.477-1.549,1.83l1.207,1.226a10.236,10.236,0,0,0,.753-1.357l.934.493a10.433,10.433,0,0,1-.955,1.6l1.115,1.123-.924.663Zm-.7-.724-1.567-1.6a1.3,1.3,0,0,0-.934,1.164v.02a1.07,1.07,0,0,0,1.175,1.025,1.942,1.942,0,0,0,1.326-.612m-.04-3.828v-.021a.758.758,0,0,0-.794-.792.806.806,0,0,0-.844.844v.02a1.492,1.492,0,0,0,.532,1.044c.724-.262,1.106-.592,1.106-1.095" transform="translate(-363.343 -301.956)"/><path class="a" d="M519.7,340.726h1.145l3.095,7.083h-1.306l-.713-1.7h-3.326l-.724,1.7H516.6Zm1.769,4.291-1.216-2.814-1.206,2.814Z" transform="translate(-370.869 -302.016)"/><path class="a" d="M531.2,343.89h1.216v1.194a1.882,1.882,0,0,1,1.879-1.3v1.286h-.07c-1.065,0-1.809.694-1.809,2.1v2.021H531.2Z" transform="translate(-377.473 -303.401)"/><path class="a" d="M537.938,346.609v-2.793h-.674v-1.044h.674v-1.457h1.214v1.457h1.428v1.044h-1.428v2.6a.579.579,0,0,0,.654.662,1.619,1.619,0,0,0,.753-.182v1a2.1,2.1,0,0,1-1.095.273,1.36,1.36,0,0,1-1.526-1.558" transform="translate(-380.219 -302.282)"/><path class="a" d="M255.095,274.669v12.37a3.241,3.241,0,0,0-2.83-.914,2.007,2.007,0,0,0-.937.4,5.916,5.916,0,0,0-.8-2.831,77.184,77.184,0,0,1,.4-8.491c.468-2.229,1.382-3.277,2.875-5.193.112.357.223.869.357,1.471a9.225,9.225,0,0,0-2.607,6.575,8.748,8.748,0,0,1,2.853-5.527,10.492,10.492,0,0,0,.691,2.14" transform="translate(-250.445 -270.011)"/><path class="a" d="M254.527,301.277a2.19,2.19,0,0,0-1.136-.513,2.077,2.077,0,0,0-2.474,1.138c-.714,1.159-.246,2.5.155,3.521a4.236,4.236,0,0,1,.022,2.63c-.334,1.315.313,2.474.313,3.767,0,.891-.357,1.739-.446,2.63-.089.914.357,1.738.357,2.652,0,.625-1.115.936-.915,1.426.223.535.558,1.181.78,1.739.268.648,2.229.179,2.653-.044a2.629,2.629,0,0,0,1.538-2.341l.356-13.461a4.177,4.177,0,0,0-1.2-3.143m-1.8,17.875a.624.624,0,1,1,.647-.6.611.611,0,0,1-.647.6m0-15.875a.624.624,0,1,1,.647-.6.611.611,0,0,1-.647.6" transform="translate(-250.379 -283.903)"/><path class="a" d="M296.6,294.106H293.28v22.309h15.432v-2.959H296.6Z" transform="translate(-269.795 -280.916)"/><path class="a" d="M329.682,294.106h-3.321v22.309h3.321v-9.708H341.4v9.708h3.321V294.106H341.4v9.575H329.682Z" transform="translate(-284.767 -280.916)"/><path class="a" d="M408.454,307.036H420.07v-2.959H408.454v-7.012h13.1v-2.958H405.133v22.308h3.32Z" transform="translate(-320.419 -280.916)"/><path class="a" d="M443.336,306.609h11.55v-2.894h-11.55V297h13.031v-2.893H440.016v22.308h16.516v-2.893h-13.2Z" transform="translate(-336.206 -280.916)"/><path class="a" d="M478.4,306.609h11.55v-2.894H478.4V297h13.031v-2.893H475.079v22.308H491.6v-2.893H478.4Z" transform="translate(-352.075 -280.916)"/><path class="a" d="M510.57,296.967h13.571l-14,16.947v2.5H528.3v-2.861H514.271L528.3,296.607v-2.5H510.57Z" transform="translate(-367.944 -280.916)"/><path class="a" d="M374.495,292.669a9.714,9.714,0,0,0-9.7,9.7v13.393h3.321v-9.707h12.764v9.707H384.2V302.372a9.714,9.714,0,0,0-9.7-9.7m6.382,10.363H368.113v-.66a6.382,6.382,0,1,1,12.764,0Z" transform="translate(-302.161 -280.266)"/><path class="a" d="M264.563,282.794a11.985,11.985,0,0,0-2.311.23v3.41a8.567,8.567,0,0,1,2.311-.32,8.686,8.686,0,0,1,8.676,8.676v3.772H262.252v3.024h10.987V311.2h3.321v-16.4a12.01,12.01,0,0,0-12-12" transform="translate(-255.752 -275.796)"/></g></svg>