<svg xmlns="http://www.w3.org/2000/svg" width="115.555" height="45.933" viewBox="0 0 115.555 45.933"><defs><style>.a{fill:#fff;}</style></defs><g transform="translate(0 0)"><path class="a" d="M258.761,330.712h-.816a2.769,2.769,0,0,1-1.625-.4,2.806,2.806,0,0,1-1.617.4h-1.355c-1.544,0-2.317-.685-2.317-2.062v-1.1h.809v1.1a1.124,1.124,0,0,0,.415,1,1.756,1.756,0,0,0,1,.233h1.4a1.667,1.667,0,0,0,.678-.08,1.746,1.746,0,0,1-.525-.668,1.725,1.725,0,0,1-.175-.758,1.327,1.327,0,0,1,.088-.5,1.686,1.686,0,0,1,1.6-1.122,1.592,1.592,0,0,1,.976.313,1.954,1.954,0,0,1,.626.809,1.071,1.071,0,0,1,.1.475,1.916,1.916,0,0,1-.706,1.455,1.66,1.66,0,0,0,.677.08h.772Zm-1.989-1.479a1.081,1.081,0,0,0,.481-.932.929.929,0,1,0-1.858,0,1.1,1.1,0,0,0,.481.932,2.859,2.859,0,0,0,.445.269,2.776,2.776,0,0,0,.452-.269m-.073-3.051H255.9v-.817h.795Z" transform="translate(-251.032 -286.375)"/><path class="a" d="M275.721,333.821h-5.85v-.831h4.21a1.81,1.81,0,0,0-.378-1.159,1.527,1.527,0,0,0-1.254-.554,1.6,1.6,0,0,0-.611.139,1.747,1.747,0,0,0-.656.459c-.08-.153-.212-.365-.394-.641a2.727,2.727,0,0,1,.78-.518,2.391,2.391,0,0,1,.961-.2,2.329,2.329,0,0,1,2.419,2.477h.773Z" transform="translate(-262.406 -289.484)"/><path class="a" d="M284.8,327.571H284v-.809h.8Zm2.609,3.984H284.04v-.831h.757a.5.5,0,0,0,.489-.248,1.272,1.272,0,0,0,.087-.552v-1.677h.809v1.632a1.393,1.393,0,0,1-.175.845h1.4Zm-1.224-3.984h-.8v-.809h.8Z" transform="translate(-270.935 -287.219)"/><path class="a" d="M294.083,330.383c0,.881-.407,1.318-1.223,1.318H292v-.831h.691a.518.518,0,0,0,.518-.24,1.583,1.583,0,0,0,.058-.525V327h.816Z" transform="translate(-275.767 -287.365)"/><rect class="a" width="0.809" height="4.707" transform="translate(19.067 39.63)"/><path class="a" d="M306.066,333.708c0,.867-.524,1.3-1.58,1.3v-.648c.51-.014.765-.355.779-.926a.811.811,0,0,1-.773.372,1.659,1.659,0,1,1,1.573-1.639Zm-.837-1.523c0-.568-.306-.947-.773-.947-.43,0-.714.415-.714.912a.832.832,0,0,0,.75.925.81.81,0,0,0,.737-.89" transform="translate(-282.365 -289.473)"/><path class="a" d="M322.194,331.566h-1.471a2.285,2.285,0,0,1-.817.874,2.091,2.091,0,0,1-1.151.337,2.137,2.137,0,0,1-1.616-.716,2.472,2.472,0,0,1-.693-1.776v-2.027h.823v1.931a2.08,2.08,0,0,0,.365,1.224,1.364,1.364,0,0,0,2.238,0,2.076,2.076,0,0,0,.355-1.224v-1.931h.824v2.027a2.256,2.256,0,0,1-.044.45h1.188Zm-3.023-3.977h-.8v-.81h.8Z" transform="translate(-290.527 -287.229)"/><path class="a" d="M330.954,335.417h-.8V334.6h.8Zm2.592-1.6h-3.358v-.831h.779a.5.5,0,0,0,.495-.248,1.254,1.254,0,0,0,.089-.552v-1.677h.808v1.632a1.337,1.337,0,0,1-.181.845h1.368Zm-1.215,1.6h-.8V334.6h.8Z" transform="translate(-298.803 -289.483)"/><path class="a" d="M343.084,331.192v.51h-4.872v-.831h4a1.782,1.782,0,0,0-.393-1.159,1.549,1.549,0,0,0-1.26-.554h-1.683L340.31,327h.968l-.984,1.39h.357a2.4,2.4,0,0,1,1.4.4,2.648,2.648,0,0,1,1.034,2.4" transform="translate(-303.669 -287.366)"/><path class="a" d="M354.558,331.7H353.6a1.106,1.106,0,0,1-.9-.379,1.424,1.424,0,0,1-.291-.947V327h.809v3.045a.824.824,0,0,0,.234.7,1.135,1.135,0,0,0,.626.123h.48Z" transform="translate(-312.241 -287.366)"/><path class="a" d="M362.9,331.7h-5.741v-.831h4a1.78,1.78,0,0,0-.393-1.159,1.555,1.555,0,0,0-1.262-.554h-1.681L359.253,327h.97l-.984,1.39h.357a2.536,2.536,0,0,1,1.333.35,2.5,2.5,0,0,1,1.092,2.127h.874Z" transform="translate(-315.106 -287.366)"/><path class="a" d="M370.993,333.821v-.831h.742c.417,0,.62-.283.62-.859v-1.617h.824V332.1a1.774,1.774,0,0,1-.132.845v.043h.759c.414,0,.619-.269.619-.808v-1.669h.823V332.1a1.48,1.48,0,0,1-.168.888h.8c.414,0,.617-.269.617-.8v-1.676h.824v1.574a2.106,2.106,0,0,1-.181.9h1.245v.831Z" transform="translate(-323.461 -289.484)"/><path class="a" d="M392.393,331.7h-3.337v-.831h.759a.494.494,0,0,0,.487-.248,1.272,1.272,0,0,0,.087-.553V327h.808v3.021a1.384,1.384,0,0,1-.174.846h1.371Z" transform="translate(-334.367 -287.366)"/><path class="a" d="M399.032,330.383c0,.881-.407,1.318-1.224,1.318h-.859v-.831h.692a.518.518,0,0,0,.518-.24,1.6,1.6,0,0,0,.058-.525V327h.816Z" transform="translate(-339.132 -287.365)"/><g transform="translate(0 0)"><path class="a" d="M279.388,277.432H258.7c-.535,3.361-3.393,5.214-7.665,5.214v-3.014c2.922,0,4.366-1.447,4.366-4.461v-12h3.518v10.681h20.472Zm-20.5-17.151H255.43v-3.487h3.456Z" transform="translate(-251.032 -244.974)"/><rect class="a" width="3.455" height="3.519" transform="translate(28.795 33.98)"/><path class="a" d="M340.771,287.147h-19.82v-3.58h3.362a2.187,2.187,0,0,0,2.136-1.068,5.516,5.516,0,0,0,.378-2.389v-7.224h3.487v7.037c0,1.853-.251,3.047-.786,3.644h11.244Z" transform="translate(-293.247 -254.689)"/><rect class="a" width="3.456" height="3.519" transform="translate(33.484 33.98)"/><path class="a" d="M392.269,273.747h-3.486a12.1,12.1,0,0,1-7-1.727c-1.634,1.161-3.958,1.727-6.942,1.727h-3.864v-3.581h3.675a7.386,7.386,0,0,0,2.922-.347,7.471,7.471,0,0,1-2.325-2.889,7.851,7.851,0,0,1-.722-3.268,5.819,5.819,0,0,1,.376-2.168,7.268,7.268,0,0,1,6.911-4.835c3.55,0,7.32,2.417,7.32,6.878a7.694,7.694,0,0,1-.754,3.329,7.428,7.428,0,0,1-2.294,2.953,7.168,7.168,0,0,0,2.922.347h3.266Zm-8.543-6.376a4.67,4.67,0,0,0,2.072-4.021,4.006,4.006,0,1,0-8.01,0,4.748,4.748,0,0,0,2.073,4.021,12.856,12.856,0,0,0,1.947,1.161,13.356,13.356,0,0,0,1.917-1.161m-.378-13.162h-3.455v-3.518h3.455Z" transform="translate(-323.449 -241.289)"/><path class="a" d="M455.065,287.147H424.722v-3.58H448a7.765,7.765,0,0,0-1.634-5,6.557,6.557,0,0,0-5.4-2.387,6.875,6.875,0,0,0-2.64.6,7.66,7.66,0,0,0-2.826,1.981c-.346-.66-.913-1.572-1.7-2.766a11.892,11.892,0,0,1,3.362-2.229,10.353,10.353,0,0,1,4.147-.881,10.731,10.731,0,0,1,5.718,1.508c2.857,1.76,4.427,4.806,4.711,9.173h3.331Z" transform="translate(-355.901 -254.689)"/><path class="a" d="M507.815,264.072c0,3.8-1.76,5.686-5.276,5.686h-3.708v-3.58h2.985a2.224,2.224,0,0,0,2.229-1.039,6.811,6.811,0,0,0,.251-2.261V244.085h3.518Z" transform="translate(-400.646 -237.301)"/><path class="a" d="M534.674,231.227V242.55a2.968,2.968,0,0,0-2.592-.836,1.827,1.827,0,0,0-.856.367,5.423,5.423,0,0,0-.735-2.591,70.558,70.558,0,0,1,.368-7.773c.428-2.04,1.265-3,2.631-4.754.1.326.2.8.327,1.347a8.445,8.445,0,0,0-2.387,6.018,8.012,8.012,0,0,1,2.612-5.06,9.631,9.631,0,0,0,.633,1.959" transform="translate(-419.762 -226.963)"/><path class="a" d="M534.1,266.3a2,2,0,0,0-1.041-.47,1.9,1.9,0,0,0-2.264,1.041,3.579,3.579,0,0,0,.142,3.223,3.879,3.879,0,0,1,.021,2.408c-.306,1.2.285,2.264.285,3.448,0,.816-.326,1.592-.408,2.408-.081.837.327,1.591.327,2.428,0,.572-1.02.858-.836,1.306.2.49.51,1.082.714,1.591.245.592,2.04.164,2.427-.04a2.406,2.406,0,0,0,1.409-2.142l.326-12.323a3.826,3.826,0,0,0-1.1-2.876m-1.653,16.362a.572.572,0,1,1,.592-.55.558.558,0,0,1-.592.55m0-14.533a.572.572,0,1,1,.592-.551.559.559,0,0,1-.592.551" transform="translate(-419.651 -250.401)"/></g></g></svg>