<?xml version="1.0" encoding="UTF-8"?>
<svg width="730px" height="247px" viewBox="0 0 730 247" version="1.1" xmlns="http://www.w3.org/2000/svg" xmlns:xlink="http://www.w3.org/1999/xlink">
    <!-- Generator: Sketch 54.1 (76490) - https://sketchapp.com -->
    <title>Group 2</title>
    <desc>Created with Sketch.</desc>
    <g id="Theme" stroke="none" stroke-width="1" fill="none" fill-rule="evenodd">
        <g id="Artboard" transform="translate(-130.000000, -194.000000)">
            <g id="Group-2" transform="translate(130.000000, 194.000000)">
                <g id="Tortoise" fill="#4C8C2B">
                    <path d="M161.366858,1.15985544 C159.871464,1.84837343 156.765121,2.95883718 154.46312,3.62831429 C140.923757,7.56520532 136.963982,12.3482728 142.556607,18.0102669 C145.961273,21.4566651 150.395344,22.0705428 156.38221,19.9234939 C171.299903,14.5730084 187.274192,13.9286653 190.534605,18.5456963 C192.085133,20.7414899 192.15386,18.1153726 190.67055,13.3452529 C189.949286,11.0260745 189.610934,9.34666945 189.606403,8.06483784 C189.594319,4.65804474 188.141974,2.69531149 185.270514,2.20634185 C184.598342,2.09133498 182.887701,1.60541188 181.468586,1.12558187 C177.497483,-0.217942173 177.290545,-0.126545979 178.662078,2.36019211 C179.953555,4.7006963 179.406754,4.85530819 175.981697,3.11878052 C169.155749,-0.341327034 165.64988,-0.811255794 161.366858,1.15985544 M169.754662,4.23609898 C171.956971,5.38464448 171.816494,6.10210459 169.506185,5.50802934 C167.469276,4.98554776 167.328045,5.07846723 167.999462,6.50577111 C168.601396,7.78455618 168.442038,8.79524575 167.499486,9.68102719 C165.729181,11.3436763 162.777665,9.64980016 163.18701,7.20647526 C163.441529,5.68853682 163.072212,5.69919971 161.393292,7.25978971 C156.921458,11.4167932 161.375921,14.9462096 168.919356,13.2211064 C170.626976,12.8311493 169.879278,13.7230238 167.940552,14.3894544 C163.977001,15.7512577 158.009018,14.1327834 157.445601,11.5439863 C156.377678,6.6428654 164.791161,1.64806344 169.754662,4.23609898 M134.106117,19.8579933 C127.989349,26.4522287 127.167637,35.8431875 132.076761,43.0566321 C135.784282,48.5038452 136.467028,54.1886884 135.057732,67.8783149 C133.072935,87.1690048 126.960699,108.928915 120.883204,118.346531 C114.614631,128.058138 110.820256,129.902818 103.976182,126.566857 C97.6199999,123.469288 92.8959125,122.716031 79.8217834,122.716031 C76.0432688,122.716031 88.2420633,112.694438 97.142682,108.486405 C119.520733,97.9057726 120.500292,97.3787212 123.201065,94.462421 C125.548382,91.9292232 126.120106,90.4272791 127.666102,82.7431441 C128.288428,79.6531911 128.799732,78.4223891 130.770179,75.2737902 C131.858494,73.534216 132.020872,72.7527785 131.294322,72.7527785 C131.140251,72.7527785 129.618423,73.8198291 127.913069,75.1237481 C122.893679,78.9616266 124.153435,78.6866764 111.34742,78.735421 C86.3305261,78.8298638 79.7825104,82.3371927 75.3038792,98.0390587 C71.4883573,111.416415 69.8328498,114.162109 62.5801861,119.139393 C53.7762393,125.180682 48.2243981,133.124534 48.1096002,139.843677 C48.0355857,144.124828 51.6169802,144.115688 56.4838098,139.823113 C71.5729453,126.513543 88.9550191,127.280509 97.6864619,141.640374 C103.7126,151.55153 102.011022,164.132977 92.0077387,183.632355 C88.2397975,190.978324 87.8296969,191.028592 89.7616259,183.90959 C91.4329936,177.752534 93.3377336,168.86273 94.0182137,164.046151 C94.6579102,159.524324 94.5536858,159.326299 91.8438495,159.889909 C88.6008069,160.565479 88.0842161,160.905169 86.5306673,163.391145 C84.791327,166.172636 84.147099,166.312015 81.0271621,164.582342 C78.8188117,163.358395 78.3785011,163.382767 76.7592456,164.816926 L75.7215323,165.735457 L75.7215323,168.574832 C75.7215323,172.557422 75.0153738,173.486616 72.2647541,173.117985 C66.5256109,172.350257 65.0808181,173.499564 65.7356197,178.31005 C66.329246,182.669649 65.6955914,183.523442 62.1300572,183.169281 L60.1331768,182.970495 L59.166457,184.080958 C57.9965751,185.424482 57.9656099,185.95458 58.9776446,187.31943 C60.6520334,189.576916 60.7139638,189.871669 59.8680841,191.55412 C58.9549871,193.371381 58.4210255,193.700408 56.3871378,193.700408 C54.3925231,193.700408 53.8502538,194.015725 53.2513407,195.525285 C52.6350569,197.079782 52.5852104,196.852815 53.814757,198.092756 C57.0464709,201.352554 52.6879244,204.381576 44.4541912,204.59788 C40.0752529,204.712887 39.5563963,204.784481 38.9408678,205.358754 C37.1886883,206.993222 39.1719742,210.741228 43.4565062,213.893635 C46.5281071,216.154167 46.1716292,217.510639 42.660473,216.92418 C38.3124999,216.197581 36.3246825,217.653065 35.8020496,221.946401 C35.6426919,223.251082 35.3156688,225.091954 35.0747441,226.037904 C34.4584603,228.453049 34.5256775,229.919196 35.367781,232.46458 C35.7703292,233.680911 36.3299692,235.768552 36.6116774,237.103698 C37.4092212,240.889786 39.6508026,242.588231 41.8236562,241.053537 C42.9723911,240.241634 43.7435011,240.608742 44.7472281,242.445044 C46.6746256,245.972175 53.8487433,247.958519 52.4613494,244.580668 C51.7582119,242.869275 52.4485102,242.812152 55.0835767,244.362841 C58.6453347,246.460383 64.2893163,247.733075 64.7432215,246.541117 C64.8421592,246.279876 64.5642273,245.400949 64.1246719,244.586762 C62.9570557,242.423718 64.2870506,241.131985 65.8300259,242.930967 C67.8389903,245.27528 71.8584297,245.092487 73.1619908,242.597371 C73.7299387,241.509756 73.8772124,241.420645 75.197389,241.364284 C77.6700768,241.259178 79.9260079,238.78615 79.9441339,236.160794 C79.9479101,235.636789 80.1548486,234.715211 80.404081,234.114281 C81.6872504,231.016712 80.9161404,228.418775 76.5152999,221.012637 C71.9656752,213.355159 72.1499561,214.383366 74.7185606,211.002469 C84.9348245,197.553519 99.5232294,193.159647 107.8559,201.020481 C109.815018,202.868207 110.765122,203.019011 110.765122,201.482794 C110.765122,200.094333 114.898605,197.887877 118.449789,197.380628 C128.542947,195.939614 140.468341,204.13633 135.329622,208.983374 L134.575882,209.694741 L124.559005,209.604869 C113.323153,209.505094 113.197782,209.483769 112.260517,207.530175 C111.540764,206.030516 111.204678,205.869049 110.901823,206.876692 C110.268168,208.983374 108.993306,209.361145 100.946875,209.826504 C97.956086,210.000157 93.4336503,210.486842 90.8967663,210.908026 C84.5639968,211.960605 83.947713,211.938518 82.6698304,210.608703 C79.7757132,207.597199 76.6248111,211.616346 78.4766836,215.957666 C79.7658949,218.979833 81.2393873,219.210608 89.3160285,217.656873 C100.326815,215.538766 102.568396,215.474789 104.342478,217.230358 L105.646039,218.520567 L110.231916,218.829791 C115.250551,219.167957 116.091144,219.039241 117.688497,217.684292 C119.797155,215.89445 120.608293,215.891403 133.494365,217.630978 C142.41462,218.835122 142.919882,218.78257 144.081456,216.528892 C144.835951,215.065029 144.557264,213.888303 142.642705,210.456376 C138.325698,202.716642 128.894138,180.78841 126.944839,173.957307 C121.92998,156.389435 122.164107,146.589478 127.730298,140.976229 C132.447589,136.219057 141.268906,136.297505 145.767174,141.137695 C146.838118,142.290049 147.235379,142.519301 148.166602,142.522348 C150.288854,142.530726 150.642311,142.759978 150.642311,144.127112 C150.642311,147.150042 152.314434,148.611619 155.773478,148.611619 L158.225774,148.611619 L158.663064,149.668007 C159.234788,151.047328 159.268774,150.925466 157.990136,152.106 L156.879164,153.132684 L157.249236,154.79838 C157.722778,156.931719 158.187256,157.325484 160.913708,157.903565 C164.973931,158.764974 165.423305,160.394873 162.424208,163.387337 C160.684112,165.123865 160.611608,165.257151 160.61614,166.728629 C160.622182,168.76448 160.624448,168.766764 164.014764,170.35325 C167.254785,171.869665 167.665641,172.373106 167.498731,174.619929 C167.410367,175.815696 167.377136,175.846923 165.294157,176.700716 C161.375166,178.307765 161.14557,181.838705 164.838741,183.699379 C166.865077,184.720732 167.337863,185.318615 167.080323,186.534946 C166.790307,187.905127 166.519172,188.109246 164.236807,188.673617 C160.662965,189.557114 160.101059,191.771186 162.693077,194.758319 C165.173317,197.615973 164.800979,199.983134 161.776959,200.588634 C158.998395,201.144628 158.723484,201.870466 160.333676,204.401379 C162.076038,207.139456 160.821568,207.859201 157.450133,206.05565 C154.716884,204.593311 153.855899,204.636724 150.754088,206.392292 C145.887258,209.147126 145.516431,209.742724 146.912132,212.567628 L147.712697,214.188388 L149.404457,214.016258 C150.334169,213.921815 152.250993,213.685709 153.66331,213.491492 C157.969745,212.900463 166.26994,213.787768 169.615696,215.197554 C171.421498,215.958427 170.54843,216.001079 163.818399,215.482405 C150.35305,214.443535 145.976378,216.354477 142.694818,224.705043 C140.859561,229.373865 144.545935,238.908011 147.960419,238.326122 C149.058552,238.13876 149.09707,238.164656 149.683899,239.502087 C150.439149,241.224905 151.158147,241.680363 153.874025,242.156384 L156.047634,242.53644 L157.135194,241.573734 C159.051262,239.877573 160.244557,241.480814 158.669106,243.634718 C156.759834,246.244079 160.674294,246.372795 166.868098,243.904337 C170.253882,242.555481 170.883005,242.563097 170.883005,243.953081 C170.883005,246.706392 176.616862,244.78174 179.887093,240.930152 C181.350012,239.208096 181.784281,239.069478 182.354494,240.144145 C183.648993,242.5829 187.252289,240.569137 188.364017,236.784573 C190.2174,230.476713 190.747585,226.005915 190.240813,220.953991 C189.32545,211.839505 188.367793,210.789973 185.221423,215.460318 C182.362047,219.706433 181.680056,219.320284 183.846868,214.681165 C187.551368,206.751784 189.281645,199.465223 189.526346,190.769636 C190.03765,172.536096 184.905728,160.153435 170.096035,143.889482 C152.707919,124.793771 152.7842,124.911063 153.811339,118.97488 C155.111879,111.46059 157.371587,100.964499 160.909177,86.0052266 C165.550942,66.380179 166.880182,59.7493851 167.26989,54.2800846 C167.726817,47.8686417 167.908076,47.4703066 174.771031,37.7472749 C178.255754,32.8118804 178.822946,32.2398926 182.358271,30.1012217 C189.795971,25.6014824 191.488485,20.0895303 185.92456,18.4855271 C181.930799,17.3339351 164.490571,18.8945251 162.65758,20.5670754 C161.959729,21.2045639 162.045828,21.9037448 163.140185,24.4651231 C168.380863,36.7396319 148.902971,37.8249616 139.909456,25.7599025 C138.221473,23.4955618 137.172431,21.4833223 136.890723,19.9707153 C136.461741,17.6652463 136.152089,17.6530602 134.106117,19.8579933 M119.973883,90.1089156 C120.244262,90.5499023 119.357599,92.0952596 118.115969,93.3473874 C115.850219,95.6322923 113.181922,96.1144072 109.002369,94.9932805 C102.994357,93.381661 95.0143881,93.6756521 88.2065666,95.757962 C86.1371821,96.3916423 85.3887296,96.3482291 85.3887296,95.5949721 C85.3887296,94.2011802 91.981305,91.4463466 97.0195763,90.7342179 C103.006441,89.8888031 119.562272,89.4379153 119.973883,90.1089156 M68.917487,100.454965 C67.7581786,100.918039 65.3821628,101.945484 63.6375358,102.739108 C58.0139459,105.294393 53.8948135,106.892303 50.5588752,107.809312 C44.1264128,109.57859 42.7390189,110.675344 35.5558382,119.669491 C24.2739169,133.795534 23.5216881,135.017958 20.2673168,144.520878 C14.3975155,161.661472 14.7305806,161.168694 5.48330223,166.362283 C0.610430613,169.098837 0.614206862,169.088936 0.30304395,178.492843 C0.0674060171,185.622507 0.100637008,185.810631 1.7221583,186.547894 C2.83313073,187.052858 3.8217527,188.001093 3.8217527,188.560895 C3.8217527,188.675902 2.93811045,189.470287 1.85810326,190.326365 C-0.590416547,192.267011 -0.583619299,191.941031 1.66929081,199.514729 C4.36553255,208.577423 3.72583598,208.001627 13.7910499,210.410678 C30.6980716,214.456483 33.0098912,214.080997 29.2313765,207.904138 C23.3442044,198.281642 23.9280125,195.455976 34.6382097,181.725221 C37.36013,178.236933 37.8072378,177.473775 37.5413899,176.775356 C36.7853849,174.78825 24.3026164,181.740454 17.6367818,187.861714 C14.8952251,190.378918 14.5591389,190.351499 14.7849586,187.627892 C15.4752569,179.326833 22.8638656,166.896951 35.9379946,152.043546 C38.5141516,149.116583 37.4250814,148.174441 33.3603271,149.815764 C29.3227617,151.446424 27.415756,150.695452 27.8183042,147.634441 C29.8899543,131.885354 40.1288757,119.766219 61.8898878,107.305109 C70.0261937,102.646188 71.4921335,101.60351 71.4921335,100.477052 C71.4921335,99.5630902 71.1560474,99.5608053 68.917487,100.454965 M159.499881,109.192441 C159.354117,109.575543 159.583713,109.944936 160.319327,110.508546 C171.982649,119.446332 177.226348,127.567645 179.804016,140.690616 C180.966345,146.611566 182.469292,150.194296 188.219009,160.75665 C193.011824,169.56115 193.339603,170.51624 193.858459,177.211773 C194.719444,188.324788 193.841088,197.448413 191.125965,205.574296 C190.12828,208.561429 189.88358,208.503544 195.533603,206.615451 C204.055842,203.767698 205.460606,202.779858 205.961337,199.283953 C206.459802,195.799474 206.077645,193.756769 204.681944,192.452088 C203.141234,191.012598 203.196367,190.762782 205.180409,190.180893 C207.342689,189.547212 207.598719,189.106987 208.338108,184.744342 C209.631851,177.110475 209.064658,172.702132 206.321591,169.078273 C203.736371,165.66234 198.682995,154.142612 192.798088,138.247291 C188.03926,125.394701 188.336073,125.690215 167.391486,112.953394 C160.309508,108.646349 159.799715,108.403387 159.499881,109.192441 M155.058257,159.579924 C153.847591,160.931064 153.775087,161.271515 154.383819,162.74147 C155.325615,165.014189 157.372342,165.535147 159.116214,163.946377 C161.577573,161.704124 161.410663,160.038428 158.617749,158.985087 C156.416196,158.154143 156.321034,158.169376 155.058257,159.579924 M65.2530151,161.59978 C61.4118146,164.960875 62.2690232,169.664732 66.7144234,169.614464 C71.2829294,169.562673 72.7020437,168.678415 72.6990227,165.883976 C72.6952465,162.146634 72.1575086,161.627199 67.8669346,161.218201 C66.2121823,161.060542 65.8013264,161.11995 65.2530151,161.59978 M155.036354,171.961823 C153.739591,173.673978 153.737325,173.7212 154.865668,175.51485 C156.813457,178.612419 158.865471,178.806636 161.757322,176.167571 C164.964868,173.239847 163.182479,170.546705 158.037717,170.546705 L156.108054,170.546705 L155.036354,171.961823 M57.621216,172.779819 C54.6039931,173.58639 53.1637317,178.43572 55.5578736,179.728215 C55.897736,179.911007 57.5555092,180.132643 59.2412268,180.218708 L62.3075409,180.377128 L63.1239659,179.399188 C64.1360006,178.185904 64.1390216,177.712167 63.1541759,175.335866 C61.8642093,172.223064 61.0734627,171.857479 57.621216,172.779819 M156.684309,182.460961 C154.169328,183.984231 153.908766,184.608771 154.75087,187.100841 C155.254622,188.592884 157.04834,190.04456 158.387398,190.04456 C159.646399,190.04456 162.424208,187.078753 162.424208,185.735229 C162.424208,182.80065 159.18041,180.949877 156.684309,182.460961 M50.0891099,183.75574 C45.9035155,184.885245 45.9699775,192.394965 50.1601033,191.743767 C55.4476071,190.921963 56.5525375,188.868596 53.941639,184.716923 C52.9870033,183.198985 52.5557557,183.090833 50.0891099,183.75574 M156.311971,193.984497 C154.169328,195.354679 153.700318,196.871856 154.836968,198.751571 C156.062739,200.778281 157.841352,200.817886 160.280054,198.874194 C162.054135,197.460599 162.144765,196.986101 160.958268,195.333353 C159.249893,192.95629 158.335285,192.69048 156.311971,193.984497 M45.4851072,197.382913 C44.3907502,198.486522 45.7018638,201.012103 47.3702106,201.012103 C48.2425241,201.012103 49.7409397,199.858988 49.7409397,199.186464 C49.7409397,197.258766 46.8317175,196.024917 45.4851072,197.382913" id="path0"></path>
                </g>
                <g id="partial-brand-horizontal-copy" transform="translate(208.000000, 44.000000)" fill-rule="nonzero">
                    <g id="Group" transform="translate(261.000000, 78.500000) scale(-1, 1) rotate(-180.000000) translate(-261.000000, -78.500000) translate(0.000000, 1.000000)">
                        <path d="M135.625581,153.322511 C131.444186,152.517316 127.802326,151.645022 127.6,151.376623 C126.723256,150.504329 128.139535,149.699134 131.376744,149.296537 L134.748837,148.82684 L134.613953,114.874459 L134.411628,80.8549784 L131.24186,79.8484848 C129.42093,79.3116883 128.004651,78.4393939 128.004651,77.969697 C128.004651,77.2316017 130.567442,77.0974026 141.695349,77.2316017 C150.327907,77.3658009 155.251163,77.7012987 155.116279,78.1038961 C155.048837,78.5064935 153.565116,79.2445887 151.744186,79.8484848 L148.574419,80.9220779 L148.372093,117.893939 L148.237209,154.9329 L145.674419,154.865801 C144.325581,154.798701 139.739535,154.127706 135.625581,153.322511 Z" id="Path" fill="#E35205"></path>
                        <path d="M27.9209302,149.162338 C14.5,145.941558 4.78837209,136.145022 1.55116279,122.658009 C0.269767442,117.222944 0.269767442,106.017316 1.55116279,101.320346 C4.78837209,89.1753247 13.4209302,80.7878788 26.2348837,77.3658009 C31.2930233,76.0238095 44.2418605,75.8225108 51.1209302,77.0974026 C61.4395349,78.9090909 65.755814,80.9220779 61.9116279,82.1298701 C60.6302326,82.5324675 60.5627907,83.1363636 60.5627907,94.1406926 L60.5627907,105.681818 L62.9232558,106.822511 C67.3069767,108.902597 65.755814,109.305195 53.144186,109.305195 C40.3976744,109.305195 38.5767442,108.835498 43.7023256,106.822511 L46.4,105.748918 L46.4,93.8051948 L46.4,81.7943723 L44.5790698,81.3246753 C43.5,80.9891775 40.3976744,80.7878788 37.6325581,80.7878788 C33.3162791,80.7878788 32.0348837,81.0562771 28.9325581,82.8008658 C19.7604651,87.8333333 14.7697674,100.246753 15.6465116,115.679654 C16.7255814,135.138528 24.6837209,145.874459 37.9697674,145.807359 C40.5325581,145.807359 44.1069767,145.404762 45.927907,144.935065 C48.8953488,144.062771 49.3,143.727273 51.5255814,139.4329 C52.8744186,136.883117 55.3023256,133.595238 56.9209302,132.119048 C59.4837209,129.770563 60.0906977,129.502165 61.3046512,130.106061 C62.3162791,130.642857 62.5186047,131.246753 62.1813953,132.320346 C61.9116279,133.125541 61.5069767,136.950216 61.3046512,140.841991 L60.9,147.820346 L52.4697674,149.028139 C42.3534884,150.437229 33.3162791,150.504329 27.9209302,149.162338 Z" id="Path" fill="#E35205"></path>
                        <path d="M381.586047,132.320346 C379.630233,131.649351 376.393023,131.313853 372.481395,131.448052 C350.9,131.850649 351.102326,131.850649 347.393023,130.17316 C338.086047,126.012987 333.972093,115.277056 338.423256,106.554113 C339.839535,103.80303 343.818605,100.112554 346.448837,99.1731602 C348.134884,98.5021645 348.067442,98.4350649 344.560465,97.2272727 C342.604651,96.5562771 340.176744,95.2142857 339.165116,94.2748918 C337.681395,92.7316017 337.411628,91.9264069 337.411628,88.4372294 C337.411628,84.6125541 337.546512,84.2099567 339.906977,82.1298701 L342.402326,79.8484848 L338.760465,77.8354978 C333.162791,74.6818182 331.611628,70.4545455 334.376744,65.9588745 C336.062791,63.3419913 339.165116,61.3961039 344.35814,59.8528139 C349.753488,58.1753247 365.534884,58.1753247 370.795349,59.7857143 C376.190698,61.4632035 381.586047,64.952381 383.87907,68.2402597 C385.632558,70.7229437 385.969767,71.8636364 386.172093,76.1580087 C386.509302,81.8614719 386.172093,82.5324675 381.653488,84.8138528 C377.472093,86.8939394 370.795349,88.2359307 360.34186,89.1753247 C351.574419,89.9805195 348.539535,90.9199134 348.539535,92.8658009 C348.539535,94.8116883 351.776744,96.0194805 358.453488,96.5562771 C362.095349,96.8246753 366.276744,97.4285714 367.760465,97.8311688 C372.144186,98.9718615 376.595349,102.192641 378.551163,105.614719 C382.260465,111.854978 382.260465,117.290043 378.483721,122.792208 L376.190698,126.080087 L381.316279,126.080087 L386.509302,126.080087 L386.037209,128.160173 C385.834884,129.300866 385.632558,130.978355 385.632558,131.850649 C385.632558,133.662338 385.7,133.662338 381.586047,132.320346 Z M363.916279,127.489177 C369.716279,123.396104 370.390698,107.829004 365.130233,102.25974 C363.174419,100.246753 362.432558,99.9112554 359.734884,99.9112554 C355.486047,99.9112554 352.923256,101.387446 351.102326,104.809524 C349.753488,107.225108 349.551163,108.634199 349.551163,114.67316 C349.551163,120.510823 349.82093,122.188312 350.967442,124.402597 C353.530233,129.300866 359.397674,130.709957 363.916279,127.489177 Z M362.702326,76.7619048 C373.155814,75.5541126 374.167442,75.1515152 374.167442,71.8636364 C374.167442,68.508658 371.94186,65.2207792 368.434884,63.4090909 C366.209302,62.2683983 364.523256,62 358.993023,62 C351.237209,62 347.932558,63.2077922 345.369767,67.0324675 C343.346512,69.9177489 343.27907,74.2792208 345.234884,76.6948052 C346.853488,78.7077922 345.437209,78.7077922 362.702326,76.7619048 Z" id="Shape" fill="#E35205"></path>
                        <path d="M178.586047,132.051948 C173.123256,131.448052 167.255814,129.300866 163.546512,126.482684 C160.24186,123.9329 159.972093,121.987013 162.4,117.021645 C163.816279,114.136364 164.018605,114.002165 166.783721,114.002165 L169.616279,114.002165 L170.088372,117.222944 C170.290698,118.967532 170.965116,121.785714 171.572093,123.463203 C172.718605,127.08658 174.876744,128.361472 179.867442,128.361472 C186.746512,128.294372 189.444186,124.738095 189.646512,115.478355 L189.713953,109.774892 L182.969767,107.963203 C172.516279,105.145022 167.255814,102.796537 161.927907,98.6363636 C159.769767,96.8917749 159.702326,96.8246753 159.702326,91.3225108 C159.702326,88.1017316 160.106977,84.8809524 160.646512,83.6060606 C164.355814,74.9502165 178.923256,73.5411255 187.488372,81.0562771 L189.983721,83.2034632 L191.062791,81.1233766 C192.681395,77.969697 195.783721,76.4264069 200.369767,76.4264069 C206.776744,76.4264069 210.081395,78.7077922 212.644186,84.8138528 C213.588372,86.961039 213.588372,87.2294372 212.509302,87.6320346 C211.834884,87.9004329 211.227907,87.6991342 211.093023,87.2294372 C210.486047,85.4848485 206.709302,81.7943723 205.562791,81.7943723 C202.797674,81.7943723 202.595349,83.1363636 202.797674,100.448052 C202.865116,113.935065 202.730233,117.692641 201.853488,120.577922 C199.223256,129.300866 191.130233,133.32684 178.586047,132.051948 Z M189.646512,96.0865801 C189.174419,85.0151515 188.972093,84.478355 184.116279,83.1363636 C179.8,81.995671 177.439535,82.3311688 175.07907,84.4112554 C172.988372,86.2229437 172.92093,86.5584416 172.516279,92.530303 L172.17907,98.7705628 L174.74186,100.448052 C177.372093,102.192641 186.813953,105.816017 188.837209,105.883117 C189.916279,105.950216 189.983721,105.145022 189.646512,96.0865801 Z" id="Shape" fill="#E35205"></path>
                        <path d="M85.5162791,131.179654 C82.2116279,130.24026 77.4906977,128.025974 74.5906977,125.945887 C72.2302326,124.335498 72.1627907,121.584416 74.3209302,117.357143 C75.6697674,114.606061 76.0744186,114.337662 78.6372093,114.136364 C81.3348837,113.935065 81.4023256,113.935065 81.8069767,116.484848 C82.0767442,117.893939 82.7511628,120.712121 83.4255814,122.725108 C84.8418605,127.15368 86.6627907,128.294372 92.1255814,128.294372 C98.8023256,128.294372 101.230233,125.073593 101.567442,115.545455 C101.837209,109.774892 101.702326,109.305195 100.555814,109.305195 C95.4302326,109.305195 78.7046512,102.528139 73.9162791,98.5692641 C71.4883721,96.5562771 71.3534884,96.2878788 71.3534884,92.3290043 C71.3534884,81.7272727 75.8046512,76.6277056 85.2465116,76.2251082 C90.5069767,76.0238095 94.6883721,77.3658009 98.8023256,80.3852814 L102.106977,82.9350649 L103.253488,81.0562771 C105.006977,78.0367965 108.244186,76.4264069 112.695349,76.4264069 C114.853488,76.4264069 117.483721,76.8961039 118.495349,77.4329004 C122.406977,79.3787879 126.318605,85.7532468 124.632558,87.3636364 C124.025581,87.9675325 123.62093,87.9004329 123.013953,86.8268398 C121.732558,84.6125541 118.697674,81.7943723 117.618605,81.7943723 C117.07907,81.7943723 116.134884,82.2640693 115.527907,82.8679654 C114.516279,83.8744589 114.448837,85.9545455 114.651163,101.521645 L114.853488,119.034632 L113.1,122.792208 C109.930233,129.502165 104.669767,132.186147 94.6883721,132.051948 C91.3162791,132.051948 87.2023256,131.649351 85.5162791,131.179654 Z M101.702326,95.8852814 L101.702326,85.7532468 L98.1953488,84.1428571 C92.5976744,81.525974 88.1465116,82.1298701 85.7186047,85.7532468 C84.2348837,88.034632 83.627907,97.4285714 84.9093023,98.9718615 C86.527907,100.917749 97.655814,105.748918 100.893023,105.883117 C101.5,105.950216 101.702326,103.534632 101.702326,95.8852814 Z" id="Shape" fill="#E35205"></path>
                        <path d="M220.804651,130.106061 C210.823256,127.489177 210.216279,126.683983 217.027907,125.54329 L220.062791,125.006494 L220.265116,94.1406926 L220.4,63.2748918 L216.690698,62.0670996 C214.667442,61.4632035 212.981395,60.6580087 212.981395,60.2554113 C212.981395,59.9199134 218.916279,59.6515152 227.818605,59.6515152 C245.083721,59.6515152 246.365116,60.1212121 235.776744,62.7380952 L233.888372,63.1406926 L233.888372,70.521645 C233.888372,77.0974026 234.023256,77.8354978 234.967442,77.5 C235.574419,77.2316017 238.137209,76.7619048 240.632558,76.4264069 C254.930233,74.4134199 267.002326,82.6666667 270.239535,96.6233766 C271.251163,100.850649 271.116279,111.720779 270.037209,115.679654 C267.137209,126.482684 261.404651,131.515152 251.22093,131.984848 C245.083721,132.320346 241.576744,131.246753 236.855814,127.690476 C235.237209,126.415584 233.753488,125.409091 233.551163,125.409091 C233.348837,125.409091 233.213953,126.952381 233.213953,128.764069 L233.213953,132.119048 L230.718605,132.051948 C229.302326,131.984848 224.851163,131.112554 220.804651,130.106061 Z M248.186047,124.738095 C255.132558,122.792208 258.504651,111.922078 256.886047,96.8917749 C255.94186,88.7056277 253.648837,83.538961 250.14186,81.525974 C245.960465,79.1103896 239.553488,80.1839827 235.439535,84.008658 C233.888372,85.3506494 233.888372,85.5519481 233.888372,103.668831 L233.888372,121.919913 L237.395349,123.664502 C241.104651,125.54329 244.206977,125.811688 248.186047,124.738095 Z" id="Shape" fill="#E35205"></path>
                        <path d="M289.730233,130.575758 C287.234884,129.703463 283.660465,127.958874 281.772093,126.683983 C278.4,124.469697 278.332558,124.335498 278.737209,121.785714 C278.939535,120.309524 279.748837,117.961039 280.55814,116.551948 C281.906977,114.203463 282.244186,114.002165 284.94186,114.002165 C287.639535,114.002165 287.84186,114.136364 287.84186,115.880952 C287.84186,117.82684 288.786047,121.919913 289.932558,124.872294 C291.348837,128.361472 299.576744,129.703463 303.218605,126.952381 C306.455814,124.536797 307.467442,122.054113 307.602326,115.612554 L307.737209,109.774892 L300.993023,107.963203 C290.74186,105.212121 285.346512,102.796537 279.951163,98.6363636 C277.793023,96.8917749 277.725581,96.8246753 277.725581,91.3225108 C277.725581,88.1017316 278.130233,84.8809524 278.669767,83.6060606 C282.37907,74.9502165 296.946512,73.5411255 305.511628,81.0562771 L308.006977,83.2034632 L309.086047,81.1233766 C310.704651,77.969697 313.806977,76.4264069 318.393023,76.4264069 C324.8,76.4264069 328.104651,78.7077922 330.667442,84.8138528 C331.611628,86.961039 331.611628,87.2294372 330.532558,87.6320346 C329.85814,87.9004329 329.251163,87.6991342 329.116279,87.2294372 C328.509302,85.4848485 324.732558,81.7943723 323.586047,81.7943723 C320.955814,81.7943723 320.753488,83.1363636 320.82093,100.380952 C320.955814,119.034632 320.416279,122.255411 316.706977,126.482684 C313.065116,130.642857 310.097674,131.71645 301.667442,131.917749 C295.260465,132.119048 293.64186,131.917749 289.730233,130.575758 Z M307.265116,95.7510823 L307.062791,85.5519481 L304.904651,84.2770563 C303.690698,83.6060606 301.060465,82.8679654 299.037209,82.6666667 C295.462791,82.3311688 295.193023,82.3982684 292.9,84.6796537 C290.539535,87.0281385 290.539535,87.0281385 290.539535,93.1341991 L290.539535,99.1731602 L293.574419,100.984848 C296.54186,102.662338 304.769767,105.816017 306.590698,105.883117 C307.265116,105.950216 307.4,103.668831 307.265116,95.7510823 Z" id="Shape" fill="#E35205"></path>
                        <path d="M406.404651,130.844156 C399.255814,128.025974 394.062791,123.127706 391.702326,116.954545 C387.183721,104.876623 389.072093,91.45671 396.423256,83.538961 C405.932558,73.2727273 425.086047,73.6753247 434.865116,84.2770563 C441.811628,91.8593074 443.902326,105.279221 439.923256,116.686147 C437.562791,123.463203 431.627907,129.032468 424.47907,131.112554 C419.75814,132.521645 410.383721,132.387446 406.404651,130.844156 Z M419.151163,127.489177 C425.018605,124.805195 427.648837,117.424242 427.716279,103.601732 C427.716279,94.0735931 426.839535,89.0411255 424.344186,84.7467532 C420.567442,78.1038961 412.069767,78.3051948 407.416279,85.1493506 C405.393023,88.034632 404.651163,90.8528139 403.706977,98.3679654 C402.897674,104.742424 403.572093,114.74026 405.190698,120.175325 C406.539535,124.738095 411.05814,128.69697 414.969767,128.69697 C415.711628,128.69697 417.6,128.160173 419.151163,127.489177 Z" id="Shape" fill="#E35205"></path>
                        <path d="M462.516279,131.515152 C453.816279,128.831169 448.75814,121.718615 450.039535,113.867965 C451.32093,106.285714 455.434884,102.997835 468.855814,98.8376623 C471.148837,98.0995671 473.846512,96.6904762 475.127907,95.482684 C477.083721,93.6038961 477.353488,93 477.353488,89.7792208 C477.353488,82.9350649 473.172093,79.2445887 466.15814,79.982684 C460.223256,80.5865801 458.132558,81.8614719 455.839535,86.2900433 C453.613953,90.7186147 449.769767,94.7445887 448.555814,94.0064935 C447.948837,93.6038961 447.881395,91.7251082 448.218605,86.8939394 L448.690698,80.2510823 L453.344186,78.7077922 C473.44186,71.9307359 489.493023,78.7077922 489.493023,93.8722944 C489.493023,102.461039 485.176744,106.688312 471.95814,110.982684 C464.337209,113.465368 461.84186,115.813853 461.84186,120.577922 C461.84186,126.415584 465.888372,129.367965 472.834884,128.495671 C477.016279,127.958874 477.353488,127.757576 479.24186,124.603896 C482.613953,119.101732 488.953488,115.478355 487.874419,119.638528 C487.672093,120.376623 487.334884,123.060606 487.065116,125.47619 L486.660465,129.904762 L480.725581,130.978355 C474.723256,132.119048 465.483721,132.387446 462.516279,131.515152 Z" id="Path" fill="#E35205"></path>
                        <path d="M96.3069767,64.8181818 C91.3837209,63.6774892 85.9883721,60.6580087 83.0209302,57.4372294 C73.9837209,47.4393939 74.1860465,27.7792208 83.4255814,18.8549784 C92.1255814,10.4675325 107.367442,10.1320346 114.92093,18.1839827 C117.551163,20.9350649 119.439535,24.5584416 118.967442,25.8333333 C118.697674,26.504329 117.618605,25.7662338 115.325581,23.4848485 C111.751163,19.9285714 107.232558,18.0497835 102.376744,18.0497835 C98.9372093,18.0497835 93.6093023,20.9350649 91.4511628,23.9545455 C88.2139535,28.517316 87.3372093,32.6103896 87.6744186,41.4675325 C87.944186,48.7813853 88.1465116,49.7878788 90.1697674,53.8809524 C93.0023256,59.5844156 96.172093,61.9329004 101.230233,61.9329004 C106.827907,62 107.906977,61.4632035 109.997674,57.4372294 C112.35814,52.9415584 115.325581,49.9220779 116.876744,50.525974 C117.686047,50.7943723 117.888372,51.3982684 117.686047,52.4718615 C117.483721,53.2770563 117.07907,56.0952381 116.809302,58.7792208 L116.404651,63.6103896 L112.965116,64.3484848 C107.434884,65.4891775 100.286047,65.6904762 96.3069767,64.8181818 Z" id="Path" fill="#4C8C2B"></path>
                        <path d="M137.918605,52.2705628 C129.083721,50.0562771 124.093023,43.6818182 123.418605,33.7510823 C122.609302,20.9350649 129.893023,12.4134199 141.762791,12.4805195 C147.427907,12.4805195 152.351163,14.2922078 155.52093,17.5800866 C161.860465,24.0887446 162.804651,37.4415584 157.476744,45.3593074 C153.767442,50.8614719 144.932558,53.9480519 137.918605,52.2705628 Z M146.551163,47.3722944 C149.518605,44.4199134 150.530233,40.5952381 150.597674,32.1406926 C150.597674,20.5995671 148.169767,15.3658009 142.774419,15.3658009 C139.469767,15.3658009 136.569767,17.7813853 134.951163,21.9415584 C133.467442,25.9004329 133.265116,38.2467532 134.681395,43.0108225 C136.637209,49.7878788 142.1,51.8008658 146.551163,47.3722944 Z" id="Shape" fill="#4C8C2B"></path>
                        <path d="M170.290698,51.1298701 C163.47907,49.3852814 162.197674,48.1774892 166.513953,47.5735931 L168.806977,47.2380952 L169.009302,31.7380952 L169.144186,16.2380952 L166.311628,14.9632035 L163.411628,13.7554113 L168.672093,13.487013 C171.572093,13.4199134 176.090698,13.4199134 178.788372,13.487013 L183.644186,13.6883117 L181.148837,14.8961039 L178.586047,16.0367965 L178.586047,30.530303 L178.586047,44.95671 L181.486047,46.2316017 C185.397674,48.04329 188.230233,47.9090909 190.523256,45.9632035 L192.411628,44.3528139 L192.613953,30.1948052 L192.816279,16.1038961 L190.253488,14.8961039 L187.690698,13.6883117 L192.951163,13.487013 C195.851163,13.3528139 200.369767,13.4199134 203.067442,13.487013 L207.923256,13.7554113 L205.090698,14.9632035 L202.190698,16.2380952 L202.190698,29.3896104 C202.190698,36.6363636 201.853488,43.6818182 201.516279,45.0238095 C199.35814,52.7402597 188.972093,55.0887446 181.283721,49.5194805 L178.653488,47.6406926 L178.451163,50.0562771 C178.316279,51.3982684 177.97907,52.538961 177.574419,52.6731602 C177.237209,52.7402597 173.932558,52.0692641 170.290698,51.1298701 Z" id="Path" fill="#4C8C2B"></path>
                        <path d="M222.760465,52.3376623 C216.555814,50.7943723 212.306977,46.1645022 212.306977,40.9978355 C212.374419,38.3138528 214.667442,33.7510823 216.690698,32.4090909 C217.634884,31.8051948 221.074419,30.3290043 224.311628,29.1883117 C229.504651,27.3766234 230.313953,26.8398268 231.325581,24.7597403 C232.269767,22.8138528 232.404651,21.8744589 231.797674,19.8614719 C230.988372,16.7748918 228.965116,15.3658009 225.390698,15.3658009 C220.804651,15.3658009 218.511628,16.5064935 216.960465,19.6601732 C215.206977,23.0151515 213.048837,25.4307359 211.767442,25.4307359 C211.025581,25.4307359 210.890698,24.5584416 211.295349,20.5995671 C211.565116,17.9155844 211.902326,15.5 212.037209,15.2987013 C212.644186,14.2251082 221.276744,12.4805195 225.795349,12.4805195 C233.753488,12.4805195 239.081395,15.969697 240.632558,22.1428571 C242.386047,29.0541126 238.676744,34.0194805 229.369767,37.1060606 C226.402326,38.1125541 223.3,39.5887446 222.490698,40.3939394 C220.534884,42.5411255 220.602326,45.8290043 222.760465,47.9090909 C224.986047,50.1904762 230.583721,50.3246753 232.404651,48.1774892 C236.248837,43.4134199 237.530233,42.2056277 238.744186,42.2056277 C239.823256,42.2056277 240.025581,42.5411255 239.688372,43.7489177 C239.486047,44.5541126 239.283721,46.5 239.283721,47.9761905 L239.283721,50.7943723 L233.416279,51.8679654 C227.076744,53.008658 225.862791,53.0757576 222.760465,52.3376623 Z" id="Path" fill="#4C8C2B"></path>
                        <path d="M257.493023,51.6666667 C250.006977,49.0497835 245.353488,41.534632 245.353488,32.2077922 C245.353488,19.9285714 251.895349,12.547619 262.955814,12.4134199 C268.351163,12.4134199 272.802326,14.3593074 275.904651,18.1839827 C278.737209,21.6731602 277.725581,22.4112554 273.611628,19.9285714 C269.160465,17.1774892 263.630233,16.6406926 260.393023,18.6536797 C257.627907,20.3982684 255.604651,24.2900433 255.065116,29.1212121 L254.593023,32.8787879 L266.597674,32.6774892 L278.602326,32.4761905 L278.197674,37.2402597 C277.65814,44.2186147 275.230233,48.4458874 270.239535,50.9285714 C266.395349,52.9415584 261.809302,53.1428571 257.493023,51.6666667 Z M267.676744,45.9632035 C268.418605,44.3528139 268.95814,41.6688312 268.95814,39.3874459 L268.95814,35.5627706 L262.146512,35.3614719 C257.223256,35.2272727 255.2,35.3614719 254.997674,35.965368 C254.525581,37.1060606 255.94186,43.2792208 257.290698,46.0974026 C259.651163,51.0627706 265.383721,50.995671 267.676744,45.9632035 Z" id="Shape" fill="#4C8C2B"></path>
                        <path d="M287.84186,51.1298701 C284.334884,50.2575758 281.3,49.3181818 281.097674,49.1839827 C280.55814,48.5800866 282.716279,47.5735931 284.672093,47.5735931 L286.493023,47.5735931 L286.35814,31.6709957 L286.155814,15.7683983 L283.660465,15.1645022 C278.534884,13.95671 281.367442,13.3528139 291.888372,13.3528139 C298.632558,13.3528139 302.67907,13.6212121 302.67907,14.0238095 C302.67907,14.4264069 302.274419,14.6948052 301.869767,14.6948052 C301.397674,14.6948052 299.846512,15.030303 298.497674,15.4329004 L295.934884,16.1038961 L295.934884,29.45671 L295.934884,42.7424242 L298.093023,44.5541126 C302.948837,48.6471861 304.230233,48.3787879 305.039535,43.3463203 C305.511628,40.8636364 305.57907,40.7965368 307.939535,40.9978355 C310.367442,41.1991342 310.434884,41.2662338 311.244186,44.8896104 C312.525581,51.1298701 312.390698,52.1363636 310.165116,52.6060606 C306.927907,53.2770563 302.004651,51.5995671 298.834884,48.7142857 L295.934884,46.030303 L295.934884,49.5194805 C295.934884,51.8679654 295.665116,52.9415584 295.125581,52.8744589 C294.653488,52.8744589 291.348837,52.0692641 287.84186,51.1298701 Z" id="Path" fill="#4C8C2B"></path>
                        <path d="M370.997674,52.2705628 C367.153488,51.465368 361.690698,49.0497835 360.34186,47.5064935 C358.183721,45.1580087 360.746512,39.521645 363.983721,39.521645 C365.737209,39.521645 365.939535,39.7900433 366.681395,43.2792208 C367.760465,48.04329 369.311628,49.5865801 372.886047,49.5865801 C378.146512,49.5865801 380.237209,46.9025974 380.237209,40.1926407 C380.237209,36.9718615 380.034884,36.1666667 379.15814,36.1666667 C376.730233,36.1666667 365.467442,31.9393939 362.230233,29.7251082 L358.655814,27.4437229 L358.655814,23.5519481 C358.655814,16.2380952 362.297674,12.4805195 369.37907,12.4805195 C373.088372,12.4805195 376.527907,13.6883117 379.023256,15.9025974 C380.102326,16.7748918 380.372093,16.7077922 382.193023,14.7619048 C383.946512,12.9502165 384.553488,12.6818182 387.790698,12.6818182 C389.746512,12.7489177 392.039535,13.0844156 392.916279,13.6212121 C394.804651,14.6277056 397.097674,17.9155844 397.097674,19.5930736 C397.097674,21.2705628 396.22093,21.0021645 394.467442,18.6536797 C393.455814,17.3116883 392.511628,16.7077922 391.5,16.8419913 C390.016279,17.04329 390.016279,17.3116883 389.67907,30.7987013 C389.409302,43.0779221 389.206977,44.8225108 387.925581,46.9025974 C385.362791,51.3311688 377.876744,53.7467532 370.997674,52.2705628 Z M380.237209,26.4372294 L380.237209,19.4588745 L378.281395,18.3852814 C377.202326,17.8484848 375.448837,17.3787879 374.369767,17.3116883 C369.783721,16.9761905 368.097674,19.0562771 368.097674,25.0281385 C368.097674,29.1212121 368.906977,29.9935065 375.111628,32.2077922 C380.439535,34.0865801 380.237209,34.3549784 380.237209,26.4372294 Z" id="Shape" fill="#4C8C2B"></path>
                        <path d="M405.730233,51.1298701 C398.716279,49.3181818 397.030233,47.8419913 401.683721,47.4393939 L404.17907,47.2380952 L404.381395,31.6709957 L404.516279,16.1038961 L401.818605,15.2987013 C400.334884,14.8290043 399.12093,14.2251082 399.12093,13.8896104 C399.12093,13.6212121 403.504651,13.3528139 408.9,13.3528139 C414.295349,13.3528139 418.67907,13.487013 418.67907,13.7554113 C418.67907,13.95671 417.6,14.5606061 416.318605,15.0974026 L413.95814,16.0367965 L413.95814,30.530303 L413.95814,44.95671 L417.060465,46.3658009 C420.769767,47.9761905 424.276744,47.6406926 426.367442,45.5606061 C427.716279,44.2857143 427.783721,43.2792208 427.986047,30.1277056 L428.188372,16.1038961 L425.625581,14.8961039 L423.062791,13.6883117 L428.323256,13.487013 C431.223256,13.3528139 435.74186,13.3528139 438.439535,13.487013 C443.025581,13.6883117 443.227907,13.7554113 441.272093,14.5606061 C440.193023,15.030303 438.844186,15.5670996 438.439535,15.7012987 C437.765116,15.9025974 437.562791,19.2575758 437.562791,29.3225108 C437.562791,37.508658 437.293023,43.547619 436.82093,44.95671 C434.190698,52.8073593 424.344186,55.0887446 416.723256,49.5194805 L414.025581,47.6406926 L413.823256,50.0562771 C413.688372,51.3982684 413.351163,52.538961 412.946512,52.6731602 C412.609302,52.7402597 409.304651,52.0692641 405.730233,51.1298701 Z" id="Path" fill="#4C8C2B"></path>
                        <path d="M459.144186,52.0692641 C449.904651,49.5194805 445.048837,42.6082251 444.981395,32.0735931 C444.981395,22.6796537 447.611628,17.4458874 454.086047,14.2922078 C458.806977,12.0108225 465.483721,11.8095238 469.934884,13.8225108 C473.104651,15.1645022 477.353488,19.3917749 477.353488,21.0692641 C477.353488,22.478355 476.409302,22.3441558 473.576744,20.3982684 C471.081395,18.7207792 467.237209,17.3787879 464.876744,17.3787879 C464.134884,17.3787879 462.313953,17.982684 460.762791,18.6536797 C456.986047,20.3982684 454.962791,24.491342 454.55814,31.469697 C454.153488,38.5822511 455.367442,43.7489177 458.132558,46.8354978 C460.155814,48.982684 460.762791,49.2510823 463.865116,49.2510823 C467.844186,49.2510823 468.248837,48.8484848 469.327907,43.4134199 C470.069767,39.7229437 470.204651,39.521645 472.093023,39.521645 C473.711628,39.521645 474.251163,39.991342 475.330233,42.4069264 C476.072093,43.9502165 476.67907,46.0974026 476.67907,47.1038961 C476.67907,48.7142857 476.206977,49.1839827 473.172093,50.5930736 C468.653488,52.6060606 463.123256,53.1428571 459.144186,52.0692641 Z" id="Path" fill="#4C8C2B"></path>
                        <path d="M314.144186,51.0627706 C314.144186,50.7272727 315.088372,50.0562771 316.234884,49.5194805 C318.055814,48.7142857 319.202326,46.6341991 326.283721,30.7987013 C330.734884,21.0021645 334.781395,12.7489177 335.388372,12.3463203 C336.062791,11.8766234 336.737209,11.8766234 337.47907,12.3463203 C338.018605,12.7489177 341.795349,21.0021645 345.706977,30.7987013 C352.451163,47.3722944 353.05814,48.6471861 355.081395,49.5865801 C356.295349,50.1233766 357.306977,50.7943723 357.306977,51.1298701 C357.306977,51.3982684 354.609302,51.5995671 351.237209,51.5995671 C345.369767,51.5995671 343.27907,50.7943723 346.853488,49.8549784 C347.797674,49.6536797 348.539535,49.0497835 348.539535,48.5800866 C348.539535,48.1103896 346.448837,42.3398268 343.886047,35.7640693 C339.704651,25.0952381 339.097674,23.9545455 338.55814,25.4307359 C338.153488,26.3701299 335.860465,31.9393939 333.432558,37.7770563 C331.004651,43.6818182 328.981395,48.5800866 328.981395,48.7142857 C328.981395,48.8484848 329.925581,49.3181818 331.004651,49.6536797 C334.983721,51.0627706 332.893023,51.5995671 323.586047,51.5995671 C318.393023,51.5995671 314.144186,51.3311688 314.144186,51.0627706 Z" id="Path" fill="#4C8C2B"></path>
                        <path d="M478.702326,50.995671 C478.702326,50.6601732 479.646512,50.0562771 480.725581,49.6536797 C482.344186,49.1168831 483.22093,47.9761905 485.04186,44.0844156 C486.323256,41.4004329 490.234884,33.2142857 493.809302,25.9004329 L500.216279,12.547619 L498.934884,10.0649351 C497.383721,7.04545455 493.337209,3.28787879 491.516279,3.28787879 C490.639535,3.28787879 490.167442,3.95887446 489.830233,5.5021645 C489.02093,9.52813853 488.751163,9.9978355 487.2,9.9978355 C484.772093,9.9978355 483.760465,8.25324675 483.760465,4.02597403 L483.760465,0.268398268 L487.806977,0.0670995671 C493.539535,-0.268398268 496.372093,0.805194805 499.474419,4.29437229 C502.239535,7.44805195 502.77907,8.72294372 511.951163,33.482684 C517.211628,47.7748918 517.616279,48.6471861 519.706977,49.5194805 C520.853488,50.0562771 521.865116,50.7272727 521.865116,51.0627706 C521.865116,51.3311688 519.167442,51.5995671 515.795349,51.5995671 C509.927907,51.5995671 507.837209,50.7943723 511.411628,49.8549784 C512.355814,49.6536797 513.097674,49.0497835 513.097674,48.5800866 C513.097674,47.4393939 504.937209,23.9545455 504.6,24.2900433 C504.330233,24.491342 495.15814,44.95671 494.146512,47.4393939 C493.606977,48.7813853 493.809302,49.0497835 495.562791,49.7207792 C499.54186,51.0627706 497.451163,51.5995671 488.144186,51.5995671 C482.951163,51.5995671 478.702326,51.3311688 478.702326,50.995671 Z" id="Path" fill="#4C8C2B"></path>
                    </g>
                </g>
            </g>
        </g>
    </g>
</svg>