<svg xmlns="http://www.w3.org/2000/svg" width="102.11" height="61.889" viewBox="0 0 102.11 61.889"><defs><style>.a{fill:none;stroke:#fff;stroke-miterlimit:22.93;fill-rule:evenodd;}</style></defs><path class="a" d="M11,93.764c5.991-3.564,13.526-5.524,21.58-6.078M35.6,87.54C52,87.118,69.981,92.256,81.19,101.3M16.779,55.087a17.389,17.389,0,0,0,3.17,6.486c2.915,3.717,6.77,3.323,10.7,1.4-.357-4.373-1.99-7.871-6.676-8.476a17.411,17.411,0,0,0-7.193.59ZM35.728,40.3a15.188,15.188,0,0,0-3.593,5.233c-1.567,3.826.4,6.6,3.571,8.745,3.17-2.186,5.138-4.934,3.564-8.745A15.181,15.181,0,0,0,35.706,40.3Zm0,56.314V54.293M15.963,69.852A19.269,19.269,0,0,0,19.512,77.1c3.258,4.154,7.565,3.717,11.952,1.567-.4-4.876-2.23-8.8-7.463-9.474a19.452,19.452,0,0,0-8.017.663ZM54.851,55.087a17.527,17.527,0,0,1-3.178,6.486c-2.915,3.717-6.77,3.323-10.7,1.4.357-4.373,1.99-7.871,6.683-8.476A17.44,17.44,0,0,1,54.851,55.087Zm.816,14.765A19.5,19.5,0,0,1,52.118,77.1c-3.221,4.154-7.594,3.717-11.967,1.567.4-4.876,2.23-8.8,7.463-9.474a19.5,19.5,0,0,1,8.017.663ZM70.12,59.8a12.251,12.251,0,0,0,2.245,4.591c2.062,2.631,4.8,2.354,7.572.991-.255-3.09-1.407-5.575-4.723-6a12.207,12.207,0,0,0-5.1.415ZM83.537,49.322a10.786,10.786,0,0,0-2.522,3.7c-1.115,2.718.277,4.679,2.522,6.209,2.245-1.53,3.644-3.491,2.529-6.209a10.793,10.793,0,0,0-2.529-3.7Zm0,39.355V59.234M69.544,70.246a13.607,13.607,0,0,0,2.507,5.1c2.31,2.915,5.357,2.631,8.469,1.108-.284-3.447-1.581-6.231-5.291-6.7a13.847,13.847,0,0,0-5.685.466ZM97.07,59.8a12.389,12.389,0,0,1-2.245,4.591c-2.062,2.631-4.8,2.354-7.572.991.248-3.09,1.407-5.575,4.723-6a12.207,12.207,0,0,1,5.1.415Zm.583,10.451a13.745,13.745,0,0,1-2.514,5.1c-2.31,2.915-5.357,2.631-8.469,1.108.284-3.447,1.581-6.231,5.284-6.7a13.847,13.847,0,0,1,5.7.466ZM42.338,87.664c10.823-5.007,24.91-6.559,38.152-4.985m2.981.408c11.508,1.771,22.126,5.9,29.05,12.105" transform="translate(-10.744 -39.8)"/></svg>