<svg xmlns="http://www.w3.org/2000/svg" width="49.678" height="47.74" viewBox="0 0 49.678 47.74"><defs><style>.a{fill:none;stroke:#fff;stroke-linecap:round;stroke-linejoin:round;}</style></defs><g transform="translate(0.529 0.5)"><path class="a" d="M10.2,93.18c15.88,0,27.5,4.65,35.956,18.4" transform="translate(-10.2 -65.046)"/><line class="a" x1="23.267" transform="translate(25.383 30.671)"/><line class="a" x1="15.866" transform="translate(32.784 35.956)"/><line class="a" x1="11.633" transform="translate(37.016 41.245)"/><line class="a" x1="9.521" transform="translate(39.129 46.533)"/><path class="a" d="M10.2,108.608s17.978-1.06,28.555,12.69" transform="translate(-10.2 -74.764)"/><path class="a" d="M10.2,123s12.69,0,20.094,7.386" transform="translate(-10.2 -83.853)"/><path class="a" d="M10.2,137.27a31.949,31.949,0,0,1,10.573,2.116" transform="translate(-10.2 -92.853)"/><path class="a" d="M18.327,42.77s3.623,5.957,3.623,8.808a3.634,3.634,0,1,1-7.25,0C14.7,48.727,18.327,42.77,18.327,42.77Z" transform="translate(-13.038 -33.253)"/><path class="a" d="M69.867,42.77s3.627,5.957,3.627,8.808a3.635,3.635,0,1,1-7.253,0C66.24,48.727,69.867,42.77,69.867,42.77Z" transform="translate(-45.544 -33.253)"/><path class="a" d="M121.417,42.77s3.627,5.957,3.627,8.808a3.635,3.635,0,1,1-7.253,0C117.79,48.727,121.417,42.77,121.417,42.77Z" transform="translate(-78.056 -33.253)"/><line class="a" x2="48.649" transform="translate(0 0)"/><line class="a" y2="4.229" transform="translate(5.289 0)"/><line class="a" y2="4.229" transform="translate(24.323 0)"/><line class="a" y2="4.229" transform="translate(43.361 0)"/></g></svg>