<svg xmlns="http://www.w3.org/2000/svg" width="68.244" height="73.787" viewBox="0 0 68.244 73.787"><defs><style>.a{fill:none;stroke:#fff;stroke-linecap:round;stroke-linejoin:round;}</style></defs><g transform="translate(-1174.346 -108.099)"><path class="a" d="M1381.553,208.317a2.84,2.84,0,1,1-4.016,0,2.839,2.839,0,0,1,4.016,0Z" transform="translate(-158.49 -77.638)"/><path class="a" d="M1354.09,125.1l16.5-16.5c3.6,5.752,2.339,14.066-3.407,19.811l-.206.2a8.7,8.7,0,1,1-12.887-3.514Z" transform="translate(-137.804 0)"/><path class="a" d="M1214.031,185.738h0l-4.688-.558-12.685,6.3c-4.389,2.04-22.95,8.105-21.762,18.042,8.2-4.072,16.406-11.019,24.61-12.217l13.075-1.232" transform="translate(0 -60.125)"/><path class="a" d="M1342.792,257.823l-4.051,7.4.329,4.955c-1.291,4.666-8.7,22.731-.366,28.266,2.216-8.886,2.276-18.042,6.647-26.66l6.967-9.941-.516-4.151" transform="translate(-125.589 -117.055)"/><path class="a" d="M1325.038,254.94a13.578,13.578,0,0,1-6.3-8.249" transform="translate(-112.978 -108.42)"/><path class="a" d="M1429.652,174.138a19.342,19.342,0,0,0,7.18-5.285,24.1,24.1,0,0,0,2.029-3.717,1.176,1.176,0,0,1,1.661,0c.872.872-.2,4.684-.6,5.685-1.669,4.211-5.657,8-11.025,9.894-.246.087-.49.168-.735.246" transform="translate(-198.889 -44.119)"/></g></svg>