<svg xmlns="http://www.w3.org/2000/svg" width="98.262" height="35.207" viewBox="0 0 98.262 35.207"><defs><style>.a{fill:none;stroke:#fff;stroke-miterlimit:22.93;fill-rule:evenodd;}</style></defs><path class="a" d="M70.343,77.74h3.406L75.7,71.715H96.454v2.862m-7.506-2.862v2.862m-7.506-2.862v2.862m16.723,1.038H94.736m-4.079,0h-3.42m-4.086,0h-3.42m1.71,3.535v2.6m0,1.8v2.6m0,1.8v2.6M88.947,79.15v2.6m0,1.8v2.6m0,1.8v2.6M96.454,79.15v2.6m0,1.8v2.6m0,1.8v2.6M52.088,66.506H69.527a.816.816,0,0,1,.816.816V80.3a.823.823,0,0,1-.816.816H52.1a.823.823,0,0,1-.837-.816V67.343a.823.823,0,0,1,.823-.816ZM62.6,74.377a2.1,2.1,0,0,1-.966,1.818,1.61,1.61,0,0,1-1.66,0,2.1,2.1,0,0,1-.98-1.825c0-.88,1.116-2.225,1.574-3,.2-.336.265-.329.458,0,.451.773,1.574,2.147,1.574,3.005Zm-1.8-5.5a4.9,4.9,0,1,1-3.469,1.438A4.909,4.909,0,0,1,60.8,68.874ZM28.925,57.354H40.281m52.423,0H81.319m28.623,0H98.586m-86.906,0H23.043m28.222,17.66h-1.6l-2.927-9.3L28.088,62.77v1.3a.343.343,0,0,1-.343.336H24.217a.343.343,0,0,1-.343-.336v-4.6a.351.351,0,0,1,.343-.343h3.528a.343.343,0,0,1,.343.343V60.9H48.546l1.431-1.431h21.7L73.112,60.9H93.57V59.464a.343.343,0,0,1,.336-.343h3.535a.343.343,0,0,1,.336.343v4.6a.343.343,0,0,1-.336.336H93.906a.336.336,0,0,1-.336-.336v-1.3L74.879,65.683l-2.92,9.3H70.343m27.1-17.052a1.8,1.8,0,1,0-3.578,0m-69.668,0a1.8,1.8,0,1,1,3.578,0M51.265,77.74H47.874L45.92,71.715H25.169v2.862m7.492-2.862v2.862m7.506-2.862v2.862m-16.7,1.059h3.42m4.079,0h3.428m4.079,0H41.9m-1.717,3.535v2.6m0,1.8v2.6m0,1.8v2.6M32.661,79.171v2.6m0,1.8v2.6m0,1.8v2.6M25.176,79.171v2.6m0,1.8v2.6m0,1.8v2.6" transform="translate(-11.68 -55.37)"/></svg>