<svg xmlns="http://www.w3.org/2000/svg" width="89.593" height="62.392" viewBox="0 0 89.593 62.392"><defs><style>.a{fill:none;stroke:#fff;stroke-miterlimit:22.93;fill-rule:evenodd;}</style></defs><path class="a" d="M59.179,74.833,61.2,55.026M18.826,71.869l15.042.591a3.881,3.881,0,0,0,4.362-3.145l3.455-13.4m-8.616-4.577-1.5,14.229-.565.45-13.2.128-1.264.874L14,73.234m41.624-23.9-8.435-1.828-.1-.43a83.749,83.749,0,0,1,6.862-6.721l.45.087,1.425,9.241a3.246,3.246,0,0,0,1.506,2.178l9.584,7.467c.672.417,2.137,1.479,2.883,1.344s2.688-2.467,2.991-2.8a1.579,1.579,0,0,0-.229-2.084L71.5,54.845a3.475,3.475,0,0,0-2.016-.565l-7.091-6.788a1.344,1.344,0,0,1-.538-.887l-1.19-12.1c-.565-7.548-9.7-8.67-14.6-4.382a56.955,56.955,0,0,0-10.976,13.12c-2.823,4.839-4.033,11.426,3.455,12.34l14.632,1.727-.867,17.4M75.4,22.665,48.513,19.882m6.345.712c.813-1.546,1.868-7.077,3.7-7.541a36.566,36.566,0,0,1,8.879.914c1.674.82,1.62,6.425,2.063,8.119m-1.109,1.7a12.051,12.051,0,0,1-1.344,3.771,7.064,7.064,0,0,1-4.7,2.628,5.31,5.31,0,0,1-2.1-.215,7.077,7.077,0,0,1-4.133-3.529,12.1,12.1,0,0,1-.558-3.965M62.9,74.161c7.044,1.169,15.694-3.414,24.713-4.113m1.5-.081a21.413,21.413,0,0,1,13.724,4.194M83.664,70.619c-6.372-1.183-13.146-2.063-20.123-.672m17.4-11.829a9.275,9.275,0,0,0,.706,3.744c.961,2.3,2.977,2.635,5.242,2.2.43-2.265.087-4.275-2.211-5.242a9.241,9.241,0,0,0-3.737-.706Zm8.213-7.36a8.066,8.066,0,0,0-1.882,2.756c-.827,2.016.215,3.475,1.882,4.617,1.674-1.143,2.688-2.6,1.882-4.617A8.065,8.065,0,0,0,89.155,50.759Zm0,22.139V58.111m8.26,0a9.275,9.275,0,0,1-.746,3.75c-.961,2.3-2.977,2.635-5.242,2.2-.43-2.265-.087-4.275,2.211-5.242a9.228,9.228,0,0,1,3.757-.706Z" transform="translate(-13.537 -12.492)"/></svg>