<svg xmlns="http://www.w3.org/2000/svg" width="53.121" height="73.787" viewBox="0 0 53.121 73.787"><defs><style>.a{fill:none;stroke:#fff;stroke-linecap:round;stroke-linejoin:round;}</style></defs><g transform="translate(0.5 0.5)"><path class="a" d="M75.822,114.654H39.229L36.21,79.74H78.846Z" transform="translate(-31.467 -41.867)"/><rect class="a" width="52.122" height="7.383" rx="3.692" transform="translate(0 30.485)"/><path class="a" d="M98.024,44.838s-3.637-13.651,6.282-19.928C104.307,24.905,108.925,36.767,98.024,44.838Z" transform="translate(-62.159 -14.353)"/><path class="a" d="M73.461,33.781S62.845,16.454,73.92,3.72C73.92,3.72,85.174,18.173,73.461,33.781Z" transform="translate(-47.859 -3.72)"/><path class="a" d="M46.165,43.512S33.71,34.251,37.96,22.09C37.96,22.075,50.031,29.125,46.165,43.512Z" transform="translate(-31.902 -12.938)"/><path class="a" d="M78.37,49.707l.394-11.987" transform="translate(-52.623 -20.781)"/></g></svg>