<svg xmlns="http://www.w3.org/2000/svg" width="68.48" height="78.027" viewBox="0 0 68.48 78.027"><defs><style>.a{fill:none;stroke:#fff;stroke-miterlimit:22.93;fill-rule:evenodd;}</style></defs><path class="a" d="M60.868,54.663c-7.846.629-13.719,3.062-13.719,5.985,0,3.389,7.878,6.136,17.6,6.136s17.6-2.747,17.6-6.136c0-2.9-5.765-5.325-13.5-5.966m13.5,5.966L78.17,82.811c-.729,2.414-6,4.671-13.4,4.671s-12.662-2.257-13.4-4.671L47.149,60.649M20.775,45.673,35.688,41.9,29.4,17.3,14.5,21.071m39.508,4.847s8.965,2.571,13.964,4.087c5.168.956,5.093,8.921-1.534,7.972L51.349,36.154s-5.86,1.66-9.858.4c-1.308-.1-5.03,1.257-6.765,1.66m34.787-.528c1.257,2.439,5.658,2.879,5.922-.629L73.85,23.53c-.352-3.012-.629-3.508-2.622-5.319l-7.3-6.287c-1.962-1.823-3.848-1.861-6.212-.868l-16.447,7a109.706,109.706,0,0,1-11.046,3.584m37.723,8.368c-.057-.534-1.025-3.276-.975-4.885a.817.817,0,0,0-.2-.4L60.446,21.4A4.646,4.646,0,0,0,58.988,22a18.629,18.629,0,0,0-1.471,4.935m5.57,30.907c-.534.1-.629-.063-.5-.553.2-.811.629-2.791,1.3-3.263a3.238,3.238,0,0,1,2.087-.629c.629.094.7.3.729.868A4.766,4.766,0,0,1,65.935,57c-.547.629-2.043.742-2.848.842Zm11.141-7.507c.119.629-.082.773-.692.629-1-.251-3.452-.761-4.036-1.616a3.885,3.885,0,0,1-.78-2.641c.126-.679.346-.8,1.006-.842a5.935,5.935,0,0,1,3.452.949c.786.685.924,2.515,1.05,3.527Zm-8.613-7.809c.17-.629,0-.78-.629-.673-1.521.27-3.552.34-4.464,1.76a3.263,3.263,0,0,0-.629,2.307c.163.754.629.717,1.308.811a3.074,3.074,0,0,0,2.32-.377A8.808,8.808,0,0,0,65.614,42.523Z" transform="translate(-14.377 -9.955)"/></svg>