<svg xmlns="http://www.w3.org/2000/svg" width="49" height="54.539" viewBox="0 0 49 54.539"><defs><style>.a{fill:#707070;}</style></defs><g transform="translate(-26)"><path class="a" d="M73.935,12.783H53.7V1.065A1.065,1.065,0,0,0,52.63,0H27.065A1.065,1.065,0,0,0,26,1.065V53.474a1.065,1.065,0,0,0,1.065,1.065h46.87A1.065,1.065,0,0,0,75,53.474V13.848A1.065,1.065,0,0,0,73.935,12.783ZM53.7,14.913H72.87V41.756H53.7Zm-17.043,37.5V43.887h6.391v8.522Zm7.457-10.652H35.587a1.065,1.065,0,0,0-1.065,1.065v9.587H28.13V2.13H51.565V52.409H45.174V42.822A1.065,1.065,0,0,0,44.109,41.756ZM53.7,52.409V43.887H72.869v8.522Z"/><path class="a" d="M137.064,44.262h2.13A1.065,1.065,0,0,0,140.26,43.2v-2.13A1.065,1.065,0,0,0,139.194,40h-2.13A1.065,1.065,0,0,0,136,41.066V43.2A1.065,1.065,0,0,0,137.064,44.262Z" transform="translate(-98.282 -35.74)"/><path class="a" d="M137.064,114.262h2.13a1.065,1.065,0,0,0,1.065-1.065v-2.13A1.065,1.065,0,0,0,139.194,110h-2.13A1.065,1.065,0,0,0,136,111.066v2.13A1.065,1.065,0,0,0,137.064,114.262Z" transform="translate(-98.282 -98.284)"/><path class="a" d="M137.064,184.262h2.13a1.065,1.065,0,0,0,1.065-1.065v-2.13A1.065,1.065,0,0,0,139.194,180h-2.13A1.065,1.065,0,0,0,136,181.066v2.13A1.065,1.065,0,0,0,137.064,184.262Z" transform="translate(-98.282 -160.827)"/><path class="a" d="M137.064,254.261h2.13a1.065,1.065,0,0,0,1.065-1.065v-2.13A1.065,1.065,0,0,0,139.194,250h-2.13A1.065,1.065,0,0,0,136,251.065v2.13A1.065,1.065,0,0,0,137.064,254.261Z" transform="translate(-98.282 -223.37)"/><path class="a" d="M137.064,324.261h2.13a1.065,1.065,0,0,0,1.065-1.065v-2.13A1.065,1.065,0,0,0,139.194,320h-2.13A1.065,1.065,0,0,0,136,321.065v2.13A1.065,1.065,0,0,0,137.064,324.261Z" transform="translate(-98.282 -285.913)"/><path class="a" d="M67.066,44.262H69.2A1.065,1.065,0,0,0,70.262,43.2v-2.13A1.065,1.065,0,0,0,69.2,40h-2.13A1.065,1.065,0,0,0,66,41.066V43.2A1.065,1.065,0,0,0,67.066,44.262Z" transform="translate(-35.74 -35.74)"/><path class="a" d="M67.066,114.262H69.2a1.065,1.065,0,0,0,1.065-1.065v-2.13A1.065,1.065,0,0,0,69.2,110h-2.13A1.065,1.065,0,0,0,66,111.066v2.13A1.065,1.065,0,0,0,67.066,114.262Z" transform="translate(-35.74 -98.284)"/><path class="a" d="M67.066,184.262H69.2a1.065,1.065,0,0,0,1.065-1.065v-2.13A1.065,1.065,0,0,0,69.2,180h-2.13A1.065,1.065,0,0,0,66,181.066v2.13A1.065,1.065,0,0,0,67.066,184.262Z" transform="translate(-35.74 -160.827)"/><path class="a" d="M67.066,254.261H69.2a1.065,1.065,0,0,0,1.065-1.065v-2.13A1.065,1.065,0,0,0,69.2,250h-2.13A1.065,1.065,0,0,0,66,251.065v2.13A1.065,1.065,0,0,0,67.066,254.261Z" transform="translate(-35.74 -223.37)"/><path class="a" d="M67.066,324.261H69.2a1.065,1.065,0,0,0,1.065-1.065v-2.13A1.065,1.065,0,0,0,69.2,320h-2.13A1.065,1.065,0,0,0,66,321.065v2.13A1.065,1.065,0,0,0,67.066,324.261Z" transform="translate(-35.74 -285.913)"/><path class="a" d="M209.2,40h-2.13A1.065,1.065,0,0,0,206,41.066V43.2a1.065,1.065,0,0,0,1.065,1.065h2.13a1.065,1.065,0,0,0,1.065-1.065v-2.13A1.065,1.065,0,0,0,209.2,40Z" transform="translate(-160.827 -35.74)"/><path class="a" d="M209.2,110h-2.13A1.065,1.065,0,0,0,206,111.065v2.13a1.065,1.065,0,0,0,1.065,1.065h2.13a1.065,1.065,0,0,0,1.065-1.065v-2.13A1.065,1.065,0,0,0,209.2,110Z" transform="translate(-160.827 -98.283)"/><path class="a" d="M209.2,180h-2.13A1.065,1.065,0,0,0,206,181.065v2.13a1.065,1.065,0,0,0,1.065,1.065h2.13a1.065,1.065,0,0,0,1.065-1.065v-2.13A1.065,1.065,0,0,0,209.2,180Z" transform="translate(-160.827 -160.826)"/><path class="a" d="M209.2,250h-2.13A1.065,1.065,0,0,0,206,251.065v2.13a1.065,1.065,0,0,0,1.065,1.065h2.13a1.065,1.065,0,0,0,1.065-1.065v-2.13A1.065,1.065,0,0,0,209.2,250Z" transform="translate(-160.827 -223.37)"/><path class="a" d="M209.2,320h-2.13A1.065,1.065,0,0,0,206,321.065v2.13a1.065,1.065,0,0,0,1.065,1.065h2.13a1.065,1.065,0,0,0,1.065-1.065v-2.13A1.065,1.065,0,0,0,209.2,320Z" transform="translate(-160.827 -285.913)"/><path class="a" d="M394.2,180h-2.13A1.065,1.065,0,0,0,391,181.065v2.13a1.065,1.065,0,0,0,1.065,1.065h2.13a1.065,1.065,0,0,0,1.065-1.065v-2.13A1.065,1.065,0,0,0,394.2,180Z" transform="translate(-326.12 -160.826)"/><path class="a" d="M394.2,250h-2.13A1.065,1.065,0,0,0,391,251.065v2.13a1.065,1.065,0,0,0,1.065,1.065h2.13a1.065,1.065,0,0,0,1.065-1.065v-2.13A1.065,1.065,0,0,0,394.2,250Z" transform="translate(-326.12 -223.37)"/><path class="a" d="M394.2,320h-2.13A1.065,1.065,0,0,0,391,321.065v2.13a1.065,1.065,0,0,0,1.065,1.065h2.13a1.065,1.065,0,0,0,1.065-1.065v-2.13A1.065,1.065,0,0,0,394.2,320Z" transform="translate(-326.12 -285.913)"/><path class="a" d="M324.2,180h-2.13A1.065,1.065,0,0,0,321,181.065v2.13a1.065,1.065,0,0,0,1.065,1.065h2.13a1.065,1.065,0,0,0,1.065-1.065v-2.13A1.065,1.065,0,0,0,324.2,180Z" transform="translate(-263.578 -160.826)"/><path class="a" d="M324.2,250h-2.13A1.065,1.065,0,0,0,321,251.065v2.13a1.065,1.065,0,0,0,1.065,1.065h2.13a1.065,1.065,0,0,0,1.065-1.065v-2.13A1.065,1.065,0,0,0,324.2,250Z" transform="translate(-263.578 -223.37)"/><path class="a" d="M324.2,320h-2.13A1.065,1.065,0,0,0,321,321.065v2.13a1.065,1.065,0,0,0,1.065,1.065h2.13a1.065,1.065,0,0,0,1.065-1.065v-2.13A1.065,1.065,0,0,0,324.2,320Z" transform="translate(-263.578 -285.913)"/></g></svg>