<svg xmlns="http://www.w3.org/2000/svg" xmlns:xlink="http://www.w3.org/1999/xlink" width="68" height="69" viewBox="0 0 68 69"><defs><style>.a{fill:#fff;}.b{fill:none;stroke:#707070;stroke-linecap:round;stroke-linejoin:round;stroke-width:2px;}.c{filter:url(#a);}</style><filter id="a" x="0" y="0" width="68" height="69" filterUnits="userSpaceOnUse"><feOffset dy="3" input="SourceAlpha"/><feGaussianBlur stdDeviation="6" result="b"/><feFlood flood-color="#efeff4"/><feComposite operator="in" in2="b"/><feComposite in="SourceGraphic"/></filter></defs><g transform="translate(18 15)"><g class="c" transform="matrix(1, 0, 0, 1, -18, -15)"><rect class="a" width="32" height="33" rx="10" transform="translate(18 15)"/></g><g transform="translate(7 7)"><path class="b" d="M3,6H21" transform="translate(-3 -2)"/><path class="b" d="M19,6V20a2,2,0,0,1-2,2H7a2,2,0,0,1-2-2V6M8,6V4a2,2,0,0,1,2-2h4a2,2,0,0,1,2,2V6" transform="translate(-3 -2)"/><line class="b" y2="6" transform="translate(7 9)"/><line class="b" y2="6" transform="translate(11 9)"/></g></g></svg>