<svg xmlns="http://www.w3.org/2000/svg" width="63.379" height="63.667" viewBox="0 0 63.379 63.667"><defs><style>.a{fill:#707070;}</style></defs><g transform="translate(-16 -15.667)"><path class="a" d="M63.424,63.5a10.325,10.325,0,0,0,6.031-1.766c.545-.387,1.179-.833,1.815-1.224.387-.238.77-.493,1.139-.758a17.1,17.1,0,0,0,6.339-8.224,9.384,9.384,0,0,0-.924-8.662h0a8.3,8.3,0,0,0-3.083-2.582c1.606-4.552.866-9.015-1.988-11.579a8.489,8.489,0,0,0-4.991-2.1v-.044a12.827,12.827,0,0,0-2.144-7.324,6.428,6.428,0,0,0-11.154,0,12.826,12.826,0,0,0-2.144,7.324,14.268,14.268,0,0,0,.332,3.089A8.32,8.32,0,0,0,49.4,32.308c-1.915,2.665-2.05,6.35-.4,9.982a7.926,7.926,0,0,0-.8.942,8.352,8.352,0,0,0-1.538,4.451,12.873,12.873,0,0,0-8.509,3.781l-.884.884A19.188,19.188,0,0,0,27.335,45.3l1.984-3.967h.4a1.056,1.056,0,0,0,0-2.111H29.1l-3.913-3.913A1.056,1.056,0,0,0,24.444,35V33.944a1.056,1.056,0,1,0-2.111,0V35a1.056,1.056,0,0,0-.746.309l-3.913,3.913h-.618a1.056,1.056,0,1,0,0,2.111h.4L19.042,44.5H16v2.111h4.1l.185.368L21,49.851a4.229,4.229,0,0,0-.778-.073,3.167,3.167,0,1,0,0,6.333h1.056V54H20.222a1.056,1.056,0,1,1,0-2.111A2.114,2.114,0,0,1,22.333,54v4.222H19.167a1.056,1.056,0,0,0-1.056,1.056V63.5a1.056,1.056,0,0,0,1.056,1.056h3.167v4.4a3.172,3.172,0,0,0-2.111,2.985v6.333a1.056,1.056,0,0,0,1.056,1.056H25.5a1.056,1.056,0,0,0,1.056-1.056V71.945a3.172,3.172,0,0,0-2.111-2.985v-4.4h2.111a1.056,1.056,0,0,0,.746-.309l2.111-2.111a1.056,1.056,0,0,0,0-1.493L27.3,58.531a1.056,1.056,0,0,0-.746-.309H24.444V54a2.114,2.114,0,0,1,2.111-2.111,1.056,1.056,0,1,1,0,2.111H25.5v2.111h1.056a3.167,3.167,0,1,0,0-6.333,4.229,4.229,0,0,0-.777.073l.654-2.614a17.03,17.03,0,0,1,9.784,7.323,1.056,1.056,0,0,0,.776.49,1.068,1.068,0,0,0,.12.006,1.056,1.056,0,0,0,.746-.309l1.789-1.789a10.776,10.776,0,0,1,7.118-3.165,12.368,12.368,0,0,0,.512,2.1,17.1,17.1,0,0,0,6.339,8.224,18.207,18.207,0,0,0,6.757,3.047v6.668h-1.1a1.056,1.056,0,0,0,0,2.111h1.1V73H57.167A3.17,3.17,0,0,0,54,69.833H50.833V67.722h1.056a3.167,3.167,0,0,0,0-6.333h-19a3.167,3.167,0,0,0,0,6.333h1.056v2.111H30.778A3.17,3.17,0,0,0,27.611,73v2.111a1.056,1.056,0,0,0,1.056,1.056h1.056v3.167h2.111V76.167h2.111v3.167h2.111V76.167H48.722v3.167h2.111V76.167h2.111v3.167h2.111V76.167h.5l.592,2.367a1.056,1.056,0,0,0,1.024.8h3.167a1.052,1.052,0,0,0,.548-.154,1.054,1.054,0,0,0,1.6-.9V76.167h2.072v2.111a1.056,1.056,0,0,0,2.111,0V76.167h2.111v2.111a1.056,1.056,0,0,0,2.111,0V76.167H73v2.111a1.056,1.056,0,0,0,2.111,0V76.167h2.111v2.111a1.056,1.056,0,0,0,2.111,0V66.667a1.056,1.056,0,0,0-2.111,0v3.167H75.111V66.667a1.056,1.056,0,0,0-2.111,0v3.167H70.889V66.667a1.056,1.056,0,0,0-2.111,0v3.167H66.667V66.667a1.056,1.056,0,0,0-2.111,0v3.167H62.484V63.463C62.8,63.484,63.114,63.5,63.424,63.5ZM24.444,77.222H22.333V71.945a1.056,1.056,0,0,1,2.111,0ZM20.222,62.445V60.333h2.111v2.111Zm5.9-2.111,1.056,1.056-1.056,1.056H24.444V60.333ZM23.157,49.778l-.528-2.111h1.518l-.528,2.111Zm1.69-4.222H21.93l-2.111-4.222h7.14ZM22.77,37.111h1.237l2.111,2.111H20.659ZM52.945,64.556a1.057,1.057,0,0,1-1.056,1.056H50.833V63.5h1.056A1.057,1.057,0,0,1,52.945,64.556Zm-4.222,1.056H36.056V63.5H48.722Zm-15.833,0a1.056,1.056,0,0,1,0-2.111h1.056v2.111Zm3.167,2.111H48.722v2.111H36.056Zm19,6.333H29.722V73a1.057,1.057,0,0,1,1.056-1.056H54A1.057,1.057,0,0,1,55.056,73Zm4.454,3.167H57.991l-.528-2.111h2.574Zm17.713-5.278v2.111H75.111V71.945Zm-4.222,0v2.111H70.889V71.945Zm-4.222,0v2.111H66.667V71.945Zm-4.222,0v2.111H62.484V71.945ZM54.847,58.4a14.983,14.983,0,0,1-5.569-7.182,7.341,7.341,0,0,1,.637-6.759,5.938,5.938,0,0,1,1.048-1.114,1.056,1.056,0,0,0,.264-1.3c-1.64-3.143-1.682-6.323-.113-8.508a6.317,6.317,0,0,1,3.14-2.27,1.056,1.056,0,0,0,.664-1.3,11.925,11.925,0,0,1-.486-3.415,10.708,10.708,0,0,1,1.761-6.111,4.341,4.341,0,0,1,7.7,0,10.707,10.707,0,0,1,1.76,6.111c0,.316-.013.644-.04.976a1.056,1.056,0,0,0,1.067,1.137,6.693,6.693,0,0,1,4.662,1.6c2.377,2.136,2.8,6.126,1.074,10.165a1.056,1.056,0,0,0,.615,1.408,6.305,6.305,0,0,1,3.079,2.249c2.716,3.782.5,10.035-4.932,13.94-.329.236-.67.463-1.014.675-.69.425-1.359.894-1.931,1.3a8.713,8.713,0,0,1-5.748,1.336V50.255a22.187,22.187,0,0,0,7.389-16.542v-.824a1.056,1.056,0,0,0-2.111,0v.824a20.076,20.076,0,0,1-5.278,13.576V28.667a1.056,1.056,0,0,0-2.111,0v12.3A9.547,9.547,0,0,1,58.262,35a1.056,1.056,0,1,0-2.111,0,11.671,11.671,0,0,0,4.222,8.955V61A16.361,16.361,0,0,1,54.847,58.4Z"/><path class="a" d="M293.088,247.517a9.078,9.078,0,0,1-2.677-6.461,1.056,1.056,0,1,0-2.111,0,11.176,11.176,0,0,0,3.295,7.954l1.237,1.237a1.056,1.056,0,1,0,1.493-1.493Z" transform="translate(-236.371 -194.444)"/><rect class="a" width="2" height="2" transform="translate(39.518 15.667)"/><rect class="a" width="2.111" height="2.111" transform="translate(32.814 19.529) rotate(-45)"/><rect class="a" width="2" height="2" transform="translate(39.518 32.667)"/><rect class="a" width="2.111" height="2.111" transform="translate(44.756 31.471) rotate(-45)"/><rect class="a" width="2" height="2" transform="translate(47.518 24.667)"/><rect class="a" width="2.111" height="2.111" transform="translate(44.756 19.529) rotate(-45)"/><path class="a" d="M83.706,60.656H91.1a3.7,3.7,0,0,0,3.414-2.284A5.278,5.278,0,1,0,90.9,51.424a5.283,5.283,0,0,0-8.425,2.055,3.694,3.694,0,0,0,1.231,7.177ZM95.845,50.1a3.167,3.167,0,1,1-1.131,6.124A3.657,3.657,0,0,0,92.7,53.637a3.217,3.217,0,0,1-.023-.369A3.17,3.17,0,0,1,95.845,50.1ZM83.464,55.4a1.056,1.056,0,0,0,.864-.789,3.167,3.167,0,0,1,6.145,0,1.056,1.056,0,0,0,.864.789,1.582,1.582,0,0,1-.242,3.145H83.706a1.582,1.582,0,0,1-.242-3.145Z" transform="translate(-55.568 -27.767)"/></g></svg>