<svg xmlns="http://www.w3.org/2000/svg" width="60.247" height="60.417" viewBox="0 0 60.247 60.417"><defs><style>.a{fill:#707070;}</style></defs><g transform="translate(-1.876 -1.583)"><path class="a" d="M57,25.59l1.315.893a1,1,0,0,0,1.389-.266l2.246-3.311a1,1,0,0,0-.266-1.389L32.562,1.756a1,1,0,0,0-1.123,0L2.315,21.518a1,1,0,0,0-.266,1.389l2.246,3.311a1,1,0,0,0,1.389.266L7,25.59V35.6a2.486,2.486,0,0,0-1.316,1.351C4,41.1,2,46.564,2,49c0,3.59,2.09,6.378,5,6.9V60H2v2H62V60H57ZM5.389,24.267,4.266,22.61,32,3.791,59.734,22.61l-1.123,1.656L32.562,6.59a1,1,0,0,0-1.124,0ZM4,49c0-1.625,1.289-5.745,3.537-11.3a.5.5,0,0,1,.926,0C10.711,43.255,12,47.375,12,49c0,2.9-1.683,5-4,5s-4-2.1-4-5Zm5,6.9c2.91-.525,5-3.313,5-6.9,0-2.436-2-7.9-3.684-12.054A2.486,2.486,0,0,0,9,35.595V24.233L32,8.626,55,24.233V43.7l-.168-.252a1.037,1.037,0,0,0-1.664,0l-2,3A1,1,0,0,0,51,47v2H49V47a1.006,1.006,0,0,0-.168-.555l-2-3a1.037,1.037,0,0,0-1.664,0l-2,3A1.006,1.006,0,0,0,43,47v2H41V47a1.006,1.006,0,0,0-.168-.555l-2-3a1.037,1.037,0,0,0-1.664,0l-2,3A1.006,1.006,0,0,0,35,47V60H29V41a1,1,0,0,0-1-1H17a1,1,0,0,0-1,1V60H9ZM39,60H37V47.3l1-1.5,1,1.5Zm2-9h2v2H41Zm0,4h2v5H41Zm6,5H45V47.3l1-1.5,1,1.5Zm2-9h2v2H49Zm0,4h2v5H49ZM27,60H18V42h9Zm26,0V47.3l1-1.5,1,1.5V60Z"/><path class="a" d="M29,33h6a4,4,0,0,0,4-4V23a4,4,0,0,0-4-4H29a4,4,0,0,0-4,4v6A4,4,0,0,0,29,33Zm-2-4V27h4v4H29A2,2,0,0,1,27,29Zm8,2H33V27h4v2A2,2,0,0,1,35,31Zm2-8v2H33V21h2A2,2,0,0,1,37,23Zm-8-2h2v4H27V23A2,2,0,0,1,29,21Z"/><path class="a" d="M23,50h2v2H23Z"/></g></svg>