<svg xmlns="http://www.w3.org/2000/svg" xmlns:xlink="http://www.w3.org/1999/xlink" width="513.038" height="56.872" viewBox="0 0 513.038 56.872"><defs><style>.a{fill:#eb001b;}.b{fill:#ff5e00;}.c{fill:#f79e1c;}.d{fill:#27346a;}.e{fill:#2790c3;}.f{fill:#1f264f;}.g{fill:#2566af;}.h{fill:#e6a540;}.i{fill:url(#a);}.j{fill:url(#b);}.k{fill:url(#c);}.l{fill:url(#d);}.m{fill:url(#e);}.n{fill:url(#f);}.o{fill:url(#g);}.p{fill:url(#h);}.q{fill:url(#i);}.r{fill:url(#j);}.s,.t{fill:#9b0033;}.t,.u{fill-rule:evenodd;}.v{fill:#a10045;}.w{fill:#fff;}</style><radialGradient id="a" cx="-2.615" cy="-1.905" r="9.835" gradientTransform="translate(-0.034) scale(1.068 1)" gradientUnits="objectBoundingBox"><stop offset="0" stop-color="#00b1e7"/><stop offset="0.427" stop-color="#0098cd"/><stop offset="0.524" stop-color="#008dbe"/><stop offset="0.84" stop-color="#006c91"/><stop offset="1" stop-color="#005f80"/></radialGradient><radialGradient id="b" cx="-1.457" cy="-1.884" r="9.765" gradientTransform="translate(0.308) scale(0.383 1)" xlink:href="#a"/><radialGradient id="c" cx="0.45" cy="-1.909" r="9.848" gradientTransform="translate(0.302) scale(0.396 1)" xlink:href="#a"/><radialGradient id="d" cx="-1.928" cy="-1.909" r="9.849" gradientTransform="translate(-0.131) scale(1.262 1)" xlink:href="#a"/><radialGradient id="e" cx="-13.679" cy="-1.902" r="9.815" gradientTransform="translate(-1.464) scale(3.928 1)" xlink:href="#a"/><radialGradient id="f" cx="-3.659" cy="-3.598" r="9.833" xlink:href="#a"/><radialGradient id="g" cx="-0.266" cy="-3.59" r="9.82" gradientTransform="translate(0.31) scale(0.38 1)" xlink:href="#a"/><radialGradient id="h" cx="-6.315" cy="-3.603" r="9.849" gradientTransform="translate(-0.09) scale(1.18 1)" xlink:href="#a"/><radialGradient id="i" cx="-5.65" cy="-3.61" r="9.864" gradientTransform="translate(-0.131) scale(1.261 1)" xlink:href="#a"/><radialGradient id="j" cx="-7.37" cy="-3.603" r="9.849" gradientTransform="translate(-0.09) scale(1.179 1)" xlink:href="#a"/></defs><g transform="translate(-428 -1909)"><g transform="translate(795 1926)"><path class="a" d="M14.635,11.928a11.951,11.951,0,0,1,4.48-9.352A11.662,11.662,0,0,0,11.8,0,11.863,11.863,0,0,0,0,11.928,11.863,11.863,0,0,0,11.8,23.856a11.662,11.662,0,0,0,7.317-2.575,11.951,11.951,0,0,1-4.48-9.352" transform="translate(0 0)"/><path class="b" d="M0,9.352A11.951,11.951,0,0,0,4.48,18.7,11.952,11.952,0,0,0,8.959,9.352,11.952,11.952,0,0,0,4.48,0,11.951,11.951,0,0,0,0,9.352" transform="translate(14.635 2.575)"/><path class="c" d="M7.317,0A11.661,11.661,0,0,0,0,2.575a11.952,11.952,0,0,1,4.479,9.352A11.952,11.952,0,0,1,0,21.28a11.661,11.661,0,0,0,7.317,2.575,11.863,11.863,0,0,0,11.8-11.928A11.863,11.863,0,0,0,7.317,0" transform="translate(19.114 0)"/></g><g transform="translate(737 1926)"><path class="d" d="M16.3,1.732C15.252.52,13.361,0,10.943,0H3.923A1.011,1.011,0,0,0,2.93.862L.008,19.715a.61.61,0,0,0,.6.708H4.937L6.025,13.4l-.034.22a1.007,1.007,0,0,1,.989-.862H9.04c4.046,0,7.213-1.671,8.139-6.505q.041-.214.072-.418h0a4.62,4.62,0,0,0-.952-4.1" transform="translate(0 0)"/><path class="d" d="M7.683,5.193a.869.869,0,0,1,.379-.087h5.5a11.3,11.3,0,0,1,1.815.134q.233.038.464.09a6.661,6.661,0,0,1,.645.179,4.923,4.923,0,0,1,.761.327,4.62,4.62,0,0,0-.952-4.1C15.251.52,13.361,0,10.943,0H3.923A1.01,1.01,0,0,0,2.93.862L.008,19.714a.609.609,0,0,0,.595.709H4.937L7.195,5.86A.893.893,0,0,1,7.683,5.193Z" transform="translate(0 0)"/><path class="e" d="M12.548.418c-.925,4.834-4.093,6.505-8.139,6.505H2.349a1.006,1.006,0,0,0-.988.862L.007,16.515a.534.534,0,0,0,.52.62H4.18a.884.884,0,0,0,.868-.754l.036-.189.689-4.438.044-.245a.884.884,0,0,1,.868-.754h.547c3.539,0,6.31-1.462,7.12-5.691A4.914,4.914,0,0,0,13.62.785a3.5,3.5,0,0,0-1-.785c-.021.137-.044.275-.072.418Z" transform="translate(4.631 5.836)"/><path class="f" d="M10.29.338Q10.073.274,9.853.224T9.39.135A11.233,11.233,0,0,0,7.574,0h-5.5a.856.856,0,0,0-.379.088A.89.89,0,0,0,1.2.755L.034,8.3,0,8.517a1.006,1.006,0,0,1,.989-.862h2.06c4.046,0,7.213-1.671,8.139-6.505.028-.143.051-.282.072-.418A4.952,4.952,0,0,0,10.5.4q-.1-.035-.208-.066" transform="translate(5.992 5.106)"/></g><g transform="translate(872 1926)"><path class="g" d="M33.4,21.719l.836-4.982c2.308,1.9,9.3,2.438,9.3-.573s-7.793-3.084-7.793-8.816C35.739,1.253,42.378,0,45.176,0a15.88,15.88,0,0,1,5.066.969l-.8,4.764c-2.409-1.362-7.9-1.685-7.9.826S49.4,9.6,49.4,15.375c0,5.555-5.8,7.6-9.645,7.6A15.447,15.447,0,0,1,33.4,21.719Zm30.465.87-.662-3.3h-7.16l-1.175,3.3H49L57.4,2.05A2.6,2.6,0,0,1,60,.4h4.529l4.511,22.193Zm-39.571,0L27.816.4H33.45L29.929,22.589Zm-13.507,0L5.891,3.308A20.758,20.758,0,0,0,0,.774L.1.4H8.983a2.433,2.433,0,0,1,2.672,2l1.9,9.981h0l.636,3.287L19.555.4h6.063L16.656,22.589Z" transform="translate(0 0)"/><path class="h" d="M13.551,11.978,11.655,2A2.434,2.434,0,0,0,8.983,0H.1L0,.376A21.586,21.586,0,0,1,8.361,4.681,17.332,17.332,0,0,1,13.551,11.978Z" transform="translate(0 0.396)"/></g><g transform="translate(628 1926)"><g transform="translate(0 0)"><g transform="translate(30.475 0.061)"><path class="i" d="M234.334,197.466v-1.653a1.393,1.393,0,0,0-1.438-1.294h-2.1v2.947h-2.155v-8.495h5.233a2.36,2.36,0,0,1,2.731,2.486,2.166,2.166,0,0,1-1.207,1.983,2.084,2.084,0,0,1,1.048,1.927v2.1h-2.112m-3.538-4.944h2.229c.647,0,1.179-.36,1.179-.8s-.532-.805-1.179-.805H230.8v1.61h0" transform="translate(-228.641 -188.959)"/></g><g transform="translate(42.235)"><path class="j" d="M320,197.155l-3.421-5.678v5.678h-4.226l-.763-1.782h-3.939l-.749,1.782H303.52s-2.9-.416-2.9-4.01c0-4.716,3.293-4.528,3.407-4.557l2.66.073v1.912l-2.184.028s-1.424,0-1.6,1.855a5.743,5.743,0,0,0-.028.59c.008,2.872,2.493,1.98,2.574,1.954l2.674-6.339h3.018l3.234,7.7v-7.7h3.048l3.379,5.592v-5.592h2.171v8.495H320M308.568,193.2h2.1l-1.034-2.53-1.064,2.53h0" transform="translate(-300.617 -188.588)"/></g><g transform="translate(0 0.073)"><path class="k" d="M61.361,197.527v-5.864l-2.7,5.864H56.892l-2.717-5.836v5.836H49.919l-.747-1.782H45.234l-.762,1.782H42.114l3.579-8.495h3.034L52,196.837v-7.805h3.407l2.372,5.275,2.359-5.275h3.407v8.495H61.361m-15.208-3.953h2.1l-1.049-2.53-1.05,2.53h0" transform="translate(-42.114 -189.032)"/></g><g transform="translate(22.626 0.073)"><path class="l" d="M180.6,197.528v-8.495h6.729v1.983h-4.558v1.308h4.442v1.926h-4.442v1.438h4.558v1.839H180.6" transform="translate(-180.6 -189.033)"/></g><g transform="translate(39.332 0.073)"><path class="m" d="M282.85,197.557v-8.524h2.17v8.524h-2.17" transform="translate(-282.85 -189.033)"/></g></g><g transform="translate(15.626 14.438)"><g transform="translate(23.173 0.026)"><path class="n" d="M285.278,285.625v-1.653a1.392,1.392,0,0,0-1.438-1.293h-2.1v2.946h-2.157v-8.5h5.233a2.36,2.36,0,0,1,2.731,2.487,2.168,2.168,0,0,1-1.207,1.984,2.081,2.081,0,0,1,1.036,1.925v2.1h-2.1m-3.536-4.945h2.229c.646,0,1.178-.359,1.178-.8s-.532-.8-1.178-.8h-2.229v1.61h0" transform="translate(-279.584 -277.118)"/></g><path class="o" d="M152.243,285.479h-1.884l-2.284-2.516-2.3,2.516h-8.021v-8.51H145.6l2.474,2.7,2.487-2.689h1.653v-.014h5.232a2.382,2.382,0,0,1,2.731,2.5c0,2.5-.906,3.279-3.7,3.279h-2.112v2.731h-2.128m-2.7-4.182,2.673,2.961v-5.909l-2.673,2.948h0m-9.618,2.343h4.542l2.128-2.343-2.128-2.33h-4.542v1.307h4.427V282.2h-4.427v1.438h0m14.447-3.107H156.6c.647,0,1.179-.359,1.179-.8s-.532-.8-1.179-.8h-2.227v1.61h0" transform="translate(-137.752 -276.96)"/><g transform="translate(39.505 0.022)"><path class="p" d="M383.612,285.578h-3.839v-1.956h3.365s1.207.144,1.207-.674c0-.764-1.825-.705-1.825-.705s-2.976.259-2.976-2.53a2.487,2.487,0,0,1,2.687-2.617h4.141v1.983h-3.335s-1.151-.231-1.151.605c0,.7,1.566.6,1.566.6s3.293-.243,3.293,2.315a2.694,2.694,0,0,1-2.873,2.987c-.162,0-.261-.011-.261-.011" transform="translate(-379.544 -277.095)"/></g><g transform="translate(32.03 0.038)"><path class="q" d="M333.794,285.673v-8.482h6.726v1.969h-4.557v1.307h4.443V282.4h-4.443v1.438h4.557v1.839h-6.726" transform="translate(-333.794 -277.191)"/></g><g transform="translate(47.109 0.022)"><path class="r" d="M430.154,285.578h-3.839v-1.956h3.35s1.222.144,1.222-.674c0-.764-1.825-.705-1.825-.705s-2.977.259-2.977-2.53a2.487,2.487,0,0,1,2.688-2.617H432.9v1.983h-3.322s-1.15-.231-1.15.605c0,.7,1.568.6,1.568.6s3.291-.243,3.291,2.315a2.694,2.694,0,0,1-2.873,2.987c-.163,0-.261-.011-.261-.011" transform="translate(-426.086 -277.095)"/></g></g></g><g transform="translate(428 1909)"><path class="s" d="M189.957,191.249h54.894a19.774,19.774,0,0,1,13.975,5.321,16.988,16.988,0,0,1,5.733,12.875l.787-.007-.787-.008a17.015,17.015,0,0,1-5.737,12.777l0,0a19.815,19.815,0,0,1-13.975,5.371H189.957a.786.786,0,1,0,0,1.572h54.894a21.4,21.4,0,0,0,15.043-5.789l0,0a18.606,18.606,0,0,0,6.237-13.91v-.015a18.587,18.587,0,0,0-6.24-14.015,21.367,21.367,0,0,0-15.043-5.738H189.957a.786.786,0,1,0,0,1.572Zm0,0h54.894a19.774,19.774,0,0,1,13.975,5.321,16.988,16.988,0,0,1,5.733,12.875l.787-.007-.787-.008a17.015,17.015,0,0,1-5.737,12.777l0,0a19.815,19.815,0,0,1-13.975,5.371H189.957a.786.786,0,1,0,0,1.572h54.894a21.4,21.4,0,0,0,15.043-5.789l0,0a18.606,18.606,0,0,0,6.237-13.91v-.015a18.587,18.587,0,0,0-6.24-14.015,21.367,21.367,0,0,0-15.043-5.738H189.957a.786.786,0,1,0,0,1.572Z" transform="translate(-149.726 -176.816)"/><path class="t" d="M77.621,174.716a20.478,20.478,0,0,1,7.457,7.408,21.028,21.028,0,0,1,2.79,10.45,20.749,20.749,0,0,1-2.79,10.451,21.02,21.02,0,0,1-7.457,7.458,20.6,20.6,0,0,1-28.259-7.458,20.155,20.155,0,0,1-2.841-10.451,20.558,20.558,0,0,1,2.841-10.45,19.961,19.961,0,0,1,7.407-7.408,20.554,20.554,0,0,1,20.852,0M67.17,167.664a24.721,24.721,0,0,0-12.582,3.4,26.369,26.369,0,0,0-8.929,8.929,24.986,24.986,0,0,0,0,25.164,26.666,26.666,0,0,0,8.929,9.031,25.764,25.764,0,0,0,12.582,3.4,24.767,24.767,0,0,0,12.632-3.4,25.944,25.944,0,0,0,8.98-9.031,25.244,25.244,0,0,0,3.4-12.582,24.739,24.739,0,0,0-3.4-12.582,25.661,25.661,0,0,0-8.98-8.929A24.765,24.765,0,0,0,67.17,167.664Z" transform="translate(-42.26 -160.713)"/><path class="s" d="M251.622,233.61h1.725l1.826,5.022,1.878-5.022h1.674l-2.84,7.153h-1.37l-2.891-7.153" transform="translate(-195.409 -208.953)"/><path class="s" d="M292.606,234.453h1.573v5.428h-1.573Zm-.051-1.979h1.624v1.37h-1.624Zm-4.87,1.979h1.522v1.066a2.3,2.3,0,0,1,.659-.863,1.237,1.237,0,0,1,1.066-.3v1.624h-.051a1.5,1.5,0,0,0-1.217.457,2.042,2.042,0,0,0-.456,1.471v1.978h-1.522v-5.428Zm-3.3,2.283a1.639,1.639,0,0,0-.356-.862,1.027,1.027,0,0,0-.76-.305,1.069,1.069,0,0,0-.812.305,1.7,1.7,0,0,0-.405.862Zm-1.015,3.3a2.969,2.969,0,0,1-1.116-.254,2.123,2.123,0,0,1-.914-.558,2.531,2.531,0,0,1-.557-.862,3,3,0,0,1-.254-1.168,2.993,2.993,0,0,1,.761-2.028,2.641,2.641,0,0,1,.862-.61,2.736,2.736,0,0,1,1.116-.2,2.813,2.813,0,0,1,1.167.254,1.739,1.739,0,0,1,.812.659,3.931,3.931,0,0,1,.507.913,4.227,4.227,0,0,1,.152,1.116l-.051.2v.2H282.1a1.194,1.194,0,0,0,.457.812,1.577,1.577,0,0,0,.862.253,1.79,1.79,0,0,0,.71-.153,2.438,2.438,0,0,0,.609-.405l.862.761a2.164,2.164,0,0,1-.913.761A2.672,2.672,0,0,1,283.372,240.034Z" transform="translate(-216.556 -208.122)"/><path class="s" d="M340.827,240.537a4.609,4.609,0,0,1-1.624-.3,3.833,3.833,0,0,1-1.421-.863l.964-1.065a3.859,3.859,0,0,0,.964.609,2.76,2.76,0,0,0,1.116.253,1.053,1.053,0,0,0,.761-.2.533.533,0,0,0,.253-.456V238.2l-.253-.2-.406-.2-.761-.254-.964-.254-.761-.405-.456-.61a2.176,2.176,0,0,1-.153-.862v-.051l.153-.862a1.772,1.772,0,0,1,.557-.659,1.92,1.92,0,0,1,.761-.457,3.273,3.273,0,0,1,1.014-.151,4.4,4.4,0,0,1,1.421.253,3.547,3.547,0,0,1,1.217.659l-.811,1.167-.964-.507a1.982,1.982,0,0,0-.912-.2.859.859,0,0,0-.66.2.517.517,0,0,0-.254.405v.051l.1.3.2.2.508.2.761.2.964.356a3.219,3.219,0,0,1,.711.405l.406.558a2.1,2.1,0,0,1,.152.812v.05a1.737,1.737,0,0,1-.2.913,1.674,1.674,0,0,1-.507.71,3.385,3.385,0,0,1-.863.406,3.256,3.256,0,0,1-1.014.152" transform="translate(-258.437 -208.677)"/><path class="s" d="M365.988,234.453h1.573v5.428h-1.573Zm-.051-1.979h1.624v1.37h-1.624Z" transform="translate(-279.031 -208.122)"/><path class="s" d="M387.441,239.568h1.523v.761l.3-.3.354-.3.406-.2.508-.051a1.72,1.72,0,0,1,1.37.558,1.927,1.927,0,0,1,.507,1.471V245h-1.573v-3.043a1.291,1.291,0,0,0-.2-.812,1.122,1.122,0,0,0-1.421,0,1.291,1.291,0,0,0-.253.812V245h-1.523v-5.428m-4.871,3.7.558-.1a.893.893,0,0,0,.406-.254,1.1,1.1,0,0,0,.253-.405,1.508,1.508,0,0,0,.1-.508l-.1-.507a1.106,1.106,0,0,0-.253-.405l-.406-.255-.558-.1-.507.1-.406.255a.786.786,0,0,0-.3.405l-.1.507a1.112,1.112,0,0,0,.406.913A1.219,1.219,0,0,0,382.571,243.271Zm-.152,3.349-1.268-.153a2.913,2.913,0,0,1-1.167-.405l.558-1.167.863.405.964.1a1.614,1.614,0,0,0,1.167-.355,1.48,1.48,0,0,0,.355-1.116v-.253a2.913,2.913,0,0,1-.711.659,2.1,2.1,0,0,1-1.065.2,2.876,2.876,0,0,1-.913-.151,2.227,2.227,0,0,1-.761-.507,2.854,2.854,0,0,1-.507-.761,2.733,2.733,0,0,1-.2-1.116,2.355,2.355,0,0,1,.2-1.066,2.483,2.483,0,0,1,.507-.811,1.991,1.991,0,0,1,.812-.507l.862-.152a2.056,2.056,0,0,1,1.065.254,2.434,2.434,0,0,1,.711.558v-.711h1.522v4.211a2.9,2.9,0,0,1-.66,2.13,2.29,2.29,0,0,1-.964.558Z" transform="translate(-289.121 -213.237)"/><path class="s" d="M258.064,273.6a4.6,4.6,0,0,1-1.623-.3,3.835,3.835,0,0,1-1.421-.863l.964-1.065a3.863,3.863,0,0,0,.964.609,2.756,2.756,0,0,0,1.116.253,1.056,1.056,0,0,0,.762-.2.533.533,0,0,0,.253-.456v-.3l-.253-.2-.406-.2-.761-.254-.964-.253-.762-.406-.456-.609a2.176,2.176,0,0,1-.153-.862v-.051l.153-.862a1.762,1.762,0,0,1,.557-.659,1.92,1.92,0,0,1,.761-.457,3.29,3.29,0,0,1,1.015-.151,4.4,4.4,0,0,1,1.421.253,3.528,3.528,0,0,1,1.218.66l-.812,1.167-.964-.507a1.986,1.986,0,0,0-.913-.2.856.856,0,0,0-.659.2.514.514,0,0,0-.254.405v.052l.1.3.2.2.507.2.761.2.964.356a3.234,3.234,0,0,1,.711.405l.406.558a2.108,2.108,0,0,1,.151.812v.05a1.742,1.742,0,0,1-.2.913,1.687,1.687,0,0,1-.507.71,3.388,3.388,0,0,1-.863.406,3.269,3.269,0,0,1-1.015.152" transform="translate(-197.895 -232.865)"/><path class="s" d="M292.742,278.214a2.772,2.772,0,0,1-1.116-.253,2.9,2.9,0,0,1-.913-.61,2.525,2.525,0,0,1-.557-.862,2.962,2.962,0,0,1-.254-1.116,3.423,3.423,0,0,1,.812-2.029,2.892,2.892,0,0,1,.913-.61,2.828,2.828,0,0,1,1.167-.2,3.12,3.12,0,0,1,1.268.255,2.2,2.2,0,0,1,.863.659l-.913,1.015a1.588,1.588,0,0,0-.557-.457,1.35,1.35,0,0,0-.711-.151l-.507.1-.406.355-.3.456-.1.558v.051a1.822,1.822,0,0,0,.1.558,1.045,1.045,0,0,0,.3.507.785.785,0,0,0,.406.305,1.9,1.9,0,0,0,.609.1,1.416,1.416,0,0,0,.66-.151l.558-.407.913.913a4.393,4.393,0,0,1-.913.71,2.542,2.542,0,0,1-1.32.305m-6.088-3.3a1.646,1.646,0,0,0-.354-.862,1.036,1.036,0,0,0-.762-.3,1.072,1.072,0,0,0-.811.3,1.7,1.7,0,0,0-.405.862Zm-1.014,3.3a2.988,2.988,0,0,1-1.117-.253,2.124,2.124,0,0,1-.913-.559,2.523,2.523,0,0,1-.558-.862,3.01,3.01,0,0,1-.253-1.167,2.737,2.737,0,0,1,.2-1.117,2.766,2.766,0,0,1,.558-.912,2.664,2.664,0,0,1,.862-.61,2.74,2.74,0,0,1,1.116-.2,2.809,2.809,0,0,1,1.168.255,1.741,1.741,0,0,1,.811.659,3.936,3.936,0,0,1,.508.913,4.274,4.274,0,0,1,.152,1.116l-.052.2v.2h-3.754a1.2,1.2,0,0,0,.456.812,1.581,1.581,0,0,0,.862.253,1.781,1.781,0,0,0,.71-.153,2.463,2.463,0,0,0,.61-.405l.862.761a2.165,2.165,0,0,1-.914.761A2.664,2.664,0,0,1,285.64,278.214Z" transform="translate(-218.215 -237.424)"/><path class="s" d="M336.963,278.44a1.868,1.868,0,0,1-1.369-.558,2.125,2.125,0,0,1-.457-1.471v-3.5h1.522v3.044a1.3,1.3,0,0,0,.254.812,1.008,1.008,0,0,0,.71.253,1.219,1.219,0,0,0,.71-.253,1.3,1.3,0,0,0,.254-.812V272.91h1.521v5.429h-1.521v-.761l-.306.3-.354.3-.406.2-.558.05" transform="translate(-256.501 -237.701)"/><path class="s" d="M377.538,271.73a1.831,1.831,0,0,0,.558-.1l.405-.3a2.017,2.017,0,0,0,.253-.456l.1-.608v-.051l-.1-.609-.253-.457-.405-.3a1.822,1.822,0,0,0-.558-.1l-.508.1-.406.3-.3.457a1.9,1.9,0,0,0-.1.609v.051l.1.608a1.208,1.208,0,0,0,.3.456l.406.3.508.1m-.356,1.319a2.067,2.067,0,0,1-.963-.2,2.23,2.23,0,0,1-.762-.508,2.788,2.788,0,0,1-.558-.913,2.823,2.823,0,0,1-.2-1.167v-.051a3.074,3.074,0,0,1,.2-1.217,2.545,2.545,0,0,1,.558-.862,1.561,1.561,0,0,1,.762-.509,2.07,2.07,0,0,1,.963-.2,2,2,0,0,1,1.016.255,1.762,1.762,0,0,1,.659.558v-2.69h1.522v7.407h-1.522v-.761a1.907,1.907,0,0,1-.659.609A2,2,0,0,1,377.183,273.049ZM371.4,269.8a1.649,1.649,0,0,0-.354-.862,1.036,1.036,0,0,0-.762-.3,1.073,1.073,0,0,0-.812.3,1.711,1.711,0,0,0-.406.862Zm-1.014,3.3a2.98,2.98,0,0,1-1.117-.253,2.115,2.115,0,0,1-.912-.559,2.524,2.524,0,0,1-.559-.862,3.009,3.009,0,0,1-.253-1.167,2.737,2.737,0,0,1,.2-1.117,2.775,2.775,0,0,1,.558-.912,2.668,2.668,0,0,1,.862-.61,2.747,2.747,0,0,1,1.116-.2,2.811,2.811,0,0,1,1.167.255,1.743,1.743,0,0,1,.811.659,3.92,3.92,0,0,1,.507.913,4.231,4.231,0,0,1,.153,1.117l-.051.2v.2h-3.754a1.2,1.2,0,0,0,.456.812,1.579,1.579,0,0,0,.862.253,1.785,1.785,0,0,0,.71-.152,2.478,2.478,0,0,0,.609-.406l.863.761a2.171,2.171,0,0,1-.914.761A2.667,2.667,0,0,1,370.385,273.1Zm-7.661-5.581h1.523v1.066a2.309,2.309,0,0,1,.659-.863,1.238,1.238,0,0,1,1.065-.3v1.624h-.05a1.5,1.5,0,0,0-1.218.457,2.043,2.043,0,0,0-.456,1.47v1.979h-1.523Z" transform="translate(-276.681 -232.31)"/><path class="t" d="M438.306,187.128h2.182v.507h-.761v2.08h-.609v-2.08h-.812v-.507m5.428,0v2.587h-.608v-1.673l-.66,1.115h-.1l-.66-1.115v1.673H441.1v-2.587h.658l.71,1.116.66-1.116Z" transform="translate(-331.97 -174.951)"/><path class="u" d="M115.6,172.673h-1.878V174.6H115.6Zm-1.877-4.87H115.6v1.876h-1.878Zm4.871-4.973h-1.928v-1.878h1.928Zm3.755-3.906h3.7v-2.029h-3.7v5.936h-3.754v1.927h-3.2v1.319h-1.675V167.8h-2.029V170.8h-1.928v1.876H108.5V174.6h-1.421a63.113,63.113,0,0,0-6.7,12.582c-3.653-5.125-7.052-8.168-10.2-9.183a1.344,1.344,0,0,0-1.827.71c-.355.761-.05,1.725,1.015,2.842,3.2,3.5,6.139,8.473,8.828,14.814a2.99,2.99,0,0,0,2.79,1.725,2.357,2.357,0,0,0,2.689-1.522,62.155,62.155,0,0,1,6.9-13.495v-2.182H112.1v-1.877h1.623v-2.283H115.6V174.6h1.928v-1.929h1.522V170.34h1.673v-1.573h1.624v-4.009h1.877v-1.928h2.182V160.9h-2.182v1.928h-1.877v1.928h-1.878v1.878h-1.876v-1.878h1.876v-5.834h1.878Z" transform="translate(-75.877 -152.836)"/><rect class="v" width="1.877" height="1.979" transform="translate(46.472 6.088)"/><rect class="w" width="1.878" height="1.876" transform="translate(37.847 14.967)"/><rect class="s" width="2.03" height="2.029" transform="translate(52.305 4.059)"/><path d="M231.729,151.366v-2.029H229.7v2.029" transform="translate(-179.372 -147.307)"/><rect class="s" width="2.03" height="2.03" transform="translate(52.305)"/></g></g></svg>