<svg xmlns="http://www.w3.org/2000/svg" width="116.408" height="56.872" viewBox="0 0 116.408 56.872"><defs><style>.a,.b{fill:#9b0033;}.b,.c{fill-rule:evenodd;}.d{fill:#a10045;}.e{fill:#fff;}</style></defs><path class="a" d="M189.957,191.249h54.894a19.774,19.774,0,0,1,13.975,5.321,16.988,16.988,0,0,1,5.733,12.875l.787-.007-.787-.008a17.015,17.015,0,0,1-5.737,12.777l0,0a19.815,19.815,0,0,1-13.975,5.371H189.957a.786.786,0,1,0,0,1.572h54.894a21.4,21.4,0,0,0,15.043-5.789l0,0a18.606,18.606,0,0,0,6.237-13.91v-.015a18.587,18.587,0,0,0-6.24-14.015,21.367,21.367,0,0,0-15.043-5.738H189.957a.786.786,0,1,0,0,1.572Zm0,0h54.894a19.774,19.774,0,0,1,13.975,5.321,16.988,16.988,0,0,1,5.733,12.875l.787-.007-.787-.008a17.015,17.015,0,0,1-5.737,12.777l0,0a19.815,19.815,0,0,1-13.975,5.371H189.957a.786.786,0,1,0,0,1.572h54.894a21.4,21.4,0,0,0,15.043-5.789l0,0a18.606,18.606,0,0,0,6.237-13.91v-.015a18.587,18.587,0,0,0-6.24-14.015,21.367,21.367,0,0,0-15.043-5.738H189.957a.786.786,0,1,0,0,1.572Z" transform="translate(-149.726 -176.816)"/><path class="b" d="M77.621,174.716a20.478,20.478,0,0,1,7.457,7.408,21.028,21.028,0,0,1,2.79,10.45,20.749,20.749,0,0,1-2.79,10.451,21.02,21.02,0,0,1-7.457,7.458,20.6,20.6,0,0,1-28.259-7.458,20.155,20.155,0,0,1-2.841-10.451,20.558,20.558,0,0,1,2.841-10.45,19.961,19.961,0,0,1,7.407-7.408,20.554,20.554,0,0,1,20.852,0M67.17,167.664a24.721,24.721,0,0,0-12.582,3.4,26.369,26.369,0,0,0-8.929,8.929,24.986,24.986,0,0,0,0,25.164,26.666,26.666,0,0,0,8.929,9.031,25.764,25.764,0,0,0,12.582,3.4,24.767,24.767,0,0,0,12.632-3.4,25.944,25.944,0,0,0,8.98-9.031,25.244,25.244,0,0,0,3.4-12.582,24.739,24.739,0,0,0-3.4-12.582,25.661,25.661,0,0,0-8.98-8.929A24.765,24.765,0,0,0,67.17,167.664Z" transform="translate(-42.26 -160.713)"/><path class="a" d="M251.622,233.61h1.725l1.826,5.022,1.878-5.022h1.674l-2.84,7.153h-1.37l-2.891-7.153" transform="translate(-195.409 -208.953)"/><path class="a" d="M292.606,234.453h1.573v5.428h-1.573Zm-.051-1.979h1.624v1.37h-1.624Zm-4.87,1.979h1.522v1.066a2.3,2.3,0,0,1,.659-.863,1.237,1.237,0,0,1,1.066-.3v1.624h-.051a1.5,1.5,0,0,0-1.217.457,2.042,2.042,0,0,0-.456,1.471v1.978h-1.522v-5.428Zm-3.3,2.283a1.639,1.639,0,0,0-.356-.862,1.027,1.027,0,0,0-.76-.305,1.069,1.069,0,0,0-.812.305,1.7,1.7,0,0,0-.405.862Zm-1.015,3.3a2.969,2.969,0,0,1-1.116-.254,2.123,2.123,0,0,1-.914-.558,2.531,2.531,0,0,1-.557-.862,3,3,0,0,1-.254-1.168,2.993,2.993,0,0,1,.761-2.028,2.641,2.641,0,0,1,.862-.61,2.736,2.736,0,0,1,1.116-.2,2.813,2.813,0,0,1,1.167.254,1.739,1.739,0,0,1,.812.659,3.931,3.931,0,0,1,.507.913,4.227,4.227,0,0,1,.152,1.116l-.051.2v.2H282.1a1.194,1.194,0,0,0,.457.812,1.577,1.577,0,0,0,.862.253,1.79,1.79,0,0,0,.71-.153,2.438,2.438,0,0,0,.609-.405l.862.761a2.164,2.164,0,0,1-.913.761A2.672,2.672,0,0,1,283.372,240.034Z" transform="translate(-216.556 -208.122)"/><path class="a" d="M340.827,240.537a4.609,4.609,0,0,1-1.624-.3,3.833,3.833,0,0,1-1.421-.863l.964-1.065a3.859,3.859,0,0,0,.964.609,2.76,2.76,0,0,0,1.116.253,1.053,1.053,0,0,0,.761-.2.533.533,0,0,0,.253-.456V238.2l-.253-.2-.406-.2-.761-.254-.964-.254-.761-.405-.456-.61a2.176,2.176,0,0,1-.153-.862v-.051l.153-.862a1.772,1.772,0,0,1,.557-.659,1.92,1.92,0,0,1,.761-.457,3.273,3.273,0,0,1,1.014-.151,4.4,4.4,0,0,1,1.421.253,3.547,3.547,0,0,1,1.217.659l-.811,1.167-.964-.507a1.982,1.982,0,0,0-.912-.2.859.859,0,0,0-.66.2.517.517,0,0,0-.254.405v.051l.1.3.2.2.508.2.761.2.964.356a3.219,3.219,0,0,1,.711.405l.406.558a2.1,2.1,0,0,1,.152.812v.05a1.737,1.737,0,0,1-.2.913,1.674,1.674,0,0,1-.507.71,3.385,3.385,0,0,1-.863.406,3.256,3.256,0,0,1-1.014.152" transform="translate(-258.437 -208.677)"/><path class="a" d="M365.988,234.453h1.573v5.428h-1.573Zm-.051-1.979h1.624v1.37h-1.624Z" transform="translate(-279.031 -208.122)"/><path class="a" d="M387.441,239.568h1.523v.761l.3-.3.354-.3.406-.2.508-.051a1.72,1.72,0,0,1,1.37.558,1.927,1.927,0,0,1,.507,1.471V245h-1.573v-3.043a1.291,1.291,0,0,0-.2-.812,1.122,1.122,0,0,0-1.421,0,1.291,1.291,0,0,0-.253.812V245h-1.523v-5.428m-4.871,3.7.558-.1a.893.893,0,0,0,.406-.254,1.1,1.1,0,0,0,.253-.405,1.508,1.508,0,0,0,.1-.508l-.1-.507a1.106,1.106,0,0,0-.253-.405l-.406-.255-.558-.1-.507.1-.406.255a.786.786,0,0,0-.3.405l-.1.507a1.112,1.112,0,0,0,.406.913A1.219,1.219,0,0,0,382.571,243.271Zm-.152,3.349-1.268-.153a2.913,2.913,0,0,1-1.167-.405l.558-1.167.863.405.964.1a1.614,1.614,0,0,0,1.167-.355,1.48,1.48,0,0,0,.355-1.116v-.253a2.913,2.913,0,0,1-.711.659,2.1,2.1,0,0,1-1.065.2,2.876,2.876,0,0,1-.913-.151,2.227,2.227,0,0,1-.761-.507,2.854,2.854,0,0,1-.507-.761,2.733,2.733,0,0,1-.2-1.116,2.355,2.355,0,0,1,.2-1.066,2.483,2.483,0,0,1,.507-.811,1.991,1.991,0,0,1,.812-.507l.862-.152a2.056,2.056,0,0,1,1.065.254,2.434,2.434,0,0,1,.711.558v-.711h1.522v4.211a2.9,2.9,0,0,1-.66,2.13,2.29,2.29,0,0,1-.964.558Z" transform="translate(-289.121 -213.237)"/><path class="a" d="M258.064,273.6a4.6,4.6,0,0,1-1.623-.3,3.835,3.835,0,0,1-1.421-.863l.964-1.065a3.863,3.863,0,0,0,.964.609,2.756,2.756,0,0,0,1.116.253,1.056,1.056,0,0,0,.762-.2.533.533,0,0,0,.253-.456v-.3l-.253-.2-.406-.2-.761-.254-.964-.253-.762-.406-.456-.609a2.176,2.176,0,0,1-.153-.862v-.051l.153-.862a1.762,1.762,0,0,1,.557-.659,1.92,1.92,0,0,1,.761-.457,3.29,3.29,0,0,1,1.015-.151,4.4,4.4,0,0,1,1.421.253,3.528,3.528,0,0,1,1.218.66l-.812,1.167-.964-.507a1.986,1.986,0,0,0-.913-.2.856.856,0,0,0-.659.2.514.514,0,0,0-.254.405v.052l.1.3.2.2.507.2.761.2.964.356a3.234,3.234,0,0,1,.711.405l.406.558a2.108,2.108,0,0,1,.151.812v.05a1.742,1.742,0,0,1-.2.913,1.687,1.687,0,0,1-.507.71,3.388,3.388,0,0,1-.863.406,3.269,3.269,0,0,1-1.015.152" transform="translate(-197.895 -232.865)"/><path class="a" d="M292.742,278.214a2.772,2.772,0,0,1-1.116-.253,2.9,2.9,0,0,1-.913-.61,2.525,2.525,0,0,1-.557-.862,2.962,2.962,0,0,1-.254-1.116,3.423,3.423,0,0,1,.812-2.029,2.892,2.892,0,0,1,.913-.61,2.828,2.828,0,0,1,1.167-.2,3.12,3.12,0,0,1,1.268.255,2.2,2.2,0,0,1,.863.659l-.913,1.015a1.588,1.588,0,0,0-.557-.457,1.35,1.35,0,0,0-.711-.151l-.507.1-.406.355-.3.456-.1.558v.051a1.822,1.822,0,0,0,.1.558,1.045,1.045,0,0,0,.3.507.785.785,0,0,0,.406.305,1.9,1.9,0,0,0,.609.1,1.416,1.416,0,0,0,.66-.151l.558-.407.913.913a4.393,4.393,0,0,1-.913.71,2.542,2.542,0,0,1-1.32.305m-6.088-3.3a1.646,1.646,0,0,0-.354-.862,1.036,1.036,0,0,0-.762-.3,1.072,1.072,0,0,0-.811.3,1.7,1.7,0,0,0-.405.862Zm-1.014,3.3a2.988,2.988,0,0,1-1.117-.253,2.124,2.124,0,0,1-.913-.559,2.523,2.523,0,0,1-.558-.862,3.01,3.01,0,0,1-.253-1.167,2.737,2.737,0,0,1,.2-1.117,2.766,2.766,0,0,1,.558-.912,2.664,2.664,0,0,1,.862-.61,2.74,2.74,0,0,1,1.116-.2,2.809,2.809,0,0,1,1.168.255,1.741,1.741,0,0,1,.811.659,3.936,3.936,0,0,1,.508.913,4.274,4.274,0,0,1,.152,1.116l-.052.2v.2h-3.754a1.2,1.2,0,0,0,.456.812,1.581,1.581,0,0,0,.862.253,1.781,1.781,0,0,0,.71-.153,2.463,2.463,0,0,0,.61-.405l.862.761a2.165,2.165,0,0,1-.914.761A2.664,2.664,0,0,1,285.64,278.214Z" transform="translate(-218.215 -237.424)"/><path class="a" d="M336.963,278.44a1.868,1.868,0,0,1-1.369-.558,2.125,2.125,0,0,1-.457-1.471v-3.5h1.522v3.044a1.3,1.3,0,0,0,.254.812,1.008,1.008,0,0,0,.71.253,1.219,1.219,0,0,0,.71-.253,1.3,1.3,0,0,0,.254-.812V272.91h1.521v5.429h-1.521v-.761l-.306.3-.354.3-.406.2-.558.05" transform="translate(-256.501 -237.701)"/><path class="a" d="M377.538,271.73a1.831,1.831,0,0,0,.558-.1l.405-.3a2.017,2.017,0,0,0,.253-.456l.1-.608v-.051l-.1-.609-.253-.457-.405-.3a1.822,1.822,0,0,0-.558-.1l-.508.1-.406.3-.3.457a1.9,1.9,0,0,0-.1.609v.051l.1.608a1.208,1.208,0,0,0,.3.456l.406.3.508.1m-.356,1.319a2.067,2.067,0,0,1-.963-.2,2.23,2.23,0,0,1-.762-.508,2.788,2.788,0,0,1-.558-.913,2.823,2.823,0,0,1-.2-1.167v-.051a3.074,3.074,0,0,1,.2-1.217,2.545,2.545,0,0,1,.558-.862,1.561,1.561,0,0,1,.762-.509,2.07,2.07,0,0,1,.963-.2,2,2,0,0,1,1.016.255,1.762,1.762,0,0,1,.659.558v-2.69h1.522v7.407h-1.522v-.761a1.907,1.907,0,0,1-.659.609A2,2,0,0,1,377.183,273.049ZM371.4,269.8a1.649,1.649,0,0,0-.354-.862,1.036,1.036,0,0,0-.762-.3,1.073,1.073,0,0,0-.812.3,1.711,1.711,0,0,0-.406.862Zm-1.014,3.3a2.98,2.98,0,0,1-1.117-.253,2.115,2.115,0,0,1-.912-.559,2.524,2.524,0,0,1-.559-.862,3.009,3.009,0,0,1-.253-1.167,2.737,2.737,0,0,1,.2-1.117,2.775,2.775,0,0,1,.558-.912,2.668,2.668,0,0,1,.862-.61,2.747,2.747,0,0,1,1.116-.2,2.811,2.811,0,0,1,1.167.255,1.743,1.743,0,0,1,.811.659,3.92,3.92,0,0,1,.507.913,4.231,4.231,0,0,1,.153,1.117l-.051.2v.2h-3.754a1.2,1.2,0,0,0,.456.812,1.579,1.579,0,0,0,.862.253,1.785,1.785,0,0,0,.71-.152,2.478,2.478,0,0,0,.609-.406l.863.761a2.171,2.171,0,0,1-.914.761A2.667,2.667,0,0,1,370.385,273.1Zm-7.661-5.581h1.523v1.066a2.309,2.309,0,0,1,.659-.863,1.238,1.238,0,0,1,1.065-.3v1.624h-.05a1.5,1.5,0,0,0-1.218.457,2.043,2.043,0,0,0-.456,1.47v1.979h-1.523Z" transform="translate(-276.681 -232.31)"/><path class="b" d="M438.306,187.128h2.182v.507h-.761v2.08h-.609v-2.08h-.812v-.507m5.428,0v2.587h-.608v-1.673l-.66,1.115h-.1l-.66-1.115v1.673H441.1v-2.587h.658l.71,1.116.66-1.116Z" transform="translate(-331.97 -174.951)"/><path class="c" d="M115.6,172.673h-1.878V174.6H115.6Zm-1.877-4.87H115.6v1.876h-1.878Zm4.871-4.973h-1.928v-1.878h1.928Zm3.755-3.906h3.7v-2.029h-3.7v5.936h-3.754v1.927h-3.2v1.319h-1.675V167.8h-2.029V170.8h-1.928v1.876H108.5V174.6h-1.421a63.113,63.113,0,0,0-6.7,12.582c-3.653-5.125-7.052-8.168-10.2-9.183a1.344,1.344,0,0,0-1.827.71c-.355.761-.05,1.725,1.015,2.842,3.2,3.5,6.139,8.473,8.828,14.814a2.99,2.99,0,0,0,2.79,1.725,2.357,2.357,0,0,0,2.689-1.522,62.155,62.155,0,0,1,6.9-13.495v-2.182H112.1v-1.877h1.623v-2.283H115.6V174.6h1.928v-1.929h1.522V170.34h1.673v-1.573h1.624v-4.009h1.877v-1.928h2.182V160.9h-2.182v1.928h-1.877v1.928h-1.878v1.878h-1.876v-1.878h1.876v-5.834h1.878Z" transform="translate(-75.877 -152.836)"/><rect class="d" width="1.877" height="1.979" transform="translate(46.472 6.088)"/><rect class="e" width="1.878" height="1.876" transform="translate(37.847 14.967)"/><rect class="a" width="2.03" height="2.029" transform="translate(52.305 4.059)"/><path d="M231.729,151.366v-2.029H229.7v2.029" transform="translate(-179.372 -147.307)"/><rect class="a" width="2.03" height="2.03" transform="translate(52.305)"/></svg>