<svg xmlns="http://www.w3.org/2000/svg" width="62" height="62" viewBox="0 0 62 62"><defs><style>.a{fill:#707070;}</style></defs><g transform="translate(-1 -1)"><path class="a" d="M54.883,25H47.117l-2,16H37V25H33V21H27V11H24.905l-1-10H18.094l-1,10H15V7H7v4H5V34.641A12.949,12.949,0,0,0,5,53.359V63H61V41H56.883Zm-1.766,2,.25,2H48.633l.25-2Zm-4.734,4h5.234l1.25,10H47.132ZM35,41H26.637A13.028,13.028,0,0,0,17,31.363V27H35ZM17.714,54.341A13.86,13.86,0,0,0,19.105,51h3.373A11.037,11.037,0,0,1,17.714,54.341ZM5.521,51H8.894a13.82,13.82,0,0,0,1.391,3.341A11.049,11.049,0,0,1,5.521,51Zm4.765-17.341A13.82,13.82,0,0,0,8.9,37H5.521A11.046,11.046,0,0,1,10.286,33.659ZM11,19H7V17h4Zm0,2v2H7V21Zm0,4v2H7V25Zm8.978,18a27.425,27.425,0,0,0-.409-4h4.216a10.919,10.919,0,0,1,1.164,4Zm-9.957,0a24.91,24.91,0,0,1,.46-4h7.038a24.8,24.8,0,0,1,.46,4Zm7.958,2a24.91,24.91,0,0,1-.46,4H10.481a24.8,24.8,0,0,1-.46-4ZM19.1,37a13.82,13.82,0,0,0-1.391-3.341A11.029,11.029,0,0,1,22.478,37Zm-2.1,0H10.99c.789-2.473,1.935-4,3.009-4S16.22,34.527,17.009,37ZM8.431,39a27.425,27.425,0,0,0-.409,4H3.051a10.9,10.9,0,0,1,1.164-4Zm-.409,6a27.425,27.425,0,0,0,.409,4H4.214A10.919,10.919,0,0,1,3.05,45Zm2.969,6H17.01c-.789,2.473-1.935,4-3.009,4S11.78,53.473,10.991,51Zm12.8-2H19.57a27.425,27.425,0,0,0,.409-4H24.95a10.919,10.919,0,0,1-1.164,4ZM31,25H21V23H31Zm-6-4H19v4H15v6.051c-.331-.026-.662-.051-1-.051s-.669.025-1,.051V13H25ZM19.905,3h2.189l.8,8H19.1ZM9,9h4v2H9Zm2,4v2H7V13ZM7,29h4v2.363a12.9,12.9,0,0,0-4,1.7ZM7,54.937a12.907,12.907,0,0,0,14,0V61H7ZM31,61H27V53h4Zm12,0H39V53h4Zm12,0H51V53h4Zm2,0V51H49V61H45V51H37V61H33V51H25V61H23V53.359A12.991,12.991,0,0,0,26.637,47H59V61Zm2-16H26.949c.026-.331.051-.662.051-1s-.025-.669-.051-1H59Z"/><path class="a" d="M58,11H55.973A4.507,4.507,0,0,0,51.5,7H49V9h2.5A2.5,2.5,0,0,1,54,11.5V13h4a3,3,0,0,1,0,6H55a3,3,0,0,0-3,3v1h2V22a1,1,0,0,1,1-1h3a5,5,0,0,0,0-10Z"/><path class="a" d="M40,21h7a1,1,0,0,1,1,1v1h2V22a3,3,0,0,0-3-3H40a1,1,0,0,1,0-2h6V15H44a3,3,0,0,1,0-6h3V7H44a5.006,5.006,0,0,0-5,5,4.948,4.948,0,0,0,1.026,3H40a3,3,0,0,0,0,6Z"/><path class="a" d="M31,29h2v2H31Z"/><path class="a" d="M23,29h2v2H23Z"/><path class="a" d="M19,29h2v2H19Z"/><path class="a" d="M27,29h2v2H27Z"/><path class="a" d="M27,33h2v2H27Z"/><path class="a" d="M31,33h2v2H31Z"/><path class="a" d="M27,37h2v2H27Z"/><path class="a" d="M31,37h2v2H31Z"/></g></svg>