<svg xmlns="http://www.w3.org/2000/svg" width="33.68" height="33.743" viewBox="0 0 33.68 33.743"><defs><style>.a{fill:none;stroke:#fff;stroke-linecap:round;stroke-linejoin:round;}</style></defs><path class="a" d="M22.32,7.248a7.81,7.81,0,0,1,6.17,6.17M22.32,1A14.057,14.057,0,0,1,34.738,13.4M33.176,25.866v4.686a3.124,3.124,0,0,1-3.405,3.124,30.911,30.911,0,0,1-13.479-4.8A30.458,30.458,0,0,1,6.92,19.509a30.911,30.911,0,0,1-4.8-13.542A3.124,3.124,0,0,1,5.233,2.562H9.919a3.124,3.124,0,0,1,3.124,2.687,20.055,20.055,0,0,0,1.093,4.389,3.124,3.124,0,0,1-.7,3.3l-1.984,1.984a24.991,24.991,0,0,0,9.372,9.372L22.8,22.3a3.124,3.124,0,0,1,3.3-.7A20.055,20.055,0,0,0,30.489,22.7,3.124,3.124,0,0,1,33.176,25.866Z" transform="translate(-1.61 -0.448)"/></svg>