<svg xmlns="http://www.w3.org/2000/svg" width="62" height="62" viewBox="0 0 62 62"><defs><style>.a{fill:#707070;}</style></defs><g transform="translate(0 0)"><path class="a" d="M60.789,35.359H52.313V31a1.211,1.211,0,0,0-.927-1.177l-4.817-1.161A15.742,15.742,0,0,0,32.211,15.3v-3.2h13.32a1.211,1.211,0,0,0,.856-2.067L42.4,6.055l3.987-3.987A1.211,1.211,0,0,0,45.531,0H31a1.211,1.211,0,0,0-1.211,1.211V15.3A15.742,15.742,0,0,0,15.432,28.662l-4.817,1.161A1.211,1.211,0,0,0,9.688,31v4.359H1.211A1.211,1.211,0,0,0,0,36.57V60.789A1.211,1.211,0,0,0,1.211,62h24.34a1.211,1.211,0,0,0,0-2.422H12.109V57.156H49.891v2.422H36.449a1.211,1.211,0,0,0,0,2.422h24.34A1.211,1.211,0,0,0,62,60.789V36.57A1.211,1.211,0,0,0,60.789,35.359ZM32.211,2.422h10.4L39.831,5.2a1.211,1.211,0,0,0,0,1.713l2.777,2.776h-10.4ZM31,17.68A13.245,13.245,0,0,1,43.992,28.041L31.284,24.979a1.211,1.211,0,0,0-.567,0L18.007,28.041A13.246,13.246,0,0,1,31,17.68ZM12.109,31.954,31,27.4l18.891,4.552v3.406H12.109Zm7.266,5.827V54.734H16.953V37.781Zm2.422,0h5.57V54.734H21.8Zm7.992,0h2.422V54.734H29.789Zm4.844,0H40.2V54.734h-5.57Zm7.992,0h2.422V54.734H42.625Zm-40.2,21.8v-21.8H14.531V54.734H12.109V51.1A1.211,1.211,0,0,0,10.9,49.891H6.055A1.211,1.211,0,0,0,4.844,51.1v4.844a1.211,1.211,0,0,0,1.211,1.211H9.688v2.422Zm7.266-4.844H7.266V52.312H9.688Zm49.891,4.844H52.313V57.156h3.633a1.211,1.211,0,0,0,1.211-1.211V51.1a1.211,1.211,0,0,0-1.211-1.211H51.1A1.211,1.211,0,0,0,49.891,51.1v3.633H47.469V37.781H59.578Zm-7.266-4.844V52.312h2.422v2.422Z"/><path class="a" d="M412,333.211v4.844a1.211,1.211,0,0,0,1.211,1.211h4.844a1.211,1.211,0,0,0,1.211-1.211v-4.844A1.211,1.211,0,0,0,418.055,332h-4.844A1.211,1.211,0,0,0,412,333.211Zm2.422,1.211h2.422v2.422h-2.422Z" transform="translate(-362.109 -291.797)"/><path class="a" d="M41.211,339.266h4.844a1.211,1.211,0,0,0,1.211-1.211v-4.844A1.211,1.211,0,0,0,46.055,332H41.211A1.211,1.211,0,0,0,40,333.211v4.844A1.211,1.211,0,0,0,41.211,339.266Zm1.211-4.844h2.422v2.422H42.422Z" transform="translate(-35.156 -291.797)"/><circle class="a" cx="1" cy="1" r="1" transform="translate(30 60)"/></g></svg>