<?xml version="1.0" encoding="UTF-8"?>
<svg width="30px" height="30px" viewBox="0 0 30 30" version="1.1" xmlns="http://www.w3.org/2000/svg" xmlns:xlink="http://www.w3.org/1999/xlink">
    <!-- Generator: Sketch 54.1 (76490) - https://sketchapp.com -->
    <title>Group 7</title>
    <desc>Created with Sketch.</desc>
    <g id="Components" stroke="none" stroke-width="1" fill="none" fill-rule="evenodd">
        <g transform="translate(-107.000000, -631.000000)" fill="#D8D8D8" id="Group-7">
            <g transform="translate(109.000000, 633.000000)">
                <polygon id="Line-2" fill-rule="nonzero" points="11.25 11.25 11.25 20.25 14.75 20.25 14.75 11.25"></polygon>
                <path d="M13,27.5 C21.0081289,27.5 27.5,21.0081289 27.5,13 C27.5,4.99187113 21.0081289,-1.5 13,-1.5 C4.99187113,-1.5 -1.5,4.99187113 -1.5,13 C-1.5,21.0081289 4.99187113,27.5 13,27.5 Z M13,24.5 C6.64872538,24.5 1.5,19.3512746 1.5,13 C1.5,6.64872538 6.64872538,1.5 13,1.5 C19.3512746,1.5 24.5,6.64872538 24.5,13 C24.5,19.3512746 19.3512746,24.5 13,24.5 Z" id="Oval" fill-rule="nonzero"></path>
                <rect id="Rectangle" x="11.25" y="5" width="3.5" height="3.5" rx="1.75"></rect>
            </g>
        </g>
    </g>
</svg>