<?xml version="1.0" encoding="utf-8"?>
<!-- Generator: Adobe Illustrator 22.0.0, SVG Export Plug-In . SVG Version: 6.00 Build 0)  -->
<svg version="1.1" id="Layer_1" xmlns="http://www.w3.org/2000/svg" xmlns:xlink="http://www.w3.org/1999/xlink" x="0px" y="0px"
	 viewBox="0 0 260.6 77.2" style="enable-background:new 0 0 260.6 77.2;" xml:space="preserve">
<style type="text/css">
	.st0{fill:#FFFFFF;}
	.st1{fill:#D19130;}
	.st2{fill:#191919;}
</style>
<title>Asset 3</title>
<g id="Layer_2_1_">
	<g id="Layer_1-2">
		<path class="st0" d="M258.9,68.1c0,4.1-3.3,7.4-7.4,7.4H9.1c-4.1,0-7.4-3.3-7.4-7.4c0,0,0,0,0,0v-59C1.7,5,5,1.7,9.1,1.7
			c0,0,0,0,0,0h242.3c4.1,0,7.4,3.3,7.4,7.4c0,0,0,0,0,0l0,0V68.1z"/>
		<path class="st1" d="M251.4,77.2H9.1c-5,0-9.1-4.1-9.1-9.1v-59C0,4.1,4.1,0,9.1,0h242.3c5,0,9.1,4.1,9.1,9.1v59
			C260.6,73.2,256.5,77.2,251.4,77.2L251.4,77.2z"/>
		<path class="st1" d="M258.9,68.1c0,4.1-3.3,7.4-7.4,7.4H9.1c-4.1,0-7.4-3.3-7.4-7.4c0,0,0,0,0,0v-59C1.7,5,5,1.7,9.1,1.7
			c0,0,0,0,0,0h242.3c4.1,0,7.4,3.3,7.4,7.4c0,0,0,0,0,0l0,0V68.1z"/>
		<path class="st2" d="M58.2,38.2c0-3.8,2.1-7.4,5.3-9.4c-2.1-3-5.4-4.8-9-4.9c-3.8-0.4-7.5,2.3-9.4,2.3s-5-2.2-8.2-2.2
			c-4.2,0.1-8.1,2.5-10.1,6.2c-4.4,7.6-1.1,18.7,3.1,24.8c2.1,3,4.5,6.3,7.8,6.2s4.3-2,8.1-2s4.8,2,8.1,1.9s5.5-3,7.5-6
			c1.5-2.1,2.7-4.5,3.4-7C60.8,46.5,58.2,42.5,58.2,38.2z M52,19.9c1.8-2.2,2.7-5,2.5-7.9c-2.8,0.3-5.4,1.6-7.3,3.8
			c-1.8,2.1-2.8,4.8-2.6,7.6C47.5,23.4,50.2,22.1,52,19.9z"/>
		<path class="st2" d="M103.6,60.8h-4.4l-2.4-7.5h-8.3l-2.3,7.5h-4.3l8.3-25.7h5.1L103.6,60.8z M96.1,50.1L94,43.4
			c-0.2-0.7-0.7-2.3-1.3-4.8h-0.1c-0.2,1.1-0.7,2.7-1.2,4.8l-2.1,6.7H96.1z M124.9,51.3c0.2,2.7-0.8,5.4-2.6,7.5
			c-1.5,1.6-3.5,2.5-5.7,2.4c-2.1,0.2-4.1-0.8-5.3-2.6v9.7h-4.1v-20c0-2-0.1-4-0.2-6.1h3.6l0.2,2.9h0.1c2.2-3.4,6.7-4.3,10.1-2.1
			c0.6,0.4,1.1,0.9,1.6,1.4C124.2,46.4,125,48.8,124.9,51.3L124.9,51.3z M120.7,51.5c0.1-1.6-0.4-3.2-1.2-4.5
			c-0.8-1.2-2.2-1.9-3.6-1.8c-1,0-2,0.4-2.8,1c-0.8,0.7-1.4,1.6-1.6,2.7c-0.1,0.4-0.2,0.8-0.2,1.2v3.1c0,1.3,0.4,2.5,1.2,3.4
			c0.8,0.9,2,1.4,3.2,1.4c1.4,0.1,2.8-0.6,3.6-1.8C120.3,54.8,120.8,53.2,120.7,51.5z M146.2,51.3c0.2,2.7-0.8,5.4-2.6,7.5
			c-1.5,1.6-3.6,2.5-5.7,2.4c-2.1,0.2-4.1-0.8-5.3-2.6v9.7h-4.1v-20c0-2-0.1-4-0.1-6.1h3.6l0.2,2.9h0.1c2.2-3.4,6.8-4.3,10.2-2
			c0.6,0.4,1.1,0.8,1.5,1.4C145.5,46.4,146.3,48.9,146.2,51.3L146.2,51.3z M142,51.5c0.1-1.6-0.4-3.1-1.2-4.5
			c-0.8-1.2-2.2-1.9-3.6-1.8c-1,0-2,0.4-2.8,1c-0.8,0.7-1.4,1.6-1.6,2.7c-0.1,0.4-0.2,0.8-0.2,1.2v3.1c0,1.3,0.4,2.5,1.2,3.4
			c0.8,0.9,2,1.4,3.2,1.4c1.4,0.1,2.8-0.6,3.6-1.8C141.6,54.8,142.1,53.2,142,51.5z M170,53.6c0.1,2-0.7,4-2.3,5.4
			c-2,1.6-4.5,2.4-7,2.2c-2.3,0.1-4.6-0.4-6.6-1.6l0.9-3.4c1.8,1.1,3.9,1.6,6,1.6c1.3,0.1,2.6-0.3,3.6-1c0.9-0.7,1.3-1.7,1.3-2.8
			c0-1-0.4-1.9-1.1-2.6c-1-0.9-2.2-1.6-3.6-2c-4.5-1.7-6.8-4.1-6.8-7.4c0-2,0.8-3.9,2.4-5.2c1.8-1.4,4-2.1,6.3-2
			c2-0.1,4,0.4,5.8,1.2l-1,3.4c-1.5-0.8-3.2-1.2-4.9-1.2c-1.2-0.1-2.4,0.3-3.4,1.1c-0.7,0.6-1,1.4-1,2.3c0,1,0.4,1.9,1.2,2.5
			c1.1,0.9,2.4,1.5,3.7,2c1.8,0.6,3.5,1.7,4.9,3.1C169.5,50.4,170.1,52,170,53.6z M183.6,45.4h-4.5v9c0,2.3,0.8,3.4,2.4,3.4
			c0.6,0,1.2,0,1.8-0.2l0.1,3.1c-1,0.3-2.1,0.5-3.2,0.5c-1.4,0.1-2.8-0.5-3.8-1.5c-0.9-1-1.4-2.7-1.4-5v-9.3h-2.7v-3.1h2.7v-3.4
			l4-1.2v4.6h4.5L183.6,45.4L183.6,45.4z M204.1,51.4c0.1,2.6-0.8,5.1-2.4,7c-1.7,1.9-4.2,2.9-6.8,2.8c-2.5,0.1-4.8-0.9-6.5-2.7
			c-1.6-1.9-2.4-4.3-2.4-6.8c-0.1-2.6,0.8-5.1,2.5-7c1.7-1.9,4.2-2.9,6.7-2.8c2.5-0.1,4.9,0.9,6.6,2.7
			C203.4,46.6,204.3,49,204.1,51.4L204.1,51.4z M199.8,51.5c0-1.5-0.3-3-1.1-4.4c-0.7-1.4-2.1-2.2-3.7-2.2c-1.6,0-3,0.8-3.8,2.2
			c-0.8,1.4-1.1,2.9-1.1,4.5c0,1.5,0.3,3,1.1,4.4c1.1,2.1,3.7,2.8,5.7,1.7c0.7-0.4,1.3-1,1.7-1.7C199.5,54.6,199.8,53.1,199.8,51.5
			L199.8,51.5z M217.5,45.9c-0.4-0.1-0.9-0.1-1.3-0.1c-1.3-0.1-2.6,0.6-3.4,1.7c-0.7,1.1-1.1,2.4-1,3.7v9.7h-4.1V48.1
			c0-1.9,0-3.9-0.1-5.8h3.6l0.1,3.5h0.1c0.4-1.2,1.1-2.2,2.1-2.9c0.9-0.6,1.9-1,3-1c0.3,0,0.7,0,1,0.1L217.5,45.9L217.5,45.9z
			 M235.9,50.7c0,0.6,0,1.2-0.2,1.9h-12.3c-0.1,1.6,0.6,3.1,1.8,4.2c1.1,0.9,2.6,1.3,4,1.3c1.7,0,3.4-0.3,5-0.9l0.6,2.8
			c-2,0.8-4.1,1.2-6.2,1.2c-2.5,0.1-5-0.8-6.8-2.5c-1.7-1.9-2.6-4.3-2.4-6.8c-0.1-2.5,0.7-5,2.3-7c1.6-2,4-3.1,6.5-3
			c2.4-0.1,4.7,1,6.1,3C235.4,46.5,235.9,48.6,235.9,50.7L235.9,50.7z M232,49.6c0.1-1.1-0.2-2.2-0.8-3.2c-0.7-1.1-2-1.8-3.3-1.7
			c-1.3,0-2.5,0.6-3.3,1.7c-0.7,0.9-1.1,2-1.2,3.2L232,49.6z"/>
		<path class="st2" d="M87.3,26c-1,0-2,0-3-0.1V13.5c1.2-0.2,2.3-0.3,3.5-0.3c4.7,0,6.9,2.3,6.9,6.1C94.7,23.7,92.2,26,87.3,26z
			 M88,14.8c-0.5,0-1.1,0-1.6,0.1v9.4c0.5,0.1,0.9,0.1,1.4,0.1c3.1,0,4.9-1.8,4.9-5.1C92.6,16.4,91,14.8,88,14.8z M101.5,26.1
			c-2.7,0-4.4-2-4.4-4.7s1.8-4.8,4.5-4.8s4.4,1.9,4.4,4.7S104.2,26.1,101.5,26.1z M101.6,18.1c-1.5,0-2.4,1.4-2.4,3.3s1,3.2,2.4,3.2
			s2.4-1.5,2.4-3.3S103.1,18.1,101.6,18.1L101.6,18.1z M121.2,16.8l-2.8,9.1h-1.9l-1.2-4c-0.3-1-0.5-1.9-0.7-2.9l0,0
			c-0.2,1-0.4,2-0.7,2.9l-1.3,4h-1.9l-2.7-9.1h2.1l1,4.3c0.2,1,0.4,2,0.6,2.9l0,0c0.2-1,0.4-1.9,0.8-2.9l1.3-4.4h1.7l1.2,4.3
			c0.3,1,0.5,2,0.7,3h0.1c0.1-1,0.4-2,0.6-3l1.1-4.3L121.2,16.8z M131.7,26h-2v-5.2c0-1.6-0.6-2.4-1.8-2.4c-1.2,0.1-2.1,1-2,2.2
			c0,0,0,0,0,0v5.4h-2v-6.5c0-0.8,0-1.7-0.1-2.6h1.8l0.1,1.4h0.1c0.6-1,1.7-1.6,2.9-1.6c1.9,0,3.2,1.5,3.2,3.8L131.7,26L131.7,26z
			 M137.3,26h-2V12.6h2V26z M144.7,26.2c-2.7,0-4.4-2-4.4-4.7s1.8-4.8,4.5-4.8s4.4,1.9,4.4,4.7S147.4,26.2,144.7,26.2z M144.8,18.2
			c-1.5,0-2.4,1.4-2.4,3.3s1,3.2,2.4,3.2s2.4-1.5,2.4-3.3S146.2,18.2,144.8,18.2z M157.2,26l-0.2-1.1l0,0c-0.6,0.8-1.6,1.3-2.7,1.2
			c-1.5,0.1-2.7-1-2.8-2.5c0-0.1,0-0.1,0-0.2c0-2.2,1.9-3.4,5.3-3.4v-0.2c0-1.2-0.6-1.8-1.9-1.8c-0.8,0-1.7,0.2-2.4,0.7l-0.4-1.3
			c0.9-0.5,2-0.8,3.1-0.8c2.4,0,3.6,1.3,3.6,3.8v3.4c0,0.7,0,1.5,0.1,2.2L157.2,26z M156.9,21.4c-2.2,0-3.4,0.5-3.4,1.8
			c-0.1,0.7,0.4,1.3,1.1,1.4c0.1,0,0.2,0,0.2,0c1.1,0,2-0.8,2-1.9L156.9,21.4z M168.7,26l-0.1-1.5h-0.1c-0.5,1.1-1.7,1.8-2.9,1.7
			c-2.2,0-3.8-1.9-3.8-4.6s1.7-4.9,4-4.9c1-0.1,2,0.4,2.6,1.2l0,0v-5.3h2v10.8c0,0.9,0,1.7,0.1,2.5L168.7,26z M168.4,20.6
			c0.1-1.2-0.8-2.3-2-2.4c0,0-0.1,0-0.1,0c-1.5,0-2.4,1.3-2.4,3.2s0.9,3.1,2.4,3.1c1.3-0.1,2.2-1.1,2.2-2.4c0,0,0,0,0,0V20.6
			L168.4,20.6z M183.3,26.2c-2.7,0-4.4-2-4.4-4.7s1.8-4.8,4.5-4.8c2.6,0,4.4,1.9,4.4,4.7S186,26.2,183.3,26.2z M183.4,18.2
			c-1.5,0-2.4,1.4-2.4,3.3s0.9,3.2,2.4,3.2s2.4-1.5,2.4-3.3S184.8,18.2,183.4,18.2z M198.7,26h-2v-5.3c0-1.6-0.6-2.4-1.8-2.4
			c-1.2,0.1-2.1,1-2,2.2c0,0,0,0,0,0v5.4h-2v-6.5c0-0.8,0-1.7-0.1-2.6h1.8l0.1,1.4h0.1c0.6-1,1.7-1.6,2.9-1.6c1.9,0,3.2,1.5,3.2,3.8
			L198.7,26z M212.3,18.4h-2.2v4.4c0,1.1,0.4,1.7,1.2,1.7c0.3,0,0.6,0,0.9-0.1l0.1,1.5c-0.5,0.2-1,0.2-1.6,0.2
			c-1.6,0-2.6-0.9-2.6-3.2v-4.6h-1.3v-1.5h1.3v-1.7l2-0.6v2.3h2.2L212.3,18.4L212.3,18.4z M223,25.9h-2v-5.2c0-1.6-0.6-2.5-1.8-2.5
			c-1.1,0-2,0.9-2,2c0,0.1,0,0.1,0,0.2v5.5h-2V12.6h2v5.5l0,0c0.6-1,1.6-1.5,2.7-1.5c1.9,0,3.1,1.5,3.1,3.9L223,25.9L223,25.9z
			 M234,21.9h-6.1c-0.1,1.4,1.1,2.7,2.5,2.7c0.1,0,0.2,0,0.4,0c0.8,0,1.7-0.1,2.5-0.4l0.3,1.4c-1,0.4-2,0.6-3,0.6
			c-2.3,0.2-4.4-1.5-4.6-3.9c0-0.2,0-0.5,0-0.7c0-2.8,1.7-4.9,4.3-4.9c2.3,0,3.8,1.7,3.8,4.3C234.1,21.3,234.1,21.6,234,21.9
			L234,21.9z M232.1,20.4c0-1.4-0.7-2.4-2-2.4c-1.3,0.1-2.2,1.1-2.2,2.4H232.1z"/>
	</g>
</g>
</svg>
