<svg xmlns="http://www.w3.org/2000/svg" width="54.692" height="54.692" viewBox="0 0 54.692 54.692"><path d="M29.346,2A27.711,27.711,0,0,0,2,29.346,27.711,27.711,0,0,0,29.346,56.692,27.711,27.711,0,0,0,56.692,29.346,27.711,27.711,0,0,0,29.346,2Zm0,13.673a7.969,7.969,0,0,1,8.2,8.2,7.969,7.969,0,0,1-8.2,8.2,7.97,7.97,0,0,1-8.2-8.2A7.97,7.97,0,0,1,29.346,15.673ZM15.383,42.4a13.562,13.562,0,0,1,11.228-6.016h5.469A13.558,13.558,0,0,1,43.309,42.4a19.046,19.046,0,0,1-27.926,0Z" transform="translate(-2 -2)"/></svg>