<svg xmlns="http://www.w3.org/2000/svg" width="72.064" height="46" viewBox="0 0 72.064 46"><defs><style>.a{fill:#010101;}</style></defs><g transform="translate(-25.544 -108.764)"><path class="a" d="M25.864,109.354a1.276,1.276,0,0,1,1.154-.586q27.187,0,54.374,0a3.012,3.012,0,0,1,1.536.2,1.726,1.726,0,0,1,.937,1.386c.034,1.807-.022,3.617.027,5.424,1.715-.027,3.432-.006,5.147-.012a1.472,1.472,0,0,1,1.489,1.5c.034,1.832,0,3.666.016,5.5,1.836.017,3.673-.02,5.51.016a1.514,1.514,0,0,1,1.425,1.173,9.926,9.926,0,0,1,.061,1.711q-.007,13.05,0,26.1c-.039.675.056,1.348.072,2.021a1.3,1.3,0,0,1-1.381.978H41.084a1.765,1.765,0,0,1-1.867-1.739c-.009-1.865.008-3.731-.008-5.6-1.72.011-3.44,0-5.162.006-.861.014-1.937-.63-1.832-1.6.008-1.793-.009-3.588.011-5.382-1.787-.056-3.576.009-5.363-.028a1.428,1.428,0,0,1-1.279-1.318,18.634,18.634,0,0,1-.033-1.868q0-13.045,0-26.092a2.963,2.963,0,0,1,.314-1.787m2.353,2.414q0,12.832,0,25.662c17.428-.059,34.857-.016,52.285-.03,0-8.545-.008-17.089.037-25.633q-26.161.007-52.324,0M83.884,119.1c.008,6.357,0,12.713,0,19.07a3,3,0,0,1-.223,1.651,1.718,1.718,0,0,1-1.487.94q-23.314,0-46.627,0c0,1.331,0,2.664,0,4q1.91,0,3.816,0c.548.027,1.006-.389,1.559-.336q23.307,0,46.611,0c.009-6.672,0-13.344.006-20.015-.023-.547.359-1.012.333-1.556-.008-1.253.006-2.5-.008-3.756-1.328,0-2.656,0-3.984,0m6.988,7q0,9.952,0,19.9a1.455,1.455,0,0,1-1.518,1.453q-23.234.023-46.469,0c.006,1.433-.006,2.863,0,4.3q25.992.023,51.987.008,0-12.832,0-25.664C93.538,126.1,92.206,126.094,90.872,126.1Z" transform="translate(0 0)"/><path class="a" d="M143.479,132.643a11.269,11.269,0,0,1,8.373,1.064,12.117,12.117,0,0,1,5.419,6.325,12.747,12.747,0,0,1,.487,7.039,12.549,12.549,0,0,1-4.071,6.839,1.267,1.267,0,0,0-.761.228,11.293,11.293,0,0,1-8.514,1.954,12.537,12.537,0,0,1-5.59-2.615,11.134,11.134,0,0,1-4.473-8.761c-.072-.665.423-1.206.422-1.862a11.971,11.971,0,0,1,8.706-10.212m1.772,3.042A8.9,8.9,0,0,0,138.363,141a8.382,8.382,0,0,0-.136,6.2,9.04,9.04,0,0,0,4.7,4.983,8.631,8.631,0,0,0,5.824.423,8.777,8.777,0,0,0,6.558-8.045,8.97,8.97,0,0,0-4.524-7.734A8.628,8.628,0,0,0,145.251,135.685Z" transform="translate(-91.803 -19.834)"/><path class="a" d="M59.215,142.936a2.339,2.339,0,1,1-1.634,2.748,2.33,2.33,0,0,1,1.634-2.748m.314,1.69c-.281.173-.464.616-.192.876a.786.786,0,0,0,1.186-.184A.667.667,0,0,0,59.529,144.626Z" transform="translate(-26.986 -28.752)"/><path class="a" d="M69.886,149.776a1.557,1.557,0,0,1,2.385.209,3.023,3.023,0,0,1-.1,2.4,10.176,10.176,0,0,1-6.992,6.6c.011,2.54-.006,5.082.009,7.624a1.436,1.436,0,0,1-.564,1.362,1.789,1.789,0,0,1-2.768-.989c-.016-3.078,0-6.158,0-9.236a2.026,2.026,0,0,1,1.287-1.728,10.763,10.763,0,0,0,2.02-.327,6.093,6.093,0,0,0,4.274-4.58C69.533,150.661,69.491,150.107,69.886,149.776Z" transform="translate(-30.631 -34.223)"/><path class="a" d="M299.177,150.529c.266-1.612,3.067-1.6,3.306.022.031,3.115,0,6.232.014,9.347a2.043,2.043,0,0,1-1.22,1.7c-.528.173-1.1.2-1.618.4a6.625,6.625,0,0,0-4.509,5.36,3.061,3.061,0,0,1-1.964.964,1.4,1.4,0,0,1-1.436-1.236,10.012,10.012,0,0,1,3.854-6.669,10.791,10.791,0,0,1,3.476-1.756l.066.136C299.191,156.042,299.127,153.283,299.177,150.529Z" transform="translate(-224.619 -34.227)"/><path class="a" d="M336.829,249.557a2.315,2.315,0,0,1,2.614,1.687,2.419,2.419,0,0,1-2.7,2.917,2.31,2.31,0,0,1-1.864-2.7,2.28,2.28,0,0,1,1.946-1.9m.141,1.687a.715.715,0,0,0-.451.708.763.763,0,0,0,1.29.122A.665.665,0,0,0,336.969,251.245Z" transform="translate(-260.978 -118.772)"/></g></svg>