<svg xmlns="http://www.w3.org/2000/svg" width="71.083" height="39.911" viewBox="0 0 71.083 39.911"><defs><style>.a{fill:#2d2d2d;}</style></defs><g transform="translate(-64.72 -148.61)"><path class="a" d="M342.849,148.763a.54.54,0,0,1,.883.249q5.645,9.224,11.286,18.449c.206.463.926,1.035.444,1.524-2.422,1.782-4.784,3.646-7.131,5.52-.773.2-1.424-.446-2.044-.807.591-.556,1.195-1.095,1.793-1.643a46.651,46.651,0,0,0-3.945-5.977c-2.975-3.923-6.144-7.7-9.415-11.377C337.417,152.7,340.135,150.736,342.849,148.763Z" transform="translate(-219.822)"/><path class="a" d="M193.349,184.744c3.446-.643,6.913-1.16,10.379-1.674,2.119,2.236,4.068,4.626,6.04,6.99a80.373,80.373,0,0,1,7.257,9.971,33.013,33.013,0,0,0-3.269,3.589c-1.385,1.816-2.816,3.724-4.865,4.834a41.047,41.047,0,0,0-4.743,3.4c-1.411,1.4-3.044,2.546-4.572,3.812a4.522,4.522,0,0,1-4.178.673,6.258,6.258,0,0,1-2.134-1.28,5.274,5.274,0,0,1-4.107-.273,4.706,4.706,0,0,1-1.55-1.47,6.162,6.162,0,0,1-2.979.6,4.288,4.288,0,0,1-3.7-2.816,3.99,3.99,0,0,1-2.448,1.377,3.043,3.043,0,0,1-2.927-1.364,3.678,3.678,0,0,1-.351-2.137c1.827.318,3.646.7,5.484.95a6.522,6.522,0,0,1,2.029-3.689,3.641,3.641,0,0,1,5.484,1.359,3.521,3.521,0,0,1,2.072-1.923,2.992,2.992,0,0,1,2.923,1.331,4.433,4.433,0,0,1,.749,2.264,3.1,3.1,0,0,1,2.9,1.346,12.972,12.972,0,0,1,1.721,3.288,1.038,1.038,0,0,0,1.245-.781c.8-2.264,1.559-4.546,2.167-6.867a6.889,6.889,0,0,0,1.626,1.492c.442.11.81-.522.442-.82a7.824,7.824,0,0,1-1.8-2.132,14.056,14.056,0,0,0,.641-2.327,51.866,51.866,0,0,1,1.433-6.544,6.237,6.237,0,0,0,1.8-.522c.459-.314.007-1.106-.491-.834a13.1,13.1,0,0,1-4.462.576,76.32,76.32,0,0,1-8.107-.571,4.771,4.771,0,0,1-2.085,1.5c-.769.221-1.1,1.02-1.706,1.477a22.051,22.051,0,0,1-6.484,4.1,7.183,7.183,0,0,1-4.1.543A2.216,2.216,0,0,1,177.066,200c-.015-.266.23-.433.366-.63.5.68,1.318,1.44,2.23,1.03,1.359-.792,2.576-2.3,2.286-3.968a6.243,6.243,0,0,1-2.884,3.126q-.482-.365-.931-.773c.814-.768,1.7-1.457,2.459-2.286,2.189-2.7,4.674-5.135,6.952-7.755a15.179,15.179,0,0,1,3.1-3,8.122,8.122,0,0,1,2.7-.992m8.779.39c-2.122.316-4.252.582-6.369.931a.511.511,0,0,0-.427.8c.188.283.528.182.807.149,2.355-.388,4.726-.667,7.083-1.037a.5.5,0,0,0,0-.948,7.717,7.717,0,0,0-1.095.108m-18.386,22.153c-.283.035-.4.322-.5.55a3.106,3.106,0,0,0-.19,1.784,1.7,1.7,0,0,0,1.938,1.3,3.28,3.28,0,0,0,1.831-1.52c.143-.249.385-.55.151-.821a3.268,3.268,0,0,0-3.232-1.293m5.808.784a2.8,2.8,0,0,0-.632,2.12,1.579,1.579,0,0,0,2.275,1.171,2.866,2.866,0,0,0,1.176-1.756.462.462,0,0,0-.361-.623,2.846,2.846,0,0,1-1.507-.585c-.284-.167-.6-.552-.952-.327m3.535,3.252a19.888,19.888,0,0,0,.782,2.955,1.988,1.988,0,0,0,1.431-.846c.242-.424.584-1.043.217-1.485A12.521,12.521,0,0,1,193.085,211.324Z" transform="translate(-89.938 -28.056)"/><path class="a" d="M72.1,211.746c.16-.242.3-.654.669-.587.866.221,1.715.515,2.6.686,6.02,1.321,12.125,2.2,18.217,3.109-.569.589-1.145,1.175-1.712,1.766-4.525-.643-9.053-1.314-13.513-2.321-.955-.2-1.875-.522-2.8-.8a16.894,16.894,0,0,1-1.509.79,9.91,9.91,0,0,1-1.669.249,2.664,2.664,0,0,0-.448.68c-1.195,2.256-2.444,4.484-3.654,6.733a.546.546,0,0,0,.067.769c.481.149,1.043.061,1.466.385.511.271.262,1.163.924,1.238a107.682,107.682,0,0,0,15.819,3.4c1.823.279,3.633.636,5.429,1.052-.13.175-.262.348-.392.522-3.189-.505-6.38-.989-9.565-1.507-5.642-1.128-11.232-2.492-16.839-3.78C67.481,220,69.8,215.879,72.1,211.746Z" transform="translate(-0.375 -50.918)"/><path class="a" d="M94.317,230.12A50.853,50.853,0,0,0,100,231.5c3.232.623,6.484,1.132,9.74,1.613-.517.61-1.035,1.221-1.557,1.827a8.422,8.422,0,0,0-4.633.773,1.706,1.706,0,0,0-.959,2,4.559,4.559,0,0,0,2.4,2.258,11.737,11.737,0,0,0,5.776,1.152,6.432,6.432,0,0,0,3.085-.87c.418-.253.637-.736,1.076-.959a20.282,20.282,0,0,0,5.153-4.011c2.249.322,4.5.58,6.767.792a4.556,4.556,0,0,0,2.513,2.277,45.153,45.153,0,0,1-1.786,6.185,3.734,3.734,0,0,0-3.722,1.622,5.134,5.134,0,0,0-3.319-3.1,3,3,0,0,0-3.15,1.145,5.681,5.681,0,0,0-4.219-1.227,3.75,3.75,0,0,0-1.63.552,67.968,67.968,0,0,0-8.569-1.52c-4.427-.723-8.77-1.87-13.1-3.024a2.3,2.3,0,0,0-1.754-1.559q1.745-3.195,3.479-6.4A5.1,5.1,0,0,0,94.317,230.12Z" transform="translate(-19.043 -66.361)"/><path class="a" d="M267.4,251.044c.335-.191.624-.606,1.046-.559a55.814,55.814,0,0,0,9.9.433c-.44,1.617-.844,3.247-1.149,4.9a22.562,22.562,0,0,1-.461,2.464c-.749,2.47-1.736,4.858-2.715,7.242-.4-.091-.924.006-1.163-.4a4.265,4.265,0,0,0-2.325-1.621,2.389,2.389,0,0,1,1.383-1.256,5.892,5.892,0,0,1,2.091-.087c.271-.134.338-.465.468-.712a49.135,49.135,0,0,0,1.879-6.514c.1-.309.121-.8-.3-.859a3.334,3.334,0,0,1-2.279-1.745c-.184-.258-.277-.71-.68-.682C271.186,251.534,269.294,251.268,267.4,251.044Z" transform="translate(-165.013 -82.938)"/><path class="a" d="M64.72,286.35c5.531,1.264,11.043,2.615,16.607,3.726,3.1.522,6.211.976,9.315,1.472q-.379.742-.7,1.509c-7.936-1.349-15.8-3.065-23.68-4.722-.256-.085-.621-.065-.76-.346C65.2,287.461,64.982,286.895,64.72,286.35Z" transform="translate(0 -112.141)"/><path class="a" d="M301,336.48c.232.03.463.061.7.093q-.159.438-.312.881Q301.192,336.966,301,336.48Z" transform="translate(-192.368 -152.955)"/></g></svg>