<svg xmlns="http://www.w3.org/2000/svg" xmlns:xlink="http://www.w3.org/1999/xlink" width="439" height="343.5" viewBox="0 0 439 343.5"><defs><style>.a,.j,.k{fill:#7cb305;}.a,.d,.g,.m{opacity:0.1;}.b{fill:url(#a);}.c{fill:#efb7b9;}.e{fill:#dce6f2;}.f{fill:#965d7b;}.h{fill:#444053;}.i{fill:#a36468;}.k,.l{opacity:0.05;}.m{fill:#fff;}.n{fill:#a8a8a8;}.o{opacity:0.2;}</style><linearGradient id="a" y1="0.5" x2="1" y2="0.5" gradientUnits="objectBoundingBox"><stop offset="0" stop-color="gray" stop-opacity="0.251"/><stop offset="0.54" stop-color="gray" stop-opacity="0.122"/><stop offset="1" stop-color="gray" stop-opacity="0.102"/></linearGradient></defs><g transform="translate(0.004 -0.003)"><ellipse class="a" cx="76.577" cy="14.507" rx="76.577" ry="14.507" transform="translate(77.414 307.836)"/><path class="a" d="M350.289,103.474c-28.143-.974-54.948-10.062-80.543-20S218.8,62.52,191.33,57.254c-17.668-3.387-37.875-3.87-52.108,5.592-13.7,9.132-18.129,24.852-20.508,39.45-1.792,10.984-2.844,22.547,2.061,32.831,3.409,7.14,9.454,13.141,13.637,19.981,14.554,23.795,4.266,53.139-11.5,76.373-7.392,10.9-15.981,21.308-21.69,32.9s-8.349,24.913-3.353,36.767c4.949,11.741,16.746,20.542,29.526,26.739,25.956,12.589,56.531,16.189,86.366,18.233,66.023,4.514,132.394,2.561,198.592.6,24.5-.722,49.1-1.457,73.2-5.244,13.385-2.1,27.2-5.444,36.919-13.506,12.332-10.232,15.389-27.556,7.123-40.385-13.863-21.525-52.182-26.869-61.884-49.964-5.331-12.715.144-26.874,7.9-38.663,16.629-25.3,44.5-47.486,45.964-76.394,1.009-19.855-12.389-39.741-33.105-49.138-21.712-9.849-51.825-8.61-67.837,7.692C404.128,97.882,375.141,104.34,350.289,103.474Z" transform="translate(-95.23 -55.03)"/><path class="b" d="M453.876,266.652l-13.319-8.98h0l6.718-10-35.179-2.8-12.641,9.775L383.63,245.77l-13.2,1.587-.157-3.479a98.191,98.191,0,0,0-1.091-10.828c.057-1.087.1-2.335.091-3.692,0-5.718-.774-13.3-4.175-18.351l.783-7.036-6.349-7.5a47.99,47.99,0,0,1,3.479-5.853c.217-.313.435-.617.67-.913a15.789,15.789,0,0,0,14.741-15.655,10.017,10.017,0,0,0-.043-1.144,4.14,4.14,0,0,0-.048-.461c.8.435,1.618.87,2.431,1.3.152.217.326.435.518.691h0l.039.048.243.3.078.091c.087.1.178.2.27.309l.061.07c.23.257.474.517.735.774a.788.788,0,0,1,.087.083l.326.3.091.083c.278.248.574.487.87.713l.1.07.374.257.122.078c.144.087.291.178.435.261l.052.03c.17.091.344.178.517.261l.087.035q.222.1.435.183l.135.048c.152.052.3.1.457.143l.1.026c.191.048.383.087.578.117h.022a4.731,4.731,0,0,0,.557.057h.126a4.779,4.779,0,0,0,.5,0h.109a5.147,5.147,0,0,0,.622-.074,6.862,6.862,0,0,0,2.74-.983,2.391,2.391,0,0,0,.557-.517,2.05,2.05,0,0,0-.087-2.387h0c-.339-.809-2.539-1.378-2.539-1.378s-6.958-2.9-6.958-5.218-1.739-14.315-19.694-17.059c0,0-11.68-.657-14.963,5.6l-.07.731c-.965.6-1.766,1.818-2.718,2.174a4.44,4.44,0,0,0-1.178.435v-.083h0a1.122,1.122,0,0,0-.265.344,3.478,3.478,0,0,0-.361,1.3,4.912,4.912,0,0,1-.57,1.579,3.517,3.517,0,0,1-.261.4h0l-.074.117a3.175,3.175,0,0,0,1.479-.239,7.363,7.363,0,0,1-.435,1.739,1.444,1.444,0,0,0,1.339-.8v-.035l.056-.078a3.669,3.669,0,0,0,.27-.631l-.048.052c.087-.283.165-.57.261-.848a1.33,1.33,0,0,1,.213-.435,1.052,1.052,0,0,1,.9-.3l-.178,3.77h.078a5.138,5.138,0,0,1-.383.791c-.617,1-1.739,1.683-2.152,2.779a4.088,4.088,0,0,0-.2,1.644c0,.326.039.657.065.983v-.026a3.667,3.667,0,0,1-.391,2.4c-.322.478-.839.839-1.018,1.383a1.347,1.347,0,0,0-.065.47,5.275,5.275,0,0,0,.3,1.4.061.061,0,0,0,0-.026,2.122,2.122,0,0,1,.074,1.026c-.2.87-1.252,1.6-1.2,2.426a.934.934,0,0,0,.048.322,1.761,1.761,0,0,0,.983.87,3.827,3.827,0,0,0,2.209.487,2.9,2.9,0,0,0,.826-.283c-.3.7-.617,1.392-.935,2.048-.048.1-.1.209-.152.313,0,0-2.687-1.8-4.214,1.865a8.124,8.124,0,0,0-.944,2.453,5.83,5.83,0,0,1-.322,1.009,6.492,6.492,0,0,1-2.9,2.609C333.4,194.319,320.825,210,320.6,214.065a23.7,23.7,0,0,1-.8,4.688,27.9,27.9,0,0,0-.748,11.084,21.2,21.2,0,0,0,.77,3.535A79.213,79.213,0,0,1,322.051,245l1.444,13.141a37.407,37.407,0,0,0,.235,5.431c-1.474,1.683-7.392,8.7-5.131,10.606,1.739,1.5,4.783,1.257,6.492.948-1.439,3.561-3.7,9.754-4,14.007-.435,6.292.744,14.628,2.609,17.829s8.084,11.41,8.084,11.41-.291,11.263,1.931,15.355,3.118,12.58,3.118,12.58,2.074,7.166,1.035,9.8,1.926,4.827-1.187,6.579-7.1,41.25-7.1,41.25-1.6,25.887,0,27.2a1.634,1.634,0,0,0,.274.161V440s-1.113,1.826,3.414,2.2c3.1.248,11.889.809,17.1,1.135l4.04.252s9.567,1.9,13.793,0,11.719-1.861,10.606-6.892a14.31,14.31,0,0,0-.591-2.013c-1.222-3.122-3.3-3.479-7.118-4.349-.222-.048-.435-.091-.631-.126-4.027-.7-5.349,1.174-7.606-1.265-1.961-2.109-8.206-4.47-10.332-5.218.052-.157.117-.309.17-.47a3.183,3.183,0,0,1-1.613-.787l5.762.365,3.431.213s8.132,1.622,11.741,0,9.958-1.578,9.01-5.853a12.258,12.258,0,0,0-.5-1.713c-1.039-2.653-2.8-2.944-6.053-3.679-.187-.039-.361-.078-.535-.109-3.422-.6-4.544,1-6.462-1.074-1.644-1.765-6.831-3.744-8.7-4.418,0-.965-1.3-2.339-2.126-3.718-.965-1.609.818-7.24.818-7.24l1.018-23.365a4.514,4.514,0,0,1,1.218-.348s4.6-4.392,3.561-9.071a30.063,30.063,0,0,1-.33-4.275c1.513-1.4,3.6-3.479,4.188-4.757.965-2.083,0-12.176,0-12.176V302.653l7.7.778,6.984.717,2.126.217,6.984.7,16.05,1.622,14.463-2.74,6.257-1.183,12.867-2.435V268.852ZM347.942,162.327l-.9-.1C347.342,162.244,347.655,162.3,347.942,162.327Z" transform="translate(-221.181 -109.347)"/><path class="c" d="M514.727,443.3c-4.349,6.223-19.981,2.927-19.981,2.927l-12.115-11.336L481,433.36l2.735-5.81s.87.239,2.361.665C493.928,430.49,518.4,438.073,514.727,443.3Z" transform="translate(-313.25 -265.558)"/><path class="d" d="M486.088,428.215a25.511,25.511,0,0,1-3.457,6.679L481,433.36l2.735-5.81S484.614,427.789,486.088,428.215Z" transform="translate(-313.25 -265.558)"/><path class="e" d="M383.324,278.183S372.157,283.135,372.7,295.3a200.53,200.53,0,0,0,2.557,23.378s-2.283,18.3,7.223,23.021,18.3,8.6,18.3,8.6,14.872,1.6,16.72,2.261,7.623-9.445,6.558-11.019-14.715-4.875-16.455-7.5-5.762-4.248-5.762-4.248-4.153-2.513-4.435-4.783.813-3.961,1.091-4.957.983-10.61.983-10.61S404.175,275.213,383.324,278.183Z" transform="translate(-252.036 -181.04)"/><path class="d" d="M395.986,370.39s-15.32,2.566-13.837,7.927A32.479,32.479,0,0,1,395.986,370.39Z" transform="translate(-257.327 -233.254)"/><path class="d" d="M405.287,375.38s-8.423,6.875-6.775,7.227S405.287,375.38,405.287,375.38Z" transform="translate(-266.512 -236.074)"/><path class="d" d="M421.964,380.89s-2.257,4.622-.87,4.309S421.964,380.89,421.964,380.89Z" transform="translate(-279.14 -239.188)"/><path class="d" d="M426.168,344.821l-.931-.265a2.659,2.659,0,0,0,.122-1.9c-1.065-1.574-14.707-4.87-16.442-7.5s-5.762-4.249-5.762-4.249-4.153-2.513-4.435-4.783.813-3.961,1.091-4.957.983-10.615.983-10.615,4.675-34.218-16.176-31.248c0,0-11.167,4.957-10.623,17.12a199.963,199.963,0,0,0,2.561,23.378s-2.283,18.3,7.223,23.021,18.3,8.6,18.3,8.6,14.868,1.6,16.72,2.261c.7.252,1.966-1.048,3.2-2.835l.7.657,12.115,11.332s15.633,3.3,19.981-2.922C458.482,354.675,434.017,347.091,426.168,344.821Z" transform="translate(-252.766 -181.673)"/><path class="f" d="M378.968,170.19a3.7,3.7,0,0,0-1.2.465c-.435.361-.435.978-.544,1.518a4.993,4.993,0,0,1-.87,2.079,3.126,3.126,0,0,0,1.448-.239,7.452,7.452,0,0,1-.435,1.739,1.409,1.409,0,0,0,1.3-.8,8.378,8.378,0,0,0,.544-1.526,1.257,1.257,0,0,1,.209-.435c.4-.474,1.144-.261,1.761-.2a2.892,2.892,0,0,0,2.644-1.27c.657-1,.7-3.544-.87-3.814C381.32,167.441,380.3,169.694,378.968,170.19Z" transform="translate(-254.107 -118.697)"/><g class="g" transform="translate(122.308 51.845)"><path d="M378.607,174.9c.039-.213.065-.435.113-.648h0a2.551,2.551,0,0,0-.544,1.518,4.781,4.781,0,0,1-.257.918A4.983,4.983,0,0,0,378.607,174.9Z" transform="translate(-377.303 -174.25)"/><path d="M377.944,181.739a7.234,7.234,0,0,0,.435-1.739,3.114,3.114,0,0,1-1.379.239,5.032,5.032,0,0,1-.5.87,3.1,3.1,0,0,0,1.444-.235,7.231,7.231,0,0,1-.435,1.739,1.413,1.413,0,0,0,1.3-.8,3.247,3.247,0,0,0,.261-.622A1.3,1.3,0,0,1,377.944,181.739Z" transform="translate(-376.5 -177.5)"/><path d="M385.9,175.815c-.618-.061-1.365-.274-1.766.2a1.344,1.344,0,0,0-.209.435c-.039.113-.074.23-.1.348.413-.326,1.083-.152,1.644-.1a2.9,2.9,0,0,0,2.644-1.27,2.409,2.409,0,0,0,.291-.683A2.9,2.9,0,0,1,385.9,175.815Z" transform="translate(-380.637 -174.533)"/></g><path class="e" d="M314.318,201l6.631,7.975-.865,8.049-8.014-12.545Z" transform="translate(-176.369 -113.593)"/><path class="d" d="M320.945,208.975l-.813,7.571-.052.478L312.848,205.7l-.778-1.222.226-.352L314.314,201l.448.539Z" transform="translate(-176.369 -113.593)"/><path class="c" d="M399.929,215.969c-2.244.644-4.388,2.853-6.253,5.536a47.244,47.244,0,0,0-3.374,5.8c-.613,1.226-1.152,2.4-1.6,3.431l-.313.731c-.757,1.787-1.178,2.983-1.178,2.983s-17.177-12.915-14.459-13.785c.913-.291,2.113-2.248,3.3-4.714l.148-.313c.752-1.583,1.492-3.348,2.148-5.009,1.344-3.414,2.34-6.379,2.34-6.379S406.778,214.012,399.929,215.969Z" transform="translate(-251.909 -139.36)"/><path class="h" d="M459.26,202.58s3.966,7.175,9.293,6.2,3.135-3.853,3.135-3.853Z" transform="translate(-300.964 -138.416)"/><path class="i" d="M400.074,751.723c-3.514,1.6-11.458,0-11.458,0l-3.348-.209c-4.349-.278-11.628-.748-14.2-.957-3.757-.309-2.835-1.848-2.835-1.848v-9.3l18.229-4.618s7.205,2.466,9.18,4.618c1.874,2.053,2.97.474,6.314,1.065.165.03.339.065.522.109,3.174.726,4.9,1.013,5.914,3.644a12.218,12.218,0,0,1,.491,1.7C409.819,750.158,403.583,750.127,400.074,751.723Z" transform="translate(-249.462 -439.195)"/><path class="d" d="M408.389,751.613a13.631,13.631,0,0,1-2.052,1.052c-2.392,1.091-4.666,2.422-7.084,3.453a16.567,16.567,0,0,1-7.64,1.57,11.393,11.393,0,0,0-4.079-.043,9.418,9.418,0,0,0-2.266,1.257c-4.349-.278-11.628-.748-14.2-.957-3.757-.309-2.835-1.848-2.835-1.848v-1.087c.135,0,.287-.039.461-.052a8.209,8.209,0,0,1,2.653.4c1.887.513,3.766,1.018,5.653,1.522a4.466,4.466,0,0,1,2.174-2.774,6.93,6.93,0,0,1,3.5-.8c2.927.039,5.7,1.426,8.619,1.565a4.748,4.748,0,0,0,2.387-.4c.4-.2.752-.491,1.144-.713a8.348,8.348,0,0,1,1.97-.665,43.387,43.387,0,0,0,5.631-1.818c.522-.2,1.131-.574,1.061-1.131-.091-.739-1.252-.826-1.557-1.5a.87.87,0,0,1,.035-.77c.165.031.339.065.522.109C405.649,748.695,407.371,748.982,408.389,751.613Z" transform="translate(-249.462 -446.581)"/><path class="i" d="M384.209,794.629c-4.131,1.887-13.48,0-13.48,0l-3.935-.23c-5.1-.326-13.68-.87-16.711-1.126-4.422-.365-3.335-2.174-3.335-2.174V780.136L368.2,774.7s8.48,2.9,10.8,5.436c2.2,2.413,3.479.557,7.432,1.252.2.035.4.078.613.126,3.735.87,5.762,1.2,6.958,4.292a13.959,13.959,0,0,1,.578,2C395.658,792.785,388.34,792.746,384.209,794.629Z" transform="translate(-237.31 -461.75)"/><path class="d" d="M393.993,794.526a16.187,16.187,0,0,1-2.413,1.239c-2.813,1.283-5.492,2.848-8.336,4.061a19.541,19.541,0,0,1-8.993,1.848c-1.609-.117-3.257-.522-4.783-.052a11.091,11.091,0,0,0-2.674,1.5c-5.1-.326-13.68-.87-16.711-1.126-4.422-.365-3.335-2.174-3.335-2.174V798.54a5.434,5.434,0,0,1,.544-.061,9.541,9.541,0,0,1,3.122.465l6.649,1.792a5.262,5.262,0,0,1,2.579-3.266,8.114,8.114,0,0,1,4.127-.948c3.444.048,6.7,1.678,10.141,1.844a5.615,5.615,0,0,0,2.8-.465c.474-.239.87-.583,1.348-.839a9.458,9.458,0,0,1,2.318-.783,52.054,52.054,0,0,0,6.592-2.14c.613-.243,1.331-.678,1.248-1.331-.109-.87-1.474-.974-1.835-1.774a1.048,1.048,0,0,1,.043-.9c.2.035.4.078.613.126C390.771,791.091,392.8,791.43,393.993,794.526Z" transform="translate(-237.31 -470.47)"/><path class="h" d="M393.03,647.54l-1.161,27.322s-1.739,5.579-.8,7.175,2.535,3.187,1.957,4.131-7.536,11.145-9.784,7.232-4.466-20.873-4.466-20.873l2.074-20.947Z" transform="translate(-255.481 -389.885)"/><path class="h" d="M414.653,491l3.227,4.314v37.519s.944,10,0,12.067-5.727,6.2-5.727,6.2l-4.022-20.655L409,508.59Z" transform="translate(-272.068 -301.417)"/><path class="d" d="M393.03,647.54l-1.161,27.322s-1.739,5.579-.8,7.175,2.535,3.187,1.957,4.131-7.536,11.145-9.784,7.232-4.466-20.873-4.466-20.873l2.074-20.947Z" transform="translate(-255.481 -389.885)"/><path class="d" d="M414.653,491l3.227,4.314v37.519s.944,10,0,12.067-5.727,6.2-5.727,6.2l-4.022-20.655L409,508.59Z" transform="translate(-272.068 -301.417)"/><path class="h" d="M372.029,440.636v20.294l-3.622,15.8s-1.161,38.123-.148,42.759-3.479,8.988-3.479,8.988-2.609.291-2.609,2.318-4.348,7.827-4.348,7.827l.143,11.306s1.887,21.164-1.013,25.221,1.013,4.64,1.013,4.64c-3.622,11.884-21.016,9.132-22.586,7.827s0-26.961,0-26.961,3.888-39.136,6.932-40.876.148-3.914,1.161-6.523-1.013-9.71-1.013-9.71-.87-8.41-3.044-12.467-1.887-15.22-1.887-15.22-6.088-8.119-7.9-11.306-2.974-11.45-2.539-17.685c.3-4.214,2.509-10.349,3.914-13.88.674-1.692,1.161-2.787,1.161-2.787l.413.109,23.752,6.218Z" transform="translate(-226.217 -267.055)"/><path class="d" d="M407.576,215.93c-2.244.644-4.388,2.853-6.253,5.536h-.487a15.533,15.533,0,0,1-13.48-7.8,15.3,15.3,0,0,1-1.365-3.109c1.344-3.414,2.339-6.379,2.339-6.379S414.425,213.973,407.576,215.93Z" transform="translate(-259.555 -139.32)"/><path class="c" d="M415.472,185.981a15.546,15.546,0,1,1-29.083-7.619,15.193,15.193,0,0,1,1.644-2.374,15.733,15.733,0,0,1,3.574-3.14,15.546,15.546,0,0,1,23.843,11.993C415.459,185.224,415.472,185.6,415.472,185.981Z" transform="translate(-258.645 -120.242)"/><path class="d" d="M395.672,257.114l-.052.478-7.232-11.306c-.757,1.787-1.178,2.983-1.178,2.983s-17.177-12.932-14.459-13.8c.913-.291,2.113-2.248,3.3-4.714l.148-.313c1.261,3.757,8.588,11.267,11.637,14.276.352.348.644.635.87.844l.465.435.243.244C390.523,247.382,395.2,252.426,395.672,257.114Z" transform="translate(-251.909 -154.161)"/><path class="e" d="M371.7,295.312l-.791,25.469-.139,4.536s-9.375-.87-18.124-1.826c-7.045-.77-13.685-1.6-14.707-2.087a27.684,27.684,0,0,0-6.305-1.387c-1.7-.23-3.044-.352-3.044-.352s-.5.148-1.27.287c-1.678.3-4.627.552-6.344-.939-2.2-1.909,3.574-8.845,5.014-10.51l.317-.361-.544-5.023-1.413-13.024a79.461,79.461,0,0,0-2.174-11.524,21.252,21.252,0,0,1-.752-3.5,28.039,28.039,0,0,1,.731-10.984,23.95,23.95,0,0,0,.783-4.649c.217-4.022,12.5-19.568,15.546-20.981a6.453,6.453,0,0,0,3.113-3.1,5.931,5.931,0,0,0,.474-1.352c1.3-5.653,4.605-3.409,4.605-3.409.8,4.422,13.115,16.129,13.115,16.129l.244.244c1.222,1.252,6.666,7.132,6.279,12.15a14.727,14.727,0,0,0,.822,5.5,92.949,92.949,0,0,1,4.283,24.352Z" transform="translate(-222.536 -153.997)"/><path class="d" d="M390.708,310.45s-3.044,7.392-5.327,8.588S391.8,321.56,390.708,310.45Z" transform="translate(-258.995 -199.379)"/><path class="d" d="M394.338,342.2s-6.958.87-6.958,2.174S394.338,342.2,394.338,342.2Z" transform="translate(-260.341 -217.322)"/><path class="d" d="M402.876,361.7s-10.11,21.525-12.937,22.177S402.876,361.7,402.876,361.7Z" transform="translate(-261.595 -228.343)"/><path class="d" d="M386.455,248.911l-8.362,3.635L368,237.3a5.932,5.932,0,0,0,.474-1.352c1.3-5.653,4.605-3.409,4.605-3.409.8,4.422,13.115,16.129,13.115,16.129Z" transform="translate(-249.388 -155.099)"/><path class="e" d="M387.455,246.911l-8.362,3.635L369,235.3a5.931,5.931,0,0,0,.474-1.352c1.3-5.653,4.605-3.409,4.605-3.409.8,4.422,13.115,16.129,13.115,16.129Z" transform="translate(-249.953 -153.969)"/><path class="d" d="M376.646,360.177s-9.375-.87-18.125-1.826l15.7,4.109v4.783c-.687.622-1.283.944-1.67.778-1.809-.761-16.572-3.153-16.572-3.153s-8.575-4.349-17.829-9.567a7.148,7.148,0,0,1-.652-.409,10.28,10.28,0,0,1-2.74-2.744,19.475,19.475,0,0,1-2.9-8.771,37.924,37.924,0,0,1-.226-5.383,44.134,44.134,0,0,1,.557-6.084,200.054,200.054,0,0,1-1.3-23.482c.109-12.176,11.524-16.524,11.524-16.524,20.982-1.848,14.476,32.07,14.476,32.07s-1.213,9.567-1.544,10.545-1.518,2.609-1.357,4.892,4.17,5.014,4.17,5.014,3.914,1.835,5.527,4.553c1.174,2,8.8,4.722,13.111,6.662Z" transform="translate(-228.408 -188.857)"/><path class="d" d="M413.87,173.7a4.922,4.922,0,0,1-.435,2.079,12.852,12.852,0,0,1-.774,1.548,7.132,7.132,0,0,1-1.9,2.366,9.743,9.743,0,0,1-3.479,1.209,5.034,5.034,0,0,0-3.144,1.783,6.237,6.237,0,0,0-.735,2.131,4.583,4.583,0,0,1-.87,2.061,1.709,1.709,0,0,1-2.035.487,2.057,2.057,0,0,1-.787-1.013,14.53,14.53,0,0,1-.822-3.561,7.577,7.577,0,0,0-1.222-3.414,3.057,3.057,0,0,0-3.209-1.231,3.092,3.092,0,0,0-1.739,1.687,9.672,9.672,0,0,0-.657,2.4q-.809,4.427-1.909,8.8a.808.808,0,0,1-.143.33.626.626,0,0,1-.435.183c-.974.13-1.909-.552-2.892-.478a1.66,1.66,0,0,0-.3.048,15.537,15.537,0,0,1,1.57-17.742l.078-.022a4.688,4.688,0,0,0,1.739-1.1,18.362,18.362,0,0,0,1.739-2.013l.348-.435a19.834,19.834,0,0,1,3.392-3.222,3.479,3.479,0,0,1,1.157-.626,3.426,3.426,0,0,1,1.1-.035,27.645,27.645,0,0,0,4.527.17,29.037,29.037,0,0,1,3.179-.322c2.753.078,5.1,2.022,6.84,4.153A6.432,6.432,0,0,1,413.87,173.7Z" transform="translate(-258.605 -117.613)"/><path class="f" d="M378.5,175.6c-.6.991-1.7,1.665-2.1,2.753-.6,1.579.413,3.544-.517,4.953-.309.474-.818.826-.991,1.37-.3.918.513,1.9.3,2.84s-1.452,1.739-1.122,2.661a1.739,1.739,0,0,0,.957.87,3.74,3.74,0,0,0,2.174.483c1.187-.2,2.07-1.361,3.274-1.448.978-.07,1.913.609,2.887.483a.652.652,0,0,0,.435-.187.752.752,0,0,0,.143-.33q1.1-4.37,1.913-8.8a9.479,9.479,0,0,1,.652-2.4,3.118,3.118,0,0,1,1.739-1.687,3.067,3.067,0,0,1,3.209,1.231,7.532,7.532,0,0,1,1.226,3.414,14.726,14.726,0,0,0,.817,3.561,2.079,2.079,0,0,0,.791,1.018,1.7,1.7,0,0,0,2.031-.487,4.536,4.536,0,0,0,.87-2.066,6.21,6.21,0,0,1,.735-2.126,5.045,5.045,0,0,1,3.144-1.783,9.839,9.839,0,0,0,3.479-1.213,7.157,7.157,0,0,0,1.9-2.361,6.951,6.951,0,0,0,1.191-3.631,6.665,6.665,0,0,0-1.783-3.761c-1.739-2.131-4.092-4.075-6.845-4.148a27.047,27.047,0,0,0-3.179.322,27.209,27.209,0,0,1-4.527-.174,3.559,3.559,0,0,0-1.1.039,3.279,3.279,0,0,0-1.152.626,19.843,19.843,0,0,0-3.4,3.218,24.923,24.923,0,0,1-2.1,2.435,4.718,4.718,0,0,1-1.739,1.1c-.435.122-.87.035-1.283.17C379.264,172.94,379.095,174.615,378.5,175.6Z" transform="translate(-252.786 -117.065)"/><path class="d" d="M468.553,208.772c-3.479.639-6.362-2.174-7.958-4.227a17.055,17.055,0,0,1-1.335-1.966l11.941,2.253.483.091S473.88,207.8,468.553,208.772Z" transform="translate(-300.964 -138.416)"/><g class="g" transform="translate(121.205 55.215)"><path d="M376.238,212a3.622,3.622,0,0,0-.252-1.67c0,.043-.039.087-.052.13a3.236,3.236,0,0,0,.226,1.792A1.3,1.3,0,0,0,376.238,212Z" transform="translate(-375.04 -198.011)"/><path d="M379.065,197.8a9.663,9.663,0,0,0,.035,1.8A9.692,9.692,0,0,0,379.065,197.8Z" transform="translate(-376.832 -190.929)"/><path d="M406.4,184.8a7.132,7.132,0,0,1-1.9,2.366,9.715,9.715,0,0,1-3.479,1.209,5.022,5.022,0,0,0-3.144,1.783,6.266,6.266,0,0,0-.735,2.131,4.553,4.553,0,0,1-.87,2.066,1.7,1.7,0,0,1-2.031.487,2.079,2.079,0,0,1-.791-1.018,14.478,14.478,0,0,1-.818-3.561,7.513,7.513,0,0,0-1.226-3.414,3.057,3.057,0,0,0-3.209-1.231,3.1,3.1,0,0,0-1.739,1.687,9.477,9.477,0,0,0-.652,2.4q-.813,4.431-1.913,8.8a.752.752,0,0,1-.143.331.652.652,0,0,1-.435.187c-.974.126-1.909-.552-2.887-.483-1.2.087-2.087,1.252-3.274,1.444a3.675,3.675,0,0,1-2.174-.483,2.327,2.327,0,0,1-.8-.565,1.174,1.174,0,0,0-.161,1.013,1.7,1.7,0,0,0,.957.87,3.674,3.674,0,0,0,2.174.483c1.187-.191,2.07-1.357,3.274-1.444.978-.07,1.913.609,2.887.483a.652.652,0,0,0,.435-.187.752.752,0,0,0,.144-.331q1.1-4.348,1.913-8.8a9.48,9.48,0,0,1,.652-2.4,3.1,3.1,0,0,1,1.739-1.687,3.06,3.06,0,0,1,3.209,1.231,7.531,7.531,0,0,1,1.226,3.414,14.724,14.724,0,0,0,.818,3.561,2.078,2.078,0,0,0,.791,1.018,1.7,1.7,0,0,0,2.031-.487,4.553,4.553,0,0,0,.87-2.066,6.266,6.266,0,0,1,.735-2.131,5.066,5.066,0,0,1,3.144-1.783,9.919,9.919,0,0,0,3.479-1.209,7.132,7.132,0,0,0,1.9-2.366,6.924,6.924,0,0,0,1.191-3.627,4.672,4.672,0,0,0-.052-.5,8.545,8.545,0,0,1-1.139,2.8Z" transform="translate(-373.964 -182)"/></g><path class="d" d="M416.087,178.4a15.363,15.363,0,0,1,1.935,6.458c-3.875-2.174-7.519-4.562-9.358-5.392-3.2-1.448-15.189-1.231-19.694-1.1a15.189,15.189,0,0,1,1.644-2.374,15.733,15.733,0,0,1,3.587-3.14,15.555,15.555,0,0,1,21.908,5.536Z" transform="translate(-261.24 -120.247)"/><path class="d" d="M469.64,206.929c-2.092.644-5.505-.6-9.045-2.383a17.055,17.055,0,0,1-1.335-1.966l11.941,2.253C471.992,205.372,472.192,206.141,469.64,206.929Z" transform="translate(-300.964 -138.416)"/><path class="h" d="M401.225,154.054S389.81,153.4,386.6,159.6l-.517,5.492-.87-.1-.174,3.735s17.446-.761,21.416,1.031,16.307,10.819,21.251,9.3-.435-2.935-.435-2.935-6.805-2.883-6.805-5.144S418.78,156.772,401.225,154.054Z" transform="translate(-259.018 -110.981)"/><path class="d" d="M371.63,622.28s7.284,7.066,10.436,6.523C382.066,628.8,373.152,628.042,371.63,622.28Z" transform="translate(-251.44 -375.609)"/><path class="d" d="M368.13,629.81s.652,3.635,2.392,3.279S368.13,629.81,368.13,629.81Z" transform="translate(-249.462 -379.865)"/><path class="d" d="M382.95,769.53s-10.341,8.045-8.6,8.262S382.95,769.53,382.95,769.53Z" transform="translate(-252.866 -458.828)"/><path class="j" d="M330.96,340.249l33.483-5.449v31.7l-31.814-1.665Z" transform="translate(-187.044 -189.21)"/><path class="k" d="M330.96,340.249l33.483-5.449v31.7l-31.814-1.665Z" transform="translate(-187.044 -189.21)"/><path class="j" d="M407.96,334.8l40.154,3-2.222,27.587L407.96,366.5Z" transform="translate(-230.561 -189.21)"/><path class="d" d="M407.96,334.8l40.154,3-2.222,27.587L407.96,366.5Z" transform="translate(-230.561 -189.21)"/><path class="j" d="M420.305,312.55l-12.345,9.675,40.154,3,6.562-9.9Z" transform="translate(-230.561 -176.636)"/><path class="j" d="M303.08,318.26l30.144-3.67,15.463,8.788L315.2,328.827Z" transform="translate(-171.288 -177.789)"/><path class="j" d="M371.784,350.113v43.342L356.1,391.846l-6.823-.7-2.079-.217-6.818-.7-9.419-.965V347.33l33.479,2.279Z" transform="translate(-187.044 -196.292)"/><path class="j" d="M457.654,341.71v42.267l-12.571,2.413-6.114,1.174-14.128,2.714V346.937Z" transform="translate(-240.101 -193.116)"/><path class="l" d="M457.654,341.71v42.267l-12.571,2.413-6.114,1.174-14.128,2.714V346.937Z" transform="translate(-240.101 -193.116)"/><path class="j" d="M303.08,356.453,315.2,347.33l40.824,2.783-6.01,10.123Z" transform="translate(-171.288 -196.292)"/><path class="m" d="M303.08,356.453,315.2,347.33l40.824,2.783-6.01,10.123Z" transform="translate(-171.288 -196.292)"/><path class="j" d="M457.654,341.71l-32.814,5.227,10.68,9.567,35.149-5.9Z" transform="translate(-240.101 -193.116)"/><path class="m" d="M457.654,341.71l-32.814,5.227,10.68,9.567,35.149-5.9Z" transform="translate(-240.101 -193.116)"/><path class="m" d="M463.444,432.371l-6.114,1.174v-9.032l5.727-1.444Z" transform="translate(-258.462 -239.096)"/><path class="m" d="M379.9,435.96v5.975l-6.823-.7V435.96Z" transform="translate(-210.849 -246.381)"/><path class="m" d="M359.438,440.29v3.179l-6.818-.7V440.29Z" transform="translate(-199.286 -248.828)"/><path class="d" d="M467.56,461.094c-4.675,5.979-20.112,1.848-20.112,1.848l-11.471-11.967-1.557-1.622,3.044-5.653s.87.287,2.322.791C447.474,447.179,471.5,456.063,467.56,461.094Z" transform="translate(-286.926 -274.685)"/><path class="c" d="M466.56,459.094c-4.675,5.979-20.112,1.848-20.112,1.848l-11.471-11.967-1.557-1.622,3.044-5.653s.87.287,2.322.791C446.474,445.179,470.5,454.063,466.56,459.094Z" transform="translate(-286.36 -273.555)"/><path class="d" d="M438.746,442.491a25.708,25.708,0,0,1-3.809,6.484l-1.557-1.622,3.044-5.653S437.3,441.987,438.746,442.491Z" transform="translate(-286.338 -273.555)"/><path class="e" d="M343.4,287.9s-11.415,4.348-11.524,16.524a200.062,200.062,0,0,0,1.3,23.482s-3.261,18.155,5.979,23.373,17.829,9.567,17.829,9.567,14.763,2.392,16.576,3.153,8.114-9.023,7.136-10.654-14.42-5.653-16.016-8.371-5.527-4.549-5.527-4.549-4.009-2.735-4.17-5.018,1.022-3.914,1.357-4.892,1.548-10.545,1.548-10.545S364.384,286.033,343.4,287.9Z" transform="translate(-228.974 -186.594)"/><path class="d" d="M351.785,380.7s-15.437,1.739-14.241,7.175A32.476,32.476,0,0,1,351.785,380.7Z" transform="translate(-232.139 -239.081)"/><path class="d" d="M360.827,385.7s-8.762,6.414-7.153,6.849S360.827,385.7,360.827,385.7Z" transform="translate(-241.18 -241.906)"/><path class="d" d="M377.4,391.7s-2.5,4.5-1.087,4.262S377.4,391.7,377.4,391.7Z" transform="translate(-253.844 -245.297)"/><path class="j" d="M729.83,167.392s-16.524-1-14.594,10.6a2.828,2.828,0,0,0,1.47,2.979s.03-.87,1.7-.57a7.614,7.614,0,0,0,1.8.087,3.727,3.727,0,0,0,2.2-.909h0s4.649-1.918,6.458-9.519c0,0,1.339-1.661,1.3-2.087l-2.792,1.2a5,5,0,0,1,.2,3.688s-.087-3.614-.626-3.531c-.109,0-1.448.7-1.448.7s1.639,3.5.4,6.057c0,0,.47-4.322-.913-5.805l-1.966,1.148s1.918,3.622.617,6.579c0,0,.335-4.535-1.031-6.3l-1.783,1.387s1.8,3.574.7,6.027c0,0-.143-5.279-1.091-5.679a10.755,10.755,0,0,0-1.792,1.939s1.231,2.609.465,3.962c0,0-.47-3.518-.87-3.535a11.706,11.706,0,0,0-1.713,3.914,8.462,8.462,0,0,1,1.335-4.148,4.657,4.657,0,0,0-2.374,1.231s.239-1.648,2.757-1.792a11.9,11.9,0,0,1,1.626-1.879,10.2,10.2,0,0,0-4.022.465s1.335-1.552,4.483-.87l1.739-1.435s-3.3-.435-4.7.048c0,0,1.609-1.374,5.17-.374l1.913-1.144a17.179,17.179,0,0,0-4.483-.387s1.765-.952,5.044.078l1.37-.613s-2.061-.4-2.661-.47-.635-.23-.635-.23a7.114,7.114,0,0,1,3.866.435A17.064,17.064,0,0,0,729.83,167.392Z" transform="translate(-445.54 -118.517)"/><path class="a" d="M845.29,300.732s-16.524-1-14.594,10.6a2.828,2.828,0,0,0,1.47,2.979s.03-.87,1.7-.57a7.615,7.615,0,0,0,1.8.087,3.722,3.722,0,0,0,2.174-.9h0S842.489,311,844.3,303.4c0,0,1.335-1.657,1.283-2.083l-2.792,1.191a5.017,5.017,0,0,1,.2,3.688s-.091-3.614-.626-3.531c-.109,0-1.452.7-1.452.7s1.644,3.509.4,6.057c0,0,.47-4.322-.918-5.805l-1.944,1.135s1.918,3.622.618,6.579c0,0,.335-4.535-1.031-6.3l-1.779,1.392s1.8,3.57.7,6.023c0,0-.144-5.279-1.092-5.679a10.909,10.909,0,0,0-1.8,1.939s1.235,2.609.47,3.961c0,0-.47-3.518-.87-3.535a11.705,11.705,0,0,0-1.713,3.914,8.487,8.487,0,0,1,1.339-4.148,4.678,4.678,0,0,0-2.379,1.231s.244-1.648,2.761-1.792a10.856,10.856,0,0,1,1.626-1.879,10.2,10.2,0,0,0-4.022.465s1.335-1.552,4.479-.848l1.739-1.435s-3.3-.435-4.7.048c0,0,1.609-1.374,5.17-.374l1.913-1.144a17.426,17.426,0,0,0-4.488-.387s1.77-.952,5.049.078l1.37-.613s-2.061-.4-2.666-.47-.635-.23-.635-.23a7.127,7.127,0,0,1,3.87.435A17.543,17.543,0,0,0,845.29,300.732Z" transform="translate(-510.792 -193.875)"/><path class="a" d="M618.952,255.848s3.8-16.129-7.953-16.185a2.825,2.825,0,0,0-3.183.939s.839.178.27,1.77a7.742,7.742,0,0,0-.391,1.739,3.734,3.734,0,0,0,.517,2.318h0s1.1,4.914,8.262,7.993c0,0,1.409,1.6,1.835,1.618l-.7-2.953a5,5,0,0,1-3.67-.435s3.579.526,3.583,0c0-.109-.435-1.548-.435-1.548s-3.735,1.018-6.04-.639c0,0,4.179,1.2,5.879.091l-.783-2.139s-3.914,1.274-6.592-.513c0,0,4.414,1.1,6.388.061l-1.065-1.992s-3.827,1.165-6.057-.335c0,0,5.218.757,5.784-.1a10.8,10.8,0,0,0-1.6-2.1s-2.766.774-3.983-.213c0,0,3.544.135,3.627-.239a11.724,11.724,0,0,0-3.579-2.361,8.523,8.523,0,0,1,3.866,2.026,4.692,4.692,0,0,0-.809-2.553s1.583.522,1.3,3.044A10.833,10.833,0,0,1,615,245.06a10.226,10.226,0,0,0,.226-4.044s1.3,1.583.074,4.562l1.113,1.979s1.009-3.174.752-4.635c0,0,1.083,1.818-.513,5.157l.8,2.083a17.413,17.413,0,0,0,1.144-4.348s.639,1.9-.939,4.962l.374,1.452s.748-1.961.913-2.544.335-.587.335-.587a7.123,7.123,0,0,1-1.083,3.74A17.278,17.278,0,0,0,618.952,255.848Z" transform="translate(-384.84 -159.284)"/><path class="a" d="M525.957,284.3s-13.272-9.928-18.016.826a2.83,2.83,0,0,0-.409,3.3s.5-.7,1.739.461a7.615,7.615,0,0,0,1.452,1.061,3.731,3.731,0,0,0,2.335.435h0s4.94.952,10.628-4.4c0,0,2.031-.652,2.222-1.035l-3-.526a5.024,5.024,0,0,1-1.857,3.192s1.909-3.07,1.413-3.292c-.1-.048-1.6-.217-1.6-.217s-.557,3.835-2.992,5.283c0,0,2.77-3.353,2.426-5.353l-2.274-.122s-.387,4.083-3.1,5.84c0,0,2.77-3.6,2.609-5.831l-2.253.183s-.457,3.97-2.722,5.414c0,0,2.779-4.488,2.209-5.34a10.931,10.931,0,0,0-2.566.631s-.4,2.844-1.787,3.566c0,0,1.544-3.2,1.231-3.418a11.689,11.689,0,0,0-3.592,2.335,8.493,8.493,0,0,1,3.4-2.731,4.683,4.683,0,0,0-2.661-.278s1.1-1.244,3.288.022a10.979,10.979,0,0,1,2.392-.674,10.177,10.177,0,0,0-3.618-1.822s1.974-.565,4.214,1.739l2.257-.23s-2.509-2.174-3.948-2.539c0,0,2.1-.265,4.522,2.526l2.226.1a17.359,17.359,0,0,0-3.531-2.792s2,.174,4.17,2.84l1.483.239s-1.5-1.47-1.97-1.852-.4-.544-.4-.544a7.144,7.144,0,0,1,3,2.487A17.578,17.578,0,0,0,525.957,284.3Z" transform="translate(-328.033 -182.24)"/><path class="a" d="M627.567,72.188s-13.272-9.932-18.016.826a2.83,2.83,0,0,0-.409,3.3s.5-.7,1.74.461a7.736,7.736,0,0,0,1.457,1.057,3.727,3.727,0,0,0,2.335.435h0s4.94.952,10.628-4.405c0,0,2.031-.648,2.218-1.035l-3-.517a5,5,0,0,1-1.857,3.192s1.913-3.07,1.418-3.292c-.1-.048-1.6-.217-1.6-.217s-.574,3.844-3.009,5.283c0,0,2.766-3.353,2.427-5.353l-2.274-.122s-.391,4.083-3.1,5.836c0,0,2.77-3.6,2.609-5.831l-2.248.183s-.461,3.975-2.727,5.418c0,0,2.783-4.488,2.213-5.34a10.932,10.932,0,0,0-2.566.631s-.4,2.844-1.787,3.566c0,0,1.544-3.2,1.231-3.422a11.732,11.732,0,0,0-3.592,2.339,8.454,8.454,0,0,1,3.4-2.731,4.653,4.653,0,0,0-2.666-.278s1.109-1.244,3.292.022a10.74,10.74,0,0,1,2.392-.674,10.233,10.233,0,0,0-3.618-1.826s1.97-.561,4.209,1.739l2.257-.23s-2.5-2.174-3.948-2.544c0,0,2.1-.261,4.527,2.531l2.226.1a17.179,17.179,0,0,0-3.535-2.787s2,.174,4.175,2.84l1.479.239s-1.5-1.452-1.974-1.826-.4-.539-.4-.539a7.132,7.132,0,0,1,3,2.487A18.772,18.772,0,0,0,627.567,72.188Z" transform="translate(-385.458 -62.363)"/><path class="a" d="M745.856,92.295s-5.305-15.7-15.311-9.532a2.858,2.858,0,0,0-2.2,2.483s.8-.3,1.161,1.357a7.832,7.832,0,0,0,.6,1.7,3.766,3.766,0,0,0,1.67,1.692h0s3.531,3.588,11.254,2.4c0,0,2.039.617,2.413.4l-2.174-2.135a5,5,0,0,1-3.34,1.574s3.318-1.444,3.044-1.909c-.057-.091-1.191-1.078-1.191-1.078s-2.635,2.84-5.462,2.653c0,0,4.179-1.191,5.031-3.044l-1.8-1.387s-2.635,3.14-5.866,3.044c0,0,4.349-1.4,5.449-3.327l-1.957-1.126s-2.609,3.014-5.314,2.918c0,0,4.836-2.118,4.849-3.144a10.871,10.871,0,0,0-2.47-.935s-1.939,2.118-3.479,1.926c0,0,3.079-1.761,2.948-2.122a11.667,11.667,0,0,0-4.283-.109,8.475,8.475,0,0,1,4.349-.326,4.691,4.691,0,0,0-2.039-1.739s1.618-.4,2.7,1.883a10.949,10.949,0,0,1,2.348.8,10.219,10.219,0,0,0-1.944-3.553s1.944.657,2.474,3.835l1.992,1.087s-.822-3.222-1.813-4.348c0,0,1.883.974,2.292,4.649l1.783,1.344a17.284,17.284,0,0,0-1.331-4.305s1.548,1.278,1.826,4.709l1.083,1.035s-.4-2.061-.565-2.644-.031-.622-.031-.622a7.171,7.171,0,0,1,1.057,3.748A17.323,17.323,0,0,0,745.856,92.295Z" transform="translate(-453.035 -69.889)"/><path class="a" d="M669.246,108.194s-16.481-1.835-15.12,9.858a2.823,2.823,0,0,0,1.3,3.044s.074-.87,1.739-.478a8,8,0,0,0,1.792.178,3.74,3.74,0,0,0,2.239-.8h0s4.744-1.683,6.958-9.184c0,0,1.418-1.587,1.387-2.018l-2.848,1.052a4.85,4.85,0,0,1,0,3.692s.091-3.614-.435-3.557c-.109,0-1.483.626-1.483.626s1.461,3.588.1,6.088c0,0,.687-4.3-.622-5.844l-2.022,1.044s1.739,3.718.283,6.605c0,0,.565-4.514-.709-6.344l-1.848,1.3s1.618,3.657.4,6.053c0,0,.126-5.279-.8-5.727a11.311,11.311,0,0,0-1.892,1.844s1.1,2.653.27,3.979c0,0-.291-3.535-.674-3.57a11.694,11.694,0,0,0-1.913,3.835,8.467,8.467,0,0,1,1.548-4.079,4.679,4.679,0,0,0-2.435,1.109s.322-1.631,2.844-1.648c0,0,1.37-1.7,1.739-1.792a10.224,10.224,0,0,0-4.044.261s1.413-1.487,4.518-.622l1.831-1.344s-3.309-.67-4.709-.235c0,0,1.679-1.3,5.183-.109l1.97-1.048a17.315,17.315,0,0,0-4.462-.613s1.813-.87,5.036.335l1.4-.544s-2.039-.509-2.64-.6-.622-.261-.622-.261a7.153,7.153,0,0,1,3.844.626A17.793,17.793,0,0,0,669.246,108.194Z" transform="translate(-411.047 -85.014)"/><path class="a" d="M1000.857,402.364s-16.472-1.835-15.111,9.845a2.823,2.823,0,0,0,1.3,3.044s.074-.87,1.739-.483a7.521,7.521,0,0,0,1.792.178,3.709,3.709,0,0,0,2.24-.8h0s4.744-1.683,6.936-9.18c0,0,1.418-1.592,1.387-2.018L998.3,404a4.862,4.862,0,0,1,0,3.7s.091-3.618-.435-3.557c-.109,0-1.483.622-1.483.622s1.461,3.587.1,6.088c0,0,.687-4.292-.622-5.844l-2.022,1.048s1.739,3.718.287,6.605c0,0,.561-4.514-.713-6.349l-1.848,1.3s1.618,3.657.4,6.049c0,0,.126-5.279-.8-5.723a11.482,11.482,0,0,0-1.892,1.844s1.1,2.653.27,3.979c0,0-.291-3.535-.674-3.57a11.694,11.694,0,0,0-1.913,3.835,8.467,8.467,0,0,1,1.548-4.079,4.64,4.64,0,0,0-2.435,1.109s.322-1.635,2.844-1.652c0,0,1.374-1.7,1.739-1.787a10.188,10.188,0,0,0-4.044.257s1.413-1.483,4.522-.617l1.826-1.344s-3.27-.617-4.692-.191c0,0,1.679-1.3,5.183-.113l1.97-1.044a17.316,17.316,0,0,0-4.462-.613s1.813-.87,5.036.335l1.4-.548s-2.039-.509-2.639-.6-.622-.261-.622-.261a7.128,7.128,0,0,1,3.844.622A17.034,17.034,0,0,0,1000.857,402.364Z" transform="translate(-598.462 -251.264)"/><path class="a" d="M1058.767,437.744s-16.472-1.831-15.111,9.845a2.831,2.831,0,0,0,1.3,3.044s.074-.87,1.739-.478a7.676,7.676,0,0,0,1.787.174,3.757,3.757,0,0,0,2.231-.791h0s4.74-1.683,6.932-9.184c0,0,1.422-1.587,1.387-2.018l-2.848,1.048a4.862,4.862,0,0,1,0,3.7s.091-3.614-.435-3.557c-.109,0-1.483.622-1.483.622s1.461,3.588.1,6.088c0,0,.687-4.292-.622-5.84l-2.022,1.044s1.74,3.718.287,6.605c0,0,.561-4.514-.713-6.344l-1.848,1.3s1.618,3.657.4,6.053c0,0,.122-5.283-.8-5.727a11.48,11.48,0,0,0-1.892,1.844s1.1,2.653.27,3.979c0,0-.292-3.535-.674-3.57a11.623,11.623,0,0,0-1.909,3.835,8.486,8.486,0,0,1,1.544-4.079,4.679,4.679,0,0,0-2.435,1.109s.326-1.635,2.848-1.648c0,0,1.37-1.7,1.74-1.792a10.224,10.224,0,0,0-4.044.261s1.413-1.487,4.522-.622l1.826-1.344s-3.27-.617-4.692-.191c0,0,1.678-1.3,5.183-.109l1.97-1.048a17.316,17.316,0,0,0-4.462-.613s1.813-.87,5.036.335l1.4-.544s-2.039-.509-2.635-.6-.626-.261-.626-.261a7.153,7.153,0,0,1,3.844.626A17.21,17.21,0,0,0,1058.767,437.744Z" transform="translate(-631.19 -271.26)"/><path class="a" d="M925.507,134.441s-13.272-9.928-18.016.826a2.83,2.83,0,0,0-.409,3.3s.5-.7,1.739.461a7.616,7.616,0,0,0,1.452,1.061,3.736,3.736,0,0,0,2.335.435h0s4.94.952,10.632-4.4c0,0,2.026-.652,2.218-1.035l-2.987-.539a5.024,5.024,0,0,1-1.857,3.192s1.909-3.07,1.413-3.292c-.1-.048-1.592-.217-1.592-.217s-.561,3.835-3,5.283c0,0,2.77-3.353,2.426-5.353l-2.274-.122s-.387,4.083-3.1,5.84c0,0,2.774-3.6,2.609-5.831l-2.253.183s-.435,3.97-2.722,5.414c0,0,2.783-4.488,2.209-5.34a10.931,10.931,0,0,0-2.566.631s-.391,2.844-1.783,3.566c0,0,1.539-3.2,1.226-3.418a11.689,11.689,0,0,0-3.592,2.335,8.493,8.493,0,0,1,3.4-2.731,4.683,4.683,0,0,0-2.661-.278s1.109-1.244,3.292.022a10.933,10.933,0,0,1,2.387-.674,10.177,10.177,0,0,0-3.618-1.822s1.974-.565,4.214,1.739l2.257-.23s-2.5-2.174-3.948-2.54c0,0,2.1-.265,4.522,2.526l2.231.1a17.431,17.431,0,0,0-3.535-2.792s2,.174,4.17,2.84l1.483.239s-1.5-1.47-1.97-1.852-.4-.509-.4-.509a7.149,7.149,0,0,1,2.992,2.487A17.463,17.463,0,0,0,925.507,134.441Z" transform="translate(-553.838 -97.546)"/><path class="a" d="M951.191,289.81s-4.575-15.929-14.863-10.21a2.825,2.825,0,0,0-2.318,2.379s.818-.257,1.1,1.409a7.708,7.708,0,0,0,.522,1.739,3.736,3.736,0,0,0,1.592,1.774h0s3.366,3.74,11.132,2.9c0,0,2.009.7,2.392.513l-2.057-2.235a5,5,0,0,1-3.4,1.426s3.374-1.3,3.114-1.77c-.052-.1-1.139-1.135-1.139-1.135s-2.757,2.722-5.575,2.4c0,0,4.231-1,5.162-2.8l-1.739-1.47s-2.774,3.018-6,2.783c0,0,4.383-1.2,5.592-3.079l-1.9-1.213s-2.761,2.892-5.44,2.674c0,0,4.927-1.9,4.988-2.922a10.857,10.857,0,0,0-2.431-1.044s-2.031,2.026-3.574,1.765c0,0,3.157-1.622,3.044-1.987a11.745,11.745,0,0,0-4.275-.3,8.483,8.483,0,0,1,4.349-.126,4.666,4.666,0,0,0-1.957-1.826s1.635-.326,2.609,2a10.853,10.853,0,0,1,2.309.9,10.17,10.17,0,0,0-1.783-3.635s1.913.739,2.3,3.94l1.939,1.178s-.678-3.261-1.618-4.409c0,0,1.835,1.057,2.083,4.744l1.739,1.422a17.245,17.245,0,0,0-1.135-4.348s1.492,1.348,1.613,4.783l1.035,1.087s-.3-2.079-.435-2.67,0-.674,0-.674a7.128,7.128,0,0,1,.892,3.792A17.257,17.257,0,0,0,951.191,289.81Z" transform="translate(-569.269 -181.243)"/><path class="a" d="M714.759,376.456s-8.884-13.993-17.133-5.618a2.813,2.813,0,0,0-1.557,2.935s.718-.478,1.457,1.044a7.443,7.443,0,0,0,.983,1.5,3.714,3.714,0,0,0,2.022,1.252h0s4.283,2.644,11.5-.348c0,0,2.126.113,2.44-.178l-2.609-1.565a5,5,0,0,1-2.87,2.326s2.879-2.174,2.492-2.574c-.074-.078-1.413-.765-1.413-.765s-1.883,3.383-4.675,3.875c0,0,3.779-2.152,4.17-4.144l-2.083-.918s-1.813,3.674-4.97,4.349c0,0,3.87-2.387,4.5-4.527l-2.174-.626s-1.835,3.553-4.466,4.1c0,0,4.192-3.209,3.961-4.209a10.8,10.8,0,0,0-2.609-.317s-1.378,2.518-2.935,2.7c0,0,2.574-2.444,2.361-2.766a11.717,11.717,0,0,0-4.188.913,8.462,8.462,0,0,1,4.148-1.348,4.666,4.666,0,0,0-2.387-1.2s1.474-.77,3.044,1.187a10.741,10.741,0,0,1,2.474.217,10.011,10.011,0,0,0-2.735-2.987s2.044.174,3.314,3.135l2.2.583s-1.57-2.935-2.792-3.774c0,0,2.057.5,3.331,3.97l2.052.87a17.334,17.334,0,0,0-2.318-3.861s1.809.87,2.892,4.135l1.3.752s-.87-1.909-1.178-2.435-.187-.648-.187-.648a7.131,7.131,0,0,1,1.918,3.387A17.683,17.683,0,0,0,714.759,376.456Z" transform="translate(-434.775 -231.997)"/><path class="j" d="M849.159,211.579s-8.449-14.259-16.959-6.144a2.828,2.828,0,0,0-1.644,2.887s.726-.461,1.422,1.083a7.509,7.509,0,0,0,.935,1.539,3.692,3.692,0,0,0,1.983,1.3h0s4.2,2.774,11.506,0c0,0,2.122.178,2.444-.1l-2.553-1.644a5,5,0,0,1-2.94,2.235s2.944-2.1,2.574-2.5c-.078-.083-1.391-.813-1.391-.813s-1.987,3.327-4.783,3.731c0,0,3.844-2.035,4.292-4.009l-2.052-.965s-1.926,3.622-5.105,4.2c0,0,3.944-2.266,4.64-4.383l-2.148-.7s-1.948,3.479-4.592,3.957c0,0,4.288-3.079,4.088-4.083a10.741,10.741,0,0,0-2.609-.4s-1.457,2.474-3.018,2.609c0,0,2.648-2.357,2.448-2.687a11.705,11.705,0,0,0-4.214.783,8.489,8.489,0,0,1,4.188-1.218,4.676,4.676,0,0,0-2.353-1.278s1.5-.726,3.044,1.278a11.016,11.016,0,0,1,2.466.3,10.4,10.4,0,0,0-2.64-3.07s2.035.235,3.214,3.235l2.174.652s-1.474-2.983-2.674-3.861c0,0,2.044.561,3.209,4.07l2.022.944a17.471,17.471,0,0,0-2.174-3.914s1.779.926,2.766,4.222l1.274.791s-.818-1.935-1.1-2.47-.165-.652-.165-.652a7.145,7.145,0,0,1,1.813,3.444A16.835,16.835,0,0,0,849.159,211.579Z" transform="translate(-510.787 -138.618)"/><path class="j" d="M732.237,272.97s.435-16.568-11.076-14.233a2.833,2.833,0,0,0-2.931,1.57s.87,0,.626,1.674a7.637,7.637,0,0,0-.026,1.8,3.718,3.718,0,0,0,.978,2.174h0s2.074,4.583,9.732,6.14c0,0,1.7,1.283,2.126,1.213l-1.3-2.748a5.019,5.019,0,0,1-3.679.326s3.609-.213,3.509-.744c0-.109-.748-1.431-.748-1.431s-3.453,1.761-6.04.6c0,0,4.349.326,5.77-1.1l-1.213-1.926s-3.557,2.035-6.558.835c0,0,4.544.183,6.266-1.239l-1.448-1.739s-3.509,1.922-6,.9c0,0,5.27-.317,5.653-1.278a11.279,11.279,0,0,0-2-1.739s-2.548,1.3-3.94.6c0,0,3.479-.583,3.5-.97a11.671,11.671,0,0,0-3.983-1.583,8.466,8.466,0,0,1,4.2,1.2,4.674,4.674,0,0,0-1.3-2.335s1.657.187,1.883,2.7a10.813,10.813,0,0,1,1.931,1.565,10.17,10.17,0,0,0-.6-4.005s1.6,1.283,1,4.449l1.492,1.713s.339-3.314-.2-4.692c0,0,1.426,1.561.548,5.153l1.2,1.874a17.339,17.339,0,0,0,.239-4.5s1.009,1.739.087,5.049l.661,1.348s.335-2.074.378-2.679.209-.644.209-.644a7.139,7.139,0,0,1-.3,3.883A16.576,16.576,0,0,0,732.237,272.97Z" transform="translate(-447.321 -170.026)"/><ellipse class="a" cx="11.711" cy="1.979" rx="11.711" ry="1.979" transform="translate(292.234 309.506)"/><ellipse class="a" cx="11.711" cy="1.979" rx="11.711" ry="1.979" transform="translate(249.545 339.546)"/><ellipse class="a" cx="11.711" cy="1.979" rx="11.711" ry="1.979" transform="translate(28.789 324.156)"/><ellipse class="a" cx="11.711" cy="1.979" rx="11.711" ry="1.979" transform="translate(338.367 337.567)"/><ellipse class="j" cx="17.485" cy="2.957" rx="17.485" ry="2.957" transform="translate(344.786 311.485)"/><path class="j" d="M923.979,756.533a5.048,5.048,0,0,0,1.665-2.513,2.234,2.234,0,0,0-1.161-2.561c-1.07-.409-2.213.331-3.083,1.078s-1.857,1.6-2.992,1.448a4.566,4.566,0,0,0,1.409-4.266,1.787,1.787,0,0,0-.391-.87c-.6-.635-1.67-.361-2.383.139-2.261,1.592-2.892,4.662-2.9,7.427a13.971,13.971,0,0,1-.039-3.044,3.123,3.123,0,0,0-1.152-2.7,3.44,3.44,0,0,0-1.739-.435,3.633,3.633,0,0,0-2.844.809,2.8,2.8,0,0,0,.109,3.479,11.245,11.245,0,0,0,2.944,2.357,6.579,6.579,0,0,1,2.1,2,2.047,2.047,0,0,1,.152.357h6.375A17.588,17.588,0,0,0,923.979,756.533Z" transform="translate(-554.459 -446.931)"/><path class="n" d="M170.29,779.18s6.675-.2,8.7-1.639,10.276-3.144,10.776-.844,10.036,11.432,2.5,11.493-17.52-1.174-19.529-2.4S170.29,779.18,170.29,779.18Z" transform="translate(-137.652 -462.242)"/><path class="o" d="M192.385,792.069c-7.54.061-17.52-1.174-19.529-2.4-1.531-.931-2.139-4.275-2.344-5.818h-.222s.435,5.388,2.431,6.61,11.989,2.461,19.529,2.4c2.174,0,2.927-.791,2.887-1.939C194.833,791.621,194,792.056,192.385,792.069Z" transform="translate(-137.652 -466.921)"/></g></svg>