<svg xmlns="http://www.w3.org/2000/svg" width="842.666" height="437" viewBox="0 0 842.666 437"><defs><style>.a{fill:#3f3d56;}.b{fill:#2f2e41;}.c{fill:#fff;}.d,.h{fill:#7cb305;}.e{fill:#ff6584;opacity:0.66;}.f{fill:#f7f7f7;}.g{fill:#f2f2f2;}.h{stroke:#f7f7f7;stroke-width:5px;font-size:350px;font-family:Montserrat-Regular, Montserrat;}</style></defs><g transform="translate(-324.362 -152)"><ellipse class="a" cx="63.887" cy="3.229" rx="63.887" ry="3.229" transform="translate(997.349 552.596)"/><g transform="translate(60.373 -14.956)"><ellipse class="b" cx="35.734" cy="35.734" rx="35.734" ry="35.734" transform="translate(274.039 462.68)"/><rect class="b" width="10.856" height="19.45" transform="matrix(0.956, -0.294, 0.294, 0.956, 302.446, 530.008)"/><rect class="b" width="10.856" height="19.45" transform="matrix(0.956, -0.294, 0.294, 0.956, 323.2, 523.63)"/><ellipse class="b" cx="9.047" cy="3.392" rx="9.047" ry="3.392" transform="matrix(0.956, -0.294, 0.294, 0.956, 307.229, 545.573)"/><ellipse class="b" cx="9.047" cy="3.392" rx="9.047" ry="3.392" transform="matrix(0.956, -0.294, 0.294, 0.956, 327.85, 538.763)"/><ellipse class="c" cx="12.213" cy="12.213" rx="12.213" ry="12.213" transform="translate(295.767 477.289)"/><ellipse class="a" cx="4.071" cy="4.071" rx="4.071" ry="4.071" transform="translate(303.91 485.431)"/><path class="d" d="M653.859,533.087c-6.554-11.5-1.573-26.695,11.125-33.929s28.305-3.773,34.859,7.732-1.081,18.837-13.78,26.071S660.413,544.591,653.859,533.087Z" transform="translate(-386.982 -56.255)"/><path class="d" d="M795.194,613.849c0,24.913-14.809,33.611-33.079,33.611q-.635,0-1.268-.014c-.846-.018-1.685-.058-2.513-.115-16.488-1.167-29.3-10.313-29.3-33.482,0-23.977,30.64-54.233,32.942-56.472l0,0,.133-.129S795.194,588.936,795.194,613.849Z" transform="translate(-429.736 -90.137)"/><path class="a" d="M783.4,643.649l12.1-16.905-12.129,18.762-.032,1.941c-.847-.018-1.685-.058-2.513-.115l1.3-24.925-.01-.194.022-.036.123-2.354-12.159-18.808,12.2,17.042.028.5.986-18.832-10.41-19.435,10.537,16.129,1.026-39.043,0-.133v.129l-.171,30.788,10.363-12.205-10.406,14.858-.274,16.861,9.676-16.182-9.716,18.663-.153,9.374,14.047-22.522-14.1,25.793Z" transform="translate(-452.229 -90.137)"/><ellipse class="b" cx="5.609" cy="17.867" rx="5.609" ry="17.867" transform="translate(277.353 509.561) rotate(-64.626)"/><ellipse class="a" cx="48.737" cy="2.464" rx="48.737" ry="2.464" transform="translate(277.094 566.235)"/></g><ellipse class="a" cx="281.504" cy="15.355" rx="281.504" ry="15.355" transform="translate(418 526.5)"/><circle class="e" cx="43.045" cy="43.045" r="43.045" transform="translate(1080.939 259.23)"/><path class="f" d="M1019.508,345.553c0,70.594-41.967,95.242-93.736,95.242s-93.736-24.649-93.736-95.243,93.734-160.4,93.734-160.4S1019.508,274.959,1019.508,345.553Z" transform="translate(145.492 44.321)"/><path class="a" d="M922.188,368.954l.959-59.08L963.1,236.783l-39.8,63.823.432-26.565,27.537-52.881L923.845,267.01h0l.776-47.778,29.485-42.1-29.364,34.587.485-87.609L922.18,240.088l.251-4.784-29.978-45.886,29.5,55.071-2.793,53.36-.083-1.416-34.559-48.288,34.455,53.292-.35,6.673-.062.1.029.548L911.5,444.137h9.468l1.136-69.926L956.47,321.05Z" transform="translate(145.659 105.363)"/><path class="g" d="M290.344,170.3c0,48.084-28.585,64.874-63.847,64.874s-63.847-16.789-63.847-64.874S226.5,61.042,226.5,61.042,290.344,122.213,290.344,170.3Z" transform="translate(610.041 245.958)"/><path class="a" d="M261.226,166.774l.654-40.242,27.213-49.786-27.111,43.473.294-18.095L281.032,66.1,262.355,97.336h0l.529-32.544,20.084-28.676-20,23.558L263.3,0l-2.076,79,.171-3.259L240.972,44.484l20.092,37.511-1.9,36.346-.057-.964-23.54-32.891,23.469,36.3-.238,4.545-.043.068.019.373-4.827,92.213h6.449l.774-47.63,23.411-36.21Z" transform="translate(572.984 307)"/><text class="h" transform="translate(380 496)"><tspan x="0" y="0">404</tspan></text></g></svg>