<svg id="Layer_1" data-name="Layer 1" xmlns="http://www.w3.org/2000/svg" viewBox="0 0 379.57 112.47"><defs><style>.cls-1{fill:#d19130;}.cls-2,.cls-3,.cls-4,.cls-5,.cls-6{fill:#191919;}.cls-2{stroke:#fff;stroke-width:0.2px;}.cls-2,.cls-4,.cls-5,.cls-6{stroke-miterlimit:10;}.cls-4,.cls-5,.cls-6{stroke:#d19130;}.cls-4{stroke-width:3px;}.cls-5{stroke-width:2px;}.cls-7{opacity:0.2;}.cls-7,.cls-8,.cls-9{isolation:isolate;}.cls-8{opacity:0.12;}.cls-9{fill:#fff;opacity:0.25;}</style></defs><title>Get-it-on-Google-play</title><g id="_Group_" data-name="&lt;Group&gt;"><rect class="cls-1" x="0.5" y="0.5" width="378.57" height="111.47" rx="13.56" ry="13.56"/><path class="cls-1" d="M376.12,10.91A13.07,13.07,0,0,1,389.17,24v84.35a13.07,13.07,0,0,1-13.05,13.06H24.66A13.08,13.08,0,0,1,11.6,108.32V24A13.08,13.08,0,0,1,24.66,10.91H376.12m0-1H24.66A14.11,14.11,0,0,0,10.6,24v84.35a14.11,14.11,0,0,0,14.06,14.06H376.12a14.1,14.1,0,0,0,14.05-14.06V24A14.1,14.1,0,0,0,376.12,9.91Z" transform="translate(-10.6 -9.91)"/></g><g id="_Group_2" data-name="&lt;Group&gt;"><g id="_Group_3" data-name="&lt;Group&gt;"><path id="_Compound_Path_" data-name="&lt;Compound Path&gt;" class="cls-1" d="M376.12,12.16A11.82,11.82,0,0,1,387.92,24v84.35a11.82,11.82,0,0,1-11.8,11.81H24.66a11.83,11.83,0,0,1-11.81-11.81V24A11.83,11.83,0,0,1,24.66,12.16H376.12m0-2.25H24.66A14.11,14.11,0,0,0,10.6,24v84.35a14.11,14.11,0,0,0,14.06,14.06H376.12a14.1,14.1,0,0,0,14.05-14.06V24A14.1,14.1,0,0,0,376.12,9.91Z" transform="translate(-10.6 -9.91)"/></g></g><g id="_Group_4" data-name="&lt;Group&gt;"><path id="_Compound_Path_2" data-name="&lt;Compound Path&gt;" class="cls-2" d="M143.92,38.71a7.59,7.59,0,0,1-2.09,5.63,8.17,8.17,0,0,1-6.2,2.5A8.67,8.67,0,0,1,126.87,38a8.69,8.69,0,0,1,8.76-8.82,8.67,8.67,0,0,1,3.46.71,6.89,6.89,0,0,1,2.64,1.89l-1.48,1.48a5.71,5.71,0,0,0-4.62-2A6.53,6.53,0,0,0,129.08,38a6.53,6.53,0,0,0,6.55,6.73,6.35,6.35,0,0,0,4.71-1.88,5.32,5.32,0,0,0,1.42-3.42h-6.13v-2h8.18A7,7,0,0,1,143.92,38.71Z" transform="translate(-10.6 -9.91)"/><path id="_Compound_Path_3" data-name="&lt;Compound Path&gt;" class="cls-2" d="M156.88,31.66H149.2V37h6.93v2H149.2v5.35h7.68v2.07H147V29.59h9.84Z" transform="translate(-10.6 -9.91)"/><path id="_Compound_Path_4" data-name="&lt;Compound Path&gt;" class="cls-2" d="M166,46.46h-2.17V31.66h-4.72V29.59h11.6v2.07H166Z" transform="translate(-10.6 -9.91)"/><path id="_Compound_Path_5" data-name="&lt;Compound Path&gt;" class="cls-2" d="M179.13,46.46V29.59h2.16V46.46Z" transform="translate(-10.6 -9.91)"/><path id="_Compound_Path_6" data-name="&lt;Compound Path&gt;" class="cls-2" d="M190.91,46.46h-2.17V31.66H184V29.59h11.59v2.07h-4.71Z" transform="translate(-10.6 -9.91)"/><path id="_Compound_Path_7" data-name="&lt;Compound Path&gt;" class="cls-2" d="M217.56,44.28a8.75,8.75,0,0,1-12.37,0,9.13,9.13,0,0,1,0-12.51,8.73,8.73,0,0,1,12.36,0,9.08,9.08,0,0,1,0,12.5ZM206.8,42.87a6.49,6.49,0,0,0,9.16,0A6.61,6.61,0,0,0,217.84,38,6.62,6.62,0,0,0,216,33.18a6.49,6.49,0,0,0-9.16,0A6.62,6.62,0,0,0,204.92,38,6.61,6.61,0,0,0,206.8,42.87Z" transform="translate(-10.6 -9.91)"/><path id="_Compound_Path_8" data-name="&lt;Compound Path&gt;" class="cls-2" d="M223.09,46.46V29.59h2.64l8.2,13.12H234l-.09-3.25V29.59h2.17V46.46h-2.26L225.26,32.7h-.1l.1,3.25V46.46Z" transform="translate(-10.6 -9.91)"/></g><path id="_Compound_Path_9" data-name="&lt;Compound Path&gt;" class="cls-3" d="M202.17,71.07a12,12,0,1,0,12,12A11.79,11.79,0,0,0,202.17,71.07Zm0,19.2A6.91,6.91,0,0,1,195.43,83c0-4.31,3.12-7.25,6.74-7.25s6.75,2.94,6.75,7.25A6.91,6.91,0,0,1,202.17,90.27ZM176,71.07a12,12,0,1,0,12,12A11.8,11.8,0,0,0,176,71.07Zm0,19.2A6.91,6.91,0,0,1,169.24,83c0-4.31,3.12-7.25,6.75-7.25a7.26,7.26,0,0,1,0,14.49ZM144.84,74.74v5.07H157a10.59,10.59,0,0,1-2.76,6.39,12.46,12.46,0,0,1-9.38,3.71,13.5,13.5,0,0,1,0-27A13,13,0,0,1,154,66.54L157.57,63a17.71,17.71,0,0,0-12.73-5.12,18.57,18.57,0,1,0,0,37.14c5.53,0,9.69-1.81,12.95-5.2s4.4-8.07,4.4-11.87a16.59,16.59,0,0,0-.27-3.17Zm127.39,3.94c-1-2.67-4-7.61-10.24-7.61s-11.28,4.84-11.28,12a11.7,11.7,0,0,0,11.87,12,11.91,11.91,0,0,0,10-5.3L268.47,87a6.84,6.84,0,0,1-5.89,3.3,6.09,6.09,0,0,1-5.8-3.62l16-6.61Zm-16.31,4a6.56,6.56,0,0,1,6.25-7,4.63,4.63,0,0,1,4.44,2.53Zm-13,11.6h5.26V59.11h-5.26Zm-8.6-20.52h-.18a8.32,8.32,0,0,0-6.3-2.67c-6,0-11.46,5.25-11.46,12A11.83,11.83,0,0,0,227.84,95a8.17,8.17,0,0,0,6.3-2.71h.18V94c0,4.57-2.45,7-6.39,7a6.6,6.6,0,0,1-6-4.26l-4.58,1.9a11.39,11.39,0,0,0,10.6,7.07c6.16,0,11.37-3.62,11.37-12.46V71.79h-5Zm-6,16.53c-3.62,0-6.66-3-6.66-7.2s3-7.29,6.66-7.29,6.39,3.08,6.39,7.29S231.87,90.27,228.29,90.27Zm68.55-31.16H284.27V94.26h5.25V80.94h7.32c5.82,0,11.53-4.21,11.53-10.91S302.66,59.11,296.84,59.11ZM297,76.05h-7.46V64H297a6,6,0,1,1,0,12Zm32.42-5c-3.8,0-7.73,1.68-9.36,5.38l4.66,2a5,5,0,0,1,4.79-2.58c2.72,0,5.47,1.63,5.52,4.52v.36a11.67,11.67,0,0,0-5.47-1.35c-5,0-10.13,2.76-10.13,7.91,0,4.7,4.11,7.73,8.73,7.73a7.41,7.41,0,0,0,6.69-3.43H335V94.2h5.06V80.73C340.07,74.49,335.42,71,329.4,71Zm-.63,19.27c-1.72,0-4.12-.86-4.12-3,0-2.71,3-3.75,5.57-3.75A9.43,9.43,0,0,1,335,84.7,6.37,6.37,0,0,1,328.77,90.27Zm29.75-18.5-6,15.24h-.18l-6.24-15.24h-5.65l9.36,21.3-5.34,11.85h5.47l14.43-33.15ZM311.27,94.26h5.24V59.11h-5.24Z" transform="translate(-10.6 -9.91)"/><g id="_Group_5" data-name="&lt;Group&gt;"><path id="_Path_" data-name="&lt;Path&gt;" class="cls-4" d="M39.94,31.1a5.63,5.63,0,0,0-1.3,3.95V97.24a5.63,5.63,0,0,0,1.3,4l.21.2L75,66.56v-.83L40.15,30.9Z" transform="translate(-10.6 -9.91)"/><path id="_Path_2" data-name="&lt;Path&gt;" class="cls-3" d="M86.59,78.17,75,66.56v-.83L86.6,54.12l.26.15,13.75,7.82c3.93,2.23,3.93,5.88,0,8.12L86.86,78Z" transform="translate(-10.6 -9.91)"/><path id="_Path_3" data-name="&lt;Path&gt;" class="cls-5" d="M86.86,78,75,66.15l-35,35c1.3,1.37,3.43,1.54,5.84.17L86.86,78" transform="translate(-10.6 -9.91)"/><path id="_Path_4" data-name="&lt;Path&gt;" class="cls-6" d="M86.86,54.27,45.78,30.93c-2.41-1.37-4.54-1.2-5.84.17L75,66.15Z" transform="translate(-10.6 -9.91)"/><g id="_Group_6" data-name="&lt;Group&gt;"><path id="_Path_5" data-name="&lt;Path&gt;" class="cls-7" d="M86.6,77.76,45.78,101c-2.28,1.3-4.32,1.21-5.63,0h0l-.21.21h0l.21.2h0c1.31,1.18,3.35,1.27,5.63,0L86.86,78Z" transform="translate(-10.6 -9.91)"/><path id="_Path_6" data-name="&lt;Path&gt;" class="cls-8" d="M39.94,100.78a5.63,5.63,0,0,1-1.3-4v.41a5.63,5.63,0,0,0,1.3,4l.21-.21Z" transform="translate(-10.6 -9.91)"/></g><path id="_Path_7" data-name="&lt;Path&gt;" class="cls-8" d="M100.61,69.79l-14,8,.26.26,13.75-7.81c2-1.12,3-2.59,3-4.06h0C103.4,67.48,102.4,68.78,100.61,69.79Z" transform="translate(-10.6 -9.91)"/><path id="_Path_8" data-name="&lt;Path&gt;" class="cls-9" d="M45.78,31.34,100.61,62.5c1.79,1,2.79,2.31,3,3.65h0c0-1.48-1-3-3-4.06L45.78,30.93c-3.93-2.23-7.14-.38-7.14,4.13v.41C38.64,31,41.85,29.11,45.78,31.34Z" transform="translate(-10.6 -9.91)"/></g></svg>