<svg xmlns="http://www.w3.org/2000/svg" xmlns:xlink="http://www.w3.org/1999/xlink" viewBox="0 0 379.57 112.47"><defs><style>.cls-1{fill:#a6a6a6;}.cls-10,.cls-2,.cls-3{fill:#fff;}.cls-2{stroke:#fff;stroke-miterlimit:10;stroke-width:0.2px;}.cls-4{fill:url(#linear-gradient);}.cls-5{fill:url(#linear-gradient-2);}.cls-6{fill:url(#linear-gradient-3);}.cls-7{fill:url(#linear-gradient-4);}.cls-8{opacity:0.2;}.cls-10,.cls-8,.cls-9{isolation:isolate;}.cls-9{opacity:0.12;}.cls-10{opacity:0.25;}</style><linearGradient id="linear-gradient" x1="61.29" y1="469.69" x2="14.11" y2="422.51" gradientTransform="matrix(1, 0, 0, -1, 0, 494.18)" gradientUnits="userSpaceOnUse"><stop offset="0" stop-color="#00a0ff"/><stop offset="0.01" stop-color="#00a1ff"/><stop offset="0.26" stop-color="#00beff"/><stop offset="0.51" stop-color="#00d2ff"/><stop offset="0.76" stop-color="#00dfff"/><stop offset="1" stop-color="#00e3ff"/></linearGradient><linearGradient id="linear-gradient-2" x1="95.13" y1="437.94" x2="27.1" y2="437.94" gradientTransform="matrix(1, 0, 0, -1, 0, 494.18)" gradientUnits="userSpaceOnUse"><stop offset="0" stop-color="#ffe000"/><stop offset="0.41" stop-color="#ffbd00"/><stop offset="0.78" stop-color="orange"/><stop offset="1" stop-color="#ff9c00"/></linearGradient><linearGradient id="linear-gradient-3" x1="69.8" y1="431.49" x2="5.82" y2="367.5" gradientTransform="matrix(1, 0, 0, -1, 0, 494.18)" gradientUnits="userSpaceOnUse"><stop offset="0" stop-color="#ff3a44"/><stop offset="1" stop-color="#c31162"/></linearGradient><linearGradient id="linear-gradient-4" x1="20.52" y1="493.69" x2="49.09" y2="465.11" gradientTransform="matrix(1, 0, 0, -1, 0, 494.18)" gradientUnits="userSpaceOnUse"><stop offset="0" stop-color="#32a071"/><stop offset="0.07" stop-color="#2da771"/><stop offset="0.48" stop-color="#15cf74"/><stop offset="0.8" stop-color="#06e775"/><stop offset="1" stop-color="#00f076"/></linearGradient></defs><title>google-play-download</title><g id="Layer_2" data-name="Layer 2"><g id="Layer_1-2" data-name="Layer 1"><g id="_Group_" data-name="&lt;Group&gt;"><rect width="379.57" height="112.47" rx="14.06" ry="14.06"/></g><g id="_Group_2" data-name="&lt;Group&gt;"><g id="_Group_3" data-name="&lt;Group&gt;"><path id="_Compound_Path_" data-name="&lt;Compound Path&gt;" class="cls-1" d="M365.51,2.25a11.82,11.82,0,0,1,11.81,11.81V98.41a11.82,11.82,0,0,1-11.81,11.81H14.06A11.83,11.83,0,0,1,2.25,98.41V14.06A11.83,11.83,0,0,1,14.06,2.25H365.51m0-2.25H14.06A14.11,14.11,0,0,0,0,14.06V98.41a14.11,14.11,0,0,0,14.06,14.06H365.51a14.1,14.1,0,0,0,14.06-14.06V14.06A14.1,14.1,0,0,0,365.51,0Z"/></g></g><g id="_Group_4" data-name="&lt;Group&gt;"><path id="_Compound_Path_2" data-name="&lt;Compound Path&gt;" class="cls-2" d="M133.32,28.8a7.59,7.59,0,0,1-2.09,5.63,8.17,8.17,0,0,1-6.2,2.5,8.67,8.67,0,0,1-8.76-8.81A8.69,8.69,0,0,1,125,19.3a8.67,8.67,0,0,1,3.46.71,6.89,6.89,0,0,1,2.64,1.89l-1.48,1.48a5.71,5.71,0,0,0-4.62-2,6.51,6.51,0,0,0-6.55,6.74A6.51,6.51,0,0,0,125,34.85,6.35,6.35,0,0,0,129.74,33a5.3,5.3,0,0,0,1.42-3.42H125v-2h8.18A7,7,0,0,1,133.32,28.8Z"/><path id="_Compound_Path_3" data-name="&lt;Compound Path&gt;" class="cls-2" d="M146.28,21.75H138.6V27.1h6.93v2H138.6v5.35h7.68v2.07h-9.85V19.68h9.85Z"/><path id="_Compound_Path_4" data-name="&lt;Compound Path&gt;" class="cls-2" d="M155.42,36.55h-2.16V21.75h-4.72V19.68h11.6v2.07h-4.72Z"/><path id="_Compound_Path_5" data-name="&lt;Compound Path&gt;" class="cls-2" d="M168.52,36.55V19.68h2.17V36.55Z"/><path id="_Compound_Path_6" data-name="&lt;Compound Path&gt;" class="cls-2" d="M180.31,36.55h-2.17V21.75h-4.71V19.68H185v2.07h-4.71Z"/><path id="_Compound_Path_7" data-name="&lt;Compound Path&gt;" class="cls-2" d="M207,34.37a8.75,8.75,0,0,1-12.37,0,8.65,8.65,0,0,1-2.48-6.25,8.67,8.67,0,0,1,2.48-6.26,8.73,8.73,0,0,1,12.36,0,8.62,8.62,0,0,1,2.5,6.25A8.62,8.62,0,0,1,207,34.37ZM196.19,33a6.51,6.51,0,0,0,9.17,0,6.61,6.61,0,0,0,1.88-4.84,6.62,6.62,0,0,0-1.88-4.85,6.51,6.51,0,0,0-9.17,0,6.65,6.65,0,0,0-1.87,4.85A6.64,6.64,0,0,0,196.19,33Z"/><path id="_Compound_Path_8" data-name="&lt;Compound Path&gt;" class="cls-2" d="M212.49,36.55V19.68h2.64l8.2,13.13h.09l-.09-3.26V19.68h2.17V36.55h-2.26l-8.58-13.76h-.1l.1,3.25V36.55Z"/></g><path id="_Compound_Path_9" data-name="&lt;Compound Path&gt;" class="cls-3" d="M191.57,61.16a12,12,0,1,0,12,12A11.79,11.79,0,0,0,191.57,61.16Zm0,19.2a7.26,7.26,0,0,1,0-14.49c3.63,0,6.75,2.94,6.75,7.25A6.91,6.91,0,0,1,191.57,80.36Zm-26.18-19.2a12,12,0,1,0,12,12A11.79,11.79,0,0,0,165.39,61.16Zm0,19.2a6.91,6.91,0,0,1-6.75-7.24c0-4.31,3.12-7.25,6.75-7.25a7.26,7.26,0,0,1,0,14.49ZM134.24,64.83V69.9h12.14a10.65,10.65,0,0,1-2.76,6.39A12.46,12.46,0,0,1,134.24,80a13.5,13.5,0,0,1,0-27,13,13,0,0,1,9.15,3.63L147,53.05a17.71,17.71,0,0,0-12.73-5.12,18.57,18.57,0,1,0,0,37.14c5.52,0,9.69-1.81,12.95-5.2s4.4-8.07,4.4-11.87a16.59,16.59,0,0,0-.27-3.17Zm127.39,3.94c-1-2.67-4-7.61-10.24-7.61s-11.28,4.84-11.28,12A11.7,11.7,0,0,0,252,85.07a11.93,11.93,0,0,0,10-5.29l-4.08-2.72a6.84,6.84,0,0,1-5.89,3.3,6.09,6.09,0,0,1-5.8-3.62l16-6.61Zm-16.31,4a6.56,6.56,0,0,1,6.25-7A4.62,4.62,0,0,1,256,68.32Zm-13,11.6h5.26V49.2h-5.26Zm-8.6-20.52h-.19a8.28,8.28,0,0,0-6.29-2.67c-6,0-11.46,5.25-11.46,12a11.83,11.83,0,0,0,11.46,11.91,8.13,8.13,0,0,0,6.29-2.71h.19v1.72c0,4.57-2.45,7-6.39,7a6.62,6.62,0,0,1-6-4.26l-4.57,1.9a11.39,11.39,0,0,0,10.6,7.07c6.16,0,11.37-3.62,11.37-12.46V61.88h-5Zm-6,16.53c-3.62,0-6.66-3-6.66-7.2s3-7.29,6.66-7.29,6.39,3.08,6.39,7.29S221.27,80.36,217.69,80.36ZM286.24,49.2H273.67V84.35h5.25V71h7.32c5.82,0,11.53-4.21,11.53-10.91S292.06,49.2,286.24,49.2Zm.14,16.94h-7.46v-12h7.46a6,6,0,1,1,0,12Zm32.42-5c-3.8,0-7.73,1.68-9.36,5.38l4.66,2a5,5,0,0,1,4.79-2.58c2.71,0,5.47,1.63,5.52,4.52v.37a11.53,11.53,0,0,0-5.47-1.36c-5,0-10.13,2.76-10.13,7.91,0,4.71,4.11,7.74,8.72,7.74a7.42,7.42,0,0,0,6.7-3.44h.18v2.71h5.06V70.82C329.47,64.58,324.82,61.09,318.8,61.09Zm-.63,19.27c-1.72,0-4.12-.86-4.12-3,0-2.71,3-3.75,5.57-3.75a9.33,9.33,0,0,1,4.79,1.18A6.36,6.36,0,0,1,318.17,80.36Zm29.75-18.5-6,15.24h-.18l-6.24-15.24h-5.66l9.37,21.3L333.86,95h5.47l14.43-33.15ZM300.67,84.35h5.24V49.2h-5.24Z"/><g id="_Group_5" data-name="&lt;Group&gt;"><path id="_Path_" data-name="&lt;Path&gt;" class="cls-4" d="M29.34,21.19A5.63,5.63,0,0,0,28,25.14V87.33a5.63,5.63,0,0,0,1.3,4l.21.2L64.38,56.65v-.82L29.55,21Z"/><path id="_Path_2" data-name="&lt;Path&gt;" class="cls-5" d="M76,68.26,64.38,56.65v-.82L76,44.21l.26.15L90,52.18c3.93,2.23,3.93,5.88,0,8.12L76.26,68.11Z"/><path id="_Path_3" data-name="&lt;Path&gt;" class="cls-6" d="M76.26,68.11,64.38,56.24l-35,35c1.3,1.37,3.43,1.54,5.84.17L76.26,68.11"/><path id="_Path_4" data-name="&lt;Path&gt;" class="cls-7" d="M76.26,44.36,35.18,21c-2.41-1.37-4.54-1.2-5.84.17l35,35.05Z"/><g id="_Group_6" data-name="&lt;Group&gt;"><path id="_Path_5" data-name="&lt;Path&gt;" class="cls-8" d="M76,67.85,35.18,91c-2.28,1.3-4.32,1.21-5.63,0h0l-.21.21h0l.21.2h0c1.31,1.18,3.35,1.27,5.63,0L76.26,68.11Z"/><path id="_Path_6" data-name="&lt;Path&gt;" class="cls-9" d="M29.34,90.87a5.63,5.63,0,0,1-1.3-4v.41a5.63,5.63,0,0,0,1.3,4l.21-.21Z"/></g><path id="_Path_7" data-name="&lt;Path&gt;" class="cls-9" d="M90,59.88l-14,8,.26.26L90,60.3C92,59.18,93,57.71,93,56.24h0C92.8,57.57,91.8,58.87,90,59.88Z"/><path id="_Path_8" data-name="&lt;Path&gt;" class="cls-10" d="M35.18,21.43,90,52.59c1.79,1,2.79,2.31,2.95,3.65h0c0-1.47-1-3-2.95-4.06L35.18,21C31.25,18.79,28,20.65,28,25.15v.41C28,21.06,31.25,19.2,35.18,21.43Z"/></g></g></g></svg>