<svg xmlns="http://www.w3.org/2000/svg" xmlns:xlink="http://www.w3.org/1999/xlink" width="244.941" height="57.885" viewBox="0 0 244.941 57.885"><defs><style>.a{fill:url(#a);}</style><linearGradient id="a" y1="0.499" x2="1" y2="0.499" gradientUnits="objectBoundingBox"><stop offset="0" stop-color="#d3bda9"/><stop offset="0" stop-color="#e6b98f"/><stop offset="1" stop-color="#b25d2d"/></linearGradient></defs><path class="a" d="M236.2,87.823v-34.3l-7.667,5.12V82.287l-8.353,5.659V64.208l-4.9,3.258-4.9-3.258V87.945l-8.378-5.561V58.623l-7.667-5.1v34.3l-8.378-5.561V36.38l15.972,10.68v-17l8.4,5.61V52.6l4.9,3.258,4.9-3.258V35.67l8.378-5.61v17L244.581,36.4V82.262ZM116.17,57.423c0-1.666-.392-2.45-1.151-2.45h-6.173a2.278,2.278,0,0,1,2.254,2.45V64.6c0,1.935-1.3,4.605-3.528,4.605s-3.6-1.764-3.6-4.483V58.77c0-1.666-.392-1.935-1.151-1.935H96.671c1.494.171,2.254.416,2.254,1.935V64.8A4.066,4.066,0,0,1,95.4,69.107a3.282,3.282,0,0,1-2.646-1.225,5.267,5.267,0,0,1-.955-3.258V58.77c0-1.69-.392-1.935-1.176-1.935H84.472c1.519.171,2.278.416,2.278,1.935V70.5a4.14,4.14,0,0,1-3.527,4.213c-2.45,0-3.6-1.813-3.6-4.311v-4.9c0-1.666-.392-2.45-1.176-2.45H72.3a2.278,2.278,0,0,1,2.254,2.45v4.483A6.1,6.1,0,0,0,75.8,74.007a9.137,9.137,0,0,0,8.157,2.817,9.922,9.922,0,0,0,1.886-.392,7.765,7.765,0,0,0,3.576-2.45,8.01,8.01,0,0,0,1.421-2.45l.147-.514h.171a11.832,11.832,0,0,0,4.189.367,10.264,10.264,0,0,0,5.071-1.837h0a9.554,9.554,0,0,0,6.884,1.837,10.117,10.117,0,0,0,3.944-1.151h0a8.4,8.4,0,0,0,4.091-4.9,22.2,22.2,0,0,0,.514-7.349ZM17.963,46.2H11.815a2.278,2.278,0,0,1,2.278,2.45v19.6c0,2.229-.588,5.046-3.528,5.046a3.356,3.356,0,0,1-2.695-1.078,5.291,5.291,0,0,1-.98-3.283V62.542c0-1.69-.367-2.45-1.151-2.45H-.36a2.3,2.3,0,0,1,1.666.734,2.3,2.3,0,0,1,.612,1.715,29.4,29.4,0,0,0,.269,7.349,7.716,7.716,0,0,0,4.017,4.9A9.431,9.431,0,0,0,16,73.86a9.8,9.8,0,0,0,3.136-7.447V48.726C19.139,47.061,18.747,46.2,17.963,46.2ZM135.253,63.792a29.838,29.838,0,0,1,0,5.536,10.241,10.241,0,0,1-.49,2.719,8.231,8.231,0,0,1-2.18,3.4,6.614,6.614,0,0,1-5.1,1.47,4.213,4.213,0,0,1-3.527-2.3l.539-.759a3.258,3.258,0,0,0,4.14,1.372,4.9,4.9,0,0,0,1.715-4.507v-.637a7.643,7.643,0,0,1-8.77.2,8.819,8.819,0,0,1-3.283-9.137,9.014,9.014,0,0,1,1.641-3.454,7.888,7.888,0,0,1,4.7-2.719,10.019,10.019,0,0,1,4.091.171,8.231,8.231,0,0,1,4.9,3.209,11.488,11.488,0,0,1,1.617,5.438Zm-8.672-6.59c-3.8-.441-4.9,4.262-4.434,7.349.392,2.45,1.764,4.605,4.336,4.507a3.8,3.8,0,0,0,3.356-2.4,6.638,6.638,0,0,0,.637-2.156c.367-2.744-.441-6.908-3.821-7.3Zm41.644,10.215a9.162,9.162,0,0,1-4.262,3.111,10.779,10.779,0,0,1-2.156.588,10.34,10.34,0,0,1-1.935.171h-13.13a22.513,22.513,0,0,1-3.625-.22h-.392a5.928,5.928,0,0,1-4.679-3.136,6,6,0,0,1-.539-2.646V48.726a2.45,2.45,0,0,0-2.278-2.45h6.149c.784,0,1.176.857,1.176,2.45V66.143a2.989,2.989,0,0,0,.98,2.67,5.389,5.389,0,0,0,2.646.416h2.891a7.912,7.912,0,0,1-2.45-9.162l.367-.808h0a8.942,8.942,0,0,1,3.723-3.405,8.255,8.255,0,0,1,3.6-.833h.539a7.986,7.986,0,0,1,5.561-1.96,10.117,10.117,0,0,1,6.932,3.209,8.525,8.525,0,0,1,2.033,3.038h0a9.064,9.064,0,0,1-1.127,8.108Zm-17.295-2.18a7.814,7.814,0,0,0,.661,2.058,3.332,3.332,0,0,0,2.009,1.813,2.009,2.009,0,0,0,.759,0,2.67,2.67,0,0,0,1.788-.784,6,6,0,0,0,1.47-3.16,11.194,11.194,0,0,0,0-4.042,1.238,1.238,0,0,0-.171-.759,5.169,5.169,0,0,0-1.617-2.891,2.45,2.45,0,0,0-1.519-.539,2.7,2.7,0,0,0-1.862.686,4.9,4.9,0,0,0-1.274,2.156,11.146,11.146,0,0,0-.22,5.463Zm13.914-2.915a10.632,10.632,0,0,0-.514-4.017,5.634,5.634,0,0,0-5.487-4.066,4.36,4.36,0,0,0-1.666.49l-.367.22-.269.22a7.349,7.349,0,0,1,1.249.392,8.206,8.206,0,0,1,3.895,3.576h0a5.9,5.9,0,0,1,.367.808,7.79,7.79,0,0,1,.416,4.483,8.231,8.231,0,0,1-2.719,4.8,2.939,2.939,0,0,0,1.3-.147,5.022,5.022,0,0,0,3.136-3.013,11.685,11.685,0,0,0,.686-3.748Zm-104.992-2.2a8.794,8.794,0,0,1,.269,5.218,8.4,8.4,0,0,1-7.643,6.345,7.692,7.692,0,0,1-4.017-1.029,6.884,6.884,0,0,0-.955-.563l-.588.441a5.414,5.414,0,0,1-3.332.759h-3.87a1.4,1.4,0,0,1-1.029-.465,8.917,8.917,0,0,1-2.45,4.63,6.639,6.639,0,0,1-5.12,1.47,4.213,4.213,0,0,1-3.65-2.3l.539-.759a3.307,3.307,0,0,0,4.164,1.372,4.752,4.752,0,0,0,1.862-4.507v-.637a7.594,7.594,0,0,1-8.77.2,8.843,8.843,0,0,1-3.258-9.137,8.353,8.353,0,0,1,1.641-3.454,7.765,7.765,0,0,1,4.679-2.719,10.142,10.142,0,0,1,4.042.171,8.3,8.3,0,0,1,4.9,3.209,11.464,11.464,0,0,1,1.641,5.438,37.455,37.455,0,0,1,0,4.066,1.3,1.3,0,0,0,1.3,1.347h2.45a1.249,1.249,0,0,0,1.249-1.274v-.563c0-3.038-.416-6.026,1.372-8.7A8.451,8.451,0,0,1,52.234,54.9a8.182,8.182,0,0,1,4.9,1.494,7.765,7.765,0,0,1,2.744,3.723ZM30.212,57.2c-3.8-.441-4.9,4.262-4.458,7.349.416,2.45,1.788,4.605,4.36,4.507a3.8,3.8,0,0,0,3.283-2.4,7.52,7.52,0,0,0,.637-2.156C34.376,61.759,33.568,57.594,30.212,57.2Zm25.574,3.723a5.879,5.879,0,0,0-1.47-3.062,2.793,2.793,0,0,0-3.136-.588A4.311,4.311,0,0,0,49.27,59.97a12.248,12.248,0,0,0-.416,3.381,10.289,10.289,0,0,0,.294,3.307,3.283,3.283,0,0,0,3.356,2.45A3.013,3.013,0,0,0,54,68.544a5.046,5.046,0,0,0,1.69-2.94v-.49A11.342,11.342,0,0,0,55.786,60.926Z" transform="translate(0.36 -30.06)"/></svg>