<svg xmlns="http://www.w3.org/2000/svg" width="63.437" height="48" viewBox="0 0 63.437 48"><defs><style>.a{fill:#fff;}.b{fill:silver;opacity:0.22;}</style></defs><g transform="translate(-0.225 -0.34)"><g transform="translate(0.225 0.34)"><path class="a" d="M32.875.726A.865.865,0,0,1,33.035.34a.593.593,0,0,1,.289.383c.078-.059.147-.147.252-.156.086.011.147.084.219.128.047-.109.061-.287.211-.3.113.029.247.117.226.252,0,.093-.1.136-.151.193.09.058.248.137.163.266a.25.25,0,0,1,.273.292c-.033.092.057.144.1.209-.017.146-.215.179-.237.319.019.1.127.141.191.207.1-.076.183-.224.331-.2a.515.515,0,0,1,.41-.318.366.366,0,0,1-.066-.417A1.5,1.5,0,0,1,35.2.9c.144-.05.265.087.41.055.126.005.351-.041.353.147a.308.308,0,0,1,.457.092c.112-.13.253-.268.441-.2.067.1.184.238.106.366-.051.082-.238.061-.217.175a1.966,1.966,0,0,0,.287.087c.052-.064.1-.149.18-.177.106-.061.215.023.305.075a.478.478,0,0,1,.46-.038c.133.047.143.2.163.318a.414.414,0,0,1,.2.128,2.436,2.436,0,0,0-.23.411c-.086.091-.212.029-.308,0A.434.434,0,0,0,38,2.591c.077-.086.157-.23.3-.189.077,0,.107.084.158.127a.926.926,0,0,1,.377-.054c.1.014.078.11.08.182.151.125.019.328-.131.381a2.26,2.26,0,0,0,.38.271.728.728,0,0,1,.157-.545,1.2,1.2,0,0,1,.272.023c0-.172.066-.4.285-.351a.424.424,0,0,1,.192-.18.491.491,0,0,1,.3.087.257.257,0,0,1,.323-.066c-.036-.136-.085-.312.033-.423a.321.321,0,0,1,.455.158,1.89,1.89,0,0,1,.515.028c.02-.109.029-.257.157-.3a.211.211,0,0,1,.289.178l.194-.006a.686.686,0,0,1-.064-.286l.089-.075c-.011-.143-.059-.32.053-.436.064-.073.167-.032.252-.039a.449.449,0,0,1,.3-.09c.112.062.128.2.15.309.143-.092.361-.165.473.013.092.011.184.018.277.025A.494.494,0,0,1,43.96.9c.1-.087.289-.149.382-.029a.631.631,0,0,1-.03.38.82.82,0,0,1,.417-.074c.1.109-.017.277-.11.35,0-.006-.135-.007-.065.016a.418.418,0,0,1,.367.137c.114-.012.322-.084.344.088-.008.044-.025.132-.033.175.056.063.156.108.158.2.009.116-.124.169-.142.276a1.387,1.387,0,0,1-.128.4.689.689,0,0,1,.443.109.365.365,0,0,1,.083.413c.207-.043.466.07.431.318a.538.538,0,0,1,.324.09c.1.073.092.207.113.316.051-.09.119-.245.248-.207a.453.453,0,0,1,.18.41,2.257,2.257,0,0,1,.251-.142c-.031-.13-.084-.289.011-.4a.284.284,0,0,1,.4.086c.057.095,0,.2-.028.289.187.083.172.311.105.471-.063.145-.129.337-.315.348l.138.055a.653.653,0,0,1-.156.346,1.329,1.329,0,0,1,.6-.031.5.5,0,0,1,.239.264.507.507,0,0,1,.36-.157.523.523,0,0,1-.166-.274.661.661,0,0,1-.458-.035.277.277,0,0,1,.009-.336c-.014-.091-.09-.2-.027-.285.129-.105.289.027.355.142.055-.094.069-.327.227-.255.056.067.012.17.029.249.1-.042.2-.083.3-.121-.091-.13-.278-.368-.062-.473.027-.166-.007-.408.17-.5a.253.253,0,0,1,.244.358.524.524,0,0,1,.37.078c.09-.106.235-.267.384-.161.1.052.064.174.06.265a.411.411,0,0,1,.281.089c.055.076,0,.168-.009.249.091.1.216.19.222.337a.329.329,0,0,1-.108.186.7.7,0,0,1,.17.272.276.276,0,0,1,.358-.126c-.026-.153-.038-.345.118-.434a.334.334,0,0,1,.127.249c.077,0,.174-.012.219.072q.121-.064.248-.116c.069.044.172.12.121.215-.033.131-.177.158-.291.157-.008.071-.077.235.058.227.091.017.185.029.275.054a.335.335,0,0,1-.428.239.282.282,0,0,1,0,.23.467.467,0,0,1,.314.175c.041-.2.187-.4.415-.35a1.812,1.812,0,0,1,.141-.469c.1.1.071.268.093.4a.451.451,0,0,1,.191-.107c.055-.119.09-.286.237-.324a.235.235,0,0,1,.228.2c-.012.122-.124.18-.22.229a.493.493,0,0,1,.1.267.219.219,0,0,1,.177.159A.382.382,0,0,1,53.5,6.01a.5.5,0,0,1,.248-.151.218.218,0,0,1,.239.2c-.02.083-.1.119-.164.166a.368.368,0,0,1,.288.525c-.116.094-.248-.034-.348-.088a.544.544,0,0,1,.081.457.338.338,0,0,1-.424.078c.035.07.094.162.035.236a.429.429,0,0,1-.418.107c-.1-.051-.155.054-.215.113.092.075.155.183.017.266.159.108.331.272.258.486a.378.378,0,0,1,.2.1c0-.025-.006-.075-.008-.1a.366.366,0,0,1,.484-.123.522.522,0,0,1,.012-.26c.065,0,.13-.007.2-.01.091-.151.21-.321.406-.327-.108-.061-.239-.113-.286-.238,0-.149.195-.195.306-.125-.024-.193.008-.521.279-.481.068-.093.128-.211.244-.25.092-.022.112.094.115.159.012.1-.067.172-.119.247.144.006.383.04.344.242a.152.152,0,0,1-.262.108.4.4,0,0,1-.242.483l.126.144a.717.717,0,0,1,.4-.188c.143-.068.263-.221.44-.178a.478.478,0,0,1-.091.5.3.3,0,0,1,.232.249c.027.1-.074.152-.139.2a.668.668,0,0,1,.275.1A.277.277,0,0,1,55.99,9c-.114.054-.193-.064-.277-.115a.522.522,0,0,0-.108.229c.049.061.138.121.1.212a.333.333,0,0,1-.5.03.271.271,0,0,0,.086.355c.121-.033.224-.137.359-.082a.578.578,0,0,1,.4-.163.5.5,0,0,1,.247.138c.05-.077.092-.174.186-.208a.171.171,0,0,1,.136.239c.1-.023.239-.039.287.074.062.079-.019.169-.042.248a.823.823,0,0,1,.245.019c.036-.127.123-.293.283-.254.194.026.209.26.166.411a.4.4,0,0,1,.189.073c.067-.069.129-.156.233-.169a.307.307,0,0,1,.19.418c.117,0,.32,0,.327.164.024.086-.084.1-.137.125a.331.331,0,0,1,.146.191c.013.1-.09.152-.152.213-.127-.12-.178-.3-.309-.411a.294.294,0,0,1-.367.049.5.5,0,0,1-.379.161.2.2,0,0,1-.325.073,3.036,3.036,0,0,1-.344.1c.083.055.174.138.142.25-.007.126-.149.144-.242.172.018.067.033.134.049.2l-.048.109c-.091,0-.181-.009-.27-.017.018.087.039.212.161.18a2.9,2.9,0,0,1,.75-.15l.179.186a.77.77,0,0,1,.409-.2c.208.046.226.292.244.465.08-.017.192-.077.254.008.1.108.039.254.009.377.16-.009.265-.143.4-.205.132-.033.21.1.256.2a.837.837,0,0,1,.337-.163c.106-.016.158.091.191.172.107-.006.259-.012.295.116.056.129-.057.238-.139.32a.478.478,0,0,0,.079.26,2.7,2.7,0,0,1,.284-.142c.109,0,.167.1.225.181.12-.053.265-.147.4-.069.078.052.043.15.045.227a.55.55,0,0,1,.26.106c.076.082.026.191,0,.282a.611.611,0,0,0,.367-.148c.1-.1.216-.237.374-.195.011.11-.077.191-.126.28.115.033.282.04.327.176a.574.574,0,0,1-.046.333l-.141.007a1,1,0,0,0,.323.36c-.05.149-.171.335-.354.291-.123-.017-.138-.16-.217-.229-.089-.052-.213,0-.287-.085-.07-.046-.033-.141-.046-.209-.066.017-.132.032-.2.046-.028.118-.048.33-.22.3-.213-.05-.263-.31-.3-.495a.452.452,0,0,1-.225.006c0,.109-.02.282-.169.27s-.173-.186-.211-.3a.421.421,0,0,1-.22.122c-.119-.057-.159-.191-.208-.3a.836.836,0,0,1-.575.127c.025.178-.166.386-.345.285-.1-.032-.2.012-.3-.013a.912.912,0,0,1-.717.087c-.071.219-.311.209-.485.295-.113.02-.18-.082-.256-.144a.836.836,0,0,0-.314-.158.355.355,0,0,1-.464.363.861.861,0,0,0,.056.275c.225,0,.376-.249.61-.2a.173.173,0,0,1,.124.156c-.033.111-.139.167-.227.228a.417.417,0,0,1,.328.17c.095-.11.236-.239.393-.152a.427.427,0,0,1,.119-.242c.138.064.223.229.1.351a2.734,2.734,0,0,1,.279.067c.079-.123.168-.271.331-.284a.3.3,0,0,1,.3.407.373.373,0,0,1,.313.152.5.5,0,0,1,.448-.173c.1.046.12.157.151.249.093-.017.2-.058.286,0a.305.305,0,0,1-.041.411l.126.121c.086-.11.24-.279.384-.147.13.157.03.376-.038.538.182.029.414.123.381.351l.154-.033c.112-.014.126.114.163.188.1,0,.225-.07.306.01.012.036.035.109.048.145a.336.336,0,0,1,.379.248c.115-.018.3-.075.354.075.033.121-.007.353-.178.311-.171-.02-.382.047-.5-.119a.355.355,0,0,1-.217.324.5.5,0,0,1-.523-.2c-.129.062-.405.168-.375-.079a.642.642,0,0,1-.316.159c-.147-.006-.224-.151-.261-.274-.053.044-.079.145-.161.139-.114.015-.179-.1-.255-.167-.11.149-.287.06-.439.076-.094.027-.151.114-.219.178a.863.863,0,0,1-.477-.187.3.3,0,0,1-.223.4.506.506,0,0,0,.1.458.322.322,0,0,1,.4-.171.178.178,0,0,1,.291-.063.258.258,0,0,1,.348.077.515.515,0,0,1,.212-.136l.091.174c.129.016.338,0,.348.183-.008.164-.19.172-.312.171a.255.255,0,0,1,.04.379.148.148,0,0,1-.253-.043.481.481,0,0,1-.185.182c-.011.087,0,.2-.083.254a.413.413,0,0,1-.592-.128.751.751,0,0,1-.24.227.416.416,0,0,1,.1.273.659.659,0,0,1,.587-.063c.12.07.057.23.058.34a.424.424,0,0,1,.378-.071c.113.048.11.187.129.29.139-.041.307-.13.446-.039.079.076,0,.162-.071.189.141.027.334.07.365.237.042.11-.1.127-.167.157a.515.515,0,0,1,.346.358c.145-.041.37-.1.45.074.052.062-.007.137-.026.2a.576.576,0,0,1,.436.059c.131-.056.332-.092.378.089a.575.575,0,0,1,.352.183.525.525,0,0,1,.047.393c-.151.062-.232-.139-.309-.233-.035.09-.043.2-.129.26-.138.036-.242-.067-.335-.147-.088.164-.263.351-.468.264a.246.246,0,0,1-.189-.241.487.487,0,0,1-.388.217.328.328,0,0,1,.121-.286.443.443,0,0,1-.345.045.328.328,0,0,1-.121-.371c-.065-.056-.116-.137-.2-.161s-.137.069-.212.082A.534.534,0,0,1,58.7,22c.07.247-.21.351-.4.285a.324.324,0,0,1-.592-.025l-.129.01a.517.517,0,0,1,.24.425.485.485,0,0,1,.172.372.225.225,0,0,1,.272.308.685.685,0,0,1,.471-.045.26.26,0,0,1,.068.371c.057.072.109.16.2.19.134-.02.286-.084.411.006.083.043.044.138.024.208.174.163.47.106.617.314.125.132-.144.478-.225.223-.039.163-.131.384-.34.34a.61.61,0,0,1,.085-.264,1.18,1.18,0,0,0-.387.081c-.124.086-.223.25-.394.228-.141-.076-.074-.257,0-.358-.241.1-.4-.155-.389-.366a.342.342,0,0,1-.357-.068,1.017,1.017,0,0,1-.336.09c-.111.012-.213-.084-.322-.043-.125.012-.173.136-.257.209a.208.208,0,0,1-.2-.195c0-.1.093-.167.149-.242a.737.737,0,0,1-.3-.278c-.11.253-.411.565-.7.381-.149.136-.5.246-.568-.02-.092.083-.166.247-.314.213-.1-.038-.045-.146-.048-.222a.715.715,0,0,1-.5-.184.4.4,0,0,1-.309.2c-.119-.02-.055-.155-.064-.232a1.076,1.076,0,0,0-.195.082c.093.132.18.356-.007.452a.388.388,0,0,1-.253-.355.723.723,0,0,1-.234.191c-.152-.1-.189-.384.037-.416a.463.463,0,0,0-.261-.149c-.537-.084-1.075-.166-1.6-.3a6.749,6.749,0,0,0-2.2-.407,13.633,13.633,0,0,0-1.9.05,4.122,4.122,0,0,0-1.231.411,7.306,7.306,0,0,1-1.708.579,3.788,3.788,0,0,0-1.479.683,8.267,8.267,0,0,0-1.613,1.5,3.533,3.533,0,0,0-.647,1.767,1.776,1.776,0,0,0,.169,1,1.481,1.481,0,0,1,.2.611c.029.263.288.409.5.528A7.985,7.985,0,0,1,43.6,31.16c.545.438,1.3.354,1.911.625a2.247,2.247,0,0,0,1.475.424,26.068,26.068,0,0,1,3.169.263c4.5.028,9.008.034,13.511.085.644,0,1.286.023,1.93.013.558.034,1.117-.01,1.675.029a4.842,4.842,0,0,0,.6.033,6.672,6.672,0,0,1-.885,0c-4.7.061-9.4.082-14.1.108-2.361-.009-4.722.023-7.083.013-1.287-.009-2.572.022-3.859.013-1.359.007-2.717-.016-4.075.014-2.059-.036-4.119.005-6.178-.023s-4.142.013-6.212-.018c-2.861.011-5.721-.024-8.582-.029-.84-.032-1.682.011-2.523-.024-1.7,0-3.394-.039-5.092-.042-.536-.032-1.073.006-1.608-.025-.291-.014-.58.016-.87.017.608-.082,1.223-.023,1.834-.056,1.717-.006,3.434-.039,5.152-.044.677-.033,1.355.008,2.032-.023,3.916-.011,7.833-.052,11.75-.042a9.356,9.356,0,0,0,1.347-.253,4.616,4.616,0,0,0,1.414-.28,5.589,5.589,0,0,1,1.15-.445,2.472,2.472,0,0,0,.585-.144c.469-.228.879-.566,1.369-.753.247-.1.519-.118.763-.228a2.956,2.956,0,0,0,1.133-.843c.1-.138.236-.308.158-.489a5.757,5.757,0,0,1-.087-1.153,6.811,6.811,0,0,0-.595-1.393,1.655,1.655,0,0,0-.216-.471c-.223-.265-.554-.451-.677-.789a1,1,0,0,0-.824-.534,2.332,2.332,0,0,1-1.256-.7c-.094-.1-.247-.046-.358-.108-.3-.14-.561-.348-.85-.507a7.567,7.567,0,0,0-2.1-1.06,1.533,1.533,0,0,0-1.261.379c-.239.161-.455.448-.777.4-.287-.075-.5-.331-.8-.366a.573.573,0,0,0-.56.443c-.031.07-.026.192-.123.205a.875.875,0,0,0-.417.02c-.013.132.007.286-.091.393s-.215.217-.363.172c-.111-.067-.094-.24-.219-.288-.2.021-.282.268-.479.287-.12-.034-.185-.149-.252-.243-.04.1-.057.234-.17.275-.092,0-.178-.053-.268-.033-.115.055-.175.213-.323.2-.235.03-.411-.16-.539-.331-.055.067-.115.149-.212.144-.048-.036-.094-.074-.139-.114-.24.054-.39-.176-.487-.357-.063.122-.141.263-.291.286-.25.033-.516-.15-.754,0a.358.358,0,0,1-.453-.036.569.569,0,0,1-.339.154c-.23.01-.407.2-.64.19a.6.6,0,0,1-.55.32c-.129.019-.264-.068-.229-.211-.1.048-.247.129-.34.021a.378.378,0,0,1,.031-.359c-.116-.034-.256-.038-.344-.13-.042-.175.2-.2.318-.225-.141-.106-.338-.2-.358-.4.072-.087.192-.054.29-.055.153-.014.134.2.266.228.084.009.141-.055.193-.109a.646.646,0,0,1-.055-.324A.417.417,0,0,0,18,22.57a.411.411,0,0,0-.422-.09c0-.044,0-.131,0-.174.063-.142.257-.093.376-.154a1.016,1.016,0,0,1,.19-.523.379.379,0,0,1,.545.083c.1-.058.19-.122.291-.173a2.424,2.424,0,0,1,.364,0,.509.509,0,0,0-.225-.1,1.46,1.46,0,0,1-.6-.419.659.659,0,0,1-.5-.075.184.184,0,0,0-.245.06c-.137.114.018.353-.147.443a.987.987,0,0,0-.637.276c.067.093.172.262.034.345-.091.077-.192-.006-.268-.06a1.094,1.094,0,0,1-.305.409c-.174-.034-.057-.256-.036-.368a.705.705,0,0,1-.4.144l-.032-.136a2.282,2.282,0,0,1-.432,0c-.179-.04-.222-.371-.006-.382.1-.01.145-.112.226-.158.081-.064.18-.013.263.016a.258.258,0,0,0,.043-.336,1.726,1.726,0,0,1-.478.05c-.107-.063-.1-.2-.087-.307.076-.067.2-.043.287-.1a.837.837,0,0,1-.178-.3c.082-.179.318-.058.367.086.117-.045.281.025.366-.083,0-.184-.16-.338-.12-.524a.309.309,0,0,1-.318-.432c.039-.091.137-.049.209-.04l.055-.146a.772.772,0,0,1,.432.15c.1-.034.168-.149.279-.126a2.572,2.572,0,0,1,.21.165.8.8,0,0,1,.179-.311c.149-.04.2.19.361.145.108-.07.159-.2.268-.27a.514.514,0,0,1,.254,0,.77.77,0,0,1,.161-.3c-.138.012-.318.07-.431-.036-.006-.04-.019-.121-.026-.162-.175-.033-.264.246-.446.183a.867.867,0,0,1,0-.224.915.915,0,0,1-.409.032.267.267,0,0,1,.079-.457c-.122-.038-.263-.076-.32-.2a.887.887,0,0,0,.229-.327c-.178.089-.431.159-.584-.01-.091-.16.128-.264.248-.312.3-.131.62-.462.964-.255.028-.1.03-.266.188-.2-.084-.1-.2-.21-.181-.356a.216.216,0,0,1,.21-.122c.2-.036.315.277.526.152a.634.634,0,0,1,.553-.341.343.343,0,0,1,.155-.21.849.849,0,0,1-.525-.4.637.637,0,0,1-.481.132c-.121-.082-.231-.18-.349-.265-.077.057-.141.164-.25.146-.109-.061-.034-.2-.026-.294a1.156,1.156,0,0,1-.416.163c-.159-.024-.051-.213-.041-.307-.165.082-.5.115-.486-.152.113-.12.329-.016.422-.187-.14-.08-.326-.171-.319-.36a.486.486,0,0,1,.423.116.512.512,0,0,1,.326-.22c-.071-.1-.147-.22-.084-.347-.041-.1-.124-.222-.054-.331.073-.064.18-.029.268-.042,0-.158-.055-.372.084-.486.166.033.352.25.215.415l.168.02c.188-.007.131-.264.274-.334a1.134,1.134,0,0,1,.565.023,1.122,1.122,0,0,1,.718-.363c.032-.17.149-.317.339-.285.054-.164.231-.134.353-.069.173-.183.469-.336.687-.132.047-.1.091-.26.232-.241a.439.439,0,0,1,.187.488c.184-.092.424-.2.618-.077.094.054.084.174.115.263.129.064.4,0,.407.212-.032.173-.226.19-.366.151a1.075,1.075,0,0,0,.071.41c.139.013.3.024.327.191a.261.261,0,0,1,.239-.126c-.075-.094-.163-.248-.022-.328,0-.2,0-.539.284-.513.09-.082.24-.262.358-.129a.379.379,0,0,0,.353.108c.209-.033.181-.295.308-.419a.243.243,0,0,1,.3-.062.437.437,0,0,1,.12-.483.8.8,0,0,1-.743-.6c-.306.008-.728-.056-.8-.415a.258.258,0,0,1-.366.109c-.326.122-.787.15-.988-.194-.151.088-.373.223-.52.055-.015-.153-.129-.284-.114-.439.042-.12.19-.114.295-.109-.013-.12-.047-.291.09-.353a.269.269,0,0,1,.357.193.671.671,0,0,1,.338-.3.22.22,0,0,1,.232.25.393.393,0,0,0,.292-.092.543.543,0,0,1-.1-.316c-.108-.015-.246-.012-.306-.121a.407.407,0,0,1,.1-.432.768.768,0,0,1,.2-.007.391.391,0,0,1,.4-.26c.146,0,.235.142.371.163.171-.1.232-.419.482-.373a.351.351,0,0,1-.032.366,2.61,2.61,0,0,1,.383-.025.466.466,0,0,1,.137-.238.432.432,0,0,1,.473.1c.065-.013.14-.083.2-.031a.388.388,0,0,1,.047.242.294.294,0,0,1,.371.019.823.823,0,0,1,.659,0,.894.894,0,0,1-.05-.288c-.2-.11-.46-.2-.508-.451-.261-.009-.643.055-.778-.23-.239-.027-.326.243-.536.27a.374.374,0,0,1,.251-.511c-.021-.106-.141-.257-.016-.34.155-.033.282.1.38.2a.366.366,0,0,1,.123-.3c.043-.126.051-.273.173-.356-.032-.093-.137-.206-.032-.29.094-.047.24-.073.311.027a1.351,1.351,0,0,1,.053.212.372.372,0,0,1,.385-.138.28.28,0,0,1,.139-.205.837.837,0,0,1-.1-.464c-.129.051-.3.127-.411,0-.108-.16.039-.322.166-.41-.1-.139-.227-.357-.079-.5.141-.116.206-.389.439-.324a3.322,3.322,0,0,0,.436.1.614.614,0,0,1-.08.235,1.5,1.5,0,0,1,.107.146.552.552,0,0,1,.208-.289,1.171,1.171,0,0,1-.1-.461.437.437,0,0,1,.329.366.746.746,0,0,1,.331-.3.318.318,0,0,1,.422.23c.081-.112.172-.265.33-.259a.243.243,0,0,1,.112.328.385.385,0,0,1,.473.253c.067-.039.134-.077.2-.115-.049-.09-.141-.175-.131-.285,0-.077.086-.106.135-.15-.073-.166-.262-.481,0-.569.014-.128.055-.311.218-.308.234.01.6.145.478.45a.93.93,0,0,1,.306-.141c-.109-.094-.242-.2-.233-.364,0-.112.113-.162.195-.208a.233.233,0,0,1-.127-.238.5.5,0,0,1-.243-.193.208.208,0,0,1,.113-.27c.137-.027.213.11.295.193A.366.366,0,0,1,29.937,3a.694.694,0,0,1,.115-.408c.162-.118.486.094.27.269.158-.039.512-.045.4.218.112-.023.248-.067.346.018a.479.479,0,0,1,.051.364.559.559,0,0,1,.655.233.354.354,0,0,1,.478-.261l.139-.087c-.013-.042-.038-.127-.05-.169a.332.332,0,0,1-.386-.366,1.726,1.726,0,0,1-.23,0c0-.039,0-.115,0-.154-.084-.052-.239-.106-.188-.235A1.351,1.351,0,0,1,31.67,2.3c-.033-.132.046-.258.191-.236.055-.1.143-.227.047-.336-.1.035-.228.136-.329.057a.485.485,0,0,1-.082-.318l.173-.042c-.088-.1-.175-.279-.018-.368a.86.86,0,0,1,.06-.493c.128-.1.275.047.385.114s.039.19-.006.271c.068,0,.136,0,.2,0-.007.048-.021.144-.029.192.09-.006.18-.01.27-.014.043-.173.131-.385.339-.4m3.391,1.161a2.148,2.148,0,0,0-.231-.181c-.067.07-.143.188-.034.26a.765.765,0,0,0,.262.1c-.048.061-.1.123-.142.186L36.044,2.1c-.149.048-.13.207-.115.33-.05-.054-.124-.171-.195-.067-.055.087.044.164.082.237-.044.064-.14.139-.08.224.085.065.159-.042.228-.081a.263.263,0,0,0,.225.2,1.719,1.719,0,0,0-.027-.257l.152-.079,0,.23a.584.584,0,0,0,.236-.163.28.28,0,0,0,.131.24l.087-.179a.236.236,0,0,0,.349-.062,1.456,1.456,0,0,0-.169-.106l.1-.128c.046.043.1.225.182.12.041-.143-.131-.228-.223-.308.134-.051.149-.184.113-.31-.055.038-.108.078-.159.119l-.225-.115a.753.753,0,0,0,.133-.259.8.8,0,0,0-.327.114c.019-.069.036-.138.054-.208-.11-.031-.179.067-.252.126-.053-.056-.107-.112-.161-.166-.063.121.051.228.09.337m1.381,1.4-.047-.13a.32.32,0,0,0-.293.025l-.06-.076q-.1.087-.189.176a1.045,1.045,0,0,0-.468-.113,3.207,3.207,0,0,0,.064.318c-.136-.045-.267-.1-.4-.142-.176.109,0,.3.1.395l-.013.048a1.352,1.352,0,0,0-.529.083,1.162,1.162,0,0,0,.285.325c-.132.057-.311.1-.353.259a.187.187,0,0,0,.138.163.72.72,0,0,0,.358-.186.273.273,0,0,0,.417.029c.1.095.213.048.294-.041,0,.064,0,.191.006.254.15-.092.217-.314.43-.271.016.08.014.2.11.225.114.057.231-.023.335-.067.042.116.04.3.183.342.11-.02.075-.147.071-.224l.215,0c-.06.176-.2.309-.275.48a.734.734,0,0,0-.328-.4,1.451,1.451,0,0,0,.063.572c-.086-.153-.345-.337-.472-.142a1.1,1.1,0,0,0,.257.231c-.09.076-.183.148-.277.218a.364.364,0,0,0-.22-.363c-.128.031-.072.191-.075.285-.074-.07-.147-.139-.219-.211-.012-.136-.026-.318-.168-.381-.117.049-.159.181-.219.282a1.072,1.072,0,0,0-.283-.322l-.095.066c-.116.138.033.286.114.4-.137.008-.274.014-.411.018a1.709,1.709,0,0,0,.125-.22l-.1-.093c-.19.019-.294.216-.416.342.006-.088.088-.208,0-.279-.07-.06-.172-.006-.223.052a.525.525,0,0,0-.019.416.255.255,0,0,0-.357-.147.577.577,0,0,0,.224.358c-.133.06-.265.122-.4.187a.866.866,0,0,0-.037-.243c-.081.026-.176.041-.224.121-.065.126.022.253.062.371-.138-.064-.267-.2-.428-.177-.115.069.03.209.063.291-.065.126-.153.268-.076.41a.649.649,0,0,0,.251-.247.436.436,0,0,0,.346.274,1.218,1.218,0,0,0-.028-.268,1,1,0,0,0,.418.208,1.153,1.153,0,0,0-.188-.305,3.716,3.716,0,0,0,.441-.071c-.042.1-.111.224,0,.313.114-.012.161-.129.226-.207.036.139.093.3.255.327a.92.92,0,0,0-.005-.294l.314.045a.5.5,0,0,0-.119.38,1.2,1.2,0,0,0,.377-.364.545.545,0,0,0,.254.354,1.1,1.1,0,0,0,0-.438.574.574,0,0,0,.159.174c.1.055.189-.033.274-.077a.8.8,0,0,0-.22-.208.5.5,0,0,0,.2-.263c.079.11.168.257.322.255a.437.437,0,0,0,.14-.334c.04.11.1.248.244.244.132.025.185-.115.206-.217a.757.757,0,0,0,.164.313.842.842,0,0,0,.245-.237.39.39,0,0,0,.093.283.792.792,0,0,1,.373-.328,1.272,1.272,0,0,0,.008.289c.177-.152.3-.385.542-.45,0,.1.013.232.139.256.138-.079.086-.269.1-.4a.361.361,0,0,0,.407.26c-.006-.18-.157-.3-.271-.419l.149.053c.119-.193-.111-.338-.223-.467.109-.067.218-.136.323-.209a.41.41,0,0,0,.114.346c.1-.1.158-.233.274-.314a.412.412,0,0,0,.149.417.916.916,0,0,0,.132-.271.261.261,0,0,0,.309.235.512.512,0,0,0-.087-.23c.134-.042.267-.086.4-.14-.049.088-.074.188.018.262.161-.005.179-.222.217-.343.025.212.277.2.424.125l-.095-.092.132-.067a.526.526,0,0,0-.628-.37.334.334,0,0,0-.122-.4c-.175.038-.2.257-.268.392-.035-.107-.073-.25-.211-.256-.078.02-.191.041-.192.144a.728.728,0,0,0,.246.265c-.154,0-.308.009-.461.017.041-.087.167-.173.1-.279-.036-.15-.2-.027-.289-.013l-.042-.092a.6.6,0,0,0-.276,0c.019-.169-.209-.13-.311-.19.008.046.024.136.031.181a1.362,1.362,0,0,0-.411-.13c.076-.026.182-.012.23-.087-.017-.2-.281-.2-.43-.229.133-.014.269-.09.268-.242-.083-.169-.3-.056-.433-.027.155-.108.329-.321.155-.5-.066.043-.13.086-.193.132-.035-.064-.06-.157-.145-.166-.277-.057-.466.277-.746.185m5.31.161a2.824,2.824,0,0,0-.172.736c-.011.075.017.243.129.159a2.552,2.552,0,0,0,.6-.619.757.757,0,0,1-.29.051c.023-.172-.193-.2-.267-.327m-.8.116a.382.382,0,0,1-.213.218c.183,0,.178.193.122.318.164.035.1.216.022.3.179,0,.114.211.062.313-.1.2-.29.42-.174.655A1.547,1.547,0,0,0,42.45,4.29a2.759,2.759,0,0,1,.086-.755.482.482,0,0,1-.379.027m-9.2.337c-.136-.037-.333.071-.222.224a.892.892,0,0,0,.208-.063c.04.058.064.157.152.157a.347.347,0,0,0,.188-.255c.023-.175-.3-.248-.326-.063m9.961.768a1.13,1.13,0,0,0-.434.585c-.028.085-.1.226.04.256.163-.072.125-.318.3-.378a7.283,7.283,0,0,0,.77-.325,1.184,1.184,0,0,1-.126-.183c.146-.08.318-.232.256-.417a2.51,2.51,0,0,0-.808.462m6.48.149a.509.509,0,0,0-.073.378c-.054-.138-.271-.193-.349-.049a.569.569,0,0,0,.144.267c-.081-.036-.161-.117-.256-.085a.2.2,0,0,0-.14.2c.095,0,.191.006.288,0a.293.293,0,0,0-.092.469,1.156,1.156,0,0,0,.147-.183l.031-.021a.425.425,0,0,0,.042.344c.134-.034.134-.213.181-.321a.884.884,0,0,0,.146.395c-.143-.08-.44-.129-.445.1,0,.2-.3.068-.338.243s-.174.359-.04.526c-.141.007-.325-.022-.423.1-.116.114.069.138.149.119-.063.045-.124.091-.182.14a.482.482,0,0,1-.271-.153c.068-.071.185-.112.214-.212-.045-.136-.158-.059-.243-.017.081-.091.156-.187.232-.282a.829.829,0,0,0,.237.054.335.335,0,0,0-.184-.235c.068-.034.246-.068.184-.174-.038-.141-.217-.065-.3-.023.02-.1.113-.2.067-.3-.1-.081-.217.024-.29.1-.011-.092.007-.223-.1-.265a.226.226,0,0,0-.254.145c-.049-.188-.319-.4-.449-.164L46.8,5.745c.117,0,.364.029.337-.156-.061-.127-.2-.061-.294-.024a.639.639,0,0,0,.071-.345.309.309,0,0,0-.323.152.473.473,0,0,0-.25-.18.263.263,0,0,0-.063.328.623.623,0,0,0-.408.053.423.423,0,0,0,.29.133c-.037.07-.138.143-.085.23a.707.707,0,0,0,.29.043c-.066.065-.093.16-.008.223s.174-.05.254-.088a.789.789,0,0,1,.049.271c-.137.082-.292-.007-.433.027-.122.12.1.155.18.162-.091.04-.231.059-.225.187.028.16.205.124.315.081.043.087.071.259.206.225.107,0,.164-.1.227-.167.059.084.143.173.113.286-.047.089-.112.166-.165.252a.3.3,0,0,0,.4-.075.451.451,0,0,0,.014.35.562.562,0,0,0-.309.171c.11.189.344.092.5.014-.062.072-.124.145-.182.22a.272.272,0,0,0,.387-.045.648.648,0,0,0,.265.212.715.715,0,0,0,.108-.3c.083.064.165.129.25.192-.107.042-.291.09-.252.243.008.146.173.057.252.027-.014.086-.017.186-.1.241a1.074,1.074,0,0,0-.335.194c.084.161.29.024.4-.028a1.067,1.067,0,0,0-.137.217c0,.1.129.105.188.158l-.113.08a.635.635,0,0,0,.264.393c.11-.064.219-.16.184-.3.07.1.2.188.164.326-.087.051-.188.071-.277.119.091.213.33.127.473.029a1.036,1.036,0,0,0-.164.246.354.354,0,0,0,.425-.131c0,.109-.011.328.155.31.136-.065.16-.223.2-.353a2.723,2.723,0,0,0,.632-.12c-.022-.064-.042-.128-.062-.191a.688.688,0,0,1,.359-.019c-.02.106-.135.291.013.343.153.068.23-.121.24-.241.031.089.024.238.136.264.09-.025.169-.076.261-.1.08.062.153.17.27.151.06-.036.05-.122.085-.178a.615.615,0,0,1,.295-.053.577.577,0,0,0,.741.4.284.284,0,0,0,.056.241.739.739,0,0,0,.289-.224c.063.134.071.317.2.405.2,0,.186-.285.118-.411.084-.028.166-.057.249-.088a.413.413,0,0,0-.217-.136,1.009,1.009,0,0,0,.322-.182c.09-.149-.134-.192-.223-.243.077-.091.276-.175.212-.312-.114-.046-.312-.052-.293.121-.075-.079-.152-.157-.228-.234a2.551,2.551,0,0,0,.344-.021.32.32,0,0,0-.3-.151c.023-.106.091-.272-.04-.335-.142.032-.226.166-.321.266a1.333,1.333,0,0,0-.493-.291.221.221,0,0,0-.247.1c-.051-.073-.106-.144-.16-.214.127.006.326.1.4-.055,0-.123-.149-.115-.23-.137a.9.9,0,0,0,.367-.141.519.519,0,0,0-.37-.085.338.338,0,0,0-.192-.349l-.094.171c-.025-.2-.191-.293-.323-.414.064-.08.151-.171.1-.282-.039-.12-.185-.112-.276-.063a1.274,1.274,0,0,0,.016-.26.285.285,0,0,0-.327.084,1.785,1.785,0,0,0-.1-.145.211.211,0,0,0-.264.146l-.217-.036a.185.185,0,0,0,.023-.287,1.45,1.45,0,0,1,.06-.2c.008.1.067.232.187.225.1-.06.076-.206.094-.308.075.152.346.039.272-.112a1.345,1.345,0,0,0-.378-.206,1.021,1.021,0,0,0,.512-.02c-.018-.169-.206-.111-.321-.112a1.663,1.663,0,0,0-.163-.106c-.1.093-.3.114-.295.286l-.188-.06a1.012,1.012,0,0,0,.13-.364c-.175.043-.281-.143-.4-.236.064-.049.132-.094.2-.146a.87.87,0,0,0-.394-.2.359.359,0,0,0-.3-.25m-4.883.211a.589.589,0,0,0-.051.4c.145-.043.4-.022.437-.2a.738.738,0,0,0-.386-.2m-1.6,1.091c-.073-.083-.2-.226-.3-.094-.079.145.122.249.2.351a.145.145,0,0,0-.226.065c0,.16.137.275.223.4a2.224,2.224,0,0,1-.389.054c.085-.089.245-.241.058-.321-.2.068-.272.293-.352.468a.3.3,0,0,0-.3-.246.713.713,0,0,0,.032.423,1.268,1.268,0,0,0-.127-.1c-.079,0-.19.084-.144.173a.935.935,0,0,0,.314.249q-.131.034-.261.073a.289.289,0,0,0-.233-.225,1.363,1.363,0,0,0-.073.4.769.769,0,0,0-.262-.213.4.4,0,0,0-.078.279l-.035-.005c.086.128.02.271-.008.4.054.163.277.048.39.021-.027.088-.121.267.017.3a1.109,1.109,0,0,0,.4-.4.441.441,0,0,0,.132.235,1.234,1.234,0,0,0,.188-.428.567.567,0,0,0,.141.276c.222-.076.138-.329.1-.5l.112-.036a1.031,1.031,0,0,0,.142-.336c.092.09.172.194.116.331A1.233,1.233,0,0,0,43,7.781a.466.466,0,0,0-.161.336c.168.051.284-.094.39-.2.083.111.15.315.318.292a.865.865,0,0,0,.121-.45c.07.088.126.22.249.242.175-.112.017-.337-.085-.446a1.87,1.87,0,0,1,.628.017.227.227,0,0,0-.156.348c.137.092.267-.075.373-.147.011.127-.038.31.1.381.182-.031.15-.26.154-.4q.143-.135.28-.278c.1.069.2.175.327.158.077-.027.165-.1.156-.188-.046-.116-.169-.163-.271-.218a.216.216,0,0,0,.168-.368.879.879,0,0,0-.268.095.406.406,0,0,0-.065-.512.638.638,0,0,0-.154.185.444.444,0,0,0-.345-.191.8.8,0,0,0,.181.36c-.168.024-.336.045-.5.065.067-.048.168-.075.189-.166.027-.07-.014-.195-.105-.187a.835.835,0,0,0-.315.144.214.214,0,0,0-.015-.33c-.2.064-.262.285-.356.451a1.041,1.041,0,0,1-.393-.238c.121.016.333-.062.271-.217-.143-.132-.359-.037-.529-.017a.238.238,0,0,0-.01-.4.6.6,0,0,0-.263.211M34.156,8.073c-.093-.082-.24-.168-.348-.059-.111.091-.035.233.031.326-.045.059-.112.109-.121.188a.367.367,0,0,0,.38.139q-.113.12-.215.249a.505.505,0,0,0-.255-.149c-.1.01-.132.1-.139.186a.685.685,0,0,0-.223-.256c-.123,0-.164.135-.215.222-.025-.124-.039-.287-.179-.338-.124-.02-.171.131-.225.213-.107-.146-.195-.335-.378-.4a.636.636,0,0,0,.1.493.673.673,0,0,0-.411-.137.278.278,0,0,0-.217.2c-.04.09.07.175.153.135-.012.077-.02.153-.024.231L32,9.351a.436.436,0,0,1-.142.356c.028.056.064.11.1.165a1.635,1.635,0,0,1-.315-.18c.083-.041.232-.16.095-.237-.161-.014-.285.13-.4.229a.356.356,0,0,0-.112-.358,1.221,1.221,0,0,0-.108.382c-.037-.063-.072-.179-.167-.15-.085.056-.108.16-.147.246l-.117-.052q-.054.117-.1.237l-.209.054c-.008-.1-.027-.287-.167-.276a1.4,1.4,0,0,0-.1.222l-.227-.034.047-.148a.566.566,0,0,0-.207-.186.419.419,0,0,0-.19.2l-.138-.1c-.016.08-.03.161-.041.242-.039-.033-.067-.085-.12-.092-.09-.029-.112.084-.146.138-.037-.108-.1-.223-.23-.224a1.317,1.317,0,0,0,.048.326l-.157-.016c-.088.12.09.158.166.2-.082.059-.155.223-.008.253a1.883,1.883,0,0,0,.183-.163c-.02.108-.125.3.039.347.108-.023.1-.137.113-.22a1.106,1.106,0,0,0,.242.075c-.057.075-.173.148-.109.255.1.049.185-.075.269-.121,0,.087-.031.219.08.256.1-.039.106-.15.121-.24.051.054.106.165.2.11a.441.441,0,0,0-.072-.212l.082-.124c.044.03.09.058.136.085.1-.022.12-.134.143-.218a.667.667,0,0,0,.184.3c.047-.049.1-.1.142-.148.005.093-.028.233.087.274.09.027.109-.1.159-.147l.183.091c-.052.055-.153.1-.136.19.039.078.147.051.217.075a.625.625,0,0,0,.21.251c.13.067.13-.077.129-.164l.228,0-.035.1c.049.17.217.086.321.026q.073.1.156.193l.168-.071a.493.493,0,0,0-.082-.265c.1-.049.2-.1.3-.149,0,.042,0,.126,0,.167.067.13.278.029.282-.1a.684.684,0,0,0-.117-.283.321.321,0,0,0,.438-.214l-.233.061c.066-.11.163-.272.025-.373a1.747,1.747,0,0,0-.286.3q-.084-.132-.168-.262a.231.231,0,0,0,.255-.081.292.292,0,0,0-.22-.2c-.009-.072-.018-.144-.027-.217a.468.468,0,0,1,.452.193,1.164,1.164,0,0,0,0-.3.27.27,0,0,0,.343-.058.887.887,0,0,0-.247-.174l.467-.052a1.571,1.571,0,0,0-.094.37c.069.23.354.008.291-.166.048.107.078.239.189.3.08,0,.11-.092.164-.137a1.264,1.264,0,0,0-.124-.257c.135.068.323.213.461.086.086-.1-.052-.172-.14-.187a4.618,4.618,0,0,1,.53.047c-.144.088-.318.316-.095.426a.8.8,0,0,0,.2-.161.3.3,0,0,0,.12.267c.136-.082.125-.241.1-.379.092.068.188.2.316.158.091-.087-.023-.178-.064-.255a2.125,2.125,0,0,1,.487-.1.893.893,0,0,0-.167.187c.177.124.335-.043.432-.179.032.106.023.309.171.316a.527.527,0,0,0,.124-.4.712.712,0,0,0,.308.251.271.271,0,0,0-.033-.392,2.682,2.682,0,0,0,.473-.008c-.035.072-.068.144-.1.217l.074.095L37,9.416c-.036.063-.069.128-.1.194-.1.055-.313.113-.222.271a1.34,1.34,0,0,0,.487-.257,1.06,1.06,0,0,0-.254.414c.039.16.342.119.307-.062a.607.607,0,0,0,.265.263.24.24,0,0,0,.024-.323c.142.1.273.25.459.256.168-.1.02-.238-.1-.293a.646.646,0,0,1,.344-.027c.164.049.109.27.228.371.261-.065.226-.374.156-.572.08.06.16.191.276.143a2.5,2.5,0,0,0,.3-.222c-.033.147.127.245.255.252a1.345,1.345,0,0,0-.039-.3l.185-.088a.762.762,0,0,0,.011.281,1.153,1.153,0,0,0,.293-.229c-.068.126.025.241.127.31a1.8,1.8,0,0,0,.107-.21c.092.035.2.106.3.039.052-.034.135-.1.074-.169l-.155-.068.131-.16c.038.1.147.3.225.108-.031-.16-.18-.248-.3-.341.17-.021.176-.2.157-.33a.286.286,0,0,0-.2.113l-.278-.137a.443.443,0,0,0,.156-.319,1,1,0,0,0-.368.148.66.66,0,0,0,.025-.278.8.8,0,0,0-.275.17.965.965,0,0,0-.211-.186c-.036.151.072.273.137.4a1.893,1.893,0,0,0-.217-.182c-.114-.051-.18.1-.175.188.062.152.243.173.383.2q-.093.107-.181.217c-.032-.053-.036-.178-.128-.147s-.1.144-.108.227a.511.511,0,0,0-.285.126c-.036-.083-.048-.194-.145-.231a.442.442,0,0,0-.357.235.859.859,0,0,0-.173-.475c-.055-.051-.149-.089-.211-.029a.354.354,0,0,0-.038.278c-.121-.009-.252-.051-.353.038l-.1-.112a.865.865,0,0,0,.2-.464.329.329,0,0,0-.359.246c-.08-.108-.144-.243-.274-.3a.17.17,0,0,0-.143.22q-.224,0-.447,0c.09-.092.282-.256.112-.366-.117-.087-.226,0-.26.122a.589.589,0,0,0-.224-.324,1.054,1.054,0,0,0-.185.058l.063.115a1.593,1.593,0,0,0-.732-.284.294.294,0,0,0,.156.33c-.191.013-.382.015-.573.028.073-.105.2-.207.179-.349-.118-.162-.294.008-.348.135a.549.549,0,0,0-.218-.349.415.415,0,0,0-.227.347M46.5,7.852a3.041,3.041,0,0,0-.2.972c.286-.032.4-.363.647-.482a.165.165,0,0,0,.109-.211c-.2-.039-.449-.073-.555-.28m-.662.223c-.023.061-.038.129-.1.161-.1.063-.142.2-.275.211A.485.485,0,0,1,45.754,9a3.712,3.712,0,0,1-.484.752c.244-.1.538-.211.635-.485a5.414,5.414,0,0,0,.147-1.252.853.853,0,0,1-.213.056M46.481,9.2a1.789,1.789,0,0,0-.293.471,2.214,2.214,0,0,1-.731.459.945.945,0,0,0,.458-.014c.3-.1.529-.344.831-.444.023-.077-.026-.217.07-.245a1.674,1.674,0,0,0,.43.012c.019-.1-.008-.263.116-.3a.765.765,0,0,0,.447-.116.84.84,0,0,1-.369-.054l.067-.187a1.2,1.2,0,0,1-.119-.2,1.931,1.931,0,0,0-.907.614m.719,1.05c-.078.1,0,.217.04.313-.127-.1-.329-.179-.457-.036-.1.064.011.151.046.215-.2-.032-.454-.145-.626,0-.1.171.183.129.28.129-.159.194-.366.4-.644.35-.018-.145.1-.339-.047-.443-.128.006-.156.172-.212.262-.11-.124-.274-.377-.459-.237-.112.108.027.223.1.306a1.762,1.762,0,0,0-.436-.048c-.074,0-.2.048-.163.147,0,.157.188.137.3.116-.1.05-.192.1-.286.156l-.061-.09a.279.279,0,0,1-.358.02,3.111,3.111,0,0,0,0-.381.453.453,0,0,0-.279.129c.1-.124.247-.313.087-.455a2.645,2.645,0,0,0-.16.218l-.2-.1c.055-.088.2-.213.05-.289-.128,0-.208.118-.287.2.009-.1.011-.2-.093-.249-.112.078-.1.233-.122.352-.036-.056-.068-.128-.144-.136-.093-.02-.144.085-.205.131a1.946,1.946,0,0,0,.157.169c-.129.008-.258.018-.386.035.095-.091.269-.27.071-.355a1.068,1.068,0,0,0-.306.351c-.015-.094-.061-.232-.183-.2-.079.1-.036.243-.037.361a.806.806,0,0,0-.245-.031c.008.137.157.182.256.242a1.5,1.5,0,0,0-.22.221.357.357,0,0,0-.133-.23c-.084.094-.069.23-.113.342-.083-.1-.159-.263-.315-.25a.431.431,0,0,0-.165.147,1.172,1.172,0,0,0-.225-.194c-.161-.064-.247.126-.333.225a.638.638,0,0,1,.033-.519c-.3-.067-.571.353-.332.579a1.261,1.261,0,0,0-.484-.2c-.086-.028-.149.032-.2.093a1.818,1.818,0,0,0,.192.176,1,1,0,0,0-.42.269.535.535,0,0,0,.483-.006c-.013.094-.115.215-.007.288a1.164,1.164,0,0,0,.407-.123c-.029.079-.1.164-.065.252.187.083.381-.07.555-.134.083.04.167.079.252.116-.046.069-.164.137-.109.232.118.123.227-.05.281-.145a.991.991,0,0,0,.2.282c.141-.032.154-.181.115-.3a.781.781,0,0,0,.195.166c.112-.084.22-.173.323-.268-.041.108-.119.235,0,.327.041-.05.084-.1.124-.151a.464.464,0,0,0,.05.254c.125.049.171-.093.146-.191a.488.488,0,0,1,.306.292c-.077.028-.176.036-.22.118a.143.143,0,0,0,.11.139.494.494,0,0,0-.18.255.251.251,0,0,0,.3-.11,1,1,0,0,0-.068.338.233.233,0,0,0,.239-.129.816.816,0,0,0,.2.174.931.931,0,0,0,.019-.211c.086,0,.172,0,.259,0-.072.085-.218.163-.152.292.1.047.17-.063.242-.119a.442.442,0,0,0-.049.243c.114-.02.163-.119.2-.216.058.035.11.092.184.093.092-.109-.024-.224-.1-.3.036-.067.075-.133.112-.2l.167.1a.87.87,0,0,0-.015-.418q.078.08.161.158c.059-.135.092-.321.254-.371a.587.587,0,0,1,.436-.03c-.027.124-.237.152-.2.32a.179.179,0,0,0-.257.153c-.026.1.1.108.168.134a.632.632,0,0,0-.348.123.557.557,0,0,0,.152.24l.12-.072c-.016.091-.035.215.09.23.1-.032.12-.139.162-.218.057.063.113.126.171.188a.74.74,0,0,0-.264.185c.114.146.292.1.424.007l-.1.131.025.066a.512.512,0,0,0,.389-.129.628.628,0,0,0,.084.334.368.368,0,0,0,.181-.343l.211.05c-.049.152-.1.34.033.466a.577.577,0,0,0,.076-.225,1.009,1.009,0,0,0,.179.486.36.36,0,0,0,.08-.306c.058.049.139.081.18.15s.014.18.058.259a.147.147,0,0,0,.173-.088,2.161,2.161,0,0,0-.073-.29c.076.1.13.26.272.279.139-.017.154-.173.1-.277l.18-.106a.4.4,0,0,0,.135.206.392.392,0,0,0,.168-.353c.079.048.16.1.241.142-.051.086-.2.209-.1.309.156.1.23-.125.259-.239a.78.78,0,0,0,.194.167.183.183,0,0,0,.013-.306c.128,0,.353-.01.344-.189-.051-.119-.193-.116-.3-.132a1.212,1.212,0,0,1,.4-.16c.043.042.058.154.142.126.156,0,.2-.163.165-.291a.494.494,0,0,0,.3.173.287.287,0,0,0-.072-.252c.148.034.3.055.45.075-.042.051-.12.1-.078.181.055.045.129.1.2.065a.721.721,0,0,0,.173-.269c0,.126-.029.274.081.367a.346.346,0,0,0,.18-.312.718.718,0,0,0,.373.172c.106-.113-.038-.215-.126-.274.172-.025.388-.035.483.144a.262.262,0,0,0-.082-.359c.1-.075.212-.147.336-.083a.53.53,0,0,0-.132-.219q-.123,0-.243.014a.8.8,0,0,0,.318-.275.332.332,0,0,0-.381.007,1.336,1.336,0,0,1,.415-.426.535.535,0,0,0-.5.055.525.525,0,0,0,.061-.364.255.255,0,0,0-.331-.108c-.062.095.034.19.065.278a1.416,1.416,0,0,0-.478-.4c-.088-.017-.144.062-.194.118l.083.1c-.073.09-.147.18-.219.27,0-.183-.066-.412-.271-.452-.13.007-.069.165-.073.245-.086-.121-.18-.236-.272-.352.121-.156.316-.144.492-.147.143-.049.08-.2-.026-.252.132-.018.355.056.415-.1-.1-.2-.355-.163-.534-.13.146-.085.349-.129.416-.3a.251.251,0,0,0-.437-.079.912.912,0,0,0-.242-.3c-.05-.036-.145-.067-.179.006a.819.819,0,0,0,.023.31c-.176-.121-.414-.32-.629-.182-.075.078.049.143.09.2-.189.029-.378.058-.566.1.137-.151.3-.423.092-.587a1.046,1.046,0,0,0-.216.32,1.3,1.3,0,0,0-.1-.549c-.05-.1-.175-.047-.228.018m7.683.512a1.147,1.147,0,0,0,.283.253.312.312,0,0,1-.42,0c-.133.027-.326.2-.169.323.152.161.372.025.557.046a.214.214,0,0,0,.253-.121c.05-.129-.041-.249-.085-.364.117-.038.281-.11.245-.262l-.083-.034a1.435,1.435,0,0,0-.581.159m-1.461,1.264a.532.532,0,0,0-.5.044,1.026,1.026,0,0,0-.425-.176.338.338,0,0,0,.106.276c-.121-.034-.281-.083-.355.056-.034.109.082.131.153.172a2.783,2.783,0,0,1-.334.078c-.046-.109.027-.358-.137-.351a.218.218,0,0,0-.073.3,1.242,1.242,0,0,0-.248.048,1.218,1.218,0,0,0,.083.241c-.1.045-.213.066-.278.158a.292.292,0,0,0,.29.264c-.081.124-.23.234-.231.389.09.068.163-.053.234-.092a.681.681,0,0,0,.051.4c.15.112.315-.039.443-.116.141.082.149.234.153.38.187.094.375-.061.57-.04.019.1-.024.241.088.291a.343.343,0,0,0,.433-.19l.178.023a.629.629,0,0,0,.224.329c.05-.045.13-.072.152-.144a.5.5,0,0,0-.1-.248.27.27,0,0,1,.292.078.27.27,0,0,0,.318.017c-.025-.058-.049-.115-.075-.172a.193.193,0,0,1,.3-.027c.053.123-.088.211-.139.307a.169.169,0,0,0,.319.019c.049.056.07.19.171.166a.225.225,0,0,0,.065-.345c.118.053.329.152.405-.014.016-.105-.11-.086-.173-.114.12-.124.286-.278.469-.165a.288.288,0,0,0-.054-.335,2.818,2.818,0,0,0,.368.048c-.079.082-.013.16.039.234a.928.928,0,0,0,.245-.19A1.905,1.905,0,0,0,56.33,14l.1.091c.151.006.212-.157.27-.269a.427.427,0,0,0,.143.279c.092-.085.18-.2.125-.331a.87.87,0,0,0,.255.068.994.994,0,0,0,.305-.215l-.128-.113c.168-.09.355.1.507-.021.035-.1-.078-.154-.149-.2.088-.021.266,0,.215-.143-.094-.156-.293-.123-.442-.087a2.164,2.164,0,0,0-.084-.217,1.834,1.834,0,0,0-.361.078c-.014-.131-.01-.337-.186-.35-.109.021-.079.127-.077.208-.161-.019-.249-.2-.4-.251-.126,0-.145.115-.079.2-.129-.023-.256-.05-.382-.081a.9.9,0,0,0,.186-.35c-.156-.026-.371-.01-.395.189A1.411,1.411,0,0,0,55.436,12a.287.287,0,0,0-.138.177c-.1-.061-.268-.185-.356-.05-.078.091-.006.188.031.278a.73.73,0,0,1-.372-.051,1.013,1.013,0,0,0,.212-.343c-.107-.189-.312.032-.345.17-.018-.142,0-.311-.124-.413a.5.5,0,0,0-.148.278.772.772,0,0,0-.328-.135c-.052.063-.1.127-.149.194a.586.586,0,0,0-.2-.377c-.1.068-.2.188-.094.3M24.8,12.88c-.035.056-.114.23.024.208.171-.015.4.146.518-.039a.708.708,0,0,0,.135.366.374.374,0,0,0,.148-.53.681.681,0,0,0,.492-.108c-.141-.209-.42-.132-.621-.078-.031-.13-.122-.321-.288-.244a1.076,1.076,0,0,0-.407.424m12.666-.186a.519.519,0,0,0-.191-.147c-.164.176,0,.376.147.489-.131-.02-.312-.123-.418,0-.04.17.128.262.265.3a.449.449,0,0,0-.43.12c-.094.128.1.13.181.139a2.344,2.344,0,0,0-.388.157c.008-.065.017-.13.025-.2-.106.051-.289.022-.313.168-.087,0-.173-.006-.26-.008l-.057.106c-.087-.027-.176-.1-.269-.056-.04.127.114.166.2.193-.088.075-.247.2-.149.323.068.108.2.027.263-.04a.39.39,0,0,0,.267.2c.083.076.153.23.287.188.039-.106-.066-.182-.116-.26h.257a1.027,1.027,0,0,0-.019.215c.009.055.07.16.127.08a.394.394,0,0,0,.085-.284.373.373,0,0,0,.251.054c.088-.038.108-.143.149-.22a1.829,1.829,0,0,0,.238.136.77.77,0,0,0,.1-.264l.18.019a.192.192,0,0,0,.085.246A.674.674,0,0,0,38.144,14c.106.045.224.137.342.075.085-.039.088-.144.114-.222.2-.021.273.18.409.286a.581.581,0,0,0,0-.245c.093.069.207.135.313.049a.32.32,0,0,0,.424,0c.122.046.182.161.255.26a2.064,2.064,0,0,0,.2-.168,1.511,1.511,0,0,0,.253.3.192.192,0,0,0,.157-.167l-.125-.134a.48.48,0,0,1,.346.095c.149.107-.081.375.135.425.234-.013.275-.3.29-.478.048.108.1.281.25.255s.153-.213.078-.322a.722.722,0,0,0,.4.077c.115-.058.089-.231,0-.3-.105-.084-.246-.036-.367-.039-.008-.08.043-.184-.034-.243a.381.381,0,0,0-.432.076c.047-.188.123-.438-.036-.592-.149-.123-.231.1-.27.213a1.773,1.773,0,0,0-.24-.122c-.074.009-.114.075-.159.125-.035-.086-.13-.215-.23-.121a.973.973,0,0,0,.182.354c-.071.034-.142.067-.213.1-.006-.041-.018-.124-.025-.165a2.221,2.221,0,0,0-.55-.109c.1-.1.274-.232.189-.4-.149-.05-.3.081-.454.1a3.055,3.055,0,0,0,.079-.316.8.8,0,0,0-.454.105c-.068-.057-.131-.117-.2-.177-.079.093-.18,0-.276,0s-.114.1-.157.161c-.25.048-.41-.2-.646-.222-.12-.028-.191.087-.235.179M28.92,13.721a.647.647,0,0,0-.4-.158.974.974,0,0,0,.234.38c-.1-.078-.312-.13-.309.062a.821.821,0,0,0,.35.231c-.1.029-.2.058-.294.091.021-.118-.082-.2-.174-.25-.152-.011-.256.11-.356.2-.062-.067-.238-.171-.267-.02a1.094,1.094,0,0,0,.137.283.525.525,0,0,0-.379-.1c.045.136.184.2.289.277-.122.024-.245.047-.365.077.142-.157-.079-.313-.231-.305-.092.133,0,.293.032.432a1.115,1.115,0,0,1-.305-.015,1.41,1.41,0,0,0-.288.124c-.042-.075-.035-.213-.145-.221a.378.378,0,0,0-.35.237c-.036-.2-.068-.485-.3-.543-.163,0-.13.2-.137.307-.145-.034-.363-.048-.36.161a.216.216,0,0,0-.271-.061.884.884,0,0,0,.315.3l-.141.153c-.087-.158-.274-.1-.419-.1-.069.062-.072.183-.172.212-.085.042-.258.12-.138.228a1.142,1.142,0,0,0,.472-.246,1.27,1.27,0,0,0-.267.438.213.213,0,0,0,.309.01,1.265,1.265,0,0,0-.02-.15.76.76,0,0,0,.3.317.308.308,0,0,0,.057-.312.937.937,0,0,0,.424.261l.1-.155a.731.731,0,0,0-.2-.142.448.448,0,0,1,.437.008c.055.1.038.313.191.3.227-.1.157-.386.1-.567.088.094.194.211.337.153q.031-.088.063-.175l.2.028q.109-.068.225-.127a1.524,1.524,0,0,1,.053.229.445.445,0,0,0,.242-.075l-.06.121c.167.08.321-.048.467-.113.133.023.2.149.268.255-.031.064-.094.133-.05.208a.309.309,0,0,0,.322.017c.112.081.144.225.248.313a1,1,0,0,0,.238-.18c-.057.128-.084.345.1.383.164.016.187-.2.227-.317.153.012.239.146.328.253-.056.047-.212.079-.151.183.113.134.311.056.455.027a.43.43,0,0,0-.01.531.6.6,0,0,0,.3-.246c.019.167.115.421.329.366a1.081,1.081,0,0,0-.018-.311c.07.116.127.26.26.318a.213.213,0,0,0,.214-.08c-.065-.094-.22-.188-.15-.319a.613.613,0,0,1,.361-.117l-.116.1c.011.1,0,.246.113.3a.9.9,0,0,0,.513-.239c-.062.123-.108.326.079.357s.155-.226.14-.343c.078.136.161.334.348.324.045-.172-.107-.3-.166-.44a.356.356,0,0,1,.079-.288c.043.076.118.262.229.163.163-.107.038-.3-.045-.415l.364-.023c-.05.1-.15.224-.087.342.1.1.254.009.373-.011a.34.34,0,0,0,.261.321c.123-.067.041-.228.038-.336a.967.967,0,0,0,.241.291c.071.062.216.053.24-.053a.661.661,0,0,0-.169-.285.987.987,0,0,0,.252-.352.386.386,0,0,0,.261.365c.091-.1.047-.244.058-.368.039-.127.184-.158.295-.2a.5.5,0,0,0,.146.355.449.449,0,0,0,.3-.138c.069.082.135.213.263.192.051-.039.131-.077.129-.153-.005-.1-.1-.156-.157-.224.1.024.272.15.319,0-.035-.177-.325-.131-.359-.316-.04-.127.107-.194.19-.254.042.087.058.2.155.25a.172.172,0,0,0,.176-.212.739.739,0,0,0,.3.144c.1-.058.061-.2.071-.293.1.08.241.155.361.055a1.03,1.03,0,0,0-.347-.288c.119-.07.225-.226.129-.357-.105-.071-.228-.016-.338.006a.266.266,0,0,0-.191-.34.8.8,0,0,0-.173.335c-.059-.086-.169-.246-.284-.139-.139.149.1.265.19.357-.107.008-.213.015-.319.031.006-.075.027-.168-.056-.208-.143-.1-.316-.023-.451.053a.288.288,0,0,0-.146-.3c-.129-.023-.2.113-.271.2a.347.347,0,0,0-.2-.312.72.72,0,0,0-.141.359.845.845,0,0,0-.143-.18c-.063-.073-.153.006-.22.026a.472.472,0,0,0,.124.263.355.355,0,0,0-.337.113,1.16,1.16,0,0,0,.255.095c0,.131.013.262.02.394-.038-.055-.062-.175-.152-.142-.191.035-.026.263-.035.383a1.284,1.284,0,0,1-.33-.037q-.041-.133-.083-.264l.085.068c.074.1.168-.052.13-.126a.7.7,0,0,0-.357-.341l.163-.071a.577.577,0,0,0-.324-.193c-.144-.033-.226-.163-.315-.268.129.091.362.039.368-.135a1.164,1.164,0,0,0-.538-.284c.082-.028.161-.06.24-.095-.033-.084-.079-.191-.187-.189a.442.442,0,0,0-.254.252c-.008-.1.045-.282-.112-.268-.108.062-.1.2-.1.307-.062-.068-.15-.212-.249-.121a.212.212,0,0,0-.057.263c-.073-.038-.147-.072-.218-.114,0-.126-.018-.3-.172-.323l-.194.081a.361.361,0,0,0-.195-.306.4.4,0,0,0-.2.25c-.063-.062-.12-.152-.22-.143s-.156.1-.193.183c-.035-.086-.045-.2-.137-.244-.179-.116-.389.012-.521.14.025-.05.048-.1.074-.152-.113-.214-.355-.031-.446.106m11.54,1.136a1.346,1.346,0,0,0,.074.214.339.339,0,0,0-.452-.043c-.087.085.012.157.064.225-.206-.032-.463-.149-.648,0-.073.165.188.126.279.131a.657.657,0,0,1-.64.34c-.014-.142.093-.335-.041-.438-.126,0-.159.171-.216.26-.112-.112-.238-.335-.424-.259-.151.086-.027.247.058.33-.191-.019-.456-.132-.6.045-.032.189.175.216.309.16a2.891,2.891,0,0,1-.221.426c-.093-.088-.158-.237-.3-.246-.093.009-.146.084-.193.156a.531.531,0,0,0-.29-.219c-.136.01-.191.151-.263.245a.685.685,0,0,1,.021-.529c-.3-.053-.578.38-.311.586a1.562,1.562,0,0,0-.518-.2c-.079-.023-.131.045-.179.091.059.063.12.124.18.187a1.445,1.445,0,0,0-.38.221c.043.194.326.068.459.038a.6.6,0,0,0-.053.281.893.893,0,0,0,.451-.123c-.024.087-.127.188-.052.275a.8.8,0,0,0,.516-.151c.088.035.176.073.265.108-.033.074-.178.173-.08.248.109.109.2-.079.268-.145.054.1.1.222.215.259.146-.016.114-.194.1-.295a.98.98,0,0,1,.295.29,1.329,1.329,0,0,0-.326.23c.122.078.246.154.369.231a2.089,2.089,0,0,1-.55.156c-.061.013-.17.055-.131.138a.762.762,0,0,0,.131.184l.13-.075c-.03.081-.039.217.079.227.109-.008.125-.144.167-.223.055.068.112.134.168.2a.82.82,0,0,0-.265.172.279.279,0,0,0,.388.047.338.338,0,0,0-.057.169.516.516,0,0,0,.417-.146c.015.105-.032.279.085.329a.309.309,0,0,0,.167-.323l.21.047c-.04.156-.1.361.058.468a1.712,1.712,0,0,0,.05-.224,1.427,1.427,0,0,0,.171.486.306.306,0,0,0,.089-.309.706.706,0,0,1,.178.149c.051.077.019.179.068.257.083.041.136-.044.185-.093-.033-.095-.067-.189-.1-.284.087.1.15.3.316.277.118-.045.1-.172.064-.268l.186-.114a.368.368,0,0,0,.128.216.438.438,0,0,0,.178-.356l.235.144a.726.726,0,0,0-.154.278c.062.021.146.092.2.02a.656.656,0,0,0,.1-.223c.07.055.164.206.26.1.083-.075-.006-.179-.051-.25.122,0,.287,0,.345-.13.021-.164-.174-.173-.286-.194.137-.068.374-.252.47-.039.179.06.285-.151.215-.3.084.068.171.216.294.164.075-.082-.035-.161-.07-.231a4.122,4.122,0,0,0,.458.077.339.339,0,0,0-.1.147.713.713,0,0,0,.165.13.5.5,0,0,0,.232-.3,1.063,1.063,0,0,0,.033.358.254.254,0,0,0,.22-.305.991.991,0,0,0,.386.193c.091-.131-.032-.218-.126-.3a1.817,1.817,0,0,1,.328.016c.069.024.105.106.182.114a.307.307,0,0,0-.112-.341c.1-.065.212-.148.336-.078a.259.259,0,0,0-.367-.2c.115-.077.263-.146.295-.295a.353.353,0,0,0-.351.025,1.232,1.232,0,0,1,.4-.426.52.52,0,0,0-.489.059c.039-.127.119-.284.032-.407-.085-.086-.252-.145-.337-.028a2.339,2.339,0,0,0,.084.234,1.1,1.1,0,0,0-.475-.394c-.084-.028-.129.07-.184.112l.083.112a1.9,1.9,0,0,0-.2.261c-.04-.133-.048-.293-.166-.386-.064-.05-.187-.107-.212.015,0,.042.01.127.013.17q-.134-.176-.274-.348a.38.38,0,0,1,.291-.149c.084-.008.2.036.259-.046.077-.082-.02-.161-.077-.214.125-.018.35.063.407-.094-.095-.2-.359-.166-.538-.131.145-.079.329-.126.418-.277a.236.236,0,0,0-.424-.106c-.1-.132-.2-.35-.4-.338-.091.1-.027.236-.01.35-.181-.118-.412-.316-.633-.186-.067.082.051.145.091.206-.188.032-.375.061-.562.1.137-.151.292-.428.087-.588a1.375,1.375,0,0,0-.224.321.949.949,0,0,0-.115-.581c-.1-.077-.228.046-.243.149m11.838.452a.47.47,0,0,0-.506.117c-.063.069-.217.219-.048.26-.016.043-.031.087-.046.131.146.055.345.077.41-.1a1.657,1.657,0,0,0,.073.286,2.109,2.109,0,0,0-.219.129c-.1-.132-.326-.319-.451-.111l.067.136a.513.513,0,0,0-.467-.144c-.123.035-.156.169-.186.277a.275.275,0,0,0-.18-.193c-.105-.014-.176.078-.23.153-.043-.1-.079-.231-.2-.245a.3.3,0,0,0-.2.286l-.131-.058c-.166-.057-.267.164-.218.3-.077.04-.155.079-.231.121a.214.214,0,0,0-.091-.285c-.1-.036-.156.087-.216.147-.006-.1.005-.306-.142-.3-.128.009-.058.172-.068.254a.594.594,0,0,0-.212-.227c-.1-.054-.189.043-.228.124.029.1.151.106.233.139a1.107,1.107,0,0,0-.537.288c0,.172.226.205.357.149a.62.62,0,0,1-.308.253.513.513,0,0,0-.318.2l.146.068c-.149.1-.392.234-.335.447.06.114.141-.011.2-.05q-.039.132-.078.264a1.159,1.159,0,0,1-.332.04c-.009-.131.154-.342-.037-.4a.183.183,0,0,0-.144.165c0-.135.009-.27.016-.4a.659.659,0,0,0,.25-.109c-.1-.069-.213-.152-.336-.088a.588.588,0,0,0,.127-.262c-.144-.161-.3,0-.363.149a.713.713,0,0,0-.136-.363.341.341,0,0,0-.21.308c-.058-.08-.114-.175-.218-.2a.246.246,0,0,0-.189.316.418.418,0,0,0-.461-.063c-.082.035-.056.135-.065.2-.1-.01-.208-.019-.311-.026a.686.686,0,0,0,.256-.285.6.6,0,0,0-.139-.117c-.1.017-.15.115-.209.186-.049-.113-.067-.252-.169-.331a.243.243,0,0,0-.186.339c-.112-.027-.244-.082-.35-.009a.257.257,0,0,0,.134.353,1.037,1.037,0,0,0-.345.287c.115.106.257.023.363-.049,0,.1-.036.265.094.292a1.217,1.217,0,0,0,.271-.144.178.178,0,0,0,.135.209c.134.014.149-.155.2-.242.088.06.231.121.195.254-.048.178-.32.133-.364.309.048.15.192.04.287.01a2.542,2.542,0,0,0-.141.215c.045.046.065.137.141.146.125.035.2-.1.265-.18.09.049.181.168.3.117.132-.058.143-.219.158-.344.106.049.255.073.293.2.006.123-.027.259.056.365.139-.07.285-.182.264-.356a.8.8,0,0,0,.258.335.713.713,0,0,0-.179.306.16.16,0,0,0,.239.049,1.179,1.179,0,0,0,.261-.318c-.02.11-.1.278.016.355a.322.322,0,0,0,.265-.323c.12.025.261.112.376.027.056-.125-.038-.248-.084-.358.12.014.241.021.362.031-.092.114-.208.312-.041.417.109.089.183-.1.227-.171a.349.349,0,0,1,.057.324c-.07.134-.186.26-.151.423a.363.363,0,0,0,.226-.134c.057-.058.071-.172.159-.191-.117.1-.031.43.153.312.132-.057.082-.213.053-.317a.752.752,0,0,0,.546.2c.059-.128.1-.3-.047-.383.128.027.308.023.37.164,0,.124-.129.2-.166.311.053.022.108.041.165.058.164-.033.226-.2.3-.33a.5.5,0,0,0,.018.339.4.4,0,0,0,.295-.4c.084.088.179.277.324.205.135-.133.036-.34-.027-.483.141.027.321.1.442-.02.073-.11-.082-.146-.144-.189.083-.11.172-.246.326-.252.036.119.065.326.23.315.171-.057.151-.258.093-.391a1.156,1.156,0,0,0,.232.185c.106-.075.134-.211.225-.3.117,0,.245.055.35-.028.041-.079-.03-.159-.046-.235.076-.09.138-.235.278-.224.141.065.285.174.45.117l-.051-.132a.436.436,0,0,0,.239.077.921.921,0,0,1,.034-.2c.089-.026.158.049.225.095a.886.886,0,0,0,.333-.077l-.109-.12c.019-.064.039-.129.055-.195-.036-.088-.145-.015-.2-.068a.508.508,0,0,0-.274-.109,1.951,1.951,0,0,0,.078-.35l-.187-.038a.545.545,0,0,0-.159.185l.088.1-.392-.077a1.608,1.608,0,0,0,.3-.249c-.133-.092-.272,0-.391.068a.577.577,0,0,0,.13-.352.317.317,0,0,0-.263.087.509.509,0,0,0-.339-.2c-.1.041-.213.134-.178.256-.1-.035-.2-.066-.3-.095.121-.063.272-.1.345-.226.024-.2-.207-.143-.3-.063a1.285,1.285,0,0,0,.257-.432l-.075-.128c.135.06.273.115.411.17-.032.072-.164.17-.051.235.143.028.221-.107.28-.212a.444.444,0,0,0,.123.268.421.421,0,0,0,.152-.4c.129.062.156.224.251.322a.368.368,0,0,0,.139-.34q.155.126.319.245c-.134.105-.356.242-.259.442l.133-.03a1.42,1.42,0,0,0-.275.3c-.017.113.123.094.194.132.067-.1.154-.173.228-.263-.019.121-.077.383.106.386.087-.049.1-.153.129-.238a1.251,1.251,0,0,1,.466.491.451.451,0,0,0,.049-.292.72.72,0,0,1,.331.334c.128-.014.129-.187.119-.286.066.1.124.256.258.261a.6.6,0,0,0,.173-.277c.018.088.024.217.138.232.159.047.268-.1.306-.237.013.131.007.338.175.366a.665.665,0,0,0,.286-.243.4.4,0,0,0,.2.28.537.537,0,0,0-.248.2c.062.033.117.1.195.1.107.014.167-.09.232-.155a1.312,1.312,0,0,0-.032.414c.154-.031.218-.184.277-.312.124.123.2.3.366.374a.648.648,0,0,0-.091-.388c.1,0,.207-.013.311-.021a2.136,2.136,0,0,0-.045.281c.179.023.26-.165.293-.308.062.08.1.277.238.216.075-.085.021-.193-.01-.283.145.033.29.067.436.1a.767.767,0,0,0-.2.291,1.059,1.059,0,0,0,.426-.187c-.026.087-.129.3.047.271a.679.679,0,0,0,.262-.233c.07.077.173.317.28.167a.69.69,0,0,0-.093-.328c.042-.085.2-.211.076-.29-.156-.035-.291.1-.431.147a.653.653,0,0,0,.1-.281.2.2,0,0,0-.227-.2c-.057.057-.035.146-.05.219-.127-.075-.255-.148-.386-.216a.739.739,0,0,0,.256-.332.242.242,0,0,0-.367.109c.045-.157.1-.442-.114-.492-.182-.048-.154.181-.124.288a1.032,1.032,0,0,0-.355-.375c-.195,0-.115.225-.041.319-.135-.019-.27-.034-.405-.048.112-.109.269-.3.1-.437-.172-.018-.259.167-.349.282-.063-.1-.1-.336-.261-.282a.531.531,0,0,0-.128.345c-.083.066-.165.132-.245.2,0-.095.079-.254-.057-.294a.38.38,0,0,0-.242.35c-.086-.083-.173-.163-.261-.242.109-.07.237-.132.286-.263a.372.372,0,0,0-.493.166,1.493,1.493,0,0,0,.107-.572.663.663,0,0,0-.355.383,1.084,1.084,0,0,0-.316-.493c-.136-.088-.283.061-.278.2-.1-.169-.189-.378-.386-.454-.161-.02-.252.134-.3.261a.646.646,0,0,0-.237-.348,1.4,1.4,0,0,0-.258.275c-.032-.173-.162-.4-.373-.313-.092.1.038.209.085.293-.158-.024-.316-.04-.475-.05a.87.87,0,0,0,.254-.22c.056-.095-.073-.171-.152-.178-.157-.034-.209.146-.25.26a1.079,1.079,0,0,0-.174-.444c-.2.013-.242.236-.21.395M33.89,17.581c-.095.145-.263.016-.37-.045a7.83,7.83,0,0,0,.73.993.5.5,0,0,0,.4.189.6.6,0,0,0,.286-.262,3.43,3.43,0,0,0,.455-.89,1.139,1.139,0,0,1-.418.065c-.083-.143-.21-.309-.4-.269.01.107.05.237-.038.324-.065.036-.154.078-.225.031-.084-.088-.06-.22-.055-.33a.639.639,0,0,0-.368.194m2.186,1.074a3.325,3.325,0,0,0-.193.7,1.992,1.992,0,0,0,.357,1.53c.063.1.16.206.29.18a3.055,3.055,0,0,0,.57-.368,2.641,2.641,0,0,0,.977-.864c-.12.057-.228.207-.37.172-.068-.1,0-.226.023-.33a.785.785,0,0,1-.345.1.283.283,0,0,1-.131-.356c-.142.09-.264.206-.407.294-.151-.006-.16-.2-.147-.308,0-.141.144-.2.247-.269-.141-.029-.4-.011-.412-.2a2.336,2.336,0,0,1,.256-.374.532.532,0,0,1-.483-.217,1.8,1.8,0,0,0-.231.308m-3.588.429c-.108.062-.206.205-.345.16l.011-.208a.662.662,0,0,1-.474.191c.124.231.4.29.563.487.278.32.442.747.818.974a4.647,4.647,0,0,1,.739.646c.1.069.192.206.321.179a1.677,1.677,0,0,0,0-.869,2.257,2.257,0,0,0-.557-.723c-.285-.343-.372-.861-.806-1.065a.2.2,0,0,1-.265.228m21.488-.216c-.058.054-.117.107-.176.159a.981.981,0,0,0-.453-.136,1.554,1.554,0,0,0,.057.32c-.141-.043-.272-.114-.415-.151-.175.139.047.308.113.441a1.58,1.58,0,0,0-.559.068,1.36,1.36,0,0,0,.267.335.68.68,0,0,0-.322.183.149.149,0,0,0,.12.23.813.813,0,0,0,.345-.169.28.28,0,0,0,.415.047.2.2,0,0,0,.313-.075,1.463,1.463,0,0,0-.017.291,1.059,1.059,0,0,0,.246-.239l.178-.026c.026.073.023.167.09.219.112.1.248,0,.365-.038.036.116.029.3.173.344.1-.028.085-.14.087-.22l.177,0c.023.085.005.216.1.261a.748.748,0,0,0,.219-.115c.036.09.056.208.164.242a.294.294,0,0,0,.221-.056c0,.118,0,.293.14.335a.37.37,0,0,0,.063-.321c.084,0,.168.01.254.016-.054.077-.206.17-.1.269.115-.012.184-.117.264-.189a.361.361,0,0,0,.275-.183c.072.045.156.154.243.072.142-.105-.017-.255-.084-.353.1-.024.2-.069.2-.191a1.281,1.281,0,0,0-.276.036c-.064-.122-.2-.115-.318-.084.018-.166-.207-.142-.307-.211.005.049.017.147.023.2-.131-.068-.265-.129-.4-.186a.376.376,0,0,0,.225-.024c.009-.22-.277-.243-.441-.249.131-.021.29-.083.3-.24-.066-.183-.3-.063-.439-.061.177-.081.357-.314.17-.484-.063.045-.122.092-.18.142-.034-.078-.069-.171-.163-.187-.265-.046-.452.249-.72.169a.215.215,0,0,0-.335-.131l-.1-.051m-8.809.446a.332.332,0,0,0-.15.149.214.214,0,0,0,.4.039c.073-.148-.127-.268-.248-.188m-3.187.261a.221.221,0,0,0,.179.23c.1,0,.171-.077.247-.128.106.033.347.032.275-.143a.458.458,0,0,0-.7.041M28.8,19.743c-.082-.01-.171-.034-.241.024-.041.062-.075.174.023.205a1.238,1.238,0,0,0,.3-.127c.022.082.061.24.182.181.144-.021.094-.19.071-.284l.09.075c.131-.1.431-.063.388-.294-.137-.048-.3.023-.419-.092-.141.092-.315.152-.394.313m1.551.094c-.145-.009-.136.175-.127.274.075.058.19.091.138.21.083.018.181.009.249.07.274.237.637.346.892.607.131.127.205.314.375.4a1.014,1.014,0,0,0-.312-1.045c-.216-.226-.5-.375-.7-.615a2.027,2.027,0,0,1-.513.1m16.12.091a4.052,4.052,0,0,1,.467.224c.039-.068.074-.138.106-.21a.425.425,0,0,0-.573-.014m-3.368.178c.052.129.189.188.294.268l.139-.142c-.081-.129-.349-.371-.433-.126m.913.069c.109.132.3.071.445.088a1.446,1.446,0,0,0,.113.245c.113-.076.275-.218.182-.365a.7.7,0,0,0-.739.032m1.435-.051a1.119,1.119,0,0,1-.035.192c-.076.048-.169.013-.252.014a.4.4,0,0,0-.169.213.263.263,0,0,0,.219.187c.128-.02.2-.139.271-.232.08.075.142.215.268.207.084-.121.017-.264-.035-.381.071.048.153.13.242.061.063-.077.108-.209.016-.282a.406.406,0,0,0-.523.022m-18.641.289a.559.559,0,0,0-.186-.009.72.72,0,0,0-.062.167c-.118.087-.311.129-.34.294.1.072.2-.013.294-.052l.153.128a.753.753,0,0,0,.116-.228.259.259,0,0,0,.4-.071c-.045-.048-.09-.095-.135-.142l.126-.067.189.008c-.07-.254-.4-.133-.558-.028m-6.462.178c-.011.146.144.177.253.205l.055.131a.568.568,0,0,0,.268-.127.61.61,0,0,0,.2.13,1.776,1.776,0,0,0,.137-.336.424.424,0,0,1-.335-.145c-.188.045-.463-.067-.575.142m7.886.033a.444.444,0,0,0-.275.124c.034.113.144.135.247.143l.044.135c.084-.017.117-.093.148-.165.073-.025.169-.023.212-.1a.237.237,0,0,0-.154-.129q.05-.084.1-.169a.252.252,0,0,0-.319.161m1.224.116a1.8,1.8,0,0,0,.853.125.82.82,0,0,0-.382-.366c-.184.008-.3.18-.471.241m18.641.33a.909.909,0,0,1-.458.095.572.572,0,0,0,.514.145.834.834,0,0,0,.175.32.429.429,0,0,0,.224-.316c.1.029.265.147.34.016.047-.156-.073-.282-.168-.387a1.4,1.4,0,0,0,.149-.2.346.346,0,0,0-.34-.09c-.182.1-.268.3-.436.419m-28.34-.2c.053.184.143.438.363.464l-.006.076.04.035a2.277,2.277,0,0,0,.327-.34c-.1-.088-.235-.022-.355-.02-.014-.082-.028-.164-.043-.245a.411.411,0,0,1-.175-.127c-.078.022-.167.054-.151.157m22.2.069a.724.724,0,0,1-.062.272l-.147-.061a.313.313,0,0,1-.417.051,1.567,1.567,0,0,0,.083.566.149.149,0,0,0,.2.085c.2-.105.321-.308.513-.425.168-.134.392-.234.462-.455-.126.012-.184-.075-.161-.187-.008-.07-.11-.085-.163-.108-.135.035-.212.167-.3.262m2.006.57c.02.087-.013.239.115.25a1.925,1.925,0,0,0,.461-.283c.133-.09.3-.275.154-.427a.935.935,0,0,1-.306.217l-.078-.079c-.064-.026-.145-.026-.193-.08.011-.157-.133-.248-.19-.381a3.432,3.432,0,0,0,.035.784M54,21.054a.73.73,0,0,0-.54.021c.008.171.165.216.307.241a2.165,2.165,0,0,1-.4.212c-.09-.166-.16-.371-.348-.451a.209.209,0,0,0-.016.334,1.75,1.75,0,0,0-.335-.161c-.19.108-.07.34.115.355a3.613,3.613,0,0,1-.521-.051.858.858,0,0,0,.181-.358.377.377,0,0,0-.344.208,2.02,2.02,0,0,0-.119-.2c-.205.091-.187.343-.1.512-.089-.038-.237-.152-.3-.028a.2.2,0,0,0,.189.3c-.094.061-.216.106-.257.22a.2.2,0,0,0,.2.188.716.716,0,0,0,.283-.16,2.274,2.274,0,0,0,.279.272c0,.136-.025.415.182.388.1-.1.071-.252.065-.378.105.078.227.23.372.167a.235.235,0,0,0-.135-.367,2.135,2.135,0,0,1,.616-.009c-.115.121-.249.334-.075.467a1.017,1.017,0,0,0,.243-.262c.027.147,0,.378.153.458.146-.034.2-.193.285-.3.093.095.289.327.4.131a.735.735,0,0,0-.169-.271.914.914,0,0,0,.311-.053.284.284,0,0,1,.128-.327c.032.152.078.323.241.381-.02.148-.107.356.047.461.144.033.164-.147.2-.242.058.138.069.328.215.406a.469.469,0,0,0,.1-.216,1.393,1.393,0,0,0,.389.395c.147-.017.059-.21.031-.3a.66.66,0,0,0,.345.051c.1-.1-.036-.225,0-.341a.574.574,0,0,0-.049-.373c-.127-.06-.2.107-.289.175a1.028,1.028,0,0,0-.086-.411c-.1.04-.2.108-.208.227l-.279-.065a1.072,1.072,0,0,0,.325-.251.135.135,0,0,0-.261-.07,1.042,1.042,0,0,0,.015-.434.328.328,0,0,0-.3.237,1.248,1.248,0,0,0-.238-.392.121.121,0,0,0-.21.025.588.588,0,0,0,.148.238,2.176,2.176,0,0,1-.381-.063.779.779,0,0,0,.223-.395c-.036-.117-.143-.1-.237-.075.093-.086.287-.2.211-.343-.107-.128-.227.017-.306.1a.5.5,0,0,0-.268-.209.247.247,0,0,0-.017.4M32.37,20.818a1.624,1.624,0,0,0,.119.538,1.449,1.449,0,0,0,.4.679c.277.282.216.736.481,1.024a1.081,1.081,0,0,0,.688.381c.158-.055.051-.233.014-.337a2.62,2.62,0,0,0-.631-.973c-.3-.218-.409-.586-.67-.834-.137-.154-.217-.363-.4-.477m-13.2.1a.386.386,0,0,1-.3.1c.18.132.39.3.629.248.063-.088-.011-.213-.016-.312a.6.6,0,0,1-.313-.034m24.053.783-.141-.025c-.028.072-.055.145-.084.217-.147-.049-.124-.22-.109-.341-.338.395-.715.757-1.023,1.177a1.783,1.783,0,0,0-.329,1.48c.075.225.352.154.516.079a3.726,3.726,0,0,0,.964-.85,3.684,3.684,0,0,0,.486-.853c.1-.189,0-.406.054-.6a1.887,1.887,0,0,0-.082-.917.948.948,0,0,1-.253.636M24.936,21.51a3.443,3.443,0,0,0,.19.29.277.277,0,0,0-.237.129c.083.1.209.237.341.119.127.043.268.136.4.055.087-.072.076-.189.085-.29a.224.224,0,0,0,.246-.3c-.111-.073-.233,0-.345.027a2.163,2.163,0,0,0,.021-.243.464.464,0,0,1-.326-.067.417.417,0,0,0-.375.283m4.193.08c.1.116.242-.04.348.038a1.469,1.469,0,0,0,.375.432,3.454,3.454,0,0,0,.8.337,1.3,1.3,0,0,1,.568.226,3.085,3.085,0,0,0,.368.394,1.55,1.55,0,0,0,.327.132,4.5,4.5,0,0,1,.7.4,1.557,1.557,0,0,1-.144-.65.385.385,0,0,0-.182-.34c-.247-.182-.518-.333-.752-.533a1.709,1.709,0,0,0-.75-.658,7.168,7.168,0,0,0-1.236.074c-.209.061-.325-.237-.53-.164-.152.083.013.254.105.314m9.029.644a.642.642,0,0,0-.07.408,3.853,3.853,0,0,0,.311,1.015,1.386,1.386,0,0,0,.919.808,1.169,1.169,0,0,0,.785-.285,1.884,1.884,0,0,0,.618-.619c.123-.208.083-.461.167-.682a2.822,2.822,0,0,0,.141-1.244.975.975,0,0,1-.232.346.329.329,0,0,1-.484-.256.225.225,0,0,1-.285.118c-.054.123-.127.28-.282.284-.138.008-.229-.109-.3-.206-.116.033-.3.121-.368-.027-.036-.135.058-.241.132-.34-.149.06-.292.131-.438.2a1.189,1.189,0,0,1,.051-.407,2.874,2.874,0,0,0-.661.894m6.111.241c-.032.188-.141.347-.187.53a.872.872,0,0,0,.328.049,5.231,5.231,0,0,0,2.221-.723c.131-.081.2-.226.324-.318.1-.053.261-.054.283-.191s-.121-.3-.245-.206a.6.6,0,0,1-.6.053c-.047-.071-.082-.148-.124-.22-.18.08-.268.321-.465.344-.126-.115.026-.269.1-.367a.609.609,0,0,0-.358.05c-.076.085-.008.19.007.284a.627.627,0,0,1-.446-.333,4.023,4.023,0,0,0-.831,1.047m6.21-.773a.588.588,0,0,0,.472-.027.361.361,0,0,1-.326-.318c-.1.071-.254.225-.146.345m-24.085.073a.586.586,0,0,0,.264.231c0,.067.01.135.016.2.192-.039.151-.273.04-.378.034-.049.132-.078.1-.153a.551.551,0,0,0-.417.1m-2.216.334a.226.226,0,0,0,.249-.181c.093-.012.112-.091.026-.135-.164-.008-.254.175-.275.316m17.235,3.353.138.045a1.913,1.913,0,0,0-.6.48c-.164.206-.4.394-.421.675a7.719,7.719,0,0,1-.226.859,5.229,5.229,0,0,0,.015.82,2.361,2.361,0,0,1-.19-.383,11.114,11.114,0,0,0,.062,1.23,1.856,1.856,0,0,0,.68,1.216c.078,0-.033-.058-.049-.072a5.377,5.377,0,0,1-.281-.608,1.666,1.666,0,0,1-.118-.889,2.294,2.294,0,0,1,.35.764,1.5,1.5,0,0,0,.216.532c.082.117.234.151.33.254s.17.239.3.311a4.373,4.373,0,0,0,.529.256,1.692,1.692,0,0,1-.273-.252c.272-.088.519.149.759.249a4.847,4.847,0,0,0-1.208-.768.991.991,0,0,1-.415-.495c-.082-.189-.035-.406-.124-.592a2.386,2.386,0,0,1-.281-.506,2.926,2.926,0,0,1-.027-1.067,7.12,7.12,0,0,1,.442-1.306,3.739,3.739,0,0,1,.543-.713l-.151-.04m-1.228.773a1.546,1.546,0,0,0-.247.889.463.463,0,0,0,.118-.208,3.614,3.614,0,0,1,.433-1,1.118,1.118,0,0,0-.3.32m-.537,4c.176.45.63.684,1,.954a.654.654,0,0,0-.4-.532.99.99,0,0,1-.431-.436,2.258,2.258,0,0,1-.328-.836A2.51,2.51,0,0,0,39.649,30.238Z" transform="translate(-6.447 -0.34)"/><path class="a" d="M574.918,166.32a1.7,1.7,0,0,1,.16.161c-.041.043-.079.086-.119.13a.346.346,0,0,0-.159-.123C574.84,166.433,574.879,166.376,574.918,166.32Z" transform="translate(-543.983 -157.418)"/><path class="a" d="M377.08,278.83C377.234,278.751,377.083,279.008,377.08,278.83Z" transform="translate(-356.868 -263.879)"/><path class="a" d="M433.48,508c.215,0,.43,0,.645,0v.161h-.456c0,.138,0,.277,0,.416h.429c0,.04,0,.121,0,.161h-.428v.469c.159,0,.318,0,.477,0,0,.041.006.123.008.164h-.673C433.48,508.908,433.482,508.452,433.48,508Z" transform="translate(-410.243 -480.768)"/><path class="a" d="M452.738,507.79a.516.516,0,0,1,.552-.08c0,.043.009.131.012.174-.112-.025-.238-.089-.348-.028a.184.184,0,0,0-.046.3c.116.1.273.156.373.279a.393.393,0,0,1-.162.609.526.526,0,0,1-.451-.052c0-.044-.006-.133-.009-.177.108.036.216.117.335.086a.215.215,0,0,0,.14-.327c-.125-.16-.371-.2-.452-.4A.4.4,0,0,1,452.738,507.79Z" transform="translate(-428.394 -480.458)"/><path class="a" d="M471.24,508h.805v.161h-.308v1.207h-.188v-1.207h-.309Z" transform="translate(-445.978 -480.77)"/><path class="a" d="M671.62,508.266c.093-.09.19-.176.283-.266h.166c0,.457.005.915,0,1.372l-.17-.008c0-.382,0-.764,0-1.146q-.084.093-.164.188Q671.673,508.336,671.62,508.266Z" transform="translate(-635.61 -480.772)"/><path class="a" d="M691.862,508.548a.47.47,0,0,1,.006-.871.4.4,0,0,1,.381.108.945.945,0,0,1,.123.6.736.736,0,0,1-.23.6.646.646,0,0,1-.509.045c0-.045,0-.136,0-.181a.387.387,0,0,0,.378.008c.139-.093.158-.275.194-.423a.422.422,0,0,1-.349.111m.012-.7c-.185.134-.152.52.1.555C692.294,508.357,692.207,507.7,691.873,507.85Z" transform="translate(-654.492 -480.459)"/><path class="a" d="M712.536,507.883a.38.38,0,0,1,.7-.016,1.357,1.357,0,0,1-.017.92.48.48,0,0,1-.581.24c-.106,0-.064-.125-.078-.192.123.04.273.092.388,0,.156-.1.136-.309.218-.454-.1.054-.178.172-.312.153-.317-.008-.424-.406-.315-.654m.261-.055a.34.34,0,0,0,.05.548C713.218,508.423,713.162,507.67,712.8,507.829Z" transform="translate(-674.294 -480.438)"/><path class="a" d="M733.593,507.721a.719.719,0,0,1,.558.021.349.349,0,0,1-.074.592.386.386,0,0,1,.02.68.788.788,0,0,1-.548.014c0-.047.01-.141.014-.187a.5.5,0,0,0,.361.055.252.252,0,0,0,.116-.4c-.087-.091-.223-.066-.334-.074,0-.038,0-.114,0-.152.12-.007.274.005.35-.11a.212.212,0,0,0-.112-.322.482.482,0,0,0-.345.066C733.6,507.846,733.6,507.783,733.593,507.721Z" transform="translate(-694.219 -480.465)"/><path class="a" d="M488.99,528.99h.2c0,.079,0,.159,0,.24l-.2,0C488.99,529.152,488.99,529.07,488.99,528.99Z" transform="translate(-462.776 -500.637)"/><path class="a" d="M1.558,643.515a2.615,2.615,0,0,1,1.738.09c0,.2,0,.395,0,.593a2.111,2.111,0,0,0-1.362-.248,1.374,1.374,0,0,0-.966.879,2.669,2.669,0,0,0-.08,1.393,1.64,1.64,0,0,0,.586,1.053,1.426,1.426,0,0,0,1.35.124c0-.47,0-.941,0-1.412H2.077v-.509h1.3v2.308a2.824,2.824,0,0,1-1.792.138,1.779,1.779,0,0,1-1.131-1.031,3.168,3.168,0,0,1-.105-2.063A1.918,1.918,0,0,1,1.558,643.515Z" transform="translate(-0.225 -608.917)"/><path class="a" d="M86.46,644.244c.387-.006.773,0,1.16,0a1.377,1.377,0,0,1,.923.282,1.257,1.257,0,0,1,.3,1.319,1.061,1.061,0,0,1-.811.661.557.557,0,0,1,.447.357c.231.63.445,1.267.669,1.9h-.631c-.181-.524-.354-1.051-.536-1.574a.655.655,0,0,0-.333-.406,1.556,1.556,0,0,0-.612-.055c.006.678,0,1.356,0,2.035h-.577c0-1.505,0-3.01,0-4.516m.579.48c0,.506,0,1.011,0,1.517a2.2,2.2,0,0,0,.842-.081.783.783,0,0,0,.128-1.305A1.853,1.853,0,0,0,87.039,644.724Z" transform="translate(-81.835 -609.706)"/><path class="a" d="M158,644.24h2.1v.51h-1.529v1.42h1.461q0,.248,0,.5c-.488,0-.975,0-1.462,0q0,.79,0,1.581h1.61q0,.253,0,.508c-.728,0-1.457,0-2.186,0Q158,646.5,158,644.24Z" transform="translate(-149.536 -609.705)"/><path class="a" d="M222.5,644.24h2.117q0,.255,0,.51h-1.527q0,.71,0,1.421c.483,0,.965,0,1.449,0,0,.165,0,.329,0,.495h-1.448v1.582H224.7v.51h-2.2Q222.5,646.5,222.5,644.24Z" transform="translate(-210.575 -609.705)"/><path class="a" d="M287.24,644.243c.24,0,.481,0,.721,0,.5,1.1,1,2.188,1.5,3.282a2.105,2.105,0,0,0,.188.371c.017-1.218,0-2.436.008-3.654h.563c0,1.507,0,3.013,0,4.52-.24,0-.48,0-.72,0-.565-1.212-1.106-2.436-1.685-3.641-.018,1.215,0,2.43-.01,3.645q-.279,0-.558,0C287.236,647.256,287.241,645.749,287.24,644.243Z" transform="translate(-271.845 -609.708)"/><path class="a" d="M394.243,644.246h2.641v.509c-.345,0-.69,0-1.035,0,0,1.336,0,2.671,0,4.007h-.577q0-2,0-4.009h-1.032Q394.242,644.5,394.243,644.246Z" transform="translate(-373.11 -609.711)"/><path class="a" d="M463.75,644.24h1.14a1.441,1.441,0,0,1,.882.237,1.237,1.237,0,0,1,.345,1.406,1.068,1.068,0,0,1-.8.62.678.678,0,0,1,.531.579c.192.561.394,1.117.585,1.678-.21,0-.42,0-.631,0-.168-.5-.336-1-.507-1.5a.779.779,0,0,0-.3-.455,1.406,1.406,0,0,0-.667-.085q0,1.019,0,2.038h-.577V644.24m.574.487c.006.5,0,1.007,0,1.51a2,2,0,0,0,.873-.092.8.8,0,0,0,.182-1.23A1.531,1.531,0,0,0,464.324,644.727Z" transform="translate(-438.889 -609.705)"/><path class="a" d="M535.2,644.234c.7,0,1.405-.005,2.108,0,0,.169,0,.338,0,.508-.509,0-1.018,0-1.527,0v1.421h1.461c0,.165,0,.33,0,.5-.487,0-.974,0-1.462,0v1.582h1.609v.509c-.729,0-1.459,0-2.188,0C535.206,647.245,535.2,645.74,535.2,644.234Z" transform="translate(-506.507 -609.699)"/><path class="a" d="M600,644.24h2.1v.51h-1.529v1.421h1.461c0,.165,0,.331,0,.5h-1.461q0,.791,0,1.582h1.609c0,.171,0,.342,0,.513-.727-.009-1.454,0-2.181,0Q600,646.5,600,644.24Z" transform="translate(-567.829 -609.705)"/><path class="a" d="M702.5,644.193c.237,0,.474,0,.712,0,.572,1.231,1.12,2.474,1.7,3.7.006-1.234,0-2.468,0-3.7.182,0,.364,0,.547,0,0,1.507,0,3.014,0,4.521-.234,0-.469,0-.7,0-.579-1.222-1.122-2.462-1.707-3.681q0,1.839,0,3.678h-.55Q702.5,646.453,702.5,644.193Z" transform="translate(-664.83 -609.658)"/><path class="a" d="M785.235,644.24h.576q0,1.5,0,2.992a1.313,1.313,0,0,0,.279.85.758.758,0,0,0,1.06.058,1.28,1.28,0,0,0,.338-.962q0-1.468,0-2.937h.576q0,1.549,0,3.1a1.528,1.528,0,0,1-.413,1.091,1.368,1.368,0,0,1-1.037.371,1.319,1.319,0,0,1-1.1-.525,1.672,1.672,0,0,1-.278-.99Q785.236,645.763,785.235,644.24Z" transform="translate(-743.131 -609.705)"/><path class="a" d="M865.494,644.24c.4,0,.8,0,1.208,0a1.321,1.321,0,0,1,.845.262,1.245,1.245,0,0,1,.33,1.323,1.043,1.043,0,0,1-.817.674.637.637,0,0,1,.347.186,1.547,1.547,0,0,1,.2.445c.189.543.38,1.086.569,1.63-.21,0-.42,0-.629,0-.176-.507-.345-1.017-.517-1.525a.741.741,0,0,0-.321-.443,1.437,1.437,0,0,0-.64-.068c.006.678,0,1.356,0,2.035h-.577q0-2.26,0-4.519m.576.483c0,.5,0,1.009,0,1.513a2.089,2.089,0,0,0,.848-.079.78.78,0,0,0,.114-1.307A1.836,1.836,0,0,0,866.07,644.723Z" transform="translate(-819.086 -609.705)"/><path class="a" d="M933.37,643.618a1.928,1.928,0,0,1,1.554-.03c0,.189,0,.379,0,.568a1.358,1.358,0,0,0-1.068-.159.647.647,0,0,0-.277.984c.339.379.864.518,1.208.893a1.3,1.3,0,0,1-.333,2.052,2.134,2.134,0,0,1-1.582-.069c0-.2,0-.408,0-.612a1.373,1.373,0,0,0,1.277.206.73.73,0,0,0,.2-1.14c-.326-.332-.78-.493-1.118-.811A1.2,1.2,0,0,1,933.37,643.618Z" transform="translate(-882.817 -608.947)"/><path class="a" d="M999.24,644.24h2.105c0,.169,0,.338,0,.508-.51,0-1.02,0-1.53,0v1.421h1.461c0,.165,0,.33,0,.5-.488,0-.975,0-1.462,0v1.582h1.622q0,.254,0,.51c-.732,0-1.464,0-2.2,0C999.236,647.254,999.241,645.747,999.24,644.24Z" transform="translate(-945.658 -609.705)"/><path class="a" d="M1064,644.24c.394,0,.788,0,1.182,0a1.418,1.418,0,0,1,.825.221,1.234,1.234,0,0,1,.342,1.466,1.079,1.079,0,0,1-.784.579.561.561,0,0,1,.477.409c.216.615.434,1.228.645,1.844h-.629c-.176-.521-.352-1.043-.531-1.563a.661.661,0,0,0-.3-.4,1.456,1.456,0,0,0-.648-.074c0,.68,0,1.359,0,2.039-.192,0-.384,0-.575,0q0-2.26,0-4.519m.577.483q0,.757,0,1.515a2.081,2.081,0,0,0,.869-.086.791.791,0,0,0,.15-1.268A1.693,1.693,0,0,0,1064.573,644.723Z" transform="translate(-1006.942 -609.705)"/><path class="a" d="M1121.37,644.105h.663q.5.988.99,1.977c.3-.59.6-1.185.9-1.778.047-.072.047-.216.163-.206.2,0,.394.006.592,0v.019l-.046.058c-.441.847-.887,1.694-1.313,2.55-.021.63,0,1.263-.009,1.894h-.577c-.007-.627.013-1.255-.01-1.881C1122.286,645.857,1121.817,644.986,1121.37,644.105Z" transform="translate(-1061.239 -609.57)"/><path class="a" d="M653.414,788.718a.342.342,0,1,1-.041.619A.349.349,0,0,1,653.414,788.718Z" transform="translate(-618.182 -746.411)"/><path class="a" d="M910.472,788.719a.344.344,0,1,1-.007.633A.346.346,0,0,1,910.472,788.719Z" transform="translate(-861.456 -746.411)"/><path class="a" d="M728.994,797.424c.188-.016.375-.034.564-.044-.007,1.3,0,2.595,0,3.892-.189,0-.377,0-.565,0C728.992,799.991,728.986,798.708,728.994,797.424Z" transform="translate(-689.903 -754.632)"/><path class="a" d="M200.986,797.4c.182-.013.364-.031.546-.043,0,1.3,0,2.6,0,3.9h-.55C200.985,799.972,200.975,798.687,200.986,797.4Z" transform="translate(-190.213 -754.613)"/><path class="a" d="M227.762,797.323c.188-.019.376-.033.564-.053,0,1.147,0,2.295,0,3.441-.156.156-.324.3-.476.46-3.01,0-6.02,0-9.031,0a1.254,1.254,0,0,1-.3.953,1.487,1.487,0,0,1-.995.387c-.145-.18-.3-.354-.44-.535a1.611,1.611,0,0,0,.94-.239.607.607,0,0,0,.263-.518q0-1.351,0-2.7c.178-.017.357-.035.535-.049,0,.721,0,1.443,0,2.164h.577c0-.7,0-1.41,0-2.115.189-.02.378-.035.566-.056,0,.281,0,.562,0,.843a2.168,2.168,0,0,1,.981-.746,1.747,1.747,0,0,1,1.59.252,2.024,2.024,0,0,1,.776,1.82c.766,0,1.533,0,2.3,0a7.172,7.172,0,0,1-1.758-1.865c.144-.133.291-.262.439-.39a6.058,6.058,0,0,0,2.448,2.248c.341.016.683,0,1.024.006q0-1.655,0-3.312m-7.807,3.311c.931,0,1.862,0,2.793,0a1.828,1.828,0,0,0-.448-1.249,1.156,1.156,0,0,0-1.037-.314A1.591,1.591,0,0,0,219.955,800.634Z" transform="translate(-205.449 -754.528)"/><path class="a" d="M434.443,797.341c.187-.019.375-.032.563-.051v3.9c-.189,0-.378,0-.566,0C434.447,799.9,434.441,798.622,434.443,797.341Z" transform="translate(-411.151 -754.547)"/><path class="a" d="M529.34,797.4c.182-.014.364-.031.546-.043,0,1.142,0,2.285,0,3.427a4.325,4.325,0,0,1-.491.466c-2.872.01-5.745,0-8.617.006a1.246,1.246,0,0,1-.336.986,1.532,1.532,0,0,1-.962.354c-.147-.179-.3-.353-.442-.535a1.642,1.642,0,0,0,.941-.239.6.6,0,0,0,.262-.514q0-1.353,0-2.705c.178-.018.357-.036.535-.05,0,.721,0,1.443,0,2.164H523.1a7.256,7.256,0,0,1-1.764-1.865c.146-.131.294-.258.439-.39a6.04,6.04,0,0,0,2.462,2.252c.247.01.5,0,.743,0,0-.633,0-1.266,0-1.9.188-.015.375-.033.564-.047q0,.973,0,1.947h.751c0-.669,0-1.339,0-2.008.186-.015.372-.03.558-.05.014.685,0,1.372.006,2.058h.778c0-.7,0-1.409,0-2.114.184-.019.368-.038.552-.053,0,.722,0,1.445,0,2.167h1.153C529.339,799.614,529.329,798.509,529.34,797.4Z" transform="translate(-491.214 -754.613)"/><path class="a" d="M775.809,797.342c.188-.02.375-.035.564-.052v3.363h.979c0-.705,0-1.41,0-2.115l.564-.054q0,1.085,0,2.168h1.14c0-.635-.005-1.27,0-1.9.182-.011.364-.027.546-.043q0,.973,0,1.947h.764q0-1,0-2.008c.181-.016.363-.031.544-.051.016.686,0,1.372.006,2.058h.778c0-.7,0-1.41,0-2.115.184-.019.368-.036.552-.053,0,.722,0,1.445,0,2.167.257-.006.516.011.772-.008.175-.034.247-.221.3-.369a6.008,6.008,0,0,1,.542-1.412.983.983,0,0,1,.878-.452,1.027,1.027,0,0,1,.863.459,2.328,2.328,0,0,1,.291,1.866c-.18.16-.352.33-.534.487-.631-.094-1.256-.242-1.885-.358a.622.622,0,0,1-.558.323h-6.544c0,.226,0,.453,0,.679-.159.154-.31.317-.478.461-.681,0-1.361,0-2.041,0a.863.863,0,0,1-.773-.418,1.4,1.4,0,0,1-.139-.774q0-.495,0-.99l.537-.056q0,.576,0,1.153a.534.534,0,0,0,.158.422.617.617,0,0,0,.433.128h1.741q0-2.225,0-4.451m8.428,1.855a2.884,2.884,0,0,0-.456,1.109c.561.115,1.123.225,1.684.338a1.811,1.811,0,0,0-.178-1.3.838.838,0,0,0-.5-.411A.6.6,0,0,0,784.237,799.2Z" transform="translate(-731.493 -754.547)"/><path class="a" d="M290.251,800.693a.343.343,0,1,1,.041.623A.346.346,0,0,1,290.251,800.693Z" transform="translate(-274.531 -757.73)"/><path class="a" d="M344.91,800.433a.342.342,0,1,1,.019.622A.349.349,0,0,1,344.91,800.433Z" transform="translate(-326.251 -757.486)"/><path class="a" d="M646.625,800.449a.34.34,0,0,1,.525.294.337.337,0,0,1-.534.272A.343.343,0,0,1,646.625,800.449Z" transform="translate(-611.811 -757.482)"/><path class="a" d="M660.034,800.444a.344.344,0,1,1,.011.613A.347.347,0,0,1,660.034,800.444Z" transform="translate(-624.48 -757.494)"/><path class="a" d="M847.326,800.449a.343.343,0,1,1,0,.6A.352.352,0,0,1,847.326,800.449Z" transform="translate(-801.732 -757.496)"/><path class="a" d="M860.572,800.442a.343.343,0,1,1,.006.6A.354.354,0,0,1,860.572,800.442Z" transform="translate(-814.275 -757.484)"/><path class="a" d="M903.748,800.44a.337.337,0,0,1,.482.268.341.341,0,0,1-.513.336A.347.347,0,0,1,903.748,800.44Z" transform="translate(-855.107 -757.495)"/><path class="a" d="M917.083,800.431a.344.344,0,0,1,.5.312.34.34,0,0,1-.518.286A.35.35,0,0,1,917.083,800.431Z" transform="translate(-867.742 -757.482)"/><path class="a" d="M480.163,819.461a1.723,1.723,0,0,1,1.445-.221q0,1.1,0,2.2c-.155.153-.309.308-.463.462a1.757,1.757,0,0,1-1-.183,1.166,1.166,0,0,1-.621-.949,1.5,1.5,0,0,1,.643-1.308m.081,1.639a.874.874,0,0,0,.828.283c0-.569,0-1.138,0-1.707A.923.923,0,0,0,480.244,821.1Z" transform="translate(-453.812 -775.258)"/><path class="a" d="M146.306,821.966a2.229,2.229,0,0,1,1.458-.516,5.579,5.579,0,0,1,.017.576,1.828,1.828,0,0,0-1.158.307.444.444,0,0,0,.023.633,1.936,1.936,0,0,0,1.6.495q-.061.278-.131.553c-.8.019-1.608.059-2.412.091.058-.168.114-.337.169-.506.217-.027.435-.044.652-.069a1.314,1.314,0,0,1-.471-.7A.9.9,0,0,1,146.306,821.966Z" transform="translate(-137.898 -777.411)"/><path class="a" d="M579.234,882.445a.343.343,0,1,1,0,.6A.344.344,0,0,1,579.234,882.445Z" transform="translate(-548.017 -835.093)"/></g><g transform="translate(26.028 9.452)"><path class="b" d="M605.21,170.24Z" transform="translate(-598.565 -170.24)"/><path class="b" d="M481.31,173.21Z" transform="translate(-481.31 -173.051)"/></g></g></svg>