<svg xmlns="http://www.w3.org/2000/svg" width="55.42" height="33.483" viewBox="0 0 55.42 33.483"><defs><style>.a{fill:#bdc6cf;}.a,.b{opacity:0.702;}.b{fill:#191919;}.c{fill:#fff;}</style></defs><g transform="translate(0 0)"><path class="a" d="M260.6,4826.982a16.571,16.571,0,0,0-11.215,4.34,16.688,16.688,0,0,0,0,24.8,16.73,16.73,0,1,0,11.215-29.141" transform="translate(-221.917 -4826.982)"/><path class="b" d="M258.251,4841.955c-.058-.6-.173-1.179-.289-1.782H247.73a17.345,17.345,0,0,1,.462-1.753h9.278a19.127,19.127,0,0,0-.694-1.783h-7.861c.289-.6.607-1.206.954-1.781h5.925a15.116,15.116,0,0,0-1.272-1.752H251.14a16.717,16.717,0,0,1,1.705-1.782,16.743,16.743,0,1,0,0,24.8h0a16.022,16.022,0,0,0,1.677-1.753H251.14a19.784,19.784,0,0,1-1.272-1.782h5.925a13.275,13.275,0,0,0,.982-1.782h-7.861a18.449,18.449,0,0,1-.723-1.753h9.279a18.1,18.1,0,0,0,.491-1.782,17.58,17.58,0,0,0,.289-1.782,17.4,17.4,0,0,0,.087-1.753c0-.6-.029-1.208-.087-1.783Z" transform="translate(-224.867 -4826.982)"/><path class="c" d="M262.949,4837.854l-.314,1.905a3.321,3.321,0,0,0-1.6-.477c-1.341,0-2.282,1.369-2.282,3.3,0,1.339.628,2.144,1.683,2.144a3.394,3.394,0,0,0,1.512-.447l-.314,1.995a5.76,5.76,0,0,1-1.569.267c-1.94,0-3.139-1.458-3.139-3.81,0-3.125,1.655-5.328,4.023-5.328a3.35,3.35,0,0,1,.828.09l.713.179C262.721,4837.766,262.778,4837.8,262.949,4837.854Zm-5.763,1.309h-.171c-.6,0-.942.3-1.484,1.161l.171-1.1h-1.626l-1.113,7.143h1.8c.656-4.375.827-5.12,1.683-5.12h.114a7.706,7.706,0,0,1,.685-2.055Zm-10.329,7.115a3.589,3.589,0,0,1-1.283.237c-.913,0-1.427-.535-1.427-1.577a5.068,5.068,0,0,1,.057-.625l.114-.715.085-.565.771-4.883h1.769l-.2,1.074h.913l-.228,1.755h-.913l-.485,2.977a1.154,1.154,0,0,0-.029.3c0,.358.171.506.6.506a1.16,1.16,0,0,0,.485-.059Zm-6.876-4.793a2.085,2.085,0,0,0,1.341,1.995c.742.357.856.476.856.773,0,.448-.314.655-1.027.655a5.1,5.1,0,0,1-1.6-.268l-.257,1.638.086.029.314.06a1.8,1.8,0,0,0,.485.061,6.427,6.427,0,0,0,.97.059c1.883,0,2.768-.744,2.768-2.382a1.983,1.983,0,0,0-1.255-1.993c-.77-.357-.856-.446-.856-.774,0-.388.314-.566.885-.566a10.5,10.5,0,0,1,1.284.09l.257-1.637a9.749,9.749,0,0,0-1.569-.149C240.666,4839.075,239.953,4840.176,239.981,4841.485Zm36.634,4.882h-1.683l.086-.686a2.1,2.1,0,0,1-1.655.774c-1.313,0-2.169-1.159-2.169-2.946,0-2.381,1.341-4.405,2.91-4.405a2.028,2.028,0,0,1,1.712.982l.4-2.5h1.769Zm-2.625-1.667c.828,0,1.4-1.014,1.4-2.411,0-.923-.314-1.4-.941-1.4-.8,0-1.4.982-1.4,2.381Q273.049,4844.7,273.991,4844.7Zm-21.655,1.516a5.565,5.565,0,0,1-1.855.3c-2,0-3.024-1.1-3.024-3.214,0-2.439,1.312-4.256,3.11-4.256a2.346,2.346,0,0,1,2.425,2.589,7.486,7.486,0,0,1-.228,1.785h-3.538a.61.61,0,0,0-.029.209c0,.834.542,1.25,1.569,1.25a3.791,3.791,0,0,0,1.855-.447Zm-1-4.256v-.356a.808.808,0,0,0-.856-.923c-.571,0-.97.447-1.141,1.279Zm-18.174,4.406h-1.769l1.027-6.757-2.311,6.757h-1.227l-.143-6.7-1.084,6.7H226l1.4-8.781h2.568l.085,5.447,1.712-5.447h2.8Zm4.422-3.185c-.171,0-.257-.03-.4-.03-1,0-1.512.387-1.512,1.1,0,.448.228.715.628.715C237.042,4844.968,237.556,4844.253,237.585,4843.183Zm1.312,3.185h-1.484l.029-.745a2.187,2.187,0,0,1-1.883.864c-.97,0-1.626-.774-1.626-1.936,0-1.756,1.141-2.769,3.138-2.769.2,0,.457.031.742.062a1.573,1.573,0,0,0,.057-.448c0-.475-.314-.654-1.141-.654a5.629,5.629,0,0,0-1.483.179l-.257.089-.171.029.257-1.607a6.884,6.884,0,0,1,2.14-.357c1.54,0,2.368.714,2.368,2.083a9.4,9.4,0,0,1-.143,1.429l-.4,2.531-.057.446-.029.356-.028.269Zm26.934-3.185c-.2,0-.285-.03-.4-.03-1.027,0-1.54.387-1.54,1.1a.637.637,0,0,0,.656.715C265.26,4844.968,265.8,4844.253,265.831,4843.183Zm1.312,3.185h-1.483l.028-.745a2.186,2.186,0,0,1-1.883.864c-.97,0-1.626-.774-1.626-1.936,0-1.756,1.141-2.769,3.138-2.769a6.621,6.621,0,0,1,.714.062,1.981,1.981,0,0,0,.085-.448c0-.475-.314-.654-1.141-.654a5.859,5.859,0,0,0-1.512.179l-.228.089-.171.029.257-1.607a6.885,6.885,0,0,1,2.14-.357c1.541,0,2.34.714,2.34,2.083a6.648,6.648,0,0,1-.143,1.429l-.371,2.531-.057.446-.057.356-.029.269v.179Zm4.793-7.2h-.171c-.6,0-.941.3-1.484,1.161l.171-1.1h-1.626l-1.084,7.143h1.769c.656-4.375.827-5.12,1.683-5.12h.114a7.711,7.711,0,0,1,.685-2.055Z" transform="translate(-224.691 -4825.364)"/></g></svg>