<svg xmlns="http://www.w3.org/2000/svg" width="38.228" height="23.856" viewBox="0 0 38.228 23.856"><defs><style>.a{fill:#eb001b;}.b{fill:#ff5e00;}.c{fill:#f79e1c;}</style></defs><path class="a" d="M14.635,11.928a11.951,11.951,0,0,1,4.48-9.352A11.662,11.662,0,0,0,11.8,0,11.863,11.863,0,0,0,0,11.928,11.863,11.863,0,0,0,11.8,23.856a11.662,11.662,0,0,0,7.317-2.575,11.951,11.951,0,0,1-4.48-9.352" transform="translate(0 0)"/><path class="b" d="M0,9.352A11.951,11.951,0,0,0,4.48,18.7,11.952,11.952,0,0,0,8.959,9.352,11.952,11.952,0,0,0,4.48,0,11.951,11.951,0,0,0,0,9.352" transform="translate(14.635 2.575)"/><path class="c" d="M7.317,0A11.661,11.661,0,0,0,0,2.575a11.952,11.952,0,0,1,4.479,9.352A11.952,11.952,0,0,1,0,21.28a11.661,11.661,0,0,0,7.317,2.575,11.863,11.863,0,0,0,11.8-11.928A11.863,11.863,0,0,0,7.317,0" transform="translate(19.114 0)"/></svg>