<svg xmlns="http://www.w3.org/2000/svg" width="173.068" height="117.56" viewBox="0 0 173.068 117.56"><defs><style>.a{fill:#707070;}</style></defs><g transform="translate(-25.515 -99.451)"><path class="a" d="M35.967,99.856a13.855,13.855,0,0,1,2.884-.4q70.783.011,141.566,0c3.12.079,6.387-.338,9.35.9A13.747,13.747,0,0,1,198.58,112.8q0,45.262,0,90.521A13.682,13.682,0,0,1,184.9,217.011q-72.845-.017-145.689-.008a13.668,13.668,0,0,1-11.52-6.335,14.651,14.651,0,0,1-2.152-8.9q.017-42.418.008-84.832c.056-2.4-.229-4.851.432-7.2a13.742,13.742,0,0,1,9.988-9.883m-3.361,25.162c.015,7.232-.045,14.472.03,21.7q72.569-.073,145.137-.019c4-.049,8.043.09,12.023-.068.011-7.2,0-14.4,0-21.6q-78.6-.062-157.194-.015m121.071,63.955A9.9,9.9,0,0,0,166.1,200.752a11.946,11.946,0,0,0,4.5-2.752,9.836,9.836,0,0,0,16.466-3.368,9.588,9.588,0,0,0-1.307-9.072,9.887,9.887,0,0,0-8.734-4.052,10.588,10.588,0,0,0-6.368,3.042c-.5-.041-.728-.6-1.123-.849a9.89,9.89,0,0,0-6.77-2.249A10.028,10.028,0,0,0,153.678,188.973Z"/></g></svg>