<svg xmlns="http://www.w3.org/2000/svg" width="130.582" height="175" viewBox="0 0 130.582 175"><defs><style>.a{fill:#707070;}</style></defs><path class="a" d="M.987,0H131.554V137.758c-.031,12.387.065,24.777-.048,37.16q-10.808-10.869-21.666-21.684c-7.284,7.229-14.523,14.513-21.786,21.766h0c-7.267-7.246-14.5-14.526-21.779-21.755Q55.376,164.114,44.5,175h-.007Q33.6,164.121,22.725,153.234,11.846,164.042,1.032,174.921c-.1-8.976-.014-17.955-.044-26.93V0M22.715,43.565q0,10.879,0,21.766,43.553.01,87.1,0,.015-10.885,0-21.766-43.553-.01-87.11,0m.014,43.565c-.034,7.253-.007,14.506-.014,21.759q43.553.01,87.11-.007.005-10.879,0-21.755Q66.279,87.117,22.729,87.131Z" transform="translate(-0.981)"/></svg>