<svg xmlns="http://www.w3.org/2000/svg" width="82.642" height="20.185" viewBox="0 0 82.642 20.185"><defs><style>.a{fill:#191919;}.b,.c{fill:#bdc6cf;}.c{stroke:#fff;stroke-width:0.5px;}</style></defs><path class="a" d="M134.862,28.388c-.243,1.648-1.5,1.648-2.715,1.648h-.693l.487-3.071a.381.381,0,0,1,.374-.318h.318c.824,0,1.61,0,2,.468A1.5,1.5,0,0,1,134.862,28.388Zm-.524-4.288H129.77a.643.643,0,0,0-.637.543l-1.854,11.721a.379.379,0,0,0,.374.431h2.191a.643.643,0,0,0,.637-.543l.506-3.164a.639.639,0,0,1,.618-.543h1.442c3.015,0,4.756-1.46,5.205-4.344a3.594,3.594,0,0,0-.58-2.958A4.388,4.388,0,0,0,134.338,24.1Z" transform="translate(-103.436 -19.588)"/><path class="a" d="M190.052,50.056a2.435,2.435,0,0,1-2.472,2.1,1.864,1.864,0,0,1-1.479-.6,1.839,1.839,0,0,1-.337-1.535,2.462,2.462,0,0,1,2.453-2.116,1.85,1.85,0,0,1,1.46.6A1.926,1.926,0,0,1,190.052,50.056Zm3.052-4.25h-2.191a.367.367,0,0,0-.374.318l-.094.618-.15-.225a3.1,3.1,0,0,0-2.584-.917,5.032,5.032,0,0,0-4.887,4.4,4.167,4.167,0,0,0,.824,3.37,3.433,3.433,0,0,0,2.752,1.1,4.2,4.2,0,0,0,3.033-1.255l-.094.6a.4.4,0,0,0,.374.449h1.966a.643.643,0,0,0,.637-.543l1.18-7.49A.4.4,0,0,0,193.1,45.806Z" transform="translate(-148.532 -37.062)"/><path class="a" d="M255.961,46.7H253.77a.648.648,0,0,0-.524.281l-3.033,4.456-1.292-4.288a.646.646,0,0,0-.618-.449H246.15a.376.376,0,0,0-.356.506l2.415,7.115-2.284,3.221a.376.376,0,0,0,.318.6h2.191a.6.6,0,0,0,.524-.281l7.321-10.56A.381.381,0,0,0,255.961,46.7Z" transform="translate(-199.743 -37.956)"/><path class="a" d="M309.044,28.388c-.243,1.648-1.5,1.648-2.715,1.648h-.693l.487-3.071a.381.381,0,0,1,.374-.318h.318c.824,0,1.61,0,2,.468A1.5,1.5,0,0,1,309.044,28.388Zm-.524-4.288h-4.569a.611.611,0,0,0-.618.543l-1.854,11.721a.379.379,0,0,0,.374.431h2.34a.413.413,0,0,0,.431-.374l.524-3.314a.639.639,0,0,1,.618-.543h1.442c3.015,0,4.756-1.46,5.205-4.344a3.594,3.594,0,0,0-.58-2.958A4.194,4.194,0,0,0,308.519,24.1Z" transform="translate(-245.018 -19.588)"/><path class="a" d="M364.152,50.056a2.435,2.435,0,0,1-2.472,2.1,1.864,1.864,0,0,1-1.479-.6,1.839,1.839,0,0,1-.337-1.535,2.46,2.46,0,0,1,2.453-2.1,1.74,1.74,0,0,1,1.835,2.135Zm3.052-4.25h-2.191a.367.367,0,0,0-.374.318l-.094.618-.15-.225a3.1,3.1,0,0,0-2.584-.917,5.032,5.032,0,0,0-4.887,4.4,4.167,4.167,0,0,0,.824,3.37,3.433,3.433,0,0,0,2.752,1.1,4.2,4.2,0,0,0,3.033-1.255l-.094.6a.4.4,0,0,0,.374.449h1.966a.611.611,0,0,0,.618-.543l1.18-7.49A.369.369,0,0,0,367.2,45.806Z" transform="translate(-290.034 -37.062)"/><path class="a" d="M417.752,24.337l-1.872,11.946a.379.379,0,0,0,.374.431h1.891a.643.643,0,0,0,.637-.543l1.854-11.721a.4.4,0,0,0-.374-.449h-2.116A.4.4,0,0,0,417.752,24.337Z" transform="translate(-337.998 -19.506)"/><path class="b" d="M33.434,27.4c-.019.112-.037.243-.056.374-.843,4.232-3.67,5.692-7.284,5.692H24.259a.887.887,0,0,0-.88.749l-.936,5.973-.262,1.685a.473.473,0,0,0,.468.543h3.239a.769.769,0,0,0,.768-.655l.037-.169.618-3.895.037-.206a.783.783,0,0,1,.768-.655H28.6c3.164,0,5.636-1.292,6.366-5a4.26,4.26,0,0,0-.655-3.764A2.965,2.965,0,0,0,33.434,27.4Z" transform="translate(-18.017 -22.27)"/><path class="c" d="M37.794,24.281a2.993,2.993,0,0,0-.393-.094,3.175,3.175,0,0,0-.412-.075A10.948,10.948,0,0,0,35.359,24H30.454a.686.686,0,0,0-.337.075.772.772,0,0,0-.431.58l-1.049,6.628-.037.187a.9.9,0,0,1,.88-.749h1.835c3.614,0,6.441-1.46,7.265-5.711.019-.131.037-.243.056-.374a3.638,3.638,0,0,0-.674-.281A.665.665,0,0,0,37.794,24.281Z" transform="translate(-23.237 -19.506)"/><path class="a" d="M6.389,5.149a.772.772,0,0,1,.431-.58.734.734,0,0,1,.337-.075h4.906a11.131,11.131,0,0,1,1.629.112c.15.019.281.056.412.075.131.037.262.056.393.094.056.019.131.037.187.056a3.637,3.637,0,0,1,.674.281,4,4,0,0,0-.843-3.6C13.579.449,11.894,0,9.741,0H3.468a.873.873,0,0,0-.88.749L-.033,17.32a.538.538,0,0,0,.524.618H4.367l.974-6.16Z" transform="translate(0.041 0)"/></svg>