<svg xmlns="http://www.w3.org/2000/svg" width="46.57" height="15.496" viewBox="0 0 46.57 15.496"><defs><style>.a{fill:#2566af;}.b{fill:#e6a540;}</style></defs><g transform="translate(0 0)"><path class="a" d="M22.53,14.651l.564-3.361c1.557,1.281,6.27,1.644,6.27-.387s-5.257-2.08-5.257-5.947C24.108.845,28.586,0,30.473,0A10.712,10.712,0,0,1,33.89.654l-.543,3.213c-1.625-.919-5.327-1.137-5.327.557s5.3,2.054,5.3,5.947c0,3.747-3.913,5.125-6.506,5.125A10.42,10.42,0,0,1,22.53,14.651Zm20.55.587-.446-2.224H37.8l-.792,2.224H33.05L38.718,1.383A1.752,1.752,0,0,1,40.471.267h3.055l3.043,14.97Zm-26.692,0L18.763.267h3.8l-2.375,14.97Zm-9.111,0L3.974,2.231A14,14,0,0,0,0,.522L.07.267H6.059a1.641,1.641,0,0,1,1.8,1.348L9.141,8.347h0l.429,2.217L13.191.267h4.09l-6.045,14.97Z" transform="translate(0 0)"/><path class="b" d="M9.14,8.08,7.862,1.348A1.642,1.642,0,0,0,6.059,0H.07L0,.253a14.56,14.56,0,0,1,5.64,2.9A11.691,11.691,0,0,1,9.14,8.08Z" transform="translate(0 0.267)"/></g></svg>