<svg xmlns="http://www.w3.org/2000/svg" xmlns:xlink="http://www.w3.org/1999/xlink" width="500" height="500" viewBox="0 0 500 500">
  <defs>
    <clipPath id="clip-_2Wins_Active">
      <rect width="500" height="500"/>
    </clipPath>
  </defs>
  <g id="_2Wins_Active" data-name="2Wins_Active" clip-path="url(#clip-_2Wins_Active)">
    <rect width="500" height="500" fill="#fff"/>
    <g id="Group_5877" data-name="Group 5877" transform="translate(69 69)">
      <rect id="Rectangle_1614" data-name="Rectangle 1614" width="363" height="363" rx="9" fill="#d19130"/>
      <text id="Add_Note" data-name="Add Note" transform="translate(170.557 284.135)" fill="#fff" font-size="54" font-family="Roboto-Bold, Roboto" font-weight="700"><tspan x="-117.281" y="0">Our Picks</tspan></text>
      <g id="_000000ff" data-name="#000000ff" transform="translate(39.703 95.126)">
        <path id="Path_5069" data-name="Path 5069" d="M37.89,0h5.492c10,.625,20.583,3.509,27.54,11.162a18.97,18.97,0,0,1,4.01,19.092C72.591,36.791,67.439,41.792,62.1,46c-14.9,11.493-33.184,17.1-49,27.084,14.1.089,28.192-.036,42.292.08,5.474-.214,11.654-.589,15.886-4.527,4.778-4.911,6.8-11.662,9-17.976,1.375-4.117,3.179-8.832,1.081-13.02-1.3-2.759-4.545-3.268-7.233-3.626l-.009-1.143c8.421.054,16.851-.1,25.272.054.705-.054,1.125.313,1.259,1.081-2.465.393-5.6,0-7.287,2.268-1.8,2.295-.911,5.358-.152,7.867,3.358,10.412,6.8,20.789,10.162,31.192,3.956-8.055,7.108-16.494,10.761-24.691,1.607-4.126,3.84-8.564,2.777-13.091-.75-2.858-4.063-3.259-6.5-3.581l.089-1.089q9.5-.013,18.985-.009l.063,1.134c-2.179.491-4.653.9-6.081,2.831-2.411,3.125-3.867,6.84-5.5,10.4q-8.693,20.28-17.262,40.622c-2.438.1-2.643-2.366-3.313-4.108Q90.866,64.8,84.236,45.9c-4.849,14.449-9.412,29-14.368,43.4H0V81.646c2.036-5.715,6.894-9.7,12.109-12.422,12.922-7.912,27.406-13.448,38.872-23.566,5.385-4.778,10.1-10.814,11.627-17.994,1.357-6.269.17-13.332-4.26-18.155-5.3-6.037-13.94-7.983-21.664-7.055-6.608.714-13,5.251-14.7,11.868-1.232,5.019-1.232,10.948,2.116,15.19,1.518,2.018,3.876,3.09,6.108,4.1.1.455.286,1.366.375,1.822-5.751,1.545-12.582.83-16.869-3.652-5.885-5.849-4.59-16.047.67-21.878C20.333,3.4,29.29.527,37.89,0Z" fill="#fff"/>
        <path id="Path_5070" data-name="Path 5070" d="M303.8,26.94c8.126-2.849,18.414,1.8,20.494,10.457V42.71c-2.286,9.3-13.672,13.565-22.048,9.85-5.536-2.179-9.662-8.082-8.8-14.127.7-5.492,5.162-9.939,10.35-11.493m2.125,2.268c-4.938.929-9.564,5.01-9.778,10.26-.393,5.161,3.679,9.618,8.4,11.064,6.876,2.4,16.127-1.6,17.119-9.3C322.718,33.039,313.253,27.19,305.921,29.208Z" transform="translate(-31.389 -2.793)" fill="#fff"/>
        <path id="Path_5071" data-name="Path 5071" d="M264.477,35.836c6.269-2.527,12.609.572,18.511,2.59.884-.822,1.375-2.322,2.715-2.456.429,5.724.25,11.493.384,17.226-.348-.188-1.036-.563-1.384-.75-1.911-4.456-3.063-9.555-6.831-12.913-4.171-3.8-11.413-3.5-15.02.929-3.474,3.777-2.339,10.287,1.831,13.091,6.778,4.67,15.681,6.162,21.164,12.68,5.278,5.947,4.572,15.77-.875,21.36a19.3,19.3,0,0,1-10.359,5.438h-7.189c-4.09-.554-7.769-2.518-11.7-3.581-1.277.679-2.438,1.536-3.67,2.286-.071-5.912-.045-11.832.036-17.744,2.072.17,2.063,2.518,2.759,4,1.8,5.224,4.92,10.85,10.564,12.564a11.519,11.519,0,0,0,10.868-1.741c5.7-4.367,4.938-14.359-1.045-18.128-6.045-4.206-13.8-5.956-18.824-11.555C250.519,51.2,255.422,38.881,264.477,35.836Z" transform="translate(-26.968 -3.733)" fill="#fff"/>
        <path id="Path_5072" data-name="Path 5072" d="M300.1,36.19c2.107.214,4.287.027,6.358.589,3.34.955,3.858,6.456.625,7.858-2.3.5-4.679.241-7.01.259,1.9-2.331,1.634-6.269.027-8.707m2.92.536c.045,2.474-.33,5,.3,7.421,2.206,1.339,4.572-1.411,3.992-3.608C307.535,38.146,305,37,303.017,36.726Z" transform="translate(-32.11 -3.873)" fill="#fff"/>
        <path id="Path_5073" data-name="Path 5073" d="M310.092,36.249c1.375.071,2.76.1,4.143.089a4.716,4.716,0,0,0-1.473,3.929q2.25.013,4.5,0a4.4,4.4,0,0,0-1.634-3.929c1.393.009,2.8-.018,4.2-.1-1.572,2.474-1.7,6.376.054,8.751-1.4-.027-2.813-.027-4.215-.009,1.384-.9,1.625-2.474,1.581-4.01-1.482-.009-2.956-.009-4.429-.009a4,4,0,0,0,1.527,4.054c-1.474-.045-2.938-.071-4.4-.08.286-.33.866-.982,1.152-1.3C310.949,41.16,311.744,38.365,310.092,36.249Z" transform="translate(-33.166 -3.878)" fill="#fff"/>
        <path id="Path_5074" data-name="Path 5074" d="M42.82,36.836q10.06-.067,20.11,0A37.977,37.977,0,0,1,53.679,48.7c-1.929-3.5-2.527-8.733-7.037-9.885C45.392,38.1,42.954,38.792,42.82,36.836Z" transform="translate(-4.582 -3.939)" fill="#fff"/>
        <path id="Path_5075" data-name="Path 5075" d="M147.579,36.684c9.126.018,18.262-.179,27.388.107-.554,2.563-3.742,1.643-5.438,2.956-3.724,1.688-3.045,6.322-3.617,9.68-.161,9.85-.179,19.717.009,29.567.634,3.3-.1,7.983,3.643,9.618,1.688,1.3,4.894.348,5.349,2.929-9.1.223-18.2.062-27.3.089-.205-1.92,1.634-1.786,2.92-2.161a7.111,7.111,0,0,0,5.563-6.046c.643-6.233.438-12.511.482-18.762-.045-6.572.17-13.172-.473-19.726a7.059,7.059,0,0,0-5.349-6.01C149.463,38.452,147.409,38.7,147.579,36.684Z" transform="translate(-15.791 -3.92)" fill="#fff"/>
        <path id="Path_5076" data-name="Path 5076" d="M181.76,36.7c5.162-.071,10.323-.054,15.484-.036,1.366-.321,2.027,1.036,2.822,1.84q15.94,19.369,31.96,38.667c-.054-9.251.045-18.5-.045-27.754-.437-3.2.045-7.456-3.072-9.4-1.768-1.554-5.161-.58-6.01-3.117,6.92-.455,13.895-.277,20.833-.089-.223,1.84-2.25,1.6-3.5,2.125a7.754,7.754,0,0,0-5.608,7.885c-.2,14.949-.027,29.906-.089,44.855-.634-.045-1.893-.143-2.527-.188-13-15.306-25.8-30.781-38.684-46.177.161,11.8-.143,23.593.17,35.38.116,2.983.464,6.876,3.751,8.073,1.545,1.116,4.8.25,4.706,2.867-6.724,0-13.448.063-20.173-.036.116-.366.339-1.116.446-1.482,3.706-.429,7.859-2.661,8.153-6.8,1.125-10.332.241-20.78.536-31.156-.214-4.242.384-9.769-3.822-12.332C185.537,38.253,181.939,39.458,181.76,36.7Z" transform="translate(-19.45 -3.917)" fill="#fff"/>
        <path id="Path_5077" data-name="Path 5077" d="M59.69,60.55c2.6-1.607,5.144-3.3,7.68-5.01,2.509,6.081,5.206,12.073,7.59,18.2A21.583,21.583,0,0,1,66.53,76.6C64.289,71.23,61.976,65.9,59.69,60.55Z" transform="translate(-6.387 -5.943)" fill="#fff"/>
      </g>
    </g>
  </g>
</svg>
