<svg xmlns="http://www.w3.org/2000/svg" xmlns:xlink="http://www.w3.org/1999/xlink" width="500" height="500" viewBox="0 0 500 500">
  <defs>
    <clipPath id="clip-Accessories_Active">
      <rect width="500" height="500"/>
    </clipPath>
  </defs>
  <g id="Accessories_Active" clip-path="url(#clip-Accessories_Active)">
    <rect width="500" height="500" fill="#fff"/>
    <g id="Group_1106" data-name="Group 1106" transform="translate(67.785 71.263)">
      <g id="Group_5868" data-name="Group 5868">
        <rect id="Rectangle_1611" data-name="Rectangle 1611" width="365" height="358" rx="9" transform="translate(0.215 -0.263)" fill="#d19130"/>
        <text id="Add_Note" data-name="Add Note" transform="translate(183.215 289.051)" fill="#fff" font-size="38" font-family="Roboto-Bold, Roboto" font-weight="700"><tspan x="-105.159" y="0">Accessories</tspan></text>
        <g id="_1d1d1bff" data-name="#1d1d1bff" transform="translate(89.215 104.317)">
          <path id="Path_5141" data-name="Path 5141" d="M82.743,134.655a26.436,26.436,0,0,1,10.234-1.725c16.575.02,33.15-.016,49.72.016a5.8,5.8,0,0,1,5.634,5.176c.147,2.787.032,5.582.032,8.373.608.071,1.225.123,1.841.139q25.667-.036,51.331-.012a5.874,5.874,0,0,1,4.465,9.9,6.186,6.186,0,0,1-4.862,1.865q-53.5-.018-107-.008a2.262,2.262,0,0,0-2.258.97,7.376,7.376,0,0,0-.266,2.624c.048,3.356-.036,6.707.048,10.062,7.335.088,14.67,0,22.006.036a9.782,9.782,0,0,1,.378,19.557c-7.458.064-14.921-.052-22.379.052-.087,3.618-.012,7.24-.048,10.862-.028.962.072,2.21,1.125,2.608a20.061,20.061,0,0,0,4.206.183q52.295-.006,104.589,0a5.871,5.871,0,0,1,.378,11.736c-16.038.032-32.076,0-48.118.016a43.453,43.453,0,0,0-5.435.131c0,2.791.119,5.586-.032,8.373a5.845,5.845,0,0,1-6.031,5.184q-25.268,0-50.535,0A26.089,26.089,0,0,1,73,222.494a30.092,30.092,0,0,1-3.916-5.375c-14.44-.079-28.884-.012-43.323-.032a5.879,5.879,0,1,1,.008-11.752c13.478-.06,26.959.084,40.437-.067-.1-5.216.1-10.448-.1-15.657-2.1-2.059-3.976-4.663-3.837-7.756-.147-3.1,1.749-5.689,3.837-7.757.195-5.208-.008-10.436.1-15.656-13.478-.151-26.959-.008-40.437-.068a5.974,5.974,0,0,1-4.842-2.29,5.856,5.856,0,0,1,4.453-9.446c14.567-.056,29.138.04,43.705-.047a26.555,26.555,0,0,1,13.661-11.935M78.91,153.086a14.872,14.872,0,0,0-.99,6.508c.024,4.139-.008,8.278.012,12.416,1.956.1,3.912.092,5.872.016.016-3.487,0-6.973,0-10.46a10.238,10.238,0,0,1,9.963-11.013c14.289-.06,28.581.052,42.87-.052.024-1.956.024-3.908-.028-5.856-14.949.056-29.9,0-44.846.028a14.29,14.29,0,0,0-12.85,8.413m-7.629,26.971c-1.845.644-1.364,3.765.632,3.729,13.653.1,27.309,0,40.966.048a2.449,2.449,0,0,0,2.493-1.062,1.947,1.947,0,0,0-1.725-2.863c-13.525-.063-27.055.008-40.58-.036a6.256,6.256,0,0,0-1.785.183m6.647,11.637c.036,5.061-.072,10.122.056,15.179.489,6.735,6.83,11.959,13.4,12.146,15.072.064,30.144-.02,45.22.044.056-1.952.052-3.9.028-5.852-14.289-.107-28.581,0-42.87-.056a11.01,11.01,0,0,1-6.914-2.918,10.859,10.859,0,0,1-3.033-7.288c-.044-3.753.032-7.51-.016-11.263C81.84,191.607,79.884,191.6,77.928,191.694Z" transform="translate(-19.699 -132.922)" fill="#fff"/>
          <path id="Path_5142" data-name="Path 5142" d="M68.513,241.342a5.877,5.877,0,1,1-4.441,6.85A5.894,5.894,0,0,1,68.513,241.342Z" transform="translate(-46.356 -198.139)" fill="#191919"/>
          <path id="Path_5143" data-name="Path 5143" d="M324.521,241.337a5.875,5.875,0,1,1-4.532,6.119A5.9,5.9,0,0,1,324.521,241.337Z" transform="translate(-200.59 -198.13)" fill="#191919"/>
          <path id="Path_5144" data-name="Path 5144" d="M403.39,241.317a5.874,5.874,0,1,1-4.616,6.15A5.906,5.906,0,0,1,403.39,241.317Z" transform="translate(-248.05 -198.13)" fill="#191919"/>
        </g>
      </g>
    </g>
  </g>
</svg>
