<svg xmlns="http://www.w3.org/2000/svg" xmlns:xlink="http://www.w3.org/1999/xlink" width="500" height="500" viewBox="0 0 500 500">
  <defs>
    <clipPath id="clip-Adidas">
      <rect width="500" height="500"/>
    </clipPath>
  </defs>
  <g id="Adidas" clip-path="url(#clip-Adidas)">
    <rect width="500" height="500" fill="#fff"/>
    <g id="Group_1099" data-name="Group 1099" transform="translate(-159.982 922)">
      <g id="Rectangle_1614" data-name="Rectangle 1614" transform="translate(229.982 -850)" fill="none" stroke="#191919" stroke-width="1">
        <rect width="364" height="364" rx="9" stroke="none"/>
        <rect x="0.5" y="0.5" width="363" height="363" rx="8.5" fill="none"/>
      </g>
      <text id="Add_Note" data-name="Add Note" transform="translate(411.982 -565.392)" fill="#191919" font-size="47" font-family="Roboto-Bold, Roboto" font-weight="700"><tspan x="-102.078" y="0">Our Picks</tspan></text>
      <g id="Adidas_logo" data-name="Adidas logo" transform="translate(295.687 -784.621)">
        <g id="_000000ff" data-name="#000000ff" transform="translate(0 0)">
          <path id="Path_5061" data-name="Path 5061" d="M510.31,22.754C521.9,15.3,533.456,7.785,545.059.35a14.884,14.884,0,0,1,1.271,1.963q29.022,48.1,58.078,96.173c.827,1.454,1.8,2.829,2.551,4.325q-24.366.027-48.733,0c-1.947-3.11-3.772-6.3-5.677-9.437Q534.291,62.9,516.044,32.417C514.165,29.177,512.137,26.021,510.31,22.754Z" transform="translate(-410.04 -0.35)" fill="#191919"/>
          <path id="Path_5062" data-name="Path 5062" d="M341.611,188.706c2.206-1.256,4.354-2.619,6.6-3.806,1.772,2.784,3.429,5.643,5.148,8.461q17.445,28.831,34.867,57.675c3.174.073,6.351-.049,9.524.053.017.538.027,1.079.023,1.619-.026,16.914.025,33.827-.023,50.739-3.812.065-7.628.059-11.44,0-.024-.544-.036-1.086-.047-1.627a13.719,13.719,0,0,0-1.409.658,20.82,20.82,0,0,1-5.087,1.774c-1.047.216-2.114.3-3.16.521h-2.3a37.15,37.15,0,0,1-4.867-.969,21.167,21.167,0,0,1-2.479-39.671,21.011,21.011,0,0,1,12.683-1.379,23.42,23.42,0,0,1,6.639,2.5q-.012-7.044,0-14.09a14.635,14.635,0,0,0-1.493-.067c-10.543.037-21.087-.033-31.631.033-.073,2.609.016,5.221-.036,7.832-3.847.033-7.7.024-11.545,0-.071-2.611.022-5.222-.037-7.834-.7-.021-1.4-.029-2.095-.049-3.307-5.36-6.466-10.813-9.738-16.2q-6.649-11.132-13.32-22.254c-1.334-2.277-2.774-4.5-4.034-6.816q14.648-8.53,29.261-17.116m31.458,84.541a10.586,10.586,0,0,0-6.59,4.769,10.723,10.723,0,0,0-1.315,7.667,10.569,10.569,0,0,0,5.284,7.1,10.236,10.236,0,0,0,5.064,1.281,10.549,10.549,0,0,0,4.362-20.134A11.25,11.25,0,0,0,373.069,273.247Z" transform="translate(-250.977 -148.638)" fill="#191919"/>
          <path id="Path_5063" data-name="Path 5063" d="M145.285,370.118c2.6-1.482,5.138-3.075,7.769-4.5.607.819,1.075,1.729,1.609,2.594,5.669,9.335,11.271,18.712,16.963,28.031,3.366.077,6.734-.049,10.1.057q.033,26.178,0,52.356c-1.827.092-3.657.012-5.484.037-2.022-.025-4.046.053-6.066-.037-.018-.546-.031-1.093-.049-1.639a25.332,25.332,0,0,1-4.79,2.043,40.958,40.958,0,0,1-4.745.925h-2.3c-1.309-.253-2.645-.358-3.936-.7a21.176,21.176,0,1,1,15.786-38.828q.044-7.058,0-14.116c-15.76-.073-31.523.02-47.285-.045-1.843-2.9-3.523-5.9-5.331-8.828a4.2,4.2,0,0,1-.4-.872q14.088-8.229,28.165-16.483m11.772,48.332a10.512,10.512,0,0,0-7.1,5.653,10.827,10.827,0,0,0-.953,6.172,10.518,10.518,0,0,0,12.353,8.82,10.365,10.365,0,0,0,6.633-4.236,10.541,10.541,0,0,0-4.138-15.7A11.163,11.163,0,0,0,157.056,418.45Z" transform="translate(-94.107 -293.849)" fill="#191919"/>
          <path id="Path_5064" data-name="Path 5064" d="M994.981,577.928a28.9,28.9,0,0,1,10.873.774,15.1,15.1,0,0,1,8.249,5.49,11.077,11.077,0,0,1,1.861,6.883c-4.419-.019-8.839.01-13.255-.016a4.887,4.887,0,0,0-.949-2.185,4.8,4.8,0,0,0-5.934-.016,1.407,1.407,0,0,0-.174,1.793,5.091,5.091,0,0,0,1.776,1.381,27.425,27.425,0,0,0,4.349,1.735,63.094,63.094,0,0,1,6.626,2.4c2.589,1.147,5.242,2.505,7.028,4.777a10.176,10.176,0,0,1,1.937,5.052v1.939a15.352,15.352,0,0,1-.753,3.479,11.563,11.563,0,0,1-4.271,5.361,20.924,20.924,0,0,1-10.695,3.364,33.271,33.271,0,0,1-10.891-.988,15.233,15.233,0,0,1-7.655-4.737,12,12,0,0,1-2.546-8.349c2.643-.068,5.286-.006,7.928-.027,1.876.037,3.759-.078,5.634.056a4.8,4.8,0,0,0,.954,2.434,5.145,5.145,0,0,0,4,1.415,4.085,4.085,0,0,0,2.815-.874,1.816,1.816,0,0,0,.236-2.491,9.981,9.981,0,0,0-3.731-2.149c-3.608-1.316-7.374-2.283-10.732-4.2-2.727-1.545-5.319-3.74-6.388-6.78a10.129,10.129,0,0,1,.79-8.331,13.25,13.25,0,0,1,4.106-4.142A19.568,19.568,0,0,1,994.981,577.928Z" transform="translate(-787.868 -464.283)" fill="#191919"/>
          <path id="Path_5065" data-name="Path 5065" d="M5,586.5a21.124,21.124,0,0,1,17.6-7.5,21.68,21.68,0,0,1,9.351,2.863c.006-.97-.039-1.943.031-2.912q5.744-.052,11.495,0c.09,4.122.01,8.247.037,12.371-.024,9.578.049,19.16-.035,28.736q-5.747.086-11.5,0c-.022-.544-.033-1.086-.045-1.627a31.027,31.027,0,0,1-4.637,1.963,37.3,37.3,0,0,1-5.016.99H20c-1.1-.255-2.232-.307-3.33-.566A21.352,21.352,0,0,1,1.5,607.9,23.084,23.084,0,0,1,0,601.219v-3.268a21.571,21.571,0,0,0,.476-2.206A20.771,20.771,0,0,1,5,586.5m13.929,3.319a10.529,10.529,0,0,0-6.938,15.442,10.412,10.412,0,0,0,5.213,4.629A10.555,10.555,0,0,0,30.44,595.058a10.481,10.481,0,0,0-7.848-5.378A14.546,14.546,0,0,0,18.93,589.815Z" transform="translate(0 -465.236)" fill="#191919"/>
          <path id="Path_5066" data-name="Path 5066" d="M766.138,580.062a21.25,21.25,0,0,1,17.533,1.776c.037-.963,0-1.927.026-2.89,3.847-.057,7.7-.039,11.549-.008.063,3.269.006,6.541.026,9.813-.016,10.429.032,20.859-.024,31.286-1.44.088-2.883.016-4.322.037-2.407-.033-4.817.069-7.217-.047-.018-.539-.031-1.075-.052-1.609a29.592,29.592,0,0,1-3.949,1.758,32.216,32.216,0,0,1-5.609,1.191h-2.309c-.82-.159-1.644-.269-2.467-.4a21.293,21.293,0,0,1-13.438-8.378,21.031,21.031,0,0,1-3.523-17.375,21.346,21.346,0,0,1,13.778-15.157m4.425,9.774a10.577,10.577,0,0,0-7.081,5.66,10.924,10.924,0,0,0-.9,6.455,10.533,10.533,0,0,0,12.548,8.487,10.551,10.551,0,0,0,2.1-19.965A11.193,11.193,0,0,0,770.562,589.835Z" transform="translate(-604.065 -465.23)" fill="#191919"/>
          <path id="Path_5067" data-name="Path 5067" d="M460.981,580.36q5.75.041,11.5,0c.073,10,.01,19.995.031,29.99-.016,3.582.031,7.166-.023,10.748q-5.759-.006-11.518,0c-.09-3.515-.012-7.036-.037-10.553q0-10.022,0-20.042C460.966,587.125,460.869,583.74,460.981,580.36Z" transform="translate(-370.359 -466.395)" fill="#191919"/>
        </g>
      </g>
    </g>
  </g>
</svg>
