<svg xmlns="http://www.w3.org/2000/svg" xmlns:xlink="http://www.w3.org/1999/xlink" width="500" height="500" viewBox="0 0 500 500">
  <defs>
    <clipPath id="clip-Aldo_Active">
      <rect width="500" height="500"/>
    </clipPath>
  </defs>
  <g id="Aldo_Active" clip-path="url(#clip-Aldo_Active)">
    <rect width="500" height="500" fill="#fff"/>
    <g id="Group_5887" data-name="Group 5887" transform="translate(0 -2)">
      <g id="Group_5880" data-name="Group 5880" transform="translate(68 68)">
        <rect id="Rectangle_1614" data-name="Rectangle 1614" width="364" height="364" rx="9" fill="#d19130"/>
        <text id="Add_Note" data-name="Add Note" transform="translate(176.672 266.875)" fill="#fff" font-size="54" font-family="Roboto-Bold, Roboto" font-weight="700"><tspan x="-117.281" y="0">Our Picks</tspan></text>
      </g>
      <g id="_191919ff" data-name="#191919ff" transform="translate(97.242 194.493)">
        <path id="Path_5151" data-name="Path 5151" d="M273.164,1.609A60.946,60.946,0,0,1,303.1,2.695c7.726,2.417,14.986,7.452,18.607,14.858a23.463,23.463,0,0,1-2.371,24.691c-5.619,7.58-14.922,11.429-24.016,12.742-9.522,1.222-19.474.848-28.531-2.581-6.923-2.673-13.308-7.58-16.464-14.439a23.676,23.676,0,0,1,3.639-25.63c4.843-5.8,11.967-9.066,19.2-10.726M278.117,8.3c-7.616,1.168-15.6,4.3-19.939,11.027-4.214,6.212-2.919,14.986,2.262,20.231,5.582,5.573,13.581,7.908,21.28,8.437,8.738.556,18.023-.274,25.64-4.962,5.172-3.083,9.167-8.583,9.294-14.749.073-6.385-3.931-12.35-9.367-15.488C298.557,7.639,287.949,7.1,278.117,8.3Z" transform="translate(-21.803 0)" fill="#fff"/>
        <path id="Path_5152" data-name="Path 5152" d="M24.071,16.951c3.493-5.108,6.421-10.6,10.28-15.451C45.569,19.2,56.916,36.817,68.208,54.467q-4.173.041-8.364.009c-2.855-4.342-5.828-8.6-8.556-13.025-11.411-.027-22.876-.383-34.259.155A118.391,118.391,0,0,0,8.738,54.5C5.856,55,2.9,54.667,0,54.959V53.5a22.967,22.967,0,0,0,3.11-3.731c6.914-10.991,14.019-21.854,20.96-32.818M21.7,33.807c8.191.511,16.418.128,24.627.219C42.8,27.3,38.145,21.229,34.35,14.653,29.717,20.737,25.74,27.322,21.7,33.807Z" transform="translate(0 -0.109)" fill="#fff"/>
        <path id="Path_5153" data-name="Path 5153" d="M86.378,54.554c.009-17.659-.064-35.326.036-52.994q3.735.027,7.47.018c.009,15.178.046,30.355-.027,45.542q22.356.014,44.712-.009c.009,2.472,0,4.944-.009,7.425C121.166,54.517,103.772,54.472,86.378,54.554Z" transform="translate(-7.59 -0.115)" fill="#fff"/>
        <path id="Path_5154" data-name="Path 5154" d="M157.706,1.655c12.259-.1,24.509-.036,36.767-.036,9.24.274,19.182,2.308,26.077,8.9,7.078,6.212,9.568,16.9,6.357,25.694-2.2,6.3-7.4,11.21-13.381,13.955-7.625,3.548-16.181,4.442-24.509,4.369-10.453-.046-20.906.064-31.358-.064.119-17.6.018-35.217.046-52.821m7.625,7.333c-.119,12.706-.064,25.412.027,38.117,9.094-.018,18.188-.009,27.281-.027,7.762-.137,15.98-1.569,22.247-6.467,6.8-5.381,7.662-16.29,2.153-22.885-4.98-6.111-13.244-8.1-20.769-8.629C185.954,8.915,175.647,9.125,165.331,8.988Z" transform="translate(-13.856 -0.118)" fill="#fff"/>
      </g>
    </g>
  </g>
</svg>
