<svg xmlns="http://www.w3.org/2000/svg" xmlns:xlink="http://www.w3.org/1999/xlink" width="944" height="944" viewBox="0 0 944 944">
  <defs>
    <clipPath id="clip-Artboard_22">
      <rect width="944" height="944"/>
    </clipPath>
  </defs>
  <g id="Artboard_22" data-name="Artboard – 22" clip-path="url(#clip-Artboard_22)">
    <rect width="944" height="944" fill="#fff"/>
    <g id="footer_pay_logo2" transform="translate(209.818 265)">
      <g id="Layer_1-2" transform="translate(0 0)">
        <rect id="Rectangle_1569" data-name="Rectangle 1569" width="600.938" height="492.855" fill="none"/>
        <path id="Path_3561" data-name="Path 3561" d="M97.147,124.382V100.063a14.576,14.576,0,0,0-13.51-15.672H82.016a13.927,13.927,0,0,0-13.51,7.025,15.2,15.2,0,0,0-12.97-7.025c-4.323,0-9.187,2.162-11.349,5.944V85.472H35v38.91h8.647V102.765A9.143,9.143,0,0,1,51.753,92.5h1.621c5.4,0,8.647,3.783,8.647,10.268v21.616h8.647V102.765c-1.081-4.864,2.7-9.187,7.566-10.268h1.621c5.945,0,8.647,3.783,8.647,10.268v21.616Zm127.537-38.91H210.634V73.583h-8.647V85.472h-7.566v7.566h8.106v17.833c0,9.187,3.783,14.591,13.51,14.591a19.486,19.486,0,0,0,10.808-3.243l-2.7-7.025a12.407,12.407,0,0,1-7.566,2.162c-4.323,0-5.4-2.7-5.4-6.485V93.038h14.051ZM297.1,84.391a11.587,11.587,0,0,0-10.268,5.944V85.472h-8.647v38.91h8.647V102.225c0-6.485,2.7-10.268,8.106-10.268a19.2,19.2,0,0,1,5.4,1.081l2.7-8.106c-2.162,0-4.323-.54-5.945-.54ZM187.4,88.714a33.013,33.013,0,0,0-16.212-4.323c-9.727,0-16.212,4.864-16.212,12.429,0,6.485,4.864,10.268,13.51,11.349l4.323.54c4.864.54,7.025,1.621,7.025,4.323,0,3.242-3.242,4.864-9.187,4.864-4.864,0-9.187-1.081-12.97-4.323l-4.323,6.485c4.864,3.242,10.808,5.4,16.753,4.864,11.349,0,17.834-5.4,17.834-12.97s-5.4-10.268-13.51-11.889l-4.323-.54c-3.783-.54-6.485-1.081-6.485-3.783s2.7-4.323,7.566-4.323a25.1,25.1,0,0,1,12.429,3.242ZM415.45,84.391a11.586,11.586,0,0,0-10.268,5.944V85.472h-8.647v38.91h8.647V102.225c0-6.485,2.7-10.268,8.106-10.268a19.2,19.2,0,0,1,5.4,1.081l2.7-8.106c-2.162,0-4.323-.54-5.944-.54Zm-109.7,20.536a19.847,19.847,0,0,0,18.914,20.536h1.621a22.2,22.2,0,0,0,14.051-4.864l-3.783-6.485c-2.7,2.162-6.485,3.243-10.268,3.783a12.283,12.283,0,0,1-11.349-13.51,12.667,12.667,0,0,1,11.349-11.349,15.16,15.16,0,0,1,10.268,3.783l4.323-7.025a22.2,22.2,0,0,0-14.051-4.864,20.238,20.238,0,0,0-21.076,18.374v1.621Zm79.441,0V85.472H376.54v4.864c-2.7-3.783-7.566-5.945-12.429-5.945a20.536,20.536,0,1,0,0,41.071,16.157,16.157,0,0,0,12.429-5.945v4.864h8.647Zm-31.344,0a11.9,11.9,0,1,1,23.778,1.081c-.54,6.485-5.4,11.349-11.889,11.349s-11.889-4.864-11.889-11.349C353.3,105.467,353.843,105.467,353.843,104.927ZM250.624,84.391a19.743,19.743,0,0,0-20,20.536,19.743,19.743,0,0,0,20.536,20h0a21.962,21.962,0,0,0,16.212-5.4l-4.323-6.485c-3.242,2.7-7.025,3.783-11.349,4.323-5.945.54-10.808-3.783-11.889-9.728H269v-3.242c.54-11.889-7.025-20-18.374-20Zm0,7.566a9.687,9.687,0,0,1,9.727,9.728h-20a10.537,10.537,0,0,1,10.268-9.728Zm213.463,12.97V69.8h-8.106V90.336c-2.7-3.783-7.566-5.945-12.43-5.945a20.536,20.536,0,1,0,0,41.071,16.158,16.158,0,0,0,12.43-5.945v4.864h8.106Zm14.051,14.051a1.985,1.985,0,0,1,1.621.54,1.162,1.162,0,0,1,1.081,1.081l1.081,1.081a3.446,3.446,0,0,1,0,3.243A1.162,1.162,0,0,1,480.84,126l-1.081,1.081c-.54,0-1.081.54-1.621.54a4.549,4.549,0,0,1-3.783-2.162,3.446,3.446,0,0,1,0-3.243,1.162,1.162,0,0,1,1.081-1.081l1.081-1.081a1.92,1.92,0,0,1,1.621-1.081Zm0,7.025h1.081c.54,0,.54-.54,1.081-.54,1.081-1.081,1.081-2.7,0-4.323,0-.54-.54-.54-1.081-.54h-2.162c-.54,0-.54.54-1.081.54-1.081,1.081-1.081,2.7,0,4.323.54.54.54.54,1.081.54Zm.54-4.864c.541,0,.541,0,1.081.54a1.886,1.886,0,0,1,.54,1.081c0,.54,0,.54-.54.54a1.887,1.887,0,0,1-1.081.54l1.081,1.081h-1.081l-1.081-1.081h-.54v1.081h-.54v-3.783Zm-1.081.54v1.081h1.621v-1.081H477.6Zm-44.854-16.753a11.9,11.9,0,1,1,23.778,1.081c-.54,6.485-5.4,11.349-11.889,11.349s-11.889-4.864-11.889-11.349Zm-287.5,0V85.472H136.6v4.864c-2.7-3.783-7.566-5.945-12.429-5.945a20.536,20.536,0,1,0,0,41.071,16.157,16.157,0,0,0,12.429-5.945v4.864h8.647Zm-31.884,0a11.9,11.9,0,1,1,23.778,1.081c-.54,6.485-5.4,11.349-11.889,11.349s-11.889-4.864-11.889-11.349v-1.081Z" transform="translate(51.466 306.326)" fill="#231f20"/>
        <g id="_Group_" transform="translate(62.087 62.461)">
          <path id="Path_3583" data-name="Path 3583" d="M0,0H129.158V231.837H0Z" transform="translate(174.073 31.03)" fill="#efeff1"/>
          <path id="_Path_" d="M212.668,158.841c0-45.395,20.536-88.087,56.2-115.648C205.1-7.065,112.151,4.283,61.893,68.052S22.983,224.771,86.752,275.029a146.948,146.948,0,0,0,182.119,0A149.111,149.111,0,0,1,212.668,158.841Z" transform="translate(-30.489 -11.622)" fill="#191919"/>
          <path id="Path_3562" data-name="Path 3562" d="M312.922,158.977A147.376,147.376,0,0,1,165.389,306.509,149.069,149.069,0,0,1,74.6,275.165,147.628,147.628,0,0,0,99.459,68.188C92.433,59,83.787,50.894,74.6,43.329,138.369-6.93,231.319,3.879,281.578,68.188a147.9,147.9,0,0,1,31.344,90.789Z" transform="translate(163.782 -11.758)" fill="#bdc6cf"/>
          <path id="Path_3563" data-name="Path 3563" d="M118.3,60.745V55.881h2.162V54.8H115.6v1.081h2.162v4.864Zm9.187,0V54.8h-1.621l-1.621,4.323L122.625,54.8h-1.081v5.945h1.081V56.421l1.621,3.783h1.081l1.621-3.783v4.323Z" transform="translate(344.35 177.804)" fill="#f59e1f"/>
        </g>
      </g>
    </g>
  </g>
</svg>
