<svg xmlns="http://www.w3.org/2000/svg" xmlns:xlink="http://www.w3.org/1999/xlink" width="944" height="944" viewBox="0 0 944 944">
  <defs>
    <clipPath id="clip-Artboard_24">
      <rect width="944" height="944"/>
    </clipPath>
  </defs>
  <g id="Artboard_24" data-name="Artboard – 24" clip-path="url(#clip-Artboard_24)">
    <rect width="944" height="944" fill="#fff"/>
    <g id="Payment_Option_3" data-name="Payment Option 3" transform="translate(51 369)">
      <path id="XMLID_15_" d="M204.671,67.835c-2.483,16.806-15.279,16.806-27.693,16.806h-7.066l4.965-31.321a3.885,3.885,0,0,1,3.82-3.247h3.247c8.4,0,16.424,0,20.435,4.775C204.863,57.713,205.626,61.915,204.671,67.835ZM199.324,24.1h-46.6a6.562,6.562,0,0,0-6.493,5.539L127.323,149.193a3.868,3.868,0,0,0,3.82,4.393h22.345a6.562,6.562,0,0,0,6.494-5.538l5.156-32.276a6.517,6.517,0,0,1,6.3-5.538h14.706c30.748,0,48.51-14.9,53.093-44.308,2.1-12.8,0-22.918-5.921-30.175C226.634,28.3,214.794,24.1,199.324,24.1Z" transform="translate(115.876 21.926)" fill="#191919"/>
      <path id="XMLID_12_" d="M257.128,91.054c-2.1,12.8-12.223,21.39-25.21,21.39-6.493,0-11.65-2.1-15.087-6.111-3.247-3.82-4.584-9.549-3.438-15.661,2.1-12.6,12.223-21.581,25.019-21.581,6.3,0,11.459,2.1,14.9,6.111C256.746,79.4,258.083,84.942,257.128,91.054ZM288.259,47.7H265.914a3.743,3.743,0,0,0-3.82,3.247l-.955,6.3-1.528-2.292c-4.775-7.066-15.661-9.358-26.356-9.358-24.637,0-45.836,18.716-49.846,44.881-2.1,12.987.955,25.592,8.4,34.377,6.875,8.021,16.615,11.268,28.075,11.268a42.882,42.882,0,0,0,30.939-12.8l-.955,6.111a4.03,4.03,0,0,0,3.82,4.584h20.053a6.562,6.562,0,0,0,6.493-5.538l12.032-76.393A4.124,4.124,0,0,0,288.259,47.7Z" transform="translate(166.359 41.49)" fill="#191919"/>
      <path id="XMLID_11_" d="M349.723,46.7H327.378a6.609,6.609,0,0,0-5.348,2.865L291.091,95.019,277.913,51.284a6.594,6.594,0,0,0-6.3-4.584H249.648a3.839,3.839,0,0,0-3.629,5.157l24.637,72.573-23.3,32.849a3.837,3.837,0,0,0,3.247,6.111h22.345a6.148,6.148,0,0,0,5.348-2.865L352.969,52.811A3.888,3.888,0,0,0,349.723,46.7Z" transform="translate(223.687 42.488)" fill="#191919"/>
      <path id="XMLID_8_" d="M378.681,67.835C376.2,84.641,363.4,84.641,350.988,84.641h-7.067l4.966-31.321a3.885,3.885,0,0,1,3.82-3.247h3.246c8.4,0,16.425,0,20.436,4.775C378.872,57.713,379.635,61.915,378.681,67.835ZM373.333,24.1h-46.6a6.231,6.231,0,0,0-6.3,5.539L301.524,149.193a3.868,3.868,0,0,0,3.82,4.393h23.873a4.217,4.217,0,0,0,4.393-3.82l5.347-33.8a6.517,6.517,0,0,1,6.3-5.538h14.706c30.748,0,48.509-14.9,53.093-44.308,2.1-12.8,0-22.918-5.921-30.175C400.835,28.3,388.993,24.1,373.333,24.1Z" transform="translate(274.369 21.926)" fill="#191919"/>
      <path id="XMLID_5_" d="M431.228,91.054c-2.1,12.8-12.223,21.39-25.21,21.39-6.493,0-11.65-2.1-15.087-6.111-3.247-3.82-4.584-9.549-3.438-15.661a25.089,25.089,0,0,1,25.019-21.39c6.3,0,11.459,2.1,14.9,6.112S432.183,84.942,431.228,91.054ZM462.358,47.7H440.013a3.742,3.742,0,0,0-3.819,3.247l-.955,6.3-1.528-2.292c-4.774-7.066-15.66-9.358-26.356-9.358-24.636,0-45.836,18.716-49.846,44.881-2.1,12.987.954,25.592,8.4,34.377,6.876,8.021,16.616,11.268,28.075,11.268a42.883,42.883,0,0,0,30.939-12.8l-.955,6.111a4.03,4.03,0,0,0,3.82,4.584h20.053a6.231,6.231,0,0,0,6.3-5.538l12.032-76.393A3.768,3.768,0,0,0,462.358,47.7Z" transform="translate(324.761 41.49)" fill="#191919"/>
      <path id="XMLID_4_" d="M435.022,27.438l-19.1,121.847a3.868,3.868,0,0,0,3.82,4.393h19.289a6.561,6.561,0,0,0,6.494-5.538L464.433,28.584A4.03,4.03,0,0,0,460.613,24H439.032A4.121,4.121,0,0,0,435.022,27.438Z" transform="translate(378.454 21.837)" fill="#191919"/>
      <path id="XMLID_3_" d="M137,27.4c-.191,1.146-.382,2.483-.573,3.82C127.835,74.382,99,89.278,62.137,89.278H43.42a9.047,9.047,0,0,0-8.976,7.639L24.9,157.841l-2.674,17.188A4.822,4.822,0,0,0,27,180.568h33.04a7.841,7.841,0,0,0,7.83-6.684l.382-1.719,6.3-39.724.382-2.1a7.988,7.988,0,0,1,7.83-6.684h4.966c32.276,0,57.486-13.178,64.934-50.992,3.056-15.852,1.528-29.029-6.684-38.387A30.243,30.243,0,0,0,137,27.4Z" transform="translate(20.255 24.929)" fill="#bdc6cf"/>
      <path id="XMLID_2_" d="M122.373,26.865a30.528,30.528,0,0,0-4.011-.955,32.391,32.391,0,0,0-4.2-.764A111.668,111.668,0,0,0,97.545,24H47.507a6.993,6.993,0,0,0-3.438.764,7.87,7.87,0,0,0-4.393,5.92l-10.7,67.608L28.6,100.2a9.2,9.2,0,0,1,8.976-7.639H56.293c36.86,0,65.7-14.9,74.1-58.25.191-1.337.382-2.483.573-3.82a37.1,37.1,0,0,0-6.875-2.865A6.783,6.783,0,0,0,122.373,26.865Z" transform="translate(26.099 21.837)" fill="#bdc6cf" stroke="#fff" stroke-width="0.5"/>
      <path id="XMLID_1_" d="M65.544,52.52a7.87,7.87,0,0,1,4.393-5.92,7.491,7.491,0,0,1,3.438-.764h50.038a113.534,113.534,0,0,1,16.616,1.146c1.528.191,2.865.573,4.2.764,1.337.382,2.674.573,4.011.955.573.191,1.337.382,1.91.573a37.1,37.1,0,0,1,6.875,2.865c2.483-16.043,0-26.929-8.594-36.669C138.882,4.584,121.693,0,99.73,0H35.751a8.9,8.9,0,0,0-8.976,7.639L.037,176.659a5.483,5.483,0,0,0,5.348,6.3H44.918l9.931-62.833Z" transform="translate(0.041 0)" fill="#191919"/>
    </g>
  </g>
</svg>
