<svg xmlns="http://www.w3.org/2000/svg" xmlns:xlink="http://www.w3.org/1999/xlink" width="944" height="944" viewBox="0 0 944 944">
  <defs>
    <clipPath id="clip-Artboard_13">
      <rect width="944" height="944"/>
    </clipPath>
  </defs>
  <g id="Artboard_13" data-name="Artboard – 13" clip-path="url(#clip-Artboard_13)">
    <rect width="944" height="944" fill="#fff"/>
    <g id="Group_1015" data-name="Group 1015" transform="translate(21891.57 864.611)">
      <path id="Path_4526" data-name="Path 4526" d="M404.98,0h.88c.228.756.683,2.278.911,3.044A10.231,10.231,0,0,0,411.855,0h1.2a15.046,15.046,0,0,1-5.239,6.088C406.854,4.069,405.953,2.019,404.98,0Z" transform="translate(-21783.338 -587)" fill="#ad263d"/>
      <path id="Path_4527" data-name="Path 4527" d="M255.01,27.7c3.541-1,8.2-1.356,10.593,2.04l.186,1.16c-1.822-.911-3.437-2.4-5.488-2.734a35.586,35.586,0,0,0-4.1,1.429C255.9,29.133,255.31,28.18,255.01,27.7Z" transform="translate(-21788.629 -586.042)" fill="#ad263d"/>
      <path id="Path_4528" data-name="Path 4528" d="M438.1,30.281c9.37-1.822,18.949-1.129,28.422-1.5-3.883,2.526-8.646,1.263-12.975,1.574-7.269.445-15.345-.569-21.6,3.935-5.653,4.307-5.694,12.446-10.7,17.261-3.748,3.293-9.081,2.061-13.575,1.708,3.251-.083,6.585.01,9.744-.984,5.321-3.572,7.145-10.023,10.043-15.387C429.528,32.932,433.99,31.193,438.1,30.281Z" transform="translate(-21783.236 -585.98)" fill="#ad263d"/>
      <path id="Path_4529" data-name="Path 4529" d="M330.676,39.536c9.744-1.16,19.6-2.6,28.931-5.933l1.947-.083.7,2.816a3.59,3.59,0,0,0-3.842,3.1c-2.071.87-4.09,1.843-6.151,2.723-1.222.445-2.464.828-3.707,1.212-5.063,1.481-10.189,2.775-15.366,3.8l-.953.207c-1.066-1.812-3.458-1.543-5.032-.652a7.822,7.822,0,0,0,3.189.994c-4.235.642-8.511.973-12.767,1.294-9.278.745-18.555-.228-27.833-.435-12.394.311-24.861,2.92-35.982,8.522.839.7,1.667,1.408,2.506,2.133a61.079,61.079,0,0,1,12.343-4.266c-5.291,3.614-11.773,4.773-17.313,7.921-3.78,1.76-6.73,4.846-10.427,6.689-.683-.124-2.03-.383-2.7-.507a184.474,184.474,0,0,1,17-9.64c-.808-.621-1.615-1.253-2.4-1.884-.539.269-1.615.787-2.154,1.046l-1.294-1.626q-2.594,1.615-5.156,3.262a31.224,31.224,0,0,0,4.111-6.3l.2-.362c1.543-.973,3.117-1.905,4.732-2.765l.166.031c.756.1,2.268.331,3.023.445,4.473-1.781,8.791-3.945,13.264-5.747l-2.765-.29c1.75-.59,3.531-1.129,5.323-1.636.9.756,1.895,1.564,3.148,1.025,4.618-1.17,9.65-.663,13.989-2.848l.424.114c6.306,1.553,12.943.331,19.353,0,.383-.321,1.16-.963,1.543-1.284l.383-.331c.911.052,1.812.135,2.733.248C319.338,41.286,325.727,42.86,330.676,39.536Z" transform="translate(-21789.234 -585.811)" fill="#ad263d"/>
      <path id="Path_4530" data-name="Path 4530" d="M481.63,39.43a27.243,27.243,0,0,1,6.482-2.91l.383,1.408A58.487,58.487,0,0,1,481.63,39.43Z" transform="translate(-21780.604 -585.705)" fill="#ad263d"/>
      <path id="Path_4531" data-name="Path 4531" d="M357.077,42.83c1.439-.5,2.878-.984,4.328-1.45-4.784,3.955-10.313,6.979-15.77,9.92a130.059,130.059,0,0,1-15.584,5.747c-3.448.932-6.73,2.423-10.251,3.065.259-.466.787-1.408,1.046-1.874,9.019-2.62,18.379-4.763,26.446-9.754-1.936-.176-3.862-.352-5.8-.435,1.377-.352,2.734-.746,4.1-1.149A104.262,104.262,0,0,0,357.077,42.83Z" transform="translate(-21786.354 -585.533)" fill="#ad263d"/>
      <path id="Path_4532" data-name="Path 4532" d="M271.23,53.474a65.9,65.9,0,0,1,12.736-1.564c2.775-.01,5.56.135,8.325.383,6.854,2.2,14.113.559,21.154,1.191a88.693,88.693,0,0,1-24.779-.528C282.817,51.837,277.07,54.581,271.23,53.474Z" transform="translate(-21788.061 -585.159)" fill="#ad263d"/>
      <path id="Path_4533" data-name="Path 4533" d="M210.6,78.5a55.223,55.223,0,0,0,22.18-6.834c-1.46,1.729-2.941,3.686-5.26,4.256C222.062,77.665,216.388,79.519,210.6,78.5Z" transform="translate(-21790.219 -584.459)" fill="#ad263d"/>
      <path id="Path_4534" data-name="Path 4534" d="M311.31,75.59a39.749,39.749,0,0,0,4.028,3.448c2.381.963,4.97,1.118,7.476,1.574C318.465,81.627,311.755,81.347,311.31,75.59Z" transform="translate(-21786.645 -584.319)" fill="#ad263d"/>
      <path id="Path_4535" data-name="Path 4535" d="M394.125,88.492c-.083-.311-.238-.932-.321-1.232,3.935,1.626,7.642,3.717,11.473,5.581.6.29,1.791.891,2.392,1.191-.5-.083-1.47-.228-1.957-.3-4.711-.963-9.319-2.351-14.082-3.055-1.75-.342-3.5-.683-5.239-.984a49.255,49.255,0,0,1,8.47.217C394.684,89.559,394.311,88.844,394.125,88.492Z" transform="translate(-21783.99 -583.906)" fill="#ad263d"/>
      <path id="Path_4536" data-name="Path 4536" d="M253.258,88.77c1.263.352,2.548.694,3.78,1.17,6.337,5.074,9.734,13.72,7.207,21.651-1.066-5.136-.125-10.893-4.08-15.035-.839,2.961-.352,6.037-.621,9.06-1,3.686-3.955,6.461-6.71,8.946-1.336,1.367-3.344,1.294-5.084,1.636,3.976-3.313,9.133-6.182,10.531-11.556C259.9,98.886,257.08,92.984,253.258,88.77Z" transform="translate(-21788.893 -583.852)" fill="#e13a3d"/>
      <path id="Path_4537" data-name="Path 4537" d="M459.8,103.33c7.559,3.117,14.041,8.522,20.161,13.886.766.694,1.533,1.4,2.3,2.1,9.484,8.832,16.815,19.715,23.184,30.939,1.8,3.458,3.738,6.844,5.571,10.282.787,1.822,1.594,3.634,2.371,5.457,1.8,4.245,3.49,8.532,5.012,12.881a14.24,14.24,0,0,1-2.712-4.049c-2.05-5.167-5.157-9.837-6.948-15.108-6.161-13.088-14.548-25.027-23.939-35.982-3.179-3.355-6.937-6.1-10.334-9.205C469.968,110.257,463.973,107.979,459.8,103.33Z" transform="translate(-21781.377 -583.336)" fill="#ad263d"/>
      <path id="Path_4538" data-name="Path 4538" d="M266.13,128.188c4.308-3.748,8.646-7.662,11.348-12.788.3,1.74.425,3.614-1.076,4.877C273.43,123.394,270.841,127.743,266.13,128.188Z" transform="translate(-21788.244 -582.908)" fill="#ad263d"/>
      <path id="Path_4539" data-name="Path 4539" d="M216.67,130.592c8.946-6.337,19.632-9.464,29.479-14.072-2.7,4.256-8.077,4.753-12.281,6.751C227.967,125.332,222.883,129.391,216.67,130.592Z" transform="translate(-21790.016 -582.868)" fill="#e13a3d"/>
      <path id="Path_4540" data-name="Path 4540" d="M240.325,127.309c3.283-.994,6.378-3.469,9.972-2.775-5.188,2.578-10.624,4.639-15.656,7.538C234.247,128.748,238.11,128.407,240.325,127.309Z" transform="translate(-21789.373 -582.589)" fill="#e13a3d"/>
      <path id="Path_4541" data-name="Path 4541" d="M204.535,142.777A30.623,30.623,0,0,1,215.667,130.9c-1.491,2.941-3.976,5.115-6.192,7.486-3.3,3.551-4.95,8.284-5.871,12.964C201.4,148.741,203.427,145.4,204.535,142.777Z" transform="translate(-21790.506 -582.358)" fill="#e13a3d"/>
      <path id="Path_4542" data-name="Path 4542" d="M405.83,0h6a10.237,10.237,0,0,1-5.084,3.044C406.513,2.278,406.058.756,405.83,0Z" transform="translate(-21783.307 -587)" fill="#d43760"/>
      <path id="Path_4543" data-name="Path 4543" d="M408.43,76.91c2.765,1.926,4.3,5.126,7.062,7.093,9.589,8.346,21.962,12.084,34.015,15.242.394.145,1.18.445,1.574.6,3.531,1.4,7.362,2.278,10.541,4.421,4.173,4.649,10.168,6.927,14.662,11.2,3.4,3.106,7.155,5.85,10.334,9.205,9.392,10.955,17.779,22.894,23.94,35.982,1.791,5.27,4.9,9.94,6.948,15.107a14.24,14.24,0,0,0,2.713,4.049c.435.963.87,1.926,1.273,2.91,1.739,4.691,3.2,9.485,4.546,14.31.3,1.18.6,2.361.911,3.541-3.79-.269-7.559-.694-11.3-1.253q-1.025-2.423-1.863-.176c-3.272-.4-6.534-.839-9.785-1.263a191.609,191.609,0,0,0-15.553-47.445,117.086,117.086,0,0,0-5.674-10.458c-1.067-1.8-2.206-3.552-3.355-5.281-3.5-5.239-7.217-10.406-11.949-14.6-.3-.259-.891-.787-1.191-1.046-.2-.176-.59-.518-.787-.694-.963-.942-1.895-1.916-2.9-2.806a47.367,47.367,0,0,0-11.618-7.5c-9.909-4.38-21.2-5.9-29.79-13.005a42.649,42.649,0,0,1-3.614-3.065c-1.325-1.315-2.609-2.661-3.8-4.09A27.2,27.2,0,0,1,408.43,76.91Z" transform="translate(-21783.213 -584.273)" fill="#d43760"/>
      <path id="Path_4544" data-name="Path 4544" d="M484.34,14.01a82.777,82.777,0,0,0,6.907-6.71q1.367,2.035,2.765,4.059a25.716,25.716,0,0,1-5.022,6.016c.01-.445.01-1.346.01-1.791a41.139,41.139,0,0,0,2.776-5.674C489.486,11.587,487.467,14.207,484.34,14.01Z" transform="translate(-21780.51 -586.741)" fill="#832d50"/>
      <path id="Path_4545" data-name="Path 4545" d="M486.3,13.92c3.127.2,5.146-2.423,7.435-4.1a41.137,41.137,0,0,1-2.775,5.674c0,.445,0,1.346-.01,1.791v.186c-6.233,5.933-15.252,8.895-23.67,8.656a6.31,6.31,0,0,0-6.037.114,18.107,18.107,0,0,1-9.661-.01,6.229,6.229,0,0,0-6.906.135c-5.178,1.771-10.852,2.133-15.739,4.918a9.447,9.447,0,0,1,4.722-4.256c.694-.321,1.408-.632,2.123-.932A44.363,44.363,0,0,1,450.933,22.5c1.978-.155,3.976-.3,5.954-.538,6.347-.953,12.985.135,19.083-2.278,3.676-1.1,6.74-3.438,9.774-5.7Z" transform="translate(-21782.461 -586.652)" fill="#a12758"/>
      <path id="Path_4555" data-name="Path 4555" d="M378.545,13.157c4.038-.756,8.025.694,12.032,1.087l-.062.238c-3.8,2.568-6.741,6.73-11.8,6.6l-.32-.683c-.27-.518-.8-1.553-1.067-2.071C376.858,16.543,378.183,14.866,378.545,13.157Z" transform="translate(-21784.309 -586.541)" fill="#972c50"/>
      <path id="Path_4567" data-name="Path 4567" d="M485.73,25.4c5.892-2.33,10.25-7.279,13.347-12.653l.7.114a40.907,40.907,0,0,0,7.983,13.523c-.362.487-1.066,1.45-1.429,1.936a54.331,54.331,0,0,1-6.275,6.544,33.633,33.633,0,0,1-7.725,3.9l-.383-1.408a27.255,27.255,0,0,0-6.482,2.91c-.352.052-1.035.155-1.377.217a48.705,48.705,0,0,0-7.559-.5c-9.847.435-19.725-.663-29.562.1-.435.425-1.315,1.274-1.75,1.7-1.512.611-3.024,1.211-4.494,1.895a35.008,35.008,0,0,0-3.914,2.4c-2.8,4.059-3.987,8.9-6.265,13.223-2.082,2.92-5.147,5.457-8.874,5.571-4.1-.135-7.994-1.646-11.846-2.93-1.119-.549-2.247-1.077-3.4-1.553-1.325-.466-2.672-.88-4.017-1.284a68.824,68.824,0,0,0-10.956-3.862c-1.491-.4-2.982-.808-4.452-1.232-1.874-.8-3.7-2.061-5.83-1.936-2.94.176-5.425,1.947-7.88,3.376,1.046-1.677,1.988-3.407,2.961-5.126.125-.052.394-.155.518-.207,6.192-.352,12.632,1.491,18.628-.621.424.083,1.273.238,1.7.311a2.823,2.823,0,0,0,3.987,1.222c1.481.166,2.951.383,4.422.663,4.287.953,8.708,2.133,13.13,1.139-3.158.994-6.493.9-9.744.984,4.494.352,9.827,1.584,13.575-1.709,5-4.815,5.042-12.954,10.7-17.261,6.254-4.5,14.331-3.489,21.6-3.935,4.328-.311,9.091.953,12.974-1.574C473.8,28.365,480.118,28.137,485.73,25.4Z" transform="translate(-21784.455 -586.548)" fill="#d43860"/>
      <path id="Path_4568" data-name="Path 4568" d="M377.369,18.14c.27.518.8,1.553,1.067,2.071C377.038,23.359,374.221,18.565,377.369,18.14Z" transform="translate(-21784.348 -586.357)" fill="#673349"/>
      <path id="Path_4569" data-name="Path 4569" d="M258.577,23.369c6.772-1.719,13.968,5.074,12.353,12.011-.124,8.253-12.115,11.514-17.344,5.881-6.275-5.094-3.4-17.085,4.991-17.893m-3.4,4.473c.3.476.89,1.429,1.191,1.895a35.549,35.549,0,0,1,4.1-1.429c2.05.331,3.666,1.822,5.488,2.734l-.187-1.16c.135-.725.28-1.439.425-2.154C262.947,25.109,258.277,24.85,255.181,27.842Z" transform="translate(-21788.807 -586.181)" fill="#e13a3d"/>
      <path id="Path_4570" data-name="Path 4570" d="M261.117,105.35c.269-3.024-.217-6.1.621-9.06,3.956,4.142,3.013,9.9,4.08,15.035a20.215,20.215,0,0,1-4.308,7.114,36.661,36.661,0,0,1-6.544,5.25c-1.17.652-2.361,1.253-3.562,1.843-3.593-.694-6.689,1.781-9.972,2.775-2.216,1.1-6.078,1.439-5.685,4.763-5.654,2.765-10.541,6.741-15.294,10.82a36.257,36.257,0,0,0-5.415,5.571,29.657,29.657,0,0,0-5.24,8.667l-.2-.083c-.7-.269-1.4-.528-2.091-.777-1.056-.973-2.123-1.926-3.262-2.8l-.88-.683c.052-.3.156-.9.207-1.212.921-4.68,2.568-9.412,5.871-12.964,2.216-2.371,4.7-4.546,6.192-7.486l.331-.538c.29-.062.88-.207,1.17-.28,6.213-1.2,11.3-5.26,17.2-7.321,4.2-2,9.578-2.5,12.281-6.751a3.511,3.511,0,0,1,2.7-1.3c1.74-.342,3.748-.269,5.084-1.636C257.162,111.812,260.113,109.036,261.117,105.35Z" transform="translate(-21790.465 -583.585)" fill="#e13a3d"/>
      <path id="Path_4571" data-name="Path 4571" d="M255.01,27.754c3.1-2.992,7.766-2.734,11.017-.114-.145.714-.29,1.429-.425,2.154C263.211,26.4,258.551,26.75,255.01,27.754Z" transform="translate(-21788.629 -586.093)" fill="#fffefd"/>
      <path id="Path_4572" data-name="Path 4572" d="M446.41,49.973c3.334-.363,7.476.279,8.615,3.976-.714-.466-1.419-.922-2.133-1.367A59.206,59.206,0,0,0,446.41,49.973Z" transform="translate(-21781.859 -585.232)" fill="#fffefd"/>
      <path id="Path_4573" data-name="Path 4573" d="M386.655,62.124c1.461-.569,1.243,1.17.228,1.5-1.015.6-1.439,2.6-2.806,2.278C383.187,64.247,385.185,62.548,386.655,62.124Z" transform="translate(-21784.082 -584.801)" fill="#fffefd"/>
      <path id="Path_4574" data-name="Path 4574" d="M504.569,78.027c-1.388-3.169-1.17-6.927,1.377-9.464.424-.176,1.274-.507,1.708-.673a21.191,21.191,0,0,0-2.4,5.374C505.076,74.455,504.735,76.836,504.569,78.027Z" transform="translate(-21779.816 -584.593)" fill="#fffefd"/>
      <path id="Path_4576" data-name="Path 4576" d="M482.541,88.69c.518-.145,1.554-.445,2.071-.59-2.05,3.552-6.524,3.376-9.7,1.532h2.619A13.493,13.493,0,0,0,482.541,88.69Z" transform="translate(-21780.848 -583.876)" fill="#fffefd"/>
      <path id="Path_4579" data-name="Path 4579" d="M444.14,25.838a6.229,6.229,0,0,1,6.906-.135A10.464,10.464,0,0,1,444.14,25.838Z" transform="translate(-21781.939 -586.123)" fill="#7e1940"/>
      <path id="Path_4580" data-name="Path 4580" d="M460.14,25.708a6.31,6.31,0,0,1,6.037-.114A5.876,5.876,0,0,1,460.14,25.708Z" transform="translate(-21781.369 -586.118)" fill="#811f44"/>
      <path id="Path_4581" data-name="Path 4581" d="M404.315,27.84l.818.093c1.979.29,3.956.58,5.944.818a33.4,33.4,0,0,1-2.568,5.757c-1.958.362-3.894.818-5.82,1.263.528-2.651,1.087-5.291,1.625-7.932m1.192,2.589a1.442,1.442,0,1,0,1.9,2.123C409.265,31.3,406.957,28.8,405.507,30.429Z" transform="translate(-21783.422 -586.013)" fill="#aa4966"/>
      <path id="Path_4587" data-name="Path 4587" d="M405.433,30.358c1.449-1.626,3.758.87,1.9,2.123A1.442,1.442,0,1,1,405.433,30.358Z" transform="translate(-21783.32 -585.943)" fill="#ce3f6a"/>
      <path id="Path_4588" data-name="Path 4588" d="M354.3,39.336a3.591,3.591,0,0,1,3.842-3.1c.021.331.083,1,.113,1.346A17.3,17.3,0,0,1,354.3,39.336Z" transform="translate(-21785.123 -585.715)" fill="#842038"/>
      <path id="Path_4589" data-name="Path 4589" d="M442.76,40.868c.436-.425,1.315-1.274,1.75-1.7,9.837-.766,19.715.331,29.563-.1a48.724,48.724,0,0,1,7.559.5c-1.708.28-3.407.538-5.1.766C465.271,40.7,453.974,39.221,442.76,40.868Z" transform="translate(-21781.977 -585.621)" fill="#ae3152"/>
      <path id="Path_4590" data-name="Path 4590" d="M311.25,40.324c1.036-.072,3.127-.228,4.173-.3,1.5-.083,3.013-.166,4.525-.321a76.187,76.187,0,0,1,8.138-.373C323.137,42.654,316.748,41.08,311.25,40.324Z" transform="translate(-21786.66 -585.606)" fill="#831e33"/>
      <path id="Path_4591" data-name="Path 4591" d="M442.914,40.827c11.215-1.646,22.511-.166,33.767-.538a41.946,41.946,0,0,1-11.2.673,81.92,81.92,0,0,0-12.032-.331c-1.822-.321-2.775,1.232-3.779,2.423a52.37,52.37,0,0,1-11.245-.331C439.891,42.039,441.4,41.438,442.914,40.827Z" transform="translate(-21782.143 -585.581)" fill="#f0cdd5"/>
      <path id="Path_4620" data-name="Path 4620" d="M286.8,41.116c7.383-.632,14.8-.445,22.2-.746-.384.321-1.16.963-1.543,1.284-6.409.331-13.047,1.553-19.353,0Z" transform="translate(-21787.514 -585.569)" fill="#811f30"/>
      <path id="Path_4621" data-name="Path 4621" d="M271.1,43.324A62.053,62.053,0,0,1,288.237,41.5c-4.339,2.185-9.371,1.677-13.989,2.848C272.995,44.888,272,44.08,271.1,43.324Z" transform="translate(-21788.064 -585.531)" fill="#8e233c"/>
      <path id="Path_4635" data-name="Path 4635" d="M252.9,50.431a67.569,67.569,0,0,1,13.523-5.591l2.765.29c-4.473,1.8-8.791,3.966-13.264,5.747C255.168,50.763,253.656,50.535,252.9,50.431Z" transform="translate(-21788.727 -585.41)" fill="#962b40"/>
      <path id="Path_4637" data-name="Path 4637" d="M324.16,46.294c1.573-.89,3.965-1.16,5.032.652-.466.083-1.387.249-1.843.342A7.818,7.818,0,0,1,324.16,46.294Z" transform="translate(-21786.182 -585.383)" fill="#80182c"/>
      <path id="Path_4641" data-name="Path 4641" d="M334.885,50.357c3.666-.735,7.269-1.7,10.914-2.537,1.936.083,3.862.259,5.8.435-8.066,4.991-17.427,7.134-26.446,9.754-.259.466-.787,1.408-1.046,1.874l-.311.559a32.76,32.76,0,0,0-4.908,1.512c-.383.124-1.16.383-1.543.518-1.315.259-2.62.5-3.935.714a34.576,34.576,0,0,0-.787,9.34c.466.424,1.4,1.284,1.864,1.708.28.777.549,1.564.828,2.34.445,5.757,7.155,6.037,11.5,5.022a71.451,71.451,0,0,1,9.3-.124c5.322,1.367,10.79.28,16.195.538,6.151.186,12.384.725,18.473-.58a5.182,5.182,0,0,1,2.578.145c.393.559,1.191,1.677,1.594,2.237a44.509,44.509,0,0,0,9.019-.083c3.707.176,7.155,1.823,10.686,2.858,1.243.393,2.485.746,3.759,1.067.487.145,1.46.445,1.947.59l.1.414c.083.3.238.922.321,1.232.187.352.559,1.067.736,1.419a49.251,49.251,0,0,0-8.47-.217c-.476-.072-1.429-.207-1.905-.269-3.966-2.413-8.687-1.791-13.109-1.8-4.09.135-8.325-.155-12.208,1.377-1.139.342-2.278.663-3.417.973a104.306,104.306,0,0,0-12.829,2.6,116.151,116.151,0,0,0-23.536,9.723c-.486.228-1.47.694-1.957.922-1.522.735-3.013,1.512-4.463,2.35-5.208,3.2-10.521,6.254-15.521,9.764q-2.517,1.709-5.095,3.314c-3.821,2.371-7.642,4.742-11.514,7.031-8.863,5.074-18.431,9.64-28.817,10.075,3.22-2.278,6.513-4.463,9.847-6.565,4.711-.445,7.3-4.794,10.271-7.911,1.5-1.263,1.377-3.138,1.077-4.877,3.852-7.776,4.421-17.882-1.077-25.037-4.566-6.544-12.964-8.543-20.5-8.791-9.412-.8-18.835.932-28.247.217-6.482-1.564-13.088.953-19.56-.953a68.129,68.129,0,0,1-12.115-3.769c4.173-.839,8.439-.217,12.654-.114,5.788,1.015,11.462-.839,16.919-2.578,2.319-.57,3.8-2.527,5.26-4.256,2.071-1.439,4.235-2.713,6.42-3.955.673.124,2.019.383,2.7.507,3.7-1.843,6.648-4.929,10.427-6.689,5.54-3.148,12.021-4.307,17.313-7.921,1.232-.3,2.475-.6,3.738-.839,5.84,1.108,11.587-1.636,17.437-.518a88.69,88.69,0,0,0,24.779.528c-7.041-.632-14.3,1-21.154-1.191,3.013.062,6.026.093,9.05.166,4.929.093,9.868.155,14.8-.207A121.212,121.212,0,0,0,334.885,50.357Z" transform="translate(-21790.67 -585.304)" fill="#e13b3d"/>
      <path id="Path_4642" data-name="Path 4642" d="M376.66,48.9c5.933-2.278,12.508-1.729,18.628-.621C389.292,50.4,382.852,48.552,376.66,48.9Z" transform="translate(-21784.344 -585.322)" fill="#b33656"/>
      <path id="Path_4643" data-name="Path 4643" d="M444.666,49.743a9.212,9.212,0,0,1,5.913-1.791,17.487,17.487,0,0,1,5.788,3.438c.528.88,1.036,1.771,1.522,2.682-.1,1.76-.217,3.51-.342,5.27l-.9-.922a15.475,15.475,0,0,1-1.45-4.4c-1.14-3.7-5.281-4.338-8.615-3.976a59.262,59.262,0,0,1,6.481,2.609,14.016,14.016,0,0,1-8.035-.87,15.62,15.62,0,0,0-1.719,4.339c1,2.558,2.464,4.918,3.22,7.569C440.658,62,440,53.118,444.666,49.743Z" transform="translate(-21782.031 -585.301)" fill="#652348"/>
      <path id="Path_4645" data-name="Path 4645" d="M396.29,48.551a7.694,7.694,0,0,1,3.769.58l.217.642A2.822,2.822,0,0,1,396.29,48.551Z" transform="translate(-21783.641 -585.279)" fill="#a03d54"/>
      <path id="Path_4646" data-name="Path 4646" d="M482.88,53.786c1.574-1.574,3.22-3.1,4.908-4.556a35.579,35.579,0,0,1,5.83,4.587q-2.252,1.475-4.462,2.982Q485.986,55.339,482.88,53.786Z" transform="translate(-21780.57 -585.254)" fill="#d13462"/>
      <path id="Path_4647" data-name="Path 4647" d="M374.477,49.94c.5-.228,1.481-.673,1.978-.891-.973,1.719-1.916,3.448-2.962,5.126,2.454-1.429,4.94-3.2,7.88-3.376,2.134-.124,3.956,1.139,5.83,1.936-3.593-.2-7.538-.476-10.717,1.532-1.356,1.18-2.35,2.692-3.645,3.945-1.408,1.129-3.334.756-4.981.6A32.722,32.722,0,0,1,374.477,49.94Z" transform="translate(-21784.625 -585.261)" fill="#c0345b"/>
      <path id="Path_4649" data-name="Path 4649" d="M444.969,51.65a14.016,14.016,0,0,0,8.035.87c.715.445,1.419.9,2.133,1.367a15.5,15.5,0,0,0,1.45,4.4l.4.777c-3.469,1.149-6.844,2.537-10.2,3.976a13.794,13.794,0,0,0,7.527-.3c-2.267,1.512-5.073,1.439-7.682,1.284l-.166-.466c-.756-2.651-2.216-5.012-3.22-7.569A15.6,15.6,0,0,1,444.969,51.65Z" transform="translate(-21781.98 -585.169)" fill="#83165b"/>
      <path id="Path_4650" data-name="Path 4650" d="M226.836,69.7c8.325-4.525,14.942-11.5,22.967-16.474a31.223,31.223,0,0,1-4.111,6.3q2.562-1.646,5.156-3.262l1.294,1.626c-12.353,5.912-23.018,15.3-36.334,19.218-6.275,1.74-12.819.766-19.228.942.207-.569.611-1.708.808-2.278,9.868.155,20.357-.59,29.013-5.788Z" transform="translate(-21790.717 -585.113)" fill="#951b39"/>
      <path id="Path_4652" data-name="Path 4652" d="M252.142,57.766c.539-.259,1.615-.777,2.154-1.046.787.632,1.595,1.263,2.4,1.885a184.365,184.365,0,0,0-17,9.64c-2.185,1.243-4.349,2.516-6.42,3.955A55.22,55.22,0,0,1,211.1,79.034c-4.214-.1-8.48-.725-12.654.114l-.393.062c-.362-.321-1.1-.963-1.47-1.284,6.409-.176,12.953.8,19.228-.942C229.124,73.07,239.789,63.678,252.142,57.766Z" transform="translate(-21790.717 -584.989)" fill="#fff2e9"/>
      <path id="Path_4676" data-name="Path 4676" d="M446.67,62.786c3.355-1.439,6.73-2.827,10.2-3.976a10.353,10.353,0,0,1-2.672,3.676A13.793,13.793,0,0,1,446.67,62.786Z" transform="translate(-21781.852 -584.915)" fill="#631d46"/>
      <path id="Path_4677" data-name="Path 4677" d="M384.239,62.163c1.636-1.553,4.038-1.16,6.1-1.253,5.219,2.257,4.276,10.23-1.025,11.773-2.061-.559-4.66-.8-5.819-2.868a6.252,6.252,0,0,1,.745-7.652m2.465,0c-1.471.425-3.469,2.123-2.579,3.779,1.367.321,1.792-1.677,2.806-2.278C387.946,63.333,388.164,61.593,386.7,62.163Z" transform="translate(-21784.111 -584.84)" fill="#79174e"/>
      <path id="Path_4678" data-name="Path 4678" d="M309.5,62.684c1.314-.217,2.619-.456,3.935-.714-3.127,2.713-3.956,6.679-3.034,10.634l.176,1.129c-.466-.424-1.4-1.284-1.864-1.708A34.547,34.547,0,0,1,309.5,62.684Z" transform="translate(-21786.744 -584.802)" fill="#b54748"/>
      <path id="Path_4679" data-name="Path 4679" d="M510.1,63.81c3.448.435,7.828,1.646,9.3,5.084-.083,3.158-1.139,6.648.8,9.5-.124.321-.373.963-.5,1.294l-.477-.28c-.311-.176-.911-.518-1.222-.683-2.34,1.574-4.681,3.955-7.755,3.562a19.382,19.382,0,0,1-4.773-2.692c.279-2.061,1.118-4.3-.27-6.182a21.209,21.209,0,0,1,2.4-5.374c-.435.166-1.284.5-1.709.673a26.317,26.317,0,0,1,5.063-3.272c-.134-.259-.414-.787-.559-1.046Z" transform="translate(-21779.779 -584.738)" fill="#a5295a"/>
      <path id="Path_4680" data-name="Path 4680" d="M501.755,76.424c-1.926-5.633,2.713-12.581,8.781-12.053.145.259.424.787.56,1.046a26.321,26.321,0,0,0-5.064,3.272c-2.547,2.537-2.764,6.3-1.377,9.464.166-1.191.507-3.572.683-4.763,1.388,1.885.549,4.121.27,6.182a19.388,19.388,0,0,0,4.773,2.692c3.075.394,5.416-1.988,7.755-3.562.311.166.911.507,1.222.683C516.044,86.892,502.987,84.48,501.755,76.424Z" transform="translate(-21779.906 -584.718)" fill="#7e2f4e"/>
      <path id="Path_4681" data-name="Path 4681" d="M518.922,68.72a7.77,7.77,0,0,1,1.367,3.976c.073.5.218,1.481.291,1.978-.218.88-.643,2.651-.86,3.541C517.783,75.368,518.839,71.878,518.922,68.72Z" transform="translate(-21779.287 -584.563)" fill="#803251"/>
      <path id="Path_4682" data-name="Path 4682" d="M310.34,72.24c1.584.362,3.168.714,4.752,1.077q.14,2.92.28,5.84a39.839,39.839,0,0,1-4.028-3.448c-.279-.777-.549-1.563-.828-2.34Z" transform="translate(-21786.666 -584.438)" fill="#edcac6"/>
      <path id="Path_4777" data-name="Path 4777" d="M475.329,77.171c3.666-1.615,8.688-1.2,11,2.433,3.282,4.3,1.481,11.369-3.665,13.254-3.625,2.092-8.232.466-10.676-2.641-2.392-4.328-1.615-10.9,3.344-13.047m2.351,12.881H475.06c3.179,1.843,7.652,2.019,9.7-1.533-.517.145-1.553.445-2.071.59C482.111,87.111,477.814,88.2,477.679,90.052Z" transform="translate(-21780.988 -584.296)" fill="#a2295b"/>
      <path id="Path_4778" data-name="Path 4778" d="M331.4,80.346c7.383-1.108,14.9-.652,22.345-.725,4.1.249,8.284-.259,12.322.683-6.088,1.3-12.322.766-18.473.58C342.189,80.626,336.722,81.713,331.4,80.346Z" transform="translate(-21785.943 -584.178)" fill="#bb3437"/>
      <path id="Path_4779" data-name="Path 4779" d="M367.37,80.42a62.205,62.205,0,0,1,7.3,1.015l.5.166c.7.249,2.113.725,2.817.973a44.506,44.506,0,0,1-9.019.083C368.561,82.1,367.764,80.979,367.37,80.42Z" transform="translate(-21784.662 -584.148)" fill="#bd373e"/>
      <path id="Path_4780" data-name="Path 4780" d="M372.308,87.612c4.422.01,9.143-.611,13.109,1.8-8.429-.725-16.878-.114-25.317-.424C363.983,87.457,368.218,87.747,372.308,87.612Z" transform="translate(-21784.918 -583.896)" fill="#b23d3d"/>
      <path id="Path_4787" data-name="Path 4787" d="M477.44,89.649c.135-1.854,4.432-2.941,5.011-.942A13.493,13.493,0,0,1,477.44,89.649Z" transform="translate(-21780.762 -583.893)" fill="#851741"/>
      <path id="Path_4789" data-name="Path 4789" d="M356.8,89.913c1.139-.311,2.278-.632,3.417-.973,8.439.311,16.888-.3,25.317.424.477.062,1.429.2,1.905.269,1.74.3,3.49.642,5.24.984l-1.646.4a149.059,149.059,0,0,0-15.055-.746c-5.209-1.481-10.676.331-16.019-.176C359.171,90.058,357.587,89.955,356.8,89.913Z" transform="translate(-21785.035 -583.846)" fill="#f3bab9"/>
      <path id="Path_4791" data-name="Path 4791" d="M253.847,91.37c3.075,3.5,5.312,8.657,3.272,13.223-1.108,4.68-5.136,7.662-8.967,10.106-12.353,6.927-26.756,9.878-38.115,18.587-.456-.083-1.357-.248-1.8-.331-.528-.911-1.056-1.8-1.594-2.692q1.678-1.1,3.355-2.174c9.681-6.337,21.123-8.926,31.613-13.544,5.157-2.123,10.137-5.55,12.426-10.831C255.607,99.705,255.089,95.388,253.847,91.37Z" transform="translate(-21790.346 -583.76)" fill="#e13a3d"/>
      <path id="Path_4797" data-name="Path 4797" d="M551.855,109.515c1.169-.062,2.34-.135,3.52-.155a35.305,35.305,0,0,1,4.754.7c-.271.362-.819,1.077-1.1,1.439a13.477,13.477,0,0,0-14.59,6.13c-1.678,3.262-.745,7.2.362,10.479,1.667,2.827,4.7,4.566,7.652,5.819,3.262,1.512,6.523-.683,9.495-1.874.1-.694.3-2.071.394-2.765a32.414,32.414,0,0,0,2.869-4.463c.3-.083.879-.259,1.179-.342l-1.055-.207a24.5,24.5,0,0,0-1.885-8.449c.548-.394,1.636-1.18,2.185-1.584a23.38,23.38,0,0,1,2.589,5.467c.476,4.711-.684,9.609-4.236,12.943a14.229,14.229,0,0,1-12.011,3.055c-.849-.331-1.7-.652-2.547-.984-6.7-3.1-9.537-11.742-6.337-18.307A13.59,13.59,0,0,1,551.855,109.515Z" transform="translate(-21778.475 -583.122)" fill="#69244a"/>
      <path id="Path_4799" data-name="Path 4799" d="M560.068,110.04a34.3,34.3,0,0,1,5.509,4.183c-.549.4-1.637,1.191-2.185,1.584-.2.394-.58,1.191-.766,1.584a17.64,17.64,0,0,0-1.542,10.9c-.457.87-.911,1.729-1.357,2.6.859-.528,1.709-1.067,2.558-1.626-.093.694-.29,2.071-.394,2.765-2.972,1.191-6.233,3.386-9.495,1.874-2.951-1.253-5.985-2.992-7.652-5.819-1.108-3.282-2.04-7.217-.363-10.479a13.478,13.478,0,0,1,14.59-6.13C559.251,111.117,559.8,110.4,560.068,110.04Z" transform="translate(-21778.408 -583.098)" fill="#801757"/>
      <path id="Path_4802" data-name="Path 4802" d="M456.82,112.95c1.357.414,2.713.839,4.06,1.325,1,.89,1.936,1.864,2.9,2.806C460.869,116.854,458.642,115.073,456.82,112.95Z" transform="translate(-21781.49 -582.995)" fill="#f1c8d2"/>
      <path id="Path_4803" data-name="Path 4803" d="M484.71,113.45a49.529,49.529,0,0,1,6.958,5.415,136.769,136.769,0,0,1,10.448,10.2c3.386,3.655,5.83,8.035,9.111,11.773l.083.1c5.354,7.766,9.423,16.329,13.181,24.954a49.338,49.338,0,0,1,2.806,8.366c-.611-1.222-1.273-2.412-1.926-3.593a19.713,19.713,0,0,0,3.013,10.127l.435-1.067.27-.621a82.451,82.451,0,0,1,2.951,11.328c-.062,2.237-.238,4.474-.414,6.7a25.311,25.311,0,0,1-2.848-1.584c-1.75-4.194-2.351-8.77-3.925-13.026-.227.311-.673.932-.9,1.243-.559-1.822-1.17-3.635-1.76-5.447q-2.221-6.632-4.794-13.13c-1.843-4.484-3.852-8.895-5.933-13.264-.581-1.16-1.181-2.309-1.771-3.448a130.806,130.806,0,0,0-10.313-17.054c-1.078-1.543-2.144-3.1-3.251-4.618a75.018,75.018,0,0,0-8.491-9.63C486.6,115.976,485.642,114.723,484.71,113.45Z" transform="translate(-21780.484 -582.978)" fill="#a02a58"/>
      <path id="Path_4804" data-name="Path 4804" d="M562.069,117.194c.186-.394.569-1.191.766-1.584a24.5,24.5,0,0,1,1.884,8.449c.27.052.787.155,1.057.207-.3.083-.881.259-1.18.342a32.467,32.467,0,0,1-2.869,4.463c-.849.559-1.7,1.1-2.558,1.626.445-.87.9-1.729,1.356-2.6A13.966,13.966,0,0,0,562.069,117.194Z" transform="translate(-21777.85 -582.901)" fill="#fdd2f0"/>
      <path id="Path_4816" data-name="Path 4816" d="M560.491,128.043a17.65,17.65,0,0,1,1.542-10.9A13.958,13.958,0,0,1,560.491,128.043Z" transform="translate(-21777.83 -582.846)" fill="#621a46"/>
      <path id="Path_4817" data-name="Path 4817" d="M567.465,119.426a3.317,3.317,0,0,1,2.848-1.936c.113,5.115-.021,10.23.124,15.346-2.351.756-5.218,1.512-7.207-.466C566.782,129.035,567.941,124.138,567.465,119.426Z" transform="translate(-21777.717 -582.834)" fill="#d6ced6"/>
      <path id="Path_4820" data-name="Path 4820" d="M189.895,139.55q1.786,2.3,3.4,4.722c-.611,2.092-1.2,4.194-1.7,6.327l-.911-2.443A20.512,20.512,0,0,1,189.895,139.55Z" transform="translate(-21790.939 -582.052)" fill="#f2893b"/>
      <path id="Path_4822" data-name="Path 4822" d="M192.3,150.437c.5-2.133,1.087-4.235,1.7-6.327.394.611,1.191,1.833,1.584,2.444.259.425.787,1.294,1.056,1.719a89.421,89.421,0,0,1,5.923,12.829,20.482,20.482,0,0,0,1.854,10.52c1.439,3.179,2.309,7.176,5.591,9.009,5.8,1.729,13.14-.394,15.863-6.14.538-.663,1.077-1.325,1.646-1.968,2.982-3.023,6.13-5.892,9.371-8.636,1.833-1.481,3.759-2.848,5.7-4.2a56.965,56.965,0,0,1,7.383-4.577,28.463,28.463,0,0,0,4.794.352c-.9,1.512-1.771,3.034-2.713,4.525-.818,1.129-1.822,2.112-2.744,3.158-2.568,2.785-4.918,5.757-7.321,8.677a8.2,8.2,0,0,0-4.67,6.586c-2.133,5.395-4.349,10.759-6.451,16.174-3.738,9.785-5.312,20.233-7.269,30.474-.787,5.374-1.439,10.769-2.133,16.153-.052.435-.156,1.3-.218,1.74-1.159,2.413-2.4,4.774-3.6,7.165-1.45-7.9-.124-15.956-1.222-23.888-.352-6.679.135-14.258-4.453-19.715-2.672-3.666-7.725-4.131-11.877-3.676-7.735.828-14.507,4.908-21.827,7.186l1.336.414a23.9,23.9,0,0,1-9.754,1.553c2.651-1.346,5.188-3.1,6.606-5.778.186-.269.538-.8.714-1.067.611-.31,1.833-.942,2.444-1.263,3.034-2.8,5.861-5.809,8.646-8.853a42.418,42.418,0,0,0,3.354-4.65c.218-.135.652-.424.87-.559,4.1-1.864,4.763-6.689,5.415-10.634,1.274-7-1.284-13.813-2-20.709-.052-1.812-1.45-3.055-2.454-4.391C192.5,153.108,192.454,151.689,192.3,150.437Z" transform="translate(-21791.652 -581.89)" fill="#f2893b"/>
      <path id="Path_4825" data-name="Path 4825" d="M255.587,150.92c1.294.083,2.6.176,3.9.269-1.4,1.294-2.8,2.578-4.225,3.831a69.023,69.023,0,0,1-5.964,4.722c.942-1.491,1.812-3.013,2.713-4.525a28.483,28.483,0,0,1-4.794-.352C249.964,153.467,252.791,152.235,255.587,150.92Z" transform="translate(-21788.92 -581.649)" fill="#f2893b"/>
      <path id="Path_4827" data-name="Path 4827" d="M204.22,152.48c1.139.87,2.206,1.822,3.262,2.8.694.249,1.387.507,2.092.777-.684,1.532-1.346,3.075-2.019,4.608-.88-2.04-1.76-4.069-2.682-6.088C204.717,154.043,204.386,153,204.22,152.48Z" transform="translate(-21790.434 -581.593)" fill="#e13a3d"/>
      <path id="Path_4828" data-name="Path 4828" d="M192.663,153.74c1,1.336,2.4,2.578,2.454,4.39.714,6.9,3.272,13.709,2,20.709-.652,3.945-1.315,8.77-5.415,10.634.248-.559.735-1.657.973-2.216,3.469-7.155,3.086-15.418,1.719-23.049l-.093-.694C193.812,160.243,193.056,157.022,192.663,153.74Z" transform="translate(-21790.881 -581.549)" fill="#f2893b"/>
      <path id="Path_4829" data-name="Path 4829" d="M201.443,160.52c.5,1.191,1.036,2.371,1.532,3.583,2.516,5.022,2.485,11.618,7.166,15.335,5.571,1.077,10-3.168,14.61-5.53-2.723,5.747-10.064,7.87-15.863,6.141-3.282-1.833-4.152-5.83-5.591-9.009A20.484,20.484,0,0,1,201.443,160.52Z" transform="translate(-21790.553 -581.309)" fill="#f2893b"/>
      <path id="Path_4834" data-name="Path 4834" d="M179.92,169.553a12.109,12.109,0,0,1,13.006.756c.383,1.708.839,3.407,1.242,5.115-1.274-.8-3.344-.807-4.163-2.133.238-.238.725-.725.963-.973C187.986,169.17,183.42,171.593,179.92,169.553Z" transform="translate(-21791.318 -581.043)" fill="#f2893b"/>
      <path id="Path_4835" data-name="Path 4835" d="M523.98,168.71c.652,1.18,1.315,2.371,1.926,3.593a18.192,18.192,0,0,1,1.522,5.467l-.435,1.066A19.713,19.713,0,0,1,523.98,168.71Z" transform="translate(-21779.109 -581.017)" fill="#7c284a"/>
      <path id="Path_4836" data-name="Path 4836" d="M179.715,170.26c.611.683,1.191,1.377,1.76,2.1-.652,2.205-2.8,5.1-.58,7.093a14.493,14.493,0,0,0,7.1,2.464c2.848-.859,4.37-3.759,6.109-5.954.072,6.233-7.807,9.9-12.622,6.1-3.106-1.74-3.313-5.6-2.93-8.75C178.845,172.548,179.425,171.026,179.715,170.26Z" transform="translate(-21791.359 -580.963)" fill="#f2893b"/>
      <path id="Path_4837" data-name="Path 4837" d="M235,177.456a8.2,8.2,0,0,1,4.67-6.586l-.29.508c-1.118,2.143-2.319,4.256-3.583,6.316Z" transform="translate(-21789.35 -580.941)" fill="#f2893b"/>
      <path id="Path_4838" data-name="Path 4838" d="M181.817,171.3c2.547.114,5.084.2,7.631.331l.56,1.543c.818,1.325,2.889,1.336,4.162,2.133l-.114.621c-1.74,2.2-3.262,5.095-6.109,5.954a14.492,14.492,0,0,1-7.1-2.464c-2.216-1.988-.073-4.887.58-7.093C181.517,172.066,181.724,171.559,181.817,171.3Z" transform="translate(-21791.299 -580.926)" fill="#f58737"/>
      <path id="Path_4843" data-name="Path 4843" d="M522.61,181.4c.228-.311.673-.932.9-1.243,1.574,4.256,2.174,8.833,3.925,13.026a25.416,25.416,0,0,0,2.848,1.584c.175-2.226.351-4.463.413-6.7a64.35,64.35,0,0,1,1.543,8.315c-1.874-.373-4.266.041-5.808-.963C525.105,190.763,524.008,186.041,522.61,181.4Z" transform="translate(-21779.154 -580.612)" fill="#904662"/>
      <path id="Path_4844" data-name="Path 4844" d="M242.259,181.26c2.05,3,2.909,6.575,3.562,10.106-.6-.476-1.8-1.419-2.4-1.895-.332,2.8-.673,5.592-1.067,8.377-.145-1.5-.3-3.013-.456-4.515A56.076,56.076,0,0,1,242.259,181.26Z" transform="translate(-21789.123 -580.573)" fill="#fbbd58"/>
      <path id="Path_4845" data-name="Path 4845" d="M242.678,197.567c.394-2.785.735-5.581,1.066-8.377.6.476,1.8,1.418,2.4,1.9l-.052.755c-.787,14.921.031,29.873-.342,44.8-.435,12.591.456,25.659,6.1,37.121,1,4.66,4.484,7.973,6.72,12,.538,1.191,1.729,1.74,2.8,2.351,3.489,3.282,6.378,7.321,9.536,10.976a16.3,16.3,0,0,0,5.395,4.825c3.78,2.05,6.792,5.229,10.634,7.176,6.616,2.826,12.167,7.787,19.177,9.712a36.948,36.948,0,0,0,13.119,4.95c-4.049,2.816-9.267,3.914-12.6,7.673a25.815,25.815,0,0,1-4.152,3.945c-3.21,2.485-4.939,6.264-6.72,9.806a13.687,13.687,0,0,1-8.48-2.257,92.806,92.806,0,0,1-15.086-10.52c-.166-.135-.507-.414-.683-.559-.446-.269-1.336-.818-1.781-1.1a76.9,76.9,0,0,1-6.523-5.8c-2.216-3.863-5.944-6.751-7.217-11.152-.994.3-1.988.6-2.982.911a100.177,100.177,0,0,1-6.379-8.8c-2.319-3.655-5.457-6.855-6.772-11.069a66.127,66.127,0,0,0-5.509-12.074,36.73,36.73,0,0,0-.445-6.306c-.394-6.337-1.564-12.622-1.367-18.99.135-8.46-.414-17.085,2.019-25.286,1.181-6.14,2.993-12.1,4.763-18.079C240.566,209.951,241.643,203.759,242.678,197.567Z" transform="translate(-21789.438 -580.292)" fill="#fbbd58"/>
      <path id="Path_4846" data-name="Path 4846" d="M361.4,190.778a34.9,34.9,0,0,1,8.024-2,72.41,72.41,0,0,1,22.718.683,65.833,65.833,0,0,1,31,14.507,63.387,63.387,0,0,1,5.581,5.488c7.952,8.511,12.364,19.632,15.708,30.619.694,2.858,1.408,5.726,2.061,8.6.621,4.049.984,8.139,1.294,12.229a37.678,37.678,0,0,0-.994,9.806c-.632-1.533-1.273-3.065-1.885-4.6-.207-.88-.4-1.739-.58-2.609-.518-2.786-.787-5.612-1.408-8.377a59.35,59.35,0,0,0-3.251-10.779c-.549-1.45-1.036-2.9-1.626-4.328-2.785-6.886-7.031-13.068-11.462-18.98-8.884-10.106-21.1-17.769-34.647-19.3-1.687-.166-3.365-.29-5.042-.424a5.049,5.049,0,0,0-6.834.052,141.173,141.173,0,0,0-27.616,6.989,78.53,78.53,0,0,0-8.76,4.121,66.244,66.244,0,0,0-14.186,11.193c-.352.352-.683.714-1,1.087-1.16,1.4-2.143,2.92-3.168,4.432,1.543-8.066,6.678-14.714,12.653-20.078a55.3,55.3,0,0,1,8.356-5.985,61.348,61.348,0,0,1,15.18-6.192,70.35,70.35,0,0,1,16.577-1.926,67.367,67.367,0,0,1,24.831,4.825c-11.276-8.211-26.052-8.066-39.368-7.476-.859.145-1.7.321-2.526.518-.652.155-1.957.456-2.609.6-.362-.145-1.077-.425-1.429-.569C358.434,192.166,359.894,191.42,361.4,190.778Z" transform="translate(-21786.141 -580.327)" fill="#13a64d"/>
      <path id="Path_4848" data-name="Path 4848" d="M359.8,192.738c.828-.2,1.667-.373,2.526-.518,4.742,1.667,10.22-.394,14.538,2.651a70.362,70.362,0,0,0-16.578,1.926C360.162,195.782,359.924,193.752,359.8,192.738Z" transform="translate(-21784.916 -580.184)" fill="#c1ddca"/>
      <path id="Path_4851" data-name="Path 4851" d="M240.748,194.214c.393-.321,1.2-.963,1.594-1.294.155,1.5.311,3.013.456,4.514-1.036,6.192-2.113,12.384-3.365,18.535-1.771,5.975-3.583,11.939-4.763,18.079-2.433,8.2-1.885,16.826-2.019,25.286-.2,6.368.973,12.654,1.367,18.99a28.512,28.512,0,0,1-2.009-7.559c-1.087-5.156-.145-10.8-2-15.7l-.88-1.16c2.413-4.3,1.429-9.423,2.506-14.072.984-5.374,3.117-10.541,3.2-16.06a64.786,64.786,0,0,1,3.6-14.963c.362-.559,1.077-1.688,1.439-2.247C240.033,202.446,240.375,198.325,240.748,194.214Z" transform="translate(-21789.563 -580.159)" fill="#fbbd58"/>
      <path id="Path_4854" data-name="Path 4854" d="M510.18,195q.838-2.252,1.863.176C511.578,195.121,510.646,195.038,510.18,195Z" transform="translate(-21779.588 -580.124)" fill="#992b45"/>
      <path id="Path_4855" data-name="Path 4855" d="M378.18,200.966a5.05,5.05,0,0,1,6.834-.052A17.446,17.446,0,0,1,378.18,200.966Z" transform="translate(-21784.289 -579.922)" fill="#479664"/>
      <path id="Path_4856" data-name="Path 4856" d="M177.97,208.011c7.321-2.278,14.092-6.358,21.827-7.186,4.152-.456,9.205.01,11.877,3.676,4.587,5.457,4.1,13.036,4.453,19.715-.4.435-1.212,1.284-1.615,1.708a50.741,50.741,0,0,0-3.282-16.164c-1.356-4.742-6.254-8.542-11.3-7.373-7.01,1.522-13.813,3.831-20.626,6.037Z" transform="translate(-21791.373 -579.884)" fill="#fff2cf"/>
      <path id="Path_4868" data-name="Path 4868" d="M179.693,208.374c6.813-2.205,13.616-4.514,20.626-6.037,5.043-1.17,9.941,2.63,11.3,7.372a35.889,35.889,0,0,0,3.283,16.164c.269,6.368,1.584,12.83-.021,19.125a205.735,205.735,0,0,1-3.562-21.465c-.818-4.577-1.46-9.785-5.343-12.891-2.723-3.034-7.145-2.081-10.727-1.781-5,1.056-9.93,2.485-14.942,3.49-.766.093-2.3.259-3.065.352a8.466,8.466,0,0,0-5.809.611c-.922.207-2.765.621-3.686.838-.238-1.356-.476-2.7-.7-4.049.963-.062,1.936-.124,2.9-.176A23.9,23.9,0,0,0,179.693,208.374Z" transform="translate(-21791.758 -579.833)" fill="#f2893b"/>
      <path id="Path_4869" data-name="Path 4869" d="M356.635,208.779c11.411-5.426,24.489-7.414,36.863-4.39,18,4.96,32.886,18.338,41.377,34.76l.5.963c-.373-.342-1.1-1.046-1.46-1.4a117.5,117.5,0,0,0-10.955-10.945c-1.729-1.5-3.479-2.961-5.312-4.307a67.608,67.608,0,0,0-10.127-6.368c-4.959-2.371-10.385-4.018-15.936-3.707a22.49,22.49,0,0,0-13.865,5.643c-4.38,3.552-6.886,8.708-9.8,13.409a71.763,71.763,0,0,1,1.025-8.418c2.226-7.082,8.263-12.021,14.89-14.848a27.066,27.066,0,0,0-19.456,13.3,40.537,40.537,0,0,0-4.018,11.69q-1.615.59-3.2,1.18c-1.884-7.486-.207-15.822,5.323-21.382-8.046,5.9-14.559,14.558-15.77,24.7-.135.984-.238,1.978-.321,2.982-1.263.021-2.516.052-3.769.083-.073-.663-.228-2.009-.311-2.682a33.522,33.522,0,0,1,2.35-15.335c.476-1.232.963-2.454,1.522-3.655A57.092,57.092,0,0,1,356.635,208.779Z" transform="translate(-21785.535 -579.803)" fill="#0b8b4f"/>
      <path id="Path_4871" data-name="Path 4871" d="M169.184,207.994c2.734-.911,4.794-3.147,7.6-3.914-1.418,2.682-3.955,4.432-6.606,5.778-.963.052-1.936.114-2.9.176.228,1.346.466,2.692.7,4.049-2.568-.4-5.125-.808-7.683-1.232C163.262,211.235,165.881,208.947,169.184,207.994Z" transform="translate(-21792.008 -579.763)" fill="#f2893b"/>
      <path id="Path_4878" data-name="Path 4878" d="M210.09,209.45a50.734,50.734,0,0,1,3.282,16.163A35.892,35.892,0,0,1,210.09,209.45Z" transform="translate(-21790.229 -579.573)" fill="#c37b50"/>
      <path id="Path_4879" data-name="Path 4879" d="M171.28,212.959a8.467,8.467,0,0,1,5.809-.611l-.176.363A4.843,4.843,0,0,1,171.28,212.959Z" transform="translate(-21791.6 -579.479)" fill="#f2893b"/>
      <path id="Path_4882" data-name="Path 4882" d="M192.02,216.441a10.218,10.218,0,0,1,3.334-.621c.714.021,2.143.072,2.868.093-.632,2.4-1.336,4.794-1.854,7.217a31.482,31.482,0,0,0,2.775,15.843c.849,2.05,1.719,4.09,2.65,6.119-1.294-.932-2.868-1.708-3.469-3.3a33.745,33.745,0,0,1-2.578-23.484A12,12,0,0,0,192.02,216.441Z" transform="translate(-21790.879 -579.348)" fill="#f2893b"/>
      <path id="Path_4883" data-name="Path 4883" d="M183.468,218.563c2.868-1.087,5.943-1.46,8.925-2.143a12,12,0,0,1,3.728,1.864,33.745,33.745,0,0,0,2.579,23.484c.6,1.595,2.175,2.371,3.469,3.3,2.04,3.635,4.453,7.052,6.72,10.551.362.559,1.077,1.688,1.429,2.247.953,1.532,1.926,3.065,2.868,4.618a52.5,52.5,0,0,1,2.651,11.131c-.549,1.916-1.17,3.821-1.791,5.716a31.694,31.694,0,0,0-4.556-11.39l-.849.642c-5.529-10.572-15.925-17.292-21.848-27.574C182.442,234.737,179.263,225.625,183.468,218.563Z" transform="translate(-21791.24 -579.326)" fill="#f1893c"/>
      <path id="Path_4885" data-name="Path 4885" d="M178,221.288c.932-.58,1.874-1.139,2.816-1.688-.321,5.374-1,11.007,1.263,16.081,2.1,7.041,7.341,12.364,11.618,18.12l-.559-.093c-6.234-6.555-13.43-13.15-15.863-22.179C176.157,228.143,177.431,224.643,178,221.288Z" transform="translate(-21791.406 -579.214)" fill="#d2794d"/>
      <path id="Path_4888" data-name="Path 4888" d="M213.261,225.118c.4-.424,1.212-1.273,1.615-1.708,1.1,7.931-.228,15.987,1.222,23.888.29,1.957.652,3.914.963,5.871l-.725.352a33.425,33.425,0,0,1-3.1-9.278C214.845,237.948,213.53,231.487,213.261,225.118Z" transform="translate(-21790.113 -579.078)" fill="#efab78"/>
      <path id="Path_4889" data-name="Path 4889" d="M356.65,234.271q1.585-.59,3.2-1.18a36.967,36.967,0,0,0-.331,4.908c.041,1.543.1,3.086.176,4.639-.653-1.47-1.377-2.909-1.988-4.39Q357.1,236.274,356.65,234.271Z" transform="translate(-21785.023 -578.735)" fill="#236847"/>
      <path id="Path_4894" data-name="Path 4894" d="M216,246.725c1.2-2.392,2.444-4.753,3.6-7.166-.321,4.784-.89,9.547-1.6,14.29l-.808.124c-.062-.342-.176-1.035-.228-1.377C216.652,250.639,216.29,248.682,216,246.725Z" transform="translate(-21790.018 -578.506)" fill="#f2893b"/>
      <path id="Path_4895" data-name="Path 4895" d="M342.61,240.393c1.253-.031,2.506-.062,3.769-.083a40.9,40.9,0,0,0,.756,12.2c.29,1.408.621,2.816.891,4.225C344.795,251.907,343.78,245.984,342.61,240.393Z" transform="translate(-21785.525 -578.479)" fill="#3f7b5f"/>
      <path id="Path_4896" data-name="Path 4896" d="M428.275,241.631c1.615-.29,2.185,1.626,2.92,2.661a58.7,58.7,0,0,1,4.463,9.267c.414,1.149.808,2.309,1.2,3.479-.777,7.973,3.116,15.387,3.013,23.308.539,8.6-2.185,16.888-3.955,25.193-3.521,9.423-8.626,18.483-16.195,25.255-2.609,1.957-5.644,3.262-8.211,5.27-3.583,2.817-8.315,3.179-12.384,5l2.433.538c-2.8.663-5.591,1.294-8.428,1.688a107.365,107.365,0,0,1-15.377.331c-5.229-.29-10.458-.611-15.666-1.159-5.074-.559-10.158-.963-15.231-1.5a119.7,119.7,0,0,0-16.008-.383c-5.675.393-11.38,2.05-15.843,5.685l-.393.279a16.864,16.864,0,0,0-6.741,15.511c.6,6.927,4.194,13.088,8.553,18.328l-.5.787a54.069,54.069,0,0,1-5.229-3.956c-4.6-3.852-7.145-9.464-8.791-15.1a37.9,37.9,0,0,1,1.615-15.407c4.835-11.121,16.4-17.448,27.543-20.709,2.113-.6,4.173-1.346,6.244-2.081,8.149-1.719,16.567-1.377,24.82-2.392,5.167-.166,10.344-.2,15.49-.766a76.881,76.881,0,0,0,14.476-2.433c1.17-.28,1.812-1.4,2.7-2.113,5.084.114,9.754-2.061,13.968-4.691a26.435,26.435,0,0,0,6.834-5.705c3.21-3.686,6.668-7.258,8.667-11.794a48.5,48.5,0,0,0,3.852-9.619c2.847-9.754,3.324-20.15,2.578-30.163l-.176-.839C429.921,249.469,428.234,245.483,428.275,241.631Z" transform="translate(-21786.998 -578.433)" fill="#5cbfd2"/>
      <path id="Path_4898" data-name="Path 4898" d="M442.355,246.61a11.481,11.481,0,0,1,2.454,6.71c-.217,5.188-.684,10.437.4,15.573.9,5.125-.331,10.3-1.335,15.325-.5.083-1.492.259-1.989.342,1.47-8.48,2.92-17.116,1.76-25.721C443.339,254.749,442.977,250.659,442.355,246.61Z" transform="translate(-21782.033 -578.255)" fill="#b5e4ca"/>
      <path id="Path_4899" data-name="Path 4899" d="M228.032,253.943c.29-.528.849-1.594,1.139-2.123l.88,1.16c.4,3.49,1.1,7.559-1.719,10.271A69.843,69.843,0,0,1,228.032,253.943Z" transform="translate(-21789.605 -578.071)" fill="#fffbe8"/>
      <path id="Path_4900" data-name="Path 4900" d="M230.12,252.94c1.853,4.9.911,10.541,2,15.7h-3.148c.559,5.446,1.16,11,3.22,16.122l.984,1.273a32.9,32.9,0,0,1,1.284,3.117c-.518.859-1.532,2.588-2.05,3.458a31.9,31.9,0,0,1-2.351-8.273c-1.791-5.156-2.558-10.551-4.028-15.781l.28-.373c.2-.249.59-.735.787-.984l.8-1c.186-.994.352-1.988.507-2.982C231.218,260.5,230.524,256.429,230.12,252.94Z" transform="translate(-21789.688 -578.031)" fill="#fff9c1"/>
      <path id="Path_4903" data-name="Path 4903" d="M227.065,267.165c.176-4.411-.88-9.133,1-13.3a69.889,69.889,0,0,0,.3,9.309c-.155.994-.321,1.988-.507,2.982Z" transform="translate(-21789.629 -577.998)" fill="#beb285"/>
      <path id="Path_4904" data-name="Path 4904" d="M433.522,256.51a58.124,58.124,0,0,1,2.568,7.973c3.086,11.2,1.792,23.07-.114,34.367-2.526,8.884-5.084,18.131-11.069,25.389-5.012,5.83-10.613,11.38-17.769,14.5-.776.207-1.542.425-2.309.632-2.206.59-4.391,1.211-6.606,1.708l-2.433-.538c4.069-1.823,8.8-2.185,12.384-5,2.568-2.009,5.6-3.314,8.211-5.271,7.569-6.772,12.674-15.832,16.194-25.255,1.771-8.3,4.494-16.588,3.956-25.193C436.638,271.9,432.745,264.483,433.522,256.51Z" transform="translate(-21783.65 -577.905)" fill="#5cbfd2"/>
      <path id="Path_4905" data-name="Path 4905" d="M443.826,258.42c1.16,8.6-.29,17.24-1.76,25.721-1.15,4.784-2.175,9.9-4.888,14.062l-.238.28a86.7,86.7,0,0,0,3.344-14.755,116.326,116.326,0,0,0,.663-20.1c.61,1.532,1.252,3.065,1.883,4.6A37.71,37.71,0,0,1,443.826,258.42Z" transform="translate(-21782.186 -577.837)" fill="#2a9351"/>
      <path id="Path_4907" data-name="Path 4907" d="M208.559,266.18a31.7,31.7,0,0,1,4.556,11.39c.621-1.9,1.242-3.8,1.791-5.716a37.493,37.493,0,0,1,.269,11.783c-.59,3.759-.818,7.7-2.651,11.121l-.8,1.264c-.414-6.586.953-13.348-1.025-19.767-.662-2.537-1.781-4.908-2.63-7.373l-.166-.787-.2-1.273Z" transform="translate(-21790.318 -577.561)" fill="#dd9554"/>
      <path id="Path_4908" data-name="Path 4908" d="M228.87,268.1h3.148a28.526,28.526,0,0,0,2.009,7.559,36.774,36.774,0,0,1,.445,6.306c-.352.89-1.046,2.651-1.4,3.531l-.984-1.274C230.03,279.1,229.429,273.546,228.87,268.1Z" transform="translate(-21789.549 -577.493)" fill="#fbbd58"/>
      <path id="Path_4912" data-name="Path 4912" d="M234.24,287.91c3.738,9.474,9.454,18.037,15.335,26.3,1.025,1.408,2.029,2.816,3.127,4.173q-2.361,1.755-4.68,3.593c-2.247-2.868-3.842-6.171-5.674-9.309-.342-.549-1-1.667-1.335-2.216-2.786-4.318-4.111-9.34-6.389-13.906-.807-1.729-1.646-3.448-2.433-5.177C232.708,290.5,233.722,288.769,234.24,287.91Z" transform="translate(-21789.449 -576.791)" fill="#f5bb27"/>
      <path id="Path_4913" data-name="Path 4913" d="M225.97,293.21l1.336.321a45.759,45.759,0,0,1,2.889,5.457c2.112,5.726,5.26,10.955,8.428,16.153.321.446.953,1.336,1.274,1.781,3.179,4.235,6.275,8.542,9.785,12.519,1.885,2.257,3.966,4.339,6.006,6.461,1.284,1.45,1.906,3.23.8,5.012a66.3,66.3,0,0,1-16.05-3.21c-4.794-1.76-8.532-5.374-12.27-8.719-.621-1.511-1.387-3.2-3.1-3.7a14.773,14.773,0,0,0-2.464-5.353c-1.139-6.979-1.771-14.186.611-21A63.258,63.258,0,0,1,225.97,293.21Z" transform="translate(-21789.838 -576.603)" fill="#fbbb1d"/>
      <path id="Path_4917" data-name="Path 4917" d="M238.04,314.557q1.367-2.455,2.765-4.877c.331.549.994,1.667,1.336,2.216-.953,1.481-1.9,2.951-2.827,4.442C238.992,315.893,238.361,315,238.04,314.557Z" transform="translate(-21789.242 -576.019)" fill="#f9f2be"/>
      <path id="Path_4931" data-name="Path 4931" d="M303.59,316.3a22.268,22.268,0,0,1,11.887,2.93c1.346,1.067,4.856.414,4.794,2.454-1.605.787-3.293,1.388-4.918,2.133-2.951,1.263-5.7,2.951-8.574,4.36-.663.186-2,.559-2.671.745,3.334-3.759,8.553-4.856,12.6-7.672A36.955,36.955,0,0,1,303.59,316.3Z" transform="translate(-21786.928 -575.786)" fill="#e3c793"/>
      <path id="Path_4932" data-name="Path 4932" d="M247.48,320.933q2.314-1.833,4.68-3.593c.891.994,1.833,1.978,2.8,2.92,2.879,2.713,5.674,5.5,8.491,8.273a69.279,69.279,0,0,0,6.782,5.768,154.7,154.7,0,0,0,19.7,13.109,28.055,28.055,0,0,1,1.139,9.505c-1.335.124-2.671.249-4.007.352-.321-.145-.973-.435-1.3-.58-6.171-5.53-13.637-9.505-19.394-15.531-3.427-3.759-7.631-6.73-10.955-10.593-.683-.787-1.346-1.574-1.988-2.381Q250.535,324.485,247.48,320.933Z" transform="translate(-21788.893 -575.748)" fill="#fbbb19"/>
      <path id="Path_4933" data-name="Path 4933" d="M224.956,324.19c1.709.5,2.475,2.185,3.1,3.7C225.474,329.1,224.314,326.281,224.956,324.19Z" transform="translate(-21789.701 -575.505)" fill="#fff6cd"/>
      <path id="Path_4944" data-name="Path 4944" d="M239.79,336.18a66.256,66.256,0,0,0,16.05,3.21l-.269.828A48.26,48.26,0,0,1,240,337.609C239.945,337.257,239.842,336.542,239.79,336.18Z" transform="translate(-21789.178 -575.08)" fill="#fceaa0"/>
      <path id="Path_4952" data-name="Path 4952" d="M326.7,342.317c6.4-1.584,13.026-.724,19.508-.207,2.433.218,4.867.549,7.3.818-1.512.228-3.013.477-4.5.767,5.913.849,11.866,1.387,17.831,1.677a13.979,13.979,0,0,0,6.834-1.439,79.627,79.627,0,0,1,8.014.394c3.748,1.615,8.19,1.636,11.493-.994,2.961-.725,5.9-1.543,8.915-2.1-2.309,2.951-5.819,4.37-9.236,5.571-12.695,4.069-26.28,3.51-39.4,2.464,9.868-.942,19.974,1.647,29.666-.922-8.19-.807-16.422.549-24.623-.352-11.049.424-22.542-2.133-33.135,2.164-4.059,1.326-6.192,5.374-7.569,9.123-.818,1.968.435,3.925,1.015,5.778.145-.611.445-1.812.59-2.423a8.576,8.576,0,0,0,9.454,6.13c.466-.155,1.387-.486,1.854-.642,2.454-.828,4-3.085,4.9-5.395-.124,1.46-.29,2.92-.456,4.38.735-1.367,1.47-2.734,2.206-4.09.445,1.8.9,3.6,1.387,5.4-.331.7-.642,1.409-.952,2.123l-.321.155c-3.251,1.367-6.088,3.552-9.309,4.96a10.783,10.783,0,0,1-11.907-5.8c-3.262-4.732-2.91-10.562-3.2-16.008l.021-.062A27.363,27.363,0,0,0,318,349.182C320.329,346.159,324.658,345.662,326.7,342.317Z" transform="translate(-21786.574 -574.901)" fill="#3096ba"/>
      <path id="Path_4957" data-name="Path 4957" d="M315.751,348.7a23.738,23.738,0,0,1,10.945-6.42c-2.039,3.345-6.368,3.842-8.7,6.865a27.367,27.367,0,0,1-4.929,4.607A20.8,20.8,0,0,1,315.751,348.7Z" transform="translate(-21786.588 -574.863)" fill="#3f899e"/>
      <path id="Path_4958" data-name="Path 4958" d="M347.77,343.636c1.491-.29,2.992-.539,4.5-.766,1.625.114,3.262.249,4.9.342,5.074.425,10.168.6,15.263.662a13.978,13.978,0,0,1-6.834,1.439C359.636,345.024,353.682,344.485,347.77,343.636Z" transform="translate(-21785.348 -574.842)" fill="#34839a"/>
      <path id="Path_4959" data-name="Path 4959" d="M387,343.685c.849-.062,1.688-.145,2.547-.238l1.274-.187c-3.3,2.63-7.745,2.61-11.493.994C381.887,344.12,384.445,343.912,387,343.685Z" transform="translate(-21784.24 -574.828)" fill="#3d869c"/>
      <path id="Path_4962" data-name="Path 4962" d="M288.578,346.38c1.284.311,3.385.859,3.034,2.64.093,3.158-.021,6.327-.021,9.485-.8.021-2.392.052-3.189.073a20.016,20.016,0,0,1-2.692-2.341c1.336-.1,2.672-.228,4.007-.352A28.075,28.075,0,0,0,288.578,346.38Z" transform="translate(-21787.545 -574.719)" fill="#deba4e"/>
      <path id="Path_4963" data-name="Path 4963" d="M325.209,349.937c10.593-4.3,22.086-1.74,33.134-2.164,8.2.9,16.433-.455,24.624.352-9.692,2.568-19.8-.021-29.666.921-7.373.487-14.808-.207-22.128.808l-.715.093c-4.059.6-8.211,2.734-9.941,6.637a44.574,44.574,0,0,0-1.273,5.829c-.145.611-.445,1.812-.59,2.423-.58-1.854-1.833-3.811-1.015-5.778C319.016,355.311,321.149,351.262,325.209,349.937Z" transform="translate(-21786.434 -574.681)" fill="#3096ba"/>
      <path id="Path_4965" data-name="Path 4965" d="M311.844,357.945c.352-1.532.787-3.034,1.253-4.525.29,5.447-.062,11.276,3.2,16.008a10.783,10.783,0,0,0,11.908,5.8c3.22-1.409,6.057-3.593,9.308-4.96-1.77,5.819-8.48,7.238-13.792,6.523C314.836,375.641,311,365.9,311.844,357.945Z" transform="translate(-21786.627 -574.468)" fill="#3096ba"/>
      <path id="Path_4966" data-name="Path 4966" d="M334.442,356.05c.932.383,1.875.777,2.827,1.15.963,3.489,1.646,7.113.714,10.7-.486-1.8-.942-3.6-1.387-5.405q-1.1,2.035-2.205,4.09c.166-1.46.331-2.92.456-4.38a45.666,45.666,0,0,0-.28-4.763C334.535,357.086,334.473,356.392,334.442,356.05Z" transform="translate(-21785.838 -574.375)" fill="#42828c"/>
    </g>
  </g>
</svg>
