<svg xmlns="http://www.w3.org/2000/svg" xmlns:xlink="http://www.w3.org/1999/xlink" width="944" height="944" viewBox="0 0 944 944">
  <defs>
    <clipPath id="clip-path">
      <path id="Path_3621" data-name="Path 3621" d="M0,0H362V254.741H0Z" transform="translate(26 353)" fill="#bdc6cf" opacity="0.13"/>
    </clipPath>
    <clipPath id="clip-Artboard_16">
      <rect width="944" height="944"/>
    </clipPath>
  </defs>
  <g id="Artboard_16" data-name="Artboard – 16" clip-path="url(#clip-Artboard_16)">
    <rect width="944" height="944" fill="#fff"/>
    <g id="Mask_Group_63" data-name="Mask Group 63" transform="translate(275 -8)" clip-path="url(#clip-path)">
      <g id="mall-of-qatar-logo" transform="translate(26 362.829)">
        <g id="_b53c1ac1" data-name="#b53c1ac1">
          <path id="Path_4967" data-name="Path 4967" d="M0,0H25.63c-2.993,1.81-6.564,1.339-9.907,1.327C10.486,1.158,5.249,1.158,0,1.207Z" fill="#b53c1a" opacity="0.76"/>
        </g>
        <g id="_f05023ff" data-name="#f05023ff">
          <path id="Path_4968" data-name="Path 4968" d="M25.63,0h.543c.145,3.644.567,7.264,1.05,10.884C31.53,41.787,35.693,72.7,40,103.6c-13.334.048-26.667.012-40,.024V1.207c5.249-.048,10.486-.048,15.723.121C19.065,1.339,22.637,1.81,25.63,0Z" fill="#f05023"/>
          <path id="Path_4969" data-name="Path 4969" d="M44.838.066q5,0,10.015-.024-.018,51.694,0,103.375c-3.342-.024-6.673-.024-10.015-.024Q44.874,51.735,44.838.066Z" transform="translate(255.743 0.236)" fill="#f05023"/>
        </g>
        <g id="_fdb713ff" data-name="#fdb713ff" transform="translate(56.943)">
          <path id="Path_4970" data-name="Path 4970" d="M8.494,0H17.7l.109.845c.459,34.245.145,68.5.241,102.748-3.161.036-6.323.048-9.484.06.072-34.547-.1-69.094.084-103.641Z" transform="translate(-8.494)" fill="#fdb713"/>
          <path id="Path_4971" data-name="Path 4971" d="M28.165.053C36.2.066,44.249.078,52.3.041q-.018,51.694,0,103.375-6.679-.036-13.358-.012C35.3,68.966,31.833,34.492,28.165.053Z" transform="translate(103.7 0.236)" fill="#fdb713"/>
        </g>
        <g id="_914099ff" data-name="#914099ff" transform="translate(92.394)">
          <path id="Path_4972" data-name="Path 4972" d="M13.783,0H31.967c.241,34.547.024,69.094.109,103.641-6.082-.012-12.163-.024-18.245.012C13.807,69.106,13.891,34.547,13.783,0Z" transform="translate(-13.783)" fill="#914099"/>
        </g>
        <g id="_e51890ff" data-name="#e51890ff" transform="translate(130.669)">
          <path id="Path_4973" data-name="Path 4973" d="M19.554,0H59.47c.157,34.547.024,69.106.072,103.653q-20.037-.054-40.049,0C19.554,69.094,19.421,34.547,19.554,0Z" transform="translate(-19.492)" fill="#e51890"/>
        </g>
        <g id="_d22030ff" data-name="#d22030ff" transform="translate(229.653)">
          <path id="Path_4974" data-name="Path 4974" d="M42.029,0H86.82c-8.048,34.619-16.724,69.082-25,103.641q-13.792-.018-27.56,0Q38.149,51.82,42.029,0Z" transform="translate(-34.258)" fill="#d22030"/>
        </g>
        <g id="_76be43ff" data-name="#76be43ff" transform="translate(335.007)">
          <path id="Path_4975" data-name="Path 4975" d="M50.01,0H76.967V103.351c-8.978.615-17.991.121-26.993.3C50,69.106,49.949,34.547,50.01,0Z" transform="translate(-49.973)" fill="#76be43"/>
        </g>
        <g id="_000000ff" data-name="#000000ff" transform="translate(0 130.501)">
          <path id="Path_4976" data-name="Path 4976" d="M19.97,19.467c.941.024,2.824.048,3.765.06-.06,8.76-.024,17.509.024,26.269-.06,3.656.012,7.65-2.172,10.812C16.374,64.343,1.52,62.774,0,52.735V49.585c.531-2.124,1.134-4.223,1.726-6.311,1.086.35,2.172.712,3.246,1.062-.41,3-1.545,6.166-.555,9.171,1.894,4.573,8.242,5.116,12.115,2.9,2.836-1.617,3.427-5.116,3.439-8.1C20.043,38.689,19.9,29.084,19.97,19.467Z" transform="translate(0 -19.467)"/>
          <path id="Path_4977" data-name="Path 4977" d="M140.455,19.469l3.656.048c-.06,6.649.036,13.285-.109,19.934,3.813-3.33,9.653-5.9,14.335-2.679,4.211,2.836,3.753,8.362,3.934,12.791,9.677.024,19.367-.036,29.044.036-.507-3.149-1.6-6.709.362-9.581,2.8-5.068,11.524-5.587,14.142-.1,1.46,4.235.772,8.833.869,13.225q-84.255.018-168.511.024c-.965,2.1-1.508,4.585-3.355,6.142-2.015,1.472-4.489,2.088-6.781,2.993-.3-1.17-.6-2.329-.893-3.487,2.5-1.146,6.226-1.81,6.733-5.092.772-5.575.217-11.234.338-16.845,1.243-.012,2.5-.036,3.753-.048q-.036,6.371-.012,12.718c33.545-.036,67.091.133,100.624-.084,2.655-5.249,1.8-11.2,1.87-16.845-.012-4.392,0-8.772,0-13.153m8.905,20.308c-3.8,1.991-5.72,6.033-7.409,9.75,5.527.072,11.065.121,16.58-.157-.181-2.437.012-4.947-.736-7.288-1.231-3.33-5.647-3.9-8.435-2.3m44.659,5.876c.869,4.211,5.889,3.584,9.122,3.994.157-4.151.229-9.038-4.4-10.763C196.167,40.211,192.982,42.227,194.019,45.653Z" transform="translate(154.852 -19.457)"/>
          <path id="Path_4978" data-name="Path 4978" d="M52.762,25.621c-2.558-1.858,0-5.864,2.775-5.056a31.776,31.776,0,0,1,3.029,2.691C57.335,24.958,54.922,27.95,52.762,25.621Z" transform="translate(294.927 -13.808)"/>
          <path id="Path_4979" data-name="Path 4979" d="M54.752,20.607c2.124-.76,3.379,1.581,4.815,2.631C58.24,24.553,57.2,26.882,54.921,26.4,52.17,25.772,52.025,21.38,54.752,20.607Z" transform="translate(301.045 -13.814)"/>
          <path id="Path_4980" data-name="Path 4980" d="M9.646,22.6c3.342-1.195,7.8-.869,9.967,2.293,2.051,3.041,1.6,6.962,2.027,10.45q43.259,0,86.518.012c2.1-.1,4.32-.024,6.287-.917,2.317-4.477,3.548-11.174,9.5-12.067,7.6-1.243,12.332,9.955,6.576,14.794-3.692,3.355-8.893,1.617-13,.121-4.79,2.353-10.22,1.545-15.361,1.641q-40.453,0-80.931.024c-2.256,5.671-8.169,7.976-13.865,8.326-.084-.833-.265-2.5-.35-3.33,4.091-.676,8.229-1.919,11.017-5.213-3.572-.229-7.843.881-10.788-1.762-4.525-3.8-3.174-12.284,2.4-14.371m-1.4,8.881c.772,4.428,6.094,3.548,9.376,3.5.181-4.115-.314-8.821-4.851-10.341-2.413,1.484-5.49,3.487-4.525,6.842m110.229,2.606c3.306.7,7.324,2.522,10.281-.048,2.7-3.161-.929-9.026-5.044-7.976C120.575,27.563,119.67,31.134,118.475,34.091Z" transform="translate(25.83 -5.227)"/>
          <path id="Path_4981" data-name="Path 4981" d="M0,29.925c.845.012,2.546.048,3.4.06C7.566,36.091,11.668,42.233,15.88,48.3c4.115-6.094,8.266-12.175,12.368-18.269l3.463-.145q.036,16.724.012,33.461c-.941-.012-2.812-.012-3.753-.024q.054-13.231.024-26.45c-4.079,5.864-8.048,11.813-12.224,17.617-4.1-5.864-8.048-11.837-12.26-17.617.3,8.772.145,17.557.241,26.329-.941.06-2.812.169-3.753.229Z" transform="translate(0 39.977)"/>
          <path id="Path_4982" data-name="Path 4982" d="M5.175,64.008c5.394-11.367,10.595-22.83,15.892-34.245,3.741.3,4.513,4.187,5.913,6.938,4.163,9.122,8.326,18.257,12.646,27.307-1.014.024-3.065.084-4.091.109q-2.1-4.525-4.151-9.074-9.05-.036-18.124-.012-2.027,4.543-4.091,9.062c-1-.024-2.993-.06-3.994-.084m9.641-12.392c5.008,0,10.015.012,15.023-.012-2.582-5.442-5.02-10.944-7.481-16.447C19.86,40.659,17.4,46.162,14.816,51.616Z" transform="translate(29.517 39.258)"/>
          <path id="Path_4983" data-name="Path 4983" d="M10.725,29.894l3.741.048c-.036,9.943-.012,19.9-.012,29.841q9.448-.018,18.9-.012c0,.893.012,2.655.024,3.548q-11.331-.018-22.649,0Q10.725,46.613,10.725,29.894Z" transform="translate(61.144 40.008)"/>
          <path id="Path_4984" data-name="Path 4984" d="M14.561,29.967c.9-.024,2.715-.048,3.62-.072q-.036,14.933-.012,29.853c6.4.048,12.791.012,19.186.036-.109.821-.326,2.474-.434,3.306-7.433.543-14.9.072-22.36.205Q14.543,46.625,14.561,29.967Z" transform="translate(83.022 40.008)"/>
          <path id="Path_4985" data-name="Path 4985" d="M30.53,30.922c8.567-3.475,19.451,1.339,22.01,10.365,3.644,9.81-3.27,22.287-14.021,23.035-8.483,1.291-17.123-4.9-18.438-13.406-1.738-8,2.606-17.147,10.45-19.994m1,3.415c-6.926,2.787-9.822,11.7-6.938,18.365,2.269,5.8,8.966,9.665,15.1,7.94,7.686-1.7,11.886-10.92,9.207-18.088C46.832,35.519,38.337,31.139,31.532,34.337Z" transform="translate(112.363 39.403)"/>
          <path id="Path_4986" data-name="Path 4986" d="M25.5,29.906c8.012.012,16.025-.048,24.049.036-.024.821-.048,2.474-.06,3.294q-10.154.036-20.308,0c-.036,3.97-.048,7.94-.06,11.91,6.094,0,12.187-.012,18.281.012.012.869.012,2.631.012,3.511-6.094.012-12.187,0-18.281,0,0,4.863,0,9.726.036,14.589-.9.024-2.739.06-3.644.084C25.476,52.193,25.512,41.056,25.5,29.906Z" transform="translate(145.436 40.02)"/>
          <path id="Path_4987" data-name="Path 4987" d="M36.441,34.095c6.926-6.625,19.5-5.442,24.906,2.522,4.73,6.48,3.922,15.566-.567,21.949,1.46,1.219,2.932,2.437,4.392,3.656-.821.965-1.653,1.931-2.486,2.908q-2.244-2.009-4.489-3.994c-6.238,4.091-15.047,4.585-21.02-.253-8.205-6.323-8.338-19.934-.736-26.788m3.9,1.472c-7.964,5.358-7.433,18.776.857,23.566,4.332,2.92,9.69,1.738,14.2-.048-2.039-2.051-4.151-3.994-6.323-5.876.881-.941,1.762-1.87,2.655-2.8q3.167,2.914,6.4,5.78c2.606-4.875,3.885-10.957.917-15.988C55.712,33.552,46.36,31.042,40.339,35.567Z" transform="translate(176.113 39.452)"/>
          <path id="Path_4988" data-name="Path 4988" d="M36.335,63.96c5.346-11.367,10.57-22.794,15.844-34.2,1.545.591,3.451.941,3.934,2.787,4.923,10.462,9.653,21.032,14.6,31.482l-4.1.048q-2.063-4.525-4.115-9.05-9.05-.018-18.1,0c-1.376,3.053-2.763,6.094-4.187,9.122l-3.873-.193M45.928,51.6c5.008.024,10.015.012,15.023.012-2.582-5.454-5.008-10.981-7.518-16.459C50.984,40.659,48.522,46.162,45.928,51.6Z" transform="translate(207.243 39.258)"/>
          <path id="Path_4989" data-name="Path 4989" d="M40.8,33.187c.036-1.1.084-2.2.145-3.282,8.712,0,17.436-.024,26.148.012,0,.833.012,2.486.012,3.306q-5.629.036-11.234.036-.018,15.023-.012,30.046c-.9-.012-2.727-.024-3.644-.036.072-10,.024-20.007.036-30C48.43,33.259,44.617,33.247,40.8,33.187Z" transform="translate(232.735 40.022)"/>
          <path id="Path_4990" data-name="Path 4990" d="M58.645,32.428c.495-1.858,2.389-2.148,3.958-2.655,5.213,11.427,10.51,22.818,15.807,34.2-1.388,0-2.775.012-4.151.012-1.339-2.993-2.679-5.973-4.006-8.966-6.045-.084-12.091-.06-18.136-.048-1.376,2.993-2.739,6-4.1,8.99-1,.012-3,.048-4.006.072,4.923-10.522,9.677-21.1,14.637-31.6m-5.02,19.126q7.511.018,15.023-.012c-2.51-5.406-5-10.848-7.409-16.3C58.609,40.634,56.183,46.124,53.625,51.554Z" transform="translate(251.01 39.32)"/>
          <path id="Path_4991" data-name="Path 4991" d="M49.782,29.949c6,.157,12.03-.41,18,.338,5.768.784,10.039,7.18,7.747,12.742-1.11,3.717-4.984,5.225-8.157,6.745C70.935,54.2,74.361,58.74,77.9,63.193c-1.557.072-3.1.145-4.646.229-3.463-4.5-6.878-9.05-10.462-13.454-3.137.036-6.263.048-9.4.06,0,4.416,0,8.833.036,13.249-.893.036-2.691.121-3.6.169-.109-11.174-.012-22.335-.048-33.5m3.6,16.531c5.032-.205,10.317.772,15.156-.929C73,43.934,73.794,37.08,69.571,34.715,64.563,32.386,58.8,33.557,53.45,33.279,53.39,37.672,53.39,42.076,53.378,46.48Z" transform="translate(283.91 39.977)"/>
        </g>
      </g>
    </g>
  </g>
</svg>
