<svg xmlns="http://www.w3.org/2000/svg" xmlns:xlink="http://www.w3.org/1999/xlink" width="944" height="944" viewBox="0 0 944 944">
  <defs>
    <clipPath id="clip-path">
      <path id="Path_3621" data-name="Path 3621" d="M0,0H745.4V524.538H0Z" transform="translate(26 353)" fill="#bdc6cf" opacity="0.13"/>
    </clipPath>
    <clipPath id="clip-Artboard_19">
      <rect width="944" height="944"/>
    </clipPath>
  </defs>
  <g id="Artboard_19" data-name="Artboard – 19" clip-path="url(#clip-Artboard_19)">
    <rect width="944" height="944" fill="#fff"/>
    <g id="Mask_Group_64" data-name="Mask Group 64" transform="translate(71.035 -145.42)" clip-path="url(#clip-path)">
      <g id="landmark-logo" transform="translate(26 525.913)">
        <g id="_2377bcff" data-name="#2377bcff" transform="translate(0)">
          <path id="Path_4992" data-name="Path 4992" d="M173.791,0h1.821c17.534,9.239,34.765,23.738,38.406,44.24C217.963,69.832,201.1,92.8,183.1,108.98,142.331,144.554,89.257,162.29,36.756,171.7A122.283,122.283,0,0,1,0,173.721c58.739-8.868,118.388-34.158,155.682-82.039C175.612,66.157,183.941,31.224,173.791,0Z" transform="translate(-0.002)" fill="#2377bc"/>
          <path id="Path_4993" data-name="Path 4993" d="M53.7,25.671c5.9-9,11.4-20.232,22.491-23.5C72.043,8.846,66.513,14.51,60.815,19.838c11.768,5.8,12.982,20,17.534,30.853-13.15-.2-26.335.708-39.451-.27-7.182-1.855-12.78-10.015-11.465-17.467.3-8.5,8.4-13.319,15.207-16.556C36,24.053,26.961,38.687,39.335,45.6c10.622.742,21.277.135,31.932.573a199.909,199.909,0,0,0-9.205-23.435C59.972,23.48,55.79,24.93,53.7,25.671Z" transform="translate(348.739 27.773)" fill="#2377bc"/>
          <path id="Path_4994" data-name="Path 4994" d="M32.787,2.627l7.25-.135C38.418,15,36.058,29.366,40.407,41.1c28.493,1.855,57.356-.169,85.984.944,6.744-.472,16.421,2.124,19.456-6.1,1.18-6.542.978-15.511-5.833-18.95-6.643-2.327-11.667,6.407-10.082,12.071,1.045,2.8.944,11.97-3.777,6.71-8.8-9.239,6.238-27.481,17.433-20.8,13.656,5.935,11.06,29.235-3.743,31.393-29.1.809-58.267-.067-87.366.4C46.039,46.36,37.1,48.282,33.8,41,32.416,28.287,33.731,15.406,32.787,2.627Z" transform="translate(419.758 31.902)" fill="#2377bc"/>
          <path id="Path_4995" data-name="Path 4995" d="M159.03,4.945c1.753-.607,5.193-1.855,6.946-2.5a28.753,28.753,0,0,0,2.225,11.9c-2.327,8.194-1.753,16.725-2.36,25.087.1,4.99-4.99,8.126-9.576,7.654-32.64.438-65.247-.169-97.887.169-5.833-.944-15.241,2.731-16.59-6.238,9.61.944,19.254,1.619,28.931,1.753C70.854,29.931,50.893,28.414,52.478,15.9c8.43,7.755,21.951,13.555,22.423,26.571,23.772-.472,47.611-.236,71.417-.135,4.35-.944,11.734,2.124,13.892-3.17,1.012-8.194,2.428-17.635-2.8-24.784,2.259.169,6.778.54,9.037.708C164.021,11.689,161.525,8.317,159.03,4.945Z" transform="translate(535.012 31.37)" fill="#2377bc"/>
          <path id="Path_4996" data-name="Path 4996" d="M74.011,3.061c1.888-.135,5.6-.472,7.452-.641-2.057,13.555.641,27.549-2.091,40.935C72.46,50.842,60.388,46.863,51.486,47l.674-1.585,1.315-1.079c2.259-.54,6.845-1.652,9.138-2.192-.135-8.059-.371-16.118-1.787-24.076-.236-1.315-.708-4.013-.944-5.328,10.048,7.722,6.946,20.468,7.452,31.426,1.888-1.146,5.6-3.473,7.486-4.62A196.9,196.9,0,0,0,74.011,3.061Z" transform="translate(659.179 30.995)" fill="#2377bc"/>
          <path id="Path_4997" data-name="Path 4997" d="M37.846,3.363c1.821-.034,5.5-.034,7.317-.034-1.922,11.8-.539,23.772-1.686,35.641-.438,7.351-7.755,10.858-12.341,15.612C42.33,39.847,39.06,20.526,37.846,3.363Z" transform="translate(398.616 42.63)" fill="#2377bc"/>
          <path id="Path_4998" data-name="Path 4998" d="M66.706,8.54l7.014.135c-1.281,15.005-.641,30.044-1.18,45.049C60.7,43.2,50.757,30.795,38.753,20.443a255.562,255.562,0,0,0,1.281,32.134l-6.912-.236C35.819,37.572,34.4,22.567,34.976,7.7c11.8,11.33,22.524,23.772,34.191,35.237C69.066,31.436,69.64,19.769,66.706,8.54Z" transform="translate(424.043 98.552)" fill="#2377bc"/>
          <path id="Path_4999" data-name="Path 4999" d="M36.73,7.752c11.094,1.18,23.165-2.259,33.416,3.237,14.668,8.227,12.948,33.146-2.6,39.35-9.071,1.72-18.343,1.045-27.481,1.18,2.091-13.353,1.214-26.874,1.146-40.328-1.113-.877-3.338-2.6-4.485-3.439M47.385,9.943c-.034,11.937-.742,23.907.27,35.81,9.306,9.913,27.65-.169,26.436-13.387C75.574,17.7,60.7,8.291,47.385,9.943Z" transform="translate(470.238 99.239)" fill="#2377bc"/>
          <path id="Path_5000" data-name="Path 5000" d="M47.69,7.948c9.1.641,20.872-2.9,27.211,5.732,4.856,6.373-1.18,13.083-4.62,18.377,5.833,6.744,11.633,13.555,17.3,20.468C72.609,53.772,71.395,32.293,57.165,32.967c.438,6.238,1.113,12.442,2.124,18.647-2.023,0-6.069.034-8.093.067,1.045-13.454.776-26.942.674-40.4-1.045-.843-3.136-2.5-4.181-3.338M58.042,9.634c-.337,7.047-.506,14.128-.573,21.209,5.766,0,13.757-1.315,13.15-8.868C72.1,14.456,64.145,10.477,58.042,9.634Z" transform="translate(610.576 99.279)" fill="#2377bc"/>
          <path id="Path_5001" data-name="Path 5001" d="M51.188,11.7c3.338.1,6.676.169,10.048.2a146.909,146.909,0,0,0-2.158,19.591c6.407-4.889,12.678-10.082,17.534-16.624A9.374,9.374,0,0,1,75.1,7.453l2.091,6.339c2.832-.809,8.531-2.428,11.363-3.237-8.025,7.553-16.421,14.735-24.885,21.85,8.8,7.722,17.568,15.511,26.368,23.233-2.327,0-7.014-.034-9.374-.067-7.081-6.744-14.2-13.454-21.681-19.759A119.1,119.1,0,0,0,61.27,55.638c-3.271-.2-6.541-.371-9.779-.54C54.493,40.97,55.37,25.661,51.188,11.7Z" transform="translate(655.364 95.424)" fill="#2377bc"/>
          <path id="Path_5002" data-name="Path 5002" d="M27.772,7.77c1.922.034,5.8.067,7.722.1-.877,13.049-.708,26.166-.607,39.249a42.557,42.557,0,0,0,17.365-1.045c-4.417,9.273-16.691,3.642-24.817,5.193C30.031,36.9,29.627,22.169,27.772,7.77Z" transform="translate(351.232 99.49)" fill="#2377bc"/>
          <path id="Path_5003" data-name="Path 5003" d="M29.6,51.761C37.422,37.5,40.625,20.639,50.572,7.724c5.732,14.836,10.992,29.909,18.444,44-1.989.135-5.968.371-7.958.506q-2.377-7.739-4.788-15.41c-5.564.4-11.532-.944-16.758,1.45a71.7,71.7,0,0,0-2.9,13.791c-1.753-.067-5.26-.2-7.014-.3m18.04-33.247C45.413,23.471,43.323,28.5,41.3,33.553c3.473.135,10.352.472,13.825.641C53.169,28.731,51.213,23.167,47.639,18.514Z" transform="translate(378.943 98.896)" fill="#2377bc"/>
          <path id="Path_5004" data-name="Path 5004" d="M47.231,7.731C54.785,18.083,58.629,30.559,65,41.619c5.833-11.262,9.644-23.839,17.9-33.685,1.787,14.634,2.664,29.4,5.328,43.936-2.091,0-6.306,0-8.4-.034.978-9.947.3-19.928-.91-29.808-5.6,9.172-9.913,19.018-14.533,28.729-7.25-8.9-9.644-20.569-16.826-29.538-.2,10.251-.371,20.535-.371,30.819-1.753-.067-5.226-.135-6.98-.169C43.961,37.4,44.669,22.4,47.231,7.731Z" transform="translate(514.901 98.99)" fill="#2377bc"/>
          <path id="Path_5005" data-name="Path 5005" d="M44.319,52.967C51.636,38.13,57.2,22.519,64.382,7.648c6.811,14.836,12,30.381,19.422,44.948-2.091.135-6.2.337-8.295.438-1.45-5.193-3-10.352-4.586-15.477-5.227.1-10.419.2-15.612.27-1.45,5.092-2.934,10.183-4.35,15.275l-6.643-.135m12.24-18.073c3.372,0,10.082.034,13.42.034-1.922-5.361-3.844-10.723-5.833-16.05A66.435,66.435,0,0,0,56.559,34.893Z" transform="translate(567.414 97.926)" fill="#2377bc"/>
        </g>
        <g id="_081e2f41" data-name="#081e2f41" transform="translate(708.676 49.061)">
          <path id="Path_5006" data-name="Path 5006" d="M62.672,3.554c1.416,7.958,1.652,16.017,1.787,24.076-2.293.539-6.879,1.652-9.138,2.192L54.006,30.9l-2.158-.674c-.135-1.045-.371-3.1-.506-4.114l11.026,1.079C62.537,19.335,62.672,11.445,62.672,3.554Z" transform="translate(-51.342 -3.554)" fill="#081e2f" opacity="0.25"/>
        </g>
        <g id="_fdb81dff" data-name="#fdb81dff" transform="translate(97.382 52.062)">
          <path id="Path_5007" data-name="Path 5007" d="M18.858,7.144C34.032-3.04,56.725,11.426,54.095,29.4c-.91,17.972-25.357,28.56-38.507,15.578C2.909,35.535,4.663,14.225,18.858,7.144Z" transform="translate(-7.057 -3.772)" fill="#fdb81d"/>
        </g>
        <g id="_64b13dff" data-name="#64b13dff" transform="translate(183.365 68.146)">
          <path id="Path_5008" data-name="Path 5008" d="M13.286,64.485C34.462,47.49,52.333,26.821,68.215,4.937a294.394,294.394,0,0,0,90.064,85.208c12.577,8.059,26.841,12.982,39.418,21.041-10.352-2.124-20.535-4.99-30.651-8.093-3.237-2.765-6.238-6-10.284-7.553C110.971,77.6,62.213,68.3,13.286,64.485Z" transform="translate(-13.286 -4.937)" fill="#64b13d"/>
        </g>
        <g id="_398034ff" data-name="#398034ff" transform="translate(97.179 127.695)">
          <path id="Path_5009" data-name="Path 5009" d="M7.043,60.268c30.01-14.7,60.8-28.762,86.186-51.017,48.927,3.81,97.684,13.117,143.475,31.055,4.046,1.551,7.047,4.788,10.284,7.553C170.547,32.281,90.4,34.776,15.54,57.3l.3,2.967Z" transform="translate(-7.043 -9.251)" fill="#398034"/>
        </g>
      </g>
    </g>
  </g>
</svg>
