<svg xmlns="http://www.w3.org/2000/svg" xmlns:xlink="http://www.w3.org/1999/xlink" width="944" height="944" viewBox="0 0 944 944">
  <defs>
    <clipPath id="clip-Artboard_14">
      <rect width="944" height="944"/>
    </clipPath>
  </defs>
  <g id="Artboard_14" data-name="Artboard – 14" clip-path="url(#clip-Artboard_14)">
    <rect width="944" height="944" fill="#fff"/>
    <g id="_988b6cff" data-name="#988b6cff" transform="translate(44.529 205)">
      <path id="Path_3768" data-name="Path 3768" d="M108.705,0h7.822c5.9,5.1,13.318,7.751,19.965,11.674a182.623,182.623,0,0,1,51.862,44.275c16.7,21.468,30.276,47.54,29.431,75.421-.07,96.4-.211,192.792.117,289.187.282,10.922-3.876,22.29-12.613,29.2-2.866,2.419-7.07,4.017-10.546,1.856a35.648,35.648,0,0,1-14.586-28.75c-.164-32.155.094-64.311-.047-96.466.211-5.214-2.4-9.818-4.745-14.257,9.231,6.718,17.193,16.395,17.475,28.374.658,33.706-.211,67.458.352,101.164-.352,5.261,2.513,10.1,8.221,10.194,3.1-4.392,3.5-9.865,3.547-15.033q-.106-155.022-.023-310.021c-.094-13.412-3.641-26.612-8.644-38.991-14.516-34.645-43.829-60.247-74.035-81.2-5.026-4.04-12.12-5.426-17.522-1.2-20.858,14-40.564,30.229-56.4,49.866-16.7,20.834-28.209,46.836-28.115,73.824q.141,139.661.211,279.3H67.953c.023-3.829.023-7.634.047-11.439-10.217-.023-20.411-.07-30.629.07,3.406-4.839,6.882-10.1,6.248-16.324-.141-18.72.258-37.487-.211-56.207.352-5.449-3.711-9.137-7.657-12.167,10.781.681,22.478-.728,32.155,5.05A26.333,26.333,0,0,1,81.013,340.6c.282,26.612-.305,53.248.164,79.837-.329,5.872,4.745,9.63,8.033,13.788-8.949-.658-19.1-2.819-22.22-12.566-21.75.117-43.524-.493-65.25.352,7.469-7.164,5.379-18.039,5.614-27.34-.117-88.5.047-176.984-.07-265.488-.235-13.694,3.476-27.152,8.972-39.6C30.537,57.523,56,31.169,85.945,13.224,93.414,8.62,101.8,5.52,108.705,0M57.29,324.537c-.329,19.824.117,39.672,0,59.5,3.735,0,7.493-.023,11.251-.023-.305-14.516.611-29.078-.446-43.547C67.577,333.557,62.762,328.225,57.29,324.537Z" transform="translate(0.069)" fill="#988b6c"/>
      <path id="Path_3769" data-name="Path 3769" d="M41.846,51.06A175.966,175.966,0,0,1,92.839,6.01c-35.491,24.733-60.388,64.757-65.2,107.882-.352,39.977,0,79.954-.164,119.931.07,5.684-.493,12.472,4.862,16.113,5.308,2.3,5.966-5.4,6.553-9,.47-29.994.047-60.036.188-90.054q48.832-.035,97.64-.023c.282-13.06-.564-26.189.423-39.225,1.1-10.64,8.2-19.237,16.465-25.438-1.879,4.392-4.134,8.832-3.923,13.741-.352,17.287.423,34.575-.282,51.839-.7,10.969-7.775,20.036-16.136,26.518,1.574-4.439,2.96-8.926,4.087-13.482-28.444-.282-56.865-.07-85.309-.117-.164,19.824.282,39.672-.188,59.5-.987,11.65-7.916,24.921-20.106,27.716-10.076-5.755-17.052-17.992-17.005-29.877-.07-32.837.07-65.673-.047-98.51C13.848,96.933,26.2,71.871,41.846,51.06Z" transform="translate(17.485 8.106)" fill="#988b6c"/>
      <path id="Path_3770" data-name="Path 3770" d="M116.039,5.91c30.488,18.039,56.09,45.215,70.042,77.934,4.932,11.791,8.268,24.451,8.033,37.323-.07,42.138.023,84.3-.047,126.461-8.268,0-16.512,0-24.78.023v42.678H145.258c-.611,7.634-1.95,15.831-7.634,21.468-4.839,5.684-12.4,7.234-19.4,8.432-.141,33.165.211,66.378-.164,99.543-.047,13.459-11.533,25.626-25.179,25.485-25.085.282-50.194-.047-75.3.141-3.829-.258-8.385.587-11.392-2.4-5-4.839-5.073-12.214-5.214-18.673,3.359,4.6,8.15,8.479,14.21,7.892,26.612-.047,53.271.423,79.86-.235,9.348-2.513,10.358-13.858,10.264-21.915-.094-47.775,0-95.574-.047-143.349.023-4.886-1.621-9.513-2.913-14.163,6.694,5.731,12.919,12.613,14.8,21.515,2.114,10.993.634,22.267,1.127,33.4,8.644-.94,13.67-9.043,13.576-17.24.376-36.2,0-72.438.164-108.657,13.928-.07,31.239,4.181,36.054,19.119,2.607,11.2.611,22.948,1.221,34.363,3.9.047,7.822.117,11.721.188.282-40.4.188-80.823.07-121.223-4.51-43.242-29.572-83.266-65.039-108.116m29.055,187.859c-.423,27.9-.094,55.832-.188,83.759l11.3.07q.317-32.414.047-64.875C156.7,204.621,151.318,198.138,145.094,193.769Z" transform="translate(-0.97 7.972)" fill="#988b6c"/>
      <path id="Path_3771" data-name="Path 3771" d="M46.633,77.908C53.045,74.855,60.82,81.5,59.011,88.29c-.94,6.248-9.066,9.654-14.116,5.778C38.952,90.334,39.986,80.281,46.633,77.908Z" transform="translate(53.004 104.055)" fill="#988b6c"/>
      <path id="Path_3772" data-name="Path 3772" d="M251.074,98.419c14.046-13.976,38.145-16.348,54.445-4.956,23.206,15.291,27.528,50.852,10.687,72.344-5.872,8.009-14.633,13.106-23.676,16.771,4.181,6.224,8.6,12.543,14.774,16.982,6.765,5.12,15.15,7.046,23.042,9.795-15.056-1.151-30.088-4.933-43.03-12.9-9.348-5.285-16.348-13.952-26.377-18.133-29.29-13.928-32.907-58.7-9.865-79.907m20.552-5.261c-12.19,4.51-17.78,17.9-19.1,29.971-1.738,15.9-.822,33.776,9.513,46.812,9.512,11.861,29.806,11.415,39.178-.352,7.916-9.56,9.63-22.549,9.442-34.551-.282-11.909-1.973-24.71-9.748-34.223C294.057,92.383,281.726,89.306,271.626,93.158Z" transform="translate(316.119 116.31)" fill="#988b6c"/>
      <path id="Path_3773" data-name="Path 3773" d="M295.043,167.027C306.788,140.2,317.921,113.1,329.431,86.18c12.308,27.481,24.24,55.127,36.759,82.514,2.349,6.083,7.963,9.607,13.318,12.778-7.422-.258-14.868-.211-22.267-.117-4.486-10.335-8.573-20.811-13.083-31.122-11.838.164-23.676,0-35.491.164-2.912,8.1-8.1,15.831-8.15,24.663,3.006,2.7,6.764,4.416,10.288,6.365q-14.445-.352-28.914.023c5.637-3.5,10.734-8.08,13.153-14.422m31.287-57.64c-5.473,11.838-10.312,23.934-15.573,35.866h31.616c-4.158-10.029-8.315-20.035-12.355-30.112C328.8,113.309,328.773,110.068,326.33,109.386Z" transform="translate(377.94 116.242)" fill="#988b6c"/>
      <path id="Path_3774" data-name="Path 3774" d="M111.94,87.13c8.737.07,17.475.024,26.236.024q16.594,36.254,33.236,72.461,16.454-36.219,32.813-72.438c4.345-.023,8.714-.023,13.083-.023.188,27.34-.446,54.7.282,82-.259,7.164,7.915,8.292,12.778,11.016-8.691-.235-17.381-.164-26.049-.141-.07-25.814.118-51.627-.117-77.417-11.133,23.817-21.867,47.8-32.7,71.757-1.245,2.184-1.9,5.12-4.486,6.107-12.331-25.767-23.911-51.956-35.632-78.051-.611,25.884.094,51.768-.376,77.629-6.342-.047-12.683-.07-19.025.07,4.839-2.772,13.482-3.9,12.707-11.227.822-19.472.047-39.014.376-58.509-.211-5.355.493-10.993-1.409-16.089C120.865,90.489,115.91,89.338,111.94,87.13Z" transform="translate(148.708 117.523)" fill="#988b6c"/>
      <path id="Path_3775" data-name="Path 3775" d="M167.85,87.13c8.832.07,17.64.024,26.471.047.258,28.115-.493,56.3.352,84.417,4.745,4.134,9.842-3.1,14.116-5.12-5.05,6.6-10.593,14.845-19.753,15.361-4.533.658-7.8-3.9-7.54-8.057-.822-25.109.587-50.312-.658-75.4C181.426,90.959,172.9,89.784,167.85,87.13Z" transform="translate(224.121 117.523)" fill="#988b6c"/>
      <path id="Path_3776" data-name="Path 3776" d="M190.36,87.616c13.012-.846,26.072-.352,39.084-.376,9.4.329,20.059.752,27.2,7.7,8.784,7.986,9.09,23.183.8,31.615-4.393,4.557-10.664,6.342-16.371,8.55,12.049,16.536,22.055,36.712,41.9,45.168-8.174-.352-16.324-.258-24.5-.258-10.405-14.516-20.67-29.149-31.24-43.547-3.1.07-6.177.117-9.254.164-.023,14.469.07,28.937-.07,43.43-8.808-.047-17.592-.117-26.377.118,4.862-2.842,13.459-4.04,12.965-11.251.775-17.123.071-34.293.329-51.416-.188-7.892.728-15.949-1.128-23.7-2.912-4.463-9.231-3.429-13.341-6.2m27.622,5.9c0,12.966-.023,25.955.024,38.944,8.456-.376,18.039-.493,24.451-6.882,9.137-8.291,6.812-25.32-4.181-30.864C232,91.256,224.7,92.83,217.982,93.511Z" transform="translate(254.483 117.507)" fill="#988b6c"/>
      <path id="Path_3777" data-name="Path 3777" d="M329.83,87.09c18.838.869,37.863-1.292,56.583,1.5,12.754,1.292,23.794,13.553,21.68,26.612-.986,8.55-8.268,14.4-15.784,17.358,6.6,2.02,13.787,4.7,17.264,11.133,7.376,12.144-.188,29.173-13.341,33.4-17.757,5.637-36.735,2.419-54.14-2.913,1.808-16.559.611-33.236.939-49.842-.305-10.124.939-20.435-1.128-30.417-3.03-3.641-8.056-4.651-12.073-6.835m27.246,5.943c-2.091,11.65-.281,24.381-.869,36.454,9.489.376,19.566,1.668,28.562-2.184,10.264-5.1,12.144-20.505,4.134-28.421-8.2-8.221-21.233-7.634-31.827-5.849m-.7,41.833c-.305,12.66-.141,25.344-.141,38,10.946,2.325,23.84,4.228,33.541-2.842,9.536-6.976,8.832-22.69-.54-29.5C379.836,133.432,367.435,134.7,356.372,134.865Z" transform="translate(442.602 117.469)" fill="#988b6c"/>
      <path id="Path_3778" data-name="Path 3778" d="M23.661,121.745c5.637-2.443,12.66,2.325,12.4,8.479.564,7.023-8.291,12.049-14.022,7.963C15.769,134.593,16.755,124.047,23.661,121.745Z" transform="translate(21.813 163.332)" fill="#988b6c"/>
      <path id="Path_3779" data-name="Path 3779" d="M34.211,122.163c5.708-3.312,13.741,1.55,13.341,8.2.47,6.671-7.728,11.65-13.459,8.151C27.681,135.457,27.822,125.169,34.211,122.163Z" transform="translate(37.311 163.337)" fill="#988b6c"/>
      <path id="Path_3780" data-name="Path 3780" d="M331.528,134.83c3.618.047,7.259.047,10.9.071.258,13.341-.141,26.682.329,40.024,8.762,1.2,18.486,1.081,23.911-7.07-1.127,3.406-2.255,6.812-3.359,10.241-10.828-.047-21.679,0-32.508-.047,1.762-.963,3.523-1.926,5.309-2.889.211-10.993.4-22.009.118-33C336.884,138.635,333.783,136.78,331.528,134.83Z" transform="translate(443.911 181.862)" fill="#988b6c"/>
      <path id="Path_3781" data-name="Path 3781" d="M282.245,134.77c3.876.141,7.752.259,11.651.329q7.716,16.7,15.361,33.447c5.168-11.134,10.17-22.361,15.268-33.565,1.5.047,4.533.117,6.036.141.071,13.435-.329,26.87.329,40.306l5.355,2.748c-3.9-.023-7.775,0-11.65-.023-.024-11.791.118-23.606-.117-35.42-6.2,11.721-10.335,24.451-17.264,35.749-5.685-11.956-10.969-24.1-16.559-36.1-.071,11.909-.024,23.841-.047,35.749-2.889.023-5.731.07-8.6.117,1.362-.728,4.087-2.161,5.449-2.889,0-12.308,1.315-24.827-.564-37.017C285.745,137.448,283.419,135.663,282.245,134.77Z" transform="translate(378.102 181.781)" fill="#988b6c"/>
      <path id="Path_3782" data-name="Path 3782" d="M330.438,134.15c8.056,14.633,10.429,32.625,21.915,45.121-2.443-.094-7.328-.258-9.771-.352-1.879-4.674-3.734-9.372-5.52-14.069a138.831,138.831,0,0,0-17.4.141q-1.8,5.461-3.523,10.969c1.621,1.057,3.218,2.114,4.862,3.194l-11.157-.282-1.221,2.959c-.8-4.509,4.416-6.835,5.8-10.734,5.614-12.19,10.17-24.851,16.019-36.947m-9.183,28.163h14.609c-2.372-5.755-4.768-11.533-7.164-17.264C326.187,150.78,323.72,156.535,321.254,162.313Z" transform="translate(413.879 180.945)" fill="#988b6c"/>
      <path id="Path_3783" data-name="Path 3783" d="M349.811,134.77c2.866.094,8.6.259,11.463.352.187,13.365-.447,26.753.422,40.118,5.285,0,10.712.634,15.9-.61,3.618-1.621,5.614-5.4,8.339-8.127q-2.008,5.813-3.852,11.65c-10.828,0-21.633.023-32.414-.023,1.714-1.01,3.452-2.02,5.19-3.03-.046-12.167.729-24.4-.282-36.548C353.381,137.612,351.008,135.71,349.811,134.77Z" transform="translate(469.363 181.781)" fill="#988b6c"/>
    </g>
  </g>
</svg>
