<svg xmlns="http://www.w3.org/2000/svg" xmlns:xlink="http://www.w3.org/1999/xlink" width="944" height="944" viewBox="0 0 944 944">
  <defs>
    <clipPath id="clip-Artboard_20">
      <rect width="944" height="944"/>
    </clipPath>
  </defs>
  <g id="Artboard_20" data-name="Artboard – 20" clip-path="url(#clip-Artboard_20)">
    <rect width="944" height="944" fill="#fff"/>
    <g id="Lagoona_Mall" data-name="Lagoona Mall" transform="translate(138 471.606)">
      <g id="_717271ff" data-name="#717271ff">
        <path id="Path_3757" data-name="Path 3757" d="M59,0h2.355c9.049,15.206,18.655,30.078,27.852,45.191-3.282,0-6.564,0-9.847-.019q-3.672-6.147-7.455-12.2c-8.215.093-16.448.074-24.681.056-2.466,4.061-4.914,8.122-7.38,12.183-2.8-.019-5.619-.019-8.419-.037,9.049-14.724,18.469-29.243,27.463-44L59,0M50.326,28.038q9.318.028,18.636-.019-4.506-7.733-9.086-15.465C56.519,17.616,53.4,22.809,50.326,28.038Z" transform="translate(26.852)" fill="#717271"/>
        <path id="Path_3758" data-name="Path 3758" d="M92.695,0H103.45c7.343.946,14.575,4.636,17,12.109-6.286-1.205-11.126-6.472-17.672-6.657-7.51-.63-16.022,1.15-20.954,7.306-6.156,7.733-3.764,20.528,4.9,25.423,7.733,4.766,17.246,3.227,25.627,1.28-.019-3.5-.037-6.991-.037-10.477h-13c-.056-1.187-.167-3.6-.223-4.8,7.325-.093,14.631-.093,21.956-.056,0,5.99-.019,12-.111,17.987a136.426,136.426,0,0,1-17.375,4.246H93.844c-7.158-1-14.668-3.115-19.73-8.623-7.1-7.343-7.065-19.971-.445-27.611C78.342,4.3,85.7,1.78,92.695,0Z" transform="translate(58.732)" fill="#717271"/>
        <path id="Path_3759" data-name="Path 3759" d="M236.232,0h.816c1.409,5.915,5.749,10.459,8.753,15.577,5.674,10.106,12.313,19.638,18.21,29.614h-9.828c-2.429-4.061-4.9-8.1-7.343-12.165-8.252,0-16.522.019-24.774-.019q-3.672,6.008-7.232,12.072c-2.875.056-5.749.111-8.623.148,6.639-10.792,13.481-21.436,20.1-32.229,2.893-4.617,5.452-9.661,9.921-13M225.125,28.038q9.318.028,18.655-.019-4.534-7.733-9.05-15.5C231.336,17.579,228.2,22.79,225.125,28.038Z" transform="translate(176.177)" fill="#717271"/>
        <path id="Path_3760" data-name="Path 3760" d="M324.989,0h2.318c9.253,15.113,18.711,30.1,27.964,45.209-3.3-.019-6.6-.037-9.884-.074q-3.644-6.119-7.436-12.165c-8.215.093-16.448.074-24.663.074-2.467,4.043-4.914,8.1-7.381,12.146-2.818,0-5.619,0-8.437-.019C306.5,30.449,316,15.985,324.878,1.187L324.989,0m-8.6,28.019q9.318.056,18.636.019-4.534-7.76-9.105-15.465C322.56,17.616,319.463,22.809,316.385,28.019Z" transform="translate(254.146)" fill="#717271"/>
        <path id="Path_3761" data-name="Path 3761" d="M0,.62C3.06.639,6.1.639,9.161.639c.019,13.018-.019,26.035.019,39.053h27.8v4.97q-18.469.028-36.976,0Z" transform="translate(0 0.53)" fill="#717271"/>
        <path id="Path_3762" data-name="Path 3762" d="M168.886.639c2.466,0,4.951-.019,7.417-.019,11.367,10.051,22.66,20.194,34.065,30.208-.13-10.069-.3-20.12-.389-30.189h8.141c-.037,14.853.111,29.707-.074,44.56a15.543,15.543,0,0,1-7.343-4.1q-16.912-15.159-33.953-30.17,0,16.856,0,33.731h-7.863Q168.859,22.659,168.886.639Z" transform="translate(144.278 0.53)" fill="#717271"/>
        <path id="Path_3763" data-name="Path 3763" d="M259.466,44.71c-.148-14.668-.111-29.336-.019-44,3.042,0,6.1-.019,9.161-.056,6.954,11.182,13.481,22.6,20.417,33.786C295.793,23.2,302.766,12.091,309.5.817c2.948-.056,5.915-.093,8.864-.13q.029,21.974,0,43.948c-2.893,0-5.785,0-8.66.019-.037-10.329.019-20.658-.055-30.986-6.731,10.236-13.24,20.62-19.86,30.912l-.167,1.224h-2.151c-5.972-10.663-12.944-20.75-19.378-31.153-.037,9.995,0,19.971-.019,29.948Z" transform="translate(221.592 0.555)" fill="#717271"/>
        <path id="Path_3764" data-name="Path 3764" d="M334.944.63H344.1c.074,13.036-.2,26.091.167,39.127,9.253-.13,18.507-.074,27.76-.074v4.97q-18.552.028-37.087,0Q334.944,22.623,334.944.63Z" transform="translate(286.155 0.538)" fill="#717271"/>
        <path id="Path_3765" data-name="Path 3765" d="M363.06.63h9.16c.019,13.018-.037,26.035.019,39.071,9.272-.037,18.525-.019,27.8-.019v4.97q-18.5,0-36.976,0Z" transform="translate(310.183 0.538)" fill="#717271"/>
      </g>
      <g id="_00b0acff" data-name="#00b0acff" transform="translate(200.039)">
        <path id="Path_3766" data-name="Path 3766" d="M134.29,0h9.068c10.922,1.891,23.55,7.009,26.944,18.673,2.466,7.677-2.151,14.835-7.139,20.194-2.021-1-4.024-2.021-6.008-3.023,4.043-6.416,6.231-14.946,1.892-21.789C151.666.7,130.6-.464,121.4,11.516c-6.509,7.566-5.044,19.99,2.726,26.128,5.582,5.248,13.537,5.674,20.787,5.489a43.06,43.06,0,0,0,3.875,3.227H136.33c-9.253-1.483-19.192-4.58-24.9-12.535a17.747,17.747,0,0,1-.093-21.177C116.618,5.118,125.8,2.151,134.29,0Z" transform="translate(-107.875)" fill="#00b0ac"/>
        <path id="Path_3767" data-name="Path 3767" d="M146.449,0h12.294c9.272,1.595,19.267,4.784,24.83,12.943a17.754,17.754,0,0,1-.649,21.362c-5.563,7.343-14.76,10.2-23.365,12.053h-7.288c-11.126-1.576-24.032-6.546-27.723-18.265-2.763-7.807,1.892-15.336,7.251-20.658,1.669.427,5.007,1.261,6.676,1.687-2.336,4.766-5.841,9.439-5.248,15.039.389,9.142,8.159,16.689,16.875,18.432,10.273,2.466,22.4-2.8,26.165-12.981,3.486-8.493-.853-18.636-8.641-23.05C162.4,3.1,155.906,3.189,149.879,3.3,148.748,2.188,147.6,1.094,146.449,0Z" transform="translate(-94.332)" fill="#00b0ac"/>
      </g>
    </g>
  </g>
</svg>
