<svg xmlns="http://www.w3.org/2000/svg" xmlns:xlink="http://www.w3.org/1999/xlink" width="944" height="944" viewBox="0 0 944 944">
  <defs>
    <clipPath id="clip-Artboard_11">
      <rect width="944" height="944"/>
    </clipPath>
  </defs>
  <g id="Artboard_11" data-name="Artboard – 11" clip-path="url(#clip-Artboard_11)">
    <rect width="944" height="944" fill="#fff"/>
    <g id="tawar-mall-logo" transform="translate(91.725 188.359)">
      <g id="_6b5f38ff" data-name="#6b5f38ff" transform="translate(100.439 0.034)">
        <path id="Path_3684" data-name="Path 3684" d="M48.63,4.929A237.38,237.38,0,0,1,80.266.73c14.46,13.584,31.524,24,45.961,37.609a227.706,227.706,0,0,0-31.053,5.77C80.221,30.391,61.832,20.489,48.63,4.929Z" transform="translate(-48.63 -0.73)" fill="#6b5f38"/>
      </g>
      <g id="_4e492bff" data-name="#4e492bff" transform="translate(132.075 0)">
        <path id="Path_3685" data-name="Path 3685" d="M62.72.749C73,1.175,83.6-.217,93.705,2.1c12.08,14.168,29.189,22.79,42.324,35.9a150.394,150.394,0,0,0-27.348.359C94.244,24.751,77.18,14.333,62.72.749Z" transform="translate(-62.72 -0.715)" fill="#4e492b"/>
      </g>
      <g id="_35361fff" data-name="#35361fff" transform="translate(163.06 1.381)">
        <path id="Path_3686" data-name="Path 3686" d="M76.52,1.33a101.918,101.918,0,0,1,26.2,6.152c20.567,12.843,43.424,24.676,56.963,45.647-11.586-9.453-26.023-14.639-40.842-15.9C105.709,24.12,88.6,15.5,76.52,1.33Z" transform="translate(-76.52 -1.33)" fill="#35361f"/>
      </g>
      <g id="_8e7a49ff" data-name="#8e7a49ff" transform="translate(61.775 4.233)">
        <path id="Path_3687" data-name="Path 3687" d="M31.41,13.4A281.281,281.281,0,0,1,70.074,2.6c13.2,15.56,31.591,25.462,46.545,39.181A252.454,252.454,0,0,0,81.637,53.86C65.853,39.221,47.778,27.366,31.41,13.4Z" transform="translate(-31.41 -2.6)" fill="#8e7a49"/>
      </g>
      <g id="_007054ff" data-name="#007054ff" transform="translate(138.654 7.533)">
        <path id="Path_3688" data-name="Path 3688" d="M88.19,4.07C114.819,12,139.967,24.547,163.34,39.456A132.251,132.251,0,0,1,145.782,50.57l-.629-.853C131.614,28.746,108.757,16.913,88.19,4.07Z" transform="translate(-37.581 -4.07)" fill="#007054"/>
        <path id="Path_3689" data-name="Path 3689" d="M92.235,296.99c24.563-63.205,56.671-123.177,81.1-186.45,21.869,6.152,43.716,12.506,65.944,17.334l.674,1.369c-3.121,15.448-8.51,30.357-13.023,45.445-.449,1.213-.876,2.448-1.3,3.7q-8.858,26.236-18.457,52.226c-6.8,18.681-13.494,37.407-19.6,56.312A483.327,483.327,0,0,0,161.7,375.374c-32.041,8.892-65.877,12.664-96.054,27.3C67.963,366.168,79.279,330.962,92.235,296.99Z" transform="translate(-65.65 128.518)" fill="#007054"/>
        <path id="Path_3690" data-name="Path 3690" d="M196.94,149.34a70.447,70.447,0,0,0,22.52,2.245c11.294-.494,22.453,1.707,33.7,2.29l.741,1.213c-1.908,9.52-5.658,18.591-8.06,28-.18.494-.517,1.5-.674,2-1.437,4.288-2.829,8.577-4.176,12.911-1.55,5.254-3.076,10.508-4.625,15.785-1.437,5.141-2.919,10.283-4.221,15.47-2.56,9.745-4.827,19.557-6.915,29.413-1.213,6.489-2.268,13.023-3.121,19.557a124.879,124.879,0,0,0-.92,29.234l.022.4c-22.678,6.647-44.771,15.088-66.776,23.666-6.4,1.751-6.4-6.107-6.13-10.193,1.415-24.541,8.734-48.252,15.807-71.648C174.532,216.07,186.859,183.064,196.94,149.34Z" transform="translate(37.178 176.836)" fill="#007054"/>
        <path id="Path_3691" data-name="Path 3691" d="M308.607,164.819c10.328-1.3,20.567-4.828,31.075-2.964-15.043,41.92-33.589,82.964-42.346,126.86-2.627,15.066-5.344,32.287,3.547,45.871,6.894,9.79,20.051,9.992,30.806,8.892-26.922,8.509-54.157,16.031-81.325,23.778-8.981,3.233-20.32-.382-24.339-9.341-5.321-11.159-2.919-23.98-2.178-35.813,6.377-53.191,27.662-102.97,48.117-151.985C284.245,168.928,296.371,166.369,308.607,164.819Z" transform="translate(129.878 191.758)" fill="#007054"/>
      </g>
      <g id="_a58c54ff" data-name="#a58c54ff" transform="translate(45.227 15.032)">
        <path id="Path_3692" data-name="Path 3692" d="M24.04,14.056c5.5-2.29,11.024-4.468,16.548-6.646C56.956,21.376,75.031,33.231,90.815,47.87c-5.5,2.4-10.935,4.962-16.211,7.814-2.358-3.211-4.693-6.534-7.9-8.959C52.466,35.858,38.724,24.34,24.04,14.056Z" transform="translate(-24.04 -7.41)" fill="#a58c54"/>
      </g>
      <g id="_b2965aff" data-name="#b2965aff" transform="translate(0 21.679)">
        <path id="Path_3693" data-name="Path 3693" d="M12.121,33.429c10.733-9.969,23.868-16.795,37-23.059,14.684,10.284,28.426,21.8,42.661,32.669C95,45.464,97.331,48.787,99.688,52,87.631,59.25,73.912,66.593,67.513,79.772c-4.019,8.15,4.221,15.156,11.227,17.513-19.175-2.4-36.576-11.384-53.326-20.5C16.455,70.836,6.778,63.4,4.308,52.312,2.489,44.948,7,38.234,12.121,33.429Z" transform="translate(-3.897 -10.37)" fill="#b2965a"/>
      </g>
      <g id="_006c4fff" data-name="#006c4fff" transform="translate(21.517 28.464)">
        <path id="Path_3694" data-name="Path 3694" d="M439.369,25.332c39.764-10.89,82.29-16.436,122.953-7.454,19.826,8.487,37.137,21.869,53.932,35.206,11.7,9.857,23.553,19.691,33.612,31.255,3.48,4.423,7.544,10.463,5.052,16.256C647.172,85.237,632.78,74.1,616.5,68.981c-15.223-5.1-31.546-4.872-47.353-3.7-36.307,3.75-71.2,15-105.978,25.439-47.758,14.707-95.223,30.469-143.071,44.906a576.787,576.787,0,0,1-59.366,13c-48.948,8.263-100.455,11.227-148.19-4.827-18.389-6.017-32.355-19.893-47.825-30.873C47.676,99.585,29.916,87.1,13.48,73.023c16.75,9.116,34.151,18.1,53.326,20.5,64.328,11.9,129.419-1.931,191.749-17.828,12.866-3.435,25.754-6.826,38.529-10.688C344.281,50.951,391.746,37.861,439.369,25.332Z" transform="translate(-13.48 -13.392)" fill="#006c4f"/>
      </g>
      <g id="_0a5942ff" data-name="#0a5942ff" transform="translate(246.855 42.919)">
        <path id="Path_3704" data-name="Path 3704" d="M131.4,19.83q7.174,4.513,13.943,9.632c-5.972,6.871-13.808,11.631-21.286,16.705A147.584,147.584,0,0,0,113.84,30.944,132.256,132.256,0,0,0,131.4,19.83Z" transform="translate(-113.84 -19.83)" fill="#0a5942"/>
      </g>
      <g id="_104a36ff" data-name="#104a36ff" transform="translate(257.071 52.552)">
        <path id="Path_3705" data-name="Path 3705" d="M139.675,24.12q6.3,5.119,12.237,10.665c-8.824,6.467-16.75,15.2-27.819,17.6a110.4,110.4,0,0,0-5.7-11.563C125.867,35.751,133.7,30.991,139.675,24.12Z" transform="translate(-118.39 -24.12)" fill="#104a36"/>
      </g>
      <g id="_163c2aff" data-name="#163c2aff" transform="translate(262.774 63.217)">
        <path id="Path_3706" data-name="Path 3706" d="M148.749,28.87a185.821,185.821,0,0,1,14.527,16.862c-12.776,3.862-25.664,7.252-38.53,10.688-1.257-3.323-2.47-6.646-3.817-9.947C132,44.071,139.925,35.336,148.749,28.87Z" transform="translate(-120.93 -28.87)" fill="#163c2a"/>
      </g>
      <g id="_1f2517ff" data-name="#1f2517ff" transform="translate(268.769 150.694)">
        <path id="Path_3707" data-name="Path 3707" d="M123.6,80.83a576.818,576.818,0,0,0,59.366-13c1.168,10.283-.359,20.612-.157,30.918l-1.549-.382c-18.951-4.513-37.811-9.475-56.4-15.246Z" transform="translate(-123.6 -67.83)" fill="#1f2517"/>
      </g>
      <g id="_173927ff" data-name="#173927ff" transform="translate(261.427 165.985)">
        <path id="Path_3708" data-name="Path 3708" d="M128.93,74.64c18.591,5.77,37.451,10.732,56.4,15.245l.966,1.482c-.225,12.686-2.515,25.238-4.176,37.789l-.247-.112c-19.8-8.33-41.336-11.047-61.544-18.232C123.7,98.889,126.168,86.719,128.93,74.64Z" transform="translate(-120.33 -74.64)" fill="#173927"/>
      </g>
      <g id="_0e4d38ff" data-name="#0e4d38ff" transform="translate(254.063 202.156)">
        <path id="Path_3709" data-name="Path 3709" d="M117.05,113.809c2.515-7.679,5.1-15.313,7.364-23.059,20.208,7.185,41.74,9.9,61.544,18.232-1.1,7.589-2.582,15.089-4.2,22.566C160.564,124.385,138.65,119.625,117.05,113.809Z" transform="translate(-117.05 -90.75)" fill="#0e4d38"/>
      </g>
      <g id="_085e45ff" data-name="#085e45ff" transform="translate(246.339 225.216)">
        <path id="Path_3710" data-name="Path 3710" d="M121.334,101.02c21.6,5.816,43.514,10.575,64.71,17.738-1.8,6.8-2.852,13.786-4.962,20.477l-1.527.494c-22.228-4.827-44.075-11.182-65.945-17.334C116.259,115.3,118.931,108.2,121.334,101.02Z" transform="translate(-113.61 -101.02)" fill="#085e45"/>
        <path id="Path_3711" data-name="Path 3711" d="M255.42,159.111c22.543-2.178,44.681-7.162,67.134-9.991q-4.984,13.977-9.946,27.954l-.269-.023c-10.508-1.863-20.747,1.662-31.075,2.964-12.237,1.549-24.362,4.109-36.644,5.3C248.168,176.557,251.94,167.89,255.42,159.111Z" transform="translate(49.538 -41.121)" fill="#085e45"/>
      </g>
      <g id="_b1a063ff" data-name="#b1a063ff" transform="translate(298.632 236.51)">
        <path id="Path_3712" data-name="Path 3712" d="M205.494,129.918c24.2-9.969,49.4-17.6,74.791-23.868-11.968,8.555-24.182,16.772-36.217,25.215-6.152,4.356-12.371,8.6-18.277,13.248-1.459,1.19-2.9,2.38-4.288,3.615-21.578,17.176-43.222,34.51-61.858,54.965-7.005-7.028-14.392-13.719-22.744-19.108.426-1.257.853-2.492,1.3-3.7C158.7,161.172,180.728,143.21,205.494,129.918Z" transform="translate(-136.9 -106.05)" fill="#b1a063"/>
      </g>
      <g id="_202316ff" data-name="#202316ff" transform="translate(405.8 236.329)">
        <path id="Path_3713" data-name="Path 3713" d="M220.846,106.15c2.4-.562,5.7.135,6.624,2.761,4,8.24,1.707,17.6.988,26.293-14.707.382-29.368-1.28-43.828-3.84C196.664,122.923,208.879,114.7,220.846,106.15Z" transform="translate(-184.63 -105.969)" fill="#202316"/>
      </g>
      <g id="_1e291aff" data-name="#1e291aff" transform="translate(561.669 238.657)">
        <path id="Path_3714" data-name="Path 3714" d="M306.411,109.013c6.533-2.425,16.929-4.154,20.005,4.086,4.692,12.215.943,25.484-.853,37.923l-.494.023c-22.251,1.414-44.075,6.534-66.124,9.587.427-7.836.36-16.211-4.894-22.588C269.5,125.157,287.842,116.4,306.411,109.013Z" transform="translate(-254.05 -107.006)" fill="#1e291a"/>
      </g>
      <g id="_b19f62ff" data-name="#b19f62ff" transform="translate(464.246 240.663)">
        <path id="Path_3715" data-name="Path 3715" d="M299.417,126.491C319.6,119.8,339.765,112.93,360.444,107.9c-18.568,7.387-36.913,16.144-52.36,29.032-27.37,21.6-51.1,47.443-71.76,75.465-8.779-8.375-17.4-16.885-25.664-25.731C235.74,161.046,264.7,137.358,299.417,126.491Z" transform="translate(-210.66 -107.9)" fill="#b19f62"/>
      </g>
      <g id="_1b3020ff" data-name="#1b3020ff" transform="translate(387.524 261.724)">
        <path id="Path_3716" data-name="Path 3716" d="M176.49,130.527c5.9-4.648,12.125-8.892,18.277-13.247,14.46,2.56,29.121,4.221,43.828,3.839q-1.481,8.252-3.053,16.5l-1.482-.516c-9.318-4.064-19.6-2.2-29.413-2.672C195.126,134.344,185.74,132.593,176.49,130.527Z" transform="translate(-176.49 -117.28)" fill="#1b3020"/>
      </g>
      <g id="_163b29ff" data-name="#163b29ff" transform="translate(382.584 274.972)">
        <path id="Path_3717" data-name="Path 3717" d="M174.941,126.795c1.392-1.235,2.829-2.425,4.288-3.615,9.251,2.066,18.636,3.817,28.156,3.907,9.812.472,20.1-1.392,29.413,2.672l1.594.561c-1.168,4.311-2.29,8.622-3.436,12.933-12.192-.494-24.249-3.143-36.486-2.469a94.153,94.153,0,0,1-24.182-2.178C174.514,134.676,174.717,130.724,174.941,126.795Z" transform="translate(-174.29 -123.18)" fill="#163b29"/>
      </g>
      <g id="_153e2bff" data-name="#153e2bff" transform="translate(560.749 282.696)">
        <path id="Path_3718" data-name="Path 3718" d="M259.455,136.208c22.049-3.053,43.873-8.173,66.124-9.588-1.325,8.892-4.019,17.491-6.332,26.158l-1.864-.022c-10.687-.562-21.038,2.582-31.569,3.772-10.777,1.325-21.465,3.3-32.175,5.164A260,260,0,0,0,259.455,136.208Z" transform="translate(-253.64 -126.62)" fill="#153e2b"/>
      </g>
      <g id="_124632ff" data-name="#124632ff" transform="translate(380.249 290.397)">
        <path id="Path_3719" data-name="Path 3719" d="M175.585,130.05a94.167,94.167,0,0,0,24.182,2.178c12.237-.674,24.294,1.976,36.486,2.47-1.19,4.4-2.335,8.779-3.435,13.2l-.36.022c-19.848,1.594-39.382-3.166-59.208-3.008Q174.361,137.471,175.585,130.05Z" transform="translate(-173.25 -130.05)" fill="#124632"/>
      </g>
      <g id="_0d513bff" data-name="#0d513bff" transform="translate(376.881 305.239)">
        <path id="Path_3720" data-name="Path 3720" d="M174.894,136.66l.225.022c19.826-.158,39.36,4.6,59.208,3.009q-1.954,7.578-4.154,15.134l-.314-.045a102.873,102.873,0,0,0-23.912-1.706c-11.474.381-22.768-1.931-34.2-2.56Q173.366,143.609,174.894,136.66Z" transform="translate(-171.75 -136.66)" fill="#0d513b"/>
      </g>
      <g id="_0f4d38ff" data-name="#0f4d38ff" transform="translate(551.296 308.764)">
        <path id="Path_3721" data-name="Path 3721" d="M291.058,142.069c10.531-1.19,20.882-4.333,31.569-3.772l1.752.023c-2.56,8.127-5.007,16.3-7.813,24.361-22.454,2.829-44.592,7.814-67.135,9.992,3.21-8.4,6.489-16.773,9.139-25.372l.314-.068C269.593,145.37,280.281,143.394,291.058,142.069Z" transform="translate(-249.43 -138.23)" fill="#0f4d38"/>
      </g>
      <g id="_b0975cff" data-name="#b0975cff" transform="translate(280.176 314.444)">
        <path id="Path_3722" data-name="Path 3722" d="M147.136,140.76c8.353,5.389,15.74,12.08,22.745,19.108a346.2,346.2,0,0,0-34.241,42.706c-2.335-3.188-4.648-6.4-6.96-9.587Q138.278,167.019,147.136,140.76Z" transform="translate(-128.68 -140.76)" fill="#b0975c"/>
      </g>
      <g id="_095c44ff" data-name="#095c44ff" transform="translate(372.772 319.092)">
        <path id="Path_3723" data-name="Path 3723" d="M169.92,157.447c1.325-4.895,2.694-9.744,4.109-14.617,11.429.629,22.723,2.942,34.2,2.56a102.855,102.855,0,0,1,23.912,1.707c-1.527,4.693-2.066,9.789-4.311,14.213l-1.684.673c-11.249-.583-22.408-2.784-33.7-2.29A70.434,70.434,0,0,1,169.92,157.447Z" transform="translate(-169.92 -142.83)" fill="#095c44"/>
      </g>
      <g id="_b0965cff" data-name="#b0965cff" transform="translate(429.87 319.429)">
        <path id="Path_3724" data-name="Path 3724" d="M195.35,180.814c10.957-13.045,22.027-26.046,34.376-37.834,8.263,8.846,16.884,17.356,25.664,25.731-9.609,13.27-18.838,26.786-27.572,40.663C216.658,200.258,205.768,190.76,195.35,180.814Z" transform="translate(-195.35 -142.98)" fill="#b0965c"/>
      </g>
      <g id="_9f8752ff" data-name="#9f8752ff" transform="translate(421.001 357.262)">
        <path id="Path_3725" data-name="Path 3725" d="M192.073,170.023c2.582-3.5,5.434-6.8,8.2-10.193,10.418,9.947,21.308,19.445,32.467,28.56q-4.176,6.636-8.307,13.315c-12.484-8.2-21.668-20.163-33.029-29.683C191.557,171.528,191.894,170.518,192.073,170.023Z" transform="translate(-191.4 -159.83)" fill="#9f8752"/>
      </g>
      <g id="_96804eff" data-name="#96804eff" transform="translate(260.574 366.67)">
        <path id="Path_3726" data-name="Path 3726" d="M119.95,220.332c6.107-18.906,12.8-37.631,19.6-56.312,2.313,3.188,4.625,6.4,6.96,9.587A361.835,361.835,0,0,0,119.95,220.332Z" transform="translate(-119.95 -164.02)" fill="#96804e"/>
      </g>
      <g id="_8e7a4aff" data-name="#8e7a4aff" transform="translate(416.825 369.454)">
        <path id="Path_3727" data-name="Path 3727" d="M189.54,178.17c1.347-4.333,2.739-8.622,4.177-12.91,11.361,9.52,20.544,21.487,33.028,29.683-2.784,4.648-5.523,9.318-8.173,14.056l-.9-.831c-7.589-6.938-14.572-14.528-22.588-20.971C192.01,185.041,190.8,181.494,189.54,178.17Z" transform="translate(-189.54 -165.26)" fill="#8e7a4a"/>
      </g>
      <g id="_7d6d42ff" data-name="#7d6d42ff" transform="translate(412.199 382.365)">
        <path id="Path_3734" data-name="Path 3734" d="M187.48,186.794c1.55-5.276,3.076-10.53,4.626-15.784,1.257,3.323,2.47,6.871,5.546,9.026,8.016,6.444,15,14.033,22.588,20.971l.9.808c-2.515,4.131-4.94,8.307-7.32,12.506C204.724,205.52,191.185,199.862,187.48,186.794Z" transform="translate(-187.48 -171.01)" fill="#7d6d42"/>
      </g>
      <g id="_6d603aff" data-name="#6d603aff" transform="translate(407.978 398.149)">
        <path id="Path_3735" data-name="Path 3735" d="M185.6,193.51c1.3-5.187,2.784-10.328,4.221-15.47,3.7,13.068,17.244,18.726,26.337,27.527-2.514,4.378-5.007,8.757-7.432,13.18C201.676,209.7,187.867,205.657,185.6,193.51Z" transform="translate(-185.6 -178.04)" fill="#6d603a"/>
      </g>
      <g id="_57502fff" data-name="#57502fff" transform="translate(401.063 413.62)">
        <path id="Path_3736" data-name="Path 3736" d="M182.52,214.343c2.087-9.857,4.355-19.669,6.915-29.413,2.267,12.147,16.076,16.189,23.127,25.237-4.222,7.634-8.578,15.223-12.821,22.835C193.5,227.276,186.336,222.134,182.52,214.343Z" transform="translate(-182.52 -184.93)" fill="#57502f"/>
      </g>
      <g id="_403e24ff" data-name="#403e24ff" transform="translate(397.942 443.033)">
        <path id="Path_3737" data-name="Path 3737" d="M181.13,217.587c.853-6.534,1.909-13.068,3.121-19.557,3.817,7.791,10.979,12.933,17.221,18.658-2.537,4.491-5.12,8.937-7.679,13.382C189.572,225.894,185.374,221.74,181.13,217.587Z" transform="translate(-181.13 -198.03)" fill="#403e24"/>
      </g>
      <g id="_2f311cff" data-name="#2f311cff" transform="translate(396.536 462.59)">
        <path id="Path_3738" data-name="Path 3738" d="M181.91,206.74c4.244,4.154,8.442,8.308,12.663,12.484-4.086,5.838-6.96,13.382-13.584,16.75A124.85,124.85,0,0,1,181.91,206.74Z" transform="translate(-180.504 -206.74)" fill="#2f311c"/>
      </g>
    </g>
  </g>
</svg>
