<svg xmlns="http://www.w3.org/2000/svg" xmlns:xlink="http://www.w3.org/1999/xlink" width="944" height="944" viewBox="0 0 944 944">
  <defs>
    <clipPath id="clip-Artboard_23">
      <rect width="944" height="944"/>
    </clipPath>
  </defs>
  <g id="Artboard_23" data-name="Artboard – 23" clip-path="url(#clip-Artboard_23)">
    <rect width="944" height="944" fill="#fff"/>
    <g id="Group_5910" data-name="Group 5910" transform="translate(89.379 387.174)">
      <g id="Payment_Option_1" data-name="Payment Option 1" transform="translate(0 0)">
        <path id="Path_229" data-name="Path 229" d="M61.9,228.486,100.7.9h61.911l-38.8,227.586Z" transform="translate(207.977 3.024)" fill="#191919"/>
        <path id="Path_230" data-name="Path 230" d="M271.168,9.592C258.96,4.8,239.776,0,215.8,0,154.322,0,111.16,30.955,111.16,74.99c-.436,32.7,30.955,51.011,54.5,61.91,23.979,11.336,32.263,18.312,32.263,28.339,0,15.26-19.184,22.235-37.059,22.235-24.852,0-37.931-3.488-58.423-11.772l-8.72-3.924L85,222.79c14.388,6.54,41.419,11.772,69.322,12.208,65.4,0,107.69-30.519,108.126-77.606.436-25.723-16.132-45.779-51.883-61.91-21.8-10.464-34.879-17.44-34.879-28.339,0-9.592,11.336-19.62,35.315-19.62,20.491-.436,34.879,3.924,46.215,8.72l5.668,2.616,8.284-49.267" transform="translate(285.59)" fill="#191919"/>
        <path id="Path_231" data-name="Path 231" d="M297.252,1H249.293c-14.823,0-26.159,3.924-32.7,18.748L124.6,228.15h64.962s10.463-27.9,13.08-34.007h79.35c1.744,7.848,7.412,34.007,7.412,34.007h57.55L297.252,1m-76.3,146.492c5.232-13.08,24.852-63.654,24.852-63.654-.436.436,5.232-13.08,8.284-21.8l4.36,19.619s11.772,54.5,14.387,65.834Z" transform="translate(418.642 3.36)" fill="#191919"/>
        <path id="Path_232" data-name="Path 232" d="M167.932.9,106.894,156.112l-6.54-31.391C89.454,88.534,54.139,48.859,14.9,29.239L70.271,228.486h65.834L233.767.9H167.932" transform="translate(50.063 3.024)" fill="#191919"/>
        <path id="Path_233" data-name="Path 233" d="M100.714.9H.872L0,5.7C78.042,24.443,129.489,70.222,150.852,124.721l-21.8-104.637C125.129,5.7,114.229,1.336,100.714.9" transform="translate(0 3.024)" fill="#bdc6cf"/>
      </g>
    </g>
  </g>
</svg>
