<svg xmlns="http://www.w3.org/2000/svg" xmlns:xlink="http://www.w3.org/1999/xlink" width="944" height="944" viewBox="0 0 944 944">
  <defs>
    <clipPath id="clip-path">
      <rect id="Rectangle_1504" data-name="Rectangle 1504" width="633" height="652" transform="translate(84.381 152.883)" fill="#fff" stroke="#707070" stroke-width="1"/>
    </clipPath>
    <clipPath id="clip-Artboard_26">
      <rect width="944" height="944"/>
    </clipPath>
  </defs>
  <g id="Artboard_26" data-name="Artboard – 26" clip-path="url(#clip-Artboard_26)">
    <rect width="944" height="944" fill="#fff"/>
    <g id="Mask_Group_61" data-name="Mask Group 61" transform="translate(71.619 -6.883)" clip-path="url(#clip-path)">
      <g id="Group_618" data-name="Group 618" transform="translate(107.501 153.332)">
        <g id="Group_615" data-name="Group 615" transform="translate(0 96.518)">
          <g id="Group_608" data-name="Group 608" transform="translate(0 339.025)">
            <g id="Group_606" data-name="Group 606" transform="translate(0 23.101)">
              <path id="Path_205" data-name="Path 205" d="M690.6,3613.224H681a4.5,4.5,0,0,1,0-9h9.6a4.5,4.5,0,1,1,0,9Z" transform="translate(-676.5 -3604.224)" fill="#d19130"/>
              <path id="Path_206" data-name="Path 206" d="M719.949,3613.224h-10.8a4.5,4.5,0,1,1,0-9h10.8a4.5,4.5,0,1,1,0,9Z" transform="translate(-668.645 -3604.224)" fill="#d19130"/>
            </g>
            <g id="Group_607" data-name="Group 607" transform="translate(23.101)">
              <path id="Path_207" data-name="Path 207" d="M699.062,3633.85a4.5,4.5,0,0,1-4.5-4.5v-9.6a4.5,4.5,0,0,1,9,0v9.6A4.5,4.5,0,0,1,699.062,3633.85Z" transform="translate(-694.561 -3578.046)" fill="#d19130"/>
              <path id="Path_208" data-name="Path 208" d="M699.062,3605.964a4.5,4.5,0,0,1-4.5-4.5v-10.8a4.5,4.5,0,0,1,9,0v10.8A4.5,4.5,0,0,1,699.062,3605.964Z" transform="translate(-694.561 -3586.163)" fill="#d19130"/>
            </g>
          </g>
          <g id="Group_611" data-name="Group 611" transform="translate(150.011 0)">
            <g id="Group_609" data-name="Group 609" transform="translate(0 23.101)">
              <path id="Path_209" data-name="Path 209" d="M807.881,3348.168h-9.6a4.5,4.5,0,1,1,0-9h9.6a4.5,4.5,0,1,1,0,9Z" transform="translate(-793.781 -3339.168)" fill="#d19130"/>
              <path id="Path_210" data-name="Path 210" d="M837.229,3348.168h-10.8a4.5,4.5,0,1,1,0-9h10.8a4.5,4.5,0,1,1,0,9Z" transform="translate(-785.926 -3339.168)" fill="#d19130"/>
            </g>
            <g id="Group_610" data-name="Group 610" transform="translate(23.101)">
              <path id="Path_211" data-name="Path 211" d="M816.343,3368.793a4.5,4.5,0,0,1-4.5-4.5v-9.6a4.5,4.5,0,0,1,9,0v9.6A4.5,4.5,0,0,1,816.343,3368.793Z" transform="translate(-811.842 -3312.991)" fill="#d19130"/>
              <path id="Path_212" data-name="Path 212" d="M816.343,3340.909a4.5,4.5,0,0,1-4.5-4.5v-10.8a4.5,4.5,0,0,1,9,0v10.8A4.5,4.5,0,0,1,816.343,3340.909Z" transform="translate(-811.842 -3321.107)" fill="#d19130"/>
            </g>
          </g>
          <g id="Group_614" data-name="Group 614" transform="translate(520.237 35.402)">
            <g id="Group_612" data-name="Group 612" transform="translate(0 23.101)">
              <path id="Path_213" data-name="Path 213" d="M1097.331,3375.848h-9.6a4.5,4.5,0,0,1,0-9h9.6a4.5,4.5,0,0,1,0,9Z" transform="translate(-1083.23 -3366.846)" fill="#d19130"/>
              <path id="Path_214" data-name="Path 214" d="M1126.68,3375.848h-10.8a4.5,4.5,0,0,1,0-9h10.8a4.5,4.5,0,0,1,0,9Z" transform="translate(-1075.374 -3366.846)" fill="#d19130"/>
            </g>
            <g id="Group_613" data-name="Group 613" transform="translate(23.103)">
              <path id="Path_215" data-name="Path 215" d="M1105.792,3396.474a4.5,4.5,0,0,1-4.5-4.5v-9.6a4.5,4.5,0,0,1,9,0v9.6A4.5,4.5,0,0,1,1105.792,3396.474Z" transform="translate(-1101.292 -3340.669)" fill="#d19130"/>
              <path id="Path_216" data-name="Path 216" d="M1105.792,3368.588a4.5,4.5,0,0,1-4.5-4.5v-10.8a4.5,4.5,0,0,1,9,0v10.8A4.5,4.5,0,0,1,1105.792,3368.588Z" transform="translate(-1101.292 -3348.786)" fill="#d19130"/>
            </g>
          </g>
          <path id="Path_217" data-name="Path 217" d="M742.806,3698.778a14.586,14.586,0,1,1,14.587-14.586A14.6,14.6,0,0,1,742.806,3698.778Zm0-20.172a5.585,5.585,0,1,0,5.586,5.586A5.591,5.591,0,0,0,742.806,3678.606Z" transform="translate(-662.067 -3223.852)" fill="#d19130"/>
          <path id="Path_218" data-name="Path 218" d="M1118.078,3478.122a14.586,14.586,0,1,1,14.586-14.586A14.6,14.6,0,0,1,1118.078,3478.122Zm0-20.172a5.585,5.585,0,1,0,5.586,5.586A5.591,5.591,0,0,0,1118.078,3457.95Z" transform="translate(-557.338 -3285.43)" fill="#d19130"/>
        </g>
        <g id="Group_616" data-name="Group 616" transform="translate(17.794 119.684)">
          <path id="Path_219" data-name="Path 219" d="M1048.537,3365.854a4.47,4.47,0,0,1-2.646-.864,277.308,277.308,0,0,0-26.986-17.349,4.5,4.5,0,0,1,4.418-7.841,286.134,286.134,0,0,1,27.867,17.916,4.5,4.5,0,0,1-2.653,8.139Z" transform="translate(-599.378 -3339.219)" fill="#d19130"/>
          <path id="Path_220" data-name="Path 220" d="M763.564,3382.494a4.5,4.5,0,0,1-3.09-7.773c4.454-4.205,9.1-8.316,13.806-12.219a4.5,4.5,0,0,1,5.746,6.929c-4.56,3.781-9.06,7.763-13.373,11.836A4.489,4.489,0,0,1,763.564,3382.494Z" transform="translate(-671.253 -3333.01)" fill="#d19130"/>
          <path id="Path_221" data-name="Path 221" d="M697.15,3604.762a4.5,4.5,0,0,1-4.459-3.933,288.261,288.261,0,0,1-.023-72.173,281.633,281.633,0,0,1,34.595-104.138,4.5,4.5,0,0,1,7.83,4.44A272.643,272.643,0,0,0,701.6,3529.785a279.218,279.218,0,0,0,.022,69.911,4.5,4.5,0,0,1-4.471,5.066Z" transform="translate(-690.412 -3316.051)" fill="#d19130"/>
          <path id="Path_222" data-name="Path 222" d="M811.244,3733.284a4.482,4.482,0,0,1-2.247-.6,286.007,286.007,0,0,1-31.51-21.121,4.5,4.5,0,0,1,5.5-7.127,277.125,277.125,0,0,0,30.516,20.454,4.5,4.5,0,0,1-2.255,8.4Z" transform="translate(-666.6 -3237.559)" fill="#d19130"/>
          <path id="Path_223" data-name="Path 223" d="M929.87,3760.1a285.263,285.263,0,0,1-74.771-9.93,4.5,4.5,0,1,1,2.36-8.686,277.746,277.746,0,0,0,131.338,3.3,4.5,4.5,0,0,1,1.917,8.8A286.277,286.277,0,0,1,929.87,3760.1Z" transform="translate(-645.379 -3227.003)" fill="#d19130"/>
          <path id="Path_224" data-name="Path 224" d="M1021.118,3732.627a4.5,4.5,0,0,1-2.213-8.422c6.728-3.791,13.379-7.919,19.769-12.269a4.5,4.5,0,0,1,5.064,7.441c-6.6,4.492-13.468,8.752-20.416,12.668A4.481,4.481,0,0,1,1021.118,3732.627Z" transform="translate(-599.378 -3235.422)" fill="#d19130"/>
          <path id="Path_225" data-name="Path 225" d="M1076.222,3712.36a4.5,4.5,0,0,1-3.336-7.519,275.736,275.736,0,0,0,63.362-119.63,4.5,4.5,0,0,1,8.748,2.119,284.76,284.76,0,0,1-65.434,123.548A4.488,4.488,0,0,1,1076.222,3712.36Z" transform="translate(-583.998 -3271.53)" fill="#d19130"/>
          <path id="Path_226" data-name="Path 226" d="M1133.522,3549.037a4.5,4.5,0,0,1-4.5-4.5c0-8.288-.372-16.653-1.106-24.86-.6-6.715-1.457-13.486-2.546-20.122a4.5,4.5,0,0,1,8.882-1.46c1.124,6.856,2.009,13.846,2.63,20.779.759,8.474,1.142,17.109,1.142,25.663A4.5,4.5,0,0,1,1133.522,3549.037Z" transform="translate(-569.044 -3295.932)" fill="#d19130"/>
        </g>
        <g id="Group_617" data-name="Group 617" transform="translate(116.834)">
          <path id="Path_227" data-name="Path 227" d="M905.788,3671.629a79.319,79.319,0,0,1-17.509-156.643h0a79.3,79.3,0,1,1,17.509,156.643Zm-15.5-147.869a70.3,70.3,0,1,0,84.195,52.881,70.383,70.383,0,0,0-84.195-52.881Zm15.642,120.36a51.834,51.834,0,0,1-38.9-17.594,4.5,4.5,0,1,1,6.754-5.95,42.833,42.833,0,0,0,73.089-15.671,4.5,4.5,0,0,1,8.6,2.657,51.864,51.864,0,0,1-49.541,36.558Zm-35.079-41.076a19.8,19.8,0,0,1-4.409-39.106h0a19.8,19.8,0,1,1,4.408,39.106Zm-2.4-30.332a10.8,10.8,0,1,0,12.934,8.124,10.812,10.812,0,0,0-12.934-8.124Zm65.555,15.9a19.835,19.835,0,1,1,4.449-.506A19.95,19.95,0,0,1,934,3588.615Zm.04-30.611a10.8,10.8,0,1,0,10.528,8.4A10.787,10.787,0,0,0,934.038,3558Z" transform="translate(-751.437 -3171.042)" fill="#545454"/>
          <path id="Path_228" data-name="Path 228" d="M921.236,3496.391a4.5,4.5,0,0,1-4.492-4.784l13.21-210.115a25.257,25.257,0,1,0-50.415-3.166l-13.4,213.563a4.5,4.5,0,1,1-8.983-.562l13.4-213.565a34.258,34.258,0,1,1,68.381,4.293L926.876,3473.9l99.6-164.4a34.3,34.3,0,0,1,47.052-11.549l.052.031a34.258,34.258,0,0,1,11.5,47.022l-89.813,148.231a4.5,4.5,0,1,1-7.7-4.664l89.813-148.231a25.258,25.258,0,0,0-8.515-34.691l-.052-.032a25.274,25.274,0,0,0-34.638,8.546L925.085,3494.221A4.5,4.5,0,0,1,921.236,3496.391Z" transform="translate(-742.92 -3245.648)" fill="#545454"/>
          <path id="Path_229" data-name="Path 229" d="M961.805,3549.817a34.252,34.252,0,0,1-29.245-52l35.522-58.636a34.26,34.26,0,0,1,58.6,35.5l-35.522,58.635A34.279,34.279,0,0,1,961.805,3549.817Zm35.621-118.138a25.272,25.272,0,0,0-21.645,12.164l-35.523,58.635a25.26,25.26,0,0,0,43.208,26.179l35.522-58.637a25.249,25.249,0,0,0-21.563-38.341Z" transform="translate(-723.262 -3196.249)" fill="#545454"/>
          <path id="Path_230" data-name="Path 230" d="M998.556,3579.178a34.27,34.27,0,0,1-29.24-52.023l35.523-58.634a34.26,34.26,0,0,1,58.6,35.5l-35.524,58.633a34.029,34.029,0,0,1-21.134,15.52A34.5,34.5,0,0,1,998.556,3579.178ZM1034.186,3461a25.417,25.417,0,0,0-6.067.738,25.1,25.1,0,0,0-15.583,11.442l-35.522,58.634a25.29,25.29,0,0,0,8.515,34.693h0a25.261,25.261,0,0,0,34.692-8.516l35.523-58.634A25.275,25.275,0,0,0,1034.186,3461Z" transform="translate(-713.004 -3188.061)" fill="#545454"/>
          <path id="Path_231" data-name="Path 231" d="M784.025,3750.223a4.5,4.5,0,0,1-4.3-5.849l22.1-70.525a39.7,39.7,0,0,0-1.494-27.749l-25.287-57.959a85.661,85.661,0,0,1,7.01-81.668l38.146-57.887a36.8,36.8,0,0,1,34.391-16.42l91.859,8.968a31.029,31.029,0,0,1-4.968,61.851l-68.156-4.3-20.7,39.1a4.5,4.5,0,1,1-7.954-4.21l22.056-41.667a4.5,4.5,0,0,1,4.261-2.387L942.058,3494a22.029,22.029,0,0,0,3.526-43.91l-91.859-8.966a27.818,27.818,0,0,0-26,12.412l-38.146,57.888a76.7,76.7,0,0,0-6.276,73.116l25.288,57.96a48.7,48.7,0,0,1,1.833,34.039l-22.106,70.526A4.5,4.5,0,0,1,784.025,3750.223Z" transform="translate(-767.843 -3193.645)" fill="#545454"/>
          <path id="Path_232" data-name="Path 232" d="M912.549,3776.291a4.5,4.5,0,0,1-4.3-5.847l22.556-71.966a48.975,48.975,0,0,1,18.474-25.28l56.41-39.635a77.425,77.425,0,0,0,32.643-59.68l1.824-42.7a4.5,4.5,0,0,1,8.993.386l-1.825,42.694a85.951,85.951,0,0,1-36.461,66.661l-56.409,39.635a39.906,39.906,0,0,0-15.059,20.609l-22.557,71.963A4.5,4.5,0,0,1,912.549,3776.291Z" transform="translate(-728.716 -3167.165)" fill="#545454"/>
          <path id="Path_233" data-name="Path 233" d="M863.61,3520.246a4.478,4.478,0,0,1-1.812-.385,89.1,89.1,0,0,0-26.546-7.047,4.5,4.5,0,1,1,.614-8.979,97.215,97.215,0,0,1,29.561,7.789,4.5,4.5,0,0,1-1.817,8.621Z" transform="translate(-750.201 -3173.598)" fill="#545454"/>
        </g>
      </g>
    </g>
  </g>
</svg>
