<svg xmlns="http://www.w3.org/2000/svg" xmlns:xlink="http://www.w3.org/1999/xlink" width="944" height="944" viewBox="0 0 944 944">
  <defs>
    <clipPath id="clip-path">
      <path id="Path_3621" data-name="Path 3621" d="M0,0H882.077V620.722H0Z" transform="translate(0 0)" fill="#bdc6cf" opacity="0.13"/>
    </clipPath>
    <clipPath id="clip-Artboard_12">
      <rect width="944" height="944"/>
    </clipPath>
  </defs>
  <g id="Artboard_12" data-name="Artboard – 12" clip-path="url(#clip-Artboard_12)">
    <rect width="944" height="944" fill="#fff"/>
    <g id="Mask_Group_65" data-name="Mask Group 65" transform="translate(31 162)" clip-path="url(#clip-path)">
      <g id="Villagio_Mall_logo" data-name="Villagio Mall logo" transform="translate(0 73.383)">
        <g id="_90643fff" data-name="#90643fff" transform="translate(0 0)">
          <path id="Path_5010" data-name="Path 5010" d="M36.23,17.544c5.718-.331,12.025-.54,16.835,3.141,5.46,3.8,7.166,10.884,6.921,17.191-.319,7.988,1.387,16.7,7.338,22.467,3.657,3.706,8.552,5.694,13.166,7.915.515-2.442.7-5.031,1.865-7.264,1.546-2.368,4.417-3.166,6.847-4.307-.221-.969-.638-2.908-.847-3.877-.847-.344-2.528-1.006-3.374-1.35L88.269,49.5Q87.441,44.8,86.8,40.1c4.81-.479,9.608-.994,14.418-1.485.2,2.687.393,5.387.589,8.074a48.142,48.142,0,0,1,7.092,2.147q-2.908,1.178-5.853,2.221c-.025,2.6-.049,5.215-.11,7.829,2.9,2.012,5.9,3.89,8.859,5.816-.319-4.773-.074-9.718,2.454-13.927,2.724-.356,5.939-.982,8.148,1.141,3.129,2.663,2.258,7.129,2.589,10.749,2.074.331,4.282.294,6.27,1.117,3.423,1.656,1.571,7.2,5.141,8.589,5.914.466,12.062.687,17.485,3.436,4.663,1.939,8.344,5.473,11.657,9.191,5.5-.16,11.019-.123,16.528-.135.16-1.571.319-3.141.479-4.7,5.1-2.54,10.7-.515,15.952.307a279.975,279.975,0,0,0,31.621,4.258c.086-9.767-1.252-19.486-1.031-29.265-2-.282-4-.564-5.976-.859-3.877-4.651-10.6-4.516-15.89-6.552,4.835.061,9.546,1.153,14.258,2.111-.466-3.939-1.423-8.884,2.111-11.743,9.915,3.681,20.43,5.828,31.057,5.092,1.583,6.957,1.62,14.111,1.644,21.2,6.761,3.546,13.669,6.847,20.074,11.056,1.546.883,3.043,2.037,4.859,2.393,7.473-.712,13.093-6.528,16.479-12.835,4.785-7.951,11.841-17.056,22.234-16.3-2.675,4.16-8.908,4.172-10.933,9.031-4.417,9.951-5.252,21.51-12.258,30.3,3.632,3.006,7.767,5.448,10.994,8.908l1.239,1.681c-4.7-2.687-8.688-6.43-13.2-9.375-7.276,9.657-18.946,13.915-29.474,18.9,3.178.454,6.405.8,9.6,1.313-.712.2-2.135.564-2.847.748-5.509-.086-11.019-.037-16.5.307,6.086,1.387,12.344,1.423,18.553,1.558,2.736-.295,4.835,1.632,6.957,3.031l-1.988.147c-5.117-2.012-10.651-1.129-15.964-1.092-31.916.638-63.819,2.1-95.734,2.319-23.743-.11-47.487-.5-71.206-1.423-10.516-.393-21.068-2.111-31.584-.712-1.865-.4-3.73-.834-5.559-1.337-.491-.27-1.485-.81-1.976-1.08-7.252-.724-14.626-.454-21.78-1.988a49.629,49.629,0,0,1,9.424-1.288c15.669-.834,31.376-.528,47.07-.564-16.749-5.792-33.437-17.719-37.953-35.72-1.019-.724-2.025-1.436-3.019-2.16.859-.773,1.718-1.546,2.589-2.307-1.939-.38-4.037-.479-5.571-1.877,1.706-.712,3.46-1.374,5.19-2.049-2.368-.564-5.227.025-7.043-1.988,2.2-.847,4.417-1.657,6.6-2.565-2.16-.1-4.319-.135-6.479-.123-.012-.515-.037-1.558-.049-2.074A19.45,19.45,0,0,0,53.4,55.681c-2.552-.258-5.117-.344-7.657-.515,1.816-2.061,4.565-2.712,6.884-4.025-2.025-.074-4.062-.123-6.086-.147.847-2.871,4.319-2.552,6.479-3.951q-3.589-.258-7.154-.4c1.374-2.54,4.5-2.687,6.81-3.951-2.319-.16-4.614-.184-6.921-.184.1-.614.294-1.816.4-2.43,1.89-.1,3.792-.209,5.706-.319-.221-.847-.65-2.528-.859-3.374-2.368-.184-4.736-.123-7.1-.11-2.43-6.295-5.141-12.467-7.669-18.725m188.647,27.5c.172,1.976.368,3.951.564,5.939a65.5,65.5,0,0,0,19.473,2.111c.6,4.589,2.859,8.945,7.694,10.185a67.3,67.3,0,0,0-3.6-17.461c-6.957.2-14.369-.393-20.467-4.037-1.252,1.068-2.466,2.16-3.669,3.264m24.8,20.075c.822,6.283,1.877,12.54,1.988,18.9a55.608,55.608,0,0,0,26.161-4.295c-9.154-5.313-18.884-9.534-28.148-14.6M238.018,84.971c1.2.012,2.405.037,3.62.049a67.193,67.193,0,0,0-2-18.05c-2.687,5.644-1.374,12-1.62,18M138.443,99.511c.883,1.043,1.828,2.049,2.822,3.031.81-1.117,1.6-2.245,2.344-3.411a26.284,26.284,0,0,0-2.454-3.313c-.773,1.252-2.712,2.061-2.712,3.693m25.093-.4c.724,1.08,1.485,2.135,2.295,3.178,1.153-1.031,2.331-2.061,3.509-3.08-1.19-1.018-2.368-2.037-3.546-3.043-.8.945-1.546,1.939-2.258,2.945m21.964-.344c1.153,1.166,2.307,2.331,3.485,3.5.871-1.19,1.792-2.356,2.675-3.546-.7-.54-2.086-1.644-2.785-2.2-1.129.749-2.258,1.5-3.374,2.246m25.02.454c1.092,1.019,2.184,2.049,3.289,3.092,1.068-1.043,2.147-2.074,3.239-3.1-1.08-1.043-2.16-2.074-3.227-3.092C212.717,97.143,211.612,98.174,210.52,99.217Z" transform="translate(260.164 -17.377)" fill="#90643f"/>
          <path id="Path_5011" data-name="Path 5011" d="M18.085,27.3c.614-1.288,1.018-3.055,2.822-2.847,10.148-.5,20.737-.626,30.21,3.583A36.613,36.613,0,0,1,70.271,46.479c22.835,57.242,45.879,114.423,68.69,171.677,9.129-20.05,16.823-40.738,24.909-61.23q10.9-27.94,21.179-56.125c3.166-8.209,4.626-17.755,11.78-23.694,8.135-8.049,20.16-9.473,31.057-8.516.061.7.172,2.111.233,2.81-4.773.724-10.013.564-14.16,3.362-4.687,3.816-7.35,9.448-9.816,14.823-18.958,45.916-37.756,91.906-57.487,137.5-3.9,8.2-7.08,16.8-11.866,24.553a7.949,7.949,0,0,1-5.24-4.921Q87.677,145.656,45.485,44.688c-2.282-5.374-5.019-11.35-10.6-13.964C29.68,28.049,23.754,27.963,18.085,27.3Z" transform="translate(-18.085 87.363)" fill="#90643f"/>
          <path id="Path_5012" data-name="Path 5012" d="M138.47,26.257c25.191-3.583,52.15.331,73.917,14.013,12.859,7.755,22.835,19.486,30,32.566C249,67.5,255.739,61.719,264.205,59.645c3.583-.994,8.172-.908,10.6,2.38-1.448,2.331-4.331,2.847-6.626,3.976-6.884,2.847-13.584,8.086-15.473,15.62a46.223,46.223,0,0,0-1.374,18.332,128.709,128.709,0,0,1-5.559,55.365c-6.233,18.271-19.24,33.695-34.64,45.033-21.412,15.179-48.9,19.792-74.555,15.976-17.216-2.577-34-9.718-46.861-21.608-17.093-15.4-27.29-37.609-29.977-60.273C54.429,96.371,73.62,55.424,107.5,36.675A93.555,93.555,0,0,1,138.47,26.257m1.215,8.454c-12.749,2.2-25.155,7.62-34.492,16.712-12.111,11.215-18.712,27.2-21.338,43.254-3.571,24.026-.9,49.475,10.1,71.328,7.718,14.909,19.829,27.854,35.167,34.983,20.762,9.951,46.665,9.522,66.359-2.822,16.148-9.841,25.989-27.412,30-45.511a137.03,137.03,0,0,0-.2-56.947c-4.54-19.559-15.142-38.358-31.977-49.843C177.944,34.957,158.09,31.435,139.684,34.712Z" transform="translate(607.27 99.56)" fill="#90643f"/>
          <path id="Path_5013" data-name="Path 5013" d="M62.168,40.933c12.859-11.927,31.3-14.9,48.223-14.356,11.375.319,22.406,3.436,33.732,4.307-.687,8.209-.871,16.442-1.3,24.652-.429.11-1.288.307-1.718.417-1.068-4.675-1.387-9.9-4.957-13.485-6.147-6.307-15.154-8.491-23.584-9.731-13.215-1.718-27.682-.442-38.75,7.62-7.289,4.859-11.694,12.9-14.136,21.118C54.683,79.106,57.689,98.936,68.254,114,80.6,131.44,104.4,139.122,124.821,133.428c2.417-.834,5.608-2.111,5.718-5.129.479-8.945.061-17.94.184-26.9-.209-3.865.368-8.074-1.656-11.559-2.92-3.6-8.184-2.16-11.829-4.405,4.454-1.755,9.375-.577,14.025-.749,7.8.552,15.694-.908,23.424.515-2.749,1.926-6.393,1.669-9.129,3.546-1.816,2.135-1.841,5.08-2.1,7.718-.712,12.491.343,25.044-.577,37.511-11.743,7.5-26.443,7.927-39.965,7.473-17.179-.847-35.155-7.24-46.247-20.909C38.547,97.635,40.412,60.872,62.168,40.933Z" transform="translate(384.49 122.776)" fill="#90643f"/>
          <path id="Path_5014" data-name="Path 5014" d="M121.092,33.581c1.043-1.914,1.473-5.5,4.368-5.068,1.742,1.742,2.5,4.172,3.5,6.381C143.019,71.607,157,108.345,171.3,144.96c4.012,9.669,7.08,19.866,12.958,28.639,3.117,4.663,8.013,8.589,13.817,8.872,2.344.491,5.24-.074,7.1,1.792-2.761,2.884-7.178,1.423-10.7,1.914-12.786.761-26.627-5.068-32.566-16.909-5.792-14.418-10.9-29.106-16.651-43.536-14.283-.012-28.566-.061-42.849-.012-1.3.258-3.632-.442-4.062,1.325-8.013,23.007-15.338,46.248-23.375,69.243-1.018,3.178-1.877,7.1.442,9.951,2.528,2.5,6.43,1.792,9.6,2.773-.38,2.724-3.816,2.405-5.853,2.43a180.953,180.953,0,0,0-24.6-.331c-5.767.037-11.927,1.5-17.314-1.252,4.417-2.871,10.258-.847,14.676-3.8,6.307-3.546,8.884-10.663,11.326-17.044q28.879-77.727,57.843-155.431m-19.535,84.642q20.412.037,40.836.025c-4.847-14.945-10.356-29.67-15.436-44.53-1.9-4.97-3.129-10.246-5.951-14.811C114.122,78.54,107.877,98.406,101.557,118.223Z" transform="translate(275.773 152.853)" fill="#90643f"/>
        </g>
        <g id="_8c6341ff" data-name="#8c6341ff" transform="translate(490.636 2.401)">
          <path id="Path_5015" data-name="Path 5015" d="M58.134,17.524c2.295.012,4.589.049,6.908.074-.282,4.111,2.969,5.865,6.16,7.424-3.1.466-8.651-.54-8.847,4,1.841,1.362,3.865,2.417,5.8,3.657a60.531,60.531,0,0,0-12.651.159c-2.479-.307-4.933-.773-7.387-1.068.577-.221,1.73-.675,2.307-.9,1.816-.822,3.669-1.546,5.546-2.258a18.427,18.427,0,0,0,.27-4.1,31.879,31.879,0,0,0-6.5-2.405C52.956,21.414,56.612,20.9,58.134,17.524Z" transform="translate(-48.121 -17.524)" fill="#8c6341"/>
        </g>
        <g id="_7c5e44ff" data-name="#7c5e44ff" transform="translate(488.329 16.647)">
          <path id="Path_5016" data-name="Path 5016" d="M47.98,19.893c.577-.38,1.73-1.129,2.307-1.5,2.454.295,4.908.761,7.387,1.068,4.54.957,9.24.6,13.78,1.509l1.607,1.951C64.57,23.709,56.14,22.065,47.98,19.893Z" transform="translate(-47.98 -18.396)" fill="#7c5e44"/>
        </g>
        <g id="_82644bff" data-name="#82644bff" transform="translate(484.967 19.125)">
          <path id="Path_5017" data-name="Path 5017" d="M47.774,18.548c4.651.049,8.994,1.828,13.522,2.626,5.289,1.092,10.712.859,16.074.933l-1.1,2.012c-6.626,1.055-13.387-.061-19.854-1.6C53.345,21.677,49.983,21.051,47.774,18.548Z" transform="translate(-47.774 -18.548)" fill="#82644b"/>
        </g>
        <g id="_96775aff" data-name="#96775aff" transform="translate(489.409 26.929)">
          <path id="Path_5018" data-name="Path 5018" d="M48.046,19.025A71.88,71.88,0,0,0,65.225,21.5l-2.061,3.779c-4.552-.319-9.1-.687-13.645-1.08C49.15,22.9,48.414,20.314,48.046,19.025Z" transform="translate(-48.046 -19.025)" fill="#96775a"/>
        </g>
        <g id="_87674cff" data-name="#87674cff" transform="translate(489.004 32.108)">
          <path id="Path_5019" data-name="Path 5019" d="M49.9,19.342c4.54.393,9.092.761,13.645,1.08l2.061.344c-5.632,2.565-12.2,1.448-17.584-1.178Z" transform="translate(-48.021 -19.342)" fill="#87674c"/>
        </g>
        <g id="_fffaebff" data-name="#fffaebff" transform="translate(398.607 78.441)">
          <path id="Path_5020" data-name="Path 5020" d="M42.487,25.872c0-1.632,1.939-2.442,2.712-3.693a26.286,26.286,0,0,1,2.454,3.313c-.748,1.166-1.534,2.295-2.344,3.411C44.316,27.921,43.371,26.915,42.487,25.872Z" transform="translate(-42.487 -22.179)" fill="#fffaeb"/>
          <path id="Path_5021" data-name="Path 5021" d="M44.023,25.145c.712-1.006,1.46-2,2.258-2.945,1.178,1.006,2.356,2.025,3.546,3.043-1.178,1.018-2.356,2.049-3.509,3.08C45.508,27.28,44.747,26.225,44.023,25.145Z" transform="translate(-18.93 -21.856)" fill="#fffaeb"/>
          <path id="Path_5022" data-name="Path 5022" d="M45.368,24.467c1.117-.748,2.246-1.5,3.374-2.246.7.552,2.086,1.657,2.785,2.2-.884,1.19-1.8,2.356-2.675,3.546C47.675,26.8,46.521,25.633,45.368,24.467Z" transform="translate(1.689 -21.522)" fill="#fffaeb"/>
        </g>
        <g id="_fce9d1ff" data-name="#fce9d1ff" transform="translate(470.684 78.736)">
          <path id="Path_5023" data-name="Path 5023" d="M46.9,25.3c1.092-1.043,2.2-2.074,3.3-3.1,1.068,1.018,2.147,2.049,3.227,3.092-1.092,1.031-2.172,2.061-3.239,3.1C49.084,27.35,47.992,26.32,46.9,25.3Z" transform="translate(-46.9 -22.197)" fill="#fce9d1"/>
        </g>
        <g id="_826246ff" data-name="#826246ff" transform="translate(320.186 79.889)">
          <path id="Path_5024" data-name="Path 5024" d="M52.851,22.267a108.726,108.726,0,0,1,17.473,14.5,43.283,43.283,0,0,1-11.117-.81c2.626-.233,5.252-.356,7.914-.491-4.074-4.16-9.2-7.141-13.031-11.522Z" transform="translate(194.865 -22.267)" fill="#826246"/>
          <path id="Path_5025" data-name="Path 5025" d="M53.575,23.535c6.258-.54,12.59.11,18.872-.43,6.356,0,13.731-1.067,18.847,3.62a11.386,11.386,0,0,1-10.148-1.681c-1.988-.012-3.976-.025-5.951-.012,1.055,1.264,2.147,2.54,3.215,3.828-1.693.859-3.35,1.779-5.092,2.466-6.283.675-12.6.638-18.9.834-.822-.712-1.644-1.411-2.454-2.123,1.448-.172,4.331-.54,5.779-.712l1.988-.147a31.131,31.131,0,0,0,13.24-2.65c-7.227-2.209-14.823-1.62-22.246-2.245C51.44,24.1,52.863,23.731,53.575,23.535Z" transform="translate(162.3 -11.019)" fill="#826246"/>
          <path id="Path_5026" data-name="Path 5026" d="M37.686,23.251c1.828.5,3.693.933,5.559,1.337,8.589,2.994,17.78,2.6,26.737,3.154,60.739.969,121.515,1.117,182.229-.871-.135.356-.417,1.08-.552,1.448-3.215,1.043-6.687.479-9.988.626-61.733,1.276-123.527,2.871-185.235.233-4.847-.429-9.792-.675-14.479-2.012C39.883,26.723,38.68,24.932,37.686,23.251Z" transform="translate(-37.686 -7.189)" fill="#826246"/>
        </g>
        <g id="_90633eff" data-name="#90633eff" transform="translate(285.105 140.396)">
          <path id="Path_5027" data-name="Path 5027" d="M35.539,28.228c.2-.564.577-1.669.773-2.221,10.344-.012,20.676,1.215,31.008.123,2.884.16,6.675-1.1,8.712,1.607-3.742,1.19-8.16.736-11.326,3.338-2.221,3.264-1.693,7.46-1.939,11.2-.11,25.768-.331,51.548.16,77.3.454,5.313-.061,11.363,3.264,15.866,4.9,3.522,11.3,3.055,17.031,3.289,5.939-.147,12.393.491,17.768-2.54,5.055-3.264,5.62-9.767,8.2-14.712,1.767,6.614-.1,13.547-1.706,20.013-.454,3.4-4.368,3.448-6.994,3.46-20.651.159-41.29-1.252-61.942-.368-.11-.54-.331-1.607-.442-2.147,2.577-.368,5.289-.393,7.669-1.558,1.73-1.779,2.025-4.368,2.466-6.675,1.313-8.908.994-17.94,1.043-26.921-.025-21.657.061-43.327-.037-64.985-.319-3.841.147-8.344-2.614-11.412C43.465,28.5,39.294,28.621,35.539,28.228Z" transform="translate(-35.539 -25.972)" fill="#90633e"/>
        </g>
        <g id="_8e6440ff" data-name="#8e6440ff" transform="translate(617.132 145.254)">
          <path id="Path_5028" data-name="Path 5028" d="M55.927,28.331c.933-1.374,2.2-2.344,3.988-1.988,6.552-.172,13.1.871,19.67.38,4.086-.2,8.221-.712,12.307-.16.417.454,1.252,1.35,1.669,1.791-3.9.883-9.841.54-10.786,5.62-1.546,13.424-.8,27.007-.982,40.5.135,20.1-.466,40.223.834,60.3-.037,2.994,1.583,5.583,3.117,8.037,3.963.736,8,1.117,12.025,1.472-.368.454-1.117,1.35-1.485,1.8-8.405.957-16.872-.43-25.289.037-5.043.147-10.2.822-15.13-.54,3.3-2.454,9.3-1.129,10.639-5.829,2.025-6.822,1.46-14.05,1.742-21.081.1-25.375.147-50.751-.037-76.139-.233-4.184.16-9.277-3.362-12.283C62.062,28.957,58.884,28.969,55.927,28.331Z" transform="translate(-55.865 -26.269)" fill="#8e6440"/>
        </g>
        <g id="_8f643fff" data-name="#8f643fff" transform="translate(233.532 173.375)">
          <path id="Path_5029" data-name="Path 5029" d="M32.382,30.447c.172-.613.5-1.816.663-2.417,5.89.086,11.8-.061,17.694.344,8.712.81,17.485-1.227,26.161.049.27.491.822,1.472,1.092,1.951-4.381.724-9.816.086-12.97,3.853-2.135,4.687-1.571,10.037-1.767,15.068-.012,27.007-.147,54.015.086,81.01.233,6.467.147,13.093,2.123,19.314,1.252,4.1,5.89,5.583,9.706,6.172,6.111.982,12.344.7,18.516.663,5.08-.245,10.688-.675,14.8-4.012,4.221-3.878,5.289-9.792,6.908-15.019,1.067,1.031,2.307,2.16,1.89,3.865a115.527,115.527,0,0,1-2.479,16.761c-.675,1.963-1.448,4.884-3.963,4.994-9.78,1.436-19.657-.1-29.486.135-15.363-.614-30.725-.393-46.1-.282-.024-.589-.061-1.755-.086-2.331,3.693-.675,9.4.037,10.577-4.663,2.307-7.9,1.742-16.258,2.1-24.394.037-28.492.16-56.984-.074-85.476-.344-4.258.368-9.51-3.092-12.675C41.155,30.766,36.529,30.938,32.382,30.447Z" transform="translate(-32.382 -27.991)" fill="#8f643f"/>
        </g>
        <g id="_8d643eff" data-name="#8d643eff" transform="translate(201.175 183.072)">
          <path id="Path_5030" data-name="Path 5030" d="M30.4,30.29c2.4-2.442,5.976-1.448,9.019-1.534,7.522.4,15.031-.049,22.553-.172.025.5.061,1.522.086,2.025-2.822.54-6.565.258-8.172,3.129-1.607,5.276-1.227,10.884-1.3,16.344.135,20.43-.221,40.885.2,61.316.724,4.847-.442,10.467,2.6,14.651,3.46,1.706,7.559,1.448,11.264,2.442-7.387,3.73-15.792-.172-23.621,1.166-3.706-.209-8.933,2.111-11.522-1.46,2.4-.528,4.81-1.043,7.24-1.522,2-5.227,2.356-10.884,2.344-16.418.221-22.541.147-45.07.037-67.611A41.978,41.978,0,0,0,39.7,32.609,39.733,39.733,0,0,0,30.4,30.29Z" transform="translate(-30.401 -28.584)" fill="#8d643e"/>
        </g>
        <g id="_90653eff" data-name="#90653eff" transform="translate(749.875 207.012)">
          <path id="Path_5031" data-name="Path 5031" d="M63.992,42.836c3.914-4.491,8.221-8.6,12.442-12.786,4.16,4.282,8.626,8.27,12.491,12.847-4.319,3.951-8.417,8.123-12.5,12.32C72.323,51.045,68.3,46.787,63.992,42.836Z" transform="translate(-63.992 -30.05)" fill="#90653e"/>
        </g>
        <g id="_8e643fff" data-name="#8e643fff" transform="translate(532.653 232.035)">
          <path id="Path_5032" data-name="Path 5032" d="M64.163,41.775c9.313-8.418,22.467-10.491,34.6-10.16,8.491-.049,16.676,2.675,25.154,2.957-.454,5.755-.724,11.51-1.031,17.277-.27.429-.8,1.3-1.055,1.742-1.092-4.221-1.62-9.215-5.546-11.878-7.522-5.411-17.228-6.221-26.2-5.9-9.1.356-18.406,4.356-23.768,11.915-12.136,19.265-5.706,48.959,15.313,59.23,9.841,4.81,22.6,6.43,32.357.6-.528-10.074,1.264-20.43-1.215-30.3a61.373,61.373,0,0,1-8.872-2.749c9.24-.491,18.553-.344,27.805-.025-2.6,1.558-7.338,1.3-7.829,5.031-1.546,10.209-.049,20.615-1.129,30.848-6.283,4.27-14.234,5.031-21.621,5.583-13.89.577-28.762-2.8-38.959-12.786C46.224,86.734,46.9,57.027,64.163,41.775Z" transform="translate(-50.693 -31.582)" fill="#8e643f"/>
        </g>
        <g id="_936239ff" data-name="#936239ff" transform="translate(550 383.449)">
          <path id="Path_5033" data-name="Path 5033" d="M51.755,44.8c1.4-1.337,2.822-2.65,4.246-3.951,1.239,1.313,2.491,2.65,3.743,3.976q-1.859,1.877-3.681,3.779C54.614,47.355,53.179,46.066,51.755,44.8Z" transform="translate(-51.755 -40.851)" fill="#936239"/>
        </g>
        <g id="_8e663eff" data-name="#8e663eff" transform="translate(545.019 391.953)">
          <path id="Path_5034" data-name="Path 5034" d="M51.45,45.3c1.411-1.325,2.847-2.626,4.282-3.927,1.252,1.325,2.5,2.663,3.779,4-1.374,1.166-2.687,2.417-4.147,3.473C53.978,47.74,52.727,46.5,51.45,45.3Z" transform="translate(-51.45 -41.372)" fill="#8e663e"/>
        </g>
        <g id="_8f6847ff" data-name="#8f6847ff" transform="translate(555.044 392.296)">
          <path id="Path_5035" data-name="Path 5035" d="M55.856,41.393c1.816.626,2.982,2.38,4.467,3.571-1.5,1.276-2.957,2.577-4.43,3.877q-1.914-2.025-3.828-4.012A50.389,50.389,0,0,1,55.856,41.393Z" transform="translate(-52.064 -41.393)" fill="#8f6847"/>
        </g>
        <g id="_8b6441ff" data-name="#8b6441ff" transform="translate(420.669 395.087)">
          <path id="Path_5036" data-name="Path 5036" d="M56.047,42.1c6.528-2.344,13.461,3.374,13.1,10.135.2,19.277-.086,38.554.147,57.831-.479,2.8,2.957,3.288,4.6,4.7,4.4-3.657,8.2-8.7,8.16-14.676.061-15.706.393-31.425-.2-47.119-1.583-.687-3.141-1.362-4.663-2.1,5.1-.466,10.246-.184,15.375-.209-1.558.834-3.141,1.644-4.687,2.466-.454,9.362-.2,18.749-.16,28.124,6.54-.11,13.093-.012,19.633-.086-.1-3.264-.245-6.5-.626-9.73-1.46-.54-2.92-1.08-4.356-1.644,4.933-.2,9.866-.221,14.8.061l-4.27,1.473a102.134,102.134,0,0,0-.209,17.755c.528,4.221,5.215,5.914,8.957,5.755,16.921-.012,33.842.11,50.775-.061-4.614-2.061-9.829-3.681-12.994-7.9-7.951-9.215-7.019-24.565,2.049-32.7,10.369-9.412,29.081-7.043,36.161,5.289,2.356-1.35,4.933-3.742,7.816-2.381-2.822,1.632-6.148,3.681-5.632,7.5.344,8.393-.307,17.571-5.865,24.345-5.289,7.19-14.8,9.117-23.216,9.35-17.633-.025-35.265.074-52.886-.061-6.43.209-11.485-5.792-10.847-12.074-6.467.025-12.933-.074-19.4.086-.344,8.675,1.841,18.688-4.025,26.05-5.988,7.657-16.737,9.166-25.768,7.608-4.712-1.055-9.6-1.73-13.988-3.8,6.81-1.558,13.363,2.1,20.2,1.571a17.962,17.962,0,0,0,9.007-2.908c-4.786-.442-9.583-.258-14.369-.6,1.853-1.006,5.325-1.264,4.724-4.184.11-18.418.037-36.836.024-55.254-.16-3.215.135-6.9-1.939-9.583-1.73-1.178-3.632-2.025-5.436-3.019m117.8,8.688a15.653,15.653,0,0,0-13.289,12.2c-1.448,7.215-.994,15.461,3.534,21.572,4.663,6.847,14.7,9.546,21.94,5.252,5.829-3.387,8-10.442,8.2-16.8-.061-6.2-1.3-12.994-6-17.436A16.4,16.4,0,0,0,173.844,50.786Z" transform="translate(-43.838 -41.564)" fill="#8b6441"/>
        </g>
        <g id="_8b6240ff" data-name="#8b6240ff" transform="translate(296.566 399.48)">
          <path id="Path_5037" data-name="Path 5037" d="M55,50.146c5.571-8.933,19.338-11.1,27.425-4.368,2.16,1.693,2.945,4.565,2.994,7.2.147,5.534-.025,11.08.061,16.614q6.755-.074,13.534.012c-.086-2.344-.147-4.675-.209-6.994C97.2,62,95.593,61.4,94,60.8c4.884-.282,9.792-.172,14.688-.417-1.816,1.239-4.884,2.086-4.5,4.9-.11,4.859-.417,9.792.294,14.614.7,4.037,4.933,5.865,8.663,5.8,15.1.147,30.21-.049,45.315.061,2.074-.1,4.282.172,6.258-.65,2.429-4.393,1.337-9.78.209-14.393-4.184-11.534-18.357-17.964-29.866-13.964-3.743,1.5-6.749,4.319-10.332,6.111,4-7.632,12.872-12.037,21.375-11.461a30.371,30.371,0,0,1,18.357,7.718c6.577,6.344,8.123,16.3,6.5,24.971-.564,3.546-4.172,5.411-7.51,5.141q-25.9.074-51.769.025c-4.012.049-8.442-1.178-10.835-4.614C98.6,81.424,99.09,77.313,98.857,73.62a60.264,60.264,0,0,1-13.3-.024c.16,8.356-1.092,17.277-6.491,23.989-6.712,8.43-18.651,11.976-29,9.35-4.565-1.215-9.215-2-13.829-2.933,2.736-2.785,6.957-1.092,10.319-.65,8.614,2.209,18.7,1.006,25.2-5.522,5.976-6.283,6.724-15.375,7.4-23.572-5.289-1.043-10.712-.074-15.988-.994C53.947,70.442,50.216,58.147,55,50.146m11.289-4.565c-6.712,4.5-7.031,14.823-2.27,20.848,3.828,4.037,9.841,3.031,14.847,3.166-.331-7.252.969-14.737-1.19-21.768C76.07,43.25,69.751,43.2,66.291,45.582Z" transform="translate(-36.24 -41.833)" fill="#8b6240"/>
        </g>
        <g id="_8b6347ff" data-name="#8b6347ff" transform="translate(349.562 452.913)">
          <path id="Path_5038" data-name="Path 5038" d="M39.485,49.349C40.8,47.926,42.123,46.5,43.46,45.1q1.951,2.117,3.927,4.27c-1.313,1.239-2.626,2.5-3.914,3.767C42.135,51.865,40.8,50.6,39.485,49.349Z" transform="translate(-39.485 -45.104)" fill="#8b6347"/>
        </g>
        <g id="_896849ff" data-name="#896849ff" transform="translate(359.783 452.962)">
          <path id="Path_5039" data-name="Path 5039" d="M40.111,49.328q1.877-2.117,3.767-4.221c1.35,1.387,2.712,2.785,4.062,4.209-1.362,1.251-2.7,2.528-4.037,3.8C42.626,51.855,41.374,50.592,40.111,49.328Z" transform="translate(-40.111 -45.107)" fill="#896849"/>
        </g>
        <g id="_8b6448ff" data-name="#8b6448ff" transform="translate(410.448 453.072)">
          <path id="Path_5040" data-name="Path 5040" d="M43.212,49.285q2.006-2.1,4.049-4.172c1.325,1.35,2.687,2.712,4.037,4.074-1.276,1.215-2.552,2.454-3.8,3.693C46.059,51.678,44.623,50.476,43.212,49.285Z" transform="translate(-43.212 -45.113)" fill="#8b6448"/>
        </g>
        <g id="_99683fff" data-name="#99683fff" transform="translate(471.408 453.097)">
          <path id="Path_5041" data-name="Path 5041" d="M46.944,49.078q2.153-2.006,4.368-3.963,1.877,1.969,3.779,4-1.933,1.877-3.8,3.816Q49.1,51.017,46.944,49.078Z" transform="translate(-46.944 -45.115)" fill="#99683f"/>
        </g>
        <g id="_936744ff" data-name="#936744ff" transform="translate(481.654 452.986)">
          <path id="Path_5042" data-name="Path 5042" d="M47.571,49.3q1.9-2.117,3.828-4.2,2.1,2.025,4.184,4.1c-1.288,1.264-2.552,2.552-3.816,3.853C50.357,51.808,48.958,50.544,47.571,49.3Z" transform="translate(-47.571 -45.108)" fill="#936744"/>
        </g>
      </g>
    </g>
  </g>
</svg>
