<svg xmlns="http://www.w3.org/2000/svg" xmlns:xlink="http://www.w3.org/1999/xlink" width="944" height="944" viewBox="0 0 944 944">
  <defs>
    <linearGradient id="linear-gradient" x1="0.5" y1="1.144" x2="0.5" y2="0.142" gradientUnits="objectBoundingBox">
      <stop offset="0" stop-color="#d2bca9"/>
      <stop offset="0" stop-color="#e5b88e"/>
      <stop offset="1" stop-color="#b15d2c"/>
    </linearGradient>
    <clipPath id="clip-Artboard_21">
      <rect width="944" height="944"/>
    </clipPath>
  </defs>
  <g id="Artboard_21" data-name="Artboard – 21" clip-path="url(#clip-Artboard_21)">
    <rect width="944" height="944" fill="#fff"/>
    <path id="Landscape_Logo" data-name="Landscape Logo" d="M469.668,130.512a16.028,16.028,0,0,1-4.809,11.621,18.192,18.192,0,0,1-8.014,4.087,36.223,36.223,0,0,1-4.248.882,41.914,41.914,0,0,1-27.168-6.011v-8.014a32.057,32.057,0,0,0,21.879,8.014,8.415,8.415,0,0,0,6.011-1.843,5.129,5.129,0,0,0,0-5.129,9.3,9.3,0,0,0-4.328-3.526L436.008,124.5a20.2,20.2,0,0,1-8.014-6.091,13.625,13.625,0,0,1-2.645-8.014,14.265,14.265,0,0,1,6.892-12.582h0a28.13,28.13,0,0,1,16.589-4.248,41.513,41.513,0,0,1,8.014.962c2.8.641,5.45,1.523,8.014,2.244v6.171l-8.014-2.645c-3.847-.882-16.028-3.446-17.231,2.565-.721,2.965,1.843,4.568,4.007,5.85,5.209,3.206,10.979,5.209,16.028,8.014A16.028,16.028,0,0,1,469.668,130.512Zm-57.622,6.251V102.142c0-5.85-1.683-8.816-5.049-8.816H389.606c5.37,0,6.091,2.725,6.091,5.129V136.2a13.223,13.223,0,0,1-8.014,2.645c-5.37,0-8.014-2.645-8.014-8.014V102.142c0-5.85-1.683-8.816-5.049-8.816H357.389c5.37,0,6.011,2.725,6.011,5.129v30.294a16.669,16.669,0,0,0,11.14,16.028,33.258,33.258,0,0,0,12.182,2.324,20.436,20.436,0,0,0,6.171-1.122l4.328-2,1.6,2a6.892,6.892,0,0,0,4.007.641h16.509v-5.129h-1.362C412.607,141.972,412.046,139.488,412.046,136.763Zm-63.152-36.384a27.408,27.408,0,0,1,7.133,19.955,27.489,27.489,0,0,1-7.052,20.035,24.684,24.684,0,0,1-11.46,6.091,22.356,22.356,0,0,1-2.645.481,39.349,39.349,0,0,1-12.262,0,26.126,26.126,0,0,1-11.941-4.809,20.269,20.269,0,0,1-2.084-1.763,27.488,27.488,0,0,1-7.052-20.035,47.6,47.6,0,0,1,.4-6.091,24.683,24.683,0,0,1,2.084-6.812,21.718,21.718,0,0,1,4.568-6.732,20.6,20.6,0,0,1,3.927-3.045,30.454,30.454,0,0,1,16.028-4.007H329.9a27.008,27.008,0,0,1,18.994,6.732Zm-10.819,19.955a56.683,56.683,0,0,0-.481-8.976,10.819,10.819,0,0,0-2.324-7.052,10.579,10.579,0,0,0-12.663-.481,8.816,8.816,0,0,0-2.645,5.85,94.878,94.878,0,0,0-.481,10.659,89.226,89.226,0,0,0,0,9.3,8.816,8.816,0,0,0,4.648,8.415,10.258,10.258,0,0,0,9.056,0,6.571,6.571,0,0,0,2.484-2.645,17.712,17.712,0,0,0,1.683-6.572A37.257,37.257,0,0,0,338.075,120.334Zm393.337-39.27H714.021c5.37,0,6.011,2.645,6.011,5.049V147.5H736.06V89.88c.721-5.931-1.282-8.816-4.648-8.816Zm31.336,0H745.517c5.37,0,6.011,2.645,6.011,5.049V147.5h16.429V89.88c-.16-5.931-1.843-8.816-5.209-8.816ZM711.3,141.972h1.442v4.969H693.585a4.168,4.168,0,0,1-3.126-2.164V144.3a20.915,20.915,0,0,1-11.3,3.126,31.015,31.015,0,0,1-19.555-5.77,20.116,20.116,0,0,1-6.812-8.816,13.625,13.625,0,0,1-.8-4.728,16.029,16.029,0,0,1,7.533-13.3,32.057,32.057,0,0,1,19.635-5.45,29.17,29.17,0,0,1,9.777,1.683h0a16.028,16.028,0,0,0-2.4-8.976,12.1,12.1,0,0,0-10.739-4.007,26.046,26.046,0,0,0-11.54,3.366l-1.122.721-2.084-3.286,1.282-.8a32.057,32.057,0,0,1,16.028-4.408c18.673,0,27.409,9.136,27.409,27.008v16.028c-.481,2.8.241,5.289,5.53,5.289Zm-22.6-5.129V119.212h-.641a23.161,23.161,0,0,0-12.582-.4h-1.2a11.38,11.38,0,0,0-3.606,2.164,10.5,10.5,0,0,0-2.645,10.5,1.122,1.122,0,0,0,0,.561,9.7,9.7,0,0,0,6.091,5.77,18.032,18.032,0,0,0,9.457.4,16.031,16.031,0,0,0,2.805-.641S688.7,137.084,688.7,136.843ZM618.331,86.514l-11.621,35.262h0l-11.7-35.343A8.014,8.014,0,0,0,587.8,81.3h-22.68c5.37,0,6.091,2.725,6.091,5.129V147.5h15.547V100.058l12.983,36.705h14.906L628.67,93.727v49.528A3.847,3.847,0,0,0,632.6,147.5h11.46V86.434c0-2.324.8-4.969,6.011-4.969H625.544a7.533,7.533,0,0,0-7.133,5.049Zm-94.888,13.865a27.408,27.408,0,0,1,7.133,19.955v1.443H493.631a34.931,34.931,0,0,0,.481,5.37,15.388,15.388,0,0,0,3.366,8.014,13.7,13.7,0,0,0,9.777,4.809,19.074,19.074,0,0,0,10.018-2.4,20.517,20.517,0,0,0,8.014-7.293l3.045,2a38.96,38.96,0,0,1-4.809,6.492,29.332,29.332,0,0,1-20.2,8.735,27.729,27.729,0,0,1-20.116-7.052,27.168,27.168,0,0,1-7.053-20.035,27.409,27.409,0,0,1,7.133-19.955,32.057,32.057,0,0,1,40.071,0Zm-9.937,8.5a10.739,10.739,0,0,0-5.289-7.373,10.258,10.258,0,0,0-15.147,8.014c0,.4,0,4.648,0,4.648h20.917S513.506,109.274,513.506,108.874ZM293.917,89.8c0-5.85-1.683-8.735-5.049-8.735h-16.91c5.37,0,6.011,2.725,6.011,5.129v22.2H258.093V89.8c0-5.85-1.683-8.735-4.969-8.735H235.493c5.369,0,6.091,2.725,6.091,5.129V147.5h16.509V117.048h19.474v26.206a3.847,3.847,0,0,0,3.847,3.847H294V108.473h0ZM161.2,187.573l26.447-17.551V25.205L137,58.785V5.25L110.472,22.881V76.336L94.924,86.674,79.617,76.336V22.881L53.17,5.25V58.785L2.36,25.205V170.022l26.447,17.551V78.981L52.849,95.009v74.933l26.767,17.631V112.64l15.548,10.338,15.548-10.338v74.933l26.447-17.551V95.089L161.2,79.061Z" transform="translate(45.641 397.912)" fill="url(#linear-gradient)"/>
  </g>
</svg>
