<svg xmlns="http://www.w3.org/2000/svg" xmlns:xlink="http://www.w3.org/1999/xlink" width="944" height="944" viewBox="0 0 944 944">
  <defs>
    <clipPath id="clip-Artboard_15">
      <rect width="944" height="944"/>
    </clipPath>
  </defs>
  <g id="Artboard_15" data-name="Artboard – 15" clip-path="url(#clip-Artboard_15)">
    <rect width="944" height="944" fill="#fff"/>
    <g id="Group_5914" data-name="Group 5914">
      <path id="Path_3741" data-name="Path 3741" d="M0,0H775.668V748H0Z" transform="translate(84.434 98)" fill="#6f1c46"/>
      <g id="_ffffffff" data-name="#ffffffff" transform="translate(133.671 216.104)">
        <path id="Path_3741-2" data-name="Path 3741" d="M216.784,42.708c14.125-6.558,30.806-5.348,45.537-1.48,11.267,2.859,21.928,13.957,18.767,26.266-4.036,15.235-18.767,23.374-31.177,31.042-.033.605-.067,1.782-.1,2.388,5.213,2.791,10.56,5.28,15.941,7.735-6.827,11.166-19.742,14.6-31.647,17.32-1.816,7.231-6.256,15.269-1.715,22.4,9.417,15.134,24.518,25.224,37.8,36.625,12.376,10.157,15.941,31.244,3.8,43.015-26.67,26.636-81.355,24.484-98.372-12.141-9.686-15.908,1.009-34.472,12.343-46.143-1.58,10.728-4.54,22.4.4,32.724,6.323,14.193,21.962,21.356,36.558,23.677,12.006,1.648,27.275-2.69,31.883-15.067,3.43-9.148-1.345-18.867-7.8-25.358-9.854-10.426-21.39-20.65-25.526-34.943-2.253-9.619,4.675-17.959,10.056-25.055-5.583-.269-11.132-.572-16.715-.874-1.345-1.782-4.036-5.381-5.381-7.164-28.99,3.06-59.091,10.325-82.364,28.789-10.863,9.013-20.65,26-11.031,39.248,9.854,14.428,29.293,12.275,44.226,9.518-15.37,13.553-36.793,20.751-57.107,16.479-14.394-3.531-22.634-18.9-21.02-33.06,1.177-23.34,21.221-40.291,41.569-48.362a207.581,207.581,0,0,1,87.61-13.419c4-4.3,11.5-5.717,13.722-11.367-30.908-8.475-62.42,2.085-92.958,7.264-10.9,2.085-27.511-.605-28.217-14.462,2.892-17.118,18.766-28.15,32.858-36.188,22.1-12.444,54.315-12.578,69.954,10.123-21.659-13.251-51.692-11.065-70.66,5.886-5.448,4.069-3.43,11.435-4.271,17.253,32.354,7.567,68-6.693,98.507,10.056a21.6,21.6,0,0,0,9.854-3.767c11.7-8.105,25.089-18.027,26.569-33.4,1.177-8.98-6.222-16.379-14.159-19-10.56-3.5-22.3-4.877-33.127-2.018-8.038,2.052-12.007,9.989-17.085,15.74C207.031,55.588,208.88,46.407,216.784,42.708Z" transform="translate(117.46 -38.057)" fill="#fff"/>
        <path id="Path_3742" data-name="Path 3742" d="M167.669,51.215c6.76-6.289,16.715-5.482,25.19-4.406,13.756,2.186,28.419,7.13,37.062,18.733,5.55,7.2,2.051,18.363-5.011,23.206-7,3.868-15,5.112-22.566,7.365,7.2-5.583,18.935-11.7,16.479-22.466C212,62.684,197.567,59.354,185.494,59.32c-16.144,4.069-17.758,24.753-30.941,32.858-5.213,2.589-11.166,3.094-16.782,4.338,6.928-4.406,15.975-7.1,19.977-14.9C161.514,71.7,158.79,58.816,167.669,51.215Z" transform="translate(244.668 -19.122)" fill="#fff"/>
        <path id="Path_3743" data-name="Path 3743" d="M223.147,61.17c11.166,1.783,23.306,3.767,31.446,12.444,11.972,12.107,18.363,33.463,6.726,47.925-10.8,12.444-28.082,16.513-43.687,19.069-28.553,4.2-55.761-12.645-72.543-34.607-8.576-11.1-14.563-26.2-7.87-39.685,2.119,12.713,5.818,25.93,15.975,34.708,14.6,13.184,34.943,18.228,54.214,18.5,15.1-.1,31.883-4.238,41.535-16.748,7.4-9.652,2.791-23.912-5.751-31.244C237.07,67.089,229.873,64.5,223.147,61.17Z" transform="translate(236.576 16.562)" fill="#fff"/>
        <path id="Path_3744" data-name="Path 3744" d="M246.963,118.763C271.447,100.4,300.538,84.93,331.95,86.04c19.742.4,41.367,6.928,53.239,23.778,13.419,18.565,12.847,44.024,4.339,64.539-15.336,34.674-58.821,51.624-94.5,42.241-23.139-6.424-37.331-30.638-33.5-54.113,6.861,11,12.78,23.576,24.349,30.5,16.446,10.695,38.239,8.509,55.021-.269,22.97-11.7,33.6-41.232,26.905-65.48-9.182-21.154-34.741-29.529-56.131-24.047-51.994,10.426-87.879,52.768-121.342,90.469-25.089,27.208-47.454,57.375-76.007,81.086,10.258-16.143,22-31.311,33.261-46.781C177.144,188.616,207.748,149.065,246.963,118.763Z" transform="translate(189.252 75.199)" fill="#fff"/>
        <path id="Path_3745" data-name="Path 3745" d="M352.517,175.429c25.964-32.387,55.189-64.236,93.126-82.6-23.912,22.264-47.051,45.436-67.1,71.3-23.206,28.351-44.495,58.317-69.416,85.256a126.791,126.791,0,0,1-22.7,19.473q24.265-31.731,45.941-65.346c-10.829,5.045-22.7,9.215-30.571,18.733-22.163,24.786-49.808,45.571-81.893,55.324a243.911,243.911,0,0,1-159.851-7.5c-10.392-4.439-21.322-7.163-32.286-9.652,16.412-1.581,31.883,4.809,47.757,7.8,24.417,4.843,49.068,10.022,74.124,9.484,29.7-.2,58.25-10.022,85.391-21.255,33.6-14.192,63.463-40.358,76.579-74.931,9.35-28.755-18.4-59.9-47.824-56.5-19.91-.471-37.264,16.311-39.315,35.717-.774,12.444,6.861,26.1,19.742,28.621,13.486,2.489,25.661-5.549,37.129-11.334-5.986,8.475-10.527,19.3-20.683,23.643-17.32,7.6-40.19,2.32-50.582-14.092-13.654-21.625-6.02-52.23,12.982-68.138,28.587-21.188,74.662-16.244,95.581,13.486,13.554,18.5,10.8,43.654,2.825,63.866C331.766,189.622,344.21,185.115,352.517,175.429Z" transform="translate(-15.28 91.379)" fill="#fff"/>
        <path id="Path_3746" data-name="Path 3746" d="M119.53,186.385c25.358-33.632,66.12-57.779,109.135-55.795,38.945,1.513,74.09,21.894,103.316,46.277-34.54,3.363-66.119,19.136-100.357,23.778-23.643,3.968-49.707,2.791-69.786-11.7,16.581,2.253,33.5,4.607,50.044.807,29.226-6.188,57.073-19.237,87.375-20.044-26.166-18.43-58.418-29.058-90.6-25.291C174.921,147.2,145.359,165.769,119.53,186.385Z" transform="translate(201.564 180.343)" fill="#fff"/>
        <path id="Path_3747" data-name="Path 3747" d="M24.2,165.14c2.22.067,6.659.235,8.879.3v25.089q25.728-.2,51.524-.034c.034-8.442.034-16.849.1-25.291,2.22.034,6.659.135,8.879.168.034,19.607,0,39.214.034,58.822l-8.946.269q-.051-13.52-.1-27.04-25.728-.051-51.49,0V224.3c-2.253.034-6.693.135-8.946.168C24.035,204.691,24,184.915,24.2,165.14Z" transform="translate(-24.056 262.259)" fill="#fff"/>
        <path id="Path_3748" data-name="Path 3748" d="M90.863,165.584c1.648-.1,4.944-.37,6.592-.5,0,5.953.034,11.906.034,17.858,7.937-.034,15.841-.034,23.811-.034l.1,5.583q-11.956,0-23.912.067c-.3,10.19-.37,20.515,2.32,30.436,6.592-.269,13.217-.2,19.742-1.345.942-4.271,1.749-8.576,2.388-12.914,1.312-.034,4-.168,5.347-.2-1.244,6.558,1.648,17.489-7.231,19.473-9.215.3-23.845,4.271-28.351-6.726-1.715-9.484-.774-19.17-.841-28.721l-9.316-.538-.067-4.877c2.321-.1,7.029-.336,9.35-.471C90.83,176.986,90.863,171.268,90.863,165.584Z" transform="translate(111.646 262.117)" fill="#fff"/>
        <path id="Path_3749" data-name="Path 3749" d="M106.321,183.312c1.11-6.693-3.061-17.388,6.76-18.632.3,6.357.471,12.713.605,19.069,8.576.067,17.186.134,25.728.807-6.054,8.138-17.556,4.035-26.233,5.246.841,9.585-1.48,20.044,2.825,28.991,6.154,1.244,12.713,1.715,18.766-.4,2.489-4.843.874-13.049,7.937-14.226-1.043,6.794,2.253,19.136-7.264,20.886-8.845.168-21.289,3.565-27.208-5.045-3.195-9.316-1.278-19.574-1.715-29.293-2.926-1.278-8.71-3.867-11.6-5.146C97.779,184.993,103.463,183.85,106.321,183.312Z" transform="translate(143.406 261.172)" fill="#fff"/>
        <path id="Path_3750" data-name="Path 3750" d="M123.247,165.393c18.665.437,37.432-.942,56.1.5,9.619.639,7.432,12.04,7.9,18.834.471,6.255-1.245,14.462-8.811,15.235-15.471,1.648-31.076.236-46.613.639q-.051,11.552-.1,23.138l-8.542.134q0-29.26.067-58.485m8.509,6.592v21.961c15.908-.437,32.051,1.547,47.69-2.22-1.446-6.188,2.758-15.706-4.1-19.2C160.847,171.212,146.285,172.423,131.756,171.986Z" transform="translate(210.189 262.443)" fill="#fff"/>
        <path id="Path_3751" data-name="Path 3751" d="M145.9,165.08l7.567.4c.067,19.775.134,39.551-.067,59.292l-7.937-.672C145.964,204.429,145.494,184.754,145.9,165.08Z" transform="translate(262.84 262.117)" fill="#fff"/>
        <path id="Path_3752" data-name="Path 3752" d="M46.96,170.25c2.085.2,6.188.605,8.273.807,6.289,11.334,12.645,22.667,19.742,33.564q8.324-17.2,17.018-34.17c1.85.134,5.482.471,7.332.606-6.861,13.52-12.948,27.376-20.078,40.761-3.161,5.313-6.222,11.5-12.107,14.26-5.347,1.211-10.527-1.11-15.471-2.791a121.861,121.861,0,0,1,15.908-3.9c.706-1.682,2.085-5.045,2.791-6.726C64.112,197.76,54.191,184.712,46.96,170.25Z" transform="translate(30.069 274.335)" fill="#fff"/>
        <path id="Path_3753" data-name="Path 3753" d="M63.82,175.4c1.883-1.11,5.617-3.33,7.5-4.406,14.5-1.11,29.293-1.211,43.587,1.884a130.438,130.438,0,0,1,1.312,37.936c-1.312.807-3.969,2.422-5.28,3.228-.134-1.581-.37-4.742-.5-6.289-10.729,6.524-23.744,4.708-35.683,4.137-12.377-.2-13.991-21.39-2.623-24.316,12.612-1.48,25.694-1.614,37.936,2.052-1.413-4.44.034-11.166-5.381-13.218-13.553-1.379-27.241.1-40.862-1.009m11.267,17.69c-1.11,1.849-3.363,5.549-4.507,7.4,6.188,7.164,15.941,6.087,24.45,5.818,4.17-.605,10.224.639,11.6-4.708,2.556-3.565-1.278-8.576-5.146-8.475C92.71,192.32,83.865,192.858,75.087,193.094Z" transform="translate(69.912 274.428)" fill="#fff"/>
        <path id="Path_3754" data-name="Path 3754" d="M151.02,175.17c8.442-7.264,20.179-4.069,30.3-4.742,7.331.639,18.194-1.547,21.827,6.928,2.22,11.973.74,24.315.706,36.423-2.724-1.883-5.448-3.8-8.172-5.717-1.816,1.345-3.6,2.691-5.415,4.069-10.426-.067-20.986.942-31.311-.84-9.618-3.7-9.82-20.146.034-23.643a109.957,109.957,0,0,1,38.811,1.648c-.975-2.993-2.892-8.946-3.834-11.906-13.923-3.5-28.721-.2-42.947-2.22m10.9,19c-4.608,3.565-2.859,9.787,2.354,11.4a81.727,81.727,0,0,0,26.233-.235c5.986-1.816,5.751-10.089-.067-11.939C181.02,192.389,171.1,191.649,161.917,194.171Z" transform="translate(275.979 274.426)" fill="#fff"/>
        <path id="Path_3755" data-name="Path 3755" d="M169.643,170.572q24.063-.4,48.127,0c-1.413,3.6-2.422,7.668-5.751,10.09-10.19,8.778-21.02,16.816-31.244,25.593,12.04-.034,24.08,0,36.12.2-.1,1.379-.336,4.137-.437,5.516-15.941-.034-31.916.2-47.858-.2,7.9-15.807,25.56-23.34,37.566-35.683-11.468-.034-23.172,1.85-34.439-.706C171.19,174.17,170.147,171.749,169.643,170.572Z" transform="translate(317.524 274.618)" fill="#fff"/>
        <path id="Path_3756" data-name="Path 3756" d="M185.14,175.167c8.206-7.3,19.809-4.035,29.764-4.742,7.433.74,18.531-1.715,22.331,6.827,2.119,11.535,1.379,23.508.337,35.178-1.951-.639-5.852-1.917-7.8-2.59a89.113,89.113,0,0,1-36.995,1.413c-8.946-3.8-9.114-18.767-.841-23.408a102.852,102.852,0,0,1,40.526,1.783c-1.682-4.137-1.245-9.551-4.843-12.645-14.024-2.489-28.385-.134-42.477-1.816m6.155,24.316c7.1,9.753,20.044,6.727,30.369,6.424,5.247-.134,8.509-4.473,6.76-9.518-6.155-6.088-15.841-3.128-23.576-3.666C199.03,191.781,195.061,195.85,191.295,199.483Z" transform="translate(356.61 274.429)" fill="#fff"/>
      </g>
    </g>
  </g>
</svg>
