<svg xmlns="http://www.w3.org/2000/svg" xmlns:xlink="http://www.w3.org/1999/xlink" width="944" height="944" viewBox="0 0 944 944">
  <defs>
    <clipPath id="clip-Artboard_17">
      <rect width="944" height="944"/>
    </clipPath>
  </defs>
  <g id="Artboard_17" data-name="Artboard – 17" clip-path="url(#clip-Artboard_17)">
    <rect width="944" height="944" fill="#fff"/>
    <g id="logo-Ezdanmall" transform="translate(182.796 421.995)">
      <path id="Path_3612" data-name="Path 3612" d="M114.09.25h13.587V62.641a36.152,36.152,0,0,1-11.413,26.652c-12.609,13.478-35.7,14.957-50,3.283a39.13,39.13,0,0,1-13.5-40.826c4.065-16.2,19.565-29.283,36.652-28.761,9.13-.37,17.391,3.826,24.761,8.935C114,21.446,114.112,10.815,114.09.25Zm-34.239,37.8a25.848,25.848,0,0,0-14.5,18.174c-3.587,14.739,8.7,31.783,24.348,31.109,14.87.8,26.739-14.761,24.391-28.957C112.894,42.424,94.568,30.859,79.851,38.054Z" transform="translate(60.061 -0.076)" fill="#e51b24"/>
      <path id="Path_3613" data-name="Path 3613" d="M247.25.25h14.131V98.62H247.25Z" transform="translate(289.945 -0.076)" fill="#e51b24"/>
      <path id="Path_3614" data-name="Path 3614" d="M256.319.17c4.13,0,8.282.2,12.435.435V98.714H256.275C256.275,65.866,256.188,33.018,256.319.17Z" transform="translate(300.507 -0.17)" fill="#e51b24"/>
      <path id="Path_3615" data-name="Path 3615" d="M15.53,13.419c13.043-3.826,26.891-1.413,40.261-2.174V24.288c-11.826.478-23.913-.978-35.522.826-7.348,1.565-7.022,10.065-7.239,15.913,10.63.239,21.261,0,31.87.152V54.223c-10.587,0-21.174,0-31.761.109.413,6.065-1.152,15.217,6.522,17.391,11.87,2.174,24.109.413,36.13.913V85.68c-15.978-1.413-34.674,4.348-48.3-6.7C-3.643,68.81,1.552,52.31.335,39.049-1.013,28.179,4.726,16.636,15.53,13.419Z" transform="translate(-0.14 12.755)" fill="#e51b24"/>
      <path id="Path_3616" data-name="Path 3616" d="M28.587,11.24H80.174V23.153c-11.609,16.5-23.413,32.87-34.783,49.478H82.935V85.675H27.5V74.023C39.457,57.5,51.065,40.849,62.913,24.327H28.587Z" transform="translate(31.977 12.825)" fill="#e51b24"/>
      <path id="Path_3617" data-name="Path 3617" d="M89.268,50.779c-1.435-19.565,14.761-38.87,34.543-40.13,19.717-2.174,39.8,13.587,41.3,33.609.891,14.087.13,28.261.37,42.348H151.833V79c-7.978,6.109-17.913,10.283-28.13,8.957C105.072,86.714,89.2,69.518,89.268,50.779ZM117.833,25.6a25.87,25.87,0,0,0-15.217,20.674c-1.826,13.761,9.37,27.978,23.37,28.8,15.217,1.2,28.109-14.261,25.87-28.978-1.326-15.587-19.391-27.652-34.022-20.457Z" transform="translate(104.384 11.895)" fill="#e51b24"/>
      <path id="Path_3618" data-name="Path 3618" d="M135.039,21.376c12.217-14.391,37.261-14.283,49.609,0A34.935,34.935,0,0,1,192.93,44.05c.3,14.109,0,28.261.109,42.326H179.452c-.13-14.935.217-29.848,0-44.783-.609-13.2-17.174-22.87-28.717-15.587-8.3,4.065-11.478,13.761-10.87,22.457V86.42H126.821c0-14.109-.13-28.261,0-42.326a33.327,33.327,0,0,1,8.217-22.717Z" transform="translate(148.504 12.102)" fill="#e51b24"/>
      <path id="Path_3619" data-name="Path 3619" d="M160.2,37.318a28.826,28.826,0,0,1,28.087-26.5c9.087-1.065,17.391,3.87,23.261,10.283a30.2,30.2,0,0,1,39.587-5.152A29.13,29.13,0,0,1,263.7,39.492c.217,15.63,0,31.261,0,46.891H249.571V43.905c0-6.37-1.609-13.522-7.2-17.391-9.174-6.261-24.109,1.543-23.217,12.935-.13,15.609,0,31.217,0,46.826H204.484c-.109-15.609.174-31.217,0-46.826.435-11.457-15-19.565-24.065-12.5-5.174,4-6.348,10.87-6.283,17.044V86.471H160.028C160.18,70.079,159.723,53.666,160.2,37.318Z" transform="translate(187.494 12.16)" fill="#e51b24"/>
      <path id="Path_3620" data-name="Path 3620" d="M219.764,23.421c12.065-14.935,36.065-16.891,51.043-5.283A36.565,36.565,0,0,1,286,46.052c.326,13.457,0,26.913.109,40.37H271.894c0-1.717.218-5.174.283-6.891-13.63,10.717-34.413,11.522-47.826,0C207.307,66.443,205.2,39.052,219.764,23.421ZM241.221,25.6A24.848,24.848,0,0,0,224.2,46.573c-1.826,14.022,10.544,28.261,24.935,27.413,14.391-.413,25.456-15.913,22.261-29.739C269.221,30.986,254.351,20.747,241.221,25.6Z" transform="translate(246.301 12.122)" fill="#e51b24"/>
    </g>
  </g>
</svg>
