<svg xmlns="http://www.w3.org/2000/svg" xmlns:xlink="http://www.w3.org/1999/xlink" width="500" height="500" viewBox="0 0 500 500">
  <defs>
    <clipPath id="clip-baby_Active">
      <rect width="500" height="500"/>
    </clipPath>
  </defs>
  <g id="baby_Active" clip-path="url(#clip-baby_Active)">
    <rect width="500" height="500" fill="#fff"/>
    <g id="Group_1105" data-name="Group 1105" transform="translate(64.645 68)">
      <rect id="Rectangle_1610" data-name="Rectangle 1610" width="370" height="364" rx="9" transform="translate(0.355)" fill="#d19130"/>
      <text id="Add_Note" data-name="Add Note" transform="translate(185.355 287.663)" fill="#fff" font-size="31" font-family="Roboto-Bold, Roboto" font-weight="700"><tspan x="-34.625" y="0">Baby</tspan></text>
      <g id="_50506fff" data-name="#50506fff" transform="translate(104.355 63.22)">
        <path id="Path_5139" data-name="Path 5139" d="M132.944,0h2.9a35.469,35.469,0,0,1,29.949,52.657,35.751,35.751,0,0,1-22.567,17.293c-2.7.7-5.516.811-8.207,1.56A38.652,38.652,0,0,0,116.554,83.2a14.114,14.114,0,0,0-1.53,15.9c1.1,2.089,2.916,3.626,4.535,5.29q7.043,7.023,14.072,14.062a14.332,14.332,0,0,1,4.031,12.66,13.648,13.648,0,0,1-22.851,7.147q-15.944-15.91-31.878-31.836c-2.21,2.243-4.43,4.483-6.631,6.742a35.352,35.352,0,0,1-31.653,48.684H41.887a35.6,35.6,0,0,1-22-9.116,35.2,35.2,0,0,1,12.6-59.663,35.71,35.71,0,0,1,24.437.821c2.236-2.249,4.45-4.522,6.68-6.781Q48.884,72.387,34.151,57.685c-1.671-1.707-3.551-3.3-4.646-5.467A13.665,13.665,0,0,1,29.851,38.7a13.106,13.106,0,0,1,9.338-6.284,14.825,14.825,0,0,1,12.49,4.159q8.19,8.146,16.354,16.318a14.024,14.024,0,0,0,11.751,3.744,13.861,13.861,0,0,0,7.36-3.453A38.826,38.826,0,0,0,98.6,34.612c.631-2.341.745-4.78,1.314-7.134A35.222,35.222,0,0,1,110.541,9.227,35.736,35.736,0,0,1,132.944,0M114.533,12.885a29.978,29.978,0,0,0-9.877,18.843c-1.331,9.966-6.814,19.045-14.2,25.728A19.408,19.408,0,0,1,77.3,62.184c1.687,1.622,3.315,3.3,4.976,4.944a2.72,2.72,0,0,1-.157,3.9,2.756,2.756,0,0,1-3.842-.252q-15.258-15.3-30.567-30.544a9.055,9.055,0,0,0-7.873-2.518,7.962,7.962,0,0,0-5.065,3.3,8.289,8.289,0,0,0-.585,8.488c.821,1.7,2.367,2.861,3.636,4.211q39.4,39.372,78.817,78.741a35.283,35.283,0,0,0,2.652,2.534,8.323,8.323,0,0,0,8.668.83,8.141,8.141,0,0,0,4.27-5.169,8.842,8.842,0,0,0-1.246-6.935,23.42,23.42,0,0,0-3.113-3.4Q113.546,105.988,99.225,91.7a2.695,2.695,0,0,1,3.466-4.126c1.772,1.671,3.456,3.436,5.192,5.146a19.456,19.456,0,0,1,5.794-14.35c6.307-6.526,14.54-11.4,23.57-12.84a33.777,33.777,0,0,0,6.876-1.452,30.152,30.152,0,0,0,7.729-53.425,30.478,30.478,0,0,0-20.114-5.123,29.957,29.957,0,0,0-17.2,7.357M67.425,90.921q-7,7.082-13.974,14.19a7.35,7.35,0,0,0-1.589,7.769c.634,1.733,2.086,2.949,3.371,4.2a7.346,7.346,0,0,0,9.881-.275q7-7.087,13.991-14.2c-3.881-3.907-7.791-7.785-11.679-11.685M34.3,98.136a29.905,29.905,0,1,0,37.447,38.414,30.177,30.177,0,0,0,.314-19.055c-1.311,1.2-2.459,2.567-3.8,3.74a12.775,12.775,0,0,1-11.715,2.544c-2.962-.742-5.293-2.822-7.291-5.025a12.749,12.749,0,0,1-1.955-14.223c1.229-2.58,3.551-4.349,5.441-6.412A30.408,30.408,0,0,0,34.3,98.136Z" transform="translate(-8.224)" fill="#fff"/>
        <path id="Path_5140" data-name="Path 5140" d="M360.841,44.316a20.585,20.585,0,0,1,17.025,6.552,2.7,2.7,0,0,1-1.076,3.822,2.788,2.788,0,0,1-3.319-.67,15.484,15.484,0,0,0-11.4-4.378,15.683,15.683,0,0,0-10.508,4.6A2.7,2.7,0,0,1,347.635,54a2.665,2.665,0,0,1,.108-3.538A20.727,20.727,0,0,1,360.841,44.316Z" transform="translate(-236.245 -29.773)" fill="#191919"/>
      </g>
    </g>
  </g>
</svg>
