<svg xmlns="http://www.w3.org/2000/svg" xmlns:xlink="http://www.w3.org/1999/xlink" width="500" height="500" viewBox="0 0 500 500">
  <defs>
    <clipPath id="clip-path">
      <rect id="Rectangle_1616" data-name="Rectangle 1616" width="208" height="131" transform="translate(0.492 0.246)" fill="#fff"/>
    </clipPath>
    <clipPath id="clip-path-2">
      <rect id="Rectangle_1617" data-name="Rectangle 1617" width="203" height="131" transform="translate(-0.361 -0.016)" fill="#fff"/>
    </clipPath>
    <clipPath id="clip-Baby_Shop_Active_">
      <rect width="500" height="500"/>
    </clipPath>
  </defs>
  <g id="Baby_Shop_Active_" data-name="Baby Shop_Active " clip-path="url(#clip-Baby_Shop_Active_)">
    <rect width="500" height="500" fill="#fff"/>
    <g id="Group_5894" data-name="Group 5894" transform="translate(56 46)">
      <rect id="Rectangle_1614" data-name="Rectangle 1614" width="363" height="363" rx="9" fill="#d19130"/>
      <text id="Add_Note" data-name="Add Note" transform="translate(164.607 284.135)" fill="#fff" font-size="54" font-family="Roboto-Bold, Roboto" font-weight="700"><tspan x="-117.281" y="0">Our Picks</tspan></text>
      <g id="Mask_Group_66" data-name="Mask Group 66" transform="translate(59.508 29.754)" clip-path="url(#clip-path)">
        <g id="Group_5858" data-name="Group 5858" transform="translate(14.82 25.929)">
          <g id="Group_5857" data-name="Group 5857" transform="translate(0 0)">
            <g id="Group_5856" data-name="Group 5856">
              <path id="Path_5337" data-name="Path 5337" d="M137,47.109,142.458,46V75.663c5.654-6.264,12.132-10,20.4-10,12.953,0,23.672,9.245,23.672,24.038,0,13.678-10.6,25.186-24.505,25.186-15.8,0-25.021-10.2-25.021-25.661V47.113h0ZM197.54,68.47a35.7,35.7,0,0,1,13.694-2.807c7.349,0,14.769,3.823,14.769,11.872v36.242l-5.469,1.114v-5.9h-.186c-1.864,3.467-6.011,5.9-11.557,5.9-9.673,0-17.935-6.17-17.935-16.371,0-10.4,6.861-17.8,17.294-17.8,4.685,0,9.2,2.621,12.385,5.449V78.283c0-3.921-4.784-7.2-11.086-7.2-4.516,0-9.574,2.354-13.716,3.725l1.808-6.336h0Zm38.595-21.362L241.587,46V75.663c5.656-6.264,12.132-10,20.4-10,12.949,0,23.689,9.245,23.689,24.038,0,13.678-10.631,25.186-24.549,25.186-15.764,0-24.988-10.2-24.988-25.661V47.113h0ZM286.2,66.778l5.371-1.114,18.888,34.246,16.555-34.245,5.435,1.114L300.976,131l-5.261-1.13,11.645-24.246L286.2,66.778Zm49.714,37.549c3.589,3.364,6.773,5.144,11.847,5.144,5.546,0,10.159-2.894,10.159-8.683,0-11.823-24.905-4.991-24.905-21.457,0-8.622,7.512-13.668,15.6-13.668,5.731,0,9.582,2.327,14.078,5.51l-3.08,4.319c-3.3-2.435-6.955-4.412-11.282-4.412-5.36,0-9.863,2.621-9.863,7.959,0,11.8,24.9,4.013,24.9,21.446,0,9.84-7.622,14.4-16.818,14.4a19.33,19.33,0,0,1-14.746-7.121l4.116-3.44h0Zm35.909,10.212V47.109L377.279,46V72.479h.175c2.537-4.221,7.882-6.816,13.634-6.816,9.091,0,17.563,3.55,17.563,16.558v31.553l-5.441.764V81c0-6.831-4.427-10.479-11.947-10.479-5.167,0-13.987,3.745-13.987,12.81v30.44l-5.452.764h0Zm92.192-24.258c0,12.627-10.253,24.607-24.161,24.607S415.7,102.91,415.7,90.281c0-12.652,10.253-24.617,24.161-24.617s24.161,11.964,24.161,24.617h0Zm12.954,39.591L471.526,131V66.778l5.446-1.114V76.5h.181a21.251,21.251,0,0,1,18.5-10.834,24.892,24.892,0,0,1,24.625,24.805,24.168,24.168,0,0,1-24.429,24.419,23.385,23.385,0,0,1-18.7-8.693h-.181v23.678h0Z" transform="translate(-137 -45.995)" fill-rule="evenodd"/>
              <path id="Shape_124_copy_5" data-name="Shape 124 copy 5" d="M596.157,116.637c11.2,0,18.709-9.694,18.709-19.119,0-11.048-7.51-19.518-18.889-19.518-10.5,0-18.97,8.935-18.97,19.216,0,12.267,8.824,19.417,19.15,19.417h0Z" transform="translate(-237.002 -53.268)" fill="#ee7401" fill-rule="evenodd"/>
              <path id="Shape_124_copy_4" data-name="Shape 124 copy 4" d="M504.749,97.323c0,10.09,8.084,19.312,18.712,19.312,10.606,0,18.7-9.221,18.7-19.312S534.067,78,523.461,78c-10.628,0-18.712,9.232-18.712,19.318h0Z" transform="translate(-220.582 -53.268)" fill="#fbbc1b" fill-rule="evenodd"/>
              <path id="Shape_124_copy_3" data-name="Shape 124 copy 3" d="M226.572,121.1c6.671,0,11.359-5.006,11.359-11.662,0-7-4.785-11.794-11.542-11.794-7.252,0-12.7,4.868-12.7,12.431,0,6.979,6.568,11.024,12.875,11.024h0Z" transform="translate(-154.44 -57.733)" fill="#009cdd" fill-rule="evenodd"/>
              <path id="Path_5338" data-name="Path 5338" d="M163.65,116.638c11.088,0,18.614-8.2,18.975-19.119,0-11.31-7.975-19.514-19.255-19.514-10.836,0-19.37,8.2-19.37,19.8,0,11.113,9.027,18.831,19.65,18.831Z" transform="translate(-138.581 -53.27)" fill="#73af27" fill-rule="evenodd"/>
              <path id="Shape_124_copy" data-name="Shape 124 copy" d="M291.962,116.637c11.1,0,18.614-8.2,18.981-19.119,0-11.312-7.961-19.518-19.251-19.518-10.818,0-19.375,8.2-19.375,19.8,0,11.113,9.021,18.829,19.644,18.829h0Z" transform="translate(-167.752 -53.268)" fill="#e3348b" fill-rule="evenodd"/>
            </g>
          </g>
        </g>
      </g>
      <g id="Mask_Group_67" data-name="Mask Group 67" transform="translate(77.361 119.016)" clip-path="url(#clip-path-2)">
        <g id="Group_5861" data-name="Group 5861" transform="translate(-196.608 25.351)">
          <g id="Group_5860" data-name="Group 5860" transform="translate(0 0)">
            <g id="Group_5859" data-name="Group 5859">
              <path id="Path_5339" data-name="Path 5339" d="M137,47.109,142.458,46V75.663c5.654-6.264,12.132-10,20.4-10,12.953,0,23.672,9.245,23.672,24.038,0,13.678-10.6,25.186-24.505,25.186-15.8,0-25.021-10.2-25.021-25.661V47.113h0ZM197.54,68.47a35.7,35.7,0,0,1,13.694-2.807c7.349,0,14.769,3.823,14.769,11.872v36.242l-5.469,1.114v-5.9h-.186c-1.864,3.467-6.011,5.9-11.557,5.9-9.673,0-17.935-6.17-17.935-16.371,0-10.4,6.861-17.8,17.294-17.8,4.685,0,9.2,2.621,12.385,5.449V78.283c0-3.921-4.784-7.2-11.086-7.2-4.516,0-9.574,2.354-13.716,3.725l1.808-6.336h0Zm38.595-21.362L241.587,46V75.663c5.656-6.264,12.132-10,20.4-10,12.949,0,23.689,9.245,23.689,24.038,0,13.678-10.631,25.186-24.549,25.186-15.764,0-24.988-10.2-24.988-25.661V47.113h0ZM286.2,66.778l5.371-1.114,18.888,34.246,16.555-34.245,5.435,1.114L300.976,131l-5.261-1.13,11.645-24.246L286.2,66.778Zm49.714,37.549c3.589,3.364,6.773,5.144,11.847,5.144,5.546,0,10.159-2.894,10.159-8.683,0-11.823-24.905-4.991-24.905-21.457,0-8.622,7.512-13.668,15.6-13.668,5.731,0,9.582,2.327,14.078,5.51l-3.08,4.319c-3.3-2.435-6.955-4.412-11.282-4.412-5.36,0-9.863,2.621-9.863,7.959,0,11.8,24.9,4.013,24.9,21.446,0,9.84-7.622,14.4-16.818,14.4a19.33,19.33,0,0,1-14.746-7.121l4.116-3.44h0Zm35.909,10.212V47.109L377.279,46V72.479h.175c2.537-4.221,7.882-6.816,13.634-6.816,9.091,0,17.563,3.55,17.563,16.558v31.553l-5.441.764V81c0-6.831-4.427-10.479-11.947-10.479-5.167,0-13.987,3.745-13.987,12.81v30.44l-5.452.764h0Zm92.192-24.258c0,12.627-10.253,24.607-24.161,24.607S415.7,102.91,415.7,90.281c0-12.652,10.253-24.617,24.161-24.617s24.161,11.964,24.161,24.617h0Zm12.954,39.591L471.526,131V66.778l5.446-1.114V76.5h.181a21.251,21.251,0,0,1,18.5-10.834,24.892,24.892,0,0,1,24.625,24.805,24.168,24.168,0,0,1-24.429,24.419,23.385,23.385,0,0,1-18.7-8.693h-.181v23.678h0Z" transform="translate(-137 -45.995)" fill-rule="evenodd"/>
              <path id="Shape_124_copy_5-2" data-name="Shape 124 copy 5" d="M596.157,116.637c11.2,0,18.709-9.694,18.709-19.119,0-11.048-7.51-19.518-18.889-19.518-10.5,0-18.97,8.935-18.97,19.216,0,12.267,8.824,19.417,19.15,19.417h0Z" transform="translate(-237.002 -53.268)" fill="#ee7401" fill-rule="evenodd"/>
              <path id="Shape_124_copy_4-2" data-name="Shape 124 copy 4" d="M504.749,97.323c0,10.09,8.084,19.312,18.712,19.312,10.606,0,18.7-9.221,18.7-19.312S534.067,78,523.461,78c-10.628,0-18.712,9.232-18.712,19.318h0Z" transform="translate(-220.582 -53.268)" fill="#fbbc1b" fill-rule="evenodd"/>
              <path id="Shape_124_copy_3-2" data-name="Shape 124 copy 3" d="M226.572,121.1c6.671,0,11.359-5.006,11.359-11.662,0-7-4.785-11.794-11.542-11.794-7.252,0-12.7,4.868-12.7,12.431,0,6.979,6.568,11.024,12.875,11.024h0Z" transform="translate(-154.44 -57.733)" fill="#009cdd" fill-rule="evenodd"/>
              <path id="Path_5340" data-name="Path 5340" d="M163.65,116.638c11.088,0,18.614-8.2,18.975-19.119,0-11.31-7.975-19.514-19.255-19.514-10.836,0-19.37,8.2-19.37,19.8,0,11.113,9.027,18.831,19.65,18.831Z" transform="translate(-138.581 -53.27)" fill="#73af27" fill-rule="evenodd"/>
              <path id="Shape_124_copy-2" data-name="Shape 124 copy" d="M291.962,116.637c11.1,0,18.614-8.2,18.981-19.119,0-11.312-7.961-19.518-19.251-19.518-10.818,0-19.375,8.2-19.375,19.8,0,11.113,9.021,18.829,19.644,18.829h0Z" transform="translate(-167.752 -53.268)" fill="#e3348b" fill-rule="evenodd"/>
            </g>
          </g>
        </g>
      </g>
    </g>
  </g>
</svg>
