<svg xmlns="http://www.w3.org/2000/svg" xmlns:xlink="http://www.w3.org/1999/xlink" width="500" height="500" viewBox="0 0 500 500">
  <defs>
    <clipPath id="clip-Baldi_Active">
      <rect width="500" height="500"/>
    </clipPath>
  </defs>
  <g id="Baldi_Active" clip-path="url(#clip-Baldi_Active)">
    <rect width="500" height="500" fill="#fff"/>
    <g id="Group_5873" data-name="Group 5873" transform="translate(67.902 68)">
      <rect id="Rectangle_1614" data-name="Rectangle 1614" width="364" height="364" rx="9" transform="translate(0.098)" fill="#d19130"/>
      <text id="Add_Note" data-name="Add Note" transform="translate(176.672 284.777)" fill="#fff" font-size="54" font-family="Roboto-Bold, Roboto" font-weight="700"><tspan x="-117.281" y="0">Our Picks</tspan></text>
      <g id="_333333ff" data-name="#333333ff" transform="translate(44.445 95.475)">
        <path id="Path_3599" data-name="Path 3599" d="M307.71,2.184C312.8.341,318.882,4.449,318.835,9.916c.477,4.633-3.433,9.21-8.161,9.154-4.919.373-9.361-4.347-8.844-9.218A8.731,8.731,0,0,1,307.71,2.184Z" transform="translate(-61.974 -1.737)" fill="#fff"/>
        <path id="Path_3600" data-name="Path 3600" d="M0,2.925c3.671-.024,7.343-.04,11.006.024-.087,18.03-.008,36.061-.04,54.091a19.944,19.944,0,0,0,4.4,13.128c7.3,8.884,22.425,8.876,30.276.747,5.245-5.753,6.445-14.606,3.624-21.765A18.921,18.921,0,0,0,37.022,38.342a25.264,25.264,0,0,0-18.15,1.748c.111-3.345-.342-6.723.191-10.036C29.823,25.985,43,27.781,51.819,35.386a28.43,28.43,0,0,1,9.639,17.005,28.95,28.95,0,0,1-6.19,23.378C46.8,85.941,31.611,88.857,19.421,84.495A28.8,28.8,0,0,1,1.216,66.234,53.826,53.826,0,0,1,0,56.015Z" transform="translate(0 -1.977)" fill="#fff"/>
        <path id="Path_3601" data-name="Path 3601" d="M182.584,2.93c3.6,0,7.2.127,10.807.016.008,27.518.111,55.045-.056,82.563-3.528-.072-7.072-.127-10.6.032a21.7,21.7,0,0,1-.214-3.043C182.6,55.98,182.472,29.455,182.584,2.93Z" transform="translate(-37.482 -1.982)" fill="#fff"/>
        <path id="Path_3602" data-name="Path 3602" d="M261.145,3.027c3.655-.238,7.319-.064,10.982-.119-.008,18.579.159,37.165-.1,55.744a27.072,27.072,0,0,1-10.664,21.082c-11.069,8.527-27.622,8.828-39.089.882a28.314,28.314,0,0,1-11.888-22.027,28.628,28.628,0,0,1,11.594-24.666c8.836-6.611,20.875-7.43,31.166-4.116-.024,3.385-.079,6.762.056,10.148a25.346,25.346,0,0,0-16.99-1.979,18.564,18.564,0,0,0-13.9,12.746c-1.907,6.611-.771,14.359,3.838,19.628,7.509,8.487,22.457,8.67,30.125.31,3.592-3.846,5.07-9.242,4.951-14.415C261.161,38.507,261.344,20.763,261.145,3.027Z" transform="translate(-43.191 -1.976)" fill="#fff"/>
        <path id="Path_3603" data-name="Path 3603" d="M305.726,29.836c3.624-.032,7.239,0,10.863-.008.127,20.287-.1,40.574.119,60.862-3.512.23-7.041.159-10.545.1l-.405-.358C305.671,70.236,305.734,50.036,305.726,29.836Z" transform="translate(-62.78 -7.505)" fill="#fff"/>
        <path id="Path_3604" data-name="Path 3604" d="M94.68,44.056c8.662-9.56,23.362-11.665,35.211-7.621,8.709,2.98,16.036,10.243,18.174,19.31,1.311,7.009.9,14.184.977,21.281-.064,4.943.127,9.893-.1,14.836-3.624-.111-7.247-.064-10.871-.032-.056-9.7.032-19.405-.04-29.1A19.1,19.1,0,0,0,133.976,50.8c-7.66-9.7-24.69-9.321-31.9.715a21.173,21.173,0,0,0-1.621,20.947,19.438,19.438,0,0,0,13.724,10.386c5.332,1.192,10.894.079,15.829-2.082-.04,3.433.167,6.874-.135,10.3-7.907,2.3-16.648,2.471-24.34-.683a29.115,29.115,0,0,1-16.8-17.49C85.677,63.12,87.6,51.645,94.68,44.056Z" transform="translate(-17.934 -8.462)" fill="#fff"/>
        <path id="Path_3605" data-name="Path 3605" d="M3.82,118.715q125.395-.06,250.789-.016c.016,1.748.008,3.5-.016,5.253q-125.383-.036-250.758-.016Q3.824,121.325,3.82,118.715Z" transform="translate(-0.784 -25.755)" fill="#fff"/>
        <path id="Path_3606" data-name="Path 3606" d="M72.621,138.159c3.465-.787,8.209.779,8.948,4.672,1.065,3.409-1.24,7.978-5.1,7.939-2.328-.016-5.03.612-6.993-.985a6.551,6.551,0,0,1-1.351-9.019,8.177,8.177,0,0,1,4.5-2.606m-.6,1.764c-3.846,1.51-3.918,7.533-.278,9.337,3.409,2.161,8.534-.834,7.962-4.927C79.821,140.511,75.228,138.413,72.025,139.923Z" transform="translate(-13.738 -29.712)" fill="#fff"/>
        <path id="Path_3607" data-name="Path 3607" d="M123.164,138.23c.85.04,1.708.087,2.567.127,2.424,3.759,6.158,6.389,8.972,9.822.326-3.258.119-6.54.151-9.814.445.048,1.335.135,1.78.183.1,4.1.032,8.209,0,12.317-.548-.064-1.653-.191-2.2-.246-3.163-3.147-6.087-6.564-9.512-9.432-.008,3.155-.04,6.31.1,9.472-.485.04-1.438.127-1.923.167C123.187,146.629,123.116,142.426,123.164,138.23Z" transform="translate(-25.279 -29.767)" fill="#fff"/>
        <path id="Path_3608" data-name="Path 3608" d="M179.113,138.29c3.186.151,6.437-.286,9.575.421,5.364,1.391,5.459,10.895-.087,12.071-3.123.66-6.318-.1-9.472-.032-.183-4.148,0-8.3-.016-12.46m1.939,11.459c2.718-.04,6.079.818,8.248-1.311,1.931-2.464,1.669-7.168-1.566-8.423a24.965,24.965,0,0,0-6.4-.27C180.782,142.986,181.425,146.435,181.052,149.749Z" transform="translate(-36.768 -29.779)" fill="#fff"/>
        <path id="Path_3609" data-name="Path 3609" d="M237.762,138.178c3.5-.882,8.224.683,9.067,4.569,1.176,3.488-1.343,8.185-5.284,8.034-2.257-.159-4.871.524-6.794-.977a6.536,6.536,0,0,1-.286-10.132,11.668,11.668,0,0,1,3.3-1.494m-.572,1.788c-3.743,1.589-3.8,7.406-.254,9.242,3.4,2.217,8.582-.739,8.073-4.871C245.057,140.467,240.4,138.377,237.19,139.966Z" transform="translate(-47.683 -29.707)" fill="#fff"/>
        <path id="Path_3610" data-name="Path 3610" d="M17.98,138.567c.493-.056,1.486-.159,1.987-.207-.016,3.806.04,7.621-.064,11.435,3.171.167,6.357-.127,9.52.238a3.289,3.289,0,0,1-2.638.938c-2.948.1-5.888-.072-8.829-.191C17.988,146.7,17.893,142.635,17.98,138.567Z" transform="translate(-3.685 -29.794)" fill="#fff"/>
        <path id="Path_3611" data-name="Path 3611" d="M288.54,138.223c2.479-.779,3.417,1.788,4.9,3.139,2.273,2.177,4.363,4.537,6.691,6.651.111-3.1-.087-6.2.04-9.3l.572-.492,1.136.246c.143,4.108.016,8.224.048,12.333a3.121,3.121,0,0,1-3.115-1.232,116.429,116.429,0,0,0-8.463-8.344c-.008,3.171.016,6.341.04,9.5l-1.82.032C288.588,146.574,288.62,142.395,288.54,138.223Z" transform="translate(-59.254 -29.736)" fill="#fff"/>
      </g>
    </g>
  </g>
</svg>
