<svg xmlns="http://www.w3.org/2000/svg" xmlns:xlink="http://www.w3.org/1999/xlink" width="500" height="500" viewBox="0 0 500 500">
  <defs>
    <clipPath id="clip-Beauty">
      <rect width="500" height="500"/>
    </clipPath>
  </defs>
  <g id="Beauty" clip-path="url(#clip-Beauty)">
    <rect width="500" height="500" fill="#fff"/>
    <g id="Group_5871" data-name="Group 5871">
      <g id="Group_1103" data-name="Group 1103" transform="translate(67.281 68)">
        <g id="Rectangle_1608" data-name="Rectangle 1608" transform="translate(-0.281)" fill="#fff" stroke="#191919" stroke-width="1">
          <rect width="366" height="364" rx="9" stroke="none"/>
          <rect x="0.5" y="0.5" width="365" height="363" rx="8.5" fill="none"/>
        </g>
        <text id="Add_Note" data-name="Add Note" transform="translate(182.719 291.663)" fill="#191919" font-size="38" font-family="Roboto-Bold, Roboto" font-weight="700"><tspan x="-59.171" y="0">Beauty</tspan></text>
        <g id="Group_5870" data-name="Group 5870" transform="translate(-18.051)">
          <path id="Path_3470" data-name="Path 3470" d="M79.583,152.633c-.622,0-1.865.622-2.487.622-6.216,0-10.568-3.108-11.811-8.081a42.833,42.833,0,0,0-1.865-4.973c-.622-2.487-1.243-4.351-1.865-6.838-.622-3.108-1.243-6.216-1.865-8.7-.622-1.865-.622-3.108-1.243-4.973s-.622-3.73-1.243-5.595c-1.243-4.973-1.865-9.946-3.73-14.919s-3.108-9.946-4.973-14.3c-1.865-6.216-3.73-11.189-4.973-16.163-.622-1.243-1.243-1.865-1.865-3.108-6.838-4.351-12.433-8.081-18.028-11.19-1.865-1.865-3.108-3.73-4.973-4.973L17.419,48.2C13.689,45.09,9.338,41.36,5.608,37.63A7.651,7.651,0,0,1,2.5,31.414a6.665,6.665,0,0,1,1.243-3.73,14.35,14.35,0,0,0,3.108-4.351,5.6,5.6,0,0,1,3.73-3.73c2.487-1.865,4.973-3.108,7.46-5.595,1.865-1.865,4.351-3.108,6.216-4.973.622-.622,1.865-1.243,2.487-1.865H29.23c1.243-.622,1.865-1.243,3.108-1.243h.622a13.588,13.588,0,0,0,3.108-1.865C36.69,2.2,38.555,1.575,40.42,1.575A23.32,23.32,0,0,0,46.636.953c.622,0,1.243-.622,1.865-.622h.622c1.865-.622,3.73,0,4.973,0h1.243a36.382,36.382,0,0,1,8.081,1.243c.622,0,1.865.622,2.487.622L71.5,4.062c1.243,0,1.865,1.243,2.487,1.865l.622.622c.622.622,1.243,1.243,1.865,1.243,1.243.622,1.865,1.865,3.108,2.487,2.487,2.487,3.73,5.595,2.487,8.7-.622,2.487-1.243,4.351-2.487,5.595a100.561,100.561,0,0,0-14.3,25.487v.622l-.622,1.243c-3.108,4.351-2.487,8.7-1.243,13.054V65.6c1.865,8.081,4.351,16.163,6.838,24.244a35.045,35.045,0,0,0,2.487,7.46c.622,1.865,1.243,4.351,1.865,6.838,1.865,6.838,3.73,12.433,4.973,18.028l3.73,16.784v.622c0,1.243.622,2.487.622,4.351a6.947,6.947,0,0,1-4.351,8.7Zm-23-59.056a2.284,2.284,0,0,0,.622,1.865,26.924,26.924,0,0,0,.622,3.108c.622,2.487,1.243,4.351,1.865,6.838.622,4.351,1.865,8.081,2.487,12.433a72.281,72.281,0,0,0,2.487,11.189c1.243,6.216,3.73,11.811,5.595,16.163a6.241,6.241,0,0,0,6.216,3.73c1.243,0,1.865-.622,3.108-1.243,1.865-1.865,2.487-4.351,1.243-7.46l-.622-1.243c-1.243-4.351-1.865-9.325-3.108-13.676-1.865-6.216-3.108-11.811-4.973-18.028-.622-1.865-.622-3.108-1.243-4.973-.622-3.108-1.865-5.595-2.487-8.081,0-.622-.622-1.243-.622-1.865a10.5,10.5,0,0,1-3.108,1.243c-3.108,1.243-5.595,1.243-8.081,0Zm-7.46-28.6c-.622,0-1.243.622-.622,2.487a11.525,11.525,0,0,0,1.243,4.351c0,.622.622,1.243.622,1.865.622,1.243.622,2.487,1.243,4.351.622,3.108,1.865,6.216,2.487,9.325.622,2.487,1.865,3.108,4.351,3.108a13.687,13.687,0,0,0,4.973-.622c1.243-.622,1.865-.622,2.487-1.243V85.5c-1.865-6.216-3.73-12.433-4.973-18.649,0-1.243-.622-1.865-.622-3.108,0-.622,0-.622-.622-1.243a19.087,19.087,0,0,1-9.325,2.487H49.123ZM27.987,34.522l1.865,1.865a10.914,10.914,0,0,1,3.108,2.487l5.595,7.46c3.108,3.73,6.216,8.081,9.325,12.433l.622.622c0,1.243,0,1.243.622.622q.932,0,0-1.865V56.9a8.985,8.985,0,0,1-1.243-4.351c-.622-1.865-1.243-3.108-1.243-4.973l-3.73-14.919-.622-3.73V26.441l1.243,1.243a8.582,8.582,0,0,1,1.865,2.487c.622,3.108,1.865,5.595,2.487,8.7l3.73,13.054c.622,2.487,1.243,4.351,1.865,6.838v.622a1.925,1.925,0,0,0,.622,1.243,18.391,18.391,0,0,0,1.243-6.216c-.622-11.811,0-21.757,0-29.217V22.711H57.2v4.351a105.366,105.366,0,0,1-.622,14.3V56.9l.622-.622c0-1.243.622-1.865.622-3.108V51.928l.622-3.73c1.243-4.351,1.865-9.325,3.108-13.676,0-.622.622-1.243.622-1.865a.609.609,0,0,1,.622-.622l2.487-5.595-.622,6.216a31.2,31.2,0,0,1-1.243,7.46c-.622,2.487-.622,4.351-1.243,6.838l1.865-3.73.622-1.243A65.881,65.881,0,0,1,71.5,28.927a65.524,65.524,0,0,0,4.351-6.838c1.243-2.487,1.243-4.351.622-5.595-1.865-3.108-4.973-5.595-7.46-7.46-2.487.622-4.351-.622-6.216-1.865H61.556a3.069,3.069,0,0,1-1.865-.622,9.217,9.217,0,0,0-4.351-.622H54.1c-1.865,0-3.73-.622-5.595,0-.622,0-1.243.622-1.865.622.622-1.243-1.243-.622-3.73-.622H41.042a1.648,1.648,0,0,0-1.865,1.865c-.622,1.243-1.243,1.865-2.487,1.865H31.717a3.069,3.069,0,0,0-1.865.622l-1.865,1.865a21.7,21.7,0,0,1-5.595,3.73c-1.243,0-1.243.622-1.865,1.243a4.91,4.91,0,0,1-3.108,3.73A9.92,9.92,0,0,0,11.825,25.2c-.622,1.243-1.243,1.865-1.865,3.108l-.622.622c-1.865,3.108-2.487,4.351.622,7.46,2.487,2.487,5.595,4.973,8.081,7.46.622.622,1.243,1.243,1.865,1.243a25.264,25.264,0,0,0,6.216,5.595c3.73,2.487,8.081,4.973,12.433,7.46a30.307,30.307,0,0,0,4.351,1.865c.622,0,.622.622,1.243.622,0-.622,0-.622-.622-1.243-3.108-4.351-5.595-8.081-8.7-12.433-.622-1.243-1.865-2.487-2.487-3.73,0-.622-.622-.622-.622-1.243a13.536,13.536,0,0,1-3.108-4.973l-.622-2.487Z" transform="translate(206.236 49.368)" fill="#191919"/>
          <g id="_010101ff" data-name="#010101ff" transform="translate(111.769 110.503)">
            <path id="Path_5134" data-name="Path 5134" d="M57.322,2.58A1.772,1.772,0,0,1,59.406.964c1.17.21,2.306.578,3.457.881A130.314,130.314,0,0,1,83.814,9.771a82.157,82.157,0,0,1,15.94,9.838c5.183,4.183,9.79,9.308,12.436,15.487a6.557,6.557,0,0,1,.193,2.617c-.019,3.407,0,6.813-.007,10.223a9.773,9.773,0,0,1,5.434,1.356,9.412,9.412,0,0,1,4.421,7.081v51.383a5.663,5.663,0,0,1-3.178,4.6c-8.938,4.374-18.726,6.668-28.5,8.229a194.868,194.868,0,0,1-33.017,2.1,184.555,184.555,0,0,1-32.265-3.335A97.56,97.56,0,0,1,3.149,112.4,5.654,5.654,0,0,1,0,108.046V56.422a9.388,9.388,0,0,1,4.13-6.947,9.759,9.759,0,0,1,5.725-1.542q0-4.881,0-9.762c.007-1.354-.229-2.793.394-4.056a9.788,9.788,0,0,1,4.5-4.075,49.968,49.968,0,0,1,12.037-3.908A154.563,154.563,0,0,1,48.94,23.4a20.171,20.171,0,0,0,2.519-.177,10.986,10.986,0,0,0,1.819-2.2A25.546,25.546,0,0,0,57.446,6.441c.038-1.289-.148-2.571-.124-3.86m3.8,2.631c.181,5.968-1.041,12.13-4.357,17.174-3.357,5.278-8.685,9.027-14.415,11.366-8.539,3.466-17.9,4.476-27.051,4.221a38.72,38.72,0,0,0,10.122,3.65A139.111,139.111,0,0,0,49.2,44.736a234.406,234.406,0,0,0,23.6.014,141.5,141.5,0,0,0,23.647-3.041,46.47,46.47,0,0,0,8.788-2.85,7.472,7.472,0,0,0,3.428-2.59c-3.158-7.047-9.019-12.455-15.3-16.74C83.533,12.96,72.441,8.5,61.123,5.211m-36.3,25.143a34.049,34.049,0,0,0-10.137,3.934,78.878,78.878,0,0,0,12.739-.544c6.837-.883,13.732-2.679,19.54-6.529a130.839,130.839,0,0,0-22.142,3.139M13.555,41.1c.019,2.292-.01,4.588.007,6.88.007.59.425,1.065.516,1.635.088.618-.322,1.136-.5,1.7.045.738.69,1.239,1.225,1.662a21.8,21.8,0,0,0,5.352,2.511A86.83,86.83,0,0,0,35.6,58.852a194.834,194.834,0,0,0,26.953,1.554c6.25-.031,12.5-.318,18.726-.924A109.252,109.252,0,0,0,99.666,56.24a29.489,29.489,0,0,0,7.491-3.07c.64-.458,1.411-1,1.5-1.848-.179-.549-.575-1.053-.511-1.657s.52-1.079.52-1.685c.017-2.292-.012-4.586.007-6.88-4.14,2.471-8.9,3.6-13.558,4.627a160.632,160.632,0,0,1-22.281,2.688,205.459,205.459,0,0,1-33.649-.843A119.463,119.463,0,0,1,23.575,44.92,37.03,37.03,0,0,1,13.555,41.1M6.837,52.194A5.531,5.531,0,0,0,3.7,57.277q0,24.949,0,49.9a1.855,1.855,0,0,0,1.081,1.907,90.769,90.769,0,0,0,18.619,6.1,179.343,179.343,0,0,0,37.7,3.87,180.363,180.363,0,0,0,34.848-3.163,88.892,88.892,0,0,0,21.462-6.847,1.914,1.914,0,0,0,1.112-1.86q.011-24.96,0-49.917a5.531,5.531,0,0,0-2.249-4.543,6.027,6.027,0,0,0-3.884-1.084,5.852,5.852,0,0,1-1.461,2.922,16.758,16.758,0,0,1-6.069,3.739,64.144,64.144,0,0,1-10.686,2.96,178.237,178.237,0,0,1-29.247,2.805,186.44,186.44,0,0,1-37.028-2.824c-4.562-.96-9.184-2.027-13.34-4.206-2.127-1.153-4.362-2.831-4.736-5.4A6.543,6.543,0,0,0,6.837,52.194Z" transform="translate(0 -0.925)" fill="#010101"/>
            <path id="Path_5135" data-name="Path 5135" d="M242.981,116.935a1.927,1.927,0,0,1,2.507,1.406,9.052,9.052,0,0,1-.85,3.082c-2.108,4.923-6.532,8.494-11.3,10.7-1.308.578-2.7-.967-2.282-2.246.26-1.141,1.521-1.425,2.392-1.951,3.853-2.108,7.363-5.453,8.413-9.85A1.753,1.753,0,0,1,242.981,116.935Z" transform="translate(-175.837 -89.152)" fill="#010101"/>
            <path id="Path_5136" data-name="Path 5136" d="M323.927,119.933a1.855,1.855,0,0,1,2.59,1.79,12.46,12.46,0,0,1-2.836,7.243,19.436,19.436,0,0,1-5.421,4.576,1.845,1.845,0,0,1-2.6-1.9c.1-1.148,1.287-1.576,2.094-2.161,2.664-1.833,4.992-4.66,5.125-8.021A1.818,1.818,0,0,1,323.927,119.933Z" transform="translate(-240.284 -91.384)" fill="#010101"/>
            <path id="Path_5137" data-name="Path 5137" d="M82.416,272.262a2.209,2.209,0,0,1,1.547.117,77.7,77.7,0,0,0,15.589,3.97,159.731,159.731,0,0,0,35.294,1.356,115.779,115.779,0,0,0,19.053-2.817,56.446,56.446,0,0,0,7.573-2.4,2.658,2.658,0,0,1,1.748-.272,1.918,1.918,0,0,1,1.351,2.022c-.01,10.758.014,21.517-.012,32.272.031,1.009-.867,1.637-1.7,1.984a64.769,64.769,0,0,1-16.367,5.355,125.49,125.49,0,0,1-34.33,1.728,101.522,101.522,0,0,1-21.233-3.908,56.568,56.568,0,0,1-8.685-3.452,1.946,1.946,0,0,1-1.084-1.967q.007-16,0-32a1.926,1.926,0,0,1,1.253-1.991m2.533,4.555v28.648c8.086,3.755,16.96,5.436,25.776,6.352a122.277,122.277,0,0,0,35.586-1.592,61.724,61.724,0,0,0,14.587-4.756q.014-14.324,0-28.65a90.385,90.385,0,0,1-17.43,3.813,168.334,168.334,0,0,1-40.654,0A97.053,97.053,0,0,1,84.949,276.817Z" transform="translate(-61.78 -207.402)" fill="#010101"/>
          </g>
        </g>
      </g>
    </g>
  </g>
</svg>
