<svg xmlns="http://www.w3.org/2000/svg" xmlns:xlink="http://www.w3.org/1999/xlink" width="500" height="500" viewBox="0 0 500 500">
  <defs>
    <clipPath id="clip-Beverly_Hills_Active">
      <rect width="500" height="500"/>
    </clipPath>
  </defs>
  <g id="Beverly_Hills_Active" data-name="Beverly Hills_Active" clip-path="url(#clip-Beverly_Hills_Active)">
    <rect width="500" height="500" fill="#fff"/>
    <g id="Group_5875" data-name="Group 5875" transform="translate(68 68)">
      <rect id="Rectangle_1614" data-name="Rectangle 1614" width="364" height="364" rx="9" fill="#d19130"/>
      <text id="Add_Note" data-name="Add Note" transform="translate(176.672 302.678)" fill="#fff" font-size="54" font-family="Roboto-Bold, Roboto" font-weight="700"><tspan x="-117.281" y="0">Our Picks</tspan></text>
      <g id="_b6b19eff" data-name="#b6b19eff" transform="translate(98.622 53.643)">
        <path id="Path_3636" data-name="Path 3636" d="M223.784,67.95c2.638,1.932,5.2,3.97,7.813,5.933-.127.193-.386.574-.513.767A31.383,31.383,0,0,0,227.6,72.1a44.091,44.091,0,0,0-4.351,2.1c-11.966,5.955-23.894,12-35.86,17.952-2.046.995-4.005,2.27-6.283,2.677-.031.337-.1,1.012-.127,1.35a15.472,15.472,0,0,0,4.11,2.024c1.389.372,2.857.272,4.246.64a14.385,14.385,0,0,1,2.41,1.77c2.327-.039,4.693-.846,6.993-.25a18.043,18.043,0,0,1-.451,4.719c-1.45-.259-3.291.245-4.347-1.056a4.058,4.058,0,0,0,3.273-2.441,7.508,7.508,0,0,1-2.94,1.556,22.2,22.2,0,0,1-3.5-.158c1.1.28,2.2.539,3.286.841a16.929,16.929,0,0,1-6.559-.977,23.505,23.505,0,0,1,2.765.3c.245-.167.491-.342.732-.517-.846-.9-1.595-1.88-2.41-2.8-.053.631-.105,1.262-.149,1.893-.57.315-1.139.631-1.7.955a21.737,21.737,0,0,1-3.4-1.726c1.144.289,2.265.64,3.409.92a15.767,15.767,0,0,0-6.612-2.848c0-.517,0-1.034,0-1.547-.245-.048-.732-.14-.977-.184-.539-.381-1.087-.745-1.648-1.082.574.933,1.2,1.832,1.8,2.756-.96-.486-2.2-.92-2.533-2.072a3.619,3.619,0,0,1,.925-3.6c1.81-.7,3.738.872,5.468-.053,14.482-7.274,28.946-14.582,43.453-21.808-1.122-.907-2.252-1.81-3.387-2.695C223.367,68.537,223.643,68.143,223.784,67.95Z" transform="translate(-126.238 -67.95)" fill="#fff"/>
        <path id="Path_3637" data-name="Path 3637" d="M245.239,130.647a4.4,4.4,0,0,1,5.648-3.115c1.6.666,2.379,2.322,3.177,3.751a8.279,8.279,0,0,0-5.157,1.323C247.517,132.444,244.936,132.768,245.239,130.647Z" transform="translate(-164.786 -101.272)" fill="#fff"/>
        <path id="Path_3638" data-name="Path 3638" d="M229.658,139.229c1.827-.2,3.922-1.516,5.5.035-.741.092-1.481.171-2.226.245.039.311.118.929.158,1.24-.39.307-.776.614-1.161.925.21.9.412,1.805.613,2.712.557-.32,1.113-.635,1.678-.946.188,2.024-.859,3.843-1.985,5.424l-.438.175c-.469-1.275,1.078-2.537.692-3.952-.513.811-.977,1.648-1.437,2.489l-1.266-.609a34.149,34.149,0,0,1-.9,4.618,21.816,21.816,0,0,1-2.752,2.441c-1.77,1.516-2.944,3.83-5.293,4.579a18.6,18.6,0,0,1-2.923.013c-.11.25-.324.758-.429,1.008-2.169-1.814-3.939-4.027-6.025-5.92-.167,1.507,1.577,2.384,2.318,3.545.052.443.105.885.167,1.328,3.571,1.065,7.195,3.672,7.55,7.681.368-.21.745-.421,1.117-.627-.048.644-.07,1.288-.057,1.937a7.31,7.31,0,0,0,2.068,1.634c-.263,1.63-.421,3.273-.6,4.912a47.627,47.627,0,0,1-5.573-3.234c.885-.272,1.77-.543,2.651-.833a24.955,24.955,0,0,1-3.878-.477,9.97,9.97,0,0,1-3.264-2.918A7.7,7.7,0,0,0,211,164.862a6.362,6.362,0,0,0,2.55-2.866c-.973.657-1.9,1.38-2.831,2.108-.175-.294-.521-.881-.7-1.174,1.367-.539,2.752-1.257,3.216-2.769-.513.434-1.008.885-1.494,1.345-.052-.232-.158-.688-.206-.92-.6.662-1.082,1.586-2.073,1.678-.1-.2-.281-.6-.372-.793a32.536,32.536,0,0,0,2.222-4.461c.631.3,1.258.592,1.893.89-.105-.263-.311-.789-.412-1.052-.565-.6-1.109-1.222-1.643-1.849l-.127.241c-.193-.473-.381-.942-.565-1.415.232-.364.447-.732.666-1.1.565-.149,1.126-.3,1.691-.456-.057-.671-.109-1.336-.162-2.007a16.9,16.9,0,0,0,3.615-4.036c-.044.859-.1,1.722-.145,2.585a24.685,24.685,0,0,1,.026,5.276c.351-.57,1.082-1.012,1.047-1.753,0-2.423-.372-4.859.083-7.265,1.783,3.172,4.456,5.959,4.964,9.705a29.71,29.71,0,0,0-3.457,1.122,10.1,10.1,0,0,0,3.391.311c1.231-.784,1.74-2.283,2.852-3.2a12.326,12.326,0,0,1,2.493-1.2c-1.753-3.185-3.514-6.367-5.433-9.456a11.514,11.514,0,0,0-1.762-2.292,15.868,15.868,0,0,0-2.993-.14c1.411-1,3.238-.486,4.8-.228,1.818.8,2.66,2.993,4.57,3.681a5.748,5.748,0,0,0,3.457-.2c1.341-.8,1.967-2.331,2.572-3.7-.574-.088-1.139-.171-1.709-.254a2.884,2.884,0,0,1-1.236,2.511c-.351.316-.679.649-1.043.942a19.366,19.366,0,0,1-1.275-1.608c-.171-.009-.508-.031-.679-.039-.272.478-.539.96-.806,1.442l-2.1-2.046c.324-.1.981-.285,1.306-.377-.328-.5-.657-.986-.981-1.477A10.522,10.522,0,0,0,229.658,139.229Z" transform="translate(-144.49 -107.597)" fill="#fff"/>
        <path id="Path_3639" data-name="Path 3639" d="M264.318,151.12c.228.1.688.28.916.372-.684,1.2-1.477,2.336-2.274,3.462.412-.162,1.231-.482,1.643-.64.508-.938,1.03-1.867,1.577-2.782.684,3.47,1.231,7.168.263,10.63a15.434,15.434,0,0,0-.057,2.879c-.241.543-.478,1.091-.705,1.643a105.953,105.953,0,0,0,14.587-.294c-4.268-.237-8.544-.21-12.812-.43,3.961-4.171,7.966-8.461,12.948-11.436-1.13-1.117-2.309-2.2-3.374-3.374,2.852-.066,4.535,2.362,6.634,3.839.022-.443.066-1.319.083-1.757.508.245,1.012.491,1.52.745q-.434,1.209-.854,2.427a36.469,36.469,0,0,0-3.317-1.7c.867.968,1.976,1.67,2.874,2.6,1.223,2.2,1.481,4.78,1.937,7.221a14.011,14.011,0,0,0-2.458-.18,13.044,13.044,0,0,0-2.533,2.1c3.93.464,7.878.631,11.831.754-1-.3-2-.6-2.975-.942a37.138,37.138,0,0,1,4.771.482c.451-.745.907-1.49,1.38-2.221.281.557.57,1.113.854,1.669a12.059,12.059,0,0,0-1.893,1.187c.342.259,1.03.776,1.371,1.03-.995.355-2,.679-3.006,1,.232.206.7.613.933.819-2.2-.464-4.259.719-6.454.473-.013-.083-.035-.259-.048-.346.815-.184,1.643-.324,2.463-.508-2.91-.557-5.981-.535-8.676-1.91-.066.4-.2,1.2-.263,1.6a30.935,30.935,0,0,1,4.124.9,9.946,9.946,0,0,1-4.676-.618c-2.773,2.87-4.115,6.722-6.095,10.117a37.812,37.812,0,0,0-12.755-9.71c.057-.079.171-.241.228-.324a5.581,5.581,0,0,1-1.2-2.059c.653.359,1.31.736,1.959,1.117a16.6,16.6,0,0,1,4.027-1.117c-.841-.28-1.687-.548-2.532-.82-.131.3-.4.89-.539,1.183-.653-.079-1.306-.158-1.954-.241,2.379-2.02,2.086-5.32,1.845-8.115a26.156,26.156,0,0,1-.543-4.851l-1.056,1.056c.71-1.669,1.577-3.26,2.283-4.929m19.871,16.931c2.7.517,5.639,1.06,8.255-.118A57.055,57.055,0,0,0,284.189,168.051Z" transform="translate(-173.559 -114.677)" fill="#fff"/>
        <path id="Path_3640" data-name="Path 3640" d="M316.4,158.593a12.63,12.63,0,0,1,3.531-.3,69.825,69.825,0,0,0,5.7,4.833,14.221,14.221,0,0,1-2.931,2.664c-2.09-.526-4.281-1.77-5.153-3.847.78.316,1.551.662,2.318,1.012-.188-.469-.373-.933-.561-1.4q.868.506,1.744,1.012c-.3-.394-.907-1.187-1.209-1.582.438-.048,1.31-.149,1.748-.2-1.411-.329-2.835-.57-4.255-.859.613.7,1.223,1.4,1.819,2.112-.973-.377-1.928-.784-2.879-1.214.039-.749.079-1.494.127-2.239m7.532,5.4a5.627,5.627,0,0,0-2.817-1.669C321.2,163.593,323.053,163.51,323.929,163.992Z" transform="translate(-204.707 -118.68)" fill="#fff"/>
        <path id="Path_3641" data-name="Path 3641" d="M317.32,167.35a15.749,15.749,0,0,0,5.758,4.439c-.473.684-.718,1.665-1.52,2.029a18.14,18.14,0,0,1-3.343.109Q317.819,170.627,317.32,167.35Z" transform="translate(-205.297 -123.796)" fill="#fff"/>
        <path id="Path_3642" data-name="Path 3642" d="M335.2,173.722q.677-1.295,1.4-2.572a36.862,36.862,0,0,1,4.715,3.944c-.359.14-1.073.416-1.428.556a11.743,11.743,0,0,1,2.69,1.591c-.863.281-2.756-.4-3.019.7a16.642,16.642,0,0,1,2.984.145,4.037,4.037,0,0,1-2.559,1.109,5.592,5.592,0,0,1-1.911,2.222,5.9,5.9,0,0,1,1.056-1.889,17.092,17.092,0,0,0-.066-1.9C338.535,175.773,336.738,174.69,335.2,173.722Z" transform="translate(-215.343 -125.931)" fill="#fff"/>
        <path id="Path_3643" data-name="Path 3643" d="M330.31,177.61c.28.285.565.565.85.85.907.21,1.818.434,2.73.662q-.572.881-1.131,1.766l-1.35.105c-.092-.868-.2-1.731-.346-2.589-.3.938-.569,1.888-.845,2.835l-.828-.916C329.705,179.424,330.012,178.517,330.31,177.61Z" transform="translate(-212.078 -129.56)" fill="#fff"/>
        <path id="Path_3644" data-name="Path 3644" d="M230.63,186.05c1.188-.149,2.37-.342,3.549-.57a11.6,11.6,0,0,1,1.139,5.639C233.737,189.445,232.264,187.675,230.63,186.05Z" transform="translate(-156.592 -133.982)" fill="#fff"/>
        <path id="Path_3645" data-name="Path 3645" d="M245.548,197.054c1.429-.644,2.62-2.23,4.36-1.827,1.012.131,1.525,1.183,1.647,2.095.307,2.156-.478,4.25-.74,6.367-1.1-.044-2.515.307-3.247-.758-.083-1.056.083-2.116-.035-3.168-1.652-.771-3.781-1.117-4.653-2.94.031-.2.088-.6.114-.8A16.627,16.627,0,0,1,245.548,197.054Z" transform="translate(-163.475 -139.421)" fill="#fff"/>
        <path id="Path_3646" data-name="Path 3646" d="M303.832,194.98c.193.1.583.307.776.412l-.07.193c-1.836,2.449-4.461,4.2-6.481,6.494-1.428,1.7-3.177,3.107-4.592,4.82a7.754,7.754,0,0,1-.995-2.235c.508.215,1.021.438,1.529.662C297.264,201.864,301.045,198.867,303.832,194.98Z" transform="translate(-191.336 -139.319)" fill="#fff"/>
        <path id="Path_3647" data-name="Path 3647" d="M263.287,197.77c.583.188,1.17.359,1.735.6a12.681,12.681,0,0,1,.11,2.235q.769-.874,1.551-1.735a35.267,35.267,0,0,1,8.658,8.772,6.2,6.2,0,0,1,1.157,3.571c-.705-.061-1.407-.131-2.107-.206.429-.491.867-.973,1.306-1.455-.355-.491-.714-.977-1.073-1.459a18.143,18.143,0,0,1-1.722.754,25.581,25.581,0,0,1-.4-3.216c-.21.464-.425.929-.64,1.389a17.038,17.038,0,0,0-3.457-3.3,11.429,11.429,0,0,0-1.981.92c2.2,1.306,5.709,2,6,5.07a4.426,4.426,0,0,1-3.663-3.023c-2.239.175-4.921-.18-6.24-2.235A33.89,33.89,0,0,0,263.287,197.77Z" transform="translate(-174.509 -140.887)" fill="#fff"/>
        <path id="Path_3648" data-name="Path 3648" d="M200,200.32c.35.127,1.056.39,1.406.517.07-.118.219-.359.289-.478a5.172,5.172,0,0,0,5.1,1.477c.771.522,1.542,1.039,2.322,1.556-.881.167-1.757.333-2.638.473-.04.272-.114.819-.153,1.091-2.769-.705-5.836-1.49-7.436-4.106a25.4,25.4,0,0,0,4.461,2.52A33.917,33.917,0,0,1,200,200.32Z" transform="translate(-138.76 -142.319)" fill="#fff"/>
        <path id="Path_3649" data-name="Path 3649" d="M177.748,200.22c1.753.982,3.435,2.081,5.205,3.032.127,1.205-.583,3.058.872,3.668,1.573.631,3.628-.622,4.907.854a2.265,2.265,0,0,1,.644,2.682,12.357,12.357,0,0,0-5.692-.907,6.963,6.963,0,0,1-2.8,3.615c-.57,1.266-1.117,2.546-1.691,3.812-.719.258-1.428.521-2.143.789.543.5,1.091.982,1.652,1.464.482-.631.96-1.266,1.424-1.91a5.616,5.616,0,0,1,1.17-3.352c1.187-1.45,2.274-3.12,3.952-4.044a6.473,6.473,0,0,1,2.445.587c1.428.583,3.054.911,4.22,1.981a15.786,15.786,0,0,1,.995,3.067c.342.031,1.03.092,1.371.118-.477-1.017-.96-2.029-1.437-3.045a30.333,30.333,0,0,0,5.67,1.35c.289-.294.868-.885,1.157-1.179.07,2.09-1.682,3.453-2.428,5.249-.973,2.261-2.143,4.689-4.368,5.959a8.055,8.055,0,0,1-5.727-1.542,70.291,70.291,0,0,0-6.091-4.956,8.965,8.965,0,0,1-2.187,2.8c1.078-.311,2.164-.587,3.269-.793a12.214,12.214,0,0,1-3.278,2.064c.675.088,1.358.175,2.037.258.464,1.017.946,2.029,1.45,3.023-2.589-.609-4.824,1.459-7.374.872-3.624-.583-6.971-2.165-10.507-3.067-1.1-.3-1.271-1.661-1.661-2.563-.513-1.893-1.306-4.049-3.466-4.535a14.829,14.829,0,0,1,3.488,6.494,5.358,5.358,0,0,1-.8,3.5c2.011,3.532,3.983,7.519,3.212,11.7-1.84-2.186-4.044-4.105-5.438-6.629a11.035,11.035,0,0,0-1.818,1.621,9.493,9.493,0,0,0-.653,2.905c.982.123,1.963.241,2.949.377a19.043,19.043,0,0,0-2.274,1.148,6.764,6.764,0,0,0-.5,2.046c-.583-.18-1.166-.35-1.744-.526-1.415-1.174-3.549-.662-4.9-1.832-1.043-1.441.688-2.563,1.306-3.724.837-1.691,1.814-3.308,2.633-5.008a8.074,8.074,0,0,1-3.76-.079c-2.611-.881-5.556-1.017-7.786-2.8-1.012-.833-2.4-1.678-2.432-3.151a39.444,39.444,0,0,1,.46-8.159c-2.664.026-5.35-.793-7.983-.053-.9.131-1.319,1.012-1.849,1.639-.872.026-1.748.044-2.625.061.9-1.442,1.687-3.387,3.593-3.672a25.807,25.807,0,0,1,9.973-.193,22.622,22.622,0,0,1,9.46-6.082,44.1,44.1,0,0,1,8.584-1.385c.745-.123,1.262.478,1.827.846a16.83,16.83,0,0,1,4.662,1.266c.386-1.56,2.1-2.077,3.51-2.182.723.776,1.126,1.77,1.784,2.594,1.122.771,2.629.7,3.7,1.577a30.525,30.525,0,0,0,3.733,2.226c-.364.644-.727,1.3-1.122,1.924-.017.324-.044.973-.057,1.3.324-.25.653-.5.982-.74l-.092-.245c.705-2.8.2-5.736,1.06-8.509-1-1.126-2.27-2.077-2.682-3.606M169.47,208.1c-.263.526-.521,1.052-.776,1.582a32.578,32.578,0,0,0,4.715-.228A7.547,7.547,0,0,0,169.47,208.1Z" transform="translate(-99.398 -142.263)" fill="#fff"/>
        <path id="Path_3650" data-name="Path 3650" d="M285.86,223.881c.833-.039,1.665-.074,2.5-.1-.355.451-.71.9-1.069,1.349C286.811,224.713,286.338,224.3,285.86,223.881Z" transform="translate(-187.622 -155.5)" fill="#fff"/>
        <path id="Path_3651" data-name="Path 3651" d="M279.971,241.77c2.02.894,3.825,2.563,6.143,2.555,2.252.166,4.851.25,6.5,2.024a2.02,2.02,0,0,1,.491,2.4,34.221,34.221,0,0,1-2.471,3.882,36.484,36.484,0,0,1-4.237-.644c.8-1.214,2.563-2.344,1.919-3.992-.214.342-.64,1.03-.854,1.371-2.791-1.315-5.854-.21-8.763-.784-1.148-.184-2.274-.469-3.4-.745A13.674,13.674,0,0,0,279.971,241.77Z" transform="translate(-181.689 -165.607)" fill="#fff"/>
        <path id="Path_3652" data-name="Path 3652" d="M249.02,245.809a10.878,10.878,0,0,1,1.06-1.709c1.792,1.3,3.422,2.813,5.254,4.062a17.24,17.24,0,0,0,3.9,1.534c-.425,1.512-1.126,2.927-1.507,4.456-.815,3.374-2.322,6.756-1.564,10.3a12.57,12.57,0,0,1-6.125-.881c1.3-.723,3.361-1.1,3.584-2.857-.276-1.556-1.774-2.585-2.108-4.136-.364-1.867.088-3.777-.114-5.648C250.641,249.2,249.769,247.531,249.02,245.809Z" transform="translate(-166.924 -166.916)" fill="#fff"/>
        <path id="Path_3653" data-name="Path 3653" d="M295.547,266.353a10.786,10.786,0,0,1,3.383.741,42.517,42.517,0,0,0-4.408,7.414,6.348,6.348,0,0,1-2.266-.009,19.625,19.625,0,0,1-1.547-2.7c.517-.254,1.034-.508,1.551-.758A21.217,21.217,0,0,0,295.547,266.353Z" transform="translate(-190.347 -179.416)" fill="#fff"/>
        <path id="Path_3654" data-name="Path 3654" d="M199.5,273.22a14.161,14.161,0,0,0,3.716,3.974c-.89-.175-1.779-.324-2.673-.456C200.223,275.556,199.868,274.386,199.5,273.22Z" transform="translate(-139.102 -183.277)" fill="#fff"/>
        <path id="Path_3655" data-name="Path 3655" d="M254.42,277.83a10.186,10.186,0,0,1,.561,2.191c-.311.995-1.424,1.3-2.23,1.761C253.245,280.442,253.8,279.118,254.42,277.83Z" transform="translate(-169.02 -185.866)" fill="#fff"/>
        <path id="Path_3656" data-name="Path 3656" d="M279.035,279.255l2.073-.145a28.623,28.623,0,0,0,1.652,3.01,35.517,35.517,0,0,1-8.08,2.493A44.333,44.333,0,0,1,279.035,279.255Z" transform="translate(-181.341 -186.586)" fill="#fff"/>
        <path id="Path_3657" data-name="Path 3657" d="M304.01,280.989c1.867-.894,3.992,1.012,3.751,2.945a2.761,2.761,0,0,1-4.1,2.353,3.039,3.039,0,0,1,.35-5.3m.381.342a2.6,2.6,0,0,0-.569,4.483c1.209,1.043,3.12-.026,3.356-1.464C307.66,282.755,306.091,280.717,304.391,281.331Z" transform="translate(-196.842 -187.514)" fill="#fff"/>
        <path id="Path_3658" data-name="Path 3658" d="M195.14,285.918c.232-1.1-.066-3.435,1.608-3.251,3.115.386,6.323.841,9.131,2.331-.758,1.03-1.573,2.02-2.41,2.989C200.981,286.378,198.028,286.071,195.14,285.918Z" transform="translate(-136.653 -188.578)" fill="#fff"/>
        <path id="Path_3659" data-name="Path 3659" d="M306.19,283.31a17.432,17.432,0,0,1,2.055.337c.622.64-.061,1.367-.267,2.02a3.452,3.452,0,0,1,.359,1.113c-.631-.342-.955-1.06-1.472-1.547-.215.64-.429,1.275-.653,1.91-.048-1.28-.044-2.555-.022-3.834m.53.789c-.513.666.661,1.3,1.073.666C308.306,284.1,307.127,283.468,306.72,284.1Z" transform="translate(-199.035 -188.945)" fill="#fff"/>
        <path id="Path_3660" data-name="Path 3660" d="M233.876,291.429c2.169-1.187,4.605-1.871,6.581-3.409,1.88,1.88,4.636,1.731,7.081,1.7-3.422.78-6.708,2-10.034,3.111a31.041,31.041,0,0,0-4.115,2.576C233.408,294.08,233.175,292.621,233.876,291.429Z" transform="translate(-158.13 -191.592)" fill="#fff"/>
        <path id="Path_3661" data-name="Path 3661" d="M220.09,288.32a18.655,18.655,0,0,1,3.418.841,18.369,18.369,0,0,1,2.068,2.4,23.8,23.8,0,0,0-.443,3.908C223.052,293.4,220.944,291.2,220.09,288.32Z" transform="translate(-150.671 -191.76)" fill="#fff"/>
        <path id="Path_3662" data-name="Path 3662" d="M216.211,290.65a15.723,15.723,0,0,1,3.085,8.54,49.855,49.855,0,0,0-4.859-3.352c-1.183-.609-.57-2.09-.627-3.133C214.634,292.043,215.432,291.355,216.211,290.65Z" transform="translate(-147.081 -193.069)" fill="#fff"/>
        <path id="Path_3663" data-name="Path 3663" d="M236.59,301.3c1.126-.719,2.23-1.468,3.317-2.235a17.117,17.117,0,0,1,5.622,7.059,30.682,30.682,0,0,0-6.91-2.095,13.269,13.269,0,0,1-.2-2.033C237.808,301.769,237.195,301.537,236.59,301.3Z" transform="translate(-159.941 -197.8)" fill="#fff"/>
        <path id="Path_3664" data-name="Path 3664" d="M61.682,339.321c2.239.044,4.483-.075,6.717.057,1.49.074,3.19.841,3.589,2.406.346,1.113-.377,2.09-.911,2.993.745.9,1.643,1.937,1.35,3.212-.219,1.709-1.976,2.673-3.554,2.822-2.4.215-4.807.048-7.212.1.013-3.865-.018-7.725.022-11.585m1.669,1.529c0,1.087,0,2.178,0,3.269,2.055-.087,4.22.333,6.2-.364a1.382,1.382,0,0,0-.088-2.555c-1.963-.644-4.079-.285-6.108-.351m0,4.833q-.007,1.847-.009,3.7c2.147-.1,4.412.342,6.472-.421a1.572,1.572,0,0,0,0-2.888C67.751,345.363,65.5,345.762,63.356,345.683Z" transform="translate(-61.66 -220.41)" fill="#fff"/>
        <path id="Path_3665" data-name="Path 3665" d="M94.53,339.366c3.19-.039,6.384-.013,9.578-.026.013.5.026,1,.039,1.5-2.638.022-5.28.013-7.918.009,0,1.1-.009,2.2-.009,3.295,2.335,0,4.671,0,7-.013,0,.508,0,1.017,0,1.525-2.335,0-4.671,0-7.006,0q.007,1.873,0,3.746,4,0,8.01,0c-.009.508-.013,1.017-.013,1.529-3.225-.009-6.445-.026-9.666.013C94.526,347.078,94.569,343.222,94.53,339.366Z" transform="translate(-80.127 -220.425)" fill="#fff"/>
        <path id="Path_3666" data-name="Path 3666" d="M121.62,339.325c.6,0,1.209-.009,1.818-.009,1.468,2.993,2.918,5.994,4.377,9,1.485-2.966,2.848-5.99,4.259-8.991.627-.013,1.253-.022,1.88-.031-1.854,3.838-3.65,7.7-5.455,11.563-.421.018-.837.031-1.258.053C125.353,347.055,123.509,343.177,121.62,339.325Z" transform="translate(-95.347 -220.396)" fill="#fff"/>
        <path id="Path_3667" data-name="Path 3667" d="M156.25,339.26c3.19,0,6.38,0,9.57,0,0,.5,0,1,.009,1.512-2.629,0-5.258,0-7.887,0,.009,1.091.013,2.182.022,3.273,2.331,0,4.667,0,7,.009-.018.491-.031.986-.044,1.485-2.327.039-4.649.074-6.971.074q.013,1.84.017,3.689h7.975c0,.5,0,1-.009,1.507q-4.837,0-9.679,0Q156.27,345.04,156.25,339.26Z" transform="translate(-114.803 -220.38)" fill="#fff"/>
        <path id="Path_3668" data-name="Path 3668" d="M185.832,339.238c2.484.048,4.982-.14,7.462.1a3.09,3.09,0,0,1,2.927,2.48c.311,1.24-.425,2.327-1.078,3.3,1.192,1.661.99,3.746.973,5.679-.421,0-1.258,0-1.678.009-.219-1.428.561-3.444-.8-4.443-1.941-.723-4.084-.32-6.113-.4q.007,2.419,0,4.837c-.557,0-1.117,0-1.67.013-.057-3.856-.022-7.716-.026-11.572m1.687,1.521q.007,1.84.013,3.689c1.976-.053,4.04.267,5.95-.372a1.638,1.638,0,0,0,.158-3.015C191.659,340.478,189.556,340.824,187.518,340.759Z" transform="translate(-131.419 -220.353)" fill="#fff"/>
        <path id="Path_3669" data-name="Path 3669" d="M218.5,339.229c.416,0,1.249-.009,1.665-.009.044,3.361-.022,6.722.048,10.082q3.6-.026,7.208-.009c0,.5,0,1,0,1.5-2.98,0-5.959.009-8.939-.009C218.512,346.936,218.49,343.081,218.5,339.229Z" transform="translate(-149.772 -220.357)" fill="#fff"/>
        <path id="Path_3670" data-name="Path 3670" d="M235.23,339.2c.767,0,1.534.013,2.3.022,1.472,1.564,3.006,3.067,4.526,4.583q2.294-2.307,4.548-4.64c.749,0,1.494,0,2.243,0-1.569,1.674-3.177,3.3-4.794,4.93-2,1.608-.929,4.421-1.161,6.621-.561,0-1.122.009-1.678.017q-.059-2.734-.022-5.459C239.213,343.24,237.219,341.224,235.23,339.2Z" transform="translate(-159.177 -220.324)" fill="#fff"/>
        <path id="Path_3671" data-name="Path 3671" d="M291.171,338.9c.578.009,1.152.022,1.731.035q0,2.406.018,4.811,3.805,0,7.615,0c.013-1.652.018-3.3.026-4.956.579.026,1.157.048,1.735.074q-.013,5.876,0,11.747c-.587,0-1.165,0-1.748,0q.007-2.662,0-5.324c-2.55,0-5.1,0-7.659.009.013,1.766.013,3.527.013,5.289-.565.009-1.13.022-1.691.035Q291.149,344.762,291.171,338.9Z" transform="translate(-190.602 -220.116)" fill="#fff"/>
        <path id="Path_3672" data-name="Path 3672" d="M326.29,338.868c.574-.009,1.152-.013,1.731-.018v11.8c-.578,0-1.157-.013-1.731-.018Q326.3,344.754,326.29,338.868Z" transform="translate(-210.337 -220.149)" fill="#fff"/>
        <path id="Path_3673" data-name="Path 3673" d="M339.888,338.864c.565,0,1.135,0,1.7,0q-.007,5.113,0,10.227h7.432c-.009.517-.018,1.034-.022,1.556q-4.555.013-9.11,0Q339.888,344.753,339.888,338.864Z" transform="translate(-217.975 -220.155)" fill="#fff"/>
        <path id="Path_3674" data-name="Path 3674" d="M367.667,338.81q.842.027,1.683.066c-.009,3.391.066,6.787.044,10.183,2.454,0,4.912,0,7.366,0,0,.5,0,1.008.013,1.516-3.041-.013-6.082.013-9.123-.022C367.681,346.636,367.654,342.723,367.667,338.81Z" transform="translate(-233.574 -220.127)" fill="#fff"/>
        <path id="Path_3675" data-name="Path 3675" d="M395.671,339.021a8.915,8.915,0,0,1,6.629.206c1.363.649,1.691,2.222,2.047,3.545-.412.017-1.227.057-1.639.079-.412-.951-.6-2.331-1.818-2.555a7.579,7.579,0,0,0-4.544.224,1.25,1.25,0,0,0-.21,2.226c2.257,1.056,4.965.745,7.12,2.073a2.852,2.852,0,0,1,.127,4.539,7.614,7.614,0,0,1-4.982,1.117,5.934,5.934,0,0,1-4.08-1.538c-.828-.881-.789-2.178-1.021-3.286.416-.009,1.258-.022,1.678-.031.3,1.03.337,2.419,1.521,2.857a7.081,7.081,0,0,0,5.183.044,1.453,1.453,0,0,0,.688-2.327c-2.379-1.3-5.438-.806-7.655-2.471A2.83,2.83,0,0,1,395.671,339.021Z" transform="translate(-247.985 -219.943)" fill="#fff"/>
        <path id="Path_3676" data-name="Path 3676" d="M99.344,385.175c2.739.127,5.543-.315,8.233.306a3.212,3.212,0,0,1,1.06,5.526c-2.182,1.555-5.043.885-7.541,1.021-.013,1.569-.013,3.137-.009,4.71q-.874-.006-1.748,0,.013-5.783,0-11.563m1.74,1.52v3.781c2.029-.114,4.206.381,6.13-.429a1.709,1.709,0,0,0-.25-3.08C105.054,386.441,103.038,386.756,101.084,386.695Z" transform="translate(-82.83 -246.156)" fill="#fff"/>
        <path id="Path_3677" data-name="Path 3677" d="M135.557,385.447c2.143-.337,4.552-.276,6.384,1.03,3.212,2.274,2.8,7.979-.78,9.7a8.464,8.464,0,0,1-7.764-.293c-2.353-1.472-2.9-4.684-2.007-7.151a5.47,5.47,0,0,1,4.167-3.282m-.061,1.639a4.092,4.092,0,0,0-2.695,5.065c.872,4.347,8.369,4.456,9.447.193a4.313,4.313,0,0,0-1.468-4.7A6.66,6.66,0,0,0,135.5,387.086Z" transform="translate(-100.609 -246.231)" fill="#fff"/>
        <path id="Path_3678" data-name="Path 3678" d="M169.659,385.21c.561,0,1.126,0,1.687.009,0,3.347-.009,6.7,0,10.047,2.432,0,4.864,0,7.3,0,.013.372.039,1.117.053,1.49-3.015.026-6.034.017-9.048.009C169.663,392.909,169.654,389.062,169.659,385.21Z" transform="translate(-122.332 -246.195)" fill="#fff"/>
        <path id="Path_3679" data-name="Path 3679" d="M199.672,385.457c2.222-.364,4.75-.281,6.595,1.174,3.036,2.375,2.515,7.918-1.021,9.574a8.356,8.356,0,0,1-7.979-.5c-2.086-1.486-2.533-4.373-1.853-6.7a5.452,5.452,0,0,1,4.259-3.545m-.079,1.639c-3.321.815-3.694,5.955-.885,7.6a6.391,6.391,0,0,0,5.6.193c2.739-1.223,3.058-5.631.565-7.265A6.709,6.709,0,0,0,199.593,387.1Z" transform="translate(-136.641 -246.232)" fill="#fff"/>
        <path id="Path_3680" data-name="Path 3680" d="M257.073,385.91a7.728,7.728,0,0,1,9.71,1.437c-.469.289-.933.578-1.4.872a5.8,5.8,0,0,0-7.637-.767,4.436,4.436,0,0,0,.517,7.054,5.835,5.835,0,0,0,6.984-1.218c.473.289.947.578,1.424.876a7.789,7.789,0,0,1-9.578,1.534C253.66,393.683,253.708,387.965,257.073,385.91Z" transform="translate(-170.022 -245.971)" fill="#fff"/>
        <path id="Path_3681" data-name="Path 3681" d="M290.609,385.208l1.687-.018c.017,3.361-.026,6.717.031,10.078q3.628-.026,7.26,0c-.017.5-.031.995-.044,1.5-2.98-.013-5.964,0-8.943-.018C290.631,392.9,290.613,389.055,290.609,385.208Z" transform="translate(-190.285 -246.184)" fill="#fff"/>
        <path id="Path_3682" data-name="Path 3682" d="M317.911,385.2l1.678-.013c.092,2.726-.236,5.482.18,8.185.4,1.867,2.673,2.134,4.246,1.963,1.336-.044,2.822-.924,2.848-2.4.145-2.59-.018-5.188.07-7.778.425,0,1.28.022,1.709.031-.061,2.743.167,5.5-.127,8.242A3.886,3.886,0,0,1,325,396.758c-1.963.237-4.255.294-5.823-1.1a4.207,4.207,0,0,1-1.24-3.106C317.784,390.1,317.9,387.649,317.911,385.2Z" transform="translate(-205.599 -246.168)" fill="#fff"/>
        <path id="Path_3683" data-name="Path 3683" d="M351.83,385.2c2.375.04,4.754-.1,7.125.057,1.582.066,3.3,1.2,3.335,2.909.11.938-.57,1.683-1,2.445.644.824,1.507,1.669,1.389,2.817.07,1.84-1.735,3.041-3.387,3.225-2.475.232-4.964.035-7.44.1-.031-3.851-.009-7.7-.017-11.555m1.687,1.516q0,1.63.009,3.269c2.011-.061,4.088.254,6.051-.3a1.41,1.41,0,0,0,.079-2.669c-1.99-.574-4.1-.223-6.139-.3m0,4.833v3.694c2.125-.083,4.351.315,6.406-.368a1.589,1.589,0,0,0,.061-2.958C357.916,391.22,355.664,391.654,353.521,391.553Z" transform="translate(-224.686 -246.181)" fill="#fff"/>
      </g>
    </g>
  </g>
</svg>
