<svg xmlns="http://www.w3.org/2000/svg" xmlns:xlink="http://www.w3.org/1999/xlink" width="500" height="500" viewBox="0 0 500 500">
  <defs>
    <clipPath id="clip-Claires_Active">
      <rect width="500" height="500"/>
    </clipPath>
  </defs>
  <g id="Claires_Active" clip-path="url(#clip-Claires_Active)">
    <rect width="500" height="500" fill="#fff"/>
    <g id="Group_5879" data-name="Group 5879" transform="translate(68 68)">
      <rect id="Rectangle_1614" data-name="Rectangle 1614" width="364" height="364" rx="9" fill="#d19130"/>
      <g id="claires-logo-desktop" transform="translate(48.824 118.805)">
        <path id="Logo-2" d="M36.245,35.537a15.334,15.334,0,0,0-8.133-2.92,10.279,10.279,0,0,0-10.636,10.01v.417a10.375,10.375,0,0,0,10.01,10.428h.834a12.272,12.272,0,0,0,7.716-2.92V63.065a24.757,24.757,0,0,1-10.845,2.294c-12.93,0-23.775-9.385-23.775-22.106,0-13.556,10.845-22.941,24.4-22.941a21.777,21.777,0,0,1,10.219,2.5C36.245,22.815,36.245,35.537,36.245,35.537ZM56.475,63.9H41.042V1.751H56.475Zm29.2-30.657A9.485,9.485,0,0,1,95.682,42v.834a9.3,9.3,0,0,1-8.968,9.593H85.672a9.3,9.3,0,0,1-10.01-8.342V43.044a9.476,9.476,0,0,1,9.176-9.593c.209-.209.417-.209.834-.209Zm24.818-11.47H95.056v3.962A18.4,18.4,0,0,0,81.5,20.312,21.852,21.852,0,0,0,59.6,42v.626A22.082,22.082,0,0,0,81.083,65.151H81.5c5.005,0,10.428-1.877,13.139-6.257h.209v4.588h15.433l.209-41.71ZM131.97,63.9H116.537V21.772H131.97ZM132.8,9.676a8.661,8.661,0,0,1-17.31,0,8.519,8.519,0,0,1,9.176-8.133A8.919,8.919,0,0,1,132.8,9.676Zm20.438,18.978h0c3.128-4.8,8.551-7.925,14.181-7.508h2.92v14.39a14.244,14.244,0,0,0-6.674-1.46c-8.551,0-10.845,5.422-10.845,12.722V63.691H137.392V21.772h15.433l.417,6.882Zm33.785,8.133c1.46-4.8,6.882-7.925,11.679-6.257a9.4,9.4,0,0,1,6.257,6.257Zm32.534,7.091c0-14.39-8.759-23.358-23.983-23.358-14.181,0-24.192,8.551-24.192,22.523,0,14.6,10.845,22.523,25.235,22.523,10.01,0,19.812-4.38,22.315-14.39H204.129a8,8,0,0,1-7.508,3.754c-6.465,0-9.8-3.128-9.8-9.385h32.743V43.879ZM240.834,4.462,227.278,29.28h-10.01l9.176-24.818Zm16.475,28.154a22.353,22.353,0,0,0-8.342-2.086c-1.668,0-4.8.834-4.8,2.92,0,2.92,4.8,3.128,7.091,3.545,7.3,1.251,12.722,4.588,12.722,12.513,0,11.053-10.428,15.641-20.647,15.641a34.014,34.014,0,0,1-17.518-4.8l5.422-10.428a25.505,25.505,0,0,0,12.3,4.171c1.877,0,4.8-.834,4.8-3.128,0-3.337-4.8-3.337-9.8-4.588-4.8-1.251-9.8-3.545-9.8-11.053,0-10.428,9.8-14.807,19.4-14.807a38.306,38.306,0,0,1,14.39,2.711Zm7.3-7.508a1.893,1.893,0,0,1,1.46.626,1.778,1.778,0,0,1,0,2.711h0a2.016,2.016,0,0,1-2.92,0,1.893,1.893,0,0,1-.626-1.46,2.253,2.253,0,0,1,.626-1.46,1.76,1.76,0,0,1,1.46-.417Zm2.294,1.877a2.368,2.368,0,0,0-.626-1.668,2.534,2.534,0,0,0-3.337,0,2.538,2.538,0,0,0,0,3.337,2.534,2.534,0,0,0,3.337,0,2.368,2.368,0,0,0,.626-1.668Zm-1.668-.417c0,.209,0,.417-.209.417h-.834V25.943h1.043v.626Zm-1.668-.834v2.5h.417V27.195h.834a.766.766,0,0,1,.209.626v.209h.417V27.4c0-.209,0-.209-.209-.417s-.209-.209-.417-.209c.209,0,.209,0,.417-.209.209,0,.209-.209.209-.417s-.209-.626-.417-.626-.417-.209-.626,0l-.834.209ZM1,.5" transform="translate(-1 -0.5)" fill="#fefefe"/>
        <g id="Group_945" data-name="Group 945" transform="translate(2.086 67.988)">
          <path id="Path_3545" data-name="Path 3545" d="M5.337,34.543l5.422,13.973L16.6,33.5l5.422,15.016,5.631-13.973h3.337L21.6,56.858,16.6,42.051,11.176,56.858,2,34.543Z" transform="translate(-2 -32.666)" fill="#fefefe"/>
          <path id="Path_3546" data-name="Path 3546" d="M28.722,45.316H19.128a3.454,3.454,0,0,0,1.043,2.5,3.136,3.136,0,0,0,2.294.834,2.549,2.549,0,0,0,1.877-.626,17.059,17.059,0,0,0,1.668-1.877l2.5,1.46a11.568,11.568,0,0,1-1.251,1.668A9.069,9.069,0,0,1,25.8,50.53a3.982,3.982,0,0,1-1.668.626,5.774,5.774,0,0,1-1.877.209,5.823,5.823,0,0,1-4.588-1.877A6.649,6.649,0,0,1,16,44.482a7.61,7.61,0,0,1,1.668-5.005A6.132,6.132,0,0,1,22.257,37.6a6.132,6.132,0,0,1,4.588,1.877,7.61,7.61,0,0,1,1.668,5.005v.834Zm-3.337-2.5a2.957,2.957,0,0,0-3.128-2.5,1.88,1.88,0,0,0-1.043.209c-.417.209-.626.209-.834.417a2.88,2.88,0,0,0-.626.834,1.593,1.593,0,0,0-.417,1.043Z" transform="translate(13.197 -28.215)" fill="#fefefe"/>
          <path id="Path_3547" data-name="Path 3547" d="M27.7,55.823,32.08,33.3l7.3,16.267L46.887,33.3l3.962,22.523H47.721L45.635,43.1,39.379,56.658,33.122,43.31,30.828,56.032H27.7Z" transform="translate(25.898 -32.883)" fill="#fefefe"/>
          <path id="Path_3548" data-name="Path 3548" d="M50.51,37.909h2.92V51.047H50.51v-1.46a5.212,5.212,0,0,1-3.962,1.668,5.386,5.386,0,0,1-4.38-1.877A6.649,6.649,0,0,1,40.5,44.374a7.436,7.436,0,0,1,1.668-4.8,6,6,0,0,1,4.38-1.877,5.9,5.9,0,0,1,4.171,1.877v-1.46H50.51ZM43,44.582a5.122,5.122,0,0,0,1.043,3.128,2.973,2.973,0,0,0,2.5,1.251,3.363,3.363,0,0,0,2.711-1.251,4.983,4.983,0,0,0,1.043-2.92,4.126,4.126,0,0,0-1.043-2.92,3.363,3.363,0,0,0-2.711-1.251,2.973,2.973,0,0,0-2.5,1.251A3.018,3.018,0,0,0,43,44.582Z" transform="translate(39.792 -28.107)" fill="#fefefe"/>
          <path id="Path_3549" data-name="Path 3549" d="M51.411,33.1V47.073L55.582,42.9h4.171l-5.631,5.422,6.257,7.716H56.416l-4.38-5.422-.417.417v5.005H48.7V33.1Z" transform="translate(48.693 -33.1)" fill="#fefefe"/>
          <path id="Path_3550" data-name="Path 3550" d="M67.322,45.316H57.728a3.454,3.454,0,0,0,1.043,2.5,3.136,3.136,0,0,0,2.294.834,2.549,2.549,0,0,0,1.877-.626,17.059,17.059,0,0,0,1.668-1.877l2.5,1.46a11.567,11.567,0,0,1-1.251,1.668A9.071,9.071,0,0,1,64.4,50.53a3.982,3.982,0,0,1-1.668.626,6.976,6.976,0,0,1-6.465-1.668A6.648,6.648,0,0,1,54.6,44.482a7.61,7.61,0,0,1,1.668-5.005,6.546,6.546,0,0,1,9.176,0,7.61,7.61,0,0,1,1.668,5.005v.834Zm-3.128-2.5a2.957,2.957,0,0,0-3.128-2.5,1.88,1.88,0,0,0-1.043.209,1.6,1.6,0,0,0-.626.417,2.879,2.879,0,0,0-.626.834,1.593,1.593,0,0,0-.417,1.043Z" transform="translate(55.098 -28.215)" fill="#fefefe"/>
          <path id="Path_3551" data-name="Path 3551" d="M66.4,55.823,70.78,33.3l7.3,16.267L85.587,33.3l3.962,22.523H86.421L84.335,43.1,78.079,56.658,71.822,43.31,69.737,56.032H66.609v-.209Z" transform="translate(67.907 -32.883)" fill="#fefefe"/>
          <path id="Path_3552" data-name="Path 3552" d="M91.722,45.316H82.128a3.454,3.454,0,0,0,1.043,2.5,3.136,3.136,0,0,0,2.294.834,2.55,2.55,0,0,0,1.877-.626,17.069,17.069,0,0,0,1.668-1.877l2.5,1.46a11.567,11.567,0,0,1-1.251,1.668A9.07,9.07,0,0,1,88.8,50.53a3.982,3.982,0,0,1-1.668.626,6.977,6.977,0,0,1-6.465-1.668A6.649,6.649,0,0,1,79,44.482a7.61,7.61,0,0,1,1.668-5.005A5.823,5.823,0,0,1,85.257,37.6a6.132,6.132,0,0,1,4.588,1.877,7.61,7.61,0,0,1,1.668,5.005v.834Zm-3.337-2.5a2.957,2.957,0,0,0-3.128-2.5,1.88,1.88,0,0,0-1.043.209c-.417.209-.626.209-.834.417a2.879,2.879,0,0,0-.626.834,1.592,1.592,0,0,0-.417,1.043Z" transform="translate(81.584 -28.215)" fill="#fefefe"/>
          <path id="Path_3553" data-name="Path 3553" d="M86.7,38.017h2.92v1.251a6.656,6.656,0,0,1,1.46-1.251,3.929,3.929,0,0,1,1.669-.417,4.1,4.1,0,0,1,3.545,1.877,4.737,4.737,0,0,1,3.754-1.877c2.92,0,4.38,1.877,4.38,5.422v8.342h-2.92V43.857a8.169,8.169,0,0,0-.417-2.711,1.574,1.574,0,0,0-1.46-.834,2.033,2.033,0,0,0-1.877.834,5.523,5.523,0,0,0-.626,2.92v6.882h-2.92v-7.3c0-2.294-.626-3.545-2.086-3.545a2.19,2.19,0,0,0-1.877,1.043,5.523,5.523,0,0,0-.626,2.92v6.882H86.7S86.7,38.017,86.7,38.017Z" transform="translate(89.943 -28.215)" fill="#fefefe"/>
          <path id="Path_3554" data-name="Path 3554" d="M96.9,44.474a6.04,6.04,0,0,1,2.086-4.8,7.2,7.2,0,0,1,12.1,5.005,6.04,6.04,0,0,1-2.085,4.8,6.765,6.765,0,0,1-5.005,1.877,6.039,6.039,0,0,1-4.8-2.086A6.235,6.235,0,0,1,96.9,44.474Zm3.128,0a5.123,5.123,0,0,0,1.043,3.128,3.5,3.5,0,0,0,2.92,1.251A3.6,3.6,0,0,0,106.7,47.81a4.693,4.693,0,0,0,1.043-3.128,5.123,5.123,0,0,0-1.043-3.128,3.363,3.363,0,0,0-2.711-1.251,3.1,3.1,0,0,0-2.711,1.251C100.445,41.971,100.028,43.014,100.028,44.474Z" transform="translate(101.015 -27.998)" fill="#fefefe"/>
          <path id="Path_3555" data-name="Path 3555" d="M105.309,38.017h2.92v1.251a6.653,6.653,0,0,1,1.46-1.251,3.866,3.866,0,0,1,1.46-.417,4.008,4.008,0,0,1,2.5.834l-1.46,2.711a2.774,2.774,0,0,0-1.669-.626q-2.5,0-2.5,3.754v6.882H105.1V38.017Z" transform="translate(109.916 -28.215)" fill="#fefefe"/>
          <path id="Path_3556" data-name="Path 3556" d="M110.2,36.286a2.138,2.138,0,1,1,.626,1.46A1.893,1.893,0,0,1,110.2,36.286Zm3.337,5.422V54.847h-2.92V41.708Z" transform="translate(115.452 -31.906)" fill="#fefefe"/>
          <path id="Path_3557" data-name="Path 3557" d="M125.8,45.316h-9.176a3.453,3.453,0,0,0,1.043,2.5,3.136,3.136,0,0,0,2.294.834,2.549,2.549,0,0,0,1.877-.626,17.049,17.049,0,0,0,1.668-1.877l2.5,1.46a11.567,11.567,0,0,1-1.251,1.668,9.072,9.072,0,0,1-1.46,1.251,3.982,3.982,0,0,1-1.668.626,6.976,6.976,0,0,1-6.465-1.668,6.649,6.649,0,0,1-1.668-5.005,7.61,7.61,0,0,1,1.668-5.005,5.823,5.823,0,0,1,4.588-1.877,6.132,6.132,0,0,1,4.588,1.877,7.61,7.61,0,0,1,1.668,5.005Zm-2.92-2.5a2.957,2.957,0,0,0-3.128-2.5,1.88,1.88,0,0,0-1.043.209c-.417.209-.626.209-.834.417a2.882,2.882,0,0,0-.626.834,1.593,1.593,0,0,0-.417,1.043Z" transform="translate(119.034 -28.215)" fill="#fefefe"/>
          <path id="Path_3558" data-name="Path 3558" d="M129.151,40.311l-2.5,1.251c-.417-.834-.834-1.251-1.46-1.251a.737.737,0,0,0-.834.834c0,.417.626,1.043,1.668,1.46a6.689,6.689,0,0,1,3.128,1.877,3.136,3.136,0,0,1,.834,2.294,3.752,3.752,0,0,1-1.46,3.128,4.736,4.736,0,0,1-3.337,1.251,4.687,4.687,0,0,1-4.588-3.128l2.5-1.251a12.354,12.354,0,0,0,.834,1.251,1.532,1.532,0,0,0,1.251.417c1.043,0,1.46-.417,1.46-1.46,0-.626-.417-1.043-1.251-1.46-.209-.209-.626-.209-.834-.417s-.626-.209-.834-.417a7.278,7.278,0,0,1-1.877-1.251,3.524,3.524,0,0,1-.626-2.086,3.363,3.363,0,0,1,1.251-2.711A3.632,3.632,0,0,1,125.4,37.6,3.919,3.919,0,0,1,129.151,40.311Z" transform="translate(126.741 -28.215)" fill="#fefefe"/>
          <path id="Path_3559" data-name="Path 3559" d="M125.643,37.117v2.711h-.417V37.117H124.6V36.7h1.877v.417Z" transform="translate(131.083 -29.192)" fill="#fefefe"/>
          <path id="Path_3560" data-name="Path 3560" d="M125.7,39.937l.626-3.337,1.043,2.5,1.043-2.5.626,3.337h-.417l-.208-1.877-.834,2.086-.834-2.086-.417,1.877Z" transform="translate(132.277 -29.301)" fill="#fefefe"/>
        </g>
      </g>
      <text id="Add_Note" data-name="Add Note" transform="translate(165.489 288.225)" fill="#fefefe" font-size="54" font-family="Roboto-Bold, Roboto" font-weight="700"><tspan x="-117.281" y="0">Our Picks</tspan></text>
    </g>
  </g>
</svg>
