<svg xmlns="http://www.w3.org/2000/svg" xmlns:xlink="http://www.w3.org/1999/xlink" width="500" height="500" viewBox="0 0 500 500">
  <defs>
    <clipPath id="clip-Dune">
      <rect width="500" height="500"/>
    </clipPath>
  </defs>
  <g id="Dune" clip-path="url(#clip-Dune)">
    <rect width="500" height="500" fill="#fff"/>
    <g id="Group_5891" data-name="Group 5891">
      <g id="Rectangle_1614" data-name="Rectangle 1614" transform="translate(69 69)" fill="none" stroke="#191919" stroke-width="1">
        <rect width="363" height="363" rx="9" stroke="none"/>
        <rect x="0.5" y="0.5" width="362" height="362" rx="8.5" fill="none"/>
      </g>
      <text id="Add_Note" data-name="Add Note" transform="translate(251.369 334.986)" fill="#191919" font-size="54" font-family="Roboto-Bold, Roboto" font-weight="700"><tspan x="-117.281" y="0">Our Picks</tspan></text>
      <g id="_191919ff" data-name="#191919ff" transform="translate(97 180)">
        <path id="Path_5160" data-name="Path 5160" d="M0,0H47.023c2.7.334,5.424.136,8.131.331,4.4.183,8.957.451,12.972,2.446A28.8,28.8,0,0,1,81.7,14.747,30.956,30.956,0,0,1,80.6,47.2a29.5,29.5,0,0,1-15.182,11.27A34.329,34.329,0,0,1,57.89,59.7c-6.89.451-13.8.4-20.7.432q-18.593.009-37.19,0V52.186c2.657-.072,5.374.233,7.974-.444a4.075,4.075,0,0,0,3.114-2.78,27.52,27.52,0,0,0,.388-4.233c.35-10.5.139-21,.224-31.5-.054-.807.129-1.749-.463-2.4-1.009-1.251-2.26-2.591-3.987-2.666C4.838,7.961,2.417,8.1,0,8.068V0M33.742,8.075c.057,14.709.013,29.418.019,44.127a55.157,55.157,0,0,0,7.5-.309A22.825,22.825,0,0,0,54.426,45.6a21.344,21.344,0,0,0,6.307-14.7,22.564,22.564,0,0,0-4.7-14.463,21.236,21.236,0,0,0-11.362-7.52A41.83,41.83,0,0,0,33.742,8.075Z" fill="#191919"/>
        <path id="Path_5161" data-name="Path 5161" d="M797.443,54.969a36.886,36.886,0,0,1,36.594,2.361c4.148,2.95,7.684,7.082,9.023,12.077a22.85,22.85,0,0,1,.517,6.808c-12.862-.025-25.724.038-38.586-.032-.353,3.416,1.286,6.694,3.59,9.115,3.467,3.353,9.124,4.485,13.454,2.153a15,15,0,0,0,5.547-5.44c.5-.879,1.677-.618,2.528-.772a66.539,66.539,0,0,1,11.753.281,25.333,25.333,0,0,1-11.734,11.2,37.574,37.574,0,0,1-19.222,3.5,34.655,34.655,0,0,1-17.586-6.083,22.554,22.554,0,0,1-8.254-10.678A17.439,17.439,0,0,1,786,66.249a25.431,25.431,0,0,1,11.447-11.28m14.693,3.716c-2.726.715-5.443,2.364-6.574,5.052-.725,1.607-.548,3.4-.574,5.112,5.931.009,11.863.025,17.8-.006-.047-1.7.117-3.464-.523-5.074a7.217,7.217,0,0,0-3.287-3.672A9.581,9.581,0,0,0,812.136,58.685Z" transform="translate(-537.029 -35.06)" fill="#191919"/>
        <path id="Path_5162" data-name="Path 5162" d="M571.492,55.9a27.724,27.724,0,0,1,24.416-1.951c3.423,1.393,6.716,3.618,8.484,6.953a10.075,10.075,0,0,1,1.223,4.624c.258,5.471.1,10.952.189,16.427a17.568,17.568,0,0,0,.372,4.283,2.9,2.9,0,0,0,2.055,1.708c2.172.646,4.469.444,6.707.432.044,2.461.025,4.923.013,7.381-11.545-.085-23.092-.148-34.637-.312-.1-2.348-.29-4.69-.337-7.038,1.727-.016,3.669.214,5.147-.9a3.863,3.863,0,0,0,1.459-3.063c.224-2.827.135-5.667.158-8.5a66.631,66.631,0,0,0-.309-8.207,8.524,8.524,0,0,0-3.079-5.654,9.775,9.775,0,0,0-13.19,1.317c-1.072,1.176-1.053,2.859-1.131,4.352-.095,4.305-.054,8.617-.035,12.925a22.975,22.975,0,0,0,.574,5.894,2.263,2.263,0,0,0,1.822,1.689,31.456,31.456,0,0,0,4.936.11c0,2.458,0,4.917.006,7.378q-17.78-.047-35.563-.009c-.019-2.452-.05-4.91.025-7.362,2.38,0,4.951.284,7.123-.908,1.276-.712,1.245-2.348,1.327-3.621.221-6.628.177-13.269-.208-19.89-.135-.87.016-2.137-1.05-2.452-2.2-.819-4.6-.744-6.912-.977-.123-2.354-.23-4.709-.366-7.06,9-.025,18.012,0,27.016-.013.044,1.68-.189,3.429.463,5.03C569.4,57.776,570.295,56.644,571.492,55.9Z" transform="translate(-370.296 -35.61)" fill="#191919"/>
        <path id="Path_5163" data-name="Path 5163" d="M291.863,56.659c9.2-.019,18.393,0,27.59-.009.035,10.274-.016,20.549.022,30.823a18,18,0,0,0,3.952,3.316,9.805,9.805,0,0,0,10.627-.69,7.993,7.993,0,0,0,2.837-5.708,111.29,111.29,0,0,0,.321-12.515c-.088-2.036.047-4.167-.725-6.1a3.061,3.061,0,0,0-2.7-1.727c-1.945-.24-3.908-.214-5.862-.344-.091-2.348-.192-4.7-.186-7.047q14.253-.028,28.507,0c.035,8.859-.038,17.719.05,26.578a32.726,32.726,0,0,0,.35,5.556,3.5,3.5,0,0,0,3.029,2.66,34.366,34.366,0,0,0,5.128.11c.05,2.465.031,4.929.013,7.394-8.985-.066-17.974-.028-26.963-.019-.019-1.825,0-3.65-.013-5.474a42.9,42.9,0,0,1-5.815,4.047,22.566,22.566,0,0,1-10.189,2.272,33.966,33.966,0,0,1-11.006-1.116,19.392,19.392,0,0,1-8.251-5.323c-1.831-1.948-2.31-4.7-2.512-7.268-.372-5.04-.1-10.1-.334-15.141a33.069,33.069,0,0,0-.448-5.528,2,2,0,0,0-1.815-1.273A51.994,51.994,0,0,0,291.866,64C291.85,61.554,291.853,59.1,291.863,56.659Z" transform="translate(-199.872 -38.795)" fill="#191919"/>
        <path id="Path_5164" data-name="Path 5164" d="M264.958,238.079q1.016-.019,2.036,0c.041,3.7,0,7.41.022,11.116,2.02.016,4.04-.013,6.058.016.009.46.013.923.016,1.387a59.452,59.452,0,0,1-8.037-.076,12.909,12.909,0,0,1-.158-3.019C264.936,244.361,264.832,241.219,264.958,238.079Z" transform="translate(-181.401 -163.038)" fill="#191919"/>
        <path id="Path_5165" data-name="Path 5165" d="M336.719,237.764a9.771,9.771,0,0,1,7.05.923,5.719,5.719,0,0,1,2.3,4.961,6.342,6.342,0,0,1-2.2,5.361c-1.872,1.428-4.368,1.6-6.628,1.355a5.765,5.765,0,0,1-4.709-2.931,8.292,8.292,0,0,1-.2-6.171,5.894,5.894,0,0,1,4.378-3.5m.949,1.3a4.177,4.177,0,0,0-3.435,3.442,6.738,6.738,0,0,0,.788,4.958c1.018,1.355,2.855,1.642,4.444,1.529a4.4,4.4,0,0,0,3.659-1.97,6.72,6.72,0,0,0,.674-4,4.357,4.357,0,0,0-1.51-3.133A6.081,6.081,0,0,0,337.667,239.06Z" transform="translate(-227.255 -162.657)" fill="#191919"/>
        <path id="Path_5166" data-name="Path 5166" d="M423.842,238.334c1.109-.637,2.966-.589,3.681.652,2.083,2.994,4.04,6.08,6.149,9.055.107-3.344-.013-6.691.06-10.035q1.007-.028,2.023-.013c.123,3.87.073,7.744.047,11.614.139,1.078-1.128,1.094-1.869.98-1.094-.082-1.629-1.166-2.2-1.951-1.941-2.953-4.028-5.812-5.887-8.815.054,3.59.088,7.186,0,10.779-.684.006-1.362,0-2.042-.009C423.788,246.507,423.694,242.412,423.842,238.334Z" transform="translate(-290.204 -162.943)" fill="#191919"/>
        <path id="Path_5167" data-name="Path 5167" d="M512.092,238.147c2.969-.016,6.19-.46,8.916,1.009,3.741,1.967,3.75,8.138.186,10.281-2.383,1.431-5.279,1.2-7.942,1.248-.671.009-1.891.038-1.683-.971.022-3.773-.085-7.551.054-11.321.117-.06.353-.183.47-.246m1.6,1.3c0,3.278.006,6.552,0,9.83,2.285-.079,5.03.306,6.77-1.529,1.752-2.118,1.588-5.988-.939-7.457C517.771,239.215,515.644,239.533,513.693,239.448Z" transform="translate(-350.323 -163.039)" fill="#191919"/>
        <path id="Path_5168" data-name="Path 5168" d="M598.935,237.778a9.749,9.749,0,0,1,7.1.892,5.389,5.389,0,0,1,2.285,4.031,6.85,6.85,0,0,1-2.033,6.2,8.761,8.761,0,0,1-6.193,1.513,6.317,6.317,0,0,1-4.825-2.269,7.873,7.873,0,0,1-.883-6.121,5.8,5.8,0,0,1,4.551-4.248m.949,1.3a4.138,4.138,0,0,0-3.1,2.54,7.717,7.717,0,0,0-.186,4.286,3.783,3.783,0,0,0,2.792,2.9c2.08.489,4.753.252,5.995-1.727a6.717,6.717,0,0,0,.041-6.234C604.3,238.969,601.829,238.724,599.884,239.073Z" transform="translate(-406.891 -162.652)" fill="#191919"/>
        <path id="Path_5169" data-name="Path 5169" d="M686.267,238.212c1.182-.29,2.824-.454,3.533.782q3.148,4.6,6.215,9.25c.031-3.4-.072-6.8.044-10.205.674-.006,1.355,0,2.036.016.085,3.867.041,7.737.035,11.608.161.968-.968,1.1-1.667,1-.945.041-1.582-.741-2.058-1.447-2.055-3.054-4.138-6.092-6.193-9.149-.057,3.524.035,7.047-.041,10.574q-1.016.019-2.027.009c-.082-3.375,0-6.748-.044-10.123A7.992,7.992,0,0,1,686.267,238.212Z" transform="translate(-469.86 -162.994)" fill="#191919"/>
      </g>
    </g>
  </g>
</svg>
