<svg xmlns="http://www.w3.org/2000/svg" xmlns:xlink="http://www.w3.org/1999/xlink" width="500" height="500" viewBox="0 0 500 500">
  <defs>
    <clipPath id="clip-Electronics_Active">
      <rect width="500" height="500"/>
    </clipPath>
  </defs>
  <g id="Electronics_Active" clip-path="url(#clip-Electronics_Active)">
    <rect width="500" height="500" fill="#fff"/>
    <g id="Group_1102" data-name="Group 1102" transform="translate(67.775 68)">
      <rect id="Rectangle_1612" data-name="Rectangle 1612" width="364" height="364" rx="9" transform="translate(0.225)" fill="#d19130"/>
      <text id="Add_Note" data-name="Add Note" transform="translate(182.225 291.663)" fill="#fff" font-size="38" font-family="Roboto-Bold, Roboto" font-weight="700"><tspan x="-95.019" y="0">Electronics</tspan></text>
      <g id="_000000ff" data-name="#000000ff" transform="translate(96.22 45.235)">
        <path id="Path_5133" data-name="Path 5133" d="M62.2,21.612A19.541,19.541,0,0,1,75.936,16q22.1,0,44.205,0a19.591,19.591,0,0,1,19.5,19.374q.011,9.13,0,18.256a13.72,13.72,0,0,0,13.353,13.8c5.122.018,10.244,0,15.37.007a35.192,35.192,0,0,1,7.285.384,19.58,19.58,0,0,1-3.277,38.769c-10.237.04-20.47-.018-30.7.029-6.375.241-11.8,5.411-13.291,11.457-.614,1.965-.391,4.041-.424,6.068A13.7,13.7,0,0,0,141.3,137.862c2.919.04,5.838-.044,8.753.04a19.591,19.591,0,0,1,14.511,7.617,19.18,19.18,0,0,1,3.989,10.726c1.845.088,3.763-.124,5.52.592a8.585,8.585,0,0,1,5.593,7.847c.015,3.058.048,6.119-.015,9.177a3.4,3.4,0,0,1-3.489,2.948q.033,5.628,0,11.26a3.374,3.374,0,0,1-3.394,3.284q-6.8.011-13.583,0a3.353,3.353,0,0,1-3.452-3.266c-.037-3.763-.011-7.526-.011-11.285a3.373,3.373,0,0,1-3.489-2.952c-.069-2.082,0-4.168-.029-6.251.029-1.834-.161-3.73.482-5.487a8.486,8.486,0,0,1,5.491-5.4,15.07,15.07,0,0,1,4.859-.431,13.519,13.519,0,0,0-14.4-12.567c-3.975-.11-8.063.416-11.925-.8a19.641,19.641,0,0,1-13.433-14c-.778-2.868-.57-5.86-.585-8.8a19.575,19.575,0,0,1,19.348-19.355q14.993-.016,29.983-.007a13.587,13.587,0,0,0-.029-27.174c-6.331-.015-12.659.007-18.986-.011A19.579,19.579,0,0,1,133.8,54.35q-.011-7.858,0-15.72a24.45,24.45,0,0,0-.457-6.572,13.764,13.764,0,0,0-8.856-9.491,14.645,14.645,0,0,0-5.071-.727c-14.624.018-29.252-.007-43.88.011-6.781.088-12.7,6.054-13.017,12.776-.073,4.8-.007,9.6-.033,14.394q9.1.016,18.19,0a18.415,18.415,0,0,1,12.195,4.855,24.161,24.161,0,0,1,7.57,14.741,368.821,368.821,0,0,1-.033,88.758c-1.052,7.621-5.8,15-13.05,18.011a17.669,17.669,0,0,1-7.051,1.359q-19.18-.005-38.364,0c-2.835-.018-5.736.175-8.49-.665-7.979-2.258-13.605-9.893-14.679-17.938a370.71,370.71,0,0,1-.482-86.058c.325-3.515.734-7.087,2.236-10.328,2.831-6.671,9.272-12.027,16.667-12.414,6.386-.069,12.768-.007,19.154-.033.007-4.658-.007-9.32,0-13.981A19.5,19.5,0,0,1,62.2,21.612M32.118,56.564a16.875,16.875,0,0,0-7.811,12.089,359.2,359.2,0,0,0-.11,87.611,18.567,18.567,0,0,0,5.334,11.022,12.6,12.6,0,0,0,8.75,3.613H80.689a13.1,13.1,0,0,0,9.422-4.442,17.892,17.892,0,0,0,4.523-10.186A360.35,360.35,0,0,0,95.01,72.8a39.731,39.731,0,0,0-.851-5.652,18.311,18.311,0,0,0-5.075-8.764,12.468,12.468,0,0,0-8.4-3.515c-4.216,0-8.432-.007-12.648,0q-.016,15.8,0,31.594a12.278,12.278,0,0,1-.384,4.1,7.2,7.2,0,0,1-4.318,4.464c-1.823.672-3.807.446-5.7.42A7.238,7.238,0,0,1,51.09,88.33c-.022-11.154,0-22.307-.015-33.461-4.26.011-8.52,0-12.776,0a12.027,12.027,0,0,0-6.181,1.692m24.817-1.7c0,11.161-.037,22.322.018,33.483-.029,1.122,1.257,1.436,2.152,1.3,1.1.011,3.021.274,3.065-1.337.051-11.146,0-22.3.022-33.443q-2.63-.005-5.257-.007m101.154,109.44c-.091,2.093-.011,4.2-.033,6.295,5.462-.033,10.931.084,16.389-.058-.077-1.965,0-3.935-.04-5.9a2.88,2.88,0,0,0-2.733-2.787c-3.544-.04-7.088,0-10.631-.015a2.741,2.741,0,0,0-2.952,2.466m4.055,12.436c.007,2.923,0,5.845,0,8.768,2.923-.015,5.845.011,8.768-.007.007-2.919-.011-5.842,0-8.761C167.989,176.737,165.067,176.755,162.144,176.744Z" transform="translate(-16.016 -15.996)" fill="#fff"/>
      </g>
    </g>
  </g>
</svg>
