<svg xmlns="http://www.w3.org/2000/svg" xmlns:xlink="http://www.w3.org/1999/xlink" width="500" height="500" viewBox="0 0 500 500">
  <defs>
    <clipPath id="clip-Fashion_Active">
      <rect width="500" height="500"/>
    </clipPath>
  </defs>
  <g id="Fashion_Active" clip-path="url(#clip-Fashion_Active)">
    <rect width="500" height="500" fill="#fff"/>
    <g id="Group_1104" data-name="Group 1104" transform="translate(59.907 68)">
      <rect id="Rectangle_1611" data-name="Rectangle 1611" width="370" height="364" rx="9" transform="translate(0.093)" fill="#d19130"/>
      <text id="Add_Note" data-name="Add Note" transform="translate(185.093 284.663)" fill="#fff" font-size="31" font-family="Roboto-Bold, Roboto" font-weight="700"><tspan x="-54.742" y="0">Fashion</tspan></text>
      <g id="_000000ff" data-name="#000000ff" transform="translate(94.093 46.161)">
        <path id="Path_5138" data-name="Path 5138" d="M138.875,23.9a4.341,4.341,0,0,1,2.546-.651q23.869-.006,47.742,0a4.7,4.7,0,0,1,2.886.713c8.365,6.175,17.435,11.654,27.4,14.8,1.966.751,4.57.572,5.831,2.559Q239.985,62.6,254.66,83.9V95.141q-13.194,7.658-26.393,15.3a3.862,3.862,0,0,1-5.014-.767c-1.775-2.119-3.422-4.342-5.188-6.465-1.19,23.892-2.215,47.8-2.289,71.725.1,10.517-.05,21.134,1.854,31.519a3.8,3.8,0,0,1-3.156,3.985c-6.37,1.132-12.782,2.032-19.181,3-10.165,1.331-20.367,2.721-30.631,2.833-15.714-.6-31.274-3.094-46.78-5.553-1.514-.191-3.243-.531-4.089-1.957-1.281-1.858-.112-4.106.041-6.1,1.248-10.152,1.215-20.412,1.186-30.623-.112-22.963-1.128-45.913-2.26-68.843-1.734,2.123-3.4,4.309-5.134,6.432a3.867,3.867,0,0,1-5,.85q-14.19-8.224-28.371-16.456a3.868,3.868,0,0,1-1.161-5.677q16.18-23.477,32.377-46.938a3.806,3.806,0,0,1,2.016-1.6c11.542-2.733,21.918-8.941,31.39-15.9m6.362,7.133a27.953,27.953,0,0,0,4.711,10.136A58.7,58.7,0,0,0,165.425,55.22a74.487,74.487,0,0,0,7.266-5.408c5.769-5.018,11.239-11.135,12.889-18.824-13.449.025-26.9-.079-40.344.05m-32.779,15.4c-.576.2-1.306.245-1.646.825-9.68,14.071-19.421,28.1-29.08,42.185q10.986,6.351,21.963,12.719,4.224-5.3,8.448-10.608c-.465-8.017-.975-16.029-1.435-24.045a3.864,3.864,0,1,1,7.71-.427c1.534,24.178,2.841,48.377,3.629,72.592.514,13.677.78,27.363.664,41.049a226.738,226.738,0,0,1-1.194,22.764c14.577,2.24,29.2,4.624,43.972,5.06,14.7-.419,29.242-2.87,43.761-5.01-.834-8.265-1.078-16.58-1.153-24.883q-.087-18.046.581-36.089c.813-25.3,2.132-50.575,3.766-75.827a3.85,3.85,0,0,1,7.681.361c-.427,8.158-.979,16.311-1.431,24.473,2.837,3.517,5.611,7.083,8.456,10.6,7.295-4.317,14.743-8.39,21.951-12.844-9.87-14.1-19.57-28.321-29.366-42.48-9.688-2.53-18.6-7.332-26.911-12.823a35.014,35.014,0,0,1-4.151,9.364c-5.209,8.195-12.856,14.573-21.109,19.546a3.8,3.8,0,0,1-3.9.212,72.669,72.669,0,0,1-12.048-8.738c-6.084-5.512-11.442-12.292-13.565-20.354C130.054,39.162,121.676,43.94,112.457,46.436Z" transform="translate(-72.314 -23.249)" fill="#fff"/>
      </g>
    </g>
  </g>
</svg>
