<svg xmlns="http://www.w3.org/2000/svg" xmlns:xlink="http://www.w3.org/1999/xlink" width="500" height="500" viewBox="0 0 500 500">
  <defs>
    <clipPath id="clip-Folli">
      <rect width="500" height="500"/>
    </clipPath>
  </defs>
  <g id="Folli" clip-path="url(#clip-Folli)">
    <rect width="500" height="500" fill="#fff"/>
    <g id="Group_5896" data-name="Group 5896" transform="translate(69 69)">
      <g id="Rectangle_1614" data-name="Rectangle 1614" fill="none" stroke="#191919" stroke-width="1">
        <rect width="363" height="363" rx="9" stroke="none"/>
        <rect x="0.5" y="0.5" width="362" height="362" rx="8.5" fill="none"/>
      </g>
      <text id="Add_Note" data-name="Add Note" transform="translate(176.508 278.184)" fill="#191919" font-size="54" font-family="Roboto-Bold, Roboto" font-weight="700"><tspan x="-117.281" y="0">Our Picks</tspan></text>
      <g id="_ff7000ff" data-name="#ff7000ff" transform="translate(47.092 95.213)">
        <path id="Path_5105" data-name="Path 5105" d="M83.5,11.7a158.723,158.723,0,0,1,41.373-7.745c-.411,4.479-1.157,8.939-1.717,13.418a253.337,253.337,0,0,1-25.585,5.71c-.952,5.953-2.016,11.906-2.967,17.859,2.389-.056,4.8-.093,7.2-.149,2.482-6.177,6.662-12.615,13.828-13.623,5.057-1.493,8.958,2.463,12,5.822,1.418-8.4,3.938-17.15,10.059-23.4,3.639-3.788,8.976-7,14.388-5.375,5.916,5.3,3.322,14.388,1.064,20.882-2.743,8.248-9.965,13.716-17.747,16.833.728,2.949.6,6.364,2.557,8.846,2.146,2.725,5.748.914,8.51.485a65.076,65.076,0,0,1,14.407-35.009c3.676-4.143,10.525-8.342,15.694-4.441,4.8,6.625,2.967,16.068-1.1,22.637-4.329,7.577-12.074,12.055-19.333,16.366,2.949,2.687,6.9,5.766,11.066,3.471,5.636-3.527,8.1-10.152,11.626-15.508,2.2.541,4.423,1.064,6.644,1.586-1.661,5.225-5.636,10.693-3.266,16.292,4.927-.187,3.564-6.662,5.748-9.779C191.4,37.737,207.528,33.239,211.5,44.1c2.09,9.088-8.23,12.653-14.967,14.649a17.606,17.606,0,0,0,13.231,1.1c3.06,7.073-5.673,8.062-10.581,7.987-4.4.037-8.248-2.3-11.962-4.329a50.827,50.827,0,0,1-8.286,2.09c-3.546-.28-6.028-3.172-8.752-5.095-7.334,3.658-16.59,3.994-22.506-2.426-4.18,1.941-8.79,5.225-13.567,3.21-4.311-.97-5.766-5.505-7.483-8.995-3.546,3.527-7.8,7.353-13.231,6.457-4.964.112-7.875-4.4-10.749-7.689-3.117.5-6.214,1.008-9.312,1.512-.84,8.883-1.717,17.766-1.829,26.7-3.62-.093-7.222-.205-10.842-.336a207.048,207.048,0,0,1,.709-25.007l-5.505.149c.877-5.039.28-11.663,6.9-12.5.858-5.636,1.941-11.234,3.191-16.8-1.922.149-5.748.429-7.651.579,1.474-4.5-.765-12.186,5.188-13.66m51.823,20.7c7.483-3.807,13.436-11.16,12.652-19.968-7.558,3.9-11.533,11.813-12.652,19.968M170.69,16.127c-7,6.55-11.216,15.4-14,24.447,8.454-4.927,16.889-13.828,14-24.447M111.458,39.9c-2.053,3.863,1.325,7.035,3.714,9.629,2.762-2.519,6.812-5.151,5.58-9.555-.28-5.542-8.267-4.908-9.293-.075m83.119,13.455c3.62-1.53,7.987-2.5,10.077-6.233-.373-3.4-2.146-4.553-5.281-3.508C195.286,44.921,195.7,50.053,194.576,53.356Z" transform="translate(53.623 -3.789)" fill="#191919"/>
        <path id="Path_5106" data-name="Path 5106" d="M72.467,6.264c3.788-2.183,9.816-.9,10.3,4.124,1.624,13.679-5.953,26.835-16.03,35.588,3.079,4.535,7.95,6.326,12.97,3.788C81.966,35.9,83.627,20.074,94.917,10.239c3.695-3.546,8.995-2.967,13.6-2.146,6.121,17.057-5.748,33.442-17.019,45.142,10.059,4.833,17.057-5.841,19.408-14.164,2.445-.037,4.908-.075,7.371-.149a116.812,116.812,0,0,0-2.93,14.332c2.557,1.138,5.151,2.2,7.745,3.266a78.867,78.867,0,0,1-5.281,8.659c-4.833.746-9.182-1.624-12.9-4.423-4.665,2.575-9.835,5.542-15.377,4.18-4.162-.728-6.2-4.777-8.472-7.819-4.2,2.426-8.752,5.524-13.847,4.124-3.882-.411-6.1-3.919-8.6-6.457C55.429,59.394,50.895,64.4,44.662,63.5c-5.207-.3-7.707-5.412-10.488-9.051-3.434.989-6.867,1.941-10.3,2.911a219.534,219.534,0,0,0,4.255,31.389A43.261,43.261,0,0,1,13.254,91.79c-.84-10.656-1.25-21.349-1.306-32.042-1.325.355-3.975,1.026-5.3,1.381.317-3.658.672-7.315,1.026-10.973,1.176-.5,3.508-1.53,4.684-2.034.261-5.3.634-10.581,1.176-15.862-2.351,1.4-4.7,2.762-7.054,4.124q.14-8.986.69-17.952A149.142,149.142,0,0,1,52.742,6.3c0,5.113-.243,10.208-.448,15.321a104.352,104.352,0,0,0-27.806,5.953C23.947,33.4,23.406,39.2,23.07,45.043c3.695-.709,7.371-1.381,11.066-2.071,2.725-7.353,9.051-13.474,17.43-12.485,1.642,1.493,3.3,2.986,4.964,4.46C58.247,24.086,61.7,11.434,72.467,6.264m-6.83,27.619c6.83-4.46,9.648-12.69,8.752-20.6-6.886,4.479-8.846,12.9-8.752,20.6m24.3,6.606c5.8-5.841,13.642-13.754,10.861-22.692-9.219,2.967-9.237,14.836-10.861,22.692M44.27,41.572c-4.46,3.77-1.008,9.293,2.183,12.5,2.389-2.389,6.476-4.124,6.214-8.1C53.19,41.647,47.33,37.373,44.27,41.572Z" transform="translate(-6.48 -2.529)" fill="#191919"/>
        <path id="Path_5107" data-name="Path 5107" d="M136.426,14.573c3.882-.392,9.051,3.508,5.655,7.334-2.333,3.956-6.326.653-8.081-1.941C134.616,18.6,135.81,15.916,136.426,14.573Z" transform="translate(103.973 5.528)" fill="#191919"/>
        <path id="Path_5108" data-name="Path 5108" d="M65.043,16.972c4.591-4.964,10.506,5.076,4.591,7.353C65.454,27.049,61.572,20.014,65.043,16.972Z" transform="translate(43.082 6.451)" fill="#191919"/>
      </g>
    </g>
  </g>
</svg>
