<svg xmlns="http://www.w3.org/2000/svg" xmlns:xlink="http://www.w3.org/1999/xlink" width="500" height="500" viewBox="0 0 500 500">
  <defs>
    <clipPath id="clip-Furniture">
      <rect width="500" height="500"/>
    </clipPath>
  </defs>
  <g id="Furniture" clip-path="url(#clip-Furniture)">
    <rect width="500" height="500" fill="#fff"/>
    <g id="Group_5866" data-name="Group 5866">
      <g id="Rectangle_1612" data-name="Rectangle 1612" transform="translate(68 71)" fill="#fff" stroke="#191919" stroke-width="1">
        <rect width="364" height="358" rx="9" stroke="none"/>
        <rect x="0.5" y="0.5" width="363" height="357" rx="8.5" fill="none"/>
      </g>
      <text id="Add_Note" data-name="Add Note" transform="translate(250 356.314)" fill="#191919" font-size="34" font-family="Roboto-Bold, Roboto" font-weight="700"><tspan x="-69.361" y="0">Furniture</tspan></text>
      <path id="Path_5121" data-name="Path 5121" d="M35.4,197.393c7.751-3.915,16.528-5.442,25.159-5.4q52.85-.015,105.69-.005c4.181.04,8.371-.12,12.537.336,8.311.826,16.6,3.38,23.442,8.271a32.768,32.768,0,0,1,12.657,17.474c1.462,4.666,1.492,9.6,1.417,14.445,8.922,2.518,16.327,11.08,16.037,20.588-.045,12.337.005,24.674-.02,37.011-.025,4,.27,8.071-.7,11.991a23.234,23.234,0,0,1-6.714,11.671,24.426,24.426,0,0,1-16.623,6.434c-.065,4.16.135,8.331-.065,12.487a4.275,4.275,0,0,1-3.1,3.495h-1.662a4.21,4.21,0,0,1-3.114-3.455c-.19-4.186-.025-8.381-.07-12.572q-84.115.023-168.236,0c.015,4.02.04,8.046-.02,12.067a4.234,4.234,0,0,1-3.139,3.96H27.232a4.233,4.233,0,0,1-3.189-3.986c-.035-4-.01-8-.015-12a24.433,24.433,0,0,1-16.643-6.449A24.307,24.307,0,0,1,0,297.965v-47.6a22.561,22.561,0,0,1,16.012-17.849c-.165-6.158.155-12.527,2.784-18.2a34.691,34.691,0,0,1,16.6-16.918m2.619,7.09a24.48,24.48,0,0,0-11.951,12.577c-2.038,4.882-2.168,10.264-2,15.476,8.912,2.509,16.317,11.085,16,20.573.005,5-.02,10,0,15a3.78,3.78,0,0,0,1.632,3.39,6.4,6.4,0,0,0,3.395.606q33.533,0,67.062.005-.007-36.05.005-72.1-26.031.015-52.061,0c-7.54.055-15.271,1.057-22.08,4.471m82.148-4.476q.015,36.049,0,72.1,34.059-.037,68.118-.015a3.862,3.862,0,0,0,3.97-3.976c0-5.012.02-10.029-.01-15.041-.285-9.488,7.095-18.095,16.042-20.548.1-5.357.045-10.9-2.188-15.882-2.774-6.669-8.852-11.451-15.551-13.8-6.644-2.423-13.8-2.939-20.819-2.839q-24.776.015-49.563,0M18.13,240.2a11.98,11.98,0,0,0-10.1,11.371q-.045,22.29-.01,44.586C8,300.4,9.037,304.93,12.132,308.024c3.229,3.229,8,4.231,12.422,4.121q92.121.03,184.248.01c4.431-.045,9.193-1.407,12.107-4.942,2.879-3.485,3.555-8.2,3.4-12.587-.025-14.174.025-28.354-.025-42.533a11.889,11.889,0,0,0-7.7-11.255,12.144,12.144,0,0,0-12.042,2.008,11.924,11.924,0,0,0-4.266,9.223c.025,5.007-.025,10.014.025,15.021.24,5.217-3.51,9.874-8.031,12.062-2.639,1.342-5.683.926-8.532.971q-69.583.015-139.161.015c-6.894.015-13.083-6.649-12.547-13.539q.023-7.263.01-14.525A11.973,11.973,0,0,0,18.13,240.2Z" transform="translate(134 -41.432)" fill="#191919"/>
    </g>
  </g>
</svg>
