<svg xmlns="http://www.w3.org/2000/svg" xmlns:xlink="http://www.w3.org/1999/xlink" width="500" height="500" viewBox="0 0 500 500">
  <defs>
    <clipPath id="clip-Guess">
      <rect width="500" height="500"/>
    </clipPath>
  </defs>
  <g id="Guess" clip-path="url(#clip-Guess)">
    <rect width="500" height="500" fill="#fff"/>
    <g id="Group_5889" data-name="Group 5889">
      <g id="Rectangle_1614" data-name="Rectangle 1614" transform="translate(68 68)" fill="none" stroke="#191919" stroke-width="1">
        <rect width="364" height="364" rx="9" stroke="none"/>
        <rect x="0.5" y="0.5" width="363" height="363" rx="8.5" fill="none"/>
      </g>
      <path id="Union_1" data-name="Union 1" d="M1508.606-4152.524a4.605,4.605,0,0,1-1.958-1.539,3.753,3.753,0,0,1-.688-2.216h1.884a2.451,2.451,0,0,0,.952,2.037,4.014,4.014,0,0,0,2.544.747,3.69,3.69,0,0,0,2.276-.605,1.969,1.969,0,0,0,.791-1.65,1.93,1.93,0,0,0-.732-1.616,8.45,8.45,0,0,0-2.657-1.129,8.809,8.809,0,0,1-3.51-1.7,3.254,3.254,0,0,1-1.1-2.495,3.442,3.442,0,0,1,1.343-2.779,5.338,5.338,0,0,1,3.491-1.1,5.824,5.824,0,0,1,2.613.566,4.3,4.3,0,0,1,1.777,1.563,3.989,3.989,0,0,1,.63,2.178h-1.884a2.6,2.6,0,0,0-.82-2.034,3.339,3.339,0,0,0-2.315-.74,3.418,3.418,0,0,0-2.163.611,2.044,2.044,0,0,0-.776,1.7,1.837,1.837,0,0,0,.737,1.473,7.222,7.222,0,0,0,2.51,1.1,11.617,11.617,0,0,1,2.773,1.1,4.207,4.207,0,0,1,1.484,1.4,3.574,3.574,0,0,1,.484,1.884,3.32,3.32,0,0,1-1.348,2.769,5.741,5.741,0,0,1-3.6,1.041A6.682,6.682,0,0,1,1508.606-4152.524Zm-103.992-.264a5.449,5.449,0,0,1-2.017-2.354,8.459,8.459,0,0,1-.737-3.54v-1.026a8.683,8.683,0,0,1,.714-3.623,5.426,5.426,0,0,1,2.016-2.407,5.4,5.4,0,0,1,2.983-.835,5.509,5.509,0,0,1,3.012.825,5.327,5.327,0,0,1,2.008,2.393,8.846,8.846,0,0,1,.7,3.647v.9a8.8,8.8,0,0,1-.7,3.647,5.328,5.328,0,0,1-1.993,2.378,5.479,5.479,0,0,1-3.008.82A5.433,5.433,0,0,1,1404.614-4152.788Zm.161-10.82a6.247,6.247,0,0,0-1.049,3.756v1.045a6.38,6.38,0,0,0,1.03,3.853,3.328,3.328,0,0,0,2.837,1.4,3.317,3.317,0,0,0,2.813-1.324,6.348,6.348,0,0,0,1.025-3.794v-1.054a6.38,6.38,0,0,0-1.015-3.882,3.352,3.352,0,0,0-2.842-1.353A3.316,3.316,0,0,0,1404.775-4163.608Zm-27.9,11.084a4.6,4.6,0,0,1-1.958-1.539,3.746,3.746,0,0,1-.688-2.216h1.884a2.448,2.448,0,0,0,.952,2.037,4.013,4.013,0,0,0,2.544.747,3.69,3.69,0,0,0,2.276-.605,1.969,1.969,0,0,0,.791-1.65,1.93,1.93,0,0,0-.732-1.616,8.452,8.452,0,0,0-2.657-1.129,8.821,8.821,0,0,1-3.511-1.7,3.257,3.257,0,0,1-1.1-2.495,3.442,3.442,0,0,1,1.343-2.779,5.338,5.338,0,0,1,3.491-1.1,5.82,5.82,0,0,1,2.612.566,4.293,4.293,0,0,1,1.778,1.563,3.989,3.989,0,0,1,.63,2.178h-1.884a2.6,2.6,0,0,0-.82-2.034,3.341,3.341,0,0,0-2.315-.74,3.419,3.419,0,0,0-2.163.611,2.044,2.044,0,0,0-.776,1.7,1.836,1.836,0,0,0,.736,1.473,7.241,7.241,0,0,0,2.51,1.1,11.611,11.611,0,0,1,2.774,1.1,4.207,4.207,0,0,1,1.484,1.4,3.574,3.574,0,0,1,.484,1.884,3.323,3.323,0,0,1-1.348,2.769,5.744,5.744,0,0,1-3.6,1.041A6.678,6.678,0,0,1,1376.87-4152.524Zm-27.265,0a4.6,4.6,0,0,1-1.958-1.539,3.745,3.745,0,0,1-.688-2.216h1.884a2.448,2.448,0,0,0,.952,2.037,4.014,4.014,0,0,0,2.544.747,3.69,3.69,0,0,0,2.276-.605,1.969,1.969,0,0,0,.791-1.65,1.93,1.93,0,0,0-.732-1.616,8.449,8.449,0,0,0-2.657-1.129,8.822,8.822,0,0,1-3.511-1.7,3.257,3.257,0,0,1-1.1-2.495,3.442,3.442,0,0,1,1.343-2.779,5.338,5.338,0,0,1,3.491-1.1,5.816,5.816,0,0,1,2.612.566,4.3,4.3,0,0,1,1.778,1.563,3.99,3.99,0,0,1,.63,2.178h-1.885a2.6,2.6,0,0,0-.82-2.034,3.338,3.338,0,0,0-2.314-.74,3.418,3.418,0,0,0-2.163.611,2.045,2.045,0,0,0-.777,1.7,1.84,1.84,0,0,0,.737,1.473,7.233,7.233,0,0,0,2.51,1.1,11.609,11.609,0,0,1,2.774,1.1,4.207,4.207,0,0,1,1.484,1.4,3.573,3.573,0,0,1,.483,1.884,3.321,3.321,0,0,1-1.347,2.769,5.746,5.746,0,0,1-3.6,1.041A6.682,6.682,0,0,1,1349.6-4152.524Zm-55.932-1.245a7.266,7.266,0,0,1-1.518-4.834v-1.367a8.09,8.09,0,0,1,.708-3.485,5.292,5.292,0,0,1,2.007-2.31,5.583,5.583,0,0,1,3.008-.806,5.141,5.141,0,0,1,3.633,1.264,5.3,5.3,0,0,1,1.592,3.5h-1.885a4.085,4.085,0,0,0-1.06-2.468,3.2,3.2,0,0,0-2.28-.764,3.355,3.355,0,0,0-2.817,1.329,6.1,6.1,0,0,0-1.02,3.782v1.378a6.273,6.273,0,0,0,.967,3.686,3.124,3.124,0,0,0,2.7,1.368,3.608,3.608,0,0,0,2.4-.708,3.926,3.926,0,0,0,1.108-2.465h1.885a5.232,5.232,0,0,1-1.665,3.481,5.455,5.455,0,0,1-3.726,1.226A5.009,5.009,0,0,1,1293.673-4153.769Zm-28.417,0a7.266,7.266,0,0,1-1.518-4.834v-1.367a8.09,8.09,0,0,1,.708-3.485,5.292,5.292,0,0,1,2.007-2.31,5.583,5.583,0,0,1,3.008-.806,5.141,5.141,0,0,1,3.633,1.264,5.3,5.3,0,0,1,1.592,3.5H1272.8a4.085,4.085,0,0,0-1.06-2.468,3.2,3.2,0,0,0-2.28-.764,3.355,3.355,0,0,0-2.817,1.329,6.1,6.1,0,0,0-1.02,3.782v1.378a6.273,6.273,0,0,0,.967,3.686,3.122,3.122,0,0,0,2.7,1.368,3.6,3.6,0,0,0,2.4-.708,3.92,3.92,0,0,0,1.109-2.465h1.885a5.236,5.236,0,0,1-1.665,3.481,5.457,5.457,0,0,1-3.726,1.226A5.008,5.008,0,0,1,1265.255-4153.769Zm214.806,1.611v-14.219H1489v1.533h-7.061v4.581h6.162v1.533h-6.162v5.039h7.158v1.533Zm-20.7,0v-14.219h1.875v14.219Zm-19.55,0-3.087-5.751h-3.34v5.751H1431.5v-14.219h4.707a5.576,5.576,0,0,1,3.7,1.094,3.936,3.936,0,0,1,1.294,3.185,3.831,3.831,0,0,1-.717,2.314,4.286,4.286,0,0,1-2,1.475l3.34,6.035v.117Zm-6.426-7.285h2.881a3.252,3.252,0,0,0,2.222-.724,2.45,2.45,0,0,0,.826-1.937,2.58,2.58,0,0,0-.786-2.025,3.326,3.326,0,0,0-2.271-.715h-2.872Zm-112.322,7.285v-14.219H1330v1.533h-7.061v4.581h6.161v1.533h-6.161v5.039h7.158v1.533Zm-75.966,0-1.358-3.721h-5.957l-1.337,3.721h-1.933l5.429-14.219h1.641l5.439,14.219Zm-6.748-5.254h4.834l-2.422-6.649Zm185.888-40.408c2.4,4.34,4.37,9.219,8.49,12.27,4.459,3.4,11.07,4.821,16.039,1.641,5.09-3.021,6.21-10.66,2.441-15.16-5.6-6.419-14.171-8.99-20.421-14.609-4.95-4.5-5.65-12.6-1.95-18.08,3.6-5,10.54-6.9,16.34-5.129a59.821,59.821,0,0,0,9.39,2.379c.77-1.149,1.541-2.29,2.311-3.439a158.873,158.873,0,0,1,1.449,17.69c-1.729-4.51-3.62-9.361-7.76-12.211-4.28-3.179-10.89-4.409-15.28-.829-3.8,3.079-3.7,9.238-.391,12.639,6.76,7.461,17.991,9.541,23.63,18.2,4.571,6.83,1.3,17.031-6.32,20.04-6.659,3.381-14.169,1.361-20.849-.769-2.37-1.13-3.55,1.5-4.941,2.869C1425.874-4186.181,1424.625-4191.95,1424.234-4197.82Zm55.45.03c2.33,4.25,4.32,8.94,8.25,12,4.35,3.5,10.8,4.94,15.89,2.2,5.62-2.761,6.79-11.21,2.67-15.721-6.059-6.639-15.309-9.109-21.42-15.669-6.08-6.78-2.94-19.18,6.029-21.68,6.511-2.81,12.741,1.77,19.221,1.97.5-.83,1.5-2.49,1.991-3.31.689,5.93,1.379,11.87,1.78,17.841-2.05-4.581-3.971-9.6-8.311-12.521-4.34-3.159-10.919-4.06-15.27-.45-3.71,3.18-3.31,9.291-.06,12.66,7.059,7.491,18.749,9.621,24.069,18.921,4.28,7.479-.529,17.56-8.58,19.87-6.2,2.349-12.709.42-18.73-1.45-2.379-1.17-3.909,1.08-5.319,2.57C1481.264-4186.32,1480.225-4192.021,1479.684-4197.791Zm-176.76,10.08c-3.549-5.1-3.47-11.6-3.42-17.55,0-7.669.05-15.349.02-23.019-.111-2.181-.12-4.751-1.85-6.331a30.951,30.951,0,0,0-5.931-1.42,203.985,203.985,0,0,1,22.8.161q-3.3.645-6.58,1.33a31.029,31.029,0,0,0-1.219,9.33c.16,9.45-.2,18.9.21,28.341.15,5.289,2.86,10.929,8.109,12.779,6.75,2.3,15.331,1.48,20.27-4.11,2.981-3.23,3.241-7.87,3.321-12.04.01-8-.039-15.99.01-23.989-.079-2.981.031-6.2-1.5-8.872-1.341-2.279-4.261-2.249-6.51-2.969,6.209-.189,12.41-.231,18.61-.03-2.99.689-7.139,1.219-7.65,4.979-1.18,6.879-.34,13.921-.589,20.86-.19,7.44,1.049,15.7-3.361,22.24-3.7,5.67-10.949,7.42-17.319,7.42-.379.015-.762.022-1.146.022C1313.1-4180.578,1306.509-4182.489,1302.924-4187.71Zm-58.73,5.891c-8.919-2.051-16.91-8.87-19.15-17.911-1.63-7.48-1.63-15.72,2.02-22.64a27.336,27.336,0,0,1,22.34-15.041c5.8-.769,11.41,1.091,16.969,2.421,2.491.729,4.421-1.19,6.171-2.6.089,5.77.53,11.52.5,17.291-2.06-3.71-3.669-7.831-6.9-10.721-6.231-5.609-16.211-5.989-23.181-1.549-5.809,3.6-9.091,10.189-10.15,16.769-1.44,8.391-.76,17.69,4.31,24.811,6.48,9.18,20.449,11.109,29.73,5.17.41-5.46.37-10.939.28-16.411-.15-2.16-.04-4.6-1.53-6.37a37.57,37.57,0,0,0-5.99-1.56c6.79.1,13.59.19,20.38-.1-2.18.891-5.47,1.1-5.66,4.081-.841,6.759-.13,13.609-.391,20.4a47.4,47.4,0,0,1-20.6,5.186A33.761,33.761,0,0,1,1244.194-4181.819Zm123.2-2.63c1.419-2.321,1.18-5.171,1.28-7.771-.06-11.68-.01-23.349-.019-35.02-.14-2.469.039-5.471-1.92-7.3-1.791-.891-3.84-1.03-5.77-1.45,14.64-.479,29.31-.4,43.96-.131,0,3.791.109,7.571.09,11.361-1.52-3.48-2.47-8.439-6.94-9.14a74.443,74.443,0,0,0-14.479-.654c-2.33.046-4.661.091-6.981.034-1.72,7.559-.45,15.4-.839,23.081,1.623,0,3.245.006,4.868.017,3.256.022,6.51.045,9.762-.048,2.33-.16,4.94-.25,6.809-1.841,1.511-2.1,2.061-4.709,3.05-7.07-.2,6.631-.089,13.271-.061,19.911-.959-2.261-1.49-4.74-2.909-6.78-1.42-1.649-3.8-1.77-5.81-2.02-2.951-.142-5.9-.14-8.86-.138-2.293,0-4.587,0-6.881-.062.131,8.3-.2,16.6.25,24.89a57.888,57.888,0,0,0,21.99.04c5.59-1.16,8.37-6.479,11.1-10.91a140.618,140.618,0,0,1-3.3,13.72c-5.883.042-11.765.022-17.649,0-9.181-.031-18.363-.062-27.541.145C1362.854-4182.43,1365.744-4182.439,1367.394-4184.449Z" transform="translate(-1120 4401)" fill="#191919" stroke="rgba(0,0,0,0)" stroke-miterlimit="10" stroke-width="1"/>
      <text id="Add_Note" data-name="Add Note" transform="translate(256.369 338.986)" fill="#191919" font-size="54" font-family="Roboto-Bold, Roboto" font-weight="700"><tspan x="-117.281" y="0">Our Picks</tspan></text>
    </g>
  </g>
</svg>
