<svg xmlns="http://www.w3.org/2000/svg" xmlns:xlink="http://www.w3.org/1999/xlink" width="500" height="500" viewBox="0 0 500 500">
  <defs>
    <clipPath id="clip-Gym_Active">
      <rect width="500" height="500"/>
    </clipPath>
  </defs>
  <g id="Gym_Active" clip-path="url(#clip-Gym_Active)">
    <rect width="500" height="500" fill="#fff"/>
    <g id="Group_5867" data-name="Group 5867" transform="translate(21)">
      <rect id="Rectangle_1609" data-name="Rectangle 1609" width="377" height="358" rx="9" transform="translate(41 71)" fill="#d19130"/>
      <text id="Add_Note" data-name="Add Note" transform="translate(230 359.314)" fill="#fff" font-size="37" font-family="Roboto-Bold, Roboto" font-weight="700"><tspan x="-100.025" y="0">Gym/Sports</tspan></text>
      <g id="Group_5853" data-name="Group 5853" transform="translate(123 104.088)">
        <path id="Path_5122" data-name="Path 5122" d="M237.935,36.395a1.881,1.881,0,0,1,2.857-1.143,1.982,1.982,0,0,1,.618,2.558Q236.7,53,231.986,68.188a1.966,1.966,0,0,1-1.822,1.714c-2.5.089-5,0-7.5.028-10.863,31.943-21.562,63.941-32.5,95.86,3.724,1.532,7.626,2.6,11.35,4.15a33.166,33.166,0,0,1,16.709,16.18,32.6,32.6,0,0,1,2.3,22.11,33.285,33.285,0,0,1-13.73,19.276,32.877,32.877,0,0,1-18.742,5.621q-45.665.021-91.326,0a49,49,0,0,1-34.252-14.006,47.855,47.855,0,0,1-14.358-30.935,49.215,49.215,0,0,1,9.626-32.908,53.032,53.032,0,0,1,10.113-10.062c-9.523-16.915-18.812-33.966-28.27-50.919-2.979-.037-5.958.042-8.938-.014a1.9,1.9,0,0,1-1.93-1.246,44.209,44.209,0,0,1-.08-5.106c.042-2.042-.178-4.174.642-6.1a9.771,9.771,0,0,1,8.886-6.268c7.631-.061,15.266.084,22.892-.066,9.35-.482,18.3,7.2,18.939,16.592a1.842,1.842,0,0,1-1.977,2.2c-8.3.028-16.6,0-24.893,0q12.549,22.682,25.164,45.321a48.858,48.858,0,0,1,34.1-.965Q145.4,150.185,178.4,161.753q15.55-45.918,31.113-91.832c-3.1.052-6.2-.037-9.294.019-.679-.094-1.1.534-1.555.909-2.2,2.192-4.342,4.445-6.6,6.577a1.837,1.837,0,0,1-2.942-.853,2.105,2.105,0,0,1,.81-2.272c6.647-6.614,13.243-13.285,19.908-19.876,1.419-1.677,4.225.562,2.886,2.3-3.012,3.251-6.291,6.254-9.341,9.476,8.422-.056,16.835-.023,25.258-.019,3.181-9.9,6.155-19.871,9.294-29.783m-24.49,33.559C203,101,192.343,131.984,181.986,163.06c1.588.473,3.124,1.087,4.722,1.532q15.908-47.366,32.008-94.666c-1.757.009-3.513,0-5.27.028M32.461,84.175a43.535,43.535,0,0,0,.052,6.4c14.512-.141,29.024.047,43.536-.066A13.945,13.945,0,0,0,63.912,79.435c-7.017-.248-14.044-.089-21.065-.136-2.033.051-4.08-.122-6.1.126a5.136,5.136,0,0,0-4.281,4.75m11.4,10.1q13.589,24.466,27.118,48.961,1.89-1.075,3.818-2.089c-8.615-15.622-17.327-31.193-25.937-46.82-1.668-.047-3.335-.047-5-.051m45.579,45.944a45.157,45.157,0,0,0-32.308,22.855,43.875,43.875,0,0,0-5.453,23.633A45.456,45.456,0,0,0,67.739,219a44.623,44.623,0,0,0,28.977,10.367q45.658.028,91.326,0a29.156,29.156,0,0,0,21.417-8.61,29.812,29.812,0,0,0,5.485-33.31A29.194,29.194,0,0,0,197.992,172.6q-43.375-15.212-86.759-30.392A45.157,45.157,0,0,0,89.442,140.219Z" transform="translate(-28.603 -34.936)" fill="#fff"/>
        <path id="Path_5123" data-name="Path 5123" d="M117.4,299.562a30.737,30.737,0,0,1,31.221-8.3q42.307,14.9,84.655,29.694c2.117.763,4.366,1.321,6.207,2.68a14.953,14.953,0,0,1,6.216,15.627,15.263,15.263,0,0,1-13.725,11.1c-22.171-.141-44.351.047-66.518-.1-2.061-.136-2.113-3.461-.061-3.672,21.941-.089,43.888.042,65.829-.066a10.589,10.589,0,0,0,8.825-3.958,10.74,10.74,0,0,0-5.19-17.074c-24.373-8.582-48.787-17.061-73.151-25.67a29.234,29.234,0,0,1,7.813,18.728,30.7,30.7,0,0,1-6.769,20.752,1.888,1.888,0,0,1-3.256-.3,2.188,2.188,0,0,1,.609-2.413,26.12,26.12,0,0,0,5.813-17.089,27.049,27.049,0,0,0-10.184-20.288,27.334,27.334,0,0,0-15.613-5.527c-12.873-.759-24.94,9.631-26.795,22.26a26.925,26.925,0,0,0,6.1,21.412,25.809,25.809,0,0,0,16.545,8.966c4.356.52,8.75.056,13.111.3a1.857,1.857,0,0,1,1.077,3.026c-.731.9-2,.609-3.012.675-4.834-.117-9.762.365-14.5-.848A30.157,30.157,0,0,1,117.4,299.562Z" transform="translate(-71.557 -170.479)" fill="#fff"/>
        <path id="Path_5124" data-name="Path 5124" d="M170.013,353.27a1.852,1.852,0,0,1,1.255-2.909,2.156,2.156,0,0,1,2.183,1.345q11.537,17.974,23.1,35.934a4.351,4.351,0,0,0,1.026,1.237c2.131.187,4.282-.1,6.413.117a1.848,1.848,0,0,1,1.035,2.951c-.548.792-1.583.736-2.431.745-4.488-.052-8.98.1-13.458-.084a1.876,1.876,0,0,1-.515-3.447c1.363-.459,2.867-.155,4.286-.23C185.317,377.02,177.6,365.183,170.013,353.27Z" transform="translate(-103.591 -202.588)" fill="#010101"/>
        <path id="Path_5125" data-name="Path 5125" d="M121.9,469.126a20.836,20.836,0,0,1,3.668-.159c6.1.079,12.2-.005,18.292.047a1.871,1.871,0,0,1,1.546,3.012c-.7.951-2,.66-3.021.74-6.708-.056-13.421.051-20.124-.056C120.432,472.55,120.165,469.669,121.9,469.126Z" transform="translate(-77.582 -265.649)" fill="#010101"/>
        <path id="Path_5126" data-name="Path 5126" d="M349.653,469.078c6.675-.192,13.379.01,20.063-.108,1.129.093,2.623-.267,3.368.843a1.856,1.856,0,0,1-1.443,2.909c-7.214.047-14.428.075-21.637-.009C348,472.722,347.671,469.448,349.653,469.078Z" transform="translate(-198.565 -265.654)" fill="#010101"/>
      </g>
    </g>
  </g>
</svg>
