<svg xmlns="http://www.w3.org/2000/svg" xmlns:xlink="http://www.w3.org/1999/xlink" width="500" height="500" viewBox="0 0 500 500">
  <defs>
    <clipPath id="clip-Iam">
      <rect width="500" height="500"/>
    </clipPath>
  </defs>
  <g id="Iam" clip-path="url(#clip-Iam)">
    <rect width="500" height="500" fill="#fff"/>
    <g id="Group_5883" data-name="Group 5883" transform="translate(68 68)">
      <g id="Rectangle_1614" data-name="Rectangle 1614" fill="none" stroke="#191919" stroke-width="1">
        <rect width="364" height="364" rx="9" stroke="none"/>
        <rect x="0.5" y="0.5" width="363" height="363" rx="8.5" fill="none"/>
      </g>
      <text id="Add_Note" data-name="Add Note" transform="translate(182 284.777)" fill="#191919" font-size="54" font-family="Roboto-Bold, Roboto" font-weight="700"><tspan x="-117.281" y="0">Our Picks</tspan></text>
      <g id="_010101ff" data-name="#010101ff" transform="translate(44.301 83.541)">
        <path id="Path_5045" data-name="Path 5045" d="M35.209,109.491c-.155-2.3,1.711-5,4.262-4.372,5.73.673,8.645,6.724,8.9,11.913-.817,23.44-7.74,46.018-12.123,68.917a73.366,73.366,0,0,0-1.623,15.137c-.11,2.55-2.65,3.522-4.858,3.235-5.774-5.852-4.847-14.718-4.35-22.214,1.954-17,7.419-33.421,8.954-50.512A162.367,162.367,0,0,0,35.209,109.491Z" transform="translate(-25.039 -105.026)" fill="#191919"/>
        <path id="Path_5046" data-name="Path 5046" d="M94.907,149.584c3.743-.353,7.96-.707,11.206,1.623,2.087,1.413,2.65,4.185,2.528,6.558-.519,7.662-4.9,14.474-5.543,22.115a5.39,5.39,0,0,0,3.71,5.73c5.421,1.711,11.03-.839,15.49-3.82,7.177-4.847,13.05-11.295,19.145-17.378,2.639-2.528,6.106-4.8,9.948-4.262,4.162.364,6.834,4.8,6.514,8.722.044,3.688-.817,7.706.983,11.129,1.137,2.208,4.008,2.252,5.885,1.016,7.861-4.129,14-10.93,21.982-14.861a6.788,6.788,0,0,1,9.462,3.058c2.186,4.328-1.126,9.076.375,13.525a3.264,3.264,0,0,0,4.427,1.645c8.667-3.456,14.828-11.814,24.279-13.547,4.03-.674,7.2,2.893,7.751,6.6a9.292,9.292,0,0,0,6.514,7.817c10.069,3.345,20.68.409,30.992.585,8.766.077,17.754-.574,26.277,1.9,1.016,4.151-3.864,6.006-6.978,7.077-11.99,3.39-24.621,3.224-36.976,3.246-5.973-.11-12.377.464-17.776-2.639-4.946-2.363-7.861-7.64-13.139-9.407-6.613,3.853-12.322,9.407-19.752,11.736-5.565,2.021-12.465-.972-14.541-6.569-1.369-2.826-1.2-6.58-4.063-8.457-7.442,3.831-12.564,11.085-20.282,14.453-3.2,1.59-6.746-.386-9.131-2.528-3.942-3.787-4.383-9.572-6.934-14.143a2.643,2.643,0,0,0-3.931-.927c-5.752,3.235-9.65,8.789-14.861,12.719-5.642,4.449-13.028,6.989-20.227,5.973-5.565-.972-9.363-5.52-14.21-7.971-4,1.49-7.044,4.637-10.93,6.293-6.017,2.164-13.481-.121-16.981-5.542-4.107-5.973-3.886-14.243-.033-20.282,6.117-10.489,16.252-19.929,28.817-21.187m-4.869,13.227a38.3,38.3,0,0,0-15.766,17.378,3.66,3.66,0,0,0,3.158,5.476c5.41-.442,9.407-4.847,12.333-9.042,2.352-3.677,4.8-7.806,4.538-12.31C93.935,162.215,91.616,161.84,90.038,162.811Z" transform="translate(-21.075 -100.415)" fill="#191919"/>
      </g>
    </g>
  </g>
</svg>
