<svg xmlns="http://www.w3.org/2000/svg" xmlns:xlink="http://www.w3.org/1999/xlink" width="500" height="500" viewBox="0 0 500 500">
  <defs>
    <clipPath id="clip-Kitchen_Active">
      <rect width="500" height="500"/>
    </clipPath>
  </defs>
  <g id="Kitchen_Active" clip-path="url(#clip-Kitchen_Active)">
    <rect width="500" height="500" fill="#fff"/>
    <g id="Group_5872" data-name="Group 5872">
      <path id="Path_5150" data-name="Path 5150" d="M9,0H355a9,9,0,0,1,9,9V349a9,9,0,0,1-9,9H9a9,9,0,0,1-9-9V9A9,9,0,0,1,9,0Z" transform="translate(68 71)" fill="#d19130"/>
      <text id="Add_Note" data-name="Add Note" transform="translate(250 355.314)" fill="#fff" font-size="33" font-family="Roboto-Bold, Roboto" font-weight="700"><tspan x="-56.421" y="0">Kitchen</tspan></text>
      <g id="Group_5852" data-name="Group 5852" transform="translate(152 140.552)">
        <path id="Path_5127" data-name="Path 5127" d="M99.331,19.579c1.286-1.542,3.4-1.74,5.274-1.615,5.963.024,11.935-.012,17.9.016a4.893,4.893,0,0,1,4.864,4.426c.061,1.765.02,3.537.016,5.3a4.869,4.869,0,0,1-2.625,4.353c-1.436.787-3.136.5-4.7.552q-.012,2.44.016,4.88c16.965.353,34.247,3.079,49.492,10.86,2.328,1.112,4.491,2.527,6.758,3.74,1.882.15,3.781-.1,5.663.114a4.889,4.889,0,0,1,4.036,4.694c.028,3.29,0,6.58.008,9.87,6.535.008,13.067-.008,19.6.008a4.881,4.881,0,0,1,4.791,4.264c.1,1.927.057,3.862.024,5.789a4.976,4.976,0,0,1-5.233,4.6,9.781,9.781,0,0,0-9.4,9.582,4.94,4.94,0,0,1-4.43,5.01c-1.785.077-3.57,0-5.355.024V131.56a50.987,50.987,0,0,1-.312,7.712,29.4,29.4,0,0,1-29.176,25.087q-41.792.012-83.584,0a49.258,49.258,0,0,1-9.5-.487,29.484,29.484,0,0,1-19.269-12.843,29.066,29.066,0,0,1-4.763-15.8q-.012-19.588,0-39.175c-2.446-.191-5.128.54-7.379-.69A5.194,5.194,0,0,1,29.6,90.579a9.765,9.765,0,0,0-9.412-9.144,5.085,5.085,0,0,1-4.414-2.251c-1.363-2.166-.6-4.872-.8-7.282a4.9,4.9,0,0,1,4.815-5.12c6.543-.028,13.083,0,19.626-.012.012-3.282-.016-6.564.008-9.846a4.89,4.89,0,0,1,4.154-4.734c1.846-.183,3.708.057,5.558-.11a20.478,20.478,0,0,0,2.32-1.322A86.637,86.637,0,0,1,72.89,41.789a134.889,134.889,0,0,1,32.5-4.3c-.016-1.627.008-3.253.008-4.88-1.761-.028-3.744.264-5.241-.88a5.261,5.261,0,0,1-2.114-4.868c.187-2.434-.6-5.322,1.286-7.286m3.619,3.274c0,1.627,0,3.249,0,4.876,6.519.012,13.034,0,19.553.008q0-2.446-.008-4.884-9.773.012-19.549,0m7.339,9.76q-.006,2.318,0,4.633c1.627-.008,3.254,0,4.88,0-.008-1.546-.028-3.091,0-4.637h-4.88m-50.944,19.5q53.317.03,106.642-.02a34.847,34.847,0,0,0-4.024-1.874c-16.032-6.657-33.638-8.182-50.839-8.077-17.626.13-35.752,2.162-51.78,9.971m-15.03,4.909c-.012,3.249.008,6.5,0,9.756q68.408-.006,136.82,0c.008-3.249.016-6.5,0-9.752q-68.408-.018-136.82,0M19.889,71.655c-.008,1.627-.045,3.253,0,4.88a14.671,14.671,0,0,1,11.558,5.7,15.041,15.041,0,0,1,3.124,8.945c1.615-.012,3.229-.008,4.848-.008q.006-9.76,0-19.521c-6.511.012-13.022,0-19.533,0m24.429.008q-.024,31.551-.008,63.106a24.492,24.492,0,0,0,20.567,24.393,51.5,51.5,0,0,0,8.069.32q12.56,0,25.119,0-.012-22.083,0-44.157a14.659,14.659,0,0,1,23.367-11.517,14.991,14.991,0,0,1,5.959,13.144q0,21.261,0,42.514c9.708.024,19.419,0,29.127.012a24.5,24.5,0,0,0,24.612-24.251q.012-31.788,0-63.576-68.408.012-136.824.008m141.712-.008q0,9.76,0,19.517,2.422-.012,4.856,0a15.86,15.86,0,0,1,.8-4.69,14.854,14.854,0,0,1,13.9-9.984c-.012-1.615-.024-3.233,0-4.848q-9.779,0-19.557,0m-83.065,43.674c-.032,8.215-.008,16.426-.012,24.64,6.519-.016,13.034.008,19.553-.012-.016-8.2.008-16.4-.012-24.6a9.767,9.767,0,0,0-19.529-.028m-.016,29.517q0,7.314,0,14.62c6.515.041,13.034-.008,19.549.02q.012-7.32,0-14.637Q112.727,144.843,102.95,144.845Z" transform="translate(-14.94 -17.933)" fill="#fff"/>
        <path id="Path_5128" data-name="Path 5128" d="M251.286,252.778a2.481,2.481,0,0,1,3.566,1.939,2.452,2.452,0,0,1-3.107,2.661C249.594,256.992,249.318,253.6,251.286,252.778Z" transform="translate(-154.617 -157.365)" fill="#fff"/>
        <path id="Path_5129" data-name="Path 5129" d="M251.248,276.852c1.416-.714,3.537.15,3.553,1.874.085,2.187,0,4.377.053,6.564-.012,1,.081,2.2-.763,2.925-1.294,1.2-3.882.58-4.089-1.306-.11-2.58-.053-5.164-.045-7.748A2.319,2.319,0,0,1,251.248,276.852Z" transform="translate(-154.613 -171.667)" fill="#fff"/>
        <path id="Path_5130" data-name="Path 5130" d="M244.979,343.137c1.172-.617,2.568-.276,3.842-.369,1.229.069,2.552-.211,3.712.3,1.809.929,1.477,4.162-.6,4.5a47.877,47.877,0,0,1-6.243,0C243.669,347.226,243.291,344.139,244.979,343.137Z" transform="translate(-151.022 -210.983)" fill="#010101"/>
        <path id="Path_5131" data-name="Path 5131" d="M148.716,391.215a3.981,3.981,0,0,1,1.9-.3c4.722.009,9.444,0,14.166,0a2.45,2.45,0,1,1-.353,4.884c-4.888-.02-9.777.032-14.665-.024C147.426,395.819,146.744,392.233,148.716,391.215Z" transform="translate(-93.765 -239.604)" fill="#010101"/>
        <path id="Path_5132" data-name="Path 5132" d="M317.5,391.147a6.1,6.1,0,0,1,2.3-.247c4.45.028,8.9-.016,13.359.016a2.385,2.385,0,0,1,2.219,1.018c.986,1.42.081,3.829-1.777,3.825-5.16.032-10.329.09-15.484-.024C315.9,395.509,315.516,392.008,317.5,391.147Z" transform="translate(-193.995 -239.598)" fill="#010101"/>
      </g>
    </g>
  </g>
</svg>
