<svg xmlns="http://www.w3.org/2000/svg" xmlns:xlink="http://www.w3.org/1999/xlink" width="500" height="500" viewBox="0 0 500 500">
  <defs>
    <clipPath id="clip-Lush-_Active">
      <rect width="500" height="500"/>
    </clipPath>
  </defs>
  <g id="Lush-_Active" clip-path="url(#clip-Lush-_Active)">
    <rect width="500" height="500" fill="#fff"/>
    <g id="Group_5895" data-name="Group 5895" transform="translate(69 69)">
      <rect id="Rectangle_1614" data-name="Rectangle 1614" width="363" height="363" rx="9" fill="#d19130"/>
      <text id="Add_Note" data-name="Add Note" transform="translate(176.508 272.233)" fill="#fff" font-size="54" font-family="Roboto-Bold, Roboto" font-weight="700"><tspan x="-117.281" y="0">Our Picks</tspan></text>
      <path id="Union_5" data-name="Union 5" d="M235.43,89.287a3.641,3.641,0,0,1-1.7-1.317,3.17,3.17,0,0,1-.586-1.95h2.406c0,1.266.781,1.9,2.328,1.9a2.36,2.36,0,0,0,1.367-.355,1.126,1.126,0,0,0,.477-.962,1.221,1.221,0,0,0-.477-1.013,5.681,5.681,0,0,0-1.742-.76,14.075,14.075,0,0,1-2-.785A3.168,3.168,0,0,1,233.5,81.21a2.815,2.815,0,0,1,.531-1.672,3.5,3.5,0,0,1,1.547-1.139,5.889,5.889,0,0,1,2.258-.4,5.243,5.243,0,0,1,2.25.456,3.377,3.377,0,0,1,1.523,1.241,3.22,3.22,0,0,1,.563,1.848h-2.445a1.51,1.51,0,0,0-.5-1.215,2.015,2.015,0,0,0-1.414-.456,2.234,2.234,0,0,0-1.4.38,1.18,1.18,0,0,0-.508.962,1.118,1.118,0,0,0,.594.937,6.474,6.474,0,0,0,1.719.709,7.825,7.825,0,0,1,3.008,1.494,3.129,3.129,0,0,1,.945,2.254,2.68,2.68,0,0,1-1.18,2.33,5.123,5.123,0,0,1-3.109.836A5.879,5.879,0,0,1,235.43,89.287Zm-11.7-.988a6.018,6.018,0,0,1-1.289-4.077v-.709a6.636,6.636,0,0,1,.609-2.912,4.238,4.238,0,0,1,1.7-1.925,5.432,5.432,0,0,1,5.867.38,4.242,4.242,0,0,1,1.414,2.988h-2.406A2.443,2.443,0,0,0,229,80.425a2.489,2.489,0,0,0-1.672-.481,2.144,2.144,0,0,0-1.828.836,4.937,4.937,0,0,0-.6,2.633v.861a4.925,4.925,0,0,0,.578,2.709,2.011,2.011,0,0,0,1.828.861,2.376,2.376,0,0,0,1.664-.481,2.218,2.218,0,0,0,.633-1.57h2.43a3.989,3.989,0,0,1-1.414,2.912,4.971,4.971,0,0,1-3.312,1.063A4.532,4.532,0,0,1,223.727,88.3Zm-48.344.988a3.806,3.806,0,0,1-1.7-1.317,3.439,3.439,0,0,1-.578-1.95h2.43c0,1.266.789,1.9,2.336,1.9a2.27,2.27,0,0,0,1.336-.355,1.062,1.062,0,0,0,.484-.962,1.149,1.149,0,0,0-.484-1.013,5.773,5.773,0,0,0-1.742-.76,14.877,14.877,0,0,1-2-.785,3.211,3.211,0,0,1-2-2.836,2.757,2.757,0,0,1,.523-1.672,3.687,3.687,0,0,1,1.547-1.139,5.96,5.96,0,0,1,2.25-.4,5.255,5.255,0,0,1,2.258.456,3.574,3.574,0,0,1,1.547,1.241,3.313,3.313,0,0,1,.531,1.848h-2.406a1.439,1.439,0,0,0-.531-1.215,2.036,2.036,0,0,0-1.422-.456,2.287,2.287,0,0,0-1.391.38,1.13,1.13,0,0,0-.477.962,1.053,1.053,0,0,0,.578.937,6.736,6.736,0,0,0,1.7.709,7.694,7.694,0,0,1,3.016,1.494,3,3,0,0,1,.938,2.254,2.741,2.741,0,0,1-1.141,2.33,5.269,5.269,0,0,1-3.109.836A6.039,6.039,0,0,1,175.383,89.287Zm-11.164-.2a4.638,4.638,0,0,1-1.773-1.95,6.641,6.641,0,0,1-.633-2.912v-.583a6.656,6.656,0,0,1,.633-2.988,4.422,4.422,0,0,1,1.773-1.975,5.324,5.324,0,0,1,5.219,0,4.467,4.467,0,0,1,1.773,1.975,6.582,6.582,0,0,1,.633,2.988v.506a6.708,6.708,0,0,1-.609,2.963,4.607,4.607,0,0,1-1.773,1.976,4.937,4.937,0,0,1-2.609.683A5.12,5.12,0,0,1,164.219,89.085Zm.742-8.2a4.41,4.41,0,0,0-.687,2.709v.557a4.971,4.971,0,0,0,.648,2.735,2.258,2.258,0,0,0,1.93.962,2.083,2.083,0,0,0,1.852-.937,4.518,4.518,0,0,0,.688-2.709v-.557a4.691,4.691,0,0,0-.687-2.76,2.181,2.181,0,0,0-1.875-.937A2.11,2.11,0,0,0,164.961,80.881ZM152.289,88.3a5.909,5.909,0,0,1-1.312-4.077v-.709a6.635,6.635,0,0,1,.6-2.912,4.423,4.423,0,0,1,1.7-1.925,4.976,4.976,0,0,1,2.609-.683,4.885,4.885,0,0,1,3.266,1.063,4.238,4.238,0,0,1,1.445,2.988h-2.43a1.966,1.966,0,0,0-2.281-2.1,2.1,2.1,0,0,0-1.82.836,4.763,4.763,0,0,0-.641,2.633v.861a5.067,5.067,0,0,0,.578,2.709,2.02,2.02,0,0,0,1.828.861,2,2,0,0,0,2.336-2.051h2.406a4.032,4.032,0,0,1-1.4,2.912,5.03,5.03,0,0,1-3.344,1.063A4.476,4.476,0,0,1,152.289,88.3Zm-120.5.988a3.549,3.549,0,0,1-1.7-1.317,3.239,3.239,0,0,1-.609-1.95h2.461c0,1.266.758,1.9,2.3,1.9a2.4,2.4,0,0,0,1.367-.355,1.072,1.072,0,0,0,.477-.962,1.161,1.161,0,0,0-.477-1.013,5.906,5.906,0,0,0-1.758-.76,14.305,14.305,0,0,1-1.992-.785,3.172,3.172,0,0,1-2-2.836,2.713,2.713,0,0,1,.531-1.672A3.455,3.455,0,0,1,31.938,78.4a5.754,5.754,0,0,1,2.258-.4,5.343,5.343,0,0,1,2.25.456,3.356,3.356,0,0,1,1.516,1.241,3.156,3.156,0,0,1,.555,1.848h-2.43a1.441,1.441,0,0,0-.5-1.215,2.083,2.083,0,0,0-1.414-.456,2.219,2.219,0,0,0-1.4.38,1.14,1.14,0,0,0-.508.962,1.117,1.117,0,0,0,.578.937,7.14,7.14,0,0,0,1.7.709,7.918,7.918,0,0,1,3.047,1.494,3.115,3.115,0,0,1,.93,2.254,2.685,2.685,0,0,1-1.164,2.33,5.139,5.139,0,0,1-3.109.836A5.955,5.955,0,0,1,31.789,89.287Zm186.344.33V78.146h2.406V89.617Zm-7.562,0V80.07h-3.547V78.146h9.563V80.07h-3.594v9.547Zm-12.289,0V78.146h7.844V80.07h-5.437V82.8h4.664v1.823h-4.664v3.089h5.461v1.9Zm-4.555,0v-3.14l.219-5.394-3.164,8.534h-1.672l-3.156-8.534.25,5.394v3.14h-2.437V78.146h3.172l3.008,8.331,3.016-8.331h3.2V89.617Zm-55.812,0V78.146h7.867V80.07h-5.437V82.8H145v1.823h-4.656v3.089h5.477v1.9Zm-10.742,0V78.146h3.594a5.6,5.6,0,0,1,2.789.684,4.823,4.823,0,0,1,1.9,1.95,5.535,5.535,0,0,1,.68,2.861v.506a5.916,5.916,0,0,1-.648,2.862,5.046,5.046,0,0,1-1.906,1.924,5.657,5.657,0,0,1-2.781.684Zm2.406-1.9h1.164a2.75,2.75,0,0,0,2.188-.886,3.991,3.991,0,0,0,.75-2.608v-.608a3.976,3.976,0,0,0-.727-2.634,2.656,2.656,0,0,0-2.187-.911h-1.187Zm-6.1,1.9-.812-2.355h-4.25l-.82,2.355h-2.578L119.4,78.146h2.258l4.4,11.471Zm-4.406-4.28h2.945l-1.477-4.279Zm-7.75,4.28v-3.14l.258-5.394-3.2,8.534h-1.641l-3.172-8.534.234,5.394v3.14H101.4V78.146h3.133l3.047,8.331,3.008-8.331h3.164V89.617Zm-20.687,0V78.146h3.625a5.5,5.5,0,0,1,2.758.684,4.849,4.849,0,0,1,1.93,1.95,5.859,5.859,0,0,1,.68,2.861v.506a5.93,5.93,0,0,1-.68,2.862,4.788,4.788,0,0,1-1.906,1.924,5.546,5.546,0,0,1-2.758.684Zm2.406-1.9h1.188a2.756,2.756,0,0,0,2.18-.886,4.279,4.279,0,0,0,.758-2.608v-.608a4.111,4.111,0,0,0-.734-2.634,2.686,2.686,0,0,0-2.172-.911H93.039Zm-6.961,1.9-4.711-7.546v7.546h-2.43V78.146h2.43L86.1,85.717V78.146h2.406V89.617Zm-10.812,0-.812-2.355H70.2l-.82,2.355H66.828l4.383-11.471h2.234l4.4,11.471Zm-4.406-4.28h2.93l-1.461-4.279Zm-7.727,4.28V84.7H58.406v4.913H55.961V78.146h2.445V82.8h4.727V78.146h2.406V89.617Zm-15.828,0V84.7H42.594v4.913h-2.43V78.146h2.43V82.8H47.3V78.146h2.43V89.617Zm-26.641,0V78.146h7.883V80.07H23.094V82.8H27.75v1.823H23.094v3.089H28.57v1.9Zm-4,0-2.2-4.2H12.539v4.2h-2.43V78.146h4.383a5.014,5.014,0,0,1,3.211.912,3.062,3.062,0,0,1,1.109,2.557,3.7,3.7,0,0,1-.5,1.975,3.82,3.82,0,0,1-1.562,1.241l2.516,4.685v.1Zm-4.125-6.1h1.953a2.042,2.042,0,0,0,1.414-.456,1.6,1.6,0,0,0,.5-1.241,1.752,1.752,0,0,0-.477-1.291,2,2,0,0,0-1.437-.456H12.539Zm-11.492,6.1V78.146H8.719V80.07H3.477v2.963H8.133v1.9H3.477v4.685Zm117.9-48.746h18.867a10.792,10.792,0,0,0,.68,3.925c1.375,3.571,5.5,4.3,8.984,4.3,3.094,0,7.836-.988,7.836-5.394,0-3.089-2.664-3.925-13.227-6.837-9.7-2.659-20.734-5.242-20.734-17.219C121.352,5.9,133.43,0,146.039,0c13.3,0,25.047,4.912,25.547,19.4h-17.82a4.6,4.6,0,0,0-2.227-4.761,10.237,10.237,0,0,0-5.609-1.494c-2.555,0-6.75.659-6.75,4,.328,4.254,9.086,5.166,17.75,7.5s17.25,6.229,17.25,17.144c0,15.5-14.7,20.486-28.312,20.486C138.922,62.268,119.094,59.863,118.945,40.871ZM53.359,37.882V1.418H72.219V33.806c0,6.077,0,13.649,9.2,13.649,8.914,0,8.914-7.571,8.914-13.649V1.418h18.844V37.882c0,16.485-9.172,24.386-27.859,24.386S53.359,54.368,53.359,37.882ZM221.352,60.85V37.3h-17.68V60.85H184.813V1.418h18.859V22.056h17.68V1.418h18.867V60.85ZM0,60.85V1.418H18.875V45.606H45.992V60.85Z" transform="translate(59.497 89.263)" fill="#fff" stroke="rgba(0,0,0,0)" stroke-miterlimit="10" stroke-width="1"/>
    </g>
  </g>
</svg>
