<svg xmlns="http://www.w3.org/2000/svg" xmlns:xlink="http://www.w3.org/1999/xlink" width="500" height="500" viewBox="0 0 500 500">
  <defs>
    <clipPath id="clip-Nine">
      <rect width="500" height="500"/>
    </clipPath>
  </defs>
  <g id="Nine" clip-path="url(#clip-Nine)">
    <rect width="500" height="500" fill="#fff"/>
    <g id="Group_5878" data-name="Group 5878" transform="translate(69 69)">
      <g id="Rectangle_1614" data-name="Rectangle 1614" fill="none" stroke="#191919" stroke-width="1">
        <rect width="363" height="363" rx="9" stroke="none"/>
        <rect x="0.5" y="0.5" width="362" height="362" rx="8.5" fill="none"/>
      </g>
      <text id="Add_Note" data-name="Add Note" transform="translate(164.607 284.135)" fill="#191919" font-size="54" font-family="Roboto-Bold, Roboto" font-weight="700"><tspan x="-117.281" y="0">Our Picks</tspan></text>
      <g id="Group_5855" data-name="Group 5855" transform="translate(77.359 60.463)">
        <g id="Group_1060" data-name="Group 1060" transform="translate(12.345 0)">
          <path id="Path_5088" data-name="Path 5088" d="M0,1.42c1.85.015,3.685.015,5.535.03C16.285,15.916,27.142,30.291,37.848,44.787c.106-14.451.045-28.886.045-43.337,2.184,0,4.382,0,6.566.03.015,18.742-.015,37.5.015,56.256h-6q-15.944-21.517-31.9-43c-.045,14.329-.015,28.659-.03,42.988-2.184.015-4.352.03-6.535.03Z" transform="translate(0 -1.405)" fill="#191919"/>
          <path id="Path_5089" data-name="Path 5089" d="M36.685,1.457c2.35-.015,4.7-.03,7.051-.015q-.023,28.136-.015,56.286c-2.35.015-4.7.015-7.051.015C36.731,38.987,36.685,20.214,36.685,1.457Z" transform="translate(18.938 -1.397)" fill="#191919"/>
          <path id="Path_5090" data-name="Path 5090" d="M48.67,1.471c1.85-.03,3.715-.03,5.58-.03Q70.4,23.139,86.624,44.762c-.061-14.436,0-28.856-.015-43.291,2.2-.03,4.4-.045,6.6-.061q.091,28.181.03,56.362c-1.986,0-3.958,0-5.944-.015C76.525,43.443,65.926,28.977,55.205,14.6c.076,14.375.03,28.765.03,43.14-2.184.015-4.352.015-6.535,0C48.67,38.985,48.746,20.228,48.67,1.471Z" transform="translate(25.134 -1.41)" fill="#191919"/>
          <path id="Path_5091" data-name="Path 5091" d="M85.36,1.446c9.113-.03,18.211-.015,27.324-.015v7.4c-6.763.03-13.526-.015-20.273.03q-.023,8.416-.015,16.847,9.8-.045,19.606,0,.023,3.639.046,7.278-9.826.045-19.637.015c-.03,5.792-.03,11.57.015,17.362,6.975-.061,13.95-.03,20.925-.015V57.7c-9.326.061-18.636.045-27.961.03C85.36,38.961,85.39,20.2,85.36,1.446Z" transform="translate(44.078 -1.401)" fill="#191919"/>
        </g>
        <g id="Group_1059" data-name="Group 1059" transform="translate(0 85.754)">
          <path id="Path_5092" data-name="Path 5092" d="M118.65,1.445h7.036q6.551,19.265,13.162,38.5,6.664-19.22,13.207-38.515c2.229,0,4.443,0,6.672.045,4.4,12.859,8.886,25.687,13.283,38.545,4.352-12.859,8.674-25.747,13.071-38.591,2.3,0,4.61.015,6.914.03C185.354,20.6,178.94,39.824,172.146,58.914c-2.168-2.517-2.82-5.838-3.927-8.871q-6.346-18.81-12.858-37.545c-5.019,14.3-9.932,28.628-14.875,42.943a9.38,9.38,0,0,1-2.077,3.427C131.645,39.778,125.261,20.581,118.65,1.445Z" transform="translate(-118.65 -0.74)" fill="#191919"/>
          <path id="Path_5093" data-name="Path 5093" d="M170.941,1.431c9.083.03,18.181-.015,27.264,0,.03,2.456.045,4.928.061,7.385-6.808.03-13.6.015-20.395.061,0,5.61-.015,11.221.03,16.831h19.561c0,2.441.015,4.867.015,7.309H177.856c.015,5.777,0,11.539.03,17.317q10.463.023,20.91-.015c0,2.472.015,4.958.015,7.43q-13.943-.023-27.855,0Q170.911,29.589,170.941,1.431Z" transform="translate(-91.651 -0.741)" fill="#191919"/>
          <path id="Path_5094" data-name="Path 5094" d="M200.806,2.3c5.732-2.638,12.389-1.077,17.423,2.35.015,3.139.03,6.293.106,9.432-3.912-3.867-9.78-7.567-15.361-4.883-4.064,1.82-4.534,7.521-1.744,10.614,4.125,4.685,10.342,6.869,14.451,11.6,6.2,6.611,6.1,18.605-.985,24.55-6.429,4.958-15.588,2.547-21.441-2.2-.015-3.5,0-7.021-.136-10.523,3.5,4.579,8.78,9.325,15.042,7.809,5.049-1,7.051-7.521,4.079-11.524C208.1,33.538,200.594,31.082,196.2,25.3,190.51,18.436,192.33,6.062,200.806,2.3Z" transform="translate(-80.303 -0.975)" fill="#191919"/>
          <path id="Path_5095" data-name="Path 5095" d="M213.55,1.459c13.374-.045,26.733-.015,40.107-.015v7.4c-5.52.015-11.054,0-16.574-.015-.045,16.3.015,32.616-.03,48.917-2.3,0-4.609,0-6.914-.015.015-16.285-.015-32.571.03-48.872-5.535-.015-11.069-.015-16.589-.045C213.565,6.371,213.55,3.915,213.55,1.459Z" transform="translate(-69.65 -0.738)" fill="#191919"/>
        </g>
      </g>
    </g>
  </g>
</svg>
