<svg xmlns="http://www.w3.org/2000/svg" xmlns:xlink="http://www.w3.org/1999/xlink" width="500" height="500" viewBox="0 0 500 500">
  <defs>
    <clipPath id="clip-Pandora">
      <rect width="500" height="500"/>
    </clipPath>
  </defs>
  <g id="Pandora" clip-path="url(#clip-Pandora)">
    <rect width="500" height="500" fill="#fff"/>
    <g id="Group_5876" data-name="Group 5876" transform="translate(69 69)">
      <g id="Rectangle_1614" data-name="Rectangle 1614" fill="none" stroke="#191919" stroke-width="1">
        <rect width="363" height="363" rx="9" stroke="none"/>
        <rect x="0.5" y="0.5" width="362" height="362" rx="8.5" fill="none"/>
      </g>
      <text id="Add_Note" data-name="Add Note" transform="translate(170.557 290.085)" fill="#191919" font-size="54" font-family="Roboto-Bold, Roboto" font-weight="700"><tspan x="-117.281" y="0">Our Picks</tspan></text>
      <g id="_000000ff" data-name="#000000ff" transform="translate(37.633 119.016)">
        <path id="Path_5047" data-name="Path 5047" d="M243.2,21.9a88.506,88.506,0,0,0,1.469,9.169c-.766-.009-2.3-.018-3.071-.027C242.1,27.989,242.641,24.936,243.2,21.9Z" transform="translate(-64.802 -21.9)" fill="#191919"/>
        <path id="Path_5048" data-name="Path 5048" d="M233.25,22.93c1.967,2.751,3.739,5.635,5.661,8.412-1,.107-1.994.214-2.991.329C235.155,28.725,234.167,25.832,233.25,22.93Z" transform="translate(-63.885 -22.013)" fill="#191919"/>
        <path id="Path_5049" data-name="Path 5049" d="M246.96,31.338c1.9-2.546,3.4-5.475,5.154-8.038-.258,2.911-1.558,5.679-2.377,8.483C249.043,31.668,247.654,31.454,246.96,31.338Z" transform="translate(-65.391 -22.054)" fill="#191919"/>
        <path id="Path_5050" data-name="Path 5050" d="M242.886,33.415a1.341,1.341,0,0,1,.712,2.573C241.818,36.744,240.981,33.655,242.886,33.415Z" transform="translate(-64.824 -23.16)" fill="#191919"/>
        <path id="Path_5051" data-name="Path 5051" d="M237.381,34.4c1.211-1.113,3.445-.392,2.163,1.424C238.69,37.3,236.651,35.749,237.381,34.4Z" transform="translate(-64.322 -23.215)" fill="#191919"/>
        <path id="Path_5052" data-name="Path 5052" d="M246.612,34.479c.614-1.487,3.561-.178,1.95,1.353C247.912,37.3,245.455,35.637,246.612,34.479Z" transform="translate(-65.319 -23.21)" fill="#191919"/>
        <path id="Path_5053" data-name="Path 5053" d="M237.82,38a69.09,69.09,0,0,1,9.694.045l-.819,1.709a71.042,71.042,0,0,0-8.145.107C238.363,39.39,238,38.465,237.82,38Z" transform="translate(-64.387 -23.652)" fill="#191919"/>
        <path id="Path_5054" data-name="Path 5054" d="M87.436,42.056c1.166.16,2.671-.525,3.605.32,4.691,12.694,10.13,25.112,15.845,37.37-2.733-.027-5.466-.027-8.2.027-1.531-3.961-2.982-7.94-4.638-11.839-4.478.009-8.964,0-13.442,0-1.576,3.9-3.133,7.807-4.371,11.83-1.656-.018-3.311-.027-4.967.009,5.457-12.534,11.741-24.765,16.166-37.717M81.756,64.747a88.912,88.912,0,0,0,10.78.062C90.979,60.3,89.127,55.9,87.551,51.394,85.317,55.712,83.75,60.323,81.756,64.747Z" transform="translate(-46.096 -24.101)" fill="#191919"/>
        <path id="Path_5055" data-name="Path 5055" d="M235.619,42.53c6.7-1.415,14.323-.249,19.628,4.3,9.347,8.279,7.041,25.931-4.318,31.325-7.709,3.685-17.714,2.973-24.426-2.484-6.587-5.528-7.326-15.569-4.139-23.109A17.539,17.539,0,0,1,235.619,42.53m1.682,2.608a11.317,11.317,0,0,0-6.756,5.51c-2.893,4.816-3.018,10.753-2.074,16.148.952,4.789,4.264,9.543,9.258,10.62,2.893.374,6.062.481,8.67-1.068,4.647-2.484,6.641-7.94,7.157-12.908.329-4.887-.231-10.184-3.125-14.3C247.539,45.112,241.922,43.848,237.3,45.138Z" transform="translate(-62.489 -24.103)" fill="#191919"/>
        <path id="Path_5056" data-name="Path 5056" d="M331.242,42H334.7c4.656,12.872,10.317,25.352,15.934,37.824-2.724-.107-5.448-.116-8.172-.062-1.5-3.943-2.991-7.9-4.593-11.813-4.513,0-9.026-.053-13.539.044-1.469,3.872-3.116,7.691-4.219,11.7-1.682.036-3.383.08-5.056.151C320.489,67.254,326.818,55,331.242,42m-5.661,22.762a89.178,89.178,0,0,0,10.8.045c-1.674-4.5-3.463-8.964-5.1-13.486C329.195,55.727,327.468,60.275,325.581,64.762Z" transform="translate(-72.869 -24.107)" fill="#191919"/>
        <path id="Path_5057" data-name="Path 5057" d="M42.99,42.739c5.038.08,10.077-.1,15.115.053a9.858,9.858,0,0,1,8.822,5.831C68.048,52.5,67.47,57.151,64.4,60c-3.783,3.57-9.409,3.694-14.287,3.311.036,5.51.08,11.02.267,16.539-2.466-.045-4.932-.045-7.388-.018.08-12.365.107-24.729,0-37.094m7.139,2.715c.027,5.1-.053,10.193.044,15.284,1.914-.044,3.926.285,5.768-.383,5.012-2.065,6.151-9.5,2.644-13.388C56.334,44.8,52.969,45.187,50.129,45.454Z" transform="translate(-42.99 -24.188)" fill="#191919"/>
        <path id="Path_5058" data-name="Path 5058" d="M120.9,42.67c.659.027,1.976.089,2.635.116,8.118,9.009,16.789,17.519,25.6,25.842.018-8.635-.223-17.269-.659-25.9,1.513.009,3.036.009,4.558,0-.579,12.56-.481,25.13-.579,37.7a4.117,4.117,0,0,1-3.24-1.487c-8.083-8.519-16.308-16.913-24.925-24.9.178,8.6-.027,17.216.632,25.788H120.46C121.288,67.47,120.843,55.061,120.9,42.67Z" transform="translate(-51.498 -24.181)" fill="#191919"/>
        <path id="Path_5059" data-name="Path 5059" d="M171.888,42.739c5.67.062,11.341-.071,17.011.036,5.323.08,11.011,1.932,14.332,6.32,4.246,5.617,4.415,13.459,1.941,19.851a17.51,17.51,0,0,1-15.462,10.789c-5.937.249-11.893-.027-17.839.107.071-12.373.445-24.738.018-37.1m7.3,2.955c-.552,10.335-.463,20.714-.036,31.058,4.308.071,9.009,1.157,12.934-1.22,5.3-2.786,7.371-9.133,7.353-14.795.134-5.172-1.923-10.976-6.756-13.486C188.588,44.893,183.692,45.65,179.187,45.694Z" transform="translate(-57.144 -24.188)" fill="#191919"/>
        <path id="Path_5060" data-name="Path 5060" d="M276.94,42.739c5.626.089,11.261-.116,16.887.071a8.8,8.8,0,0,1,8.074,5.6,9.881,9.881,0,0,1-1.5,8.991c-1.771,2.377-4.718,3.294-7.442,4.068C297.3,67.726,301.625,74,306.449,79.895c-3.053-.116-6.107-.107-9.151-.027A210.686,210.686,0,0,0,284.72,61.486c-1.353,5.955-.16,12.249-.472,18.338-2.43-.107-4.869-.116-7.3-.036.267-12.338.828-24.711-.009-37.049m7.175,2.822c.009,4.736-.018,9.48.018,14.225,2.208-.027,4.513.32,6.658-.365,4.62-1.674,5.982-8.314,3.089-12.035C291.379,44.733,287.391,45.133,284.115,45.561Z" transform="translate(-68.683 -24.187)" fill="#191919"/>
      </g>
    </g>
  </g>
</svg>
