<svg xmlns="http://www.w3.org/2000/svg" xmlns:xlink="http://www.w3.org/1999/xlink" width="500" height="500" viewBox="0 0 500 500">
  <defs>
    <clipPath id="clip-Riva_Active">
      <rect width="500" height="500"/>
    </clipPath>
  </defs>
  <g id="Riva_Active" clip-path="url(#clip-Riva_Active)">
    <rect width="500" height="500" fill="#fff"/>
    <g id="Group_5884" data-name="Group 5884" transform="translate(68 68)">
      <rect id="Rectangle_1614" data-name="Rectangle 1614" width="364" height="364" rx="9" fill="#d19130"/>
      <g id="claires-logo-desktop" transform="translate(47.74 119.344)">
        <g id="_231f20ff" data-name="#231f20ff" transform="translate(0 0)">
          <path id="Path_5109" data-name="Path 5109" d="M121.21,51.711c13.453-4.8,28-5.5,42.1-4.087,9.219,1.191,19.574,6.195,22.03,15.963,2.2,11.931-2.053,24.742,2.932,36.179-5.3-.092-10.594-.073-15.89-.055.073-1.466.22-4.4.312-5.847-11.858,7.881-27.07,9.494-40.688,6.066-6.836-1.869-14.68-5.058-17.081-12.39-2.163-7.753,4.27-14.516,11.07-16.935,14.937-5.682,31.34-4.05,46.846-2.034a13.1,13.1,0,0,0-9.384-11.033c-12.609-3.757-26.117-1.283-38.378,2.658-1.265-2.841-2.566-5.663-3.867-8.486m13.361,26.1c-4.454,1.173-8.064,6.946-3.592,10.41,6.69,4.985,15.707,4.27,23.57,3.739,7.863-1.008,18.933-4.6,18.346-14.442C160.34,75.3,146.924,73.8,134.571,77.81Z" transform="translate(89.614 -46.977)" fill="#fff"/>
          <path id="Path_5110" data-name="Path 5110" d="M3.13,47.59c15.194.092,30.387-.055,45.581.073,7.2.385,14.9,1.136,21,5.333,6.176,4.179,6.506,14.277.715,18.914C65.774,75.943,59.506,76.8,53.6,77.446c10.832,4.087,18.969,12.866,25.824,21.865q-8.3-.11-16.6-.183a62.765,62.765,0,0,0-18.2-17.576c-7.441-4.4-16.422-2.419-24.6-2.9.073,6.836.055,13.673.165,20.527-4.619.037-9.219.018-13.819-.092-.11-14.479.77-28.976.037-43.455.037-3.042-1.558-5.663-3.281-8.046m16.88,8.632q.11,6.955.055,13.874c9.6-.147,19.226.165,28.848-.183,4.105-.183,9.146-.88,11.125-5.058,1.283-4.71-3.592-7.881-7.7-8.119C41.6,55.636,30.787,56.406,20.01,56.222Z" transform="translate(-3.13 -46.466)" fill="#fff"/>
          <path id="Path_5111" data-name="Path 5111" d="M54.36,99.209c.147-17.21.018-34.419.073-51.629,4.509.037,9.017.037,13.508.055-.128,17.173-.147,34.346.037,51.519C63.432,99.209,58.905,99.209,54.36,99.209Z" transform="translate(39.533 -46.474)" fill="#fff"/>
          <path id="Path_5112" data-name="Path 5112" d="M69.16,47.688q7.808-.137,15.652.018c7.313,13.782,16.532,26.612,22.616,41.017,6.781-14.222,15.322-27.547,23.2-41.164,5.113.092,10.209.092,15.322.11-11.015,17.045-21.718,34.31-32.458,51.519-4.05.073-8.1.055-12.133-.22Q85.692,73.072,69.16,47.688Z" transform="translate(51.858 -46.491)" fill="#fff"/>
        </g>
      </g>
      <text id="Add_Note" data-name="Add Note" transform="translate(168.292 257.553)" fill="#fefefe" font-size="54" font-family="Roboto-Bold, Roboto" font-weight="700"><tspan x="-117.281" y="0">Our Picks</tspan></text>
    </g>
  </g>
</svg>
