<svg xmlns="http://www.w3.org/2000/svg" xmlns:xlink="http://www.w3.org/1999/xlink" width="500" height="500" viewBox="0 0 500 500">
  <defs>
    <clipPath id="clip-Rivoli">
      <rect width="500" height="500"/>
    </clipPath>
  </defs>
  <g id="Rivoli" clip-path="url(#clip-Rivoli)">
    <rect width="500" height="500" fill="#fff"/>
    <g id="Group_5874" data-name="Group 5874" transform="translate(69 69)">
      <g id="Rectangle_1614" data-name="Rectangle 1614" fill="none" stroke="#191919" stroke-width="1">
        <rect width="363" height="363" rx="9" stroke="none"/>
        <rect x="0.5" y="0.5" width="362" height="362" rx="8.5" fill="none"/>
      </g>
      <text id="Add_Note" data-name="Add Note" transform="translate(170.557 307.938)" fill="#191919" font-size="54" font-family="Roboto-Bold, Roboto" font-weight="700"><tspan x="-117.281" y="0">Our Picks</tspan></text>
      <g id="Group_5863" data-name="Group 5863" transform="translate(95.207 53.56)">
        <path id="Fill-4" d="M62.322,44.979H81.368c10.744,0,15.9,4.9,15.9,11.585,0,6.056-5.561,12.214-16.591,12.214H62.322ZM45.015,100.612H67.6c.919,0,1.125-.084,1.125-.182,0-.192-.409-.29-1.418-.737-3.657-1.446-4.981-4.439-4.981-8.865V71.021l14.8.37C89.8,71.65,91.5,77.895,95.975,88.75l4.855,11.861h13.377c3.332,0,3.842-.084,3.842-.182,0-.37-.8-.622-1.732-1.191-3.129-.992-6.877-9.05-9.2-15.19-3.559-9.479-13.293-12.658-23.52-13.754v-.168c10.649,0,27.272-1.645,27.272-14.125,0-8.044-7.824-13.287-26.657-13.287h-37.9c-1.5,0-1.911.206-1.911.555,0,.527,1.03.632,2.117,1,3.954,1.24,4.073,5.885,4.073,8.61V90.828c0,4.425-.936,7.076-4.757,8.865-.94.367-1.628.545-1.628.737S44.495,100.612,45.015,100.612Zm-25.86,24.282H143.085V18.4H19.155ZM.8.5.776,142.86H161.45V.5Z" transform="translate(-0.774 -0.499)" fill="#231f20" fill-rule="evenodd"/>
        <path id="Fill-5" d="M.775,118.323H161.45V64.454H.775Z" transform="translate(-0.777 77.909)" fill="#afb478" fill-rule="evenodd"/>
        <path id="Fill-6" d="M11.417,79.748h1.774c1.9,0,2.469-.6,2.469-1.753,0-1.191-.723-1.736-2.047-1.736h-2.2ZM8.989,86.685V74.348h5.033c2.878,0,4.031,1.6,4.052,3.647a3.107,3.107,0,0,1-2.3,3.206l2.777,5.484h-2.7l-2.368-5.019H11.417v5.019Z" transform="translate(9.293 90.039)" fill="#231f20" fill-rule="evenodd"/>
        <path id="Fill-7" d="M14.7,86.685h2.413V74.349H14.7Z" transform="translate(16.296 90.039)" fill="#231f20" fill-rule="evenodd"/>
        <path id="Fill-8" d="M16.954,74.349h2.368l2.27,9.1h.021l2.361-9.1h2.379L23,86.685H20.3Z" transform="translate(19.057 90.039)" fill="#231f20" fill-rule="evenodd"/>
        <path id="Fill-9" d="M27.118,76.212c-1.984,0-2.892,1.491-2.892,4.383-.028,2.9.9,4.376,2.892,4.376C29.088,84.972,30,83.5,30,80.6s-.908-4.383-2.878-4.383m0,10.726c-3.451,0-5.312-2.281-5.312-6.343,0-4.041,1.862-6.325,5.312-6.325s5.309,2.284,5.309,6.325c0,4.062-1.872,6.343-5.309,6.343" transform="translate(25.006 89.942)" fill="#231f20" fill-rule="evenodd"/>
        <path id="Fill-10" d="M27.744,86.685V74.349h2.427V84.7h5.494v1.984Z" transform="translate(32.289 90.039)" fill="#231f20" fill-rule="evenodd"/>
        <path id="Fill-11" d="M32.595,86.685h2.414V74.349H32.595Z" transform="translate(38.235 90.039)" fill="#231f20" fill-rule="evenodd"/>
        <path id="Fill-12" d="M45.335,77.965a2.572,2.572,0,0,0-2.55-1.753c-1.767,0-2.654,1.753-2.654,4.526,0,2.585,1.024,4.233,2.693,4.233a2.483,2.483,0,0,0,2.654-2.431H43.057V80.546H47.79v6.235H46.037V85.523a3.97,3.97,0,0,1-3.287,1.415c-3.44,0-5.037-2.63-5.037-6.137,0-3.168,1.237-6.531,5.267-6.531A4.45,4.45,0,0,1,47.587,77.4Z" transform="translate(44.508 89.942)" fill="#231f20" fill-rule="evenodd"/>
        <path id="Fill-13" d="M46.086,79.748h1.774c1.9,0,2.476-.6,2.476-1.753,0-1.191-.723-1.736-2.068-1.736H46.086Zm-2.421,6.937V74.348H48.7c2.878,0,4.024,1.6,4.073,3.647A3.128,3.128,0,0,1,50.417,81.2l2.819,5.484h-2.71l-2.379-5.019H46.086v5.019Z" transform="translate(51.808 90.039)" fill="#231f20" fill-rule="evenodd"/>
        <path id="Fill-14" d="M54.156,76.212c-1.97,0-2.871,1.491-2.871,4.383-.028,2.9.866,4.376,2.871,4.376S57.062,83.5,57.062,80.6s-.908-4.383-2.906-4.383m0,10.726c-3.444,0-5.309-2.281-5.309-6.343,0-4.041,1.865-6.325,5.309-6.325s5.309,2.284,5.309,6.325c0,4.062-1.851,6.343-5.309,6.343" transform="translate(58.16 89.942)" fill="#231f20" fill-rule="evenodd"/>
        <path id="Fill-15" d="M62.129,74.349h2.434v7.716c0,3.629-2.27,4.778-4.862,4.778s-4.865-1.149-4.865-4.778V74.349h2.441v7.813c0,2.033.8,2.714,2.424,2.714s2.428-.681,2.428-2.714Z" transform="translate(65.499 90.039)" fill="#231f20" fill-rule="evenodd"/>
        <path id="Fill-16" d="M63.135,79.79h1.9c1.827,0,2.34-.678,2.34-1.778s-.513-1.753-2.34-1.753h-1.9Zm-2.421,6.9V74.348h4.617c2.735,0,4.467,1.076,4.467,3.664s-1.732,3.671-4.467,3.671h-2.2v5.005Z" transform="translate(72.707 90.038)" fill="#231f20" fill-rule="evenodd"/>
      </g>
    </g>
  </g>
</svg>
