<svg xmlns="http://www.w3.org/2000/svg" xmlns:xlink="http://www.w3.org/1999/xlink" width="500" height="500" viewBox="0 0 500 500">
  <defs>
    <clipPath id="clip-Stationery_Active">
      <rect width="500" height="500"/>
    </clipPath>
  </defs>
  <g id="Stationery_Active" clip-path="url(#clip-Stationery_Active)">
    <rect width="500" height="500" fill="#fff"/>
    <g id="Group_5869" data-name="Group 5869">
      <g id="Group_1107" data-name="Group 1107" transform="translate(65.017 71.263)">
        <rect id="Rectangle_1615" data-name="Rectangle 1615" width="370" height="358" rx="9" transform="translate(-0.017 -0.263)" fill="#d19130"/>
        <text id="Add_Note" data-name="Add Note" transform="translate(184.983 283.488)" fill="#fff" font-size="33" font-family="Roboto-Bold, Roboto" font-weight="700"><tspan x="-76.449" y="0">Stationery</tspan></text>
        <g id="_000000ff" data-name="#000000ff" transform="translate(96.513 51.937)">
          <path id="Path_5145" data-name="Path 5145" d="M184.359,39.589a14.423,14.423,0,0,1,19.986,20.793q-6.608,6.6-13.207,13.2a16.2,16.2,0,0,1-1.284,13.271c-1.2,2.167-3.105,3.793-4.819,5.542Q134.148,143.282,83.261,194.173c-.879.835-1.65,1.9-2.878,2.238q-22.149,7.884-44.29,15.807a3.184,3.184,0,0,1-4-4q7.884-22.167,15.815-44.317a3.91,3.91,0,0,1,1.046-1.674Q98.631,112.567,148.3,62.891c-2.262-2.059-4.107-4.807-7.109-5.848a9.738,9.738,0,0,0-9.931,2.195q-23.109,22.035-46.19,44.091a3.193,3.193,0,0,1-2.242.982,3.33,3.33,0,0,1-3.141-4.008c.3-1.149,1.328-1.857,2.123-2.66q22.274-21.26,44.544-42.528a16.582,16.582,0,0,1,8.5-4.6A15.81,15.81,0,0,1,148.665,54.3c1.407,1.34,2.751,2.743,4.135,4.1a17.149,17.149,0,0,1,9.108-5.681,16.684,16.684,0,0,1,8.834.477c4.536-4.536,9.061-9.088,13.617-13.6m4.095,4.886q-6.041,6.035-12.078,12.074,5.719,5.683,11.4,11.41,5.451-5.451,10.9-10.9a13.6,13.6,0,0,0,2.56-3.006,7.917,7.917,0,0,0,.386-6.957,8.251,8.251,0,0,0-6.321-4.93,8,8,0,0,0-6.85,2.31m-29.635,16.9Q128.638,91.555,98.46,121.735q12.07,12.07,24.141,24.141Q152.794,115.688,182.98,85.5a9.456,9.456,0,0,0,2.727-7.466,9.729,9.729,0,0,0-3.149-6.317c-3.518-3.495-7.009-7.025-10.536-10.512a9.489,9.489,0,0,0-13.2.179M55.53,164.669q12.07,12.07,24.141,24.137,19.215-19.215,38.433-38.433-12.07-12.07-24.141-24.137Q74.743,145.45,55.53,164.669m-3.2,5.812q-5.976,16.74-11.947,33.48,16.734-5.975,33.472-11.939Q63.11,181.234,52.326,170.481Z" transform="translate(-31.904 -35.78)" fill="#fff"/>
        </g>
      </g>
    </g>
  </g>
</svg>
