<svg xmlns="http://www.w3.org/2000/svg" xmlns:xlink="http://www.w3.org/1999/xlink" width="300" height="300" viewBox="0 0 300 300">
  <defs>
    <clipPath id="clip-Support">
      <rect width="300" height="300"/>
    </clipPath>
  </defs>
  <g id="Support" clip-path="url(#clip-Support)">
    <rect width="300" height="300" fill="#fff"/>
    <path id="message-circle" d="M92.155,45.1A41.507,41.507,0,0,1,87.7,63.923,42.1,42.1,0,0,1,50.054,87.2a41.507,41.507,0,0,1-18.822-4.458L3,92.155l9.411-28.232A41.507,41.507,0,0,1,7.953,45.1,42.1,42.1,0,0,1,31.232,7.458,41.507,41.507,0,0,1,50.054,3H52.53A42,42,0,0,1,92.155,42.624Z" transform="translate(102.5 91.485)" fill="none" stroke="#191919" stroke-linecap="round" stroke-linejoin="round" stroke-width="2"/>
  </g>
</svg>
