<svg xmlns="http://www.w3.org/2000/svg" xmlns:xlink="http://www.w3.org/1999/xlink" width="500" height="500" viewBox="0 0 500 500">
  <defs>
    <clipPath id="clip-Swatch_Active">
      <rect width="500" height="500"/>
    </clipPath>
  </defs>
  <g id="Swatch_Active" clip-path="url(#clip-Swatch_Active)">
    <rect width="500" height="500" fill="#fff"/>
    <g id="Group_5893" data-name="Group 5893" transform="translate(69 69)">
      <rect id="Rectangle_1614" data-name="Rectangle 1614" width="363" height="363" rx="9" fill="#d19130"/>
      <text id="Add_Note" data-name="Add Note" transform="translate(176.508 272.233)" fill="#fff" font-size="54" font-family="Roboto-Bold, Roboto" font-weight="700"><tspan x="-117.281" y="0">Our Picks</tspan></text>
      <g id="Group_5862" data-name="Group 5862" transform="translate(43.283 113.066)">
        <path id="Union_4" data-name="Union 4" d="M163.426,34.526c-1.84-3.566-1.966-7.727-1.459-11.63,1.512-8.234,9.15-14.912,17.562-15.063a18.776,18.776,0,0,1,15.952,7.745c-2.028,1.4-4.055,2.818-6.064,4.259-3.726-4.748-11.141-6.029-15.934-2.152-5.424,3.948-5.754,12.9-.543,17.17,5.281,4.926,14.7,2.881,17.579-3.717,2.329,1,4.668,1.983,6.935,3.121-3.076,6.019-9.14,10.679-16.05,10.875q-.69.058-1.379.057A18.7,18.7,0,0,1,163.426,34.526Zm-98.3,6.981c-3.477,2.978-8.447,4.463-12.848,2.774-4.26-1.343-7.256-5.131-8.563-9.292-.3-8.936-.044-17.872-.159-26.817q3.934-.081,7.851.035c.08,8.385-.4,16.815.214,25.173.6,5.325,9.381,4.881,9.576-.427.266-8.3-.027-16.592.142-24.888,2.623.062,5.255.062,7.887.124l-.035.818c-.071,8.11-.338,16.254.124,24.346.284,3.014,4.117,4.837,6.74,3.468a5.2,5.2,0,0,0,3.023-4.971c.027-7.887-.009-15.773,0-23.669q3.841-.067,7.682-.018c.044,8.171-.009,16.334-.053,24.505a12.873,12.873,0,0,1-12.084,12.3q-.387.03-.77.03C70.633,45,67.639,43.434,65.127,41.507ZM100.3,39.924A17.573,17.573,0,0,1,95.09,21.919c1.805-7.416,8.7-12.937,16.2-13.7,3.4-.2,6.811-.172,10.218-.146,2.119.016,4.238.031,6.357-.005v.747q.026,17.646.009,35.3l-.009.773c-2.641-.009-5.291.009-7.941-.142.418-9.274.178-18.583.107-27.858l-.036-1c-.954.027-1.93.008-2.915-.011-3.532-.068-7.161-.137-10.165,1.922-5.2,3.236-6.6,11.452-2.081,15.836,3.1,3.4,7.994,3.849,12.333,3.556-.044,2.561-.035,5.131-.1,7.691-.82.074-1.648.112-2.478.112C109.409,44.989,104.148,43.5,100.3,39.924Zm44.267,3.752A11.981,11.981,0,0,1,137.633,32.7c0-10.884-.115-21.776.071-32.668,2.472.044,4.935.044,7.4-.027a69.887,69.887,0,0,1,.053,7.959c3.433.222,6.882.186,10.315.089.08,2.6.071,5.21.071,7.825q-2.142.009-4.287.006c-2.025,0-4.051,0-6.072.02.16,5.575-.054,11.159.1,16.735a4.346,4.346,0,0,0,4.055,4.463c1.59.122,3.188.116,4.786.11.948,0,1.9-.008,2.842.015-.071,2.534-.071,5.077-.017,7.62-1.124-.044-2.268-.011-3.415.022-.752.022-1.507.043-2.258.043A14.907,14.907,0,0,1,144.568,43.676Zm59.126,1.129.045-.854c.275-14.368.124-28.747.159-43.124L203.89.053c2.542-.009,5.086-.009,7.628-.053.1,3.441.1,6.882.054,10.323,4.25-2.258,9.381-3.218,13.986-1.422,6.18,2.107,10.911,8.206,10.9,14.813.053,7.034-.009,14.067.026,21.1-2.543.063-5.086.054-7.628,0-.125-6.944.053-13.88-.071-20.824.08-4.747-4.562-8.714-9.212-8.287a8.828,8.828,0,0,0-8,8.883c-.054,6.776.062,13.551-.045,20.326C208.913,44.868,206.3,44.877,203.693,44.806Zm-202.481,0c-.036-2.542-.036-5.095.071-7.646,7.86.017,15.711.133,23.563-.036,3.281-.071,4.935-4.685,2.3-6.757a41.967,41.967,0,0,0-10.584-.6A59.378,59.378,0,0,1,9,29.654,10.87,10.87,0,0,1,.118,17.615c.5-4.819,4.606-8.536,9.2-9.55,8.118.009,16.236.027,24.354-.008,0,2.6-.009,5.21-.009,7.816-3.495.036-6.991.024-10.488.013-4.163-.014-8.328-.027-12.488.04-3.316-.142-4.108,5.264-.826,5.993,2.773.185,5.553.147,8.334.108,2.808-.039,5.616-.078,8.418.114a11.3,11.3,0,0,1,9.5,12.235C35.6,40,30.555,44.895,24.837,44.851q-5.373.012-10.752.018Q7.649,44.868,1.212,44.806Z" transform="translate(0.002)" fill="#fff"/>
        <path id="Path_5102" data-name="Path 5102" d="M312.13,59.91c2.658-.178,5.326-.187,7.985-.124.089,3.2.08,6.4.044,9.612q4.735-.16,9.479-.009-.027,3.921-.009,7.825-4.735.173-9.461,0c.027,3.21.036,6.42-.044,9.63-2.667.053-5.335.044-7.994-.133q.093-4.668.009-9.336-4.628-.12-9.239.027a35.47,35.47,0,0,1,0-8.18q4.615.147,9.239.027Q312.219,64.578,312.13,59.91Z" transform="translate(-49.605 -46.857)" fill="#fff"/>
        <g id="_ee1c23ff" data-name="#ee1c23ff" transform="translate(248.272 8.038)">
          <path id="Path_5103" data-name="Path 5103" d="M297.28,54.29c12.262.08,24.532.044,36.8.018q-.2,18.392-.009,36.794c-12.262,0-24.532-.044-36.794.027q.04-18.419,0-36.838M311.533,59.3q.094,4.668.009,9.336-4.628.12-9.238-.027a35.443,35.443,0,0,0,0,8.18q4.615-.147,9.238-.027.08,4.668-.009,9.336c2.659.178,5.326.187,7.994.133.08-3.21.071-6.42.045-9.63q4.721.173,9.461,0-.013-3.908.009-7.825-4.748-.147-9.479.009c.036-3.21.044-6.411-.044-9.612C316.859,59.118,314.192,59.127,311.533,59.3Z" transform="translate(-297.28 -54.29)" fill="#ee1c23"/>
        </g>
      </g>
    </g>
  </g>
</svg>
