<svg xmlns="http://www.w3.org/2000/svg" xmlns:xlink="http://www.w3.org/1999/xlink" width="500" height="500" viewBox="0 0 500 500">
  <defs>
    <clipPath id="clip-Tissot">
      <rect width="500" height="500"/>
    </clipPath>
  </defs>
  <g id="Tissot" clip-path="url(#clip-Tissot)">
    <rect width="500" height="500" fill="#fff"/>
    <g id="Group_5885" data-name="Group 5885" transform="translate(68 68)">
      <g id="Rectangle_1614" data-name="Rectangle 1614" fill="none" stroke="#191919" stroke-width="1">
        <rect width="364" height="364" rx="9" stroke="none"/>
        <rect x="0.5" y="0.5" width="363" height="363" rx="8.5" fill="none"/>
      </g>
      <text id="Add_Note" data-name="Add Note" transform="translate(182 266.875)" fill="#191919" font-size="54" font-family="Roboto-Bold, Roboto" font-weight="700"><tspan x="-117.281" y="0">Our Picks</tspan></text>
      <g id="Tissot_Logo" transform="translate(52.48 71.607)">
        <g id="_ed1c24ff" data-name="#ed1c24ff" transform="translate(138.443)">
          <path id="Path_5078" data-name="Path 5078" d="M102.414,0h37.407c1.467,12.94.26,26.03.658,39.038-12.816.027-25.633.055-38.449-.014.356-13.008-.3-26.03.384-39.024m14.708,6.223q.123,4.832.178,9.636c-3.358.014-6.689,0-10.034.014,0,2.755,0,5.524-.014,8.279q5.017.021,10.047.014c-.041,3.235-.1,6.484-.192,9.718q4.215.062,8.43.1c-.027-3.249-.082-6.511-.192-9.76,3.345-.069,6.675-.055,10.02-.1-.014-2.741-.014-5.5,0-8.238-3.358-.027-6.716,0-10.061-.123q.185-4.791.26-9.581Q121.33,6.182,117.122,6.223Z" transform="translate(-102.03)" fill="#ed1c24"/>
        </g>
        <g id="_231f20ff" data-name="#231f20ff" transform="translate(0 0.699)">
          <path id="Path_5079" data-name="Path 5079" d="M70.831.551C83.551.537,96.258.606,108.978.51c.26,12.72-.11,25.454.206,38.175-12.8.1-25.591.027-38.394.041.055-12.72-.014-25.454.041-38.175m5.058,12.076c3.358-.014,6.717-.027,10.075-.082.027,7.224-.041,14.434-.014,21.644,2.879-.027,5.757-.082,8.636-.192q-.041-10.712-.055-21.438c3.29.041,6.579.055,9.883.069-.014-2.125-.014-4.236-.014-6.36q-14.249-.041-28.5,0C75.9,8.392,75.9,10.5,75.889,12.627Z" transform="translate(24.832 -0.51)" fill="#231f20"/>
          <path id="Path_5080" data-name="Path 5080" d="M58.991,44.418c7.388-7.58,19.574-7.731,29.046-4.51a16.451,16.451,0,0,1,11.528,12.9c-4.331.11-8.649.11-12.981.027-1.823-6.045-9.664-9.389-14.79-5.2a2.878,2.878,0,0,0,.439,5.168C80.1,56.22,89.654,55.438,96.59,61.045c4.852,3.907,4.414,11.624.781,16.2-4.085,5.2-11.089,6.689-17.367,6.936-7.923.219-17-1-22.343-7.512-2.33-2.454-2.81-5.908-3.482-9.074,4.66-.082,9.321-.1,13.968-.082.069,7.429,8.855,11.761,15,7.978a4.454,4.454,0,0,0,.11-7.731c-7.169-3.824-16.284-2.221-22.9-7.292C55.373,56.8,54.386,48.777,58.991,44.418Z" transform="translate(18.674 13.358)" fill="#191919"/>
          <path id="Path_5081" data-name="Path 5081" d="M94.988,44.356c6.785-6.881,17.723-7.306,26.578-5.044,6.717,1.467,13.049,6.607,13.707,13.8-4.263.055-8.526.055-12.775-.082-1.782-6.017-9.389-9.307-14.626-5.469a3.018,3.018,0,0,0,.178,5.414c7.909,3.331,17.5,2.6,24.454,8.252,6.141,5.113,3.674,15.489-2.728,19.3-7.662,4.647-17.326,4.414-25.838,2.618-7.333-1.549-13.488-7.676-13.9-15.38q7.011-.144,14.023-.055c.11,7.5,9.088,11.816,15.174,7.745,2.974-1.6,2.673-5.976-.137-7.539-7.169-3.879-16.353-2.234-22.96-7.347C91.15,56.83,90.328,48.688,94.988,44.356Z" transform="translate(31.968 13.42)" fill="#191919"/>
          <path id="Path_5082" data-name="Path 5082" d="M144.192,38.755c9.527-2.234,20.739-.672,27.826,6.566,8.32,8.389,8.183,23.535-.411,31.691-6.977,6.648-17.49,8.005-26.661,6.278-6.689-1.138-13.282-5.017-16.147-11.391a26.727,26.727,0,0,1-.123-21.356c2.81-6.223,8.978-10.349,15.517-11.788m2.8,8.169c-3.619,2.084-5.36,6.278-5.771,10.267-.48,5.031-.329,10.568,2.659,14.859,3.783,5.593,13.474,5.5,16.887-.452a21.315,21.315,0,0,0-.3-21.534C157.721,45.609,151.43,44.43,146.988,46.925Z" transform="translate(45.489 13.319)" fill="#191919"/>
          <path id="Path_5083" data-name="Path 5083" d="M1.03,38.61c16.6-.137,33.185-.041,49.785-.041q-.041,5.181-.041,10.39h-17.5c.041,11.295-.027,22.59.055,33.871q-7.155.082-14.338-.014c.151-11.281.041-22.576.082-33.857H1.194C1.181,45.5,1.14,42.064,1.03,38.61Z" transform="translate(-1.03 13.587)" fill="#191919"/>
          <path id="Path_5084" data-name="Path 5084" d="M40.44,38.569q7.32-.062,14.639-.014-.021,22.144,0,44.288-7.3.021-14.571,0C40.509,68.094,40.618,53.332,40.44,38.569Z" transform="translate(13.58 13.587)" fill="#191919"/>
          <path id="Path_5085" data-name="Path 5085" d="M162.87,38.553c16.819.014,33.638-.055,50.456.041q-.1,5.181-.1,10.363c-6.072,0-12.131-.014-18.2.027.11,11.295.027,22.589.069,33.871q-7.176.021-14.338-.014c.028-11.281-.1-22.562.068-33.829-5.922-.082-11.857-.055-17.792-.069C162.939,45.489,162.9,42.021,162.87,38.553Z" transform="translate(58.968 13.589)" fill="#191919"/>
        </g>
        <g id="_ffffffff" data-name="#ffffffff" transform="translate(100.721 6.182)">
          <path id="Path_5086" data-name="Path 5086" d="M115.709,4.551q4.215-.041,8.444-.041-.082,4.791-.26,9.581c3.344.123,6.7.1,10.061.123-.014,2.741-.014,5.5,0,8.238-3.345.041-6.675.027-10.02.1.11,3.249.164,6.511.192,9.76q-4.215-.041-8.43-.1c.1-3.235.151-6.484.192-9.718q-5.038,0-10.047-.014c.014-2.755.014-5.524.014-8.279,3.345-.014,6.675,0,10.034-.014Q115.826,9.376,115.709,4.551Z" transform="translate(-62.895 -4.51)" fill="#fff"/>
          <path id="Path_5087" data-name="Path 5087" d="M74.51,11.076c.014-2.125.014-4.236.014-6.36q14.249-.041,28.5,0c0,2.125,0,4.236.014,6.36-3.3-.014-6.593-.027-9.883-.069q.021,10.712.055,21.438c-2.879.11-5.757.164-8.636.192-.027-7.21.041-14.42.014-21.644C81.227,11.048,77.868,11.062,74.51,11.076Z" transform="translate(-74.51 -4.441)" fill="#fff"/>
        </g>
      </g>
    </g>
  </g>
</svg>
